<svg xmlns="http://www.w3.org/2000/svg" viewBox="0 0 1366 768"><g id="Layer_10" data-name="Layer 10"><g id="behind"><path d="M564,401.92c-2.76-2-6.08-1.42-9.13-1.84q-8.37-1.15-16.8-1.92c-8.49-.8-17-1.85-25.43-2.74-6.89-.73-13.77-1.51-20.65-2.29-5.1-.58-10.24-1-15.34-1.6s-10.11-1.07-15.14-1.76c-3.25-.44-6.55-.69-9.83-1q-5.89-.66-11.77-1.35c-3.34-.4-6.71-.68-10.07-1.05-3.93-.43-7.85-.89-11.77-1.35-3.27-.39-6.55-.71-9.83-1-4-.42-8-.92-12-1.36-3.35-.36-6.71-.68-10.07-1.05-3.93-.43-7.85-.9-11.77-1.35-3.35-.37-6.72-.68-10.07-1.05-3.93-.44-7.85-1-11.77-1.36-7.49-.71-15-1.84-22.54-1a56.75,56.75,0,0,0-7,1.63" style="fill:none;stroke:#000;stroke-linecap:round;stroke-linejoin:round;stroke-width:2px"/><path d="M932,383.68c.07,1.32-.86,2.08-1.68,2.88-2.64,2.56-5.33,5.07-7.91,7.69a364.28,364.28,0,0,0-38.9,46.54q-9.81,14-18.24,28.81c-1.21,2.12-1.25,2.73,1.46,3.56,2.48.75,5.11.28,7.67.46q13.46,1,26.89,2.14c9,.81,17.93,1.84,26.86,3,7.71,1,15.39,2.38,23.07,3.66,8.82,1.48,17.61,3.17,26.37,5,9.1,1.87,18.14,4.07,27.13,6.41,6.45,1.68,12.93,3.22,19.21,5.49a47.62,47.62,0,0,1,11.72,6.08,4.75,4.75,0,0,0,3.15,1.16" style="fill:none;stroke:#000;stroke-linecap:round;stroke-linejoin:round;stroke-width:2px"/><path d="M1034.92,379.36c-13.6-.19-27.2.43-40.8.6-10.47.13-21,.49-31.44.86-7.84.28-15.68.94-23.52,1.08a20.58,20.58,0,0,0-6.24,1.07c-.26.09-.55.5-.71.44-5.74-2.11-11.54.46-17.29-.2a8.45,8.45,0,0,1-1.43,0,7.09,7.09,0,0,0-5.86.57c-2.08,1-4.87.72-7.35.88-9.23.59-18.4,1.77-27.6,2.65a11.15,11.15,0,0,0-5.52,1.68c-.36.26-.75.64-1.19.46-4.65-1.86-9.21,0-13.68.6a605.94,605.94,0,0,0-63.84,12.66,14.89,14.89,0,0,1-4.57.68" style="fill:none;stroke:#000;stroke-linecap:round;stroke-linejoin:round;stroke-width:2px"/><path d="M862.12,476.32c0-2.75-.54-3.26-3.36-3.36-9.84-.37-19.68-.55-29.52-.48a84.87,84.87,0,0,0-8.88.24" style="fill:none;stroke:#000;stroke-linecap:round;stroke-linejoin:round;stroke-width:2px"/><path d="M668,356.56c2.79,2.85,5.08,6.11,7.66,9.13,1.25,1.46,2.22,3.24,4.58,2.87" style="fill:none;stroke:#000;stroke-linecap:round;stroke-linejoin:round;stroke-width:2px"/><path d="M646.12,336.88a86.28,86.28,0,0,1,9.82,7.94,5.69,5.69,0,0,0,4.58,1.9" style="fill:none;stroke:#000;stroke-linecap:round;stroke-linejoin:round;stroke-width:2px"/><path d="M622.12,320c3,1.63,5.39,4.15,8.16,6.12,1.46,1,2.72,2.51,4.8,2.16" style="fill:none;stroke:#000;stroke-linecap:round;stroke-linejoin:round;stroke-width:2px"/><path d="M1035.4,288.64c-6.72-.8-13.43-1.77-20.16-2.35s-13.75-1.14-20.64-1.55c-11.91-.71-23.83-1.29-35.76-1.08-11.53.2-23.06.65-34.56,1.58-7.35.6-14.72.79-22.08,1.25-9.67.62-19.35,1.21-29,.9s-19.21-.58-28.81-1.29c-4.05-.3-8.17-.36-12.22-.67-8.16-.62-16.34-.67-24.5-1.28-4.93-.37-9.91,0-14.87-.09-8.89-.25-17.77.21-26.64.59-10.17.44-20.33,1.26-30.49,2.23q-16.25,1.56-32.38,4-17.5,2.63-34.81,6.43c-6.26,1.36-12.54,2.61-18.72,4.32a1.32,1.32,0,0,1-1.2-.36" style="fill:none;stroke:#000;stroke-linecap:round;stroke-linejoin:round;stroke-width:2px"/><path d="M695.08,62.8c-.74,1.94-2.51,2.87-4.1,3.8-14,8.24-26,18.84-37,30.75-.82.91-1.94,2-1.34,3.08s2,1.5,3.51,1.54c5.54.14,11,.82,16.57,1.29,3.84.32,7.67.77,11.51,1.1,4.49.39,9,1,13.44,1.65,3.69.5,7.36,1.12,11,1.67,4.32.65,8.68,1.09,13,2,5.52,1.13,11.06,2.18,16.58,3.24,8.36,1.6,16.69,3.39,24.93,5.44,13.52,3.35,26.95,7.11,40.32,11q10.68,3.12,21.37,6.2c13.81,4,27.75,7.44,41.77,10.53,18.6,4.1,37.35,7.42,56.17,10.26,10,1.51,20.13,2.79,30.22,4,6.16.73,12.34,1.44,18.5,2.2,4,.49,8,.79,12,1.17s8.18.78,12.26,1.25c3.89.45,7.83.72,11.75,1.05,6.08.51,12.16,1,18.24,1.45" style="fill:none;stroke:#000;stroke-linecap:round;stroke-linejoin:round;stroke-width:2px"/><path d="M651.16,216.16c2,1.54,4,.1,6,0,2.25-.15,4.43-1.65,6.71-.88,7.73,2.61,15.8,3.57,23.77,5,9.06,1.62,18.22,2.45,27.36,3.33,5.9.57,11.84.69,17.76,1,16.63.89,33.28.45,49.92.44,11.52,0,23-.37,34.56-.71,7-.2,14.08-.29,21.12-.49,10.48-.31,21-.33,31.44-.73,6.72-.26,13.44-.15,20.16-.38,12.8-.42,25.6-.58,38.4-.9,7.2-.18,14.41,0,21.6-.38,12.95-.63,25.92-.64,38.88-1,6.16-.15,12.33-.2,18.48-.52,7.12-.36,14.26.31,21.36-.62a17.34,17.34,0,0,1,3.36.21" style="fill:none;stroke:#000;stroke-linecap:round;stroke-linejoin:round;stroke-width:2px"/><path d="M1029.16,197.44c-4.74-.36-9.45-.95-14.16-1.54-4.87-.61-9.78-.94-14.64-1.61s-9.77-1.14-14.65-1.78c-3.33-.44-6.72-.72-10.07-1.11-3.6-.42-7.21-.88-10.81-1.29-3.35-.38-6.71-.79-10.07-1.09-3.53-.31-7-.77-10.56-1.18-3.36-.39-6.72-.77-10.08-1.21-5-.66-10.09-1.16-15.13-1.81-3.41-.43-6.86-.82-10.31-1.1-4.41-.35-8.8-1-13.19-1.47-5.36-.62-10.73-1.21-16.09-1.89-6.23-.79-12.48-1.41-18.72-2.14q-15-1.75-30-3.4-7.82-.85-15.62-1.76c-3.82-.44-7.68-.73-11.5-1.12-4.25-.44-8.52-.55-12.74-1.32a46.26,46.26,0,0,0-6.23-.44c-3-.12-6-.39-8.87-.69-5.2-.54-10.43-.51-15.62-1.27a78,78,0,0,0-8.39-.45c-9-.29-18.07-.91-27.12-1.12-6.72-.16-13.45-.27-20.16-.12a178,178,0,0,0-25.45,2c-2.22.38-4.51.49-6.7,1.06-1.81.48-3.54,1.25-4.08,3.33a4,4,0,0,1-1.46,1.91,90.59,90.59,0,0,0-25.51,39.83,16.49,16.49,0,0,0-.4,2.42" style="fill:none;stroke:#000;stroke-linecap:round;stroke-linejoin:round;stroke-width:2px"/><path d="M1031.56,116.32c-2.63.51-5-.77-7.42-1.3-5.66-1.22-11.35-2.29-17.06-3.28-7.24-1.25-14.55-2-21.85-2.81-6.45-.73-13-1-19.43-1.49-8.47-.64-17-1.08-25.45-1.59q-9-.52-18-1.14c-4.32-.29-8.66-.76-13-1.24-3.66-.4-7.35-.8-11-1.13-4.19-.37-8.35-1.13-12.49-1.88-9.53-1.72-19-3.92-28.31-6.49-11.16-3.07-22.29-6.22-33.36-9.61-10.86-3.33-21.89-6.06-32.92-8.72-7.27-1.76-14.67-3.1-22-4.51C761.19,69.59,753.09,68.26,745,67c-5.4-.87-10.85-1.47-16.3-2.06-6.32-.67-12.62-1.46-19-1.9-4.72-.33-9.37-1.12-14.18-.59-1.83.2-4-.58-6-.9-4.16-.67-8.34-.14-12.49-.58-3-.32-6.14.14-9.11-.38-3.82-.66-7.53.38-11.29.1-1.24-.09-2.49.15-3.64-.68a1.36,1.36,0,0,0-1.66-.08c-1.42,1-3.15.71-4.78.75-10,.29-20,.66-30,1.36-5,.34-9.92.67-14.86,1.13s-10,1-14.91,1.72c-3.16.45-6.37.82-9.58,1.12-4,.37-8,1.07-12,1.63s-8.16,1.09-12.24,1.69c-5.6.81-11.21,1.53-16.81,2.3-4.46.6-9,1-13.43,1.54s-9.14.74-13.69,1.38c-2.21.31-4.48.3-6.72.46-11.82.82-23.68.79-35.51.44-6-.18-12-.92-18-1.7-5.12-.67-10.26-1.25-15.34-2.11-6.09-1-12.2-1.95-18.27-3.18-4.11-.82-8.31-1.33-12.45-2-4.72-.83-9.46-1.49-14.19-2.28-2.75-.46-5.58-.76-8.38-1-4.72-.46-9.43-.92-14.16-1.19A118.18,118.18,0,0,0,350,61.55c-3.35.26-6.72.17-10.08.48a147.59,147.59,0,0,0-17.52,2.68c-2.61.56-5.15,1.72-7.92,1" style="fill:none;stroke:#000;stroke-linecap:round;stroke-linejoin:round;stroke-width:2px"/><path d="M375.88,43.84c3-.24,5.92-.55,8.88-.71,5.68-.3,11.35-.79,17-1.06s11.53-.53,17.27-1c10.16-.74,20.35-.55,30.49-1.36.32,0,.64,0,1,0,17.76-.31,35.52-.31,53.28-.21,9.76.06,19.52.36,29.28.71q15.36.57,30.72,1.45c9,.51,17.92,1.32,26.88,1.87,7.11.43,14.24.59,21.36,1,7,.4,13.92.17,20.88.2S647,43.91,654,43.58c4.53-.21,8.94-1.45,13.44-1.85s8.8-1,13.2-1.46c3.67-.37,7.36-.51,11-.75a3.84,3.84,0,0,0,.48,0c4.54-1.1,9.12.06,13.68-.19s9,.19,13.44.36c6.09.23,12.17.65,18.23,1.1,8.32.63,16.65,1.11,25,1.54,5,.26,10.08.34,15.12.53a170,170,0,0,1,28.08,3.37c9.77,2,19.25,5.11,28.79,8,16.14,4.81,32.43,9,49,12.28,11.87,2.38,23.81,4.35,35.78,6.07,8.68,1.25,17.41,2.16,26.14,3.06q11.16,1.16,22.34,2.22c5.09.48,10.24.73,15.34,1.15,5.36.43,10.76.51,16.1,1.31a64.48,64.48,0,0,0,7,.41c7.77.32,15.51,1.15,23.28,1.31" style="fill:none;stroke:#000;stroke-linecap:round;stroke-linejoin:round;stroke-width:2px"/><path d="M1009,790.72c.22-1.81-.89-3.23-1.45-4.8a253.6,253.6,0,0,0-19.15-40.34c-13.87-24.11-30.73-46.11-47.55-68.15-14.26-18.68-28.57-37.32-41.27-57.12-7.25-11.3-14.11-22.83-20.68-34.54C869.52,569,860.64,552,852,534.88c-2.22-4.41-4.49-8.8-6.71-13.2-.53-1-1-2.14-2.41-2.16" style="fill:none;stroke:#000;stroke-linecap:round;stroke-linejoin:round;stroke-width:2px"/><path d="M322.6,258.88c5.76-.56,11.51-1.24,17.28-1.64,3.75-.26,7.53.11,11.28-.28,7.45-.78,14.89.14,22.32.38,6.79.22,13.62.86,20.41,1.68,5.67.68,11.36,1.35,17,2.06,5.39.68,10.73,1.73,16.09,2.6,8.12,1.31,16.19,2.88,24.24,4.55,7.78,1.61,15.55,3.22,23.28,5,5.82,1.37,11.63,3.08,17.54,3.69,4.2.44,7.84,2.4,12,2.93,4,.5,7.79,2,11.78,2.53.09,0,.16.22.24.22,5.43.06,10.21,3.12,15.6,3.4.17,0,.32.23.48.22,13-1,25.65,2.4,38.38,4.18,19.57,2.75,39,6.47,58.34,10.43,6.4,1.31,12.86,2.43,19.17,4,23,5.67,46,11.12,68.92,17.12,15.8,4.15,31.69,8,47.51,12,18.18,4.7,36.4,9.28,54.48,14.38,20,5.65,39.83,11.85,59.28,19.2,9.24,3.48,18.28,7.42,27.34,11.32,1.67.71,3.4,1.56,4.34,3.32" style="fill:none;stroke:#000;stroke-linecap:round;stroke-linejoin:round;stroke-width:2px"/><path d="M664.36,167.92c-5.71.13-11.34,1.15-17,1.49-4.8.3-9.59.81-14.39,1.21-5.76.48-11.52.82-17.29,1.14-4.08.23-8.17.37-12.24.75s-8.33,0-12.48.42a10.26,10.26,0,0,1-4.55-.25c-3.55-1.23-6.83.93-10.34.59-3.25-.32-6.56,0-9.83-.09-7.21-.33-14.44-.71-21.6-1.69-12.39-1.69-24.68-4.05-37-6.38-10.72-2-21.42-4.1-32.15-6.09-10.33-1.91-20.64-4-31-6-7.6-1.46-15.17-3.09-22.81-4.25q-9-1.36-18-2.56a210.5,210.5,0,0,0-35.29-1.77A121.08,121.08,0,0,0,331,151.89a43,43,0,0,1-4.1,1.39" style="fill:none;stroke:#000;stroke-linecap:round;stroke-linejoin:round;stroke-width:2px"/><path d="M554.2,102.88c-1.92-.5-3.82-.92-5.78,0a5.45,5.45,0,0,1-1.9,0c-5.7.24-11.37.88-17,1.35-5.44.45-10.87,1.07-16.31,1.55-4.33.38-8.65.87-13,1.43-9.52,1.24-19.07,2.38-28.55,3.88-9.92,1.56-19.85,3-29.77,4.52-13.36,2-26.69,4.36-40.09,6.17-11.66,1.58-23.32,3.15-35,4.45-9.12,1-18.24,2-27.38,2.74-6.05.5-12.13,1-18.23,1" style="fill:none;stroke:#000;stroke-linecap:round;stroke-linejoin:round;stroke-width:2px"/><path d="M551.8,219c-2.52-1.77-5.45-.8-8.17-1.12a87.58,87.58,0,0,0-9.59-.08,5.52,5.52,0,0,1-2.9-.45,1.37,1.37,0,0,0-1.66,0c-1.69,1.38-3.36.84-5.31.37a28,28,0,0,0-6.93-.3c-9.45.13-18.88-.44-28.32-.58-11.36-.17-22.72-.64-34.08-1-8.32-.24-16.64-.53-25-1-9.68-.49-19.37-.74-29-1.33-5.67-.35-11.36-.48-17-.79-10.16-.55-20.33-.92-30.48-1.62-4.16-.29-8.33-.58-12.48-.7-7.54-.22-15-1.12-22.56-1.27" style="fill:none;stroke:#000;stroke-linecap:round;stroke-linejoin:round;stroke-width:2px"/><path d="M484.36,546.88A7.06,7.06,0,0,0,481,549c-8,7.76-16.18,15.34-24,23.32-13.71,14.06-27.47,28.08-40.36,42.92a524.71,524.71,0,0,0-46,61.47c-6,9.36-11.55,19-16.87,28.75-8.1,14.85-15.29,30.13-22,45.63-.72,1.66-1,3.55-3.38,3.59" style="fill:none;stroke:#000;stroke-linecap:round;stroke-linejoin:round;stroke-width:2px"/><path d="M506.2,459.76c-3.2,0-6.4,0-9.6,0-12,.08-24,0-36,.3-6.56.17-13.12.65-19.68,1-5.44.28-10.9.73-16.31,1.41-6.58.83-13.15,1.65-19.7,2.73-8.72,1.45-17.38,3.13-25.9,5.4A205.39,205.39,0,0,0,346.58,482c-3.3,1.49-6.53,3.13-9.78,4.7a9.32,9.32,0,0,1-4.12.87" style="fill:none;stroke:#000;stroke-linecap:round;stroke-linejoin:round;stroke-width:2px"/><path d="M717.88,366.16c-1.42-.12-2.38-1.1-3.35-1.94a365.6,365.6,0,0,0-56.18-39.56A375.69,375.69,0,0,0,618.52,305a22.14,22.14,0,0,0-2.4-.73" style="fill:none;stroke:#000;stroke-linecap:round;stroke-linejoin:round;stroke-width:2px"/><path d="M652.12,211.6a41.3,41.3,0,0,0-1.16,4.33c-.16,1-.89,1-1.49,1.16a13.83,13.83,0,0,1-3.83.71c-6.34-.2-12.61,1-19,.81s-12.48-.05-18.72-.05-12.65.19-19-.05c-8.64-.32-17.28,0-25.92-.23-2.32-.06-4.64-.18-7-.2a5.16,5.16,0,0,0-5,2.54c-2,3-4.8,5.56-7.08,8.47a105.57,105.57,0,0,0-13.41,23.07,203.59,203.59,0,0,0-10.32,30.48" style="fill:none;stroke:#000;stroke-linecap:round;stroke-linejoin:round;stroke-width:2px"/><path d="M866,389.68c-.08,1.83-1.38,2.77-2.62,3.86-5.71,5-12,9.32-17.57,14.59A73.68,73.68,0,0,0,833.33,424C827,434.64,819.51,444.46,812,454.24c-2.86,3.7-6,7.18-8.64,11" style="fill:none;stroke:#000;stroke-linecap:round;stroke-linejoin:round;stroke-width:2px"/><path d="M652.48,100.72a10.24,10.24,0,0,1-7.33.25,3.34,3.34,0,0,0-.95,0c-14.8-.38-29.6-.72-44.4-.43-5.2.1-10.42.13-15.59.57-2.62.23-5.31.06-8,.7-1.43.35-3.17-.11-4.77-.12-5.2,0-10.4.66-15.6,0" style="fill:none;stroke:#000;stroke-linecap:round;stroke-linejoin:round;stroke-width:2px"/><path d="M575.8,102.4a68.53,68.53,0,0,0-.67,17.51,65.26,65.26,0,0,0,8.14,25.67A58.28,58.28,0,0,0,594.54,160c3.46,3.14,7.23,5.79,12.22,5.78" style="fill:none;stroke:#000;stroke-linecap:round;stroke-linejoin:round;stroke-width:2px"/><path d="M555.64,98.56c.13,1.73-.56,3.22-1.09,4.84a28.07,28.07,0,0,0-1,7.4c-.56,12.13,3.63,23,9.35,33.35A202.83,202.83,0,0,0,576,164.56a25.64,25.64,0,0,0,4.11,4.28,6.6,6.6,0,0,1,2.37,3.16" style="fill:none;stroke:#000;stroke-linecap:round;stroke-linejoin:round;stroke-width:2px"/><path d="M526.6,218.8c-1.17,3.52-4,5.93-6,8.85-6.52,9.37-13.34,18.54-18.47,28.82a72.23,72.23,0,0,0-6.69,20.41" style="fill:none;stroke:#000;stroke-linecap:round;stroke-linejoin:round;stroke-width:2px"/><path d="M689.32,173.92a3.57,3.57,0,0,0-2.44,1.4,130.69,130.69,0,0,0-23.48,32.92c-.33.65-.57,1.4-1.44,1.56" style="fill:none;stroke:#000;stroke-linecap:round;stroke-linejoin:round;stroke-width:2px"/><path d="M710,70.72c-2.28,0-3.8,1.57-5.5,2.67a137,137,0,0,0-27.61,23.5c-.92,1-1.89,1.83-3.37,1.67" style="fill:none;stroke:#000;stroke-linecap:round;stroke-linejoin:round;stroke-width:2px"/><path d="M656.92,44.08a42.62,42.62,0,0,0,5.28,12c.69,1.12,1.61,2.14,1.44,3.6" style="fill:none;stroke:#000;stroke-linecap:round;stroke-linejoin:round;stroke-width:2px"/><path d="M874.12,417.88c-3.37,1.43-5.31,4.52-7.9,6.87a20.75,20.75,0,0,0-3.34,3.84,3.18,3.18,0,0,1-3.16,1.41" style="fill:none;stroke:#000;stroke-linecap:round;stroke-linejoin:round;stroke-width:2px"/><path d="M857.8,442.48a4.4,4.4,0,0,0-3.83,1.45,42.78,42.78,0,0,0-6,6.93c-.37.54-.64,1.28-1.42,1.46" style="fill:none;stroke:#000;stroke-linecap:round;stroke-linejoin:round;stroke-width:2px"/><path d="M894.52,395a19.06,19.06,0,0,0-10.29,6.75c-.47.57-1,1.07-1.47,1.65" style="fill:none;stroke:#000;stroke-linecap:round;stroke-linejoin:round;stroke-width:2px"/><path d="M651.88,59.44a5.42,5.42,0,0,0-.75-1.89c-2.66-2.78-5.41-5.47-8.13-8.19a1.9,1.9,0,0,0-1.68-.72" style="fill:none;stroke:#000;stroke-linecap:round;stroke-linejoin:round;stroke-width:2px"/><path d="M525.16,248.32c-1.55-.19-2.39.64-3.16,1.9a41.42,41.42,0,0,1-2.78,4.63,1.86,1.86,0,0,1-1.74.67" style="fill:none;stroke:#000;stroke-linecap:round;stroke-linejoin:round;stroke-width:2px"/><path d="M699.16,30.88c-1.75,2.26-3.58,4.49-4.08,7.44" style="fill:none;stroke:#000;stroke-linecap:round;stroke-linejoin:round;stroke-width:2px"/><path d="M534.28,227.2c-2.3.11-2.86,2.07-3.85,3.59a11.27,11.27,0,0,0-1.31,2.65" style="fill:none;stroke:#000;stroke-linecap:round;stroke-linejoin:round;stroke-width:2px"/><path d="M664.05,371.94c-.19-.37-.41-.84-.71-1.43a32.34,32.34,0,0,0-7.61-9.4c-12.17-10.8-24.94-20.86-37.71-30.92-14.19-11.16-28.42-22.27-43.14-32.72a5,5,0,0,0-3.16-1.15" style="fill:none;stroke:#000;stroke-linecap:round;stroke-linejoin:round;stroke-width:2px"/><path d="M598.6,302.56a2.29,2.29,0,0,0,.46,1.7c2.2,2.44,4.32,5,6.51,7.41a4.28,4.28,0,0,0,2.87,1.69" style="fill:none;stroke:#000;stroke-linecap:round;stroke-linejoin:round;stroke-width:2px"/></g></g></svg>
