<svg xmlns="http://www.w3.org/2000/svg" viewBox="0 0 1366 768"><g id="Layer_10" data-name="Layer 10"><g id="front"><path id="nofill" d="M839,516l-5-27-4-1-42.23-30.44c.14-2.74.23-8,.23-17.56,0-31-13-54-51-63s-118,0-118,0l-43,7-5,7-19,44-1,8-54,35v6l-9,16v10l9,13s-2,14-4,24,9,15,9,15l127,15,4-1,63,2,134-5,4-4,5-25-5-2Zm-65.76-65.9a126.83,126.83,0,0,0-13.92-.41c-16.24-.17-32.47-.95-48.72-1.13q-9.47-.1-19-.42c-13.35-.46-26.72-.67-40.07-1-6.33-.18-12.67.06-19-.44-6.81-.53-13.64.07-20.4-.51-6.18-.52-12.35.12-18.48-.44-6.73-.63-13.48.09-20.16-.51-5.62-.51-11.21-.18-16.81-.38l4.44-8.16c2.76-8.48,5.78-16.89,8.21-25.46,2.54-9,7.58-15.1,16.87-17.26,7.9-1.84,15.94-2.4,24-2.92,6-.38,12-.07,18,.07,7.53.18,15.05.47,22.56,1,2.64.18,5.31.13,7.92.46,6.38.81,12.81.78,19.21,1.29,5.27.42,10.56.71,15.84,1,5.92.31,11.83.71,17.75,1q11.54.54,23,1.26a88.8,88.8,0,0,1,24.72,4.81,2.93,2.93,0,0,0,1.91.19c1.83-.7,2.65.46,3.36,1.72a98.83,98.83,0,0,1,9.15,22.31A108.61,108.61,0,0,1,777.08,446Z"/>\
<path d="M815.6,543.76a44.3,44.3,0,0,1-12,.08c-8.73-.93-17.06-3.78-25.68-5a96.48,96.48,0,0,0-18.47-.66c-5,.25-10.09.5-15.12.82-23.26,1.52-46.55,1.21-69.84,1.17-9.6,0-19.21-.16-28.8-.51-6.08-.23-12.16,0-18.24-.21-7.84-.26-15.68-.24-23.52-.21-12.32,0-24.65-.06-37,.29-10.72.31-21.45.48-32.16,1-11.6.51-23.2,1.17-34.8,1.64a12,12,0,0,0-1.44.23" style="fill:none;stroke:#000;stroke-linecap:round;stroke-linejoin:round;stroke-width:2px"/><path d="M783.68,484.24c-9,.48-17.92,1-26.88,1.43-6.48.31-13,.59-19.44.94-9.6.52-19.21.74-28.8,1.44-3.67.27-7.37.31-11,.39-6.32.13-12.64.57-19,.73a123.31,123.31,0,0,0-12.47.45c-3.86.48-7.72-.06-11.52.44-4.49.6-9,0-13.44.51-4.18.53-8.34.11-12.49.4-9.59.68-19.21.57-28.79,1.07-8.26.43-16.51.53-24.73.24s-16.3-.66-24.24-2.76" style="fill:none;stroke:#000;stroke-linecap:round;stroke-linejoin:round;stroke-width:2px"/><path d="M773.12,450.16a126.9,126.9,0,0,0-13.92-.4c-16.25-.17-32.47-.95-48.72-1.13q-9.47-.11-19-.42c-13.36-.47-26.72-.67-40.08-1-6.32-.18-12.66.06-19-.43-6.81-.54-13.64.07-20.4-.51-6.18-.53-12.36.12-18.48-.45-6.73-.63-13.48.09-20.16-.51-5.62-.5-11.21-.17-16.81-.38" style="fill:none;stroke:#000;stroke-linecap:round;stroke-linejoin:round;stroke-width:2px"/><path d="M777,446.08a107.54,107.54,0,0,0-3.35-19.92,98,98,0,0,0-9.14-22.31c-.71-1.26-1.53-2.42-3.36-1.73a2.81,2.81,0,0,1-1.91-.19,88.79,88.79,0,0,0-24.72-4.8q-11.52-.74-23-1.26c-5.92-.28-11.83-.68-17.76-1-5.28-.27-10.57-.55-15.83-1-6.4-.51-12.83-.49-19.22-1.3-2.61-.33-5.27-.27-7.92-.46-7.5-.52-15-.82-22.55-1-6-.14-12-.45-18-.06-8.06.51-16.11,1.08-24,2.91-9.29,2.16-14.33,8.31-16.87,17.26-2.43,8.57-5.45,17-8.21,25.46" style="fill:none;stroke:#000;stroke-linecap:round;stroke-linejoin:round;stroke-width:2px"/><path d="M716.72,529.12c-6.33,0-12.64-.57-19-.87-4.49-.21-9,0-13.45-.35-12.71-1-25.44-.4-38.16-.4-12,0-24,.67-36,1.34-11.62.64-23.2,1.62-34.8,2.47-8.89.65-17.77,1.51-26.64,2.39-7.6.75-15.19,1.51-22.8,2.17-3.76.33-7.49,1-11.28.93" style="fill:none;stroke:#000;stroke-linecap:round;stroke-linejoin:round;stroke-width:2px"/><path d="M700.88,554.56c-4.7.62-9.45.55-14.16,1-4.88.44-9.76.14-14.64.22-10.43.19-20.81-.7-31.2-1.35-6.15-.39-6.89-.75-7.11,5.68-.15,4.17-.75,8.3-.58,12.48.1,2.62.47,3,3.12,3.66a6.13,6.13,0,0,0,1.45.16c14.78,0,29.48,1.23,44.15,2.72a64,64,0,0,1,9.62,1.34,6.06,6.06,0,0,0,2.88-.18,1.94,1.94,0,0,0,1.62-2.17c-.76-4.07.56-8,.5-12,0-3.53,1.15-7,.27-10.56" style="fill:none;stroke:#000;stroke-linecap:round;stroke-linejoin:round;stroke-width:2px"/><path d="M829.28,573c-5.62.16-11.2.88-16.79,1.3-5.76.43-11.53.92-17.29,1.31q-14.52,1-29,1.67c-4.16.19-8.33.36-12.48.45-19.12.46-38.24.74-57.36.55" style="fill:none;stroke:#000;stroke-linecap:round;stroke-linejoin:round;stroke-width:2px"/><path d="M827.6,558.4C808.88,562,790,562.81,771,562.17c-7.6-.26-15.19-1.08-22.8-.84-8.34.26-16.55,1.37-24.25,5-2,.94-3.82,2.3-6,2.91" style="fill:none;stroke:#000;stroke-linecap:round;stroke-linejoin:round;stroke-width:2px"/><path d="M632.24,513.28c-4.26-.33-8.49-.95-12.73-1.35s-8.79-.72-13.19-1c-10.47-.73-21-.9-31.44-.93-9.12,0-18.25.29-27.36.73-4.16.2-8.31.71-12.48.9" style="fill:none;stroke:#000;stroke-linecap:round;stroke-linejoin:round;stroke-width:2px"/><path d="M784.4,516.16c-4.87-.46-9.77-.19-14.65-.67s-9.91-1.14-14.87-1.75c-3.69-.46-7.38-1-11-1.69s-7.54-1.19-11.3-1.82c-4.59-.77-9.27-1.07-13.91-1.5-4.07-.38-8.16-.2-12.24-.26a66.4,66.4,0,0,0-14.88,1.43,14.74,14.74,0,0,1-2.4.14" style="fill:none;stroke:#000;stroke-linecap:round;stroke-linejoin:round;stroke-width:2px"/><path d="M557.84,460.48a4.19,4.19,0,0,0-4.1,1.91C549.65,468,547,474,547,481.12c0,1.44,0,2.88,0,4.32a3.26,3.26,0,0,1-2.41,3.55c-1.56.39-2.71-.62-3.59-1.87s-1.26-3-2.18-4.31c-3.13-4.47-7.77-6.16-12.94-6.45-4.45-.24-8.81.78-13.21,1.31-4.16.51-8.29,1.23-12.47,1.55a5.75,5.75,0,0,1-3.36-.74" style="fill:none;stroke:#000;stroke-linecap:round;stroke-linejoin:round;stroke-width:2px"/><path d="M629.36,577.12c-5.15-.27-10.23-1.2-15.36-1.65-4-.36-8-1-12-1.31s-7.83-1-11.77-1.4c-3-.3-5.93-.63-8.87-1-3.44-.46-6.89-1.07-10.33-1.25-4.84-.26-9.58-1.24-14.39-1.67s-9.46-1-14.18-1.74c-3.89-.6-7.84-.79-11.75-1.25-5.68-.67-11.35-1.52-17-2.12-4.24-.45-8.5-.86-12.47-2.47-4.88-2-9.79-6.75-7.93-14.12" style="fill:none;stroke:#000;stroke-linecap:round;stroke-linejoin:round;stroke-width:2px"/><path d="M736.88,376.72a4.57,4.57,0,0,0,2.87,1.72c8.93,1.94,17.42,4.86,25,10.23,7.12,5,12.24,11.42,14.81,19.74,1.54,5,1.89,10.19,2.41,15.35a58.65,58.65,0,0,0,2.67,13.44,3.63,3.63,0,0,0,3.11,2.64" style="fill:none;stroke:#000;stroke-linecap:round;stroke-linejoin:round;stroke-width:2px"/><path d="M567.2,570.64c-1.16,3.67-.47,7.55-1.4,11.29-2.42,9.84-10.3,17.64-21.64,16.51-7.85-.79-14.06-6.77-14-15.08,0-4.51,1.44-8.15,4.86-11" style="fill:none;stroke:#000;stroke-linecap:round;stroke-linejoin:round;stroke-width:2px"/><path d="M829.76,486.88a6.93,6.93,0,0,1-4.56,1.22,66.77,66.77,0,0,0-19.93,2.35,58.39,58.39,0,0,0-7.18,2.93c-3,1.31-4.12.87-5.3-2.18-3.78-9.78-8-19.33-13.88-28.1-.7-1.05-1.3-1.87-2.67-1.66" style="fill:none;stroke:#000;stroke-linecap:round;stroke-linejoin:round;stroke-width:2px"/><path d="M755.36,584.08c.43,4.88.9,9.76,2.64,14.4,2.16,5.76,5.77,10.11,12,11.48,7.51,1.66,16.65-3.28,17.25-12.92a20.88,20.88,0,0,0-.2-4.8c-.19-1.14-.51-2.1-1.7-2.52" style="fill:none;stroke:#000;stroke-linecap:round;stroke-linejoin:round;stroke-width:2px"/><path d="M786.56,457.36c3.32.44,6,2.46,8.89,3.82s5.18,3.5,8.37,4.18c.91.19,1.54,1.47,2.43,2.06A160.28,160.28,0,0,1,823,479.71c2.39,2.06,5.35,3.62,6.72,6.7.37.83,1,.75,1.69,1a6,6,0,0,1,4.1,4.3,85,85,0,0,1,2.64,12.24c1.46,12.43.51,24.56-4.3,36.25a4.65,4.65,0,0,0,0,1.67" style="fill:none;stroke:#000;stroke-linecap:round;stroke-linejoin:round;stroke-width:2px"/><path d="M492.8,479.92a4.49,4.49,0,0,0,3.74-2,17,17,0,0,1,4-4.73,134.29,134.29,0,0,1,36-24.29c4.93-2.22,9.73-4.77,15.13-5.73" style="fill:none;stroke:#000;stroke-linecap:round;stroke-linejoin:round;stroke-width:2px"/><path d="M495.92,534.88c.65-2.6.17-5.28.62-7.94.56-3.37.34-6.69-3-9.15-4.4-3.27-5.68-8.28-5.72-13.39,0-7.45,3.46-13.74,7.63-19.66a2,2,0,0,1,1.89-.74" style="fill:none;stroke:#000;stroke-linecap:round;stroke-linejoin:round;stroke-width:2px"/><path d="M609.2,553.6c-3,.67-6,.1-8.87-.1-5.12-.36-10.25-.48-15.37-.86-4.15-.3-8.31-.6-12.48-.5-4.86.13-8.28,2.5-9.84,7" style="fill:none;stroke:#000;stroke-linecap:round;stroke-linejoin:round;stroke-width:2px"/><path d="M551.12,435.52a1.69,1.69,0,0,0,1.69-1.19c4.94-12.49,10.17-24.88,14.77-37.49,2.58-7.06,6.63-11.68,14.25-13,5.4-.91,10.75-2.1,16.08-3.36,3.21-.75,6.48-1.18,9.68-2.12,2-.59,4.57-.54,6.89-.72,1-.07,2.29-.33,2.3-1.2,0-1.74,1.07-3.64-.38-5.28" style="fill:none;stroke:#000;stroke-linecap:round;stroke-linejoin:round;stroke-width:2px"/><path d="M664.64,372.16a19.87,19.87,0,0,1-8.4,1.48c-6.26.08-12.49.76-18.73,1.32-5.94.53-11.85,1.15-17.75,2-1,.13-1.75-.39-2.64-.49" style="fill:none;stroke:#000;stroke-linecap:round;stroke-linejoin:round;stroke-width:2px"/><path d="M665.6,510.16a31.71,31.71,0,0,1-4.56-.44,8,8,0,0,0-6.73,1.87,4.13,4.13,0,0,0,.26,6.48,12,12,0,0,0,10.78,1.9,5.46,5.46,0,0,0,4.09-5c.11-2.45-1.22-3.91-3.36-4.8" style="fill:none;stroke:#000;stroke-linecap:round;stroke-linejoin:round;stroke-width:2px"/><path d="M752.72,403.36a166.64,166.64,0,0,1,5.26,22.8,98.33,98.33,0,0,1,1.24,9.84c.12,2.17.46,4.32.7,6.48" style="fill:none;stroke:#000;stroke-linecap:round;stroke-linejoin:round;stroke-width:2px"/><path d="M585.68,398.68a3.77,3.77,0,0,0-1.73,2,77.38,77.38,0,0,0-7.42,27.62c-.2,2.32-.17,4.64-.21,7" style="fill:none;stroke:#000;stroke-linecap:round;stroke-linejoin:round;stroke-width:2px"/><path d="M841.52,543c-2.67-.16-2.58-.08-3.15,2.63-1.41,6.78-2.12,13.69-3.8,20.41-.2.79.39,1.74-.49,2.4" style="fill:none;stroke:#000;stroke-linecap:round;stroke-linejoin:round;stroke-width:2px"/><path d="M823.88,505.12c0,1.24.94,2.06,1.31,3.12,2,5.64,1.36,11.06-2.22,15.79-2.26,3-5.76,3.94-9.51,1.46-4.43-2.93-7.29-7-7.69-12.45,0-.69-.06-1.28-1-1.2" style="fill:none;stroke:#000;stroke-linecap:round;stroke-linejoin:round;stroke-width:2px"/><path d="M822.32,500.32a9.46,9.46,0,0,1-1.92,0c-8.43-1.72-14,2.42-14.65,10.82a3.34,3.34,0,0,1-.23.72" style="fill:none;stroke:#000;stroke-linecap:round;stroke-linejoin:round;stroke-width:2px"/><path d="M734.48,413.92a5.28,5.28,0,0,0-3.12,1.92c-3.79,3.66-7.19,7.69-10.81,11.51-1.21,1.28-2.36,2.69-4.31,2.89" style="fill:none;stroke:#000;stroke-linecap:round;stroke-linejoin:round;stroke-width:2px"/><path d="M734.24,420.4a67.68,67.68,0,0,1-5.28,8.4,4.92,4.92,0,0,1-2.64,2.28" style="fill:none;stroke:#000;stroke-linecap:round;stroke-linejoin:round;stroke-width:2px"/><path d="M730.88,371.44c.24,1.33.56,2.67-.48,3.84" style="fill:none;stroke:#000;stroke-linecap:round;stroke-linejoin:round;stroke-width:2px"/><path d="M736.64,368.08c1.91,1.84,1.71,4,.94,6.23a4.08,4.08,0,0,1-4.78,2.88c-6.46-.87-12.91-1.78-19.44-2.22q-6.12-.41-12.23-1c-10.4-.93-20.8-.91-31.21-.9-.48,0-1,0-1.44,0-2.36.19-2.71.16-3.43-1.19" style="fill:none;stroke:#000;stroke-linecap:round;stroke-linejoin:round;stroke-width:2px"/><path d="M830.48,542.8c.51-.09,1.18.35,1.41.2,2.43-1.7,4.41,0,6.51.76" style="fill:none;stroke:#000;stroke-linecap:round;stroke-linejoin:round;stroke-width:2px"/><path d="M512.72,495.28c-4.31,1.18-7.74,3.4-9.61,7.68-3.71,8.49.18,15.54,9.13,16.09,7.76.48,12.83-2.16,15.84-8.41a10,10,0,0,0-7-14.18c-2.7-.57-5.32-1.58-8.16-1.18" style="fill:none;stroke:#000;stroke-linecap:round;stroke-linejoin:round;stroke-width:2px"/></g></g></svg>
