<svg xmlns="http://www.w3.org/2000/svg" viewBox="0 0 1366 768"><g id="Layer_11" data-name="Layer 11"><path d="M696.57,523.87c1.69-1.59,1.81-3.62,1.8-5.7q0-4.73,0-9.44a8.27,8.27,0,0,1,.25-2.83,5.28,5.28,0,0,1,1.71-2.16,1.69,1.69,0,0,1,2.68.82,15.74,15.74,0,0,1,.68,4c.07,3,0,6-.08,9,0,1.09-.15,2.19.71,3.16,3.57.57,5.23-3.17,8.43-3.61.83-3.23.38-6.35.23-9.46,0-.81-.29-1.62-.39-2.43-.29-2.42-.25-2.47,2.55-3.87,1.64.58,2.13,2,2.47,3.49a40.75,40.75,0,0,1,.74,11.45q-.2,3.28-.28,6.57a17.18,17.18,0,0,0,.28,2.22c.69-.23,1.19-.34,1.65-.54,4.19-1.88,7.61-.38,9,3.87,1.84,5.57,2,11.3,2,17.07,0,2-1.42,2.43-2.95,3.39a11.52,11.52,0,0,1-1-2.68c-.33-3.13-.57-6.28-.73-9.42a13.56,13.56,0,0,0-2.16-7,6.9,6.9,0,0,0-1.29-1.12c-1.86,1.53-2.24,3.6-2.62,5.53-.65,3.22-1,6.49-1.51,9.75-.1.67-.09,1.37-.23,2a2.66,2.66,0,0,1-2.65,2.13,2,2,0,0,1-1.94-1.82,77.75,77.75,0,0,1-1-7.73c-.2-3.55-.1-7.12-.19-10.68,0-1.2.26-2.48-.77-3.81a11.17,11.17,0,0,0-1.75.27c-2,.6-3.94,1.19-5.86,1.91a2.09,2.09,0,0,0-.9,1.28,7,7,0,0,0-.18,2,91,91,0,0,0,1.35,17.59,12.77,12.77,0,0,1,.22,1.63c0,.72-.1,1.48-.86,1.67a3.29,3.29,0,0,1-1.94-.12,3.41,3.41,0,0,1-1.92-2.53,40,40,0,0,1-.91-4.84c-.45-4.36-.87-8.73-1.15-13.11A12.82,12.82,0,0,0,696.57,523.87Z"/><path d="M854.31,573l3,1.57c2.36,6.69,2.28,13.51,1.69,20.36a10.85,10.85,0,0,1-.83,3.16c-1.31,3-1.2,6.15-.76,9.3.11.81.29,1.62.38,2.43.19,1.85-.7,2.83-2.75,3.08q-1.34-1.73-2.86-3.74c-1.92,1.1-3.63,2.17-5.42,3.1a25.89,25.89,0,0,1-3.43,1.33,4.52,4.52,0,0,1-4.32-.39,3.74,3.74,0,0,0-3.14-.42c-2,.45-4,.85-6,1.24a20.38,20.38,0,0,1-8.55-.29,6.68,6.68,0,0,1-4.43-3.38,10.39,10.39,0,0,1-1.57-5.88c.12-1.89.48-3.77.72-5.65,2.34-3.16,3.79-7,7.16-9.37a10,10,0,0,1,6.63-1.69c3.89.27,6.51,5.08,3.87,8.21-3,3.52-6.14,6.7-11.35,6.24-1.57-.14-2.19.61-2.16,2.23.1,4.87,2.63,6.34,5.75,6.65,3.54.35,7.07.67,10.7-.64a15.66,15.66,0,0,0,.3-1.94c.23-7.12,3.49-12.84,8.34-17.75a12.72,12.72,0,0,1,3.78-2.37,3.49,3.49,0,0,0,2.35-3.47,42.4,42.4,0,0,1,.21-5.75,22.31,22.31,0,0,1,1.29-4.7C853.05,573.94,853.75,573.56,854.31,573Zm-3.61,19.27a22,22,0,0,0-7.81,10,11.34,11.34,0,0,0-.75,6,1.4,1.4,0,0,0,2.08,1.2,21.85,21.85,0,0,0,7.17-6A2.65,2.65,0,0,0,852,602,30.79,30.79,0,0,0,850.7,592.29Zm-28,6.17c3.17-.51,5.56-1.77,7.11-4.38a1.79,1.79,0,0,0-.26-2.24,1.63,1.63,0,0,0-2.21-.38c-2.14,1.44-4.18,3-4.85,5.73C822.46,597.43,822.6,597.71,822.73,598.46Z"/><path d="M607.34,609.13a3.63,3.63,0,0,0,1,3.9c.91,1,2.2,1,3.46.81a9.46,9.46,0,0,0,4.62-1.49,10.18,10.18,0,0,1,2.07-.89c.79,1.29-.15,1.86-.7,2.21a56,56,0,0,1-5.37,3,8.11,8.11,0,0,1-4.42.55,5.29,5.29,0,0,1-4.93-3.71c-.46-1.28-.9-2.58-1.31-3.89-.72-2.25-2.42-3.08-4.31-3.46-1.1.75-.92,1.62-1,2.41a35,35,0,0,1-.4,4.48,5.15,5.15,0,0,1-4,4.22c-2.33.57-4-.47-5.32-2.23-1.07-1.42-2-2.94-3-4.42-.37-.55-.71-1.12-1.16-1.82-.43.4-.92.64-.92.89-.07,3.25-2.2,5.55-3.74,8.08a2.59,2.59,0,0,1-4.46-.11,13.63,13.63,0,0,1-1.89-4.06c-1.3-5.53-1.05-11.16-.82-16.77a3.82,3.82,0,0,1,.31-1.18,2.44,2.44,0,0,1,2.68-1.41,1.72,1.72,0,0,1,1.47,1.73c.13,1.49.09,3,.11,4.5,0,2.74,0,5.47.12,8.2a19,19,0,0,0,.58,2.8c.6-.57,1.16-.85,1.22-1.21.37-2.15.7-4.31.87-6.48.12-1.5,0-3,0-4.52a2.57,2.57,0,0,1,1.08-2.51c1.23-.67,2.06.29,2.9.93,1.82,1.4,2.55,3.49,3.4,5.52,1,2.39,2.08,4.75,3.2,7.09.42.88.51.83,2.63,2a7.5,7.5,0,0,0,.81-1.79,17.35,17.35,0,0,0-.78-9.3c-.85-2.16-1.64-4.35-2.4-6.55a7.64,7.64,0,0,1-.48-2.38,1.67,1.67,0,0,1,.84-1.24,1.55,1.55,0,0,1,1.45.23,22.78,22.78,0,0,1,4.79,8.49c1.19,3.52,2.5,4.35,6.7,4.2.41-1.31,1-2.69,1.28-4.13.75-3.44,3.13-5.74,5.56-7.93a4.53,4.53,0,0,1,6.28.65c3,3.46,3.08,7.58.36,11.29a13.87,13.87,0,0,1-6.57,4.7C608.53,608.76,607.89,608.94,607.34,609.13Zm5.5-10.62a2.85,2.85,0,0,0-.12-1,12.71,12.71,0,0,0-1-1.62c-.52.35-1.21.59-1.53,1.07a21.57,21.57,0,0,0-1.43,2.89c-1,2.12-1.07,3.36-.21,3.62,1.45.43,2.14-.85,3.1-1.51C612.75,601.14,612.82,599.9,612.84,598.51Z"/><path d="M654.63,544.25A6.2,6.2,0,0,1,653,540c-.26-2-.49-4.08-.85-6.1a5.45,5.45,0,0,0-2.85-4.34c-1.79,2.08-2.93,4.15-2.87,6.78,0,1.37,0,2.75-.08,4.11a9.28,9.28,0,0,1-.55,2.37,2.06,2.06,0,0,1-3.81-.05,9.45,9.45,0,0,1-.42-2.8c0-2.74.06-5.48,0-8.22,0-1.91-.14-3.83-.33-5.74a14.05,14.05,0,0,0-.69-2.36c-2.17.14-3.77,1.21-5.63,1.9-1,3.66-.73,7.37-.69,11s.53,7.3.83,10.94a2.38,2.38,0,0,1-3,.54,4.58,4.58,0,0,1-1.67-2.19,11.93,11.93,0,0,1-.54-3.22c-.4-4.91-.76-9.82-1.15-14.85-1.07-.84-2.16-1.64-3.2-2.5a1.21,1.21,0,0,1,.24-1.78c1.09-.54,2.21-1,3.28-1.48.92-1.4.72-3,.82-4.44q.25-4.3.33-8.62a7.61,7.61,0,0,1,1.71-4.94,2.73,2.73,0,0,1,1.74-.81,1.76,1.76,0,0,1,1.74,1.48,11.32,11.32,0,0,1,.28,2.84c-.07,2.88-.24,5.75-.34,8.62,0,1,0,2.11,0,3.33,2.44.11,3.72-1.42,5.07-2.66.89-.82.68-2,.58-3.12-.24-2.72-.09-5.48-1-8.13a5.34,5.34,0,0,1,.07-1.75,16.21,16.21,0,0,1,1.94-.58,1.86,1.86,0,0,1,2.28,1.29,31.76,31.76,0,0,1,1.36,5.56c.35,2.85.41,5.73.58,8.6.1,1.76.18,3.53.29,5.51a12.25,12.25,0,0,1,3.34-.17,7.14,7.14,0,0,1,5.4,4.55,32,32,0,0,1,2,11.68,4.54,4.54,0,0,1-.64,2.31A9,9,0,0,1,654.63,544.25Z"/><path d="M871.83,554.11a15.33,15.33,0,0,1-2.14,1.27c-1.63.59-2.74.27-3.44-1.21a37.5,37.5,0,0,1-1.63-4.64c-.24-.77-.37-1.57-.63-2.68a9.76,9.76,0,0,0-2.15,1.25,14.05,14.05,0,0,1-9.12,4.18,3.3,3.3,0,0,1-3.7-2.48c-.37-2.14-.92-4.45-.49-6.49A32.09,32.09,0,0,1,861,523.64a18.67,18.67,0,0,1,2.35-1.23c.13-.8.31-1.72.43-2.65.44-3.4,1-6.79,1.23-10.2.14-2.49,1.39-4.4,2.51-6.41a1.88,1.88,0,0,1,3.1.19,9.12,9.12,0,0,1,.93,3.52c.13,6.56.09,13.13.16,19.7a42.22,42.22,0,0,0,.34,5.74,13.93,13.93,0,0,1-2,10.21,6.19,6.19,0,0,0-.82,3.08A13,13,0,0,0,871.83,554.11Zm-18.05-6.3a5.08,5.08,0,0,0,3.81-1.37c3.53-2.59,6.36-5.61,5.79-10.53-.2-1.76,0-3.55-.09-5.33,0-.64.2-1.39-.61-1.76a23.37,23.37,0,0,0-7.91,10.62C854,542.11,852.59,544.79,853.78,547.81Z"/><path d="M1098.38,541.35c-.51,2.85-1,5.38-1.41,7.93-.29,1.89-.42,3.81-.62,5.72a12.68,12.68,0,0,1-.17,1.63,2,2,0,0,1-1.75,1.5,1.6,1.6,0,0,1-1.89-1.2,7.92,7.92,0,0,1-.41-2.81c.18-3.28.45-6.55.72-9.83.21-2.58.46-5.16.7-7.75a6.57,6.57,0,0,1,.2-1.61c1.73-5,2.17-10.15,2.66-15.32.09-1,.19-1.91.35-2.86a3.32,3.32,0,0,1,2-2.47,2,2,0,0,1,2.9,1.31,18.08,18.08,0,0,1,.13,4.47c-.32,3.14-.82,6.25-1.21,9.38a18,18,0,0,0,0,2.24c1.38.11,2.71.14,4,.35a2.24,2.24,0,0,1,1.25.91,1.76,1.76,0,0,1-.76,2.42c-1.08.49-2.44.38-3.3,1.41,1.48,2,4.08,3.06,8.53,3.58.61-.87,1.29-1.87,2-2.85a19.44,19.44,0,0,1,6.5-6.16,8.43,8.43,0,0,1,4.31-1.17c2.18.09,3.28,1,3.78,3a6.38,6.38,0,0,1-1.77,6.39,17.16,17.16,0,0,1-8.1,4.6c-.92.24-1.86.42-2.84.64-1.37,1.78-1.48,3.83-1.39,5.88.11,2.41,1.46,3.91,3.88,3.93,3.55,0,7.12-.16,10.42-1.77.93-.46,1.92-.79,3.57-1.46-.51,1.1-.59,1.71-.92,1.91a36.33,36.33,0,0,1-5.33,3c-3.63,1.44-7.48,1.56-11.34,1.36a4.58,4.58,0,0,1-4.48-3.57,14.86,14.86,0,0,1-.57-7.69c.38-1.62,0-2.26-1.61-2.84C1104,542.67,1101.62,541.44,1098.38,541.35Zm18.65-1.8a5.6,5.6,0,0,0,5.24-2.88,1.06,1.06,0,0,0-.17-1,1.16,1.16,0,0,0-1.07,0A15.23,15.23,0,0,0,1117,539.55Z"/><path d="M962.77,597.34c-3.86-2.24-3.87-2.45,0-5.67,0-1.25.15-2.73.11-4.22-.12-3.69-.35-7.38-.44-11.08a9,9,0,0,1,.52-3.16,2.21,2.21,0,0,1,2.28-1.44,2,2,0,0,1,1.91,1.83,38.23,38.23,0,0,1,.72,4.86c.17,2.59.16,5.2.29,7.8,0,1.06.27,2.11.38,3,1,.66,1.52.08,2.15-.08a11.54,11.54,0,0,1,2.39-.43,2,2,0,0,1,2.16,1.48,2.11,2.11,0,0,1-.9,2.51,17.56,17.56,0,0,1-3.32,1.55,3.23,3.23,0,0,0-2.52,3.67c.14,3.55-.17,7.13.83,10.62,0,.13.06.26.09.4.16,1,.17,1.93-.91,2.46a2.25,2.25,0,0,1-3.14-1,15,15,0,0,1-1-2.66c-.33-1-.59-2-1-3.4a23.43,23.43,0,0,0-2.16,1.6,17.93,17.93,0,0,1-13,5.12c-1.23,0-2.46.15-3.69.13a7.92,7.92,0,0,1-8-6.26,10.31,10.31,0,0,1,.44-6.82,22.58,22.58,0,0,1,6.51-9.31,6.94,6.94,0,0,1,5.68-1.8,5.3,5.3,0,0,1,4.52,6.57,9,9,0,0,1-1.56,3.28c-2.31,3-5.17,5.25-9,5.9a8.21,8.21,0,0,0-1.4.46,2.21,2.21,0,0,0,.63,2.74,7.23,7.23,0,0,0,6.81,2,32.32,32.32,0,0,0,10.79-3.79C962.16,602.65,964.22,600.63,962.77,597.34Zm-19.39.06a6.71,6.71,0,0,0,5.23-3.29A2,2,0,0,0,949,593a2.47,2.47,0,0,0-.57-1.39,1.15,1.15,0,0,0-1.11.09q-2,2-3.89,4.13C943.21,596,943.38,596.57,943.38,597.4Z"/><path d="M977,534.88a38.8,38.8,0,0,1,3.24-3.88,34.55,34.55,0,0,1,4.23-3.17,4.3,4.3,0,0,1,2-.47c2.91-.23,4.64,2.26,3.21,4.85a14.45,14.45,0,0,1-4.34,5.39c-1.47,1-2.92,2-4.32,3.13a1.63,1.63,0,0,0,.17,2.77,10.55,10.55,0,0,0,3.37,1.39c3.22.57,6.48,1,9.74,1.38a6.94,6.94,0,0,0,1.67-.2c.82-2.48.47-4.94.37-7.37s-.27-4.65-.39-7a2.82,2.82,0,0,1,1.13-2.5c1.69-1.36,3.18-1,3.7,1.07a21.46,21.46,0,0,1,.66,4.85c.09,4.66,0,9.31,0,14a6.27,6.27,0,0,1-.15,1.62,2.34,2.34,0,0,1-2,1.82,2,2,0,0,1-2.28-1.32c-.35-.72-.59-1.5-.88-2.23-3.51-.09-6.91.06-10.25-.32s-6.69-1.31-10.33-2.06c-.27.79-.66,1.78-1,2.8-.18.65-.13,1.38-.34,2A2.24,2.24,0,0,1,972,553a2.05,2.05,0,0,1-2.12-1.59,8.17,8.17,0,0,1-.24-2,35,35,0,0,1,.22-3.69c.83-6.52,1.72-13,2.53-19.55.23-1.9.3-3.82.39-5.73a5.62,5.62,0,0,1,2.15-4.26,2.13,2.13,0,0,1,2.31-.29,1.83,1.83,0,0,1,1.22,1.95c-.33,3.13-.68,6.26-1.07,9.39-.22,1.76-.56,3.51-.78,5.28A13,13,0,0,0,977,534.88Z"/><path d="M706.92,599.13,700,601.54a44.77,44.77,0,0,0-.42,4.51c0,2.6.2,5.19.29,7.79a10,10,0,0,1-.06,2.84,2.29,2.29,0,0,1-1.38,1.27,1.63,1.63,0,0,1-1.4-.54,7.09,7.09,0,0,1-1.23-2.55c-.45-2.13-.72-4.31-1-6.48-.14-.94-.16-1.9-.29-2.85a3.23,3.23,0,0,0-2.34-3c-.46-.14-.81-.64-1.18-1,.48-2,2.48-2.2,3.71-3.56.37-3.47.76-7.13,1.18-10.8a32.32,32.32,0,0,1,.63-4,2.19,2.19,0,0,1,2.41-1.77,2.68,2.68,0,0,1,2.24,2.12,21.53,21.53,0,0,1,0,3.68c-.15,2.05-.44,4.08-.58,6.13a16.88,16.88,0,0,0,.23,2.61l5.91-1.32a16,16,0,0,0,0-2.18c-.19-1.35-.57-2.69-.71-4a5.9,5.9,0,0,1,.24-2.4,1.7,1.7,0,0,1,3-.43,38.25,38.25,0,0,1,2.08,4.88c.43,1.13.7,2.31,1.12,3.74.84-.33,1.43-.53,2-.8,2.09-1,4.11-2.17,6.27-3a4.17,4.17,0,0,1,5,1.78,7.82,7.82,0,0,1,.44,2.58l-3.45-.19a6.11,6.11,0,0,0-4.55,1.49c-4.64,4-5.73,4.23-4.83,11.54a53.11,53.11,0,0,1,.44,6.55,3,3,0,0,1-1.07,2,2.32,2.32,0,0,1-3.78-1.46c-.43-2.15-.72-4.32-.95-6.5s-.27-4.37-.46-6.56A18.57,18.57,0,0,0,706.92,599.13Z"/><path d="M1045.61,534.28a9.36,9.36,0,0,0-2.38,5.41c-.41,2.84-.83,5.69-1.25,8.53a14.28,14.28,0,0,1-.3,1.61,3,3,0,0,1-2.23,2.18c-1.09.3-2.1-.06-2.28-1.1a11.85,11.85,0,0,1-.27-4,62.52,62.52,0,0,0,.91-14.33c-.13-2.5,1-3.26,3.57-3,.49.05,1.16.14,1.47-.12a3.24,3.24,0,0,1,3-1,5.77,5.77,0,0,1,3.55,2.63c.37.57.59,1.23.91,1.84s.55.9,1,1.57c1.25-1.08,2.33-2.09,3.47-3,3.16-2.47,7.46-1.81,9,1.89,2.45,6.08,3.46,12.42.71,18.78-.52,1.22-.69,1.24-3.15,1.24-.63-2-.08-4-.13-6s0-4.11-.18-6.15a9.78,9.78,0,0,0-2.15-5.47c-1.7-.43-2.6.51-3.28,1.53-1.93,2.88-3.39,5.94-3.13,9.57a15.93,15.93,0,0,1-.42,6.52,3.66,3.66,0,0,1-1,1.68,3.42,3.42,0,0,1-2.15.86c-.9-.12-1.09-1.15-1.12-2-.11-3.15-.11-6.31-.29-9.46-.13-2.45-.43-4.91-.76-7.35A15.71,15.71,0,0,0,1045.61,534.28Z"/><path d="M925.49,608.43c-.82.06-1.61.13-2.39.17-1.37.07-2.73.18-4.09.19a3.36,3.36,0,0,1-3.22-2.15,10,10,0,0,1-1-6.77c1.31-5,3.84-8.84,8.59-11.37,2.85-1.51,5.39-1.85,8.13-.42,4.36,2.28,5.43,7.95,3,10.82s-2.77,6.24-3.28,9.58c-1.08,7.17-1.86,14.38-2.73,21.58-.17,1.4-.39,2.69-1.78,3.48-1.16.66-2.27.33-2.53-.93a8.68,8.68,0,0,1-.19-2c.15-3.28.25-6.57.56-9.84.34-3.66.89-7.31,1.31-11A4.48,4.48,0,0,0,925.49,608.43Zm-6-6.17c0,.4.09,1.22.25,2a1.64,1.64,0,0,0,2.17,1.27l.38-.14c4.79-1.58,6.56-5.89,8.66-9.82a3.13,3.13,0,0,0-4.48-3.61,31.54,31.54,0,0,0-4.47,3.55A8.87,8.87,0,0,0,919.44,602.26Z"/><path d="M948.59,507.05a3.3,3.3,0,0,0-4.11,1.46,55,55,0,0,0-4.34,6.93,35.32,35.32,0,0,0-3.49,14.66,12.51,12.51,0,0,0,.32,2.17,11.43,11.43,0,0,0,2.09-.4c1.15-.45,2.24-1,3.36-1.54a13.38,13.38,0,0,1,1.89-.77,2.45,2.45,0,0,1,2.88,1,2.31,2.31,0,0,1-.58,3,15.68,15.68,0,0,1-6.07,3.28c-.76.27-1.61.3-2.4.52a2.06,2.06,0,0,0-1.57,2.14,25.84,25.84,0,0,0,1.73,10.05,21.79,21.79,0,0,0,2.74,3.94c-2,1.34-3.61,1.43-5,0a11.82,11.82,0,0,1-2.23-3.38,25.29,25.29,0,0,1-1.7-5.49c-1.33-7.86-2-15.73.46-23.53.7-2.22,1.36-4.45,2-6.67,1.36-4.44,4.19-8,7.17-11.37,1.28-1.46,3-2.73,5.06-1.77C949.13,502.24,949.17,504.33,948.59,507.05Z"/><path d="M820.06,535.14a56.74,56.74,0,0,0-1.35,5.59,16.73,16.73,0,0,0,0,4.47c.2,1.63.71,3.21,1,4.82a11,11,0,0,1,.2,2.43,1.41,1.41,0,0,1-1.81,1.17,6,6,0,0,1-2-1.27,5.44,5.44,0,0,1-.9-1.82c-1.2-3-1.17-2.92-4-1.89a27.67,27.67,0,0,1-4.74,1.2,3.11,3.11,0,0,1-3.62-2.06,18,18,0,0,1-1.1-3.92,18.65,18.65,0,0,1,2.12-11.12,26.17,26.17,0,0,1,6.37-8.48,5.31,5.31,0,0,1,6.41-.84c3,1.65,4.86,4.35,6.24,7.39a2.7,2.7,0,0,1-.83,3A10.78,10.78,0,0,1,820.06,535.14Zm-14.08,7a17.71,17.71,0,0,0,.16,1.87c.4,2.25,1.94,2.86,3.82,1.57a9.52,9.52,0,0,0,4-6.86c.4-2.68.84-5.37,1.24-8.05a7.31,7.31,0,0,0,0-1.62,1.19,1.19,0,0,0-1.87-.77A20.92,20.92,0,0,0,806,542.13Z"/><path d="M763,544.77c2.56-1,3.23-3.1,4.44-4.69a8.74,8.74,0,0,0,1.78-4.94,29.14,29.14,0,0,1,2-8.33,14.84,14.84,0,0,1,1.51-2.5c.85.68,1.44,1.22,2.1,1.66a2.48,2.48,0,0,1,1,2.88,31.19,31.19,0,0,1-1.1,3.95,19.56,19.56,0,0,0-.66,9.74c.35,2.54.73,5.25,3.48,6.26-.26,2.32-1.54,2.84-3.19,3a3.26,3.26,0,0,1-3.28-2c-.67-1.31-1.15-2.71-1.76-4.19a53.1,53.1,0,0,1-4.5,3.07,13.5,13.5,0,0,1-3.84,1.3,2,2,0,0,1-2.47-1.66,38.94,38.94,0,0,1-.76-5.68,35.1,35.1,0,0,1,.17-6.15c.55-4.34,1.28-8.65,2-13a7.45,7.45,0,0,1,.65-1.93,2,2,0,0,1,1.94-1.27,2.31,2.31,0,0,1,2,1.74,10.88,10.88,0,0,1,0,2.85c-.44,3.26-1.06,6.49-1.44,9.75-.32,2.71-.42,5.45-.57,8.18A9.68,9.68,0,0,0,763,544.77Z"/><path d="M1073.66,547.69a4.76,4.76,0,0,0-.45,1.06c-.47,3,1.17,4.93,4.1,4.46a47.92,47.92,0,0,0,7.86-2.16c2.18-.77,2.13-.92,4.84-.52-1.2,2.24-3.2,3.4-5.14,4.57-3,1.82-6.44,2.24-9.87,2.33s-5.29-1.36-6.45-4.58a10,10,0,0,1-.36-5.27,21.83,21.83,0,0,1,9-14.14,15.77,15.77,0,0,1,8.06-2.7,3.78,3.78,0,0,1,3.92,3.82,10.09,10.09,0,0,1-1.49,5,18.82,18.82,0,0,1-8.82,7.06A29,29,0,0,1,1073.66,547.69Zm10.43-12c-1.39-.93-2.53-.22-3.44.47-1.66,1.28-3.43,2.56-3.93,4.9,1.76.72,2.82-.28,3.89-1C1082.17,539,1083.62,537.8,1084.09,535.74Z"/><path d="M752,611.55c-.45,2.24-1.78,2.52-3.18,2.69a4.7,4.7,0,0,1-4.14-1.35,39.42,39.42,0,0,1-2.63-3.44,19,19,0,0,0-2.12,1,17.33,17.33,0,0,1-9.25,3c-2.71.1-4.08-.86-4.76-3.48a5.5,5.5,0,0,1-.23-2.43c1.32-6.24,3.51-12.09,8-16.84a12.27,12.27,0,0,1,1.84-1.62,4.38,4.38,0,0,1,5.38,0,9,9,0,0,1,3.59,4.37c1.18,3.38,2.16,6.78,1.88,10.42a8.42,8.42,0,0,0,0,1.23,9.94,9.94,0,0,0,1.5,4.63C748.76,611.31,750.33,611.21,752,611.55Zm-10.23-10.72a12.07,12.07,0,0,0-1.59-6.3c-.84-1.5-2.16-1.57-3.26-.15A30.13,30.13,0,0,0,731,605.92a9.2,9.2,0,0,0-.29,2,1.81,1.81,0,0,0,2.5,1.8c2.53-.82,4.46-2.55,6.39-4.27A5.74,5.74,0,0,0,741.74,600.83Z"/><path d="M828.54,530.2c1.48-1,2-2.47,2.84-3.65.75-1,1.37-2.07,2.84-2,1.93.06,3.89.08,5.16,1.89a7.56,7.56,0,0,1,1.13,2.16c.81,2.89,1.69,5.78,2.24,8.73.7,3.76,1.13,7.57,1.63,11.36a9,9,0,0,1,.07,2.84,2.09,2.09,0,0,1-1.19,1.43,2.32,2.32,0,0,1-1.78-.62,3.75,3.75,0,0,1-1-1.74,38.69,38.69,0,0,1-1-4.39c-.52-3.37-.88-6.78-1.46-10.14a22.06,22.06,0,0,0-1.42-4.69c-.66-1.56-2.21-1.54-3.14,0a7.42,7.42,0,0,0-.74,1.46A45,45,0,0,0,830,547.21c0,1.23,0,2.46-.07,3.69s-.65,1.85-1.69,1.91c-1.38.08-2.39-.39-2.62-1.46a20.25,20.25,0,0,1-.46-3.64c-.12-3.14-.1-6.29-.23-9.43-.09-2.31.05-4.63-.9-6.86a3.28,3.28,0,0,1,.69-3.45,1.4,1.4,0,0,1,2.15-.09C827.43,528.59,827.94,529.37,828.54,530.2Z"/><path d="M676.63,609.31c-.3.82-.33,1.41-.63,1.68-3.41,3-6.9,5.82-11.5,6.79-.66.14-1.27.55-1.93.63-4,.49-6.27-.6-7.34-5.22a16.87,16.87,0,0,1,.08-6.09,29.23,29.23,0,0,1,5.06-12.41,20.85,20.85,0,0,1,4.38-4.26,4.16,4.16,0,0,1,5.62-.2,5.46,5.46,0,0,1,1.84,6.2,20.6,20.6,0,0,1-5.87,8.27,40,40,0,0,1-4.34,3c-1.84,1.23-2.48,4-1.1,5.67a3.34,3.34,0,0,0,2.14.93,10.57,10.57,0,0,0,7-2A24.9,24.9,0,0,1,676.63,609.31ZM667,595a9.72,9.72,0,0,0-4.24,5,4.73,4.73,0,0,0,0,1.58C666.06,599.22,666.64,598.29,667,595Z"/><path d="M982.48,610.73l-3.24.52c-.36-.5-.75-.8-.79-1.15-.45-3.25-1-6.49-1.19-9.75-.26-5.06-.23-10.13-.32-15.19,0-1.78-.06-3.56-.08-5.34a16.81,16.81,0,0,1,.07-2.46,3.05,3.05,0,0,1,2.44-2.43,2.38,2.38,0,0,1,2.2,2.09,25,25,0,0,1,.48,4.47c.06,3.29,0,6.58,0,9.86,0,.8.13,1.6.22,2.7a8.11,8.11,0,0,0,2-.51c1.47-.84,2.9-1.52,4.65-.89a8.73,8.73,0,0,1,4.79,3.65,12.55,12.55,0,0,1,1.92,7,36.71,36.71,0,0,1-1.07,6.47c-.11.48-.92,1-1.5,1.13s-1.65-.73-1.68-1.48a10.68,10.68,0,0,1,.15-2,12.13,12.13,0,0,0-.74-6.06,9.32,9.32,0,0,0-1.61-2.8c-1.65-2-3.58-2-5.06.1a9.2,9.2,0,0,0-1.34,3.79,42.32,42.32,0,0,0-.12,4.92C982.67,608.43,982.56,609.5,982.48,610.73Z"/><path d="M603.7,532.28a12.51,12.51,0,0,1-13.32,13.21c-3.5-.21-5.69-2.15-6.57-5.66a17.71,17.71,0,0,1,1.84-13,25.72,25.72,0,0,1,8.22-9.47c2.39-1.63,3.76-1.37,5.48,1,.15.22.2.54.39.71,3.43,3,3.72,7.07,4,11.18C603.74,530.92,603.7,531.6,603.7,532.28Zm-4-2.13a12.53,12.53,0,0,0-2-6.76c-1.14-1.6-2.35-1.69-3.75-.34a23.15,23.15,0,0,0-5.29,8.18,10.91,10.91,0,0,0-.65,7.22c.87,3,3.3,4.1,6,2.63a11.06,11.06,0,0,0,2.25-1.73C598.9,536.78,599.26,533.36,599.69,530.15Z"/><path d="M686.38,536.74a10.15,10.15,0,0,1-1.31,2.08,29.8,29.8,0,0,1-11,6.18c-3.14,1-6.24.39-9.34,0a3.59,3.59,0,0,1-2.58-1.86,9.42,9.42,0,0,1-1.31-7.87,21.63,21.63,0,0,1,9.75-12.71,8.49,8.49,0,0,1,6-.71c2.09.35,3.27,3,2.56,5.29a10,10,0,0,1-4.4,5.22,13.48,13.48,0,0,1-6.76,2.73,8.67,8.67,0,0,0-2,.66,10.41,10.41,0,0,0-.41,2c0,3,1,3.85,4,3.58a30.44,30.44,0,0,0,10.63-2.88A14.09,14.09,0,0,1,686.38,536.74Z"/><path d="M580,512.52a37,37,0,0,0-.69,4.23c-.36,8.46-1.83,16.87-1.27,25.37a10.15,10.15,0,0,1,0,1.23,1.85,1.85,0,0,1-1.23,1.92,2.36,2.36,0,0,1-2.83-1,14.55,14.55,0,0,1-1.41-7.17c.17-3.83.32-7.66.55-11.48s.57-7.9.84-11.86a4.41,4.41,0,0,0-.36-1.06,24.87,24.87,0,0,0-2.57-.18c-.94,0-1.89.28-2.83.28a1.38,1.38,0,0,1-1-2.14,4.6,4.6,0,0,1,2.77-2.29c1.72-.45,3.43-.92,5.17-1.26,2.27-.45,4.57-.88,6.87-1.11a7.71,7.71,0,0,1,3.18.46,2.72,2.72,0,0,1,1.48,3.08c-.14.95-.81,1.32-1.67,1.55C583.47,511.48,581.91,512,580,512.52Z"/><path d="M916,552.46c-3.91,0-6.27-1.72-7.74-5.39a13.09,13.09,0,0,1,.37-10.31c.93-2.24,2.29-4.27,2.59-6.82.25-2,2.11-3.08,4.21-3.1a9.52,9.52,0,0,1,6.86,3c4.51,4.21,5.51,9.23,4,14.89A10.27,10.27,0,0,1,916,552.46Zm3.24-19.07c-2.53.25-4,1.9-5.23,3.66a9.07,9.07,0,0,0-1.85,6.11,6.56,6.56,0,0,0,3,5.05,2.31,2.31,0,0,0,1.88.37c1.81-.89,3.75-1.77,4.27-4a22,22,0,0,0,.8-4.79A7.44,7.44,0,0,0,919.24,533.39Z"/><path d="M1029.78,529.92c.7.83,1.3,1.56,1.92,2.28,3.89,4.56,4.42,9.88.53,14.94a31.35,31.35,0,0,1-2.1,2.51c-2.62,2.76-6,3.11-9.48,2.77a5.83,5.83,0,0,1-4.95-5.32,19.91,19.91,0,0,1,.41-6.5,34.36,34.36,0,0,1,6.19-12.4,19.08,19.08,0,0,1,3.21-3.14,2.81,2.81,0,0,1,3.44-.27,2.89,2.89,0,0,1,1.35,3.18C1030.16,528.62,1030,529.25,1029.78,529.92Zm-3.72,2.12a21.59,21.59,0,0,0-5.34,10,11.56,11.56,0,0,0-.21,3.27c.19,3.18,2.47,4.3,5.07,2.57a13.2,13.2,0,0,0,3.89-4.7,6.36,6.36,0,0,0,.22-6.29A18.21,18.21,0,0,0,1026.06,532Z"/><path d="M766.67,613.37l-2.17,1.74-2.29-1.73a5,5,0,0,0-.87,0c-3,.6-3.66.36-4.91-2.11a12.37,12.37,0,0,1-1.1-3.07c-1.07-4.94-2.07-9.9-3.11-14.85a2.69,2.69,0,0,1,1.38-3.12,2,2,0,0,1,3,.94,50.27,50.27,0,0,1,1.79,5.87c.59,2.52,1,5.1,1.53,7.64a18.07,18.07,0,0,0,1.12,2.61c.2-1.58.26-2.19.35-2.8l1.17-7.69c.35-2.29.7-4.59,1.06-6.88a12.81,12.81,0,0,1,.48-2.39,1.92,1.92,0,0,1,2-1.17c.89,0,1.78.41,1.89,1.27.26,2.15.84,4.46.35,6.47C765.61,605.48,766.61,605.66,766.67,613.37Z"/><path d="M742.87,549.76c-4.41,0-6.65-1.92-7-6.07a29.68,29.68,0,0,1,1.57-12.11,29,29,0,0,1,1.84-4.54,15.32,15.32,0,0,1,2.64-3.6,4.26,4.26,0,0,1,6.24,0,13.07,13.07,0,0,1,4.18,7.78c.35,2.29.65,4.59,1,6.88.4,2.82-.89,5.09-2.49,7.16C748.75,548,746.23,550,742.87,549.76Zm2.08-23a28.16,28.16,0,0,0-4.27,14,10.71,10.71,0,0,0,.42,3.6,2,2,0,0,0,3,1.19,8.36,8.36,0,0,0,4.53-6,14.74,14.74,0,0,0-1.23-9.93C746.87,528.64,746.7,527.24,745,526.72Z"/><path d="M782.51,544.35c1.74,1.3,3.21,2,4.94,1.75a8.23,8.23,0,0,0,1.94-.6,1.54,1.54,0,0,0,.45-2.67c-1.36-1.12-2.83-2.13-4.28-3.14-1.11-.77-2.37-1.36-3.4-2.22-4.38-3.69-4.91-8.86-1.45-13.43a23.22,23.22,0,0,1,2.13-2.5,8,8,0,0,1,8.28-2.14c2.54.66,3.88,2.45,4.82,4.66a3.12,3.12,0,0,1-.44,3.47,2.62,2.62,0,0,1-3.2.53c-.8-1.5-.85-3.66-3-4.8a7.4,7.4,0,0,0-5.49,4.6c-1.2,2.65-.4,5.06,2,6.86,1.32,1,2.75,1.8,4.11,2.71,1,.69,2.06,1.36,3,2.12a8.05,8.05,0,0,1,2.82,4.43,3.54,3.54,0,0,1-1.69,4.23,15.92,15.92,0,0,1-7.49,1.89,5.59,5.59,0,0,1-4.75-2.8,1.6,1.6,0,0,1-.25-1.14A9.11,9.11,0,0,1,782.51,544.35Z"/><path d="M642.71,606.23c.85-2.58,1.71-5.15,2.55-7.72.47-1.43,1-2.85,1.37-4.29a3.41,3.41,0,0,1,1.75-2.17,2.05,2.05,0,0,1,2.58.52,3.68,3.68,0,0,1,.55,3.86,40.53,40.53,0,0,0-1.66,4.19c-1.26,4.19-2.44,8.41-3.64,12.62-.19.65-.27,1.34-.48,2a2.3,2.3,0,0,1-3.88,1.14c-1.89-1.77-3.79-3.64-4.6-6.19a40.55,40.55,0,0,1-1.58-6.77,77.29,77.29,0,0,1-.5-8.2,4.3,4.3,0,0,1,1.32-3.73c1.46-1.22,3-1,3.59.76a9.58,9.58,0,0,1,.54,2.8c.08,1.63,0,3.28,0,4.92A8.17,8.17,0,0,0,642.71,606.23Z"/><path d="M913.93,599.39c-.15,1.21-.22,2.45-.47,3.64a10.67,10.67,0,0,1-8.58,8.8,32.14,32.14,0,0,1-4,.62,4.08,4.08,0,0,1-4.59-2.61c-1.43-2.88-1.13-5.87-.25-8.77a56.7,56.7,0,0,1,5.51-12.29c1.4-2.38,4.11-3.07,6.26-1.32C911.51,590.5,914.12,594.24,913.93,599.39Zm-4.37-.71c.2-1.74-1-3.91-2.15-6.1-.63-1.24-1.78-1.24-2.57-.08-2.27,3.3-3.49,7.09-4.8,10.81a7.36,7.36,0,0,0,0,3.24c.26,1.89,1.4,2.62,3.21,2C907.5,607,909.32,604.58,909.56,598.68Z"/><path d="M1156.08,558.79c-1.5-1.8-2.38-3-3.4-4a12.71,12.71,0,0,1-2.66-4.56c-1.64-4.35-.35-8,2.52-11.34a20.61,20.61,0,0,1,9.25-5.84,7.34,7.34,0,0,1,6.35.23c2.23,1.3,2.57,2.87,1,5.09a4.48,4.48,0,0,1-1,.81,7.23,7.23,0,0,0-1.2-1.67,3.89,3.89,0,0,0-2.13-1c-4.15.16-9.28,4.27-10.43,8.11a6,6,0,0,0,.47,4.74,19.61,19.61,0,0,0,4.52,5.25,45.44,45.44,0,0,1,4.43,4.23c1.42,1.64.76,3.46-1.31,4.16a13.56,13.56,0,0,1-9.21-.16,3.67,3.67,0,0,1-1.69-1.1,2.62,2.62,0,0,1-.37-1.84c.07-.37.74-.79,1.19-.88A30.55,30.55,0,0,1,1156.08,558.79Z"/><path d="M792.61,607.93c-3.93,4-8,6.49-13.17,7-.81.08-1.63.2-2.44.2a5,5,0,0,1-5.42-4.92,17.24,17.24,0,0,1,.47-5.26,23.3,23.3,0,0,1,6.4-11.21,9.55,9.55,0,0,1,4.63-2.49,3.49,3.49,0,0,1,4.37,2.67,5.57,5.57,0,0,1-1.52,6c-1.93,1.79-3.79,3.53-6.66,3.56a2.11,2.11,0,0,0-2.06,1.7c-.47,1.69-1.33,3.53,0,5.1,1.44,1.75,3.51,1.26,5.33.7a50.6,50.6,0,0,0,4.88-2.07c1.25-.54,2.49-1.08,3.78-1.53C791.42,607.29,791.82,607.62,792.61,607.93Z"/><path d="M1007.46,611.44c-5.07.09-7.61-2.29-7.77-7.3a9.33,9.33,0,0,1,.17-2.85c1.71-5.85,5.2-10.18,11-12.27a7.51,7.51,0,0,1,5.59.47,3.46,3.46,0,0,1,2.15,4,6.39,6.39,0,0,1-2.29,4.2c-2.54,2-5.19,3.54-8.57,3.31-2.9-.2-3.2,1.08-3,3.53a3.53,3.53,0,0,0,3.33,3.55c3,.46,6,.78,8.71-1.09a7.56,7.56,0,0,1,1.83-.83.82.82,0,0,1,.69.29.76.76,0,0,1,.09.72,8,8,0,0,1-1.43,1.42C1015.28,610.44,1011.76,611.37,1007.46,611.44Zm1.15-15.31a3.46,3.46,0,0,0,3.67-.29,6.33,6.33,0,0,0,1.55-1.8.8.8,0,0,0-.06-.75c-.25-.27-.69-.65-.95-.59A6.84,6.84,0,0,0,1008.61,596.13Z"/><path d="M1008,540.21a147.46,147.46,0,0,1,1.47-17.56,51.34,51.34,0,0,0,.32-7.35,4,4,0,0,1,2.08-3.72,2,2,0,0,1,3,.91,7.47,7.47,0,0,1,.58,3.15c-.35,4.9-.84,9.79-1.28,14.68-.1,1.09-.3,2.17-.35,3.26-.26,6.27-.51,12.55-.71,18.82,0,1.33-.2,2.44-1.61,3a1.57,1.57,0,0,1-2.13-.63,8.44,8.44,0,0,1-.92-3.08C1008.23,547.85,1008.13,544,1008,540.21Z"/><path d="M885.78,592.06l3.39-1c.92-.26,1.83-.58,2.76-.78,1.76-.39,2.84.18,3.21,1.61.31,1.25-.57,2.19-2.43,2.67s-4,1.05-5.92,1.61a15.71,15.71,0,0,0-1.71.77,28.1,28.1,0,0,0,.23,9.28c.21,1.07.53,2.12.77,3.19.35,1.61,0,2.4-1,2.7-1.6.45-2.83,0-3.32-1.47a25.85,25.85,0,0,1-1.39-5.54c-.39-4.2-1-8.39-.41-12.66.45-3.38.44-6.81.73-10.22a22.79,22.79,0,0,1,.72-4,2.36,2.36,0,0,1,4.41,0,7.45,7.45,0,0,1,.37,4c-.32,2.72-.57,5.44-.81,8.16A7.71,7.71,0,0,0,885.78,592.06Z"/><path d="M1132.86,533.14c2.33,1.7,2.36,4.19,3.15,6.52,1.58-.86,2-2.41,2.82-3.57,2.55-3.46,8.77-3.19,11,.48a5.64,5.64,0,0,1,.48,1.13,1.3,1.3,0,0,1-1.46,1.79c-.66-.16-1.27-.5-1.93-.67a4.73,4.73,0,0,0-6,2.93,23.35,23.35,0,0,0-1.42,4.28c-.71,3.48-2.28,6.76-2.24,10.4a2.7,2.7,0,0,1-.29,1.18,2.44,2.44,0,0,1-2.27,1.47,2.17,2.17,0,0,1-2.17-1.56,9.68,9.68,0,0,1-.38-2q-.81-8.81-1.57-17.59C1130.3,535.06,1130.36,535,1132.86,533.14Z"/><path d="M1026.66,592.24c.75-.68,1.62-1.52,2.55-2.29a8,8,0,0,1,8.8-1.06c1.44.81,1.83,1.93,1,3.68-1.06.06-2.26.17-3.45.2a5.84,5.84,0,0,0-5,3,24.51,24.51,0,0,0-3.21,10.48c-.13,1.09-.14,2.18-.22,3.27a2.39,2.39,0,0,1-1.28,2c-1.37.83-2.83.47-3.34-1a6.17,6.17,0,0,1-.33-2,110.5,110.5,0,0,0-.7-14.32c-.35-2.68,1.32-3.62,3.87-2.43.24.11.44.3.68.41A2.34,2.34,0,0,0,1026.66,592.24Z"/><path d="M880.81,547.28c-.94-2-1.9-3.95-2.79-5.93a6.35,6.35,0,0,1,.09-5.56c2.19-4.64,5-8.81,9.51-11.52.23-.14.42-.35.66-.49,1.39-.83,2.72-.79,3.33.09s.34,2-.6,3a17.56,17.56,0,0,1-1.57,1.25,23.48,23.48,0,0,0-5.85,6.79c-1.7,3.34-1.32,5.33,1.35,8.14.66.69,1.45,1.25,2.1,2a6.42,6.42,0,0,1,1.42,1.94,2.24,2.24,0,0,1-.2,1.89,9.08,9.08,0,0,1-5.44,3.41,5.72,5.72,0,0,1-2-.11,2,2,0,0,1-1.36-2.88A14.3,14.3,0,0,1,880.81,547.28Z"/><path d="M800.68,600.06c.07,2,.21,5.64.36,9.32,0,.82.15,1.63.13,2.45a1.83,1.83,0,0,1-1.7,1.95c-1.13.2-2-.11-2.28-1.21a29.1,29.1,0,0,1-1.29-6.39,158.9,158.9,0,0,1,.14-20.47,3.92,3.92,0,0,1,1.46-3.22,3.81,3.81,0,0,1,2.22-.7c.87.08,1.31.94,1.39,1.81a29.59,29.59,0,0,1,.1,3.26C801.08,590.68,800.9,594.5,800.68,600.06Z"/><path d="M811.3,611.78c-2.39,1.7-3.33,1.7-4.35-.29a29.18,29.18,0,0,1-2.21-5.72,40.78,40.78,0,0,1-1.21-6.85c-.43-4.76-.7-9.54-.94-14.32a8.6,8.6,0,0,1,.44-3.18,1.77,1.77,0,0,1,3-.63A4.6,4.6,0,0,1,807.6,584c.1,1.64.13,3.28.21,4.92.26,5,.2,10.12,1.39,15.07.38,1.59.87,3.16,1.3,4.73C810.78,609.77,811.05,610.81,811.3,611.78Z"/><path d="M626.18,595.76a7.1,7.1,0,0,1-.69-1.74c-.45-3.5.5-6.78,1.69-10a4.23,4.23,0,0,1,.44-.69,2,2,0,0,1,3.65.25,4.3,4.3,0,0,1,.21,2.74c-.85,2.73-1.89,5.42-2.92,8.09A1.86,1.86,0,0,1,626.18,595.76Z"/><path d="M1037.94,614.77c-.25-.34-.84-.81-.91-1.35a3.52,3.52,0,0,1,3.79-3.64,1.63,1.63,0,0,1,1,1.08C1042.24,612.62,1040.1,614.9,1037.94,614.77Z"/><path d="M1001.08,518.91c-.05,1-1,1.66-2.38,1.57A1.66,1.66,0,0,1,997,518.7a2.06,2.06,0,0,1,2.37-1.66A1.93,1.93,0,0,1,1001.08,518.91Z"/><path d="M850.7,592.29A30.79,30.79,0,0,1,852,602a2.65,2.65,0,0,1-.58,1.49,21.85,21.85,0,0,1-7.17,6,1.4,1.4,0,0,1-2.08-1.2,11.34,11.34,0,0,1,.75-6A22,22,0,0,1,850.7,592.29Z" style="fill:#fff"/><path d="M822.73,598.46c-.13-.75-.27-1-.21-1.27.67-2.7,2.71-4.29,4.85-5.73a1.63,1.63,0,0,1,2.21.38,1.79,1.79,0,0,1,.26,2.24C828.29,596.69,825.9,598,822.73,598.46Z" style="fill:#fff"/><path d="M612.84,598.51c0,1.39-.09,2.63-1.23,3.41-1,.66-1.65,1.94-3.1,1.51-.86-.26-.78-1.5.21-3.62a21.57,21.57,0,0,1,1.43-2.89c.32-.48,1-.72,1.53-1.07a12.71,12.71,0,0,1,1,1.62A2.85,2.85,0,0,1,612.84,598.51Z" style="fill:#fff"/><path d="M853.78,547.81c-1.19-3,.17-5.7,1-8.37a23.37,23.37,0,0,1,7.91-10.62c.81.37.59,1.12.61,1.76,0,1.78-.11,3.57.09,5.33.57,4.92-2.26,7.94-5.79,10.53A5.08,5.08,0,0,1,853.78,547.81Z" style="fill:#fff"/><path d="M1117,539.55a15.23,15.23,0,0,1,4-3.9,1.16,1.16,0,0,1,1.07,0,1.06,1.06,0,0,1,.17,1A5.6,5.6,0,0,1,1117,539.55Z" style="fill:#fff"/><path d="M943.38,597.4c0-.83-.17-1.37,0-1.6q1.86-2.13,3.89-4.13a1.15,1.15,0,0,1,1.11-.09A2.47,2.47,0,0,1,949,593a2,2,0,0,1-.37,1.14A6.71,6.71,0,0,1,943.38,597.4Z" style="fill:#fff"/><path d="M919.44,602.26a8.87,8.87,0,0,1,2.51-6.73,31.54,31.54,0,0,1,4.47-3.55,3.13,3.13,0,0,1,4.48,3.61c-2.1,3.93-3.87,8.24-8.66,9.82l-.38.14a1.64,1.64,0,0,1-2.17-1.27C919.53,603.48,919.49,602.66,919.44,602.26Z" style="fill:#fff"/><path d="M806,542.13a20.92,20.92,0,0,1,7.35-13.86,1.19,1.19,0,0,1,1.87.77,7.31,7.31,0,0,1,0,1.62c-.4,2.68-.84,5.37-1.24,8.05a9.52,9.52,0,0,1-4,6.86c-1.88,1.29-3.42.68-3.82-1.57A17.71,17.71,0,0,1,806,542.13Z" style="fill:#fff"/><path d="M1084.09,535.74c-.47,2.06-1.92,3.26-3.48,4.34-1.07.75-2.13,1.75-3.89,1,.5-2.34,2.27-3.62,3.93-4.9C1081.56,535.52,1082.7,534.81,1084.09,535.74Z" style="fill:#fff"/><path d="M741.74,600.83a5.74,5.74,0,0,1-2.1,4.63c-1.93,1.72-3.86,3.45-6.39,4.27a1.81,1.81,0,0,1-2.5-1.8,9.2,9.2,0,0,1,.29-2,30.13,30.13,0,0,1,5.85-11.54c1.1-1.42,2.42-1.35,3.26.15A12.07,12.07,0,0,1,741.74,600.83Z" style="fill:#fff"/><path d="M667,595c-.4,3.25-1,4.18-4.26,6.62a4.73,4.73,0,0,1,0-1.58A9.72,9.72,0,0,1,667,595Z" style="fill:#fff"/><path d="M599.69,530.15c-.43,3.21-.79,6.63-3.45,9.2a11.06,11.06,0,0,1-2.25,1.73c-2.71,1.47-5.14.38-6-2.63a10.91,10.91,0,0,1,.65-7.22,23.15,23.15,0,0,1,5.29-8.18c1.4-1.35,2.61-1.26,3.75.34A12.53,12.53,0,0,1,599.69,530.15Z" style="fill:#fff"/><path d="M919.24,533.39a7.44,7.44,0,0,1,2.9,6.37,22,22,0,0,1-.8,4.79c-.52,2.26-2.46,3.14-4.27,4a2.31,2.31,0,0,1-1.88-.37,6.56,6.56,0,0,1-3-5.05,9.07,9.07,0,0,1,1.85-6.11C915.24,535.29,916.71,533.64,919.24,533.39Z" style="fill:#fff"/><path d="M1026.06,532a18.21,18.21,0,0,1,3.63,4.88,6.36,6.36,0,0,1-.22,6.29,13.2,13.2,0,0,1-3.89,4.7c-2.6,1.73-4.88.61-5.07-2.57a11.56,11.56,0,0,1,.21-3.27A21.59,21.59,0,0,1,1026.06,532Z" style="fill:#fff"/><path d="M745,526.72c1.75.52,1.92,1.92,2.43,2.94a14.74,14.74,0,0,1,1.23,9.93,8.36,8.36,0,0,1-4.53,6,2,2,0,0,1-3-1.19,10.71,10.71,0,0,1-.42-3.6A28.16,28.16,0,0,1,745,526.72Z" style="fill:#fff"/><path d="M909.56,598.68c-.24,5.9-2.06,8.31-6.35,9.84-1.81.65-3-.08-3.21-2a7.36,7.36,0,0,1,0-3.24c1.31-3.72,2.53-7.51,4.8-10.81.79-1.16,1.94-1.16,2.57.08C908.51,594.77,909.76,596.94,909.56,598.68Z" style="fill:#fff"/><path d="M1008.61,596.13a6.84,6.84,0,0,1,4.21-3.43c.26-.06.7.32.95.59a.8.8,0,0,1,.06.75,6.33,6.33,0,0,1-1.55,1.8A3.46,3.46,0,0,1,1008.61,596.13Z" style="fill:#fff"/></g></svg>
