<svg xmlns="http://www.w3.org/2000/svg" viewBox="0 0 1366 768"><g id="Layer_11" data-name="Layer 11"><g id="behind"><path d="M364.08,443.76c-1.2,0-2.4,0-3.6,0-7.29.31-14.55-.53-21.84-.51-12.8,0-25.6.51-38.4.56-9.2,0-18.4.51-27.6.92-10.72.48-21.45,1-32.16,1.71-3.44.22-6.86.65-10.32.67" style="fill:none;stroke:#000;stroke-linecap:round;stroke-linejoin:round;stroke-width:2px"/><path d="M353.52,463.68c-4.64,0-9.28.11-13.92.2-11.2.21-22.41-.25-33.6.31-7.28.36-14.56.09-21.84.42-10,.46-20,.65-30,1.07-6,.26-12,.34-18,.88" style="fill:none;stroke:#000;stroke-linecap:round;stroke-linejoin:round;stroke-width:2px"/><g id="behind-2" data-name="behind"><path d="M1004.4,141.12c-3.27-.49-6.27.85-9.35,1.49-9.39,1.94-18.73,4.13-28.09,6.19q-17.64,3.87-35.28,7.68c-11.44,2.48-22.91,4.84-34.31,7.48-7.52,1.75-15,3.56-22.59,5.13q-14.78,3.06-29.47,6.46c-15.73,3.64-31.47,7.23-47.1,11.3-11,2.87-22.1,5.69-33.08,8.78q-17.07,4.78-33.85,10.54c-17.51,6-34.75,12.67-51.62,20.35a408.18,408.18,0,0,0-101.3,65.28c-9,8-17.76,16.15-26.1,24.78a474.73,474.73,0,0,0-59.48,75.62c-6.34,10-12.23,20.24-17.9,30.64a518.76,518.76,0,0,0-23.41,49c-5.67,13.61-10.76,27.43-15.16,41.51a9.39,9.39,0,0,0-.71,3.84" style="fill:none;stroke:#000;stroke-linecap:round;stroke-linejoin:round;stroke-width:2px"/><path d="M1052.64,380.76c-3.92-.2-7.84-.06-11.76.08-5.28.18-10.56,0-15.84.06-11.52.22-23,.51-34.56.77-9.84.22-19.68.61-29.52.95-7.6.27-15.19.69-22.8,1-6.64.25-13.27.68-19.92,1-6.16.25-12.31.67-18.48,1-5.92.28-11.83.67-17.76,1-5.52.28-11,.67-16.56,1-5.68.29-11.35.67-17,1-5.36.28-10.71.67-16.08,1-5.52.29-11,.67-16.56,1-5.36.29-10.71.67-16.08,1s-11,.67-16.56,1-11.19.66-16.8,1c-5.92.31-11.83.66-17.76,1s-11.83.66-17.76,1q-10.08.51-20.16,1-10.56.49-21.12,1c-8.8.38-17.6.63-26.39,1-4,.18-8,.06-12,.37-7.43.59-14.9.05-22.31.57-6.66.47-13.29.38-19.93.31-10.25-.1-20.48.88-30.72.51-13.2-.49-26.4-.23-39.6-.54-5.67-.14-11.37-.12-17-.62-.81-.07-1.57.42-2.4.23" style="fill:none;stroke:#000;stroke-linecap:round;stroke-linejoin:round;stroke-width:2px"/><path d="M1017.6,415.2c-12.47-.56-25-.59-37.44-.82-9.45-.16-18.88.21-28.32.18-8.72,0-17.45.41-26.16.92-11.12.64-22.25,1-33.36,1.85-7.67.56-15.36.8-23,1.24-9.28.53-18.56,1.15-27.84,1.66-5.76.31-11.53.38-17.28.76-9.35.62-18.73.73-28.08,1.35-4.39.28-8.8.34-13.2.5-13.76.49-27.53.83-41.28,1.44-5.91.26-11.85.35-17.76.44-17.2.23-34.39,1-51.6,1.17-7.19.08-14.4.11-21.6.37-14.16.52-28.32.77-42.48,1q-14.64.24-29.28.46c-4.08.06-8.16.16-12.24.19" style="fill:none;stroke:#000;stroke-linecap:round;stroke-linejoin:round;stroke-width:2px"/><path d="M972.72,334.08c-9.38.18-18.73.83-28.08,1.42-6.56.42-13.12.7-19.68,1-8.48.35-17,1-25.44,1.29-6,.22-12,.52-18,1-10.32.77-20.66,1-31,1.75-5.73.41-11.51.56-17.27.83-10.64.5-21.28,1.12-31.92,1.65-7.36.37-14.72.62-22.08,1-10.8.53-21.6,1.16-32.4,1.66-8.56.39-17.13.47-25.68,1-9,.57-17.93.62-26.88,1.34-3.83.31-7.69.37-11.52.42-6.25.08-12.48.52-18.72.68-8.8.23-17.6.62-26.39,1-3.85.16-7.69.13-11.53.36-9.91.59-19.84.71-29.76,1.08-3.91.14-7.86,0-11.76.39-7.51.75-15,.1-22.56.71a23.31,23.31,0,0,0-2.64,0" style="fill:none;stroke:#000;stroke-linecap:round;stroke-linejoin:round;stroke-width:2px"/><path d="M1010.88,477.36a5.85,5.85,0,0,0-3.84-1c-8.8,0-17.61-.25-26.4.08-9.44.36-18.89.71-28.32,1.29-10.25.63-20.49,1.36-30.72,2.29-8.41.76-16.81,1.74-25.21,2.73-7,.81-13.92,1.64-20.86,2.57-6.09.83-12.18,1.77-18.26,2.71-6.55,1-13.11,2.05-19.66,3-5.71.84-11.37,2-17.05,3.08s-11.19,2.14-16.8,3.1c-6,1-12,2.25-18,3.48-8,1.65-16,3.31-24,5.16s-16.18,3.59-24.25,5.51c-11.57,2.76-23.22,5.18-34.78,8-6.86,1.68-13.77,3.18-20.68,4.61-4.16.86-8.45,1.48-12.67,2.16-5.6.9-11.22,1.61-16.83,2.18a75.15,75.15,0,0,1-12.47.62c-2.56-.16-5.12.12-7.7-.4-1.42-.29-2-2-3.58-1.66" style="fill:none;stroke:#000;stroke-linecap:round;stroke-linejoin:round;stroke-width:2px"/><path d="M619.44,173.76c-1.25-1.92-3.47-1.93-5.3-2.33-11.3-2.45-22.56-5.11-33.83-7.73-11.09-2.58-22.24-4.94-33.35-7.47-7.11-1.62-14.24-3.19-21.34-4.86-10.24-2.41-20.51-4.69-30.74-7.12-7-1.66-14.08-3.22-21.12-4.81-13.92-3.13-27.81-6.38-41.77-9.32-16.61-3.51-33.28-6.72-49.91-10.13a487.46,487.46,0,0,1-49.44-13c-17.9-5.68-35.53-12.15-53-18.94-6.1-2.36-12.23-4.63-18.26-7.17a2.24,2.24,0,0,0-2.38,0" style="fill:none;stroke:#000;stroke-linecap:round;stroke-linejoin:round;stroke-width:2px"/><path d="M666,175.44a4.6,4.6,0,0,0-3.38,1.18c-4.52,4.2-9.18,8.26-13.64,12.52-10.37,9.87-20.79,19.69-31,29.77-13,12.91-25.86,26-38.65,39.11q-17.53,18-34.79,36.24c-9.09,9.64-18,19.44-26.89,29.28C511,331,504.43,338.45,498,346.1c-13.69,16.34-27,32.94-39.66,50.12A645.42,645.42,0,0,0,421.53,452a436.57,436.57,0,0,0-25.26,49.16c-2.73,6.4-4.42,13.08-3.87,20.15" style="fill:none;stroke:#000;stroke-linecap:round;stroke-linejoin:round;stroke-width:2px"/><path d="M621.12,173.4c-2.43.12-3.24,2.36-4.49,3.78-4.76,5.4-9.67,10.66-14.49,16-9.78,10.86-19.68,21.6-29.49,32.43-10.43,11.49-20.87,23-31.19,34.57-7.84,8.8-15.77,17.52-23.59,26.33-4.73,5.34-9.57,10.6-14.32,15.92q-8.83,9.88-17.6,19.84c-4.34,4.93-8.77,9.79-13.13,14.7q-8.47,9.54-16.86,19.15c-4.7,5.38-9.43,10.73-14.13,16.11-8,9.21-16,18.47-23.53,28.07-6,7.63-11.78,15.39-17,23.55a244.1,244.1,0,0,0-17.09,31.89c-6.55,14.57-12.23,29.52-19.65,43.7a143.37,143.37,0,0,1-12.71,20.64c-.66.86-1.15,2.08-2.64,1.56" style="fill:none;stroke:#000;stroke-linecap:round;stroke-linejoin:round;stroke-width:2px"/><path d="M931.44,438c-6.42.7-12.8,1.8-19.21,2.57s-13,1.65-19.42,2.55c-9.52,1.33-19.06,2.55-28.58,3.91-5.49.78-11,1.4-16.54,2.08s-11.06,1.44-16.58,2.24c-3,.44-6.08.72-9.1,1.1-4.41.56-8.82,1.13-13.23,1.76-3.08.44-6.23.72-9.34,1.1-3.28.42-6.57.87-9.85,1.3-3,.4-6.07.74-9.11,1.08-4.72.52-9.44,1.1-14.16,1.67-3.12.38-6.24.8-9.36,1.2-5,.63-9.93,1.3-14.89,1.83-6,.64-12,1.5-18,2-4.41.39-8.81.91-13.19,1.49-7.75,1-15.54,1.79-23.29,2.78-6.71.86-13.44,1.46-20.16,2.19q-17.4,1.9-34.8,3.84c-7.52.82-15,1.6-22.56,2.4-2.72.29-5.44.56-8.16.84" style="fill:none;stroke:#000;stroke-linecap:round;stroke-linejoin:round;stroke-width:2px"/><path d="M217.2,180.48c7.82.79,15.5,2.58,23.28,3.56,8.94,1.13,17.9,2.19,26.89,2.85,7.41.55,14.86.9,22.31,1.09,6.08.15,12.16.16,18.24.15a33.15,33.15,0,0,0,6-.63c5.22-1,8.13-4.27,9.82-8.95,2.67-7.43,3.61-15.19,4.11-23a129.59,129.59,0,0,0,0-14.88c-.35-6.86-2.82-12.33-9.34-15.64a253.24,253.24,0,0,0-34.09-13.9,259.81,259.81,0,0,0-32-8.29c-5.6-1.12-11.29-2-17-2.56-5.2-.55-10.39-1.22-15.61-1.49" style="fill:none;stroke:#000;stroke-linecap:round;stroke-linejoin:round;stroke-width:2px"/><path d="M476.4,101.52c-3,.14-5.81-1.18-8.62-2-13.91-4-27.84-7.86-41.76-11.77q-23.81-6.67-47.79-12.6c-16.46-4-33-7.73-49.66-10.9-9.75-1.86-19.51-3.62-29.3-5.14-6.44-1-12.92-1.88-19.42-2.56C273.93,56,268,55.1,262.08,54.72" style="fill:none;stroke:#000;stroke-linecap:round;stroke-linejoin:round;stroke-width:2px"/><path d="M455.52,337.92a46,46,0,0,1-7.93.6c-8.56.46-17.11,1.1-25.66,1.64-11.44.73-22.9,1.25-34.33,2-7.51.52-15,.74-22.56,1-10.16.34-20.31.82-30.48,1.1-4.63.14-9.28.14-13.92.36-15.19.7-30.39.87-45.6,1-8.64.08-17.28.45-25.92.42-1,0-2.08-.15-3.12-.23" style="fill:none;stroke:#000;stroke-linecap:round;stroke-linejoin:round;stroke-width:2px"/><path d="M395.28,148.08a61.66,61.66,0,0,1,24,5.34c12.37,5.64,21.46,14.31,24.27,28.26,1.85,9.14.51,17.6-5.54,24.94a36.19,36.19,0,0,1-12.67,9.43,46.38,46.38,0,0,1-19.47,5,23.69,23.69,0,0,1-12.21-2.91,39.22,39.22,0,0,1-16.82-18.91c-3.17-7.32-2.14-14.4,1.7-21.1a64.14,64.14,0,0,1,16.12-18.17c3.25-2.58,7.95-3.6,11.69.39.52.54,1,1.27,1.92.84" style="fill:none;stroke:#000;stroke-linecap:round;stroke-linejoin:round;stroke-width:2px"/><path d="M403.92,547.44c-7.08,1.23-13.94-.64-20.88-1.4a21.54,21.54,0,0,0-16.28,5c-13.66,11.2-28.64,20.37-44,29-13.12,7.36-26.35,14.55-38.61,23.33s-23.07,18.79-31.71,31.16a82.81,82.81,0,0,0-12.89,29.31c-.43,1.87-.54,3.84-.89,5.75" style="fill:none;stroke:#000;stroke-linecap:round;stroke-linejoin:round;stroke-width:2px"/><path d="M416.4,390.24c-8.95-.5-17.92-.09-26.88-.46-15.35-.63-30.72-.28-46.08-.18-6.8,0-13.6-.07-20.4.19s-13.77.25-20.63.58c-4.17.2-8.34.1-12.49.37-7.35.49-14.72.65-22.08,1-7.52.38-15,.91-22.56,1.35" style="fill:none;stroke:#000;stroke-linecap:round;stroke-linejoin:round;stroke-width:2px"/><path d="M384.24,527.76a201.82,201.82,0,0,0-26.14,6.54,290.92,290.92,0,0,0-49.24,20.3,306,306,0,0,0-37.18,23.09,318.9,318.9,0,0,0-30.52,25.63c-5.58,5.25-10.56,11-15.78,16.62a3.32,3.32,0,0,1-2.9,1.42" style="fill:none;stroke:#000;stroke-linecap:round;stroke-linejoin:round;stroke-width:2px"/><path d="M374.16,422.64h-3.6c-31.2.33-62.4.12-93.6.32-7.11.05-14.25.11-21.36.49a109.42,109.42,0,0,0-18.71,2.35,22.65,22.65,0,0,1-3.37.2" style="fill:none;stroke:#000;stroke-linecap:round;stroke-linejoin:round;stroke-width:2px"/><path d="M604.32,30.72c-4.45-.56-8,1.84-11.5,3.87q-20.25,11.52-39.61,24.47a644,644,0,0,0-52.12,38.83c-5.12,4.24-10,8.78-15.33,12.75" style="fill:none;stroke:#000;stroke-linecap:round;stroke-linejoin:round;stroke-width:2px"/><path d="M343.92,526.8c-2.44-.42-4.83.27-7.19.58-4.32.56-8.67,1.08-13,1.85s-8.65,1.56-13,2.27c-6,1-12,2.26-18,3.48-9.6,1.95-19.1,4.37-28.56,6.94-11,3-21.89,6.29-32.65,10.06a9.16,9.16,0,0,1-1.91.26" style="fill:none;stroke:#000;stroke-linecap:round;stroke-linejoin:round;stroke-width:2px"/><path d="M749.76,489.24c-4.09-.1-8.16.3-12.24.45s-8,.45-12,.6c-8.48.31-17,.74-25.44,1.09-7.92.33-15.84.66-23.76,1.16-2.23.14-4.51-.11-6.72.42" style="fill:none;stroke:#000;stroke-linecap:round;stroke-linejoin:round;stroke-width:2px"/><path d="M269,713.76c-2.05-.32-3.54.91-5,1.94a381.78,381.78,0,0,0-31.7,24c-1,.82-1.94,1.75-3.35,1.81" style="fill:none;stroke:#000;stroke-linecap:round;stroke-linejoin:round;stroke-width:2px"/><path d="M260.88,729.6a150.06,150.06,0,0,0-21.61,22.32,3.45,3.45,0,0,1-2.63,1.56" style="fill:none;stroke:#000;stroke-linecap:round;stroke-linejoin:round;stroke-width:2px"/><path d="M264.24,744.24c-5.61,4.88-11,10-17.06,14.38-.53.38-1.06,1-1.9.74" style="fill:none;stroke:#000;stroke-linecap:round;stroke-linejoin:round;stroke-width:2px"/><path d="M275.76,747.6c-.12.47.27,1-.24,1.44-4,3.22-7.83,6.81-12.93,8.5-.68.23-1.18-.13-1.71.14" style="fill:none;stroke:#000;stroke-linecap:round;stroke-linejoin:round;stroke-width:2px"/></g></g></g></svg>
