<svg xmlns="http://www.w3.org/2000/svg" viewBox="0 0 1366 768"><g id="Layer_11" data-name="Layer 11"><g id="front"><path d="M971.52,262.32c1.37,1,3.2.93,4.55,1.93,3,2.2,4.32,5.36,5,8.87s1,6.88,1.41,10.32c.6,5.12,1.29,10.22,1.76,15.36a99.24,99.24,0,0,1,.26,20.25c1.57,1.14,3.52,1.28,5.45,1.34,11.44.34,22.88.37,34.32.56,12.09.2,24.13,1.29,35.76,5,13.19,4.2,24.46,11.35,32.09,23.08,8.81,13.56,9.14,27.64,1.31,42-6.08,11.12-15.06,19.53-24.51,27.59-10.09,8.61-21,16.18-31,24.91a105.21,105.21,0,0,0-24.89,31c-5.32,10.31-8.56,21.39-11.31,32.62-2,8.09-3.34,16.3-4.71,24.49-.76,4.54-1.31,9.13-2.07,13.66-1.05,6.25-2,12.52-3.21,18.75q-1.31,6.81-2.47,13.66c-1.36,8-3.09,15.87-4.89,23.74-2,8.85-4.14,17.69-6.64,26.42-.92,3.19-1.77,6.4-2.65,9.6" style="fill:none;stroke:#000;stroke-linecap:round;stroke-linejoin:round;stroke-width:2px"/><path d="M865.68,627.12c-17-2.2-33.53-6.47-49.95-11.42-15.79-4.77-31.27-10.39-46.74-16-13.57-4.95-27-10.21-40.58-15.28-15.56-5.83-31-11.87-46.58-17.72-8.11-3-16.27-5.94-24.24-9.35a90.21,90.21,0,0,1-16.76-9,3.93,3.93,0,0,0-4.11-.67" style="fill:none;stroke:#000;stroke-linecap:round;stroke-linejoin:round;stroke-width:2px"/><path d="M472.08,553.2a2.53,2.53,0,0,1,2.41,1.67,204.38,204.38,0,0,1,18.16,44c2.13,7.46,3.43,15.14,4.89,22.78,1.66,8.62,3.81,17.09,9.34,24.24,3.46,4.47,7.8,8,12,11.75q8.1,7.14,16.32,14.16c6.4,5.45,12.9,10.79,19.38,16.16,8.54,7.08,17.25,13.94,26,20.8,5,3.91,10.07,7.69,15.11,11.53a4.58,4.58,0,0,0,3.6,1.2" style="fill:none;stroke:#000;stroke-linecap:round;stroke-linejoin:round;stroke-width:2px"/><path d="M1131.72,406.56c-1.5,1.77-1.15,4-1.27,6-.91,15.32-6.2,29.05-15,41.5a149.91,149.91,0,0,1-13.36,15.9c-5.78,6.23-12,12-17.79,18.22A138.68,138.68,0,0,0,1055.26,534a146.18,146.18,0,0,0-7,24.48,118.71,118.71,0,0,0-2.34,23.77,1.93,1.93,0,0,1-.37,1.44" style="fill:none;stroke:#000;stroke-linecap:round;stroke-linejoin:round;stroke-width:2px"/><path d="M634.32,576.24c1.78-.32,3.1.71,4.3,1.7,14.87,12.19,30,24,45.67,35.2a423.07,423.07,0,0,0,40.94,26.07,272.54,272.54,0,0,0,45.65,20.3,233.44,233.44,0,0,0,26.17,6.7,28.37,28.37,0,0,1,2.87.27" style="fill:none;stroke:#000;stroke-linecap:round;stroke-linejoin:round;stroke-width:2px"/><path d="M1011.6,171.6c.12,4.14,2.19,7.6,4.12,11,5.06,8.91,12.65,15.38,21.09,20.89,7.28,4.74,15.31,8.12,23.06,11.95a41.16,41.16,0,0,1,21.31,23.84c5,14.05,9.94,28.15,14.9,42.23q5.16,14.64,10.3,29.29a5.13,5.13,0,0,1,.5,2.63" style="fill:none;stroke:#000;stroke-linecap:round;stroke-linejoin:round;stroke-width:2px"/><path d="M1083.12,455.76c-6.31.93-11,4.51-15.13,9.11-6,6.7-9.58,14.86-13.4,22.83-5.21,10.88-10.06,21.94-14.66,33.1q-6.37,15.47-12,31.19c-5.64,15.59-11,31.28-15.37,47.28-.18.64-.09,1.7-1.15,1.93" style="fill:none;stroke:#000;stroke-linecap:round;stroke-linejoin:round;stroke-width:2px"/><path d="M386.64,609.6a56.62,56.62,0,0,0,12.24,24.24c9.16,11,20.8,19,32.39,27.13a258.65,258.65,0,0,1,21.39,16.52,185.88,185.88,0,0,1,37.89,45.64,154,154,0,0,1,8.61,16.33c.49,1.1,1,1.6,2.2,1.42" style="fill:none;stroke:#000;stroke-linecap:round;stroke-linejoin:round;stroke-width:2px"/><path d="M1112.4,473c.19,2.26-1.14,4.06-2,6a244.55,244.55,0,0,1-10.48,22.6,122.58,122.58,0,0,1-16.36,22.78,193.36,193.36,0,0,0-14.69,17.72,96.81,96.81,0,0,0-12.18,24.52,188.18,188.18,0,0,0-7.5,30.46c-.93,5.68-2.37,11.27-2.6,17" style="fill:none;stroke:#000;stroke-linecap:round;stroke-linejoin:round;stroke-width:2px"/><path d="M1130.88,141.12c-4.89-.86-9.53-2.64-14.38-3.71a175.61,175.61,0,0,0-21.14-3.3,114,114,0,0,0-24.71.58A107.08,107.08,0,0,0,1044,141.6a100.89,100.89,0,0,0-26.4,15.6" style="fill:none;stroke:#000;stroke-linecap:round;stroke-linejoin:round;stroke-width:2px"/><path d="M529.2,471.84c-2.72.35-5.27-.69-7.91-1a64.27,64.27,0,0,0-37.91,6.34,62.08,62.08,0,0,0-27.62,28A67,67,0,0,0,449,527.51a25.69,25.69,0,0,0,0,8.66c.34,1.61-.29,3.21-.68,4.79" style="fill:none;stroke:#000;stroke-linecap:round;stroke-linejoin:round;stroke-width:2px"/><path d="M978.48,546c-2.33-.2-4,1.43-5.74,2.44a270.92,270.92,0,0,0-32.61,21.62,288,288,0,0,0-34.88,31.83A264.08,264.08,0,0,0,886.56,624a3.46,3.46,0,0,1-3.12,1.68" style="fill:none;stroke:#000;stroke-linecap:round;stroke-linejoin:round;stroke-width:2px"/><path d="M599.28,536.16a122.63,122.63,0,0,1-19.44.67,105.83,105.83,0,0,1-25.91-4.78c-2.55-.8-6-.13-7.21,1.71s-.36,5.25,1.67,7.21a16.9,16.9,0,0,0,12,4.45c11.47,0,22.38,2.83,33.37,5.58,9.81,2.45,19.61,4.94,29.5,7,.66.14,1.3.06,1.93.19" style="fill:none;stroke:#000;stroke-linecap:round;stroke-linejoin:round;stroke-width:2px"/><path d="M1085.52,623.28a3.25,3.25,0,0,0-2.66.94c-2.1,2.06-4.35,4-6.45,6-8.93,8.72-18.29,16.94-27.82,25-11.34,9.58-23.06,18.64-35.08,27.32-3.16,2.29-6.39,4.49-9.59,6.73a4.88,4.88,0,0,1-3.36,1.2" style="fill:none;stroke:#000;stroke-linecap:round;stroke-linejoin:round;stroke-width:2px"/><path d="M572.64,518.4a68.28,68.28,0,0,0-9.31-21.15A62,62,0,0,0,534,474c-.65-.25-1.3-.22-1.94-.41-1.64-.49-2.72-1-2.23-3.18a17.21,17.21,0,0,0,0-5.73c-.34-2.77-2.53-5-7.39-5-4.32,0-8.65.34-13,.69-5.93.48-11.87.87-17.75,1.72a137.13,137.13,0,0,0-22.1,4.71,108.45,108.45,0,0,0-10.29,3.68,7,7,0,0,1-3.14.43" style="fill:none;stroke:#000;stroke-linecap:round;stroke-linejoin:round;stroke-width:2px"/><path d="M1005.36,181.92c2.61,9.88-.26,18.87-4.57,27.59-3.8,7.69-8.38,14.94-12.7,22.33-5.32,9.1-10.68,18.18-15.75,27.41-.94,1.71-2.58,3.25-2.5,5.47" style="fill:none;stroke:#000;stroke-linecap:round;stroke-linejoin:round;stroke-width:2px"/><path d="M1111.56,326.64c1.09,11.38,4.44,22.18,8.25,32.89,3.59,10.09,7.4,20.12,9.4,30.71a93.36,93.36,0,0,1,1.46,12.48c.09,1.54-.15,3.54,2.37,3.6" style="fill:none;stroke:#000;stroke-linecap:round;stroke-linejoin:round;stroke-width:2px"/><path d="M570,500.4c3.57-.07,6.8,1.4,10.06,2.47a156.34,156.34,0,0,1,21.38,8.57,79.15,79.15,0,0,1,24.2,18.27,56.65,56.65,0,0,1,9,14.8c1.13,2.55,2.14,4.94,2.05,7.73" style="fill:none;stroke:#000;stroke-linecap:round;stroke-linejoin:round;stroke-width:2px"/><path d="M559.2,556.8c-.73,9.44-4.57,17.59-10.31,25A49.07,49.07,0,0,1,533,594.9c-5.8,3.08-12,5.25-18.69,5.4a72.85,72.85,0,0,1-7.68-.06" style="fill:none;stroke:#000;stroke-linecap:round;stroke-linejoin:round;stroke-width:2px"/><path d="M521,506.16c.41-.64,1.48-.86,1.12-2.08-2-1.87-4.8-2-7.37-2.17-7.09-.52-14.09.12-20.63,3.3a34.16,34.16,0,0,0-12,10.28c-3.05,4-5.25,8.4-7.66,12.74-3,5.32-3.91,11.2-5.09,17-.1.49.38,1.67-.89,1.69" style="fill:none;stroke:#000;stroke-linecap:round;stroke-linejoin:round;stroke-width:2px"/><path d="M430.32,530.64c-2.85.14-5.22-1.55-7.91-2.1-5.9-1.19-5.34.52-4.47,5,1,5.09,4.4,9,7.6,13A121.92,121.92,0,0,0,437.49,559a4.68,4.68,0,0,0,3.39,1.41" style="fill:none;stroke:#000;stroke-linecap:round;stroke-linejoin:round;stroke-width:2px"/><path d="M381.6,573.84c.16,5.15-1.44,10-2.66,14.88s-1.41,9.69.73,14.4c1.37,3,3.94,4.59,6.71,6,1.22.64,2.06-.71,3.14-.27" style="fill:none;stroke:#000;stroke-linecap:round;stroke-linejoin:round;stroke-width:2px"/><path d="M523.68,503.52c11.47,4.19,20.82,11,26.84,21.86,1,1.73,2.46,3.44,1.72,5.74" style="fill:none;stroke:#000;stroke-linecap:round;stroke-linejoin:round;stroke-width:2px"/><path d="M1007.76,142.8c-.24,4.14-1.56,8.1-2,12.24a71.81,71.81,0,0,0,0,18,6.14,6.14,0,0,1,0,1" style="fill:none;stroke:#000;stroke-linecap:round;stroke-linejoin:round;stroke-width:2px"/><path d="M471.84,532.32c-2.8-1.17-3.86-1-5.23,1.47a16.89,16.89,0,0,0-2.49,8.37c.05,3.79,0,7.58,1,11.28" style="fill:none;stroke:#000;stroke-linecap:round;stroke-linejoin:round;stroke-width:2px"/><path d="M525.6,491.76c-.27,3.77-.53,7.52-2.1,11.07a3.37,3.37,0,0,1-1,1.17" style="fill:none;stroke:#000;stroke-linecap:round;stroke-linejoin:round;stroke-width:2px"/></g></g></svg>
