<svg xmlns="http://www.w3.org/2000/svg" viewBox="0 0 1366 768"><g id="Layer_11" data-name="Layer 11"><path d="M570.38,129.3a9.51,9.51,0,0,1-4.17,6c-3.23,2-6.34,4.29-10.52,3.94-1.85-.15-2.34.49-2.58,2.43a21.14,21.14,0,0,0-.14,2.87c.08,4.92,3.66,6.21,7.68,4.74,2.42-.89,4.7-2.19,7.07-3.24a23.16,23.16,0,0,1,3.45-1.22c.43-.12,1,.14,1.73.28-1.29,2.58-3.39,4-5.32,5.35a20,20,0,0,1-10.62,4c-4.32.26-6.37-.74-8.28-4.54-.37-.72-.66-1.48-1.08-2.43-.86.25-1.61.46-2.35.69-2.21.72-4.4,1.47-6.62,2.17a5.27,5.27,0,0,1-4.72-.56,3.14,3.14,0,0,0-3.09-.39c-4.91,1.86-7.07,1.71-10.27-3.42a3.56,3.56,0,0,0-.73-.66,26.49,26.49,0,0,0-2.69,1.67c-2.58,2-5.66,2.73-8.76,3.26-2.62.45-4.14-.63-4.79-3.3a16.36,16.36,0,0,1,.68-10.09,40.3,40.3,0,0,1,10.3-14.68,7.59,7.59,0,0,1,8.35-1.73,3.91,3.91,0,0,1,2.38,2.12c1.53,3.45,2.46,7,1.18,10.75a29.2,29.2,0,0,1-1,3.13c-1.21,2.56-.85,5.1,0,7.59a5.23,5.23,0,0,0,1.55,2.31,3.29,3.29,0,0,0,3.72.06,9.92,9.92,0,0,0,0-2.24,16.18,16.18,0,0,1,2.39-12.57c.93-1.51,2-3,3-4.45a13.44,13.44,0,0,1,6.88-5,5.43,5.43,0,0,1,2.8-.16,2.14,2.14,0,0,1,1.29,1.38,2.48,2.48,0,0,1-.44,1.84,5.11,5.11,0,0,1-1.64,1.18,20.57,20.57,0,0,0-7.53,8.49,12.92,12.92,0,0,0-1.43,8c.38,2.56,1.68,3.8,4.16,3.39a37.77,37.77,0,0,0,6.25-1.9,2.14,2.14,0,0,0,.92-1.27,19.25,19.25,0,0,0,.6-2.81c1-6.1,4.18-10.95,8.73-14.94a9.68,9.68,0,0,1,6.3-2.67c3.24-.06,5,1,6.27,4.09C569.64,127.59,570,128.46,570.38,129.3Zm-50.31-3.25c-1.42-.28-2.29.68-3.13,1.52a35.15,35.15,0,0,0-6.81,9.6,11.31,11.31,0,0,0-1.05,8.2c.39.12.68.33.89.27,4.92-1.48,8.27-4.55,9.48-9.65.5-2.11.82-4.27,1.13-6.42C520.75,128.38,521,127.13,520.07,126.05Zm36.31,7.56c3.46-.21,6.79-1.85,8.23-4a5.53,5.53,0,0,0,.56-1.08,1.56,1.56,0,0,0-1.65-2.12,3.29,3.29,0,0,0-1.18.27A13.32,13.32,0,0,0,556.38,133.61Z"/><path d="M435.45,205.14a23.34,23.34,0,0,1-2.72-1c-1.09-.57-1.32-2.29-.28-2.66,3.75-1.36,3.55-4.39,3.51-7.47,0-3.83,0-7.67,0-11.5a10.67,10.67,0,0,1,.17-2,2.79,2.79,0,0,1,5.46-.49,14.26,14.26,0,0,1,.52,3.62c.05,3-.06,6-.05,9,0,.95.16,1.89.24,2.75,1.38.75,2.19-.09,3.05-.74,2-1.5,2-1.5,4.58-1.93a14.67,14.67,0,0,0,.22-2.25c-.07-2.87-.26-5.75-.31-8.63a11.76,11.76,0,0,1,.36-3.24,2.73,2.73,0,0,1,2.27-2.13,2.67,2.67,0,0,1,2.58,1.69,12.13,12.13,0,0,1,.85,3.16c.16,1.49.1,3,.14,4.52.1,4,.2,7.94.34,11.92a16.31,16.31,0,0,0,.34,2.23c1.28.42,1.62-.54,2.22-1a3.22,3.22,0,0,1,3.47-.53c2,.95,3.9,2,4.87,4.19A36.25,36.25,0,0,1,470.4,219a3.42,3.42,0,0,1-1.39,2.84,1.35,1.35,0,0,1-2.06-.52c-.36-1.31-.61-2.66-.87-4-.5-2.56-1-5.12-1.45-7.67a8.17,8.17,0,0,0-2-4,1.3,1.3,0,0,0-2.09.25,10.47,10.47,0,0,0-.76,2.73c-.47,3.67-.85,7.35-1.27,11a9.63,9.63,0,0,1-.37,2,2.46,2.46,0,0,1-4.28.77,9.13,9.13,0,0,1-1.44-3.76c-.5-3.25-.78-6.53-1.11-9.8s-.65-6.53-1-10.06a7.81,7.81,0,0,0-2,.38c-1.46.74-2.83,1.67-4.28,2.43a3.52,3.52,0,0,0-2.13,3.25c0,4.38-.06,8.77.15,13.15.06,1.26.92,2.48,1.45,3.82-.3,1.68-1.61,2.29-3.17,2.61a2.1,2.1,0,0,1-2.41-1.13,15.49,15.49,0,0,1-1.88-7.5c-.09-2.74-.12-5.48-.22-8.22C435.75,206.83,435.57,206,435.45,205.14Z"/><path d="M405.63,122.45c1.37-1,2.19-1.67,3.1-2.19.57-.32,1.42-.74,1.9-.54,2,.81,4.17,1.1,5.42,3.32a30.38,30.38,0,0,1,3.89,12.44c.18,2-.87,3.7-1.55,5.46a1.78,1.78,0,0,1-2,1.19c-1-.21-1.06-1.13-1-2a20.26,20.26,0,0,0-1.66-10.43,14.06,14.06,0,0,0-2.25-3.35,1.36,1.36,0,0,0-2.1.38,3.37,3.37,0,0,0-.31.76q-1.45,6.18-2.9,12.37a14.28,14.28,0,0,1-.59,2.38,2.31,2.31,0,0,1-2.23,1.53,2.27,2.27,0,0,1-2.05-1.73,27.87,27.87,0,0,1-.4-3.66c-.37-5.46-.7-10.93-1.1-16.39a12.28,12.28,0,0,0-.6-2.24,4.9,4.9,0,0,0-3.67.79c-.73.37-1.35,1.08-2.11,1.26-2.84.67-3.09,2.7-2.91,5.07.43,5.46.81,10.92,1.21,16.38.05.69.1,1.37.14,2.05a3,3,0,0,1-1.9,2.9,1.39,1.39,0,0,1-2.06-.64,21.44,21.44,0,0,1-1.23-4.32q-.92-6.93-1.56-13.88c-.22-2.47-.35-4.92-2.22-6.91,1.44-2.44,1.59-5,1.63-7.6.08-5.34.43-10.67.71-16a9.86,9.86,0,0,1,.5-2.4c.31-.93.78-1.79,1.94-1.84a2.89,2.89,0,0,1,2.92,1.86,9.56,9.56,0,0,1,.34,2.82c-.07,3-.27,6-.35,9-.05,2.45,0,4.9,0,7.63a7.81,7.81,0,0,0,2.14-.26c1.36-.63,2.62-1.5,4-2.09a3.29,3.29,0,0,0,2.17-3.56c-.16-2.59-.29-5.19-.45-7.79,0-.4-.22-.79-.25-1.2a2.55,2.55,0,0,1,2.13-2.62,1.88,1.88,0,0,1,2.21,1.4,50.89,50.89,0,0,1,1.55,7.19C404.73,111.92,405.1,116.83,405.63,122.45Z"/><path d="M609.4,214.2a7.48,7.48,0,0,0-1.76.87c-2.6,2.57-6,3.05-9.35,3.85a3.15,3.15,0,0,1-4.16-2.31,7.94,7.94,0,0,1-.43-2.81c.27-7.15,2.69-13.33,8.15-18.21a16.22,16.22,0,0,1,6.51-3.33c1.95-.58,3.83.21,5.44,1.23,4.49,2.85,6.18,9.32,3.37,13.77a11.75,11.75,0,0,0-1.67,6.58c0,9.32-.19,18.63-.34,27.94a40.5,40.5,0,0,1-.43,4.91,7.21,7.21,0,0,1-.8,2.73c-1.4,2.25-2.55,2.7-4.76,2.11a7.47,7.47,0,0,1-4.6-3.14,14.85,14.85,0,0,1-3-8.37,4.49,4.49,0,0,1,.36-2,1.91,1.91,0,0,1,1.3-.73,1.18,1.18,0,0,1,1,.55c.44,1,.71,2.06,1.1,3.08A8.23,8.23,0,0,0,608,245a1.12,1.12,0,0,0,1.69-.49,14.28,14.28,0,0,0,.39-2.83q-.06-12.94-.2-25.89A9.27,9.27,0,0,0,609.4,214.2Zm-9.51-1a12.76,12.76,0,0,0,2.66-.86c3.31-2,6.3-4.31,7.89-8,.59-1.36,1-2.79,1.53-4.19a1.9,1.9,0,0,0-1.67-2.63,5.35,5.35,0,0,0-4.16,1.33,17.39,17.39,0,0,0-6.7,13A4.67,4.67,0,0,0,599.89,213.21Z"/><path d="M412.61,224.78c-3.67,2.79-4.34,2.61-5.13-1.18-.56-2.68-1-5.39-1.47-8.08a20.66,20.66,0,0,0-.87-2.51,25,25,0,0,0-2.44,1.91c-2.84,2.86-6.42,4.1-10.25,4.77a4.39,4.39,0,0,1-5.3-3.78,13.62,13.62,0,0,1,.27-4.45,32.86,32.86,0,0,1,6.3-12.78,63.45,63.45,0,0,1,5.65-6.49c2.53-2.56,2.61-2.48,6.06-2.73.64-1.55.3-3.2.26-4.81a19.52,19.52,0,0,1,1-7.27c.34-.93.61-1.84,1.75-2a2.9,2.9,0,0,1,3,1.68,7,7,0,0,1,.47,1.57,26.63,26.63,0,0,1,.57,3.65c.27,6,.78,12-.83,17.94-.8,3-.51,6-.33,9,.1,1.64.17,3.27.29,4.91s.27,3.54.43,5.3S412.41,222.9,412.61,224.78Zm-9-28.81a51.35,51.35,0,0,0-9.38,12.09,22,22,0,0,0-1.56,5.48,1.71,1.71,0,0,0,.51,1.44,1.67,1.67,0,0,0,1.48,0,25.34,25.34,0,0,0,10-10,4.17,4.17,0,0,0,.52-1.94,38.28,38.28,0,0,0-.32-4.9C404.83,197.61,404.29,197.09,403.63,196Z"/><path d="M678.56,215.48c-.51,1.24-1,2.52-1.56,3.72a33.79,33.79,0,0,1-2.78,5,6.3,6.3,0,0,1-6,3c-1.94-1.8-2.5-4.19-2.82-6.65a61.68,61.68,0,0,1,.16-14.75,33,33,0,0,1,.86-4.85,10.31,10.31,0,0,1,1.41-2.91,1.85,1.85,0,0,1,2.13-.87,2.17,2.17,0,0,1,1.8,2c0,1.91-.11,3.82-.28,5.73-.3,3.4-.74,6.8-1,10.21a6,6,0,0,0,.7,4.21c.46-.43.93-.69,1.12-1.08a29.5,29.5,0,0,0,2.7-9.43,57.35,57.35,0,0,1,1.33-6.84,1.75,1.75,0,0,1,2.85-1.13,27.39,27.39,0,0,1,2.13,1.77c.91,4.09,1.78,8.09,2.71,12.08a29.22,29.22,0,0,0,1.15,3.94,7.45,7.45,0,0,0,1.34,2,1.35,1.35,0,0,0,2.13-.09,12.13,12.13,0,0,0,1.08-2.2,34.57,34.57,0,0,0,1.82-13.76c-.12-2.32-.2-4.65-.27-7a5.16,5.16,0,0,1,.16-1.62c.1-.34.47-.82.74-.83a2.12,2.12,0,0,1,1.42.45,2.76,2.76,0,0,1,.75,1.42c1.37,7.44,2.45,14.9-.21,22.3a30.11,30.11,0,0,1-1.89,4.08,4.86,4.86,0,0,1-1.33,1.53c-3.06,2.38-5.86,2-8-1.26a37.1,37.1,0,0,1-2.52-5.59c-.36-.84-.65-1.7-1-2.55Z"/><path d="M468.46,142.67a6.91,6.91,0,0,0-.72,4.56c.36,4.36.83,8.71,1.22,13.07a27.94,27.94,0,0,1,.19,4.08,2.28,2.28,0,0,1-2.49,2.19,2.12,2.12,0,0,1-2.21-2,104.24,104.24,0,0,1-1.58-10.93c-.34-5.6-.33-11.22-.35-16.83a26,26,0,0,1,1.4-9.69c.41-1,.64-2.11-.77-2.76a1.18,1.18,0,0,1-.38-1.78c1.48-2.52,3.33-4.62,6.3-5.53,3.72-1.14,7.56-1.09,11.37-1.26a3.84,3.84,0,0,1,2.21.89,10.59,10.59,0,0,1,2.78,13.95,58.43,58.43,0,0,1-3.21,5.25,13.46,13.46,0,0,1-7.18,5.18C473,141.7,470.81,142.1,468.46,142.67Zm-.1-8,.26,0c0,.14,0,.27,0,.41,0,2.05,1,2.85,2.75,2.05a21.54,21.54,0,0,0,9.68-8.47c2.07-3.35.17-6.67-3.77-6.82-1.5-.06-3,0-4.49,0a2,2,0,0,0-2.09,1.59C469.87,127.27,469.12,131,468.36,134.71Z"/><path d="M352.61,212.92a29.73,29.73,0,0,1-10.35,7.54,12.67,12.67,0,0,1-3.13.87c-2.29.3-3.82-.5-4.41-2.69a23.65,23.65,0,0,1-1.08-6.84,51.44,51.44,0,0,1,5.89-22,17.19,17.19,0,0,1,3.55-4.44c1.51-1.45,2.71-1.45,4.43-.28a31.68,31.68,0,0,1,2.78,2.42c.41.35.84.69,1.48,1.21a12.5,12.5,0,0,1,1.45-1.22c1.14-.71,2.21-.42,2.61.84a17.07,17.07,0,0,1,.82,4c.24,3.4.09,6.84.51,10.22.61,4.84.67,9.84,3.08,14.31a2,2,0,0,1-.59,2.58,3,3,0,0,1-3,1,2.34,2.34,0,0,1-1.13-1.09c-.64-1.21-1.15-2.48-1.71-3.73ZM339.89,217c.29,0,.62.1.82,0A23,23,0,0,0,351.22,204a9.62,9.62,0,0,0,.11-6.44,19.4,19.4,0,0,0-3.65-6.34A8.67,8.67,0,0,0,346,190c-.56.54-1.07.84-1.29,1.28-3.46,7.06-5.74,14.43-5.83,22.36C338.9,214.87,338.82,216.14,339.89,217Z"/><path d="M755.21,139.11c1.32-2,2.1-3.31,2.94-4.54,2.8-4.09,7.43-5,11.45-2.13a5,5,0,0,1,1.35,1.49,16.78,16.78,0,0,1,2.38,7.36,11,11,0,0,1-1.49,5.81c-2.25,4.52-6.38,5.71-10.63,6.82a5.29,5.29,0,0,1-5-1.2,5.15,5.15,0,0,0-4-1.5c-2,.11-2.83-.68-2.89-2.63a95.4,95.4,0,0,1,.09-11.47C750,130,751,123,751.76,115.93a6.21,6.21,0,0,1,1.6-4.1,3,3,0,0,1,2.58-1,2.86,2.86,0,0,1,1.74,2.55,14.42,14.42,0,0,1-.25,2.44q-1.2,8.94-2.43,17.89A12.34,12.34,0,0,0,755.21,139.11Zm.83,8.65a2.31,2.31,0,0,0,2.52,1.46,11.17,11.17,0,0,0,8.74-4.62,4.71,4.71,0,0,0-.08-5.77c-2.17-3-3.51-4.22-6.46-.26a13.92,13.92,0,0,0-1.06,1.74c-.83,1.57-1.64,3.14-2.43,4.73C756.8,146,756.4,147,756,147.76Z"/><path d="M620.83,127.1l3.54,2c.88,3.67,1.78,7.52,2.72,11.37a14.13,14.13,0,0,0,3.33,6.51c1.74,1.83,3.35,1.85,4.75-.18a14,14,0,0,0,2.17-4.36,31.48,31.48,0,0,0-.08-14,5.61,5.61,0,0,0-.92-.54c-.61-.19-1.47.08-1.7-.78a1.69,1.69,0,0,1,1-2,12.9,12.9,0,0,1,2.54-.63c4,4.17,4.74,9,4.19,14.25a28.28,28.28,0,0,1-3.52,10.85c-1.86,3.34-7.49,4.41-10.41,1.92a22.92,22.92,0,0,1-3.42-4c-.8-1.07-1.42-2.27-2.35-3.8-.62.85-1,1.33-1.36,1.85-.91,1.35-1.78,2.74-2.72,4.08a5.06,5.06,0,0,1-3.49,1.94,3.94,3.94,0,0,1-4-1.43,15.09,15.09,0,0,1-3.62-9c-.16-3.41,0-6.84,0-10.26a4.27,4.27,0,0,1,2.67-3.82,1.67,1.67,0,0,1,2.16.58,5.91,5.91,0,0,1,.7,4.73,20.47,20.47,0,0,0-.51,7.75,22.93,22.93,0,0,0,1.18,4.75c.24.68,1,1.18,1.48,1.71,1.67-.66,2.08-1.94,2.44-3.3a46.43,46.43,0,0,0,1.89-11.72C619.48,130,619.25,128.4,620.83,127.1Z"/><path d="M541.29,206.23a20.2,20.2,0,0,0-1.25,2.53c-1.1,3.8-2.75,7.48-2.61,11.56a4.23,4.23,0,0,1-.32,1.6,2.73,2.73,0,0,1-2.67,1.56,2.36,2.36,0,0,1-2.26-1.5,11.42,11.42,0,0,1-.5-2.81c-.45-4.91-.83-9.82-1.29-14.73-.52-5.45-1.1-10.9-1.64-16.36-.15-1.5-.25-3-.37-4.5a11.37,11.37,0,0,1-.1-1.64,2.67,2.67,0,0,1,5.27-.78,19.66,19.66,0,0,1,.61,3.22c.45,4,.83,7.91,1.27,11.86.23,2,.54,4,.87,6.51a17.12,17.12,0,0,0,1.84-1.22c2.82-2.48,6-2.1,7.8,1.21a44.27,44.27,0,0,1,2.66,6.44c1.23,3.37,1.46,6.95,2,10.46a4.51,4.51,0,0,1-.11,1.63,2.48,2.48,0,0,1-2.47,1.77,1.73,1.73,0,0,1-1.66-1.54c-.29-1.2-.45-2.43-.77-3.62-.78-2.9-1.57-5.81-2.48-8.68A17,17,0,0,0,541.29,206.23Z"/><path d="M788.68,219.22a9.24,9.24,0,0,1-1.17,1.58A23.71,23.71,0,0,1,775,226.56c-2.16.24-4.28,1.16-6.5.52a20.67,20.67,0,0,1-2.69-.89,5,5,0,0,1-3.09-4.88,21,21,0,0,1,2.38-10.71c1.67-3.13,3.77-6,5.69-9a14.49,14.49,0,0,1,10.86-6.87c.8.73,1.71,1.53,2.6,2.37,2.93,2.78,3.32,6.67.48,9.41-3.13,3-6.32,6.2-11.12,6.43a2.88,2.88,0,0,0-.4.09c-3.87.83-5.28,2.68-5,6.61a2.82,2.82,0,0,0,2.49,2.81c2.52.47,4.88-.23,7.26-.95,2.74-.83,5.53-1.53,8.31-2.22A11.6,11.6,0,0,1,788.68,219.22Zm-15.55-11.05a19,19,0,0,0,6.7-4.66,5.61,5.61,0,0,0,1.18-2.1,1.62,1.62,0,0,0-.47-1.4,1.45,1.45,0,0,0-1.43.08c-1.77,1.89-3.46,3.85-5.12,5.84A10.33,10.33,0,0,0,773.13,208.17Z"/><path d="M883.69,206c1.38-1.56,2.12-2.54,3-3.36A9.18,9.18,0,0,1,889,201a2.38,2.38,0,0,1,2.65.5,14.81,14.81,0,0,1,4.52,7.17,20.33,20.33,0,0,1,.79,4c.3,3,.54,6,.68,9a18.2,18.2,0,0,1-1.18,7.65,4.78,4.78,0,0,1-1,1.76,2.6,2.6,0,0,1-1.76.62c-.33,0-.81-.74-.88-1.19a15.46,15.46,0,0,1-.13-3.26c.36-5.51-.53-10.92-1.16-16.34a4.23,4.23,0,0,0-1.54-3.36c-1.69.24-2.43,1.61-2.91,3a65.28,65.28,0,0,0-2.3,7.85c-.73,3.47-1.19,7-1.73,10.52a2.77,2.77,0,0,1-1.8,2.49,2.27,2.27,0,0,1-3.16-1.66,11.76,11.76,0,0,1-.19-2.44q0-11.07,0-22.14a18.17,18.17,0,0,1,.24-2.85,5.53,5.53,0,0,1,.67-1.9c.49-.83,1.24-1.7,2.26-1.36a3.27,3.27,0,0,1,1.57,1.71,9.13,9.13,0,0,1,.46,2.39Z"/><path d="M339,102a10.85,10.85,0,0,0-6.43-.15c-.66.15-1.29.45-2,.57a1.85,1.85,0,0,1-2.06-2,3.73,3.73,0,0,1,2-3.34,12.87,12.87,0,0,1,2.7-.93,15.27,15.27,0,0,1,3.65-.54,82.52,82.52,0,0,0,14.31-.92,4.8,4.8,0,0,1,5.41,2.83c-1.26,2.42-3.08,3.8-5.86,3.74a16.83,16.83,0,0,0-2.46.14c-2.61.29-3.39.87-3.66,3.52-.43,4.22-.76,8.47-.88,12.71-.2,6.84-.19,13.68-.27,20.53a22.88,22.88,0,0,1,0,2.87,4.06,4.06,0,0,1-.79,1.82,1.72,1.72,0,0,1-3-.33,6.15,6.15,0,0,1-.46-1.57c-.21-1.63-.46-3.26-.55-4.9a215.33,215.33,0,0,1,0-22.15c.15-2.6.39-5.19.57-7.78A8,8,0,0,0,339,102Z"/><path d="M824.43,157.11a3.69,3.69,0,0,1-2.22-3.77c0-4.23-.13-8.47-.23-12.7-.06-2.32-.2-4.64-.27-7a13.53,13.53,0,0,1,.09-2.85,2.24,2.24,0,0,1,2-1.78,2,2,0,0,1,2.26,1.37c.48,1.41.83,2.86,1.36,4.69a17.93,17.93,0,0,0,1.74-1.92c.6-.91,1-2,1.6-2.86a4.67,4.67,0,0,1,7.66-.64,13,13,0,0,1,3.91,9.19,74.28,74.28,0,0,1-1.79,16.27,4.82,4.82,0,0,1-3.06,3.51,1.39,1.39,0,0,1-1.89-1,6.34,6.34,0,0,1-.2-1.61,33.08,33.08,0,0,1,1.68-9.62c1.39-3.75.68-7.56-.9-11.16a1.77,1.77,0,0,0-3.25-.06,36.33,36.33,0,0,0-2.38,6.08c-1.06,4-2,8-2.75,12C827.43,155.21,826.66,156.57,824.43,157.11Z"/><path d="M665.75,124.56l.92.73a6.23,6.23,0,0,1,2.4,5.35,8.4,8.4,0,0,1-2.83,6.15,19.87,19.87,0,0,1-8.8,5,21.27,21.27,0,0,0-3.13.94,1.93,1.93,0,0,0-1.21,2,4.56,4.56,0,0,0,3,4.41,12.52,12.52,0,0,0,7.67.41c2.61-.74,5.34-1.27,7.56-3a3.91,3.91,0,0,1,1.07-.42c.92.55.64,1.24.17,1.71a20.56,20.56,0,0,1-9.07,5.39,22.25,22.25,0,0,1-9.78.14,6.14,6.14,0,0,1-5.32-5c-.27-1.2-.62-2.39-.82-3.6a4,4,0,0,0-2.23-3.16c-1.1-.57-1-1.94,0-2.16,2.76-.56,3.92-2.55,5.17-4.78a28,28,0,0,1,6-7.26,8.51,8.51,0,0,1,5.82-2.57C663.6,124.76,664.81,124.62,665.75,124.56Zm-9.13,11.79c5-1.25,6.8-3.27,6.36-6.66-1.25-.21-2.05.58-2.8,1.35C658.78,132.48,657.11,133.75,656.62,136.35Z"/><path d="M856.46,216.61c-.23,1.47-.49,2.52-.54,3.57-.17,4.27,1.73,6.32,6.78,5.86a34.68,34.68,0,0,0,11.74-3.5c.47-.23,1-.4,1.36-.56a.88.88,0,0,1,.15,1.5c-3.21,3.68-7.42,5.52-12.11,6.35a24.12,24.12,0,0,1-4.5.22,9,9,0,0,1-8.92-9.29,22.82,22.82,0,0,1,6.05-14.89c1.12-1.2,2.37-2.28,3.51-3.46a9.47,9.47,0,0,1,5.06-2.56,6.63,6.63,0,0,1,7.6,4.11,7.28,7.28,0,0,0,.38,1.17c1.62,2.4.86,4.24-1,6.14-3.52,3.49-7.91,4.71-12.58,5.33A27.67,27.67,0,0,1,856.46,216.61Zm3.8-6.21a4.63,4.63,0,0,0,4.44-.4c1.65-.84,3.39-1.68,4.17-3.79l-1.94-2.07C864.11,205.74,861.53,207.29,860.26,210.4Z"/><path d="M572.11,199.25c.36-.3.77-.62,1.16-1,2.12-1.89,4-2,6.16-.27a10.86,10.86,0,0,1,3.49,5.44,71.31,71.31,0,0,1,2.81,13.65c.28,2.69.41,5.45,2.19,8a7.9,7.9,0,0,1-1.72,1.22c-1.64.58-2.4.35-2.93-1.19a57.74,57.74,0,0,1-2-7.09c-.49-2.27-.62-4.61-1.07-6.9-.49-2.52-1.08-5.05-2.87-7.16a3,3,0,0,0-1.65,2.74c-.57,4.61-1.88,9.14-1.62,13.83.1,2-.91,3-2.48,3.84a1.9,1.9,0,0,1-2.73-.94,12.64,12.64,0,0,1-.61-2.79c-.6-5.45-1.15-10.89-1.73-16.33-.16-1.5-.41-3-.52-4.49-.15-2.14.49-3.38,1.78-3.73s2.28.16,3.45,2.12c.13.23.24.48.39.71S571.84,199.06,572.11,199.25Z"/><path d="M372,127.29a15.72,15.72,0,0,1-6.42,12.79c-2.26,1.72-5,2.17-7.63,2.71a5.25,5.25,0,0,1-4.76-1.92,11,11,0,0,1-3-7.43A27.69,27.69,0,0,1,357,114.23a11.79,11.79,0,0,1,1.82-1.64,2.7,2.7,0,0,1,2.73-.37,57,57,0,0,1,5.9,2.82,7.06,7.06,0,0,1,3.17,4.62C371.18,122.18,371.54,124.74,372,127.29Zm-6.2.37c.06-3.16,0-5.47-1.07-7.62-1.57-3.13-3.23-3.36-5.52-.71a5.25,5.25,0,0,0-.82,1.39c-.64,1.5-1.29,3-1.85,4.54a21.86,21.86,0,0,0-.9,8.88,5,5,0,0,0,.23,1.2A3.18,3.18,0,0,0,361,137.1C364.39,134.53,366.2,131.18,365.79,127.66Z"/><path d="M719.94,141.77a15.47,15.47,0,0,1,2.06-2.14c1.49-1,3.17-1.67,4.56-2.75a15.3,15.3,0,0,0,3-3.3,1.59,1.59,0,0,0-.41-2.21,2.4,2.4,0,0,0-1.87-.3,7.1,7.1,0,0,0-2.41,1.49,21.38,21.38,0,0,0-2.81,3c-2.39,3.15-4.72,6.36-7,9.57a10.76,10.76,0,0,0-1.2,2.15c-.52,1.24-.94,2.52-1.44,3.88a6.64,6.64,0,0,0,6.58,1.49c3.12-1,6.4-1.41,9.37-2.92,1.47-.74,1.55-.6,4.81-.23-.09.39-.05.89-.28,1.11-3.77,3.59-8.07,6.07-13.42,6.35-1.63.08-3.26.38-4.89.46-3.55.18-5.72-1.24-7-4.46a4.86,4.86,0,0,1-.2-3.61,19.77,19.77,0,0,1,1.92-4.52c3.24-4.55,5.93-9.54,10.09-13.4,1.4-1.29,2.93-2.45,4.43-3.63a7,7,0,0,1,5.07-1.19,3.82,3.82,0,0,1,3.32,2.09,12.83,12.83,0,0,0,1.15,2.17c1.77,2.26,1.17,4.52-.38,6.38a15.56,15.56,0,0,1-4.73,3.81,20.16,20.16,0,0,1-5.52,1.4C722,142.54,721.36,142.15,719.94,141.77Z"/><path d="M449.62,137.68a15.25,15.25,0,0,1-4,3.54c-5.71,3.5-12,4.33-18.54,3.82a3.89,3.89,0,0,1-3.74-3.25,15.76,15.76,0,0,1-.3-4.44,15.22,15.22,0,0,1,2.54-6.87A57.61,57.61,0,0,1,435,119.12a9.26,9.26,0,0,1,5.09-2.43c3.27-.49,5.5,1.73,5.11,5.09-.47,4.15-2.93,7.08-6.21,9.18-2.59,1.66-5.21,3.67-8.39,3.13a6,6,0,0,0-2.23,4.17c-.11,1.49.47,2.48,2,2.53a29.42,29.42,0,0,0,6.08-.4c2.15-.38,4.22-1.14,6.33-1.69A34.5,34.5,0,0,1,449.62,137.68Zm-15.25-10.33a10.49,10.49,0,0,0,2.12-.9c1-.89,2-1.83,3-2.81.36-.36.66-.89-.23-1.39A17.91,17.91,0,0,0,434.37,127.35Z"/><path d="M362.28,189.55c2.51.81,2.66,3.3,4.18,4.77,1.25-.54,1.07-1.78,1.37-2.73,1.19-3.75,3.88-4.84,7.27-2.88,2.77,1.59,4.32,4.22,5.36,7.06,1.84,5,3.43,10.11,3.61,15.53a14.37,14.37,0,0,0,.77,3.17c.41,1.46.14,2.36-.87,2.71a2.43,2.43,0,0,1-3.17-1.07,10.62,10.62,0,0,1-.67-2.36c-.49-2.55-.8-5.15-1.42-7.67-.7-2.78-1.6-5.52-2.53-8.23a6.84,6.84,0,0,0-3.53-4.2c-1.49.45-1.48,1.71-1.63,2.71a54.52,54.52,0,0,0-.66,14.32,24.14,24.14,0,0,1,.25,3.28,2.85,2.85,0,0,1-2.13,2.71,1.8,1.8,0,0,1-2.22-.52,8.26,8.26,0,0,1-1.21-2.12,11.24,11.24,0,0,1-.74-2.77,117,117,0,0,0-4.05-18.43C359.79,191.13,360.83,190.31,362.28,189.55Z"/><path d="M696.46,146.77a7.41,7.41,0,0,0,1.83-3.88c.79-4.49,2.53-8.67,4.21-12.86.41-1,.69-2.08,1.1-3.1a7.31,7.31,0,0,1,.95-1.79,2.23,2.23,0,0,1,3.76.41,5.33,5.33,0,0,1,0,4.75c-.93,2.28-1.76,4.59-2.68,6.88a57.33,57.33,0,0,0-3.67,14.29,3.85,3.85,0,0,1-.35,1.58,3,3,0,0,1-1.46,1.28,7.24,7.24,0,0,1-7.84-3,14.19,14.19,0,0,1-2.38-6.07,100.87,100.87,0,0,1,0-18.06,3.61,3.61,0,0,1,1.17-2.54c1.62-1.45,3-1.23,3.8.8a9.32,9.32,0,0,1,.72,3.15,27.06,27.06,0,0,1-.2,4.93c-.54,3.85.1,7.65.43,11.46A9,9,0,0,0,696.46,146.77Z"/><path d="M721.3,217.57c-3,3.22-6.81,4-10.57,4.72a10.17,10.17,0,0,1-7.39-1.8,4.88,4.88,0,0,1-1.46-1.4c-.93-1.35-1.15-6.55-.38-8A42.76,42.76,0,0,1,709.73,200a21.51,21.51,0,0,1,5.81-3.78c3.88-1.73,7.53.67,7.86,4.93a8.66,8.66,0,0,1-2,6.47c-2.25,2.65-4.89,4.81-8.48,5.37-1.49.23-3,.32-4.46.6a3,3,0,0,0-1.67.88,2.07,2.07,0,0,0,.42,2.62,5.15,5.15,0,0,0,2.15,1c3.39.51,6.79,1,10.09-.52a3.94,3.94,0,0,1,1.2-.24C720.72,217.32,720.86,217.42,721.3,217.57ZM710.7,208c2.79-.12,4.39-1.82,5.94-3.38.76-.77,1.54-2,.6-3.26-1.66-.29-2.44,1-3.35,1.9C712.6,204.51,711.07,205.67,710.7,208Z"/><path d="M499.44,215c-.37.87-.45,1.47-.8,1.78a25.09,25.09,0,0,1-17.95,6.86,12.74,12.74,0,0,1-2-.23,5,5,0,0,1-4.15-4,12.41,12.41,0,0,1-.28-3.27c.17-3.84.62-7.59,2.86-11,1.6-2.38,2.81-5,4.9-7.06a20.66,20.66,0,0,1,3.14-2.63,5,5,0,0,1,6.38.75,5.21,5.21,0,0,1,.67,6.4,14.38,14.38,0,0,1-7.93,6.2c-1.53.48-2.91,1.08-3.54,2.53a9.81,9.81,0,0,0-.63,6,2.27,2.27,0,0,0,1,1.19,4.49,4.49,0,0,0,3.93.55c2.74-.89,5.5-1.7,8.17-2.75A27.61,27.61,0,0,1,499.44,215Z"/><path d="M491.61,123.75c.4-5.18.85-10.36,1.19-15.55.18-2.73.13-5.47.28-8.2a4.2,4.2,0,0,1,.71-2.26,2.81,2.81,0,0,1,4.32,0,4.75,4.75,0,0,1,1.15,3.81c-.24,3.27-.36,6.57-.78,9.82-1.61,12.3-1.05,24.58.26,36.86.06.55.17,1.09.18,1.63a2.51,2.51,0,0,1-2.88,2.66,2.18,2.18,0,0,1-1.51-1.14,24.74,24.74,0,0,1-1.18-4.33A112.67,112.67,0,0,1,491.61,123.75Z"/><path d="M816.86,131.77c.11.22.22.47.36.71,1.69,2.79.83,5.27-1.12,7.45a16.12,16.12,0,0,1-6.19,4.59,9,9,0,0,1-4.39.82,14,14,0,0,0-2-.1c-1.48.07-2.25.61-2.53,1.66a3.13,3.13,0,0,0,1.4,3.9,9.11,9.11,0,0,0,5.52,1.2,27.79,27.79,0,0,0,8.65-2.44c1.21-.56,2.37-1.43,3.85-1.13a1.36,1.36,0,0,1-.21,2.13,22.43,22.43,0,0,1-4.06,2.74,27.55,27.55,0,0,1-12.33,2.59c-5.34.05-10.61-6.54-7.13-12.44,2.3-3.92,4.78-7.65,8.34-10.55a4,4,0,0,1,.3-.28C808.8,129.88,812.46,128.58,816.86,131.77Zm-11.28,8.07a7.49,7.49,0,0,0,4.74-1.48,11.78,11.78,0,0,0,2.38-2.19,1.47,1.47,0,0,0,0-1.42c-.28-.31-.95-.29-1.45-.39a.57.57,0,0,0-.37.15C808.9,136,806.9,137.39,805.58,139.84Z"/><path d="M811.3,224.26c1.31-1.6,1.56-1.72,2.59-1.13s1.78,1.11,3.06,1.91c.12-1.06.42-1.78.21-2.26a22.15,22.15,0,0,0-2.36-4.27,30.07,30.07,0,0,1-4.17-8.44c-1.9-5.31.9-12.77,6.1-16.25,2.8-1.88,5.61-2.21,8.69.41a11.25,11.25,0,0,1,4.1,6c.75,3.2.06,4.14-3.7,5-.18-.6-.38-1.21-.53-1.84a13.12,13.12,0,0,0-.57-2.38c-.73-1.52-1.81-2.91-3.58-3.05-1.5-.13-2.34,1.19-3.17,2.3-2.73,3.64-3.26,7.46-1,11.5,1.28,2.26,2.64,4.48,3.92,6.74a18.64,18.64,0,0,1,1.82,3.66,12.19,12.19,0,0,1,.5,4c-.11,2.29-1.16,3.16-3.42,3.17C816,229.37,813,227.86,811.3,224.26Z"/><path d="M510.39,206.69c1-1.8,2.27-3.13,2.5-4.62a70.83,70.83,0,0,0,.46-9c0-1.09-.15-2.18-.17-3.28a11.69,11.69,0,0,1,.16-2.44c.36-1.9,1.09-2.48,3.12-2.51a10.22,10.22,0,0,1,1.75.34,16.35,16.35,0,0,1,1.19,7.18c-.07,1.64-.2,3.28-.2,4.92a17.79,17.79,0,0,0,.42,2.63c.82-.21,1.45-.32,2-.53a34.11,34.11,0,0,1,3.82-1.36,2.56,2.56,0,0,1,3,1.58,2.43,2.43,0,0,1-1.43,3,55.17,55.17,0,0,1-5.94,2.77,2.93,2.93,0,0,0-2.15,3.09c0,4.79,0,9.59,1.9,14.14a3.81,3.81,0,0,1,.38,1.57,2.24,2.24,0,0,1-.57,1.44,3.1,3.1,0,0,1-4.62-.63,17.71,17.71,0,0,1-1.78-4.55,44.63,44.63,0,0,1-.69-6.11C513.36,211.37,513.84,208.15,510.39,206.69Z"/><path d="M749.48,215.28c.67-2.13,1.08-3.54,1.57-4.93s1-2.83,1.59-4.23c1-2.53,2-5.07,3.15-7.55a11.44,11.44,0,0,1,1.85-2.66,1.64,1.64,0,0,1,2.19-.51,3.33,3.33,0,0,1,1.44,1.83,8.89,8.89,0,0,1-.85,5.17c-1.41,3.26-2.85,6.51-4.06,9.84a33.29,33.29,0,0,0-2.37,9.09,2.79,2.79,0,0,1-4,2.14,11.09,11.09,0,0,1-7.08-9.68c-.5-4.82,0-9.55.44-14.31a4.49,4.49,0,0,1,2.09-3.37,2.12,2.12,0,0,1,3.3,1.14,11.32,11.32,0,0,1,.19,3.24c-.19,3.14-.5,6.27-.68,9.41C748.11,212.35,748.16,212.35,749.48,215.28Z"/><path d="M851.53,206.28a5.47,5.47,0,0,1-3.49,4.17c-2.37,1-4.76,2.21-7.43,2.08-2.1-.1-3.21,1-4.22,2.64a9.93,9.93,0,0,0-1.9,5.73,3.55,3.55,0,0,0,3.08,3.76c3.09.6,6.21,1.13,9.19-.53a4.17,4.17,0,0,1,1.14-.45c.55-.12,1.15-.07,1.26.62a1.27,1.27,0,0,1-.4,1,14.7,14.7,0,0,1-6,2.61,47,47,0,0,1-4.88.56c-6,.39-9.89-4-8.71-10.37a51.58,51.58,0,0,1,2.3-6.81l-2.51-1.5c.1-.3.12-.64.29-.75a2.11,2.11,0,0,1,1.13-.39c3,.25,5.18-1.16,7.2-3.21a11.83,11.83,0,0,1,4.72-3.15C847,200.79,849.23,201.69,851.53,206.28Z"/><path d="M796.31,135.87c0,3.9-2.13,6-4.93,7.41a33.05,33.05,0,0,1-5,1.8c-1.28.4-2.6.7-4,1.07a3.22,3.22,0,0,0,2.53,3.44,47.59,47.59,0,0,0,5.22,1c.92.15,1.85.26,2.89.4-.11.56-.07,1.16-.27,1.26-3.29,1.59-6.7,2.27-10.31,1.13a7.66,7.66,0,0,1-5.11-4.39c-.74-1.75-1.34-3.56-2-5.31,1-1.93,1.9-3.81,3-5.49,3.05-4.51,7.12-7.05,12.82-6.34,1.89.24,3.44.78,4.25,2.67A9.65,9.65,0,0,0,796.31,135.87Zm-12.82,4.6c2.94-.3,5.1-1,6.52-2.2a1.21,1.21,0,0,0,.38-1,1.14,1.14,0,0,0-.84-.63,6.11,6.11,0,0,0-5.67,2.4A4,4,0,0,0,783.49,140.47Z"/><path d="M584.9,147.57c-.59-2-1.94-3.16-3-4.53-1.33-1.73-2.7-3.44-4-5.22a12.77,12.77,0,0,1-1.26-2.57c-1.74-4.38-.33-7.77,3.73-10.57.78-.54,1.78-.77,2.55-1.32,2.54-1.82,5.18-1.34,7.83-.41a4.87,4.87,0,0,1,1.68,1.09,2,2,0,0,1-.33,3.19,4,4,0,0,1-3.5.53c-2.75-.58-4.73.82-6.46,2.73a2.57,2.57,0,0,0-.51,3,23.07,23.07,0,0,0,2.11,3.5c1.23,1.64,2.66,3.13,3.89,4.77a26,26,0,0,1,2.9,4.44,4.25,4.25,0,0,1-1.94,5.6,7.73,7.73,0,0,1-11.38-3.51,2.36,2.36,0,0,1,1.17-3.24C580.59,145.43,581.83,148.63,584.9,147.57Z"/><path d="M631,214.26c-.8-1.22-1.23-2-1.81-2.74-3.31-4-4-8.29-1.35-12.86,1.91-3.3,3.74-6.71,7.13-8.81a3.86,3.86,0,0,1,1.8-.85,3.59,3.59,0,0,1,2.16.8,1.63,1.63,0,0,1,.15,2.25c-.83,1.08-1.75,2.09-2.65,3.11a18.65,18.65,0,0,0-4,6.09,6.62,6.62,0,0,0,1.1,6.54,35.17,35.17,0,0,0,3.14,3.21c2.6,2.7,2.18,5.05-1.25,6.77a14.73,14.73,0,0,1-7.87,1.86,5,5,0,0,1-1.89-.62,1.33,1.33,0,0,1-.27-2.11,7.69,7.69,0,0,1,2-1.38C628.27,215.07,629.33,214.81,631,214.26Z"/><path d="M553.4,201.6a34.87,34.87,0,0,1,.84-3.74,2.28,2.28,0,0,1,2.51-1.65,2.32,2.32,0,0,1,1.89,1.91,17.9,17.9,0,0,1,.37,2.42c.54,5.42,1.06,10.84,1.59,16.26,0,.54.09,1.09.09,1.63,0,1.82-.47,2.53-1.78,2.74-2,.34-3.23-.34-3.63-2.27-.35-1.73-.56-3.5-.74-5.26C554.15,209.85,553.82,206.05,553.4,201.6Z"/><path d="M677.46,111.91l3.2-2.1a4.83,4.83,0,0,1,2,4.29,11,11,0,0,1-.48,3.24,45.35,45.35,0,0,0-2,11.72,8.29,8.29,0,0,1-.14,1.22,1.93,1.93,0,0,1-1.57,1.69c-1,.17-1.48-.52-1.77-1.34a19.41,19.41,0,0,1-.85-8.94C676.26,118.44,676.92,115.21,677.46,111.91Z"/><path d="M735.27,185.3c2.39,1.93,2.67,2.54,1.92,4.8-.53,1.55-1.16,3.07-1.84,4.57a22.9,22.9,0,0,0-2.29,7,3.7,3.7,0,0,1-.18.8c-.33,1-1.41,1.76-2.16,1.44-.91-.38-1-1.22-1-2A40.54,40.54,0,0,1,731.83,189,5,5,0,0,1,735.27,185.3Z"/><path d="M862.49,156.3a11.3,11.3,0,0,1-1.37,2.86,54.92,54.92,0,0,1-4.87,4.9,3.94,3.94,0,0,1-1.86.69,1.43,1.43,0,0,1-1.6-1.78,16.71,16.71,0,0,1,1-2.18c1.19-2.28,2.42-4.55,3.58-6.84a2.56,2.56,0,0,1,2.48-1.76,2.79,2.79,0,0,1,2.41,2.41C862.38,155,862.39,155.4,862.49,156.3Z"/><path d="M558.89,186.34c.14,1.69-2,3.48-3.25,2.94a2.24,2.24,0,0,1-.68-3.47,2.56,2.56,0,0,1,3.36-.32A2.64,2.64,0,0,1,558.89,186.34Z"/><path d="M906.7,232c-.26-.28-.91-.66-1-1.17a2,2,0,0,1,1.42-2.5c.79-.06,1.66.87,1.75,1.89S908.12,231.94,906.7,232Z"/><path d="M520.07,126.05c.93,1.08.68,2.33.51,3.52-.31,2.15-.63,4.31-1.13,6.42-1.21,5.1-4.56,8.17-9.48,9.65-.21.06-.5-.15-.89-.27a11.31,11.31,0,0,1,1.05-8.2,35.15,35.15,0,0,1,6.81-9.6C517.78,126.73,518.65,125.77,520.07,126.05Z" style="fill:#fff"/><path d="M556.38,133.61a13.32,13.32,0,0,1,6-6.88,3.29,3.29,0,0,1,1.18-.27,1.56,1.56,0,0,1,1.65,2.12,5.53,5.53,0,0,1-.56,1.08C563.17,131.76,559.84,133.4,556.38,133.61Z" style="fill:#fff"/><path d="M599.89,213.21a4.67,4.67,0,0,1-.45-1.33,17.39,17.39,0,0,1,6.7-13,5.35,5.35,0,0,1,4.16-1.33,1.9,1.9,0,0,1,1.67,2.63c-.5,1.4-.94,2.83-1.53,4.19-1.59,3.67-4.58,6-7.89,8A12.76,12.76,0,0,1,599.89,213.21Z" style="fill:#fff"/><path d="M403.63,196c.66,1.12,1.2,1.64,1.28,2.22a38.28,38.28,0,0,1,.32,4.9,4.17,4.17,0,0,1-.52,1.94,25.34,25.34,0,0,1-10,10,1.67,1.67,0,0,1-1.48,0,1.71,1.71,0,0,1-.51-1.44,22,22,0,0,1,1.56-5.48A51.35,51.35,0,0,1,403.63,196Z" style="fill:#fff"/><path d="M468.36,134.71c.76-3.72,1.51-7.44,2.3-11.16a2,2,0,0,1,2.09-1.59c1.5,0,3-.09,4.49,0,3.94.15,5.84,3.47,3.77,6.82a21.54,21.54,0,0,1-9.68,8.47c-1.78.8-2.79,0-2.75-2.05,0-.14,0-.27,0-.41Z" style="fill:#fff"/><path d="M339.89,217c-1.07-.9-1-2.17-1-3.37.09-7.93,2.37-15.3,5.83-22.36.22-.44.73-.74,1.29-1.28a8.67,8.67,0,0,1,1.65,1.14,19.4,19.4,0,0,1,3.65,6.34,9.62,9.62,0,0,1-.11,6.44A23,23,0,0,1,340.71,217C340.51,217.14,340.18,217,339.89,217Z" style="fill:#fff"/><path d="M756,147.76c.36-.79.76-1.77,1.23-2.72.79-1.59,1.6-3.16,2.43-4.73a13.92,13.92,0,0,1,1.06-1.74c3-4,4.29-2.77,6.46.26a4.71,4.71,0,0,1,.08,5.77,11.17,11.17,0,0,1-8.74,4.62A2.31,2.31,0,0,1,756,147.76Z" style="fill:#fff"/><path d="M773.13,208.17a10.33,10.33,0,0,1,.86-2.24c1.66-2,3.35-4,5.12-5.84a1.45,1.45,0,0,1,1.43-.08,1.62,1.62,0,0,1,.47,1.4,5.61,5.61,0,0,1-1.18,2.1A19,19,0,0,1,773.13,208.17Z" style="fill:#fff"/><path d="M656.62,136.35c.49-2.6,2.16-3.87,3.56-5.31.75-.77,1.55-1.56,2.8-1.35C663.42,133.08,661.59,135.1,656.62,136.35Z" style="fill:#fff"/><path d="M860.26,210.4c1.27-3.11,3.85-4.66,6.67-6.26l1.94,2.07c-.78,2.11-2.52,2.95-4.17,3.79A4.63,4.63,0,0,1,860.26,210.4Z" style="fill:#fff"/><path d="M365.79,127.66c.41,3.52-1.4,6.87-4.76,9.44a3.18,3.18,0,0,1-5.17-1.76,5,5,0,0,1-.23-1.2,21.86,21.86,0,0,1,.9-8.88c.56-1.54,1.21-3,1.85-4.54a5.25,5.25,0,0,1,.82-1.39c2.29-2.65,3.95-2.42,5.52.71C365.81,122.19,365.85,124.5,365.79,127.66Z" style="fill:#fff"/><path d="M434.37,127.35a17.91,17.91,0,0,1,4.88-5.1c.89.5.59,1,.23,1.39-1,1-2,1.92-3,2.81A10.49,10.49,0,0,1,434.37,127.35Z" style="fill:#fff"/><path d="M710.7,208c.37-2.3,1.9-3.46,3.19-4.74.91-.92,1.69-2.19,3.35-1.9.94,1.29.16,2.49-.6,3.26C715.09,206.15,713.49,207.85,710.7,208Z" style="fill:#fff"/><path d="M805.58,139.84c1.32-2.45,3.32-3.86,5.26-5.33a.57.57,0,0,1,.37-.15c.5.1,1.17.08,1.45.39a1.47,1.47,0,0,1,0,1.42,11.78,11.78,0,0,1-2.38,2.19A7.49,7.49,0,0,1,805.58,139.84Z" style="fill:#fff"/><path d="M783.49,140.47a4,4,0,0,1,.39-1.46,6.11,6.11,0,0,1,5.67-2.4,1.14,1.14,0,0,1,.84.63,1.21,1.21,0,0,1-.38,1C788.59,139.45,786.43,140.17,783.49,140.47Z" style="fill:#fff"/></g></svg>
