<svg xmlns="http://www.w3.org/2000/svg" viewBox="0 0 1366 768"><g id="Layer_7" data-name="Layer 7"><g id="behind"><path d="M797.6,456a172.73,172.73,0,0,0-24.71,1q-18.5,2.07-36.75,5.85c-12.09,2.52-24.15,5.16-36.23,7.71-11.51,2.43-23,4.88-34.56,7.18q-16.7,3.33-33.33,6.86c-9.72,2.06-19.39,4.37-29.09,6.53-12.77,2.84-25.49,5.92-38.1,9.33C547,505.31,529.34,510.77,512,517.18c-13.77,5.1-27.3,10.73-40.58,17-5.74,2.71-11.25,5.83-17,8.48-.78.36-1.41,1.18-2.41.59" style="fill:none;stroke:#000;stroke-linecap:round;stroke-linejoin:round;stroke-width:2px"/><path d="M809.6,472.56c-2.94-.25-5.78.59-8.63,1-9.62,1.44-19.25,3-28.8,4.8-7.28,1.4-14.58,2.84-21.87,4.14q-15.16,2.72-30.2,6-21.44,4.67-42.77,9.83-19.59,4.71-39.06,9.85c-11,2.91-22,6.25-32.94,9.37-19.34,5.51-38.41,11.83-57.57,17.9-4,1.25-7.84,2.7-11.76,4.06a9,9,0,0,1-3.36.72" style="fill:none;stroke:#000;stroke-linecap:round;stroke-linejoin:round;stroke-width:2px"/><path d="M647.6,452.4c-2,1.86-4.51,1.88-7,1.9-8.48.06-17,.32-25.43-.09-5.44-.26-10.9-.72-16.34-1.2-7.28-.65-14.69-1.19-21.83,1.32-5.49,1.94-9.52,5.74-13,10.3s-7.94,6.39-13.41,7c-5.85.69-11.69.17-17.53.41-12.8.54-25.6.26-38.4.58-7.12.19-14.24.26-21.36.4a8.65,8.65,0,0,1-6.22-2.2c-6.2-5.69-13.81-7.69-21.86-8.62a109.61,109.61,0,0,0-13.68-.48" style="fill:none;stroke:#000;stroke-linecap:round;stroke-linejoin:round;stroke-width:2px"/><path d="M424.64,395.76c4.15-.51,7.59-2.79,11-4.87,4.93-3,9.15-6.8,10.35-12.89a42.6,42.6,0,0,0,.69-10.8c-.33-5.36-.13-10.72-.19-16.08-.18-14.8-.5-29.6-.62-44.4,0-4.7-.08-9.45-.37-14.16a243.84,243.84,0,0,0-8.62-52.08,358.92,358.92,0,0,0-14.4-41c-1.28-3-2.63-6.05-3.8-9.13a2.48,2.48,0,0,0-2.2-1.91" style="fill:none;stroke:#000;stroke-linecap:round;stroke-linejoin:round;stroke-width:2px"/><path d="M471.44,251.52c.52,3.8,1.49,7.51,2.23,11.27,1.35,6.84,2.14,13.75,3,20.65s1.24,13.61,1.84,20.41c.27,3.09.39,6.24.63,9.35.47,6.08.3,12.16.47,18.24a66.52,66.52,0,0,1-1.51,15.11,33.76,33.76,0,0,0-.47,5.29,9.21,9.21,0,0,0,2.93,7.17c1.16,1.15,2.34,2.3,3.58,3.38,4,3.51,4.94,7.18,2.91,12.74-1.35,3.69-3.32,7.08-4.64,10.78-3.54,10-4.32,20.32-3.7,30.72a186.59,186.59,0,0,0,2.76,22.81,10.25,10.25,0,0,1,0,1.92" style="fill:none;stroke:#000;stroke-linecap:round;stroke-linejoin:round;stroke-width:2px"/><path d="M594.08,475c-6.8.56-13.6,1.09-20.4,1.69-4.48.4-9,.76-13.43,1.25s-9,.7-13.46,1.28c-2.36.31-4.79.39-7.19.59-5.44.46-10.89.93-16.33,1.34-5.27.39-10.55.72-15.83,1.05-7.92.49-15.85.76-23.76,1.4-3.82.3-7.68.09-11.52.23-5.84.2-11.7.24-17.52.81-13.07,1.27-25.14,5.27-35.54,13.62-1.29,1-2.6,2.29-4.54,1.94" style="fill:none;stroke:#000;stroke-linecap:round;stroke-linejoin:round;stroke-width:2px"/><path d="M426.32,637.44c.24,5.35,5.83,10.35,11.51,11.34,4.69.82,9.31.33,13.92-.12,7.78-.75,15.52-1.93,23.29-2.8,12.49-1.42,24.93-3.16,37.44-4.37,9-.88,18.07-1.56,27.11-2.23,8.25-.61,16.5.1,24.73-.62" style="fill:none;stroke:#000;stroke-linecap:round;stroke-linejoin:round;stroke-width:2px"/><path d="M684.56,453.24c-5.86.05-11.69-.42-17.52-.86-4.25-.31-8.48-.79-12.72-1.17a5.22,5.22,0,0,0-2.89.69c-1.38.72-2.62,1-4-.38a5.29,5.29,0,0,0-3.4-1.34c-4.16-.28-8.31-.83-12.48-1.18-6.23-.53-12.47-1-18.71-1.49a258.24,258.24,0,0,0-33.61-.33c-6.49.32-13,1.06-19.43,1.9-7.23.94-14.46,2-21.6,3.39-6.24,1.26-12.59,2-18.74,3.73a19.53,19.53,0,0,1-4.07.28" style="fill:none;stroke:#000;stroke-linecap:round;stroke-linejoin:round;stroke-width:2px"/><path d="M568.16,558a173.89,173.89,0,0,1,4.32,18,203.17,203.17,0,0,1,3.08,22.08A213.4,213.4,0,0,1,576,625a170.05,170.05,0,0,1-1.89,18.95,212.23,212.23,0,0,1-8.42,35.51,11.67,11.67,0,0,0-.41,2.42" style="fill:none;stroke:#000;stroke-linecap:round;stroke-linejoin:round;stroke-width:2px"/><path d="M533.6,563.76c-6.73,1.12-13.43,2.51-20.17,3.5-4.94.73-9.88,1.57-14.87,2.06-4.41.43-8.79,1.23-13.2,1.74-5.11.6-10.23,1.13-15.36,1.56-7.28.63-14.55,1.23-21.84,1.66-3,.17-5.94.47-8.88.44-6.65-.06-13.27.8-19.92.56" style="fill:none;stroke:#000;stroke-linecap:round;stroke-linejoin:round;stroke-width:2px"/><path d="M508.88,556c-5,0-10.08.29-15.12.43-6.17.18-12.32.87-18.48,1.38-9.48.78-18.91,1.93-28.33,3.29-7.46,1.08-14.87,2.45-22.3,3.73-.73.13-1.29-.3-1.93-.07" style="fill:none;stroke:#000;stroke-linecap:round;stroke-linejoin:round;stroke-width:2px"/><path d="M494.72,591.84c.92,0,2,.21,2.39-1a5.14,5.14,0,0,0-.51-4.77c-2.63-3.84-6.73-3.82-10.76-3.61-5.6.31-11.2.76-16.8,1.18q-11.52.87-23.05,1.6c-5.75.37-11.5.94-17.27,1.07-2.64.06-5.26.52-7.92.54a13,13,0,0,0-2.16,0" style="fill:none;stroke:#000;stroke-linecap:round;stroke-linejoin:round;stroke-width:2px"/><path d="M520.16,552.24c-3.84-.24-7.68-.46-11.52-.73-7.36-.51-14.74-.61-22.08-1.41-2.63-.28-5.3-.28-7.92-.38-9.45-.39-18.87-1.19-28.32-1.56" style="fill:none;stroke:#000;stroke-linecap:round;stroke-linejoin:round;stroke-width:2px"/><path d="M540.8,448.08c-3.35,0-6.56-1-9.84-1.44-4.15-.61-8.32-1.13-12.47-1.74-6.06-.88-12.17-1.21-18.26-1.8-4.2-.4-8.47-.23-12.71-.3-1.82,0-3.65.06-5.28-1a1.23,1.23,0,0,0-1.43,0c-1.54,1.12-3.31,1-5.05.95a245.17,245.17,0,0,0-33.37,2.35,92.22,92.22,0,0,0-13.91,2.43,36.41,36.41,0,0,0-6.72,3.14" style="fill:none;stroke:#000;stroke-linecap:round;stroke-linejoin:round;stroke-width:2px"/><path d="M485.12,516.72c-4.51.77-8.67,2.63-12.95,4.11-10.78,3.72-21.2,8.24-30.73,14.61a104.51,104.51,0,0,0-8.86,7,4.11,4.11,0,0,1-2.42,1.3" style="fill:none;stroke:#000;stroke-linecap:round;stroke-linejoin:round;stroke-width:2px"/><path d="M634.4,464.4a10.31,10.31,0,0,1-1.68-.25c-5.2-1.72-10.45-1.71-15.85-1-8.35,1.1-16.52,3.3-25,3.93-4,.3-8,.85-12,.8" style="fill:none;stroke:#000;stroke-linecap:round;stroke-linejoin:round;stroke-width:2px"/><path d="M464.48,253.2c-2.71.34-5-1.54-7.68-1.54-1.31,0-2.78.26-4-.47-1.46,1-2.09,1.86-1.61,3.95q3.38,14.81,6,29.75a61.74,61.74,0,0,1,1,17.27c-.54,5-1.56,9.95-2.58,14.88a21.37,21.37,0,0,0-.76,5.52c.06,1.36.79,1.68,1.94,1.68,4.28,0,8.47-.94,12.72-1.2" style="fill:none;stroke:#000;stroke-linecap:round;stroke-linejoin:round;stroke-width:2px"/><path d="M446.48,208.32c-.31-2.68-1.63-5.07-2.73-7.4-5.29-11.22-11.6-21.82-20.07-31-.91-1-1.85-1.9-3.36-1.68" style="fill:none;stroke:#000;stroke-linecap:round;stroke-linejoin:round;stroke-width:2px"/><path d="M436.88,420.48c-2.89,1.34-4.15,3.27-3.6,5.52.64,2.63,3.5,4.92,6,4.8a5.72,5.72,0,0,0,5-4.8c.45-2.45-1.41-5.14-3.84-5.22a29.52,29.52,0,0,0-3.36-.3" style="fill:none;stroke:#000;stroke-linecap:round;stroke-linejoin:round;stroke-width:2px"/><path d="M448.16,478.56c-2.89,0-5.55-1.17-8.39-1.55a43.67,43.67,0,0,0-13.21-.11,22.31,22.31,0,0,1-3.36.22" style="fill:none;stroke:#000;stroke-linecap:round;stroke-linejoin:round;stroke-width:2px"/><path d="M474.56,372.24c-6.06-.82-10.41,1.79-13.14,7-1.59,3-3.76,5.83-4.38,9.33" style="fill:none;stroke:#000;stroke-linecap:round;stroke-linejoin:round;stroke-width:2px"/><path d="M437.6,272.4a35.37,35.37,0,0,0-13.18,1.5,12.29,12.29,0,0,1-3.62.66" style="fill:none;stroke:#000;stroke-linecap:round;stroke-linejoin:round;stroke-width:2px"/><path d="M439.52,319.2c-4.31,0-8.46,1.26-12.71,1.73-1.22.14-2.41.09-3.61.19" style="fill:none;stroke:#000;stroke-linecap:round;stroke-linejoin:round;stroke-width:2px"/><path d="M455.84,388.92c1.66-.76,2.57,1,4.06,1.21,3.2.44,6.43.8,9.63,1.25a28.76,28.76,0,0,0,3.83.42" style="fill:none;stroke:#000;stroke-linecap:round;stroke-linejoin:round;stroke-width:2px"/><path d="M459,296.4a9.5,9.5,0,0,1,3.61.45c2.36,1,4.79,0,7.19,0" style="fill:none;stroke:#000;stroke-linecap:round;stroke-linejoin:round;stroke-width:2px"/><path d="M471.2,271a5.07,5.07,0,0,0-2.41.47,20.48,20.48,0,0,1-10.07,1.69" style="fill:none;stroke:#000;stroke-linecap:round;stroke-linejoin:round;stroke-width:2px"/><path d="M538.88,576.72a7.56,7.56,0,0,1-2.42-.65c-2.11-.7-4.33-.6-6,1.16a4.79,4.79,0,0,0-.75,5.73" style="fill:none;stroke:#000;stroke-linecap:round;stroke-linejoin:round;stroke-width:2px"/></g></g></svg>
