<svg xmlns="http://www.w3.org/2000/svg" viewBox="0 0 1366 768"><g id="Layer_7" data-name="Layer 7"><g id="front"><path d="M594.8,154.08a4.57,4.57,0,0,0,3.35,1.48c14.93,1.77,29.92,1.66,44.89,1.28,9.12-.22,18.25-.51,27.36-.26a194.87,194.87,0,0,1,20.17,1.29c6.88.9,13.74,1.69,20.4,3.85,7.18,2.32,11,7.33,12.44,14.45,1.22,6.2.78,12.44.34,18.71a142.34,142.34,0,0,1-3.22,21.59c-1.82,8-3.7,16.06-7.37,23.55-3.38,6.89-8.86,10.06-16.36,10.06-12.1,0-24.17-.78-36.24-1.43-8.48-.45-17-.78-25.44-1.22-12.24-.64-24.48-1.19-36.72-1.74-18.4-.81-36.8-1.2-55.2-.8-12.48.27-25,1-37.44,1.06-11.42,0-22.8-.84-33.83-4.07-7.22-2.12-14.06-5.15-18.46-11.74a20.66,20.66,0,0,1-3.22-13.67c1.35-17,5.75-33.28,10.85-49.44,1.78-5.61,6.43-8.83,12.26-9.34,12.78-1.13,25.59-1.52,38.4-2,11-.4,22.08-.4,33.12-.74,10.25-.31,20.48.4,30.72.07,1.6-.06,3.21.74,4.83-.43s3.17-4.07,2.57-5.78a2.88,2.88,0,0,0-2.36-1.69c-3-.51-6.08-1-9.12-1.45-2.09-.31-3-1.18-2.86-3.36.25-5.2.59-10.4,1-15.6.37-5.44.79-10.88,1.19-16.32.28-3.84.23-7.7.72-11.52" style="fill:#fff;stroke:#000;stroke-miterlimit:10;stroke-width:2px"/><path d="M688.88,167.4c-.36-.31-.61.15-1,.13-6-.33-12,.44-18,.54-13,.22-25.92.86-38.88,1.22-8.72.24-17.45.49-26.16.92-11.75.59-23.53.75-35.28,1.31-5.75.28-11.52.38-17.28.58-12.16.42-24.33.64-36.48,1.38a78,78,0,0,0-18.48,2.93c-14.68,4.52-23.87,14.39-28.06,29a39.61,39.61,0,0,0-1.28,11c0,1.94.88,2.54,2.46,2.63,5.44.3,10.88.63,16.32.92,8.8.48,17.6,1,26.4,1.41,7.36.36,14.72.7,22.08,1.09,7.76.4,15.53.61,23.28,1.34,3.42.32,6.89.34,10.32.44,7.37.22,14.72.77,22.08,1.11q11.88.56,23.76,1.3c5.43.35,10.88.54,16.32.82,9.84.51,19.68,1.06,29.52,1.58,7.44.39,14.87.94,22.32,1,4.27,0,7.26-1.78,8.6-5.76,2.39-7.17,5.14-14.19,6.14-21.82,1.21-9.21-.32-17.48-6.63-24.45a15.78,15.78,0,0,0-11-5.56" style="fill:#fff;stroke:#000;stroke-miterlimit:10;stroke-width:2px"/><path d="M964.16,125.76c-9.16.85-16.63-3.59-24.26-7.65-4.08-2.17-8.41-3.68-13.18-3.15a58,58,0,0,0-7.18,1.52c-4.94,1.18-9.61.4-14.17-1.32-6-2.25-11.72-5-18-6.48a94.33,94.33,0,0,0-17.29-2.1c-12.32-.47-24.64-.75-37-1.25-6.4-.26-12.8-.47-19.2-.7-11.92-.44-23.84-1-35.76-1.42-7.2-.28-14.4-.46-21.6-.74q-18.36-.7-36.72-1.35c-6.08-.22-12.16-.49-18.24-.61-10.16-.19-20.32-.68-30.48-1-4.48-.16-9,.12-13.43-.43-4.65-.58-9.33,0-13.92-.69-3.2-.5-4.55,1.42-5.76,3.66-6,11.07-12,22.11-19,32.6-3.57,5.39-7.71,10.31-13.38,13.73a23.56,23.56,0,0,1-7.22,3.1c-2.81.61-5.06,2.64-7.92,3.12" style="fill:none;stroke:#000;stroke-linecap:round;stroke-linejoin:round;stroke-width:2px"/><path d="M954.08,433.68A125.43,125.43,0,0,0,925.74,437a202.05,202.05,0,0,0-33.32,10.95c-12.91,5.3-25.54,11.27-37.93,17.71-13,6.73-25,14.74-34.56,25.92-8.87,10.32-15.42,22-20.69,34.53-3.57,8.46-6.68,17.08-9.74,25.72-.44,1.22-.84,2.32-2,2.82-.88.38-1.31.8-.93,1.72,1.55,3.72,2.56,7.74,5.75,10.56" style="fill:none;stroke:#000;stroke-linecap:round;stroke-linejoin:round;stroke-width:2px"/><path d="M809.12,710.4c-.18-4-1-8-1.43-12-.64-6.71-1.37-13.41-1.75-20.16-.47-8.24-.89-16.47-.93-24.72,0-1.43.6-2.8-.15-4.35-1.14-2.35-3.37-2.72-5.35-3.28-15.21-4.31-30-3.21-44.16,4-8,4.06-15,9.53-21.8,15.17-1.7,1.4-2.17,3.58-2.17,5.73q0,24.24,0,48.48c0,1.12.15,2.24.23,3.36" style="fill:none;stroke:#000;stroke-linecap:round;stroke-linejoin:round;stroke-width:2px"/><path d="M948.8,457c-21.68-.34-41.4,6.14-59.76,17.29-20.39,12.37-36.54,29.22-50.65,48.22a171.74,171.74,0,0,0-16,25.22,66.82,66.82,0,0,0-7.23,24" style="fill:none;stroke:#000;stroke-linecap:round;stroke-linejoin:round;stroke-width:2px"/><path d="M568.16,93.12c-8.81,0-17.6.65-26.4.89-5.12.14-10.24.38-15.36.6-10.4.44-20.81.6-31.2,1.35-4.15.29-8.33.34-12.48.41-6.65.1-13.29.42-19.91.71-9.45.41-18.9.53-28.34,1.24-3.89.29-7.83.36-11.75.32" style="fill:none;stroke:#000;stroke-linecap:round;stroke-linejoin:round;stroke-width:2px"/><path d="M951,592.32c-4.51-1-8.87-2.56-13.44-3.39a95.87,95.87,0,0,0-22.08-1.83c-15.77.82-30.52,5.42-44.67,12.37-10.64,5.22-21.55,9.94-31.38,16.65-5.51,3.75-10.6,8.08-14.4,13.66a4.36,4.36,0,0,1-3.39,2.14" style="fill:none;stroke:#000;stroke-linecap:round;stroke-linejoin:round;stroke-width:2px"/><path d="M952.16,608.4c-3.37.2-6.36-1.43-9.58-2a78,78,0,0,0-21.63-1.2,97.9,97.9,0,0,0-15.35,2.52A106.42,106.42,0,0,0,880.16,618c-12,6.67-22.65,15.13-32.65,24.47-1.19,1.12-2.39,2.36-4.31,1.93" style="fill:none;stroke:#000;stroke-linecap:round;stroke-linejoin:round;stroke-width:2px"/><path d="M796.16,640.08c1.37.21,2.05-.5,2.67-1.67a118.27,118.27,0,0,0,9.81-26.65c1.19-4.77,2.34-9.54,3.13-14.4,1.4-8.62,1.61-17.11-2.41-25.2a13.47,13.47,0,0,0-9.6-7.66c-2.59-.53-6.39,1.31-7.8,3.58" style="fill:none;stroke:#000;stroke-linecap:round;stroke-linejoin:round;stroke-width:2px"/><path d="M749.84,549.84c-6.65,1.91-9.73,6.76-10.78,13.2-.41,2.52-1.37,3.75-3.86,4.32-3.45.78-6.53,4.59-7.2,8.88a23.68,23.68,0,0,1-.77,4.06,4.37,4.37,0,0,1-2.3,3c-6.58,3.29-6.85,8.22-6,14.05,1.15,8.19,5.94,14.57,10.79,20.87,4.4,5.73,8.81,11.46,11.49,18.26a24.88,24.88,0,0,1,1.7,10.07" style="fill:none;stroke:#000;stroke-linecap:round;stroke-linejoin:round;stroke-width:2px"/><path d="M786.32,554.88c-2-1.1-2.75-3.23-3.83-5-2.1-3.53-4-7.19-6.73-10.31-5.2-5.95-9.08-6.28-14.87-4A22.86,22.86,0,0,0,754.6,539a11.28,11.28,0,0,0-4.28,7.25,8.92,8.92,0,0,0,1.92,7.2" style="fill:none;stroke:#000;stroke-linecap:round;stroke-linejoin:round;stroke-width:2px"/><path d="M709.76,625a27.82,27.82,0,0,1,8.92,7.4c.6.74,1.07,2.18,2.6,1.6" style="fill:none;stroke:#000;stroke-linecap:round;stroke-linejoin:round;stroke-width:2px"/><path d="M821.12,639.6c-.59.69-1,1.53-2,1.95-1.28-.27-2.08-1.33-3-2.18-1.75-1.55-3.34-3.36-5.75-4" style="fill:none;stroke:#000;stroke-linecap:round;stroke-linejoin:round;stroke-width:2px"/><path d="M714.56,635.28c-2.64.75-4.43-1.43-6.71-1.95-.89-.21-1.65-.91-2.65-.81" style="fill:none;stroke:#000;stroke-linecap:round;stroke-linejoin:round;stroke-width:2px"/></g></g></svg>
