<?xml version="1.0" encoding="utf-8"?>
<!-- Generator: Adobe Illustrator 24.0.1, SVG Export Plug-In . SVG Version: 6.00 Build 0)  -->
<svg version="1.1" id="Layer_1" xmlns="http://www.w3.org/2000/svg" xmlns:xlink="http://www.w3.org/1999/xlink" x="0px" y="0px"
	 viewBox="0 0 1366 768" style="enable-background:new 0 0 1366 768;" xml:space="preserve">
<g>
	<path d="M906.4,89.8c0.1-0.1,0.2-0.1,0.3-0.1c0,0,0,0,0,0C907,89.6,906.8,89.7,906.4,89.8c-0.1-0.1-0.3,0-0.5,0
		c-0.2,0-0.4,0.1-0.5,0.1c-1,0.2-2,0.3-3,0.5c-2.9,0.4-5.8,0.8-8.7,1.2c-1.1-1.3-3.3-0.7-4.5,0.4c-0.1,0.1-0.2,0.2-0.3,0.4
		c-1.6,0.3-3.2,0.5-4.8,0.8c-2.5,0.5-5.2,1-7.6,2c-1.1,0.5-2.3,1.3-2.7,2.4c-0.5,1.4,0.1,2.9,1.5,3.5c1.4,0.6,3.3,0,3.8-1.3
		c0.3-0.1,0.9-0.3,0.9-0.3c2.2-0.6,4.5-1.2,6.7-1.6c0.8-0.2,1.6-0.3,2.4-0.4c0,0.1,0,0.1,0,0.2c0.1,2.4,0.1,4.8,0.1,7.2
		c-0.1,4.4-0.5,8.8-0.3,13.1c0.1,2.3,0.2,4.6,0.4,7c0.1,1.1,0.1,2.2,0.2,3.3c0.1,0.6,0.2,1.1,0.3,1.6c0,0,0,0,0,0c0-0.1,0-0.1,0-0.2
		c0,0,0,0,0,0c0,0.4,0.2,0.8,0.4,1.2c0.9,1.5,4,1.6,4.7-0.1c0.7-1.5,0.5-3.2,0.4-4.8c-0.2-2.2-0.4-4.5-0.6-6.7
		c-0.2-3-0.3-5.9-0.3-8.9c0-2.2,0.1-4.5,0.1-6.7c0-2.2-0.3-4.4-0.4-6.5c0-0.2,0-0.4,0-0.5c3.2-0.5,6.4-1,9.6-1.7
		c1.7-0.3,4-0.5,5.4-1.7C911.3,91.4,908.5,88.9,906.4,89.8z"/>
	<path d="M889.8,129.9C889.8,130.3,889.9,130.3,889.8,129.9L889.8,129.9z"/>
</g>
<g>
	<path d="M905.1,127.2C905.1,127.2,905.1,127.2,905.1,127.2c0.1,0.1,0.1,0.1,0.2,0.2C905.4,127.4,905.3,127.3,905.1,127.2z"/>
	<path d="M906.6,127.9C906.6,127.9,906.6,127.9,906.6,127.9c0.1,0,0.2,0,0.3,0c0,0,0,0,0.1,0c0,0,0,0,0,0
		C906.9,127.9,906.6,127.9,906.6,127.9z"/>
	<path d="M910.7,110.6C910.6,110.6,910.6,110.6,910.7,110.6L910.7,110.6z"/>
	<path d="M918.5,112.6c-1-2.7-2.8-5.6-5.6-6.8c-0.3-0.1-0.6-0.2-0.9-0.3c0.4-1.5-1.4-3.1-3.1-2.1c-4.9,2.8-8.4,7.8-9.8,13.2
		c-1.1,4.2-1.3,9.8,1.6,13.4c1.5,1.8,3.7,2.9,6.1,2.7c2.9-0.2,5.5-1.7,7.7-3.5C919.4,125.3,920.6,118.5,918.5,112.6z M913.7,120
		c0,0.1-0.1,0.4-0.1,0.5c-0.1,0.3-0.1,0.5-0.2,0.8c-0.1,0.5-0.3,1.1-0.5,1.6c0,0.1-0.2,0.4-0.3,0.5c-0.1,0.3-0.3,0.5-0.5,0.8
		c0,0.1-0.3,0.4-0.3,0.5c-0.1,0.1-0.1,0.1-0.1,0.2c-0.1,0.1-0.3,0.3-0.4,0.4c-0.5,0.4-1,0.9-1.5,1.3c-0.1,0-0.1,0.1-0.2,0.1
		c0,0-0.1,0.1-0.1,0.1c-0.3,0.2-0.5,0.4-0.8,0.5c-0.2,0.1-0.4,0.2-0.6,0.3c-0.3,0.1-0.8,0.3-0.2,0.1c-0.1,0-0.5,0.2-0.9,0.3
		c0,0,0,0,0,0c-0.2,0.1-0.3,0.1-0.4,0c0,0,0,0,0,0c-0.1,0-0.2,0-0.4,0c-0.1,0-0.2-0.1-0.4-0.1c-0.1,0-0.1,0-0.1-0.1c0,0,0,0,0,0
		c-0.1-0.1-0.3-0.2-0.4-0.4c0,0-0.1-0.1-0.2-0.2c0,0,0,0-0.1-0.1c0,0,0,0,0.1,0c0,0,0-0.1-0.1-0.1c-0.1-0.2-0.2-0.3-0.3-0.5
		c-0.1-0.1-0.1-0.3-0.2-0.4c0-0.1-0.1-0.2-0.1-0.2c-0.2-0.4-0.3-0.7-0.4-1.1c-0.1-0.2-0.1-0.4-0.1-0.6c0-0.1-0.1-0.4-0.1-0.5
		c0-0.1,0-0.3-0.1-0.4c0-0.2-0.1-0.5-0.1-0.7c0-0.5-0.1-1-0.1-1.5c0-0.5,0-1,0.1-1.5c0-0.2,0-0.4,0.1-0.6c0,0,0.1-0.5,0.1-0.6
		c0.4-2.3,1.1-4.3,2.1-6.1c0.7,0,1.4-0.2,1.9-0.7c0.1-0.1,0.5-0.4,0.5-0.4c0.2-0.1,0.3-0.2,0.5-0.3c0.2-0.1,0.5-0.3,0.7-0.4
		c0.1,0,0.1-0.1,0.1-0.1c0,0,0.1,0,0.1,0c0.2,0,0.5,0,0.4-0.1c0,0,0,0,0,0c0,0,0,0,0.1,0c0,0,0.1,0,0.1,0c0,0,0,0,0,0
		c0.2,0.1,0.3,0.2,0.5,0.3c-0.1-0.1-0.2-0.1-0.2-0.1c0.1,0,0.2,0.1,0.3,0.2c0.2,0.1,0.3,0.3,0.4,0.4c0.1,0.1,0.1,0.2,0.2,0.2
		c0.3,0.4,0.5,0.8,0.8,1.2c0,0.1,0.1,0.1,0.1,0.1c0,0,0,0,0,0.1c0.1,0.3,0.3,0.6,0.4,0.9c0.2,0.5,0.4,1,0.5,1.5
		c0.1,0.3,0.1,0.6,0.2,0.9c0,0,0,0,0,0c0,0.1,0.1,0.4,0.1,0.4C913.8,117.7,913.8,118.9,913.7,120z"/>
</g>
<path d="M949.2,115.5c-0.3-1.2-1.8-1.8-2.9-1.6c-1.2,0.3-2.5,0.5-3.7,0.8c-0.2-3.2-0.3-6.4-0.3-9.6c0-1.7,0.1-3.5,0.3-5.2
	c0.2-1.9,0.6-3.9,0.7-5.8c0.2-2.5-4-2.5-4.6-0.4c-1.1,3.5-1.3,7.5-1.5,11.1c-0.2,3.5-0.2,7,0,10.5c0,0.1,0,0.2,0,0.4
	c-2.8,0.5-5.7,0.8-8.3,1.7c-2.3,0.8-1.1,4.1,1.1,4c2.5-0.1,5-0.8,7.5-1.3c0.1,1.9,0.3,3.7,0.5,5.6c0.2,1.7,0.3,3.4,0.5,5.2
	c0.2,1.9,0.1,4.1,0.7,5.9c0.8,2.2,4.8,2.2,5.2-0.2c0.3-1.8,0-3.8-0.2-5.7c-0.2-1.7-0.4-3.4-0.6-5.2c-0.3-2.2-0.5-4.5-0.7-6.7
	c1.5-0.3,3-0.7,4.5-1C948.6,117.7,949.6,116.7,949.2,115.5z"/>
<g>
	<g>
		<path d="M993.1,132.9c-0.8-0.8-2.3-1-3.3-0.4c-1.4,0.9-2.8,1.9-4.3,2.6c-0.1,0-0.3,0.1-0.4,0.1c-0.3,0.1-0.6,0.2-0.8,0.2
			c-0.1,0-0.2,0-0.3,0c-0.1,0-0.2,0-0.4,0c-0.2,0-0.4-0.1-0.6-0.1c0,0-0.1,0-0.2-0.1c0,0,0,0,0,0c-0.1,0-0.4-0.2-0.5-0.3
			c0.2,0.1,0.4,0.3,0.1,0.1c0,0-0.1-0.1-0.1-0.1c0,0-0.1,0-0.1,0c0,0,0,0,0,0c-0.1-0.1-0.2-0.1-0.2-0.2c-0.2-0.1-0.3-0.3-0.5-0.4
			c-0.1-0.1-0.2-0.2-0.3-0.3c-0.3-0.4-0.6-0.8-0.8-1.2c0,0,0,0,0,0c-0.1-0.1-0.1-0.2-0.2-0.4c-0.1-0.3-0.2-0.5-0.3-0.8
			c-0.2-0.6-0.3-1.1-0.5-1.7c0,0,0,0,0,0c0-0.1,0-0.3-0.1-0.4c0-0.3-0.1-0.6-0.1-0.9c0-0.1,0-0.3,0-0.4c1.4-0.5,2.8-1.2,4.2-1.9
			c4-2.3,6.6-6,6.1-10.7c-0.1-1.4-1.3-2-2.6-2c-3.4-0.1-6.9,1.2-9.2,3.7c-2.1,2.3-3.3,5.2-3.6,8.2c0,0.3-0.1,0.6-0.1,0.9
			c-1.1,0.4-2.3,0.8-3.4,1.3c-0.3,0.1-0.6,0.3-0.8,0.5c-0.2-2.9-0.6-6-1.7-8.7c-0.7-1.6-1.6-3.1-3.1-3.9c-1.6-0.9-3.7-1.1-5.4-0.6
			c-1.2,0.3-2.1,0.9-2.9,1.6c-0.1-0.3-0.1-0.6-0.2-0.9c-1.1-6.3-2.7-12.5-3.9-18.7c-0.5-2.5-4.9-1.6-4.4,1
			c1.1,6.1,2.3,12.3,3.3,18.4c0.6,3.7,1.1,7.5,1.2,11.2c-0.2,2-0.2,4-0.1,6c0.2,3.2,5.4,3.2,5.6,0c0.1-1.7,0.1-3.3,0-5
			c0.1-1,0.1-1.9,0.3-2.9c0-0.1,0-0.3,0.1-0.3c0-0.1,0-0.3,0.1-0.4c0.1-0.3,0.1-0.7,0.2-1c0.2-0.8,0.4-1.5,0.7-2.3
			c0-0.1,0.2-0.5,0.2-0.6c0.1-0.2,0.3-0.5,0.4-0.7c0.1-0.1,0.4-0.4,0.4-0.5c0.2-0.1,0.4-0.3,0.4-0.3c0.2-0.1,0.4-0.1,0,0
			c0.1,0,0.3-0.1,0.4-0.1c0,0,0,0,0,0c0.1,0,0.2,0,0.4,0c0,0,0,0,0,0c0,0,0.1,0,0.1,0c0,0,0.1,0,0.2,0.1c0,0,0,0,0,0c0,0,0,0,0,0
			c0,0,0,0,0,0c0,0,0,0,0,0c0,0,0.1,0.1,0.1,0.1c0,0,0,0,0-0.1c0,0,0,0,0,0c0,0,0,0,0.1,0.1c0,0,0,0,0,0c0,0,0,0,0,0c0,0,0,0,0,0
			c0.1,0.1,0.1,0.2,0.2,0.2c0.1,0.2,0.2,0.4,0.3,0.6c0,0.1,0.1,0.1,0.1,0.1c0.1,0.2,0.2,0.4,0.2,0.6c1.1,3,1.2,5.8,1.3,9.1
			c0.1,3.1-0.2,6.3,0.2,9.4c0.3,2.3,4.6,2.2,5.1,0c0.6-3.1,0.5-6.3,0.3-9.4c0,0,0,0,0-0.1c0.5,0.4,1.3,0.6,1.9,0.4
			c0.8-0.3,1.5-0.6,2.3-0.8c0.6,4.6,2.9,9,7.7,10.1c1.8,0.4,3.8,0.2,5.5-0.4c1-0.4,2-0.8,2.9-1.4c0.6-0.4,1.1-0.8,1.7-1.2
			c0.2-0.2,0.4-0.4,0.6-0.6c0.1-0.2,0.3-0.3,0.4-0.5c0.1-0.1,0.2-0.3,0.2-0.3C993.8,134.9,994,133.8,993.1,132.9z M979.7,123.6
			c0.1-0.3,0.2-0.5,0.3-0.8c0-0.1,0-0.1,0.1-0.2c0-0.1,0.1-0.2,0.1-0.3c0.3-0.6,0.6-1.1,0.9-1.6c0.1-0.1,0.1-0.2,0.2-0.3
			c0,0,0.1-0.1,0.1-0.1c0.2-0.3,0.5-0.5,0.7-0.7c0.1-0.1,0.3-0.2,0.4-0.3c0,0,0,0,0,0c0,0,0,0,0,0c0.3-0.2,0.6-0.4,0.9-0.6
			c0.1,0,0.2-0.1,0.3-0.1c0,0,0,0,0.1,0c0,0,0.1,0,0.1-0.1c0,0,0,0-0.1,0c0,0,0.1,0,0.1,0c0.2-0.1,0.4-0.1,0.6-0.2
			c0,0.1,0,0.1,0,0.2c-0.1,0.4-0.2,0.8-0.4,1.2c0,0.1-0.1,0.3-0.2,0.3c-0.1,0.2-0.2,0.4-0.3,0.5c-0.7,1.2-2,2.2-3.3,3
			c-0.3,0.2-0.5,0.3-0.8,0.5C979.7,123.9,979.7,123.7,979.7,123.6z"/>
		<path d="M983.9,118.5C983.9,118.5,983.8,118.5,983.9,118.5c-0.1,0-0.1,0-0.1,0.1C983.7,118.6,983.7,118.6,983.9,118.5z"/>
		<path d="M982.3,135.1C982.3,135.1,982.3,135.1,982.3,135.1C982.2,135.1,982.2,135.1,982.3,135.1
			C982.3,135.1,982.3,135.1,982.3,135.1z"/>
	</g>
	<polygon points="962,119.7 962,119.7 962,119.7 962,119.7 	"/>
	<path d="M962,119.8C962.1,119.9,962.2,120,962,119.8C962.1,119.9,962.1,119.9,962,119.8C962.1,119.8,962.1,119.8,962,119.8z"/>
	<path d="M961.7,119.6c0,0,0.1,0,0.3,0.1c0,0,0,0,0,0C961.8,119.7,961.8,119.7,961.7,119.6z"/>
</g>
<path d="M1028.9,143.9c-0.6-1.6-1.5-3.2-2.1-4.9c-0.6-1.6-1.1-3.3-1.5-4.9c-0.8-3.5-1.2-7.1-1.5-10.7c-0.5-7.2-0.2-14.4-0.2-21.6
	c0-2.7-4.8-2.9-4.8-0.2c-0.1,7.4-0.5,14.8-0.2,22.2c0.2,3.8,0.6,7.6,1.4,11.3c0.7,3.5,1.7,7.5,3.9,10.3c0.8,1,2,1.5,3.3,1
	C1028.3,146.2,1029.4,145.1,1028.9,143.9z"/>
<g>
	<path d="M1063.5,122.3c-0.8-1-2.1-1.1-3.2-0.6c-0.1,0-0.1,0.1-0.2,0.1c0,0,0,0,0,0c-0.2,0.1-0.4,0.1-0.5,0.2
		c-0.4,0.2-0.8,0.3-1.2,0.4c-0.4,0.2-0.9,0.3-1.3,0.4c0-5.7,0.6-11.4,0.2-17.1c-0.1-2.4-4.3-2.8-4.7-0.4c-0.1,0.7-0.3,1.4-0.5,2
		c-0.3,0.7-0.2,1.4,0.1,1.9c-0.4,5.1-0.7,10.3-0.6,15.4c0,0,0,0.1,0,0.1c-0.5,0.2-1,0.5-1.3,1c-0.3,0.5-0.4,1.1-0.2,1.6
		c0.3,0.7,0.9,1.1,1.5,1.3c0.1,2.1,0.3,4.3,0.6,6.4c-0.8-0.6-1.9-0.7-2.9-0.3c0,0,0,0,0,0c0,0,0,0-0.1,0c-0.1,0-0.2,0.1-0.3,0.1
		c0.1,0,0,0-0.1,0c0,0-0.1,0-0.1,0c0,0,0,0,0,0c0,0,0,0,0.1,0c0,0,0,0-0.1,0c0,0,0,0,0,0c0,0,0,0,0,0c-0.1-0.1-0.1-0.3-0.2-0.4
		c0,0,0,0,0,0c-0.3-0.7-0.5-1.4-0.6-2.2c-0.1-0.4-0.1-0.8-0.2-1.2c0,0,0,0,0,0c0,0,0-0.1,0-0.1c0-0.3-0.1-0.5-0.1-0.8
		c-0.1-0.9-0.1-1.9-0.2-2.8c-0.1-1.8-0.1-3.6,0-5.4c0-0.6,0-1.2,0.1-1.8c0-0.7,0.1-1.3,0-2c0-1.4-1.1-2.2-2.3-2.4
		c-0.5-1.8-1.5-3.6-3.2-4.5c-1.7-0.9-3.8-0.6-5.4,0.4c-0.2,0.1-0.8,0.5-0.5,0.3c-0.1,0.1-0.2,0.2-0.4,0.3c-0.2,0.1-0.3,0.3-0.4,0.4
		c-0.4,0.4-0.8,0.8-1.2,1.3c-0.6,0.7-1.1,1.5-1.5,2.4c-2.5,5-2.7,10.7-1.1,15.9c0.8,2.5,2.1,5.6,5,6.2c2.7,0.6,4.9-1.3,6.3-3.4
		c0.4,1.4,1.1,2.8,2.2,3.8c2.2,1.8,5.4,1.5,7.4-0.5c0.2-0.2,0.3-0.4,0.5-0.6c0.5,1.9,1.2,3.7,2.2,5.4c1.4,2.4,5.8,0.7,4.9-2.1
		c-0.9-2.6-1.7-5.2-2.2-8c-0.3-1.9-0.5-3.9-0.6-5.8c1.9-0.6,3.8-1.3,5.6-2.2C1063.8,124.7,1064.2,123.2,1063.5,122.3z M1041.8,121.8
		C1041.8,121.9,1041.8,121.9,1041.8,121.8c0,0.1,0,0.2-0.1,0.3c-0.1,0.6-0.2,1.2-0.4,1.7c-0.5,2.3-1.3,4.6-2.2,6.8
		c-0.1,0.1-0.4,0.7-0.3,0.5c-0.1,0.2-0.2,0.3-0.2,0.5c-0.2,0.4-0.5,0.8-0.8,1.2c-0.1,0.1-0.1,0.2-0.2,0.3c0,0-0.1-0.1-0.1-0.1
		c-0.1-0.1-0.1-0.2-0.2-0.3c0,0,0,0,0,0c0,0,0,0,0-0.1c-0.5-1.4-1-2.8-1.3-4.2c-0.1-0.3-0.1-0.6-0.2-0.9c0,0,0,0,0,0
		c0-0.1,0-0.2,0-0.3c-0.1-0.6-0.1-1.1-0.1-1.7c0-1,0.1-2,0.2-3c0-0.1,0.1-0.5,0.1-0.6c0-0.2,0.1-0.5,0.2-0.7c0.1-0.5,0.3-1,0.4-1.4
		c0.1-0.4,0.3-0.9,0.5-1.3c0.1-0.2,0.2-0.4,0.2-0.6c0-0.1,0.1-0.1,0.1-0.2c0.4-0.7,0.8-1.3,1.3-1.9c0,0,0.1-0.1,0.1-0.1
		c0.1-0.1,0.2-0.2,0.4-0.3c0.1-0.1,0.2-0.2,0.3-0.3c0,0,0,0,0,0c0.1,0,0.1-0.1,0.2-0.1c0,0,0,0,0,0c0,0,0,0,0,0c0,0,0,0,0.1,0
		c0,0,0,0,0,0c0,0,0,0,0,0c0,0,0.1,0,0.1,0c0,0,0,0,0,0c0.1,0.1,0.2,0.1,0.2,0.2c0,0,0,0,0-0.1c0,0,0,0.1,0.1,0.1c0,0,0,0,0.1,0.1
		c0.1,0,0.1,0.1,0,0.1c0,0,0,0,0,0c0.1,0.2,0.2,0.3,0.3,0.5c0,0.1,0.1,0.2,0.1,0.3c0,0,0,0,0,0.1c0.1,0.3,0.2,0.5,0.3,0.8
		c0.5,1.4,0.7,2.8,0.8,4.2C1041.8,121.4,1041.8,121.6,1041.8,121.8z"/>
	<path d="M1039.9,115C1039.9,115,1039.8,115,1039.9,115C1039.8,115,1039.8,115,1039.9,115C1039.8,115,1039.8,115,1039.9,115z"/>
	<path d="M1049,135.1c0,0-0.1,0-0.1,0c0,0,0,0,0,0C1049,135.1,1049,135.1,1049,135.1z"/>
	<path d="M1040.3,115.4c0,0-0.1-0.1-0.1-0.2c0,0,0,0,0,0C1040.2,115.4,1040.2,115.4,1040.3,115.4z"/>
</g>
<path d="M1084.3,110.9c-3,0-5.7,2.1-8,3.8c-1.9,1.5-3.7,3.1-5.2,4.9c-1.3,1.5-2.4,3.3-3.1,5.2c-0.2,0.2-0.3,0.5-0.3,0.8
	c-1.3,3.7-1.4,7.8,0,11.4c1.2,3.2,3.5,5.8,6.8,6.7c4,1.2,8.3-0.4,11.5-2.8c2.4-1.9-0.9-5-3.2-3.7c-1.4,0.7-2.8,1.4-3.9,1.7
	c-0.3,0.1-0.6,0.1-0.9,0.2c-0.1,0-0.2,0-0.2,0c0,0-0.1,0-0.1,0c-0.3,0-0.5,0-0.8,0c0,0-0.1,0-0.1,0c-0.1,0-0.3-0.1-0.3-0.1
	c-0.2-0.1-0.4-0.1-0.6-0.2c-0.1,0-0.2-0.1-0.3-0.1c-0.2-0.1-0.4-0.2-0.6-0.3c-0.1-0.1-0.2-0.2-0.3-0.3c-0.2-0.2-0.3-0.3-0.5-0.5
	c0,0-0.1-0.1-0.1-0.1c0,0,0-0.1-0.1-0.1c-0.3-0.5-0.6-0.9-0.9-1.5c-0.1-0.1-0.1-0.2-0.1-0.4c-0.1-0.3-0.2-0.5-0.3-0.8
	c-0.2-0.6-0.3-1.1-0.4-1.7c0,0,0-0.1,0-0.1c0-0.2,0-0.3,0-0.5c0-0.2,0-0.5,0-0.7c0-0.7,0-1.4,0.1-2c0.1-0.9,0.3-1.9,0.6-2.8
	c1.3-0.4,2.5-0.9,3.8-1.3c2.7-1,5.4-2,7.9-3.5c2.2-1.4,4.7-3.2,5-6C1089.7,113.2,1087.1,110.9,1084.3,110.9z M1084.4,116.1
	c0,0.1-0.1,0.2-0.1,0.3c-0.1,0.1-0.2,0.3-0.2,0.3c-0.1,0.1-0.1,0.2-0.2,0.3c0,0,0,0,0,0.1c0,0,0,0,0,0c-0.7,0.7-1.6,1.4-2.2,1.7
	c-1.8,1.1-3.7,2-5.7,2.8c0.7-0.7,1.4-1.4,2.1-2.1c1.9-1.7,3.5-3.1,5.6-4c0.1,0,0.2-0.1,0.2-0.1c0,0,0,0,0,0c0.1,0,0.3-0.1,0.4-0.1
	c0,0,0,0,0,0c0,0,0,0,0,0c0,0.1,0.1,0.2,0.1,0.3c0,0.1,0,0.2,0,0.3C1084.4,116,1084.6,115.7,1084.4,116.1z"/>
<g>
	<path d="M1120.1,116.9c-0.1,0,0,0,0.2,0.1C1120.3,117,1120.2,117,1120.1,116.9C1120.2,117,1120.2,117,1120.1,116.9z"/>
	<path d="M1130.8,134.2c-0.2-2-0.5-4-0.8-5.9c-0.7-4-1.6-8.4-3.8-12c-2.1-3.4-6.2-5.2-9.8-2.8c-1.6,1-2.6,2.7-3.2,4.4
		c-0.3,0.3-0.5,0.7-0.5,1.2c0,0.1,0,0.3,0,0.4c-0.3,1.4-0.5,2.8-0.7,4c-0.4,3.7-0.4,7.4-0.3,11.1c0,2.9,5.1,3.2,5.1,0.2
		c0-1.3,0-2.5,0-3.8c0.1-3,0.4-6,0.6-9c0-0.1,0-0.3,0.1-0.4c0.1-0.5,0-0.1,0.1-0.4c0.2-0.8,0.4-1.5,0.7-2.3c0.1-0.3,0.3-0.6,0.4-0.9
		c0,0,0,0,0-0.1c0,0,0,0,0.1-0.1c0.1-0.2,0.3-0.4,0.4-0.6c0.1-0.1,0.1-0.2,0.1-0.2c0,0,0.1,0,0.2-0.1c0.1-0.1,0.1-0.1,0.2-0.2
		c0,0,0.1,0,0.1-0.1c0,0,0,0,0,0c0,0,0,0,0,0c0,0,0,0,0,0c0,0,0,0,0.1,0c0.1-0.1,0.3-0.1,0.2,0c0.1,0,0.1,0,0.2,0c0,0,0,0,0,0
		c-0.7,0.2-0.1,0.1,0,0c0,0,0,0,0,0c0,0,0,0,0,0c0,0,0.1,0,0.1,0c0,0,0,0,0.1,0c0,0,0,0,0,0c0,0,0,0,0,0c0,0,0,0,0,0c0,0,0,0,0,0
		c0.1,0.1,0.1,0.1,0.2,0.2c0.1,0.1,0.2,0.2,0.3,0.4c0.2,0.3,0.5,0.7,0.7,1c0.2,0.3,0.3,0.6,0.5,0.9c0.1,0.1,0.1,0.3,0.2,0.5
		c0,0.1,0.2,0.4,0.2,0.4c0.3,0.8,0.6,1.7,0.8,2.5c0.5,1.9,1,3.9,1.3,5.8c0.3,2,0.6,4,0.8,6c0,0.2,0,0.4,0.1,0.6c0,0.1,0,0.3,0,0.4
		c0,0,0-0.1,0-0.1c0.1,0.5,0.1,1.1,0.2,1.6c0.1,0.6,0.2,1.2,0.4,1.7c0.9,2.5,4.6,2.2,5-0.4C1131.3,137.2,1131,135.6,1130.8,134.2z"
		/>
	<path d="M1119.7,117c0.1,0,0.1,0,0.2,0C1119.8,117,1119.8,117,1119.7,117C1119.7,117,1119.7,117,1119.7,117z"/>
</g>
<path d="M1139.2,133.9c-0.3-1.9-0.6-3.8-1-5.7c-0.8-3.7-1.9-7.4-2.6-11.2c-0.2-1.1-1.8-1.6-2.8-1.3c-1.2,0.3-1.7,1.3-1.6,2.4
	c0.6,3.6,1.4,7.2,2,10.9c0.3,1.8,0.5,3.5,0.7,5.3c0.1,1.8-0.1,3.9,0.4,5.6c0.7,2.2,4.1,2,4.9,0
	C1139.9,138.2,1139.5,135.8,1139.2,133.9z"/>
<path d="M1137.4,104.5c-0.1-0.3-0.3-0.5-0.5-0.7c-0.2-0.2-0.5-0.3-0.8-0.4c-0.3-0.1-0.6-0.2-0.9-0.2c-0.2,0-0.4,0.1-0.6,0.1
	c-0.4,0.1-0.7,0.3-1.1,0.6c-0.1,0.1-0.2,0.3-0.4,0.4c-0.2,0.3-0.3,0.7-0.3,1.1c0,0.3,0,0.6,0,0.8c0,0.3,0.1,0.6,0.2,0.8
	c0.1,0.3,0.3,0.5,0.5,0.7c0.2,0.2,0.5,0.3,0.8,0.4c0.3,0.1,0.6,0.2,0.9,0.1c0.2,0,0.4-0.1,0.6-0.1c0.4-0.1,0.7-0.3,1-0.6
	c0.1-0.1,0.2-0.3,0.4-0.4c0.2-0.3,0.3-0.7,0.3-1.1c0-0.3,0-0.6,0-0.8C1137.6,105,1137.5,104.7,1137.4,104.5z"/>
<g>
	<path d="M1163.7,140.9c-0.2-6.4-0.7-12.7-0.6-19.1c0-2.2-3.1-2.9-4.6-1.8c-1.3-2-3.2-3.5-5.7-3.5c-3.8-0.1-6.5,3.2-8.2,6.2
		c-1.5,2.7-3.1,6.8-2.1,9.9c0.7,2.2,3,3.9,5.2,4.4c2.3,0.6,4.8-0.3,6.7-1.6c1.2-0.9,2.3-1.9,3.3-3c0.3,6.7,0.6,13.3-0.2,19.9
		c-0.4,3.9-1.2,7.8-3.1,11.2c-0.9,1.5-1.5,2.3-2.7,3.4c-0.1,0.1-0.6,0.5-0.6,0.5c-0.1,0-0.6,0.3-0.7,0.4c-0.1,0.1-0.5,0.3-0.6,0.3
		c-0.1,0-0.6,0.2-0.8,0.2c0,0,0,0,0,0c-0.2,0-0.4,0-0.6,0c-0.1,0-0.2,0-0.3,0c-0.1,0-0.1,0-0.2,0c-0.2,0-0.3-0.1-0.5-0.1
		c0,0,0,0,0,0c0,0,0,0-0.1,0c-0.2-0.1-0.3-0.1-0.5-0.2c0,0-0.4-0.2-0.4-0.2c-1.8-1.2-3-3-4.1-4.8c-1.3-2-5.6-0.6-4.5,1.9
		c1.7,3.9,4.7,7.9,9.2,8.5c3.9,0.6,7.5-1.3,10.1-4.2C1163.8,161.9,1163.9,150.5,1163.7,140.9z M1152.9,130.3
		c-0.3,0.3-0.6,0.6-0.9,0.9c-0.2,0.2-0.4,0.3-0.6,0.5c0,0-0.1,0-0.1,0.1c-0.4,0.3-0.8,0.5-1.2,0.7c-0.2,0.1-0.4,0.1-0.6,0.2
		c0.3-0.1-0.9-0.1-0.1,0c-0.2,0-0.3-0.1-0.5-0.1c0,0,0,0-0.1,0c-0.1,0-0.1-0.1-0.2-0.1c0,0,0,0,0,0c-0.1-0.1-0.3-0.2-0.4-0.3
		c-0.1-0.1-0.1-0.1-0.2-0.1c0,0-0.1-0.1-0.1-0.2c0,0-0.2-0.2-0.3-0.3c0-0.1-0.1-0.2-0.1-0.3c0-0.1,0-0.1,0-0.2c0-0.2,0-0.5,0-0.7
		c0-0.1,0-0.1,0-0.2c0,0.1,0,0,0-0.2c0,0,0-0.1,0-0.1c0,0,0,0.1,0,0.1c0-0.1,0-0.1,0-0.1c0.2-1.3,0.6-2.6,1.1-3.9
		c0.1-0.1,0.2-0.5,0.3-0.6c0.2-0.4,0.4-0.7,0.6-1.1c0.3-0.6,0.7-1.1,1.1-1.7c0.1-0.1,0.4-0.4,0.4-0.5c0.2-0.2,0.4-0.4,0.6-0.6
		c0,0,0.1-0.1,0.2-0.1c0.1-0.1,0.2-0.1,0.2-0.2c0.1-0.1,0.2-0.1,0.3-0.1c0,0,0,0,0,0c0,0,0,0,0.1,0c0,0,0,0,0,0c0,0,0.1,0,0.1,0
		c0,0,0,0,0,0c0,0,0,0,0.1,0c0,0,0,0,0,0c0,0,0,0-0.1,0c0.2,0.1,0.6,0.2,0.2,0c0,0,0,0,0,0c0.1,0,0.3,0.1,0.3,0.2
		c0.2,0.2,0.2,0.1,0.1,0.1c0,0,0,0,0,0c0.1,0.1,0.3,0.2,0.4,0.4c0.1,0.1,0.1,0.1,0.1,0.1c0,0,0,0.1,0.1,0.1c1,1.2,1.7,2.5,2.2,4
		C1155.3,127.4,1154.1,129,1152.9,130.3z"/>
	<path d="M1147.5,129.9c0,0.1,0,0.1,0,0.2C1147.5,130,1147.5,130,1147.5,129.9C1147.5,129.9,1147.5,129.9,1147.5,129.9z"/>
	<path d="M1152.7,120.9C1152.6,120.9,1152.6,120.9,1152.7,120.9c-0.1,0-0.1,0-0.1,0C1152.4,120.9,1152.4,120.9,1152.7,120.9z"/>
</g>
<path d="M1191.5,139.9c-0.7-1.6-1.4-3.3-1.8-5.2c-0.5-2-0.7-4.1-1.2-6.2c-0.9-4.4-2.5-8.6-6-11.5c-0.8-0.7-2.3-1.1-3.3-0.5
	c-4,2.4-6,6.6-7.1,10.9c0,0,0,0.1,0,0.1c-2-12-1.5-24.4-3.2-36.4c-0.2-1.2-1.8-1.8-2.9-1.6c-1.3,0.3-1.9,1.3-1.7,2.5
	c1,8.2,1,16.5,1.5,24.8c0.5,8.2,1.3,16.7,4.2,24.4c1,2.7,4.9,2.3,5.4-0.5c0.7-3.7,0.9-7.5,1.8-11.2c0.4-1.8,1-3.8,1.8-5.5
	c0.3-0.6,0.8-1.4,1.3-2c1.8,2.4,2.5,5.5,3,8.5c0.7,3.8,1,8.4,3.5,11.5c0.9,1.1,2.3,1.6,3.7,1C1191.7,142.5,1192,141.2,1191.5,139.9z
	"/>
<path d="M1204.2,120.4c-1.5-0.1-3-0.1-4.5-0.1c-0.5-4-1-7.9-1.8-11.8c-0.8-4-1.7-8.2-3.7-11.8c-1-1.9-4.3-0.8-3.8,1.3
	c0.8,3.9,2.1,7.6,2.8,11.6c0.6,3.6,1.1,7.3,1.4,11c-1.7,0.1-3.5,0.4-5,1.1c-0.8,0.4-1.5,1.4-1.2,2.3c0.3,0.9,1.2,1.6,2.2,1.6
	c1.2,0,2.4-0.2,3.7-0.4c0.2,0,0.4-0.1,0.7-0.1c0.2,2.9,0.5,5.8,0.7,8.7c0.4,4,0.6,8.1,1.5,12.1c0.3,1.3,1.8,1.9,3,1.8
	c1.1-0.1,2.6-1,2.4-2.4c-0.5-4.1-1.2-8.2-1.7-12.3c-0.3-2.7-0.6-5.5-0.8-8.2c1.3,0,2.6,0,3.9,0.1c1.2,0,2.6-0.8,2.6-2.2
	C1206.7,121.4,1205.5,120.5,1204.2,120.4z"/>
<path d="M1222.8,113.2c-3.3,0-7.4,0.6-9.4,3.6c-1.6,2.4-1.3,5.6-0.7,8.3c0.7,3,1.8,5.8,2.8,8.7c0.4,1.3,0.8,2.6,1,4c0,0,0,0,0,0
	c0,0.1,0,0.2,0,0.3c0,0.3,0,0.6,0,0.9c0,0.2,0,0.5-0.1,0.7c0,0.1-0.1,0.2-0.1,0.4c0,0.1-0.1,0.2-0.1,0.2c-0.1,0.1-0.1,0.2-0.2,0.3
	c-0.1,0.1-0.2,0.1-0.2,0.2c-0.1,0-0.3,0.1-0.4,0.2c0,0,0,0,0,0c-0.4,0.1-0.7,0.2-1.1,0.2c-0.1,0-0.2,0-0.2,0c-0.2,0-0.4,0-0.6,0
	c-1.4,0.1-2.7-0.1-4,0.2c-1.8,0.4-2.4,2.9-0.6,3.7c3.2,1.5,8.5,1.2,11.1-1.4c2.2-2.1,2-5.3,1.4-8c-0.7-2.9-1.9-5.7-3-8.5
	c-0.5-1.4-1-2.8-1.3-4.3c-0.1-0.3-0.1-0.6-0.2-0.9c0,0,0-0.1,0-0.2c0-0.1,0-0.3,0-0.4c0-0.6,0-1.2,0-1.8c0,0,0,0,0,0c0,0,0,0,0-0.1
	c0.1-0.2,0.1-0.3,0.1-0.5c0-0.1,0.1-0.3,0.1-0.4c0,0,0,0,0,0c0,0,0,0,0,0c0.1-0.2,0.4-0.5,0.4-0.5c0.2-0.1,0.3-0.3,0.5-0.4
	c0.1,0,0.6-0.3,0.8-0.4c0.1,0,0.1,0,0.1,0c0,0,0.1,0,0.1,0c0.2-0.1,0.4-0.1,0.6-0.2c1.3-0.3,1.6-0.3,3-0.3
	C1225.5,116.9,1225.6,113.2,1222.8,113.2z"/>
<g>
	<g>
		<path d="M937.7,180.1C937.7,180,937.8,180,937.7,180.1C937.5,180.3,937.6,180.2,937.7,180.1z"/>
		<path d="M956,204.3c-1.8-2.6-2.8-5-3.6-8.1c-0.9-3.4-1.3-6.9-1.6-10.4c-0.3-4-0.3-8-0.3-12.1c0.2-2.6,0.2-5.2,0.1-7.7
			c0-0.4,0-0.8-0.1-1.2c-0.2-1.4-1.2-2.5-2.7-2.5c-1.4,0-2.8,1-2.8,2.4c-0.1,3.4-0.1,6.8-0.2,10.2c-0.1,1-0.1,1.9-0.2,2.9
			c-1.3-0.6-2.9-0.6-4.4,0.3c-0.6,0.4-1.2,0.8-1.7,1.3c-0.1,0.1-0.2,0.2-0.3,0.3c-0.1,0.1-0.3,0.3-0.4,0.4c-0.3,0.3-0.6,0.7-0.9,1
			c-1,1.2-1.9,2.6-2.6,4c-1.8,3.2-3.2,6.6-4,10.2c-0.3,1.2-0.5,2.4-0.6,3.7c-0.3-1.1-0.5-2.1-0.7-3.2c-0.3-2.6-0.4-5.3-0.5-8
			c-0.2-5.3-0.8-10.8-4.4-14.9c-1-1.1-2.3-1.4-3.6-0.8c-2.7,1.2-4.4,3.4-5.3,5.9c-0.2-0.3-0.3-0.7-0.5-1c-0.7-1.2-2.1-1.3-3.1-0.7
			c0.1-3.4-0.1-7.6-2.6-10.2c-2.1-2.2-5.2-2.1-7.8-1c-2.9,1.2-5.2,3.7-7.1,6c-2.3,2.8-4.1,6-5.5,9.3c-1.4,3.2-2.3,6.9-2.2,10.4
			c0.1,3.5,1.4,7.5,3.9,10c2.1,2.2,5.3,2.5,7.9,1c2.7-1.6,4.6-4.4,6.2-7c0.3-0.5,0.5-0.9,0.7-1.4c0.7,3,2,5.8,5.1,6.3
			c1.2,0.2,2.6-0.2,3.1-1.4c0.5-1.1,0-2.4-1.1-2.9c0,0-0.1,0-0.1-0.1c0,0,0,0.1,0.1,0.1c0,0-0.1-0.1-0.1-0.1
			c-0.1-0.1-0.2-0.1-0.2-0.1c0,0,0,0,0,0c0,0-0.1,0-0.1-0.1c-0.1-0.1-0.2-0.2-0.3-0.4c-0.1-0.1-0.2-0.3-0.3-0.4
			c0.4,0.6,0-0.1-0.1-0.2c-0.1-0.4-0.3-0.8-0.4-1.2c-0.1-0.5-0.2-1-0.3-1.5c0-0.1,0-0.1,0-0.2c0,0,0-0.1,0-0.2
			c0-0.3-0.1-0.6-0.1-0.9c-0.1-1.2-0.2-2.4-0.2-3.6c0-2.2,0.1-4.4,0.2-6.6c0.1-0.2,0.1-0.5,0.2-0.7c0,0,0,0,0,0
			c2.4,4.3,2.8,9.5,3.6,14.3c0,0,0,0,0,0l0,0c0,0.2,0.1,0.4,0.1,0.6c0.2,1.2,1.9,1.8,2.9,1.6c1.2-0.2,2.2-1,2.3-2.3
			c0-3.4-0.4-6.8,0-10.2c0.1-1.4,0.5-3.2,1-4.2c0.2-0.4,0.5-0.9,0.7-1.2c1.7,3.5,1.8,7.7,1.9,11.6c0.1,2.6,0.1,5.2,0.5,7.7
			c0.4,2.7,1.1,5.7,3.2,7.7c1.1,1.1,3,0.7,3.8-0.4c0.1,0.2,0.1,0.3,0.2,0.5c1.8,2.9,5.8,4.5,9,3.1c3-1.3,4.6-4.6,5.8-7.4
			c0.4-1,0.8-2.1,1.1-3.1c0.2,0.7,0.4,1.4,0.6,2c0.9,3,2.2,5.8,4.3,8.1C953.4,209.3,957.8,206.8,956,204.3z M905.7,172.5
			c-0.4,2.1-0.7,4.2-0.9,6.4c-0.1,0.3-0.2,0.7-0.3,1c-0.8,3.1-2,6.1-3.3,9c-0.1,0.1-0.3,0.6-0.4,0.8c-0.2,0.3-0.3,0.7-0.5,1
			c-0.4,0.7-0.8,1.4-1.2,2.1c-0.4,0.6-0.7,1.2-1.1,1.7c-0.2,0.3-0.4,0.5-0.6,0.8c-0.1,0.1-0.2,0.2-0.2,0.3c0,0.1-0.1,0.1-0.1,0.2
			c-0.4,0.4-0.7,0.8-1.1,1.1c-0.2,0.2-0.4,0.3-0.6,0.5c0.6-0.5-0.1,0-0.3,0.1c0,0-0.1,0-0.1,0.1c-0.1,0-0.1,0-0.2,0c0,0,0,0,0,0
			c0.1,0-0.3-0.2-0.4-0.3c-0.1,0-0.1-0.1-0.1-0.1c0,0-0.1-0.1-0.1-0.2c-0.2-0.3-0.4-0.6-0.6-0.9c-0.1-0.1-0.3-0.6-0.4-0.7
			c-0.2-0.3-0.3-0.7-0.4-1c-0.3-0.8-0.6-1.5-0.7-2.3c0-0.1,0-0.2-0.1-0.4c0-0.1,0-0.1,0-0.2c0-0.3-0.1-0.6-0.1-0.9
			c0-0.8,0-1.5,0-2.3c0-0.3,0.1-0.6,0.1-1c0-0.1,0.1-0.7,0.1-0.8c0.2-0.8,0.3-1.6,0.6-2.3c1.6-5.5,4.8-11,9.2-14.5
			c0.1-0.1,0.6-0.4,0.6-0.4c0.2-0.1,0.4-0.3,0.6-0.4c0.3-0.1,0.5-0.3,0.8-0.4c0.1,0,0.2-0.1,0.3-0.1c0.4-0.1,0.8-0.1,0.2-0.1
			c0.2,0,0.3,0,0.5,0c0,0,0,0,0.1,0c0,0,0,0,0,0c0,0,0.1,0,0.1,0c0,0-0.1,0-0.1,0c0,0,0,0,0.1,0c0,0,0,0,0,0c-0.1,0-0.1,0-0.2,0
			c-0.4,0-0.1,0,0.2,0.1c0.1,0.1,0.3,0.2,0.4,0.3c0.1,0.1,0.2,0.2,0.2,0.3c0.1,0.1,0.1,0.2,0.2,0.3c0,0,0.1,0.1,0.1,0.1
			c0,0,0,0,0,0.1c0.1,0.3,0.3,0.6,0.4,0.9c0.1,0.3,0.1,0.5,0.2,0.8C906.1,171.6,905.8,172,905.7,172.5z M940.3,198.9
			c-0.1,0.3-0.3,0.7-0.4,1c-0.1,0.2-0.1,0.3-0.2,0.4c0,0,0,0.1-0.1,0.1c-0.3,0.6-0.7,1.2-1.1,1.7c-0.2,0.2-0.3,0.4-0.5,0.6
			c0.5-0.6,0,0-0.2,0.2c-0.1,0.1-0.1,0.1-0.2,0.2c-0.1,0-0.3,0.1-0.4,0.1c-0.1,0-0.2,0-0.2-0.1c-0.2-0.1-0.4-0.2-0.5-0.2
			c-0.1,0-0.2-0.1-0.2-0.1c0,0-0.1-0.1-0.2-0.1c-0.2-0.2-0.4-0.4-0.6-0.6c0.5,0.4,0.2,0.2,0-0.2c0-0.1-0.1-0.1-0.1-0.1
			c0,0,0-0.1,0-0.1c-0.1-0.3-0.2-0.5-0.2-0.8c0-0.1,0-0.2-0.1-0.3c0,0,0,0,0,0c0-0.7-0.1-1.3,0-2c0-0.3,0.1-0.7,0.1-1
			c0-0.2,0-0.3,0.1-0.5c0,0,0-0.1,0-0.1c0,0,0,0,0-0.1c0.2-0.8,0.3-1.5,0.5-2.3c0.4-1.6,1-3.1,1.6-4.6c0.1-0.4,0.3-0.7,0.5-1.1
			c0.1-0.2,0.2-0.4,0.3-0.6c0-0.1,0.1-0.2,0.1-0.3c0,0,0,0,0,0c0.1-0.1,0.1-0.2,0.2-0.3c0,0,0,0,0-0.1c0.1-0.2,0.2-0.3,0.3-0.5
			c0.2-0.3,0.4-0.7,0.6-1c0.7-1.2,1.5-2.4,2.4-3.5c0.1-0.1,0.4-0.4,0.4-0.5c0.1-0.1,0.3-0.3,0.4-0.4c0.1-0.1,0.1-0.1,0.2-0.2
			c0,0,0,0,0,0.1c0.1,0.3,0.1,0.6,0.2,0.8c0,0.1,0,0.2,0.1,0.4c0,0,0,0.3,0,0.4c0.2,2.2,0.1,4.3-0.1,6.5c0,0.2,0,0.3,0,0.5
			c-0.2,1.2-0.5,2.4-0.8,3.5C941.5,195.6,940.9,197.3,940.3,198.9z"/>
	</g>
	<path d="M904.9,168.5C904.9,168.4,904.9,168.4,904.9,168.5c-0.1,0-0.1,0-0.1,0C904.8,168.5,904.8,168.5,904.9,168.5
		C904.8,168.5,904.9,168.5,904.9,168.5z"/>
	<path d="M912.1,195C912.1,195,912.1,195,912.1,195c-0.1-0.1-0.2-0.2-0.2-0.1C912,194.9,912,195,912.1,195z"/>
</g>
<path d="M1000.4,184.9c-2.3-0.2-4.6-0.1-6.8,0.1c-0.9-5.8-1.5-11.7-0.8-17.6c0.1-1.2-0.5-2.2-1.8-2.5c-1-0.2-2.7,0.4-2.8,1.6
	c-0.9,6.4-0.6,12.8,0.2,19.2c0,0,0,0-0.1,0c-1.4,0.3-2.9,0.5-4.1,1.2c-0.8,0.5-1.4,1.5-1,2.4c0.3,1,1.4,1.5,2.4,1.5
	c1.2,0,2.3-0.3,3.5-0.6c0.5,3.2,1,6.5,1.3,9.7c0.2,1.8,0.4,3.5,0.5,5.3c0.1,2,0,4,0.5,6c0.5,2.4,4.7,2,5.2-0.2
	c0.4-1.9,0.2-3.9,0-5.7c-0.1-1.8-0.3-3.5-0.6-5.3c-0.5-3.5-1.1-7-1.6-10.5c2.1-0.2,4.2-0.3,6.3-0.2c1.2,0.1,2.5-1,2.4-2.3
	C1002.9,185.6,1001.6,185,1000.4,184.9z"/>
<path d="M1025.7,210.6c-1-4-1.8-8-2.5-12.1c-0.8-4.1-1.7-8.2-3.3-12.1c-0.6-1.4-2-2-3.4-1.6c-4,0.9-6.2,3.3-7.4,6.5
	c-1.5-7.3-2.8-14.6-3.8-21.9c-0.2-1.2-1.1-2-2.3-1.9c-1,0-2.4,0.9-2.2,2c1.8,13.5,4.1,27,6.9,40.4c0.3,1.3,2,1.9,3.1,1.7
	c1.4-0.2,2.2-1.1,2.4-2.5c0.4-4-0.1-8.1,0.3-12.2c0.1-0.8,0.2-1.6,0.5-2.7c0.1-0.5,0.3-1,0.4-1.5c0,0,0.1-0.3,0.2-0.4
	c0.1-0.1,0.2-0.4,0.2-0.5c0.2-0.3,0.4-0.7,0.6-1c0.1-0.1,0.2-0.2,0.2-0.3c0,0,0,0,0,0c1,3,1.6,6,2.1,9.1c0.7,4.1,1.2,8.4,2.7,12.3
	C1021.5,215,1026.5,213.9,1025.7,210.6z"/>
<g>
	<path d="M1037.4,189.1C1037.4,189.1,1037.4,189.1,1037.4,189.1C1037.4,189.1,1037.4,189.1,1037.4,189.1
		C1037.4,189.1,1037.4,189.1,1037.4,189.1z"/>
	<path d="M1041.9,209.6C1041.7,209.7,1041.7,209.7,1041.9,209.6L1041.9,209.6z"/>
	<path d="M1048.8,207.1c-1.1-0.7-2.3-0.5-3.3,0.2c-0.1,0.1-0.2,0.2-0.4,0.3c0,0,0.3-0.2,0.1-0.1c-0.3,0.2-0.6,0.4-1,0.7
		c-0.2,0.1-0.4,0.3-0.5,0.4c-0.1,0.1-0.1,0.1-0.2,0.2c-0.3,0.2-0.6,0.4-1,0.6c-0.2,0.1-0.3,0.2-0.5,0.2c-0.1,0-0.1,0.1-0.2,0.1
		c0,0,0.1,0,0.2-0.1c-0.3,0.1-0.6,0.2-0.9,0.3c-0.1,0-0.2,0-0.3,0.1c-0.2,0-0.5,0-0.7,0c-0.1,0-0.2-0.1-0.4-0.1
		c0.3,0.1-0.1,0-0.2-0.1c-0.1,0-0.3-0.2-0.5-0.3c0,0-0.1-0.1-0.1-0.1c-0.1-0.1-0.2-0.2-0.3-0.3c-0.2-0.2-0.4-0.4-0.7-0.6
		c0.6,0.5,0,0-0.2-0.3c-0.2-0.3-0.4-0.6-0.6-0.9c-0.2-0.3-0.3-0.5-0.4-0.8c0,0,0,0,0,0c-0.1-0.2-0.2-0.3-0.2-0.5
		c-0.6-1.4-1-2.8-1.3-4.2c0-0.2-0.1-0.4-0.1-0.5c0,0,0,0,0,0c-0.1-0.4-0.1-0.8-0.2-1.2c-0.1-0.8-0.1-1.5-0.1-2.3c0,0,0,0,0,0
		c4-2.2,7.4-5.4,8.2-10.2c0.2-0.9-0.2-2.1-1.2-2.5c-3.5-1.3-7.1-0.7-9.4,2.3c-1.8,2.3-2.5,5.5-2.7,8.4c-0.4,0.2-0.7,0.3-1.1,0.5
		c-1,0.5-1.4,1.8-0.8,2.7c0.4,0.6,1.1,0.9,1.8,0.9c0.2,2.3,0.6,4.7,1.4,6.8c1.1,3,3,6.1,6.1,7.4c1.9,0.8,4,0.9,6,0.3
		c1.1-0.3,2.1-0.8,3.1-1.4c0.6-0.4,1.2-0.8,1.7-1.3c0.3-0.3,0.6-0.6,0.9-0.9c0.1-0.1,0.2-0.3,0.1-0.1c0.2-0.2,0.4-0.4,0.6-0.7
		C1050.2,209,1049.7,207.7,1048.8,207.1z M1036,191c0-0.1,0.1-0.2,0.1-0.2c0.2-0.3,0.3-0.5,0.5-0.8c0.1-0.1,0.2-0.2,0.2-0.3
		c0.1-0.1,0.4-0.3,0.6-0.5c-0.2,0.1-0.3,0.1,0,0c0,0,0,0,0,0c0,0,0,0,0-0.1c0,0,0,0,0,0c0,0,0,0,0,0c-0.4,1.1-1.1,2-1.9,2.8
		c0.1-0.2,0.2-0.5,0.3-0.7C1035.9,191.1,1035.9,191,1036,191z"/>
</g>
<path d="M1087.1,213.1c-0.5-1.1-1.6-1.3-2.7-1.2c-0.9,0.1-1.5,0.2-2.3,0.3c-0.1,0-0.3,0-0.4,0.1c0,0-0.1,0-0.1,0c-0.4,0-0.8,0-1.1,0
	c-0.3,0-0.6,0-1,0c-0.1,0-0.1,0-0.1,0c0,0-0.1,0-0.2,0c-0.3-0.1-0.5-0.1-0.8-0.2c-0.1,0-0.7-0.2-0.8-0.2c-0.4-0.2-0.8-0.4-1.1-0.6
	c-0.1-0.1-0.2-0.1-0.2-0.1c0,0,0,0-0.1-0.1c-0.2-0.2-0.5-0.4-0.7-0.6c-0.2-0.2-0.3-0.3-0.5-0.5c0,0,0,0-0.1-0.1
	c-0.1-0.1-0.1-0.2-0.2-0.2c-0.3-0.4-0.6-0.9-0.9-1.4c-0.1-0.2-0.2-0.4-0.3-0.6c0-0.1-0.2-0.5-0.2-0.5c-0.2-0.5-0.4-1.1-0.5-1.7
	c-0.1-0.3-0.1-0.6-0.2-0.9c0-0.2-0.1-0.7-0.1-0.6c0-0.2-0.1-1.2-0.1-1.8c0-0.1,0-0.1,0-0.2c4.5,1.7,9.2-1.8,11.5-5.6
	c1.9-3.1,4-9,0.6-11.9c-2.1-1.8-5-1.2-7.2,0c-2.8,1.5-5.3,3.7-7,6.3c-3.2,5.1-4.2,12-2,17.6c1.2,3.1,3.3,5.8,6.3,7.3
	c3.5,1.7,8.2,1.8,11.6-0.1C1087,215.1,1087.5,214.1,1087.1,213.1z M1077.5,189.9c1-0.8,1.6-1.2,2.9-1.8c0.1,0,0.1-0.1,0.2-0.1
	c0.1,0,0.2-0.1,0.3-0.1c0,0.1,0,0.2,0.1,0.2c0,0,0,0,0,0c0,0.2,0,0.3,0,0.5c0,0.4,0,0.8-0.1,1.1c0,0,0,0.1,0,0.1
	c0,0.2-0.1,0.5-0.1,0.7c-0.2,0.9-0.5,1.7-0.9,2.6c0,0.1-0.1,0.2-0.1,0.2c0,0,0,0,0,0c0,0,0,0,0,0c-0.1,0.2-0.3,0.5-0.4,0.7
	c-0.3,0.5-0.6,0.9-0.9,1.3c-0.2,0.2-0.3,0.4-0.5,0.6c0,0,0,0,0,0c0,0-0.1,0.1-0.1,0.1c-0.4,0.4-0.7,0.7-1.1,1
	c-0.1,0-0.1,0.1-0.1,0.1c0,0-0.1,0-0.1,0c-0.2,0.1-0.4,0.2-0.6,0.3c-0.1,0-0.1,0.1-0.1,0.1c0,0,0,0-0.1,0c-0.2,0-0.5,0.1-0.7,0.2
	c0,0,0,0,0,0c0,0-0.1,0-0.1,0c-0.1,0-0.3,0-0.5,0c-0.2,0-0.4-0.1-0.5-0.1c-0.3-0.1-0.6-0.1-0.9-0.2c-0.1,0-0.2,0-0.3-0.1
	c0.2-0.7,0.4-1.5,0.8-2.3C1074.4,193.3,1075.7,191.3,1077.5,189.9z"/>
<g>
	<path d="M1097.5,207.5C1097.5,207.5,1097.6,207.4,1097.5,207.5C1097.6,207.4,1097.5,207.5,1097.5,207.5
		C1097.5,207.5,1097.5,207.5,1097.5,207.5z"/>
	<path d="M1111.7,206.7c-1.1-2.8-2.4-5.3-3.1-8.2c-0.7-2.8-1-5.7-0.9-8.6c0.1-1.8-1.6-2.6-3-2.4c-0.3-1-0.6-2-1-3
		c-0.3-0.8-1.6-1.2-2.4-1c-3.8,1-5.8,5.3-7.2,8.5c-1.7,4-3,8.7-2.6,13.1c0.2,2,0.7,3.9,2,5.4c1.4,1.5,3.6,2.1,5.5,1.6
		c3.2-0.8,4.9-4.2,5.9-7.4c0.6,1.5,1.4,2.8,2.4,4C1108.7,210.3,1112.6,209,1111.7,206.7z M1101.5,195.9c-0.1,0.4-0.1,0.8-0.2,1.2
		c0,0-0.1,0.4-0.1,0.5c0,0.2-0.1,0.5-0.2,0.7c-0.4,1.9-0.9,3.8-1.5,5.6c-0.3,0.7-0.5,1.4-0.9,2.1c0,0.1-0.3,0.5-0.4,0.6
		c-0.1,0.2-0.6,0.8-0.6,0.8c-0.1,0.1-0.1,0.1-0.2,0.2c0.1-0.1,0.1,0,0,0.1c0,0,0,0,0,0c0,0,0,0,0,0c0,0,0,0,0,0c0,0,0,0,0,0
		c-0.1,0-0.1-0.1-0.1-0.1c0,0,0,0,0,0c-0.1-0.1-0.2-0.3-0.2-0.4c0,0,0,0,0,0c0-0.1-0.1-0.2-0.1-0.4c-0.1-0.4-0.2-0.9-0.3-1.3
		c0,0,0-0.2,0-0.3c0-0.1,0-0.3,0-0.3c0-0.4,0-0.9,0-1.3c0-1,0.1-1.9,0.2-2.9c0.2-1.8,0.7-3.6,1.3-5.5c0.6-1.9,1.4-3.9,2.4-5.4
		c0.1-0.2,0.3-0.4,0.4-0.6c0.5,1.6,0.7,3.3,0.9,5C1101.7,194.5,1101.6,195.2,1101.5,195.9z"/>
	<polygon points="1097.4,207.5 1097.4,207.5 1097.4,207.5 1097.4,207.5 	"/>
</g>
<g>
	<path d="M1122.2,189.4c0,0,0.1,0,0.2-0.1c0,0,0,0-0.1,0C1122.3,189.4,1122.2,189.4,1122.2,189.4z"/>
	<path d="M1123.9,185.2c-0.3-0.1-0.5-0.2-0.8-0.3c1,0.3-0.2-0.1-0.4-0.1c-0.6-0.2-1.3-0.1-2,0c-0.9,0.2-1.7,0.7-2.4,1.2
		c-1.3,1.1-2.1,2.6-2.7,4.2c-0.1,0.1-0.1,0.3-0.1,0.4c-0.3-1-1.8-1.4-2.7-1.2c-1.2,0.3-1.8,1.3-1.6,2.4c0.7,4.7,1.4,9.4,2.2,14.1
		c0.5,2.5,5.2,2.1,5-0.5c-0.1-1.6,0-3.1,0.2-4.7c0.1-0.5,0.1-1,0.2-1.5c0-0.3,0.1-0.5,0.1-0.8c0-0.1,0.1-0.4,0.1-0.5
		c0.2-0.9,0.4-1.9,0.6-2.8c0.2-0.9,0.5-1.8,0.8-2.7c0.2-0.4,0.4-0.9,0.5-1.3c0,0,0,0,0,0c0,0,0-0.1,0.1-0.1c0.1-0.2,0.2-0.4,0.3-0.5
		c0.1-0.1,0.4-0.8,0.6-0.8c-0.3,0.3-0.3,0.4-0.2,0.2c0.1-0.1,0.1-0.1,0.2-0.2c0,0,0.1-0.1,0.1-0.1c0,0,0,0,0.1-0.1c0,0,0,0,0,0
		c0,0,0,0,0,0c0,0,0,0,0,0c0,0,0,0,0.1,0c0,0,0,0,0,0c0,0,0,0,0,0c0.2,0,0.3-0.1,0.5-0.1c0.9-0.1,1.8-0.6,2.1-1.5
		C1125.3,186.7,1124.8,185.6,1123.9,185.2z"/>
</g>
<path d="M1131.3,209.7c-0.4-1.6-0.7-3.2-0.9-4.9c-0.5-3.6-0.5-7.4-0.4-11c0.1-7.3,0.8-14.5,0.8-21.8c0-2.5-4.4-2.7-4.5-0.1
	c-0.1,7.5-1.2,14.9-1.5,22.3c-0.2,3.8-0.1,7.6,0.3,11.4c0.2,1.8,0.5,3.7,1,5.5c0.4,1.7,0.9,3.8,2.2,5c1.3,1.3,4.5,0.7,4.5-1.5
	C1132.7,213.1,1131.7,211.4,1131.3,209.7z"/>
<path d="M1151.3,190.5c0.1-1.3-1.4-2.2-2.4-2.3c-1.2-0.1-2.6,0.5-2.9,1.8c-0.7,2.7-1.6,5.4-2.6,8.1c-0.4,0.9-0.7,1.7-1.3,2.7
	c-0.2,0.4-0.5,0.8-0.7,1.2c-0.1,0.1-0.2,0.2-0.2,0.3c0,0-0.1-0.1-0.1-0.1c-1.6-2.2-2.4-5.4-3-8.1c-0.5-2.3-4.6-1.3-4,1.1
	c0.7,3.2,1.2,7,3.3,9.7c1.5,2,4.1,2.8,6.3,1.5c0.1-0.1,0.2-0.1,0.3-0.2c-1.9,15-3.7,30-3.2,45.1c0.1,3.3,5.8,3.1,5.7-0.2
	C1145.7,230.8,1149.1,210.6,1151.3,190.5z"/>
<path d="M919.8,260c-0.8-5.1-2.5-10-6.2-13.8c-1.1-1.1-2.8-0.6-3.8,0.1c-1.1,0.8-2,1.9-2.8,3c-1.3-3.1-3.1-6-5.8-8
	c-1.1-0.8-2.8-0.8-3.8,0.1c-0.9,0.9-1.7,1.8-2.4,2.7c-0.1-1.2-0.3-2.3-0.4-3.5c-0.2-1.2-1.1-2-2.4-2c-1.1,0-2.2,0.4-2.6,1.5
	c-0.2,0.5-0.2,1-0.1,1.4c0,0.1,0.1,0.2,0.1,0.3c-0.2,0.6,0,1.1,0.4,1.5c0.1,4.1,0.3,8.2,0.3,12.3c0.1,5,0,9.9,0.2,14.9
	c0.1,3.2,5.5,3,5.5-0.2c0-7.7-1.3-17.1,3.4-23.7c2.2,2.8,3.3,6.6,4.1,10.1c0.2,0.8,0.3,1.7,0.4,2.5c-0.3,4,0.1,8.1,0.7,12.1
	c0.5,3.2,5.5,3.1,5.6-0.2c0.1-4.1-0.2-8.3-0.9-12.4c0.1-1.7,0.5-3.4,1.1-5.1c0.2-0.6,0.5-1.3,0.9-1.8c1.6,2.8,2.4,6.2,2.8,9.3
	c0.6,4.6,0.5,9.2,0.6,13.8c0,3.2,5.2,2.9,5.4-0.2C920.7,269.9,920.6,264.9,919.8,260z"/>
<path d="M942.6,257.6c-1.2-5.1-4.1-10.2-8.7-12.9c-1-0.6-2.4-0.2-3.3,0.5c-1.4,1.1-2.3,2.6-2.9,4.2c-0.2,0.6-0.1,1.1,0.1,1.5
	c-2.9,2.2-4.5,5.9-5.1,9.3c-0.6,4.1-0.3,9,3.1,11.9c3.9,3.3,10.5,2.2,14-1.2C943.5,267.4,943.7,262.2,942.6,257.6z M937.8,263.6
	c0,0.1,0,0.1,0,0.1c0,0,0,0.1,0,0.1c0,0.2-0.1,0.4-0.1,0.7c-0.2,1-0.4,1.5-0.8,2.1c-0.1,0.2-0.2,0.4-0.3,0.5c0,0-0.1,0.2-0.2,0.3
	c-0.3,0.3-0.6,0.6-0.9,0.8c0,0-0.1,0.1-0.1,0.1c0,0-0.1,0-0.1,0.1c-0.1,0.1-0.3,0.2-0.4,0.2c-0.2,0.1-0.4,0.2-0.5,0.3
	c0,0-0.6,0.2-0.7,0.2c-0.3,0.1-0.5,0.1-0.8,0.2c0,0-0.4,0.1-0.5,0.1c-0.3,0-0.7,0-1,0c0.1,0-0.6-0.1-0.7-0.1c-0.1,0-0.2,0-0.3-0.1
	c-0.2-0.1-0.4-0.2-0.5-0.3c0,0,0,0,0,0c0,0,0,0,0,0c-0.1-0.1-0.3-0.2-0.4-0.3c0,0-0.2-0.2-0.2-0.2c-0.1-0.1-0.2-0.2-0.2-0.3
	c-0.2-0.3-0.4-0.5-0.5-0.8c0,0,0,0,0-0.1c0,0,0-0.1,0-0.1c-0.1-0.2-0.2-0.5-0.3-0.7c-0.5-1.5-0.7-2.9-0.6-4.7
	c0.1-1.7,0.5-3.7,1.3-5.5c0.6-1.3,1.5-2.6,2.6-3.3c0.8-0.5,1-1.1,0.9-1.8c0.1-0.1,0.2-0.2,0.3-0.3c0.2-0.3,0.3-0.5,0.5-0.8
	c0,0,0.2,0.2,0.3,0.3c0.1,0.1,0.2,0.3,0.3,0.4c0.3,0.4,0.6,0.7,0.9,1.1c1.2,1.7,1.8,3,2.5,4.9c0.7,2,1,3.3,1,5.4
	C937.8,262.7,937.8,263.2,937.8,263.6z"/>
<path d="M962.6,250.8c-1.9-1.5-4.5-2.4-6.9-1.8c-2,0.5-3.6,1.9-4.6,3.6c-0.6,1-1.1,2.1-1.4,3.3c-0.5-2-1-3.9-1.6-5.8
	c-0.8-2.6-5.4-1.7-4.6,1c1.9,6.3,2.9,12.8,4.6,19.2c0.7,2.6,5,2.2,5.2-0.5c0.2-3,0.3-6.1,0.8-9.1c0,0,0-0.1,0-0.1c0,0,0,0,0-0.1
	c0-0.2,0.1-0.5,0.1-0.7c0.1-0.4,0.2-0.9,0.3-1.3c0.2-0.8,0.5-1.6,0.8-2.4c0.1-0.2,0.2-0.3,0.2-0.5c0,0,0,0,0,0c0,0,0,0,0,0
	c0.2-0.3,0.4-0.6,0.6-0.9c0,0,0.1-0.2,0.2-0.3c0,0,0.1,0,0.1-0.1c0.1-0.1,0.2-0.2,0.3-0.3c0,0,0,0,0,0c0.1,0,0.3-0.1,0.4-0.2
	c0,0,0,0,0,0c0,0,0,0,0.1,0c0.2,0,0.3,0,0.5,0c0,0,0,0,0,0c0.2,0.1,0.4,0.1,0.6,0.2c0.5,0.2,1.1,0.3,1.6,0.5
	C962.1,255.1,964.5,252.4,962.6,250.8z"/>
<g>
	<path d="M977,246.3C977,246.3,976.9,246.3,977,246.3L977,246.3C976.9,246.3,977,246.3,977,246.3C977,246.3,977,246.3,977,246.3z"/>
	<path d="M977,246.3C977,246.3,977,246.3,977,246.3C977,246.3,977,246.3,977,246.3C976.9,246.3,976.9,246.3,977,246.3
		C976.9,246.3,976.9,246.3,977,246.3c-0.1,0.1-0.1,0.1-0.2,0.1C976.8,246.4,976.9,246.3,977,246.3
		C977.1,246.4,977.1,246.4,977,246.3C977,246.3,977,246.3,977,246.3C977,246.3,977,246.3,977,246.3z"/>
	<path d="M985.5,262.1c-0.3-5.4-0.5-11.5-2.9-16.5c-1-2.1-2.8-3.8-5.1-4c-2.4-0.2-4.5,1.1-6,3c-0.1,0.2-0.3,0.4-0.4,0.5
		c-0.2-0.1-0.5-0.2-0.7-0.2c-3.9,0.1-3.1,6.4-3.1,8.9c0,1.1,0.1,2.1,0.1,3.2c-0.1,1.1-0.3,2.1-0.4,3.2c-0.3,3-0.3,6.1-0.1,9.2
		c0.2,2.2,0.3,4.8,1.6,6.7c1.3,1.8,4.8,1.6,5-1c0.3-3.7-0.4-7.6-0.7-11.2c-0.1-1.4-0.3-2.7-0.4-4.1c0.3-3.9,1-7.6,2.7-11.2
		c0.1-0.1,0.1-0.2,0.2-0.3c0.1-0.2,0.2-0.3,0.3-0.5c0.1-0.2,0.3-0.4,0.4-0.6c0-0.1,0.3-0.3,0.3-0.4c0.1-0.1,0.1-0.1,0.2-0.2
		c0.1-0.1,0.1-0.1,0.2-0.2c-0.1,0,0-0.1,0.1-0.1c0,0,0,0,0,0c0,0,0,0,0,0c0,0,0,0,0,0c0,0,0,0,0,0c0,0,0-0.1-0.1-0.1c0,0,0,0,0,0
		c0,0,0.1,0,0.1,0.1c0,0,0,0,0,0c0,0,0,0,0,0c0,0,0,0,0,0c0,0,0,0,0,0c0,0,0,0,0,0c0,0,0,0,0,0c0,0,0,0,0,0c0,0,0,0,0,0l0,0
		c0,0,0.1,0.1,0.1,0.1c0-0.1,0-0.1,0,0c0.2,0.4,0.5,0.7,0.7,1.1c0,0.1,0.1,0.2,0.1,0.3c0.1,0.2,0.2,0.4,0.2,0.6
		c0.2,0.5,0.3,1,0.5,1.5c0.3,1.2,0.5,2.4,0.7,3.6c0.4,2.6,0.6,4.8,0.7,7.6c0.2,4.8,0.2,9.7,0.1,14.5c-0.1,3.1,5.4,3.4,5.5,0.3
		C985.7,271.3,985.8,266.7,985.5,262.1z"/>
	<path d="M977.1,246.4C977.1,246.4,977.1,246.4,977.1,246.4C977.1,246.5,977.2,246.7,977.1,246.4z"/>
</g>
<path d="M994.7,271.3c0-1.1-0.1-2.2-0.2-3.3c-0.1-2-0.4-4.1-0.6-6.1c-0.6-4.2-1.3-8.4-2.2-12.6c-0.2-1.2-1.9-1.7-2.9-1.4
	c-1.2,0.3-1.8,1.3-1.6,2.5c0.7,4,1.3,8,1.8,12c0.2,2,0.3,4.1,0.4,6.1c0,0.9,0,1.9,0,2.8c0,1.1-0.2,2.3,0.2,3.4
	c0.7,2.2,4,1.9,4.8-0.1C994.9,273.6,994.8,272.4,994.7,271.3z"/>
<path d="M993.5,239.3c-0.1-0.4-0.3-0.7-0.6-0.9c-0.3-0.3-0.5-0.6-0.8-0.9c-0.2-0.2-0.5-0.4-0.8-0.5c-0.3-0.1-0.6-0.2-0.9-0.2
	c-0.3,0-0.6,0-0.9,0.2c-0.3,0.1-0.6,0.2-0.8,0.4c-0.1,0.1-0.3,0.3-0.4,0.4c-0.2,0.3-0.3,0.7-0.4,1.1c0,0.2,0,0.4,0.1,0.6
	c0.1,0.4,0.3,0.7,0.6,1c0.3,0.3,0.6,0.5,0.9,0.8c0.2,0.2,0.5,0.4,0.7,0.5c0.3,0.1,0.6,0.2,0.9,0.2c0.3,0,0.6,0,0.9-0.2
	c0.3-0.1,0.5-0.2,0.8-0.4c0.1-0.1,0.3-0.3,0.4-0.4c0.2-0.3,0.3-0.7,0.4-1.1L993.5,239.3z"/>
<g>
	<path d="M1016.8,266.6c-0.1-2.3-0.2-4.6-0.4-7c-0.3-4.4-0.5-9.5-2.7-13.4c-2-3.6-7-4.9-10.3-2.3c-1.6,1.2-2.5,3-3.2,4.9
		c-1.3-0.2-3,0.7-2.8,2.4c0.5,3.2,1,6.4,1.3,9.6c0,1.5,0,2.9,0,4.4c0.1,2.9,5,3,5,0.1c0.1-2.8,0-5.6,0.2-8.4c0.1-1.9,0.3-3.3,0.7-5
		c0.2-0.8,0.4-1.5,0.7-2.3c0.1-0.2,0.2-0.4,0.2-0.6c0,0,0.1-0.2,0.1-0.3c0.2-0.3,0.3-0.6,0.5-0.8c0.1-0.1,0.1-0.2,0.2-0.3
		c0.1-0.1,0.1-0.1,0.2-0.2c0.1-0.1,0.2-0.2,0.3-0.3c0,0,0,0,0,0c-0.5,0.4-0.2,0.1,0,0c0,0,0,0,0,0c0,0,0,0,0,0c0,0,0,0,0,0
		c0,0,0,0,0,0c0,0,0.1-0.1,0.2-0.1c-0.1,0.1-0.2,0.1-0.2,0.1c0,0,0,0,0,0c0,0,0.1,0,0.2-0.1c0,0,0,0,0.1,0c0,0,0,0,0,0
		c0.2,0,0.8,0.1,0.1,0c0.3,0.1,0.6,0.1,0.8,0.2c0.1,0,0.1,0.1,0.1,0.1c0,0,0,0,0,0c0.1,0,0.1,0.1,0.2,0.1c-0.1-0.1,0,0,0.1,0.1
		c0,0,0,0,0,0c0,0,0,0,0.1,0.1c0,0,0,0-0.1-0.1c0.2,0.3,0.4,0.6,0.6,1c0,0.1,0.3,0.7,0.3,0.8c0.1,0.4,0.3,0.8,0.4,1.2
		c0.3,1,0.5,2,0.6,2.9c0.1,0.7,0.2,1.7,0.3,2.7c0.1,1.1,0.2,2.3,0.3,3.4c0.1,2.4,0.2,4.7,0.3,7.1c0.1,2,0.2,4.2,1.1,6
		c1,1.9,4.5,1.2,4.6-1C1017.2,270,1016.9,268.3,1016.8,266.6z"/>
	<path d="M1008.5,247.5c0,0,0.1,0.1,0.1,0.1c0,0,0,0,0,0C1008.6,247.6,1008.5,247.5,1008.5,247.5z"/>
	<polygon points="1006.9,247.2 1006.9,247.2 1006.9,247.2 	"/>
	<path d="M1006.9,247.2C1006.9,247.2,1006.9,247.2,1006.9,247.2C1006.9,247.2,1006.9,247.2,1006.9,247.2
		C1006.9,247.2,1006.9,247.2,1006.9,247.2z"/>
</g>
<path d="M1037.2,279.7c-0.4-8-1.1-15.9-0.8-23.9c0-0.4-0.1-0.8-0.3-1.1c-0.2-3.2-1.4-6.2-4.4-8.3c-0.7-0.5-2.2-0.3-2.8,0.3
	c-5.2,5.3-9.2,13.7-6.6,21.2c0.3,1,1.4,1.7,2.5,1.7c2.7-0.1,4.7-1.1,6.3-2.7c0.3,9.5,1.2,19,0.6,28.5c-0.2,3.1-0.6,6.3-1.3,9.3
	c-0.6,2.6-1.3,5.2-2.8,7.4c-0.2,0.2-0.3,0.5-0.5,0.7c0,0-0.3,0.3-0.3,0.4c-0.3,0.4-0.7,0.7-1.1,1c0,0-0.3,0.2-0.4,0.3
	c-0.2,0.1-0.3,0.2-0.5,0.3c-0.1,0.1-0.3,0.2-0.4,0.2c-0.1,0-0.5,0.2-0.6,0.3c-0.4,0.1-0.8,0.2-1.2,0.3c-0.1,0-0.4,0-0.5,0.1
	c-0.1,0-0.3,0-0.4,0c-0.4,0-0.8,0-1.3-0.1c-0.1,0-0.3-0.1-0.4-0.1c-0.3-0.1-0.6-0.1-1-0.2c-1-0.3-1.4-0.5-2.6-1.1
	c-1.1-0.6-1.7-1-2.7-2c-1.8-1.7-3.4-4-4.5-6.4c-1-2.1-5.1-0.8-4.4,1.6c2.8,9.9,15.4,17.6,24.6,10.6c5-3.8,6.4-10.8,7.2-16.6
	C1037.7,294.2,1037.5,286.9,1037.2,279.7z M1026.9,264.1c-0.1,0-0.1,0.1-0.1,0.1c-0.6-4.5,1.4-9.1,4.1-12.8c0.5,0.8,0.8,1.8,0.9,2.8
	c-0.2,0.2-0.4,0.5-0.6,0.9c-0.7,2.2-1.4,4.4-2.5,6.4C1028.2,262.6,1027.6,263.5,1026.9,264.1z"/>
<g>
	<path d="M1060.4,267.4c-1.5-1.2-3.4-1.9-5-2.9c-1.8-1-3.6-1.7-5.6-2.2c-0.3-0.1-0.6-0.2-0.9-0.2c-0.1,0-0.8-0.3-0.7-0.2
		c-0.1,0-0.2-0.1-0.3-0.1c0,0-0.2-0.1-0.3-0.2c0-0.1-0.1-0.2-0.1-0.2c0-0.1-0.1-0.2-0.1-0.2c-0.1-0.2-0.2-0.7-0.2-0.6
		c-0.1-0.9-0.1-1.9,0.1-2.8c0.5-2,1.7-3.8,3.2-5.2c0.7-0.6,1.4-1.2,2.2-1.6c0.7-0.3,1.1-0.3,1.7-0.2c2,0.5,3.7-2.3,1.5-3.3
		c-3.7-1.7-7.8,1.2-10.2,3.9c-2.6,3-4.4,7.2-3,11.2c1.1,3.3,4.7,3.8,7.3,4.7c1.6,0.6,3.5,1.8,5.1,2.7c0.3,0.2,0.7,0.4,1,0.5
		c0,0,0.2,0.1,0.4,0.2c0.1,0.1,0.3,0.2,0.3,0.2c0.1,0,0.1,0.1,0.2,0.2c0,0,0,0,0,0c0,0,0,0,0,0c0,0,0,0,0,0c0,0,0,0,0,0
		c0.2,0.3,0,0.1-0.1,0c0,0,0,0,0,0.1c-0.1,0.2-0.1,0.5-0.2,0.6c-0.2,0.4-0.5,1-0.8,1.4c-0.6,0.9-1.2,1.6-2.1,2.1
		c-1.6,0.9-3.2,0.9-5.1,0.2c-1.1-0.4-2.4-0.4-3.2,0.6c-0.7,0.9-0.6,2,0.2,2.8c3.6,3.4,9.9,2.2,13.3-1.1
		C1061.6,275.2,1064.2,270.3,1060.4,267.4z"/>
	<path d="M1056.8,271.1C1056.8,271.1,1056.8,271.1,1056.8,271.1C1056.8,271.1,1056.8,271.1,1056.8,271.1
		C1056.8,271.1,1056.8,271.1,1056.8,271.1C1056.8,271.2,1056.7,271.4,1056.8,271.1C1056.8,271.1,1056.8,271.1,1056.8,271.1
		C1056.8,271.1,1056.8,271.1,1056.8,271.1z"/>
</g>
</svg>
