<svg xmlns="http://www.w3.org/2000/svg" viewBox="0 0 1366 768"><g id="Layer_4" data-name="Layer 4"><g id="behind"><path d="M783.2,678.72c-3.39.23-6.25,2-9.35,3.14-11.64,4.08-23.38,7.8-35.29,11s-23.64,5.92-35.53,8.58c-9.74,2.17-19.5,4.28-29.28,6.23-16.42,3.27-32.75,7-49.18,10.2a27.28,27.28,0,0,1-4.57.43" style="fill:none;stroke:#000;stroke-linecap:round;stroke-linejoin:round;stroke-width:2px"/><path d="M605.12,488.76c1.78,1,1.09,2.89,1.09,4.2,0,4.66.53,9.28.68,13.92.18,5.76.64,11.51,1,17.28.26,5,.54,9.93,1,14.87.49,5.6.7,11.22,1.23,16.82.46,4.86.68,9.75,1.06,14.63.45,5.76.78,11.52,1.22,17.28.44,5.92.94,11.84,1.43,17.76q1.07,12.72,2.16,25.44c.14,1.6.32,3.2.48,4.8" style="fill:none;stroke:#000;stroke-linecap:round;stroke-linejoin:round;stroke-width:2px"/><path d="M804.8,627.36c-2.72.64-5.54,2.08-8.14,1.76-5.54-.69-10.56,1.44-15.86,1.87-.19,0-.54.33-.71.19-2.8-2.36-5.82-.66-8.64-.27-10.5,1.46-21,3.07-31.44,4.9q-9.36,1.63-18.75,3.21c-6.87,1.17-13.73,2.39-20.61,3.5-6.43,1-12.8,2.43-19.21,3.54-9,1.56-17.92,3.38-26.88,5-3.2.59-6.33,1.53-9.6,1.7" style="fill:none;stroke:#000;stroke-linecap:round;stroke-linejoin:round;stroke-width:2px"/><path d="M779.36,631.92c-.79,1.47-2.34,1.26-3.61,1.53-9,1.9-17.9,3.85-26.88,5.6-15.62,3-31.18,6.38-46.77,9.53-11.14,2.26-22.29,4.54-33.4,7-4.48,1-9,2.38-13.66,2.25" style="fill:none;stroke:#000;stroke-linecap:round;stroke-linejoin:round;stroke-width:2px"/><path d="M788,678.24c.24,11.12.41,22.24.75,33.36.15,4.64.49,9.27.45,13.92" style="fill:none;stroke:#000;stroke-linecap:round;stroke-linejoin:round;stroke-width:2px"/><path d="M621,724.8A242.89,242.89,0,0,0,623.34,755a19.76,19.76,0,0,1,0,2.88" style="fill:none;stroke:#000;stroke-linecap:round;stroke-linejoin:round;stroke-width:2px"/></g></g></svg>
