<svg xmlns="http://www.w3.org/2000/svg" viewBox="0 0 1366 768"><g id="Layer_4" data-name="Layer 4"><g id="front"><path d="M1050.56,497.28c-1.71.2-2.52-.86-3.39-2.14-4.37-6.45-6.84-13.65-8.6-21.14-1.87-7.92-2.92-16-4.31-24-2.68-15.38-6.22-30.53-12.55-44.86-5.16-11.69-11.82-22.5-21.1-31.43-10.32-9.95-22.63-16.44-36.44-20.22a180.63,180.63,0,0,0-22.32-4.58c-9.65-1.39-19.31-2.23-29.05-2.66-10.24-.46-20.48-.78-30.71-1.26-8.74-.41-17.47-.57-26.16-.21s-17.46.54-26.18,1.19c-8.32.62-16.65,1.23-24.94,2.12-6.66.71-13.3,1.72-19.94,2.71a346.63,346.63,0,0,0-34.55,7c-14,3.58-26.84,9.83-38.87,17.77-7,4.62-14.19,9-20.62,14.43-7.38,6.23-14.39,12.86-18.29,22a3.6,3.6,0,0,1-.49.93c-5.73,5.05-6.45,12.43-8.81,19a93.76,93.76,0,0,0-4.11,17.27c-.49,3.11-.87,6.23-1.28,9.35a152.48,152.48,0,0,0-1.09,23.29c.18,7.3.65,14.58,1.55,21.85.72,5.86,1.5,11.71,2.55,17.5,1.81,10.09,4.07,20.09,6.71,30,1.57,5.86,3.08,11.75,4.94,17.55,2.35,7.36,6.89,12.64,14,15.55,12.72,5.23,25.83,9.38,38.88,13.68,20.45,6.75,40.9,13.45,61.45,19.89A150.64,150.64,0,0,0,819,624.66a99.65,99.65,0,0,0,10.8.58c5.52-.14,11-.22,16.56,0,3.44.15,6.88.16,10.32.17,9.55,0,19-1.55,28.31-3.16,12.28-2.11,24.54-4.35,36.72-6.95,7.14-1.52,14.26-3.17,21.39-4.66,9.85-2,19.6-4.5,29.48-6.46,17.38-3.43,32.06,1.41,44.9,13.07a38.46,38.46,0,0,1,11.5,18,29.42,29.42,0,0,1,.29,14.88c-.36,1.54-1.14,2.23-2.67,2.15" style="fill:none;stroke:#000;stroke-linecap:round;stroke-linejoin:round;stroke-width:2px"/><path d="M885.44,578.64c4-8.1,5.36-16.92,7-25.67,1.17-6.22,1.95-12.49,2.74-18.74.73-5.75,1.35-11.51,2.05-17.27q1.32-10.74,3.58-21.36c2-9.21,3.85-18.43,6-27.59,1.56-6.54,3-13.11,4.17-19.71A177.39,177.39,0,0,0,913.78,427,88.5,88.5,0,0,0,913,407c-2.58-15.47-9.25-28.22-24-35.53a28.1,28.1,0,0,0-11.52-2.71q-11.76-.53-23.52-.37c-10.08.13-20.17.31-30.24.74-6.32.28-12.63.7-19,1-4.8.2-9.61.54-14.39,1-6.49.62-13,1.27-19.46,2.24-11.44,1.7-22.57,4.33-33.11,9.18-16.67,7.68-28.22,20.29-36.05,36.71a113.59,113.59,0,0,0-9,27.88A175.55,175.55,0,0,0,690,472.56c-.46,10.48-1.16,21-.85,31.44.4,13.68.22,27.4,1.66,41,.85,8.07,5.07,13.89,12.43,17.55a262.14,262.14,0,0,0,28.81,12.46c7.14,2.56,14.38,4.84,21.58,7.24,10.52,3.51,21.17,6.57,31.74,9.92,9,2.84,18,5.72,27.09,8A133.8,133.8,0,0,0,826.63,603a67.24,67.24,0,0,0,15.84.3,65.74,65.74,0,0,0,21.6-6.18c1.4-.66,2.59-1.52,4.34-1.28.86.11,1.91-.76,2.64-1.58,1.58-1.77,3.26-3.46,4.77-5.3a8.22,8.22,0,0,1,5.3-3.34" style="fill:none;stroke:#000;stroke-linecap:round;stroke-linejoin:round;stroke-width:2px"/><path d="M934.88,358.32c.31,1.65,1.4,2.9,2.17,4.31A62.55,62.55,0,0,1,944,385a104.68,104.68,0,0,1-.94,30.5c-1.84,11.36-4.77,22.45-7.51,33.59-1.43,5.84-2.51,11.74-1.63,17.75a22.12,22.12,0,0,0,6.91,13c7.41,7.15,16.2,12.34,25,17.47a225.8,225.8,0,0,0,20.87,11.31,53.41,53.41,0,0,0,13.9,4.18,55.88,55.88,0,0,0,10.33.32,39.5,39.5,0,0,0,10.07-1.87,2.52,2.52,0,0,0,2-2.86c-.16-3.52,0-7,0-10.56-.1-10.57.47-21.12.79-31.68a236.47,236.47,0,0,0-.85-32.39c-1.07-9.89-2.9-19.68-7.15-28.8a60.68,60.68,0,0,0-11.06-15.58c-9.11-9.76-19.39-18.05-31.41-24-11.19-5.58-22.95-8.52-35.52-8-1.37.06-2.64,1.57-4.08.29" style="fill:none;stroke:#000;stroke-linecap:round;stroke-linejoin:round;stroke-width:2px"/><path d="M1023.92,649.68c-5.09,2.2-10.07,4.66-15.1,7C997.41,662,985.77,666.8,974,671.27s-23.86,8.4-36,12.06c-9.6,2.9-19.23,5.67-28.82,8.59-10.07,3.07-20.08,6.31-30,9.81-15.32,5.41-30.34,11.58-45.35,17.79-21.56,8.92-43.06,18-65.28,25.21-6.12,2-12.28,3.8-18.47,5.54a17.26,17.26,0,0,1-3.85.21" style="fill:none;stroke:#000;stroke-linecap:round;stroke-linejoin:round;stroke-width:2px"/><path d="M1042.64,658.32c-2.37-.72-4.42.1-6.49,1.17-2.39,1.24-4.61,2.74-7.69,2.3-2.52-.37-4.66,1.6-6.92,2.58-18.68,8.15-37.3,16.44-55.94,24.67-9.83,4.34-19.66,8.69-29.53,13q-16.64,7.17-33.35,14.16c-12.55,5.27-25.18,10.34-37.94,15.08s-25.34,9.55-38.35,13.35c-1.1.32-2-.06-2.91.14" style="fill:none;stroke:#000;stroke-linecap:round;stroke-linejoin:round;stroke-width:2px"/><path d="M624.8,709.68c2.22-4,2.51-8.52,3.17-12.95a93.74,93.74,0,0,0,1.13-17.05c-.41-11.54-3.45-22.11-12-30.47q-3.27-3.21-6.72-6.24c-4.92-4.33-7.68-10.17-11-15.6-6.56-10.57-16.26-16-28.54-17-7.11-.62-14.24-.64-21.35-1.05-9.6-.55-19.22-.59-28.82-1.27-4.69-.34-9.44-.22-14.15-.57-4.55-.33-9.13,0-13.68-.48-1.36-.16-2.2.93-3.36,1.21" style="fill:none;stroke:#000;stroke-linecap:round;stroke-linejoin:round;stroke-width:2px"/><path d="M857.6,613.44a151.78,151.78,0,0,1-17-1.84c-5.3-.78-10.59-1.64-15.86-2.68-8-1.56-15.86-3.27-23.76-5-16.05-3.58-31.87-8.06-47.72-12.38-11.48-3.13-23-6.28-34.38-9.65-6.21-1.84-12.56-3.25-18.69-5.38-4-1.4-8-2.81-11.56-5.21-.81-.55-1.83-1.41-3.08-.9" style="fill:none;stroke:#000;stroke-linecap:round;stroke-linejoin:round;stroke-width:2px"/><path d="M1030.88,662.16a3.82,3.82,0,0,1-2.41,3.35c-8.38,4.5-16.8,9-25.19,13.45-21.35,11.44-42.82,22.66-64.56,33.36-10.33,5.1-20.57,10.39-31,15.32-11,5.22-22.21,10.14-33.35,15.14-2.32,1.05-4.67,2-7,3.1a7.82,7.82,0,0,1-4.54.76" style="fill:none;stroke:#000;stroke-linecap:round;stroke-linejoin:round;stroke-width:2px"/><path d="M429.44,562.08c2.73-.4,4.79,1.44,6.91,2.5,11.14,5.58,22.36,11,32.24,18.82a69.38,69.38,0,0,1,18.7,21.88c4.17,7.82,6,16.33,7.42,25a108.61,108.61,0,0,1,1.38,24.48c-.77,12.06-2.79,23.86-7.77,35.08-3.12,7-6.61,13.71-11.84,19.4a21.39,21.39,0,0,1-13,6.93,4,4,0,0,0-2.64,1.23" style="fill:none;stroke:#000;stroke-linecap:round;stroke-linejoin:round;stroke-width:2px"/><path d="M343.52,584.76a3.06,3.06,0,0,1,2.75,2.24c1,2.56,2.93,4.65,4.71,6.75,2.85,3.37,5.67,6.74,9.29,9.44,4.14,3.07,7.7,2.8,10.85-1.27,4.7-6.08,11.17-9.08,18.48-10.54,7-1.4,14-1.55,21.12-1.71q13.8-.3,27.6-.72c6.48-.19,13-.47,19.44-.71" style="fill:none;stroke:#000;stroke-linecap:round;stroke-linejoin:round;stroke-width:2px"/><path d="M669,433.44c-.72,5.52-1.64,11-2.09,16.57-.3,3.67-.61,7.35-.78,11a269.58,269.58,0,0,0,.06,32.16c.53,7.37,1.22,14.74,2.23,22.09s2.38,14.73,3.7,22.07" style="fill:none;stroke:#000;stroke-linecap:round;stroke-linejoin:round;stroke-width:2px"/><path d="M1046.72,680.88c-10.64-.46-20.68,2.36-30.46,6.06a161.68,161.68,0,0,0-23.75,10.79c-5.09,2.94-9.54,6.53-11.39,12.65a15.32,15.32,0,0,0,1.13,12,122.31,122.31,0,0,0,12.09,18.34c2.26,2.87,4.16,6,6.54,8.83.78.9,1.6,1.76,2.4,2.64" style="fill:none;stroke:#000;stroke-linecap:round;stroke-linejoin:round;stroke-width:2px"/><path d="M898.88,395c-1.52-.08-2,1.23-2.36,2.18-4,9.29-8.5,18.4-12.33,27.8q-6.29,15.45-11.71,31.22c-.34,1-.58,2-1.92,2.19s-1.46,1.24-1.45,2.37c0,2.88-.06,5.76,0,8.64a3.77,3.77,0,0,1-1.47,3.6" style="fill:none;stroke:#000;stroke-linecap:round;stroke-linejoin:round;stroke-width:2px"/><path d="M567.44,736.56a37.58,37.58,0,0,1-18.27-19.43c-4.37-10.43-10.93-19.15-20.86-25a51,51,0,0,0-17.74-6.58,84.18,84.18,0,0,0-13-.64" style="fill:none;stroke:#000;stroke-linecap:round;stroke-linejoin:round;stroke-width:2px"/><path d="M737.6,484.92a4.9,4.9,0,0,0-2.69.52c-2.35,1.35-4.84-.05-5.46-2.8a121.09,121.09,0,0,1-2.17-17.28c-.31-4.08-.24-8.16-.24-12.24,0-2.35.21-2.57,2.64-2.38,4,.3,5.26,1.07,5.35,5.5.18,9.44.73,18.88,1.13,28.32" style="fill:none;stroke:#000;stroke-linecap:round;stroke-linejoin:round;stroke-width:2px"/><path d="M384.56,577.2c-2.87-5.39-8-7.91-13.22-10.27-3-1.36-6.12-2.47-9.09-3.9-4.67-2.26-9.66-2.29-14.65-2.13-3.84.13-7.68.49-11.52.69-8.64.46-17.3.67-25.92,1.43a19.34,19.34,0,0,1-3.12-.22" style="fill:none;stroke:#000;stroke-linecap:round;stroke-linejoin:round;stroke-width:2px"/><path d="M590.72,674.88c-.15,7.56,1.15,15,2.72,22.3,2.31,10.75,4.87,21.46,5.84,32.43a53.81,53.81,0,0,1-.93,16.54c-.18.83-.06,1.61-.19,2.41" style="fill:none;stroke:#000;stroke-linecap:round;stroke-linejoin:round;stroke-width:2px"/><path d="M803.36,409.92a4,4,0,0,1,3.64,2.14,172.15,172.15,0,0,1,20.06,42.76,129.41,129.41,0,0,1,5.1,22.3c.09.66.6,1.21.48,1.92" style="fill:none;stroke:#000;stroke-linecap:round;stroke-linejoin:round;stroke-width:2px"/><path d="M604.64,657.36c-5.53.33-9,3.82-12,7.94a2.41,2.41,0,0,0,0,2.82c3,3.59,3.33,8.09,4.48,12.29,1.54,5.62,1.93,11.5,3.87,17a21.34,21.34,0,0,0,3.39,6.46,15,15,0,0,0,12.7,5.79,37.09,37.09,0,0,1,10.08.71" style="fill:none;stroke:#000;stroke-linecap:round;stroke-linejoin:round;stroke-width:2px"/><path d="M1045.52,691.92a184.59,184.59,0,0,0-44.4,18c-3.31,1.86-6.58,3.8-9.82,5.78-.51.31-.88.62-1.46.33" style="fill:none;stroke:#000;stroke-linecap:round;stroke-linejoin:round;stroke-width:2px"/><path d="M1047.68,685.68c-6.18,0-12.12,1.64-18,3.21a137.43,137.43,0,0,0-36,16,.85.85,0,0,0-.48,1" style="fill:none;stroke:#000;stroke-linecap:round;stroke-linejoin:round;stroke-width:2px"/><path d="M1046.24,699.84a39.74,39.74,0,0,0-8.15,2.9c-10.71,4.55-21.3,9.38-31.66,14.68-4.52,2.31-9.3,4.26-13.23,7.62" style="fill:none;stroke:#000;stroke-linecap:round;stroke-linejoin:round;stroke-width:2px"/><path d="M831.2,532.32c-1.74-.24-2.6.83-3.37,2.16-9.75,16.74-20.65,32.73-31.93,48.47a.69.69,0,0,0-.46.25" style="fill:none;stroke:#000;stroke-linecap:round;stroke-linejoin:round;stroke-width:2px"/><path d="M1042.64,712.44c-9.13,2.87-18,6.35-26.91,9.89-7.73,3.08-15.21,6.75-23,9.69a20.35,20.35,0,0,0-2.89,1.66" style="fill:none;stroke:#000;stroke-linecap:round;stroke-linejoin:round;stroke-width:2px"/><path d="M1047.68,720c-4.38.16-8.35,1.94-12.48,3.12-11.29,3.21-21.89,8.1-32.36,13.28a39.35,39.35,0,0,0-7.72,4.72" style="fill:none;stroke:#000;stroke-linecap:round;stroke-linejoin:round;stroke-width:2px"/><path d="M821.6,535a3.56,3.56,0,0,0-2.91.93q-13.19,12.75-26.88,25c-5.86,5.26-11.61,10.66-17.73,15.64-.71.58-1.23,1.53-2.4,1.07" style="fill:none;stroke:#000;stroke-linecap:round;stroke-linejoin:round;stroke-width:2px"/><path d="M385.76,730.08a6.2,6.2,0,0,0,4.35-1.64c8.05-6.53,17.28-10.86,27.12-13.88,2-.61,4.26-.35,6.46-.14,10.37,1,20.75,2,31.19,2.21a7.61,7.61,0,0,0,2.17-.2,3.55,3.55,0,0,1,3.73,1.23c1.43,2.38,3.62,3.94,5.39,5.93a190.11,190.11,0,0,0,15.14,15.82c5.93,5.34,12.49,9.78,20.38,11.75a18.64,18.64,0,0,0,6.23.76" style="fill:none;stroke:#000;stroke-linecap:round;stroke-linejoin:round;stroke-width:2px"/><path d="M425.12,561.6c-.34.58-1,0-1.46.46-4,3.53-9,3.79-13.9,4.56-6,1-12.13,1.33-18,3.13a29.3,29.3,0,0,0-8.64,4.09" style="fill:none;stroke:#000;stroke-linecap:round;stroke-linejoin:round;stroke-width:2px"/><path d="M901.76,445.56c-1.84,6-3.66,11.93-5.52,17.88s-4,11.75-6.3,17.5a9.06,9.06,0,0,0-.64,4.1c.18,3-3.85,7.92-6.74,8.16" style="fill:none;stroke:#000;stroke-linecap:round;stroke-linejoin:round;stroke-width:2px"/><path d="M1051,725.76c0,1.39-1.29,1.17-1.94,1.38a180.87,180.87,0,0,0-36.22,17.1,9.12,9.12,0,0,1-4.08,1.68" style="fill:none;stroke:#000;stroke-linecap:round;stroke-linejoin:round;stroke-width:2px"/><path d="M389.12,576.72c-5.1.6-9.87,2.6-14.88,3.6-6.92,1.37-13.85,2.65-20.87,3.45-2.49.28-5.35-.26-7.45,1.83" style="fill:none;stroke:#000;stroke-linecap:round;stroke-linejoin:round;stroke-width:2px"/><path d="M848,545.28c-1.73,8.65-4.48,17-6.28,25.67-.73,3.49-1.88,6.89-2.84,10.33" style="fill:none;stroke:#000;stroke-linecap:round;stroke-linejoin:round;stroke-width:2px"/><path d="M805.28,378c-1.14,9.33-2.48,18.64-2.48,28.08a38.84,38.84,0,0,1-.16,6" style="fill:none;stroke:#000;stroke-linecap:round;stroke-linejoin:round;stroke-width:2px"/><path d="M566.72,696c0,.57.23.83.68,1.24a38.12,38.12,0,0,1,11.19,19.67,55.9,55.9,0,0,1,1.12,13.65,33.34,33.34,0,0,0,4.47,16.59c.3.55.8.51,1,.93" style="fill:none;stroke:#000;stroke-linecap:round;stroke-linejoin:round;stroke-width:2px"/><path d="M842,511.92c3.58.77,6.3,2.6,7.43,6.24.8,2.6-1.12,6-3.83,7-2,.72-4.86-1-5.78-3.35-.65-1.67.21-2.78,1.23-3.84,1.19-1.25,2.93-1.81,4.07-3.13" style="fill:none;stroke:#000;stroke-linecap:round;stroke-linejoin:round;stroke-width:2px"/><path d="M885.44,606.72c-2.8.52-4.87,2.43-7.2,3.83-4.46,2.68-9,5.19-14.15,6.28a35.68,35.68,0,0,1-10.81.45" style="fill:none;stroke:#000;stroke-linecap:round;stroke-linejoin:round;stroke-width:2px"/><path d="M848,548.4c2.52.26,3.1,1.74,2.92,4.08-.55,7-.74,14.13-1.95,21.12a19.41,19.41,0,0,0-.13,2.16" style="fill:none;stroke:#000;stroke-linecap:round;stroke-linejoin:round;stroke-width:2px"/><path d="M592.4,667.92a7.65,7.65,0,0,0-3.15,3.1,96.58,96.58,0,0,1-19.39,21.17c-1,.85-2.06.61-3.14.69" style="fill:none;stroke:#000;stroke-linecap:round;stroke-linejoin:round;stroke-width:2px"/><path d="M1050.08,734.88c-6.46,1.77-12.24,5.09-18.24,7.92-2.95,1.39-5.87,2.81-8.85,4.14a7.68,7.68,0,0,1-3.15.66" style="fill:none;stroke:#000;stroke-linecap:round;stroke-linejoin:round;stroke-width:2px"/><path d="M883.52,539.52c-.2-.47,0-.9-.4-1.49-4.68-7-9.2-14-13.76-21.07-.85-1.32-1.7-2.65-3.6-2.4" style="fill:none;stroke:#000;stroke-linecap:round;stroke-linejoin:round;stroke-width:2px"/><path d="M388.88,730.08c1.65,2.66,1.32,5.78,1.8,8.66.58,3.49,1.34,7,1.61,10.54s.24,3.78-2.93,5" style="fill:none;stroke:#000;stroke-linecap:round;stroke-linejoin:round;stroke-width:2px"/><path d="M886.88,529a2.62,2.62,0,0,1-2.18-1.18A181.47,181.47,0,0,1,871.33,509c-.85-1.31-1.67-2-3.17-1.89" style="fill:none;stroke:#000;stroke-linecap:round;stroke-linejoin:round;stroke-width:2px"/><path d="M881.36,585.84a6.25,6.25,0,0,1-.28,4.78c-3.17,5.69-6.54,11.28-11,16.09a4.84,4.84,0,0,1-2.39,1.81" style="fill:none;stroke:#000;stroke-linecap:round;stroke-linejoin:round;stroke-width:2px"/><path d="M867.68,473.52c-4.29-2.08-8.94-1.24-11.69,2.45a15.47,15.47,0,0,0-2.5,3.54,2.66,2.66,0,0,1-3.09,1.69" style="fill:none;stroke:#000;stroke-linecap:round;stroke-linejoin:round;stroke-width:2px"/><path d="M753,422.16a5.21,5.21,0,0,1,.25-1c.7-1.54,1.68-2.8,3.59-2.61,1.12.11,2.54,2.83,2.12,4.28a2.92,2.92,0,0,1-2.84,2.19c-2,.1-3-.68-3.12-2.66" style="fill:none;stroke:#000;stroke-linecap:round;stroke-linejoin:round;stroke-width:2px"/><path d="M850.88,484.8a3,3,0,0,1-2.38-.51c-4.62-2.87-9.36-2.78-14.17-.66a6.44,6.44,0,0,1-2.65.45" style="fill:none;stroke:#000;stroke-linecap:round;stroke-linejoin:round;stroke-width:2px"/><path d="M1053,741.84a37,37,0,0,0-14.16,5.29,10.15,10.15,0,0,1-4.08,1.67" style="fill:none;stroke:#000;stroke-linecap:round;stroke-linejoin:round;stroke-width:2px"/><path d="M816.08,491.76c-.32,1.26-.6,2.53-.82,3.82-.19,1.08.21,1.39.8,2,.87.84,1.72.33,2.4-.05,2-1.13,2.41-2.5,1.82-5.49" style="fill:none;stroke:#000;stroke-linecap:round;stroke-linejoin:round;stroke-width:2px"/><path d="M615.68,687.12c-.71-.15-1.37.26-2.18-.08a10.61,10.61,0,0,0-9.06.4c-.63.3-1.26-.11-1.72.4" style="fill:none;stroke:#000;stroke-linecap:round;stroke-linejoin:round;stroke-width:2px"/><path d="M590.72,716.64a45.4,45.4,0,0,0-11.76.24" style="fill:none;stroke:#000;stroke-linecap:round;stroke-linejoin:round;stroke-width:2px"/><path d="M880.16,544.8A3.21,3.21,0,0,0,877,546c-1.52,1.69-3.5,2.87-5.08,4.52a3.71,3.71,0,0,1-3.32,1.48" style="fill:none;stroke:#000;stroke-linecap:round;stroke-linejoin:round;stroke-width:2px"/><path d="M894.56,484.32c-1.89-.27-3,1.66-4.8,1.68" style="fill:none;stroke:#000;stroke-linecap:round;stroke-linejoin:round;stroke-width:2px"/><path d="M863.84,537.36c-2.08,1.86-3.57,4-2.84,6.95.64,2.62,3.23,4.15,5.24,3.37a4.56,4.56,0,0,0,2.15-6.48,8.55,8.55,0,0,0-4.31-3.84" style="fill:none;stroke:#000;stroke-linecap:round;stroke-linejoin:round;stroke-width:2px"/><path d="M776.48,521.52c-1.59,1.36-2.54,2.86-1.46,5.05a4.05,4.05,0,0,0,3.86,2.42c1.51.06,2.88-.29,3.29-1.73a3.64,3.64,0,0,0-1.12-3.83,6.12,6.12,0,0,0-4.33-1.91" style="fill:none;stroke:#000;stroke-linecap:round;stroke-linejoin:round;stroke-width:2px"/><path d="M804.08,517.44c-1.26,1-2.7,1.89-3.11,3.6s-.77,3.68,1,5c2,1.58,4.09,2.13,6.7.73,2.09-1.12,3.32-3.38,2.89-5a5.16,5.16,0,0,0-5-3.81,10.8,10.8,0,0,1-2.16-.51" style="fill:none;stroke:#000;stroke-linecap:round;stroke-linejoin:round;stroke-width:2px"/></g></g></svg>
