<svg xmlns="http://www.w3.org/2000/svg" viewBox="0 0 1366 768"><g id="Layer_11" data-name="Layer 11"><path d="M455.54,250.54c-1.65.82-2,2.08-1.88,3.75.21,2.72.25,5.46.38,8.19.1,2.27-.81,4.29-1.62,6.32a3.8,3.8,0,0,1-1.31,1.51c-1.77,1.31-3.22.74-3.49-1.42a39.76,39.76,0,0,1,.43-11.47c.6-3.62-.85-6.31-4.6-8.36-.33.52-.89,1-1,1.59-.34,2.44-.63,4.89-.75,7.35-.16,3.15-.1,6.31-.21,9.46a11.27,11.27,0,0,1-.49,2.81,2.18,2.18,0,0,1-2.19,1.55,2.35,2.35,0,0,1-2.51-1.69,24.23,24.23,0,0,1-.48-2.83c-.14-.93-.27-1.86-.41-2.87-1.43-.33-2.12.63-2.9,1.29-3.18,2.73-7,3.65-11,3.85a6.93,6.93,0,0,1-6.68-3.15c-.6-.9-1.34-1.71-1.91-2.44-1.58-.42-2.59.46-3.62,1a25,25,0,0,1-10.65,2.68c-2.82.2-6.37-2.91-6.66-5.6a22.35,22.35,0,0,1,.52-6.93c.38-1.86.9-3.7,1.43-5.53a3.91,3.91,0,0,1,.81-1.37c1.41-1.67,2.91-3.28,4.29-5a16.31,16.31,0,0,1,7.15-4.66c1.94-.75,2.6-.44,3.6,1.39.39.71.76,1.42,1.15,2.15-.8,3.59-3.46,5.49-6.31,7.21a5.87,5.87,0,0,1-1.52.6c-3.05.79-4.48,2.95-5,5.88a32.08,32.08,0,0,0-.59,4.86,2.83,2.83,0,0,0,2.44,2.9,9.28,9.28,0,0,0,5.27-.3,29.38,29.38,0,0,0,3-1.3c4.12-1.85,4.74-2.67,4.15-7.24a3.19,3.19,0,0,1,.38-2.32c2.19-2,2.84-5,4.4-7.35a15.73,15.73,0,0,1,5.21-5.15c2.87-1.67,5.26-1,7,1.75,2.45,3.94,2.13,7.41-.94,10.85a16.92,16.92,0,0,1-7.17,4.62c-.89.32-1.8.59-2.76.91-.63,2.52-.34,4.76,1.6,6.45a6.68,6.68,0,0,0,7,1.17,50.47,50.47,0,0,0,7.14-4,3,3,0,0,0,1.25-2.48c.11-1.5.19-3,.29-4.51q.38-5.94.77-11.89a5.76,5.76,0,0,1,.32-1.6,2.14,2.14,0,0,1,3.65-.68,13,13,0,0,1,1.19,1.67,2.78,2.78,0,0,0,2.39,1.39,6.22,6.22,0,0,1,5.44,3.12,5.57,5.57,0,0,0,1.09.86,23.33,23.33,0,0,0,1.85-1.55c2.32-2.34,5-1.65,7,.05a12.45,12.45,0,0,1,4.65,7.53,70.14,70.14,0,0,1,.47,16,5,5,0,0,1-1.78,4c-.56.42-1.21.8-1.86.3a3.17,3.17,0,0,1-.94-1.26,3.11,3.11,0,0,1,0-1.22c.1-3.42.28-6.84.28-10.26a15.53,15.53,0,0,0-1.28-6.81A7.61,7.61,0,0,0,455.54,250.54Zm-34.6,1.18c.65-.12,1.13-.06,1.42-.28a47.71,47.71,0,0,0,4.12-3.24,2.08,2.08,0,0,0-3-2.88,11,11,0,0,0-3.08,5.14C420.3,250.81,420.75,251.3,420.94,251.72Z"/><path d="M728.38,110.24a24.5,24.5,0,0,0-.82,2.93c-.48,3.94-.89,7.89-1.35,11.84a10.8,10.8,0,0,1-.45,2.41,3.11,3.11,0,0,1-2.93,1.88,2.55,2.55,0,0,1-2.18-2.16c-.39-1.73-.61-3.51-.95-5.26-.75-3.88-1-7.89-2.89-11.49a2.28,2.28,0,0,1-.23-.78,2.34,2.34,0,0,1,1.08-2.48,2.21,2.21,0,0,1,2.67.17c.86.81,1.64,1.71,2.62,2.74.94-1.67,1.77-3.05,2.53-4.47a3.28,3.28,0,0,1,3.45-1.71,6.31,6.31,0,0,1,4.63,2.28,20.89,20.89,0,0,1,4.39,9.59c.21,1,.46,2.07.85,3.79.72-1.29,1.16-1.92,1.44-2.61.81-2,1.55-4.1,2.33-6.14a35.13,35.13,0,0,1,5.12-8.39,18.22,18.22,0,0,1,6.41-5,4.6,4.6,0,0,0,2.55-3.87c.49-3.25,1.1-6.47,1.61-9.72a3,3,0,0,1,2.52-2.55A4.31,4.31,0,0,1,763.39,86c-.21,1.9-.18,3.84-.45,5.73a60.52,60.52,0,0,0-.08,13.52,51.7,51.7,0,0,1-.12,7.36,5.11,5.11,0,0,1-.81,2.72C759.87,118,760,121,760.32,124q.52,5.11,1,10.21c.14,1.41-.28,2-1.64,2.42s-2.23.12-2.69-1.11a34.86,34.86,0,0,1-1.35-4.72c-.47-2.11-.79-4.24-1.25-6.75-4.51,2.23-8.43,5.2-13.62,4.53.14,1.33.24,2.36.35,3.39-2.89.28-4.41-.68-5.21-3.45s-1.27-5.33-1.94-8c-.51-2-1-4-1.68-5.92a12.14,12.14,0,0,0-1.82-3.18C730.13,111,729.39,110.78,728.38,110.24Zm17,13.32c2.67-.72,3-.92,4.61-2.8,2.5-3,4.43-6.2,4.87-10.13.54-4.83.46-5.59-.63-7.58-.77.82-1.55,1.54-2.2,2.36-2.75,3.44-4.42,7.47-6,11.49A10.2,10.2,0,0,0,745.38,123.56Z"/><path d="M633.7,190.87c3.22,3.34,6.38,4.8,10.48,5,.15-.31.48-.67.46-1-.32-4.35,1.66-8,3.72-11.52s5.48-6.1,9-8.25c2.35-1.43,4.79-.88,7.08.19a4.12,4.12,0,0,1,2.31,3.6,8.34,8.34,0,0,1-3.44,8.29,28.55,28.55,0,0,1-5.26,3.18c-2.09.92-4.2,2.27-6.47.94a2.73,2.73,0,0,0-.74,3.58,3.07,3.07,0,0,0,2.53,1.88,10.81,10.81,0,0,0,5.66-.38c2.54-1,5.12-2,7.69-2.89a1.37,1.37,0,0,1,2,.89,21,21,0,0,1-9.25,5.74,29.62,29.62,0,0,1-6,1.1c-3.06.38-5.69-.43-7.46-3.18-.13-.2-.45-.27-.82-.48-.37.29-.76.64-1.2.94a5.48,5.48,0,0,1-5.83.54c-1.59-.78-3.14-1.66-4.7-2.51-1.06-.58-2.1-1.18-3.11-1.75-1.83,1.31-2.59,3.58-5,3.89a5.41,5.41,0,0,1-2-3.78,31.24,31.24,0,0,1-.53-4.91c0-4.93.16-9.86.12-14.8,0-2.75,1.29-5.3,1-8.1-.1-.82.73-1.42,1.6-1.64a2,2,0,0,1,2.19.7,6.19,6.19,0,0,1,1,4.3c-.15,3.42-.32,6.84-.45,10.26,0,1.19-.48,2.43.32,3.52.8.2.91-.46,1.22-.87.73-1,1.43-2,2.2-2.94,1-1.21,2-2.34,3.81-1.73a5.7,5.7,0,0,1,4.08,4.22,3.32,3.32,0,0,1-.56,2.31,28.83,28.83,0,0,1-3,3.35C635.55,189.31,634.7,190,633.7,190.87Zm19.64-5.05c2.31.76,3.58-.5,4.88-1.34a7.69,7.69,0,0,0,3.49-3.88,1.23,1.23,0,0,0-.18-1.1,1.84,1.84,0,0,0-1.43-.37A12.79,12.79,0,0,0,653.34,185.82Z"/><path d="M368.58,108.47c-.34.72-.65,1.06-.66,1.41-.1,3.39-1.06,6.73-.6,10.16a2.8,2.8,0,0,1-.42,1.93,12.35,12.35,0,0,1-2,1.82c-2.51-1.07-3.34-3-3.61-5.29-.43-3.67-.77-7.35-1.13-11-.29-3-.56-6-.87-9.28-2.94,1-4.67,3.18-7.05,4.48a55.53,55.53,0,0,0,.19,11.1c.2,2.72.7,5.43,1.08,8.14.13,1,.25,1.94-.85,2.48a2.28,2.28,0,0,1-3.22-.83,13.44,13.44,0,0,1-1.45-3.79c-.62-3.22-1-6.48-1.54-9.73-.14-.93-.26-1.87-.41-3l-4.12-.84a1.78,1.78,0,0,1,.7-2.35c4-3.25,3.42-3.2,3.45-8.09,0-2.74.05-5.47.08-8.21a8.63,8.63,0,0,1,.14-2.45,11.39,11.39,0,0,1,1.51-2.81c.35-.5.79-.42,3.16-.07,2.36,4.3.2,9.13,1.34,13.69,2.2.13,4.25-2.14,6.52.73a17.28,17.28,0,0,0,.28-2.82c-.21-1.91-.56-3.79-.79-5.7a11.07,11.07,0,0,1-.06-2.44c.15-1.37.95-2.31,1.88-2.38a2.92,2.92,0,0,1,3.23,2,35.72,35.72,0,0,1,1,5.23c.29,2.44.38,4.91.62,7.36.13,1.35.37,2.69.59,4.16a6.74,6.74,0,0,0,1.7,0c1.44-.45,2.49.22,3.79.76,3,1.22,4.08,3.45,4.57,6.29.25,1.48.53,3,.79,4.44.07.41.24.89.09,1.21-1.17,2.56-1.22,5.26-1.18,8a.94.94,0,0,1-.32.72,2.77,2.77,0,0,1-1.44.58,1.69,1.69,0,0,1-1.24-.83,12,12,0,0,1-.34-2.42c-.45-3.1-.89-6.22-1.39-9.32C370.37,110.35,370.25,110.27,368.58,108.47Z"/><path d="M703.59,177.87a58.35,58.35,0,0,0-7.23,2.07c-1.34,4.35-1.41,10.73-.23,18.76-.15.22-.26.52-.46.65-3.14,1.91-4.83.21-5.4-2.51a52.54,52.54,0,0,1-.71-7.75c-.09-1.5.09-3,0-4.51-.12-2.16-.37-4.31-.61-7,1.71-3.39,1.1-7.72,1.53-11.9.07-.67-.11-1.37-.07-2.05a3.07,3.07,0,0,1,3-2.85,2.57,2.57,0,0,1,2.74,2.45c.24,1.9.28,3.82.35,5.73,0,1.48,0,3,0,4.57,2.66.32,4.69-1.13,6.81-1.21,1.08-1.2.8-2.49.74-3.67-.09-1.64-.39-3.26-.58-4.89a8.66,8.66,0,0,1-.09-2c.18-1.41,1.21-2.67,2.13-2.7a2.88,2.88,0,0,1,2.63,1.68,7.83,7.83,0,0,1,1,2.68c.42,2.84.72,5.7,1,8.55.12,1.06.15,2.13.22,3.18.6.15,1,.41,1.37.33,3.13-.76,4.84,1.11,6.36,3.36a14,14,0,0,1,2.26,7.79c0,2.59-.11,5.19-.27,7.78a6.85,6.85,0,0,1-.64,2.34,1.47,1.47,0,0,1-2.63.18,14.29,14.29,0,0,1-1.09-3.49c-.34-1.88-.48-3.8-.73-5.7a24.73,24.73,0,0,0-.47-2.84c-.48-1.92-1.3-3-2-2.67-1.26.54-1,1.84-1.24,2.84a44.26,44.26,0,0,0-1.29,10.57c.08,2-1.15,3-2.75,3.64a1.53,1.53,0,0,1-2.07-.78,14.5,14.5,0,0,1-.66-3.57c-.19-4.38-.24-8.76-.4-13.14C704,180.54,703.77,179.36,703.59,177.87Z"/><path d="M345.58,281.61c-.38-2.55.64-4.9.77-7.32.15-2.59.52-5.17.87-7.74s.9-4.83.59-7.42c-.58-.2-1.07-.41-1.57-.54a5.36,5.36,0,0,1-3.87-3.39,55.79,55.79,0,0,1-1.93-6.25c-.35-1.31-.39-2.71-.7-4a6.74,6.74,0,0,0-.9-1.67c-2.15.7-4.08,1.32-6,2a2.47,2.47,0,0,0-1.77,2.06,16.8,16.8,0,0,0-.24,2.45c-.12,5.2-.55,10.41.7,15.55a1.78,1.78,0,0,1-.65,2.18,2.9,2.9,0,0,1-3.41-.36,5,5,0,0,1-1-1.77,26.09,26.09,0,0,1-.79-4,90.89,90.89,0,0,1,0-17.22c.58-6.69,1.25-13.36,1.82-20a3.56,3.56,0,0,1,2.05-3.27,1.94,1.94,0,0,1,2.27.28,3.72,3.72,0,0,1,1.45,3.24c-.21,3.14-.48,6.27-.78,9.4-.15,1.5-.45,3-.6,4.47a13.66,13.66,0,0,0,.16,2.29c2-.53,3.82-1.13,5.64-1.42a54.07,54.07,0,0,1,5.46-.32c1.56.87,2,2.61,2.26,4.38s.49,3.8.82,5.69a20.93,20.93,0,0,0,1,3.55c.15.42.7.7,1,1,1.26-.8,1.24-1.95,1.39-3,.24-1.77.43-3.54.7-5.29a6.83,6.83,0,0,1,2.06-3.93c1.17-1.17,2.66-1,3.31.54a5.94,5.94,0,0,1,.48,2.75c-.32,3.27-.69,6.54-1.22,9.78-1.14,7-2.39,14-3.63,21a18.3,18.3,0,0,1-1,4A3.78,3.78,0,0,1,345.58,281.61Z"/><path d="M492.24,177.6c-.34.5-.72.82-.76,1.18-.49,3.79-1.77,7.49-1.46,11.38a2.76,2.76,0,0,1-1.25,2.81,2.66,2.66,0,0,1-4.17-1.61,9.88,9.88,0,0,1-.15-1.63q-.39-7.18-.79-14.37c-.05-.81-.15-1.62-.22-2.42-2.64.09-4.29,1-4.66,3.07-1.19,6.51-1.76,13,.82,19.41a1.67,1.67,0,0,1-1.61,2.52,3.16,3.16,0,0,1-2.89-1.19,8.47,8.47,0,0,1-2-4.44c-.34-3.54-.61-7.08-.85-10.63-.09-1.36,0-2.73,0-4.28l-3.12-1.55a2,2,0,0,1,1.39-2.63c2.52-.82,3.26-2.69,3.41-5.05.09-1.5.25-3,.41-4.5a2.85,2.85,0,0,1,1.59-2.25,2.31,2.31,0,0,1,3.46,1,6.8,6.8,0,0,1,.58,1.94c.13.8.14,1.62.2,2.46,1.23.7,2.13.21,3.16-.65a14.44,14.44,0,0,1,.2-2.27,15.25,15.25,0,0,1,1.1-3.47,2.08,2.08,0,0,1,3.66.24,9.67,9.67,0,0,1,.61,2.78c.27,2.44.46,4.88.67,7.17.51.23.79.48,1,.42,3.64-1.13,5.94,1.08,7.38,3.68a22.87,22.87,0,0,1,3.23,10.5,5.84,5.84,0,0,1-.88,3.92,6.11,6.11,0,0,0-.74,2.29,14.3,14.3,0,0,1-.29,2,1.76,1.76,0,0,1-1.12,1,1.45,1.45,0,0,1-1.17-.84A24.88,24.88,0,0,1,496,188a20.27,20.27,0,0,0-2.8-9.76C493.11,178,492.78,177.93,492.24,177.6Z"/><path d="M317.81,167.53c1.18-.12,1.85-.16,2.52-.26,4-.6,6.57,1.41,8.45,4.55a15,15,0,0,1,1.61,4.18,38.88,38.88,0,0,1,.8,5.28,6,6,0,0,1-.14,2.83,8.72,8.72,0,0,0-.91,4.33,1,1,0,0,1-.28.75,1.94,1.94,0,0,1-1,.59c-.34,0-.94-.16-1-.41a25,25,0,0,1-1.17-3.87c-.49-2.42-.84-4.86-1.25-7.29a8.52,8.52,0,0,0-2.15-4.36,1.65,1.65,0,0,0-2.76.29A11.28,11.28,0,0,0,319.3,178c-.18,3.14-.09,6.29-.11,9.44v2.73l-3.3,1.77c-1.65-.68-1.78-1.95-1.9-3.15-.45-4.64-.86-9.28-1.27-13.92-.17-1.89-.24-3.8-1.25-5.42-1.64-.44-2.78.35-4.17,1.05-.69,3.32-.17,6.72.12,10.1a34.23,34.23,0,0,0,.92,4.41c.15.67.37,1.32.47,2a1.73,1.73,0,0,1-2.07,1.89,3.82,3.82,0,0,1-3.13-2.9,44.83,44.83,0,0,1-1.21-5.61c-.36-2.44-.53-4.9-.81-7.35-.08-.67-.26-1.32-.44-2.23-1.23-.11-2.43-.19-3.62-.33-.65-.07-1.09-1.16-.62-1.61a12,12,0,0,1,2.55-2,3.55,3.55,0,0,0,2-3.29c.07-1.77.11-3.56.17-5.34a4,4,0,0,1,1.57-3.19c.79-.59,1.58-1.13,2.62-.61a2.55,2.55,0,0,1,1.53,2.26c.05,1.23,0,2.46-.08,3.69-.05,1.48-.54,3,.29,4.7l3.39.44c.25-.57.57-.94.55-1.29-.12-2.32-.33-4.63-.48-6.95a13.41,13.41,0,0,1-.05-2.83,2.27,2.27,0,0,1,2.15-2.11c1.42,0,2.56.58,2.79,1.86.55,3,1,5.94,1.39,8.92C317.53,164.5,317.63,165.85,317.81,167.53Z"/><path d="M621.58,254.45c.33.1.48.21.59.17,3.73-1.18,3.74-1.17,4.92,2.74.06.21.36.34.56.52,1.05-.18,1-1.16,1.29-1.85a26.67,26.67,0,0,1,1-2.66,4.9,4.9,0,0,1,3.94-2.61,9.11,9.11,0,0,1,6.57,1.8,4,4,0,0,1,1.17,1.61,1.67,1.67,0,0,1-1.74,2.43c-1.09-.09-2.15-.39-3.23-.52-2.29-.27-3.48.34-3.82,2.67-.72,4.89-3.34,9.26-3.69,14.23a2.64,2.64,0,0,1-1.86,2.45c-1.74.66-2.15.61-3.46-1-.17-.21-.26-.49-.44-.69a6.12,6.12,0,0,0-.82-.61c-1.14.8-2.31,1.72-3.59,2.46s-2.67,1.37-4,2c-3.84,1.84-8,1.77-12.05,1.58a3.33,3.33,0,0,1-3.1-2.82,11.56,11.56,0,0,1,0-6.49,34.67,34.67,0,0,1,11.54-17,17.3,17.3,0,0,1,4.79-2.26,3.66,3.66,0,0,1,4.71,2.15A16.8,16.8,0,0,0,621.58,254.45Zm.51,3.73a15.38,15.38,0,0,0-1.45,1.38c-3.35,4.67-7.47,8.24-13.28,9.44a2.91,2.91,0,0,0-.76.29,3.46,3.46,0,0,0-1.73,3.81c.14,1.21,1,2,2.6,2.13a9.31,9.31,0,0,0,2.84-.1A34.32,34.32,0,0,0,623,269,55,55,0,0,0,622.09,258.18ZM617,255.34l-.89-.44a23.66,23.66,0,0,0-7.29,7.92c-.06.11.23.41.45.79a16.2,16.2,0,0,0,7.4-6.08A5.43,5.43,0,0,0,617,255.34Z"/><path d="M470.6,120.29c-2,.48-2.88,1.79-3.87,2.87-2.81,3.08-6.45,4.5-10.4,5.38-3.58.79-5.48-1.55-6.34-4.33a8.29,8.29,0,0,1-.22-2.44,25.25,25.25,0,0,1,3.09-12.2c1.09-1.89,2.05-3.88,3.3-5.66a28,28,0,0,1,3.8-4.28c3.18-2.95,4.59-3.41,9-3.28a60,60,0,0,0,1.07-7.54,21.29,21.29,0,0,1,2.27-7.41,1.84,1.84,0,0,1,3.31-.19,7.81,7.81,0,0,1,1.15,3.43A110.58,110.58,0,0,1,477,97.76c-.26,3.93-1.34,7.8-2,11.71a18.58,18.58,0,0,0-.34,4.86c.24,2.3.88,4.56,1.32,6.84a24.35,24.35,0,0,1,.61,4c0,.5-.61,1.18-1.11,1.51a1.65,1.65,0,0,1-2.25-.25,10.15,10.15,0,0,1-1.45-2.44C471.38,122.92,471.08,121.74,470.6,120.29Zm-1.79-10.64c0-1.31,0-2.41,0-3.5a5.91,5.91,0,0,0-1.37-3.76,1.86,1.86,0,0,0-3.11-.32,32.45,32.45,0,0,0-8,12.15,36.5,36.5,0,0,0-1.58,5.5,10.74,10.74,0,0,0-.25,2.83c0,1.64,1.05,2.37,2.74,2.19a7.78,7.78,0,0,0,4.38-2,48.14,48.14,0,0,0,4.78-5C468.32,115.32,469.81,112.72,468.81,109.65Z"/><path d="M542.67,131.88c-.91-1.48-.34-2.83-.28-4.14.15-2.74.44-5.47.41-8.2a24.35,24.35,0,0,0-.8-5.27,8.48,8.48,0,0,0-3.06-4.76,1.76,1.76,0,0,0-2.77.56,7.82,7.82,0,0,0-1.22,5.09c.24,1.9.29,3.82.38,5.73a15.86,15.86,0,0,1-.09,2.06c-.24,3.43-1.59,6.07-5.46,7.19a9.74,9.74,0,0,1-1.63-2,9.84,9.84,0,0,1-.5-5.66c.34-2.3.75-4.6,1.18-6.89a5.35,5.35,0,0,0-1.31-5,2.06,2.06,0,0,0-3.22-.14,11.31,11.31,0,0,0-3.43,7.29c-.12,2.33-.19,4.66-.24,7a4.49,4.49,0,0,1-3.19,4.43c-1.81-.9-2.29-2.59-2.59-4.35a12,12,0,0,1-.1-2.47c.21-5.06.42-10.13.67-15.19a6,6,0,0,1,.48-2c.93-2.17,3.13-2.61,5-1,.4.35.74.77,1.24,1.29,3.58-3.28,6.58-1,9.86,1.07.77-.6,1.61-1.24,2.42-1.91,2.73-2.21,5-2.07,7.7.2a16.29,16.29,0,0,1,5.38,9.47,31.88,31.88,0,0,1-.33,13.47A5,5,0,0,1,542.67,131.88Z"/><path d="M506.73,271.8a21.45,21.45,0,0,1-10.57,3.79c-5.45.36-8.37-2.63-8.87-7.1-.82-7.23,1.15-13.59,7.22-18.15,3.22-2.42,6.07-2,8.54,1.21a7.7,7.7,0,0,1,1.45,5.83,3.41,3.41,0,0,1-.69,1.45,1.6,1.6,0,0,1-2.91-.33c-.44-1-.75-2.07-1.26-3a7.82,7.82,0,0,0-1.42-1.47,9.55,9.55,0,0,0-3.64,4.5,21,21,0,0,0-1.72,10,3.39,3.39,0,0,0,1.93,2.95c1.87,1,3.75,1.65,5.88.71,1-.44,2.08-.66,3.11-1a2.73,2.73,0,0,0,2.08-3.11c-.59-4.54,1.61-8.27,3.71-11.94a42.32,42.32,0,0,1,4-5.21,5.09,5.09,0,0,1,3.82-2c1.56,1.17,3,2.35,4.58,3.39a4.14,4.14,0,0,1,1.71,2.7,66.52,66.52,0,0,1,1.57,7.2,12.94,12.94,0,0,1-2.5,8.93,10.82,10.82,0,0,1-8.08,5.08,6.93,6.93,0,0,1-6-1.95C508,273.53,507.47,272.73,506.73,271.8Zm12.14-15.63c-2.26.28-4.16.6-5.08,2.66s-1.77,4-2.53,6a6,6,0,0,0-.28,2.42c.12,1.87.8,3.49,2.65,4.27,1.28.54,3.32-.41,4.51-2.14C521,265.26,521.64,260.93,518.87,256.17Z"/><path d="M394.85,187.22a8,8,0,0,0,3-5.1c1-5.36,1.05-10.63-2.18-15.39a2.65,2.65,0,0,1-.31-3c.37-.65.77-.73,3.09-.76,1,1.3,2.23,2.61,3.23,4,1.7,2.44,2.05,5.36,2.52,8.17.73,4.45-.54,8.7-2.05,12.82a8.06,8.06,0,0,1-4.62,4.45,5.44,5.44,0,0,1-6.65-1.54,46,46,0,0,1-2.93-4.44c-.58-.91-1.07-1.88-1.54-2.73-1.1-.06-1.22.69-1.54,1.27a10.16,10.16,0,0,1-4.51,4.61c-2.37,1.12-4.05.67-5-1.7a29.19,29.19,0,0,1-1.8-6.29,33.33,33.33,0,0,1,.61-13,8.57,8.57,0,0,1,.46-1.57,2.51,2.51,0,0,1,2.53-1.7,2.7,2.7,0,0,1,2.54,2.3,13.75,13.75,0,0,1-.34,4.05,32,32,0,0,0-.63,8.16,6.46,6.46,0,0,0,.93,3.82c1,.07,1.24-.69,1.47-1.29a27.23,27.23,0,0,0,2.29-8.26,6.76,6.76,0,0,1,.44-2,2.26,2.26,0,0,1,3.39-1.08c1.61,1.1,2.09,2.72,2.32,4.58a37.39,37.39,0,0,0,1.28,6.4A8.27,8.27,0,0,0,394.85,187.22Z"/><path d="M569.33,178.93a5.18,5.18,0,0,0-2.53,5.17c.15,2.32.38,4.64.53,7a10.56,10.56,0,0,1-.06,2.45c-.19,1.23-1.58,2.13-3.12,2.18a2.38,2.38,0,0,1-2.28-2,7.27,7.27,0,0,1-.2-1.21c-.33-4.23-.68-8.46-1-12.69a9.62,9.62,0,0,1,.17-2.84c.47-1.88,1.57-2.64,3.6-2.35a3.55,3.55,0,0,0,3.29-1.08c1.68-1.61,2.43-1.59,4.25-.29a21.75,21.75,0,0,1,1.84,1.62l1.51,1.3c2.27-.91,3.31-3,5.17-4.45,1.45-.08,3.07-.6,4.56.57a11.53,11.53,0,0,1,4.44,6.23,33.33,33.33,0,0,1,.93,4.84c.41,4,.72,7.9,1,11.86a14.51,14.51,0,0,1-.09,2.87,2,2,0,0,1-1.44,1.81,1.92,1.92,0,0,1-2.13-.86,8.25,8.25,0,0,1-1.57-4.57q-.53-5.93-1.34-11.83c-.37-2.56-.71-2.91-3.26-5.2a7.62,7.62,0,0,0-1.73,1.46,13,13,0,0,0-2.33,7.73c0,1.78-.09,3.55-.14,5.33-.07,2.59-1.38,4.31-3.84,5.45a6.09,6.09,0,0,1-1.65-5.59c.47-3.05-.07-6-.46-9C571.31,181.36,571,179.84,569.33,178.93Z"/><path d="M566.5,285.36l2.4-.52c.14.37.37.66.31.86a11.53,11.53,0,0,1-3.37,5.48c-1.49,1.25-3.26,1-4.05-.82a11.52,11.52,0,0,1-1-4.34c0-3.68.17-7.37.31-11.06,0-.93.15-1.85.26-3.19a10.93,10.93,0,0,0-2.49.82,11,11,0,0,1-6.29,1.51,4.43,4.43,0,0,1-4.61-4.29,8.61,8.61,0,0,1,1.11-5.15c2.17-3.78,4.17-7.73,8.18-10a3.77,3.77,0,0,0,.91-.83c2.21-2.54,5.16-2.82,8.24-2.73a3.35,3.35,0,0,1,3.38,2.5,10.83,10.83,0,0,1,.13,7.18,59.38,59.38,0,0,0-2.19,9.14c-.55,2.82-1,5.66-1.32,8.51A19.42,19.42,0,0,0,566.5,285.36Zm-12.74-16.17c3.55-.37,7.58-2.54,9.1-5.37,1.14-2.12,3-4.3,1.8-7.22-3,0-4.88,1.95-6.51,3.83C556.07,262.82,553.8,265.28,553.76,269.19Z"/><path d="M535.45,195.82c-2.81-.77-4.07-2.5-5-4.85-2-5.13-1.81-10.46-1.78-15.79a6,6,0,0,1,.43-2,2.17,2.17,0,0,1,2.08-1.67,2.23,2.23,0,0,1,2.17,1.6,17,17,0,0,1,.75,3.59c.3,3,.5,6,.74,9a7.37,7.37,0,0,0,1.21,4.11c1.16,0,1.23-.78,1.38-1.37,1.17-4.78,2.38-9.56,2.26-14.54a3.86,3.86,0,0,1,2-3.75,2.45,2.45,0,0,1,3.64,1.38,7.19,7.19,0,0,1,.31,2.43c-.16,3-.28,6-.68,9a53.6,53.6,0,0,1-1.65,7.62c-1.91,6.59-2.48,13.44-4,20.11A30.09,30.09,0,0,0,539,216a7,7,0,0,1-.27,2,1.83,1.83,0,0,1-1.91,1.26,2.44,2.44,0,0,1-1.68-.89,9.36,9.36,0,0,1-.95-3.08,24.63,24.63,0,0,1,.56-9.37C535.58,202.65,535.28,199.4,535.45,195.82Z"/><path d="M424.5,121.81c2-1,3.63.17,5.34.3s3.52.36,5.22-1.06a10.55,10.55,0,0,0-1.29-2.56c-1.57-1.7-3.32-3.24-5-4.88a57.13,57.13,0,0,1-4.27-4.4c-3.75-4.63-2.46-9.1,2-12.36a10.47,10.47,0,0,1,7.38-2,7.32,7.32,0,0,1,3.35,1.31c.66.46.89,1.53,1.28,2.27a4.41,4.41,0,0,1-4.72,1.38c-2.34-.56-4,.47-5.32,2.22a2.79,2.79,0,0,0-.24,3.44,28,28,0,0,0,2.52,3.23,25.44,25.44,0,0,0,2.4,2.24,31.29,31.29,0,0,1,7.63,8.76,28.51,28.51,0,0,0,.79-3.3c.38-4.09.69-8.18,1-12.27.21-2.56,1.48-3.79,3.54-3.48a2.15,2.15,0,0,1,2,1.75,13.8,13.8,0,0,1,.2,3.68c-.68,6.53-1.46,13-2.24,19.88a4.49,4.49,0,0,1-.67.58c-2,1.35-2.7,1.19-3.82-.92-.31-.58-.52-1.22-.9-2.09-3.9,2.85-8.05,3.74-12.41,2C426.73,124.93,424.78,124.15,424.5,121.81Z"/><path d="M707.15,125.06c-1.15,1-2.06,1.74-3,2.49a16,16,0,0,1-6.44,3.45,3.43,3.43,0,0,1-4.32-2.17,10,10,0,0,1-.66-6.42,52.5,52.5,0,0,1,6.32-16.78,15.51,15.51,0,0,1,6-5.49,2.53,2.53,0,0,1,3.37.28,6.22,6.22,0,0,0,4.06,2.44c.49,0,1,.85,1.3,1.42a2.72,2.72,0,0,1,.22,1.6c-.55,3.34,0,6.83-1.37,10.08a6,6,0,0,0-.38,2.81c.3,3,.68,6,1.21,8.91a8.41,8.41,0,0,0,1.45,2.4,1.73,1.73,0,0,1-1.23,2.75c-1.63.31-3,0-3.86-1.57-.57-1.08-.94-2.26-1.41-3.39C708,127,707.63,126.17,707.15,125.06ZM698,126.4c2.13.18,3-.84,4-1.82,4.52-4.59,5.9-10.34,6-16.53a1.88,1.88,0,0,0-1.82-2.09c-2.87,2.15-4.12,5.53-5.54,8.74A27,27,0,0,0,698,126.4Z"/><path d="M661.85,275.79l3.56.4c-.27.72-.32,1.44-.66,1.64a11.69,11.69,0,0,1-4,1.87c-3.28.39-4.26-2.35-5.4-5-1,.59-1.75,1-2.5,1.52a16.08,16.08,0,0,1-8.31,3.19c-3,.16-4.75-1-5.18-4a17.19,17.19,0,0,1,0-5.31A29.51,29.51,0,0,1,647.77,254a10.57,10.57,0,0,1,3.42-2.16c3.37-1.39,5.77-.64,7.83,2.34a10,10,0,0,0,2.4,2.69,3.94,3.94,0,0,1,1.31,4.4c-.57,2.12-1.24,4.2-1.8,6.32A11.52,11.52,0,0,0,661.85,275.79Zm-16.65-.47a7.41,7.41,0,0,0,1.44-.28,21.23,21.23,0,0,0,8.31-7.69c2.22-3.26,1.69-6.76-.26-10.05a1.68,1.68,0,0,0-2.77-.34,7.94,7.94,0,0,0-.59.57,28.22,28.22,0,0,0-6.68,15.11A8.6,8.6,0,0,0,645.2,275.32Z"/><path d="M318.77,84.76c2.34-.81,4.35,0,5.81,2.16,1.21,1.78,1.82,3.89,3.81,5.21.85.56,1.14,2.15,1.43,3.33a29.06,29.06,0,0,1,.84,10.59,14,14,0,0,1-3.13,7.47,15,15,0,0,1-9.71,4.84,4.63,4.63,0,0,1-4.63-2,10.18,10.18,0,0,1-2.07-6.1,38.3,38.3,0,0,1,3.64-16.31C316,91.07,317.27,88.19,318.77,84.76Zm3.41,7c-.54.41-.83.53-.95.74a37.77,37.77,0,0,0-4.49,16.79,9.18,9.18,0,0,0,.37,2.8,1.92,1.92,0,0,0,2.93,1.17,8.81,8.81,0,0,0,3.89-4.53c1.6-4,1.29-8,.33-12C323.86,95,323.65,93.21,322.18,91.73Z"/><path d="M443,183c.51-2,.87-3.2,1.06-4.39a59.85,59.85,0,0,0,.88-6.51,9.5,9.5,0,0,1,3.22-6.77c3,.9,3.18,1,3.2,3.38a29.54,29.54,0,0,1-.4,5.72c-.64,3.36-1.53,6.67-2.31,10-1.1,4.66-2.32,9.3-3.26,14a58,58,0,0,0-.64,7.35c-.06.82,0,1.65-.05,2.47A1.8,1.8,0,0,1,443.3,210c-.94.2-1.53-.4-2-1.07a6.63,6.63,0,0,1-1.07-3.9,46.5,46.5,0,0,1,.59-11.05,15.13,15.13,0,0,0,.61-5.36c-5.05-4-6.58-9.5-6.35-15.69,0-1.36-.16-2.75,0-4.1a19.7,19.7,0,0,1,1-4.37,2,2,0,0,1,1.58-1,2.38,2.38,0,0,1,1.52,1.1,4.48,4.48,0,0,1,.48,2c.19,2.59.41,5.19.47,7.78a15.54,15.54,0,0,0,1.48,6.76A15.35,15.35,0,0,0,443,183Z"/><path d="M676.45,264.14c.72-.26,1.6-.51,2.42-.89,1.23-.57,2.38-1.37,3.65-1.82a6.18,6.18,0,0,1,7.39,1.9,6.79,6.79,0,0,1,.86,7.69c-2.49,5.17-7,7.85-12.32,9.37a5,5,0,0,1-1.22.14c-4.68.16-7.68-2.38-7.25-7.23.26-3,.11-6,.1-9,0-4.42,1.14-8.66,2.21-12.9.7-2.77,1.67-5.47,2.41-8.24a6.92,6.92,0,0,1,1.83-3.14,2.2,2.2,0,0,1,2.15-.89c1.12.29,1.37,1.27,1.5,2.22a10.36,10.36,0,0,1-.61,4.82,66,66,0,0,0-3.72,14.65C675.74,261.87,675.24,263,676.45,264.14Zm1,12.75a13.06,13.06,0,0,0,3.51-1.27,35.79,35.79,0,0,0,4.84-4.37,2.87,2.87,0,0,0-3.24-4.69,65.08,65.08,0,0,0-7.69,3.76,3.16,3.16,0,0,0-.68,5C674.93,276.09,676.26,276.35,677.41,276.89Z"/><path d="M620.46,200.47a9.7,9.7,0,0,1-1.38,1.64c-1.29.93-2.37.77-3.13-.54a22.55,22.55,0,0,1-3-8c-.18-1.21-.33-2.43-.54-4a10.39,10.39,0,0,0-1.87.7c-1.82,1.2-3.67,2.38-5.38,3.73-2.24,1.77-4.84,1.7-7.43,1.66a2.11,2.11,0,0,1-2.13-2.82c2.44-8.29,6-15.86,13.87-20.48.24-.13.46-.3.71-.41,2.71-1.24,5.39-.36,6.41,2.43,1.17,3.17,2.22,6.34,1.43,9.93-.58,2.63-.3,5.43-.46,8.16C617.41,195.51,618.63,198.05,620.46,200.47Zm-18-9.83a6.2,6.2,0,0,0,1.58-.3,25.1,25.1,0,0,0,7.71-8.3,6.58,6.58,0,0,0,.76-2.72,5.55,5.55,0,0,0-.47-1.84C608.12,179.16,604.07,184.72,602.47,190.64Z"/><path d="M486.63,120.11a3.92,3.92,0,0,0,1.13,4.75,4.63,4.63,0,0,0,5,.64,48.16,48.16,0,0,0,4.93-2.9c.69-.43,1.31-1,2-1.36a12.36,12.36,0,0,1,2.2-.64,7,7,0,0,1-2.79,5A21.32,21.32,0,0,1,490,130a8,8,0,0,1-5.2-.68,4.94,4.94,0,0,1-2-1.89,14.83,14.83,0,0,1-2.24-9.8c.26-2,.62-4,1-6,1.09-5.11,4.2-8.77,8.47-11.58a5.19,5.19,0,0,1,4.32-.53,2.73,2.73,0,0,1,2.12,1.74c.55,1.54,1,3.1,2.62,4,.43.24.66,1.17.7,1.79a9.78,9.78,0,0,1-2,6.55c-2.49,3.33-5.35,6.24-10,6.15A4.15,4.15,0,0,0,486.63,120.11Zm.84-4.33a2.77,2.77,0,0,0,1.12-.12,11.39,11.39,0,0,0,5.61-7.72,8.13,8.13,0,0,0-.1-2.82,1.31,1.31,0,0,0-2-.76,12.26,12.26,0,0,0-5,11C487.17,115.51,487.33,115.61,487.47,115.78Z"/><path d="M622.94,114.08a22.27,22.27,0,0,1-3.44,11.85,10.85,10.85,0,0,1-5.32,4.31,27.44,27.44,0,0,1-5.12,1.45,5.49,5.49,0,0,1-5.74-2.27,11.67,11.67,0,0,1-1.82-11.57,31.73,31.73,0,0,1,10.41-14.43,8.29,8.29,0,0,1,2.09-1.27,3.64,3.64,0,0,1,4.13.75,8.87,8.87,0,0,1,3,4.31C621.75,109.69,623.35,111.94,622.94,114.08Zm-6.86-6.36a5,5,0,0,0-1.28.52,22.64,22.64,0,0,0-8.28,13.33,9.64,9.64,0,0,0,0,3.26,3.39,3.39,0,0,0,5.31,2.4,11.66,11.66,0,0,0,4.68-5.58,22.76,22.76,0,0,0,1.32-10.51A4.07,4.07,0,0,0,616.08,107.72Z"/><path d="M432.42,188.35c-.16,1.16-1,1.55-2,1.7a3.4,3.4,0,0,1-3.33-1.17,29.23,29.23,0,0,1-2-3.09c-.47-.79-.87-1.61-1.46-2.71a44.8,44.8,0,0,0-3.38,3.35c-1.8,2.2-4.24,2.92-6.87,3.22a4.35,4.35,0,0,1-5-3.3,8.25,8.25,0,0,1-.16-4c1.74-6.11,4.12-11.93,8.93-16.36a34.53,34.53,0,0,1,3.3-2.42c1.82-1.31,3.67-.78,5.43.08a2.83,2.83,0,0,1,1.23,1.54,15.78,15.78,0,0,1,.95,7.25,36.13,36.13,0,0,0-.4,6.14C427.8,183.44,428.6,185,432.42,188.35Zm-9.57-20.06a5.48,5.48,0,0,0-1.57.93c-3.3,3.84-6.24,7.9-7.68,12.85-.3,1-.85,2.09,0,3.07.64.69,1.91.38,3.25-.78,4.63-4,6.56-9.2,6.56-15.21C423.46,168.94,423.18,168.74,422.85,168.29Z"/><path d="M582.57,270.58a12.72,12.72,0,0,0,1.9-1.58,18.35,18.35,0,0,0,4.3-10,23.18,23.18,0,0,1,2.35-7.57c1.68-.73,2.39.7,3.49.88a7.9,7.9,0,0,1,.17,1.41c-.22,2.86-.69,5.72-.66,8.58,0,3.13.47,6.25.8,9.37a3,3,0,0,0,2.14,2.7,1.44,1.44,0,0,1,.55,2.34c-2.25,2.65-5,2.66-6.62-.32a32.15,32.15,0,0,1-1.79-4.84c-.93-.47-1.36.14-1.89.54-1.4,1.06-2.79,2.17-4.27,3.12a4.67,4.67,0,0,1-4.11.56c-2.54-2.87-3.06-6.49-2.76-10.23.27-3.4.92-6.77,1.36-10.16a6,6,0,0,1,2.6-4,1.52,1.52,0,0,1,2.17.36,5.16,5.16,0,0,1,.86,2.23,21.47,21.47,0,0,1-.31,4.07c-.37,2.43-.92,4.84-1.21,7.28C581.44,267,581.26,268.8,582.57,270.58Z"/><path d="M730.14,189.07c-.16,1.05-.58,2-.31,2.53A4.8,4.8,0,0,0,731.9,194c2,.84,4.13,1.59,6.35,1.12s4.5-1.08,6.71-1.78c1.18-.37,2.28-.9,3.75,0-.38.66-.58,1.53-1.13,1.9-5.1,3.56-10.86,4.37-16.82,3.42-4.52-.73-7.08-4.78-6.36-9.47.83-5.41,3.82-9.57,7.82-13.09.81-.71,1.83-1.19,2.67-1.88,2.07-1.7,4.39-1.3,6.65-.77a3.81,3.81,0,0,1,2.71,3.3c.68,3.52.49,6.84-2.64,9.28a48.36,48.36,0,0,1-4.59,3.38C735.43,190.35,733.83,190.19,730.14,189.07Zm1.51-3.71a10,10,0,0,0,6.85-4.07,5.77,5.77,0,0,0,.85-1.81,1.35,1.35,0,0,0-.28-1.09,1.32,1.32,0,0,0-1.06-.32,2.83,2.83,0,0,0-1.44.67q-2.4,2.47-4.66,5.06C731.7,184,731.78,184.53,731.65,185.36Z"/><path d="M385.41,114.06a3.09,3.09,0,0,0,.56,3.43,5.57,5.57,0,0,0,2.51,1.22,12.06,12.06,0,0,0,8.38-1c1.85-.9,3.65-1.89,5.46-2.84,1.1-.58,2.19-1.15,3.61-.16a4.49,4.49,0,0,1-.6,1.37c-5.05,5.31-11.31,7.23-18.54,7.07-4.22-.09-7.86-4.84-7.27-8.8a38.49,38.49,0,0,1,2-7.51c1.44-4,4.81-6.21,8.32-8.13a7.71,7.71,0,0,1,3.19-.41,2.63,2.63,0,0,1,2.53,1.76,1.91,1.91,0,0,0,.48.66c.76.56,1.89.89,1.79,2a9.29,9.29,0,0,1-.85,3.52,14.37,14.37,0,0,1-8.71,7C387.35,113.56,386.43,113.78,385.41,114.06Zm6.3-10.46a3.79,3.79,0,0,0-3,2.77C390.51,106.16,391.21,105.31,391.71,103.6Z"/><path d="M729.13,259.74c1,3.17-.28,5.54-2.59,7.62a26.41,26.41,0,0,1-10,5.53c-.78.25-1.59.41-2.37.65-1.77.53-2.27,1.14-2.4,2.84-.12,1.48.52,2.45,2,2.55a32.14,32.14,0,0,0,5.72-.1c2-.24,4-.82,6-1.22a8,8,0,0,1,2-.22.92.92,0,0,1,.34,1.73c-1.63.71-3.27,1.38-5,1.94-3.61,1.2-7.19,2.56-11.11,2.5a5.62,5.62,0,0,1-5.65-4.36,9.82,9.82,0,0,1,.65-6.82c2.25-4.75,5.22-9,9.66-12a16.88,16.88,0,0,1,5.58-2.52C724.81,257.19,727.21,257.48,729.13,259.74Zm-12.51,7.44c3.4-.42,5.74-1.58,7.23-3.58a1.48,1.48,0,0,0,0-1.12c0-.17-.43-.3-.68-.36a1.39,1.39,0,0,0-.81,0A11.24,11.24,0,0,0,716.62,267.18Z"/><path d="M652.87,128c-.7-.7-1.12-1.19-1.62-1.59a16.61,16.61,0,0,1-4.48-6.29,8.69,8.69,0,0,1,.69-8.63,24,24,0,0,1,14.46-10.77c2.93-.85,4.87.37,5.61,3.21.82,3.15.39,5-1.72,6.6a1.41,1.41,0,0,1-.76.25,4.27,4.27,0,0,1-1-.31c-.07-1-.15-2-.24-3.1-.16-1.87-.94-2.36-2.75-1.6a10.18,10.18,0,0,0-3.22,1.77,43.58,43.58,0,0,0-5.18,5.78,5.35,5.35,0,0,0,.18,6.88,26.36,26.36,0,0,0,3.56,3.35c1.35,1.15,2.92,2.07,4.14,3.33,1.56,1.61,1.2,3.08-.69,4.41a12.87,12.87,0,0,1-8.23,2,6.93,6.93,0,0,1-4.84-2.81,1.57,1.57,0,0,1,1-2.51,6.86,6.86,0,0,1,1.63.07c.81.1,1.61.27,2.42.39C652,128.42,652.13,128.31,652.87,128Z"/><path d="M532.42,256.63a23.33,23.33,0,0,1,2.24-1.85,4.67,4.67,0,0,1,6.51,1.25c2.59,3.44,4.69,7.06,4.56,11.61-.08,2.73.15,5.47.16,8.2a3,3,0,0,1-.55,1.92,3.47,3.47,0,0,1-2.06,1.1,1.68,1.68,0,0,1-1.61-1.61c-.29-2.59-.37-5.2-.69-7.78a37.11,37.11,0,0,0-1.11-5.61,5.24,5.24,0,0,0-2.83-3.63c-1.51,1.14-1.43,3-2,4.63a29.1,29.1,0,0,0-1.35,4.69c-.3,1.74-.29,3.53-.42,5.28a9.42,9.42,0,0,1-1.51.92c-2.43.89-3.62.11-3.83-2.49a15.14,15.14,0,0,1,0-1.65,90.61,90.61,0,0,0-1-16.37,8.93,8.93,0,0,1-.06-2.42,2.13,2.13,0,0,1,2-1.72,2,2,0,0,1,1.85,1.39c.3.76.54,1.55.84,2.32C531.75,255.3,532,255.76,532.42,256.63Z"/><path d="M306.06,114.41l-3.23,1c-1.37-.78-1.46-1.93-1.65-3a70.31,70.31,0,0,1-.88-15.54c.09-2.32.29-4.64.34-7a16,16,0,0,0-.34-2.64c-1.82-1.21-3.34.53-4.95.06a1.76,1.76,0,0,1-.11-2.57,14,14,0,0,1,8.58-5.2,61.4,61.4,0,0,1,6.53-.6,4.37,4.37,0,0,1,3.7,1.4,2.09,2.09,0,0,1,.09,3c-1.07,1.08-2.21,2-3.91,1.93a21.35,21.35,0,0,0-2.54.15,11.62,11.62,0,0,0-.73,2.35c-.34,4.37-.72,8.73-.87,13.1S306.06,109.61,306.06,114.41Z"/><path d="M527.19,190.42a5.38,5.38,0,0,1-3.81,2.6,30.66,30.66,0,0,1-13,.07,7.13,7.13,0,0,1-5.7-6.63c-.11-1.21-.21-2.41-.31-3.49,1.58-1.86,3-3.72,4.61-5.36,1.82-1.84,3.87-3.45,5.78-5.21a5.64,5.64,0,0,1,6.16-1.32,15.9,15.9,0,0,0,1.81,2.4c1.67,1.57,2.07,2.7,1,4.51a14.3,14.3,0,0,1-4.78,5c-2.23,1.33-4.46,2.68-7.16,2.91-.69,0-1.39.3-1.55,1.08a2,2,0,0,0,.95,2.12,10.8,10.8,0,0,0,5.91,1.43c2.6-.06,5.19-.25,7.79-.35A20.66,20.66,0,0,1,527.19,190.42Z"/><path d="M702,279.13a23.12,23.12,0,0,1-2.49,2c-1.61,1-3.11.26-3.32-1.55a27.18,27.18,0,0,1-.16-4.51,205,205,0,0,1,3-27.73,10.23,10.23,0,0,0,.41-2.82,4.08,4.08,0,0,1,1.67-3.54c1.46-1.34,3.3-1,3.83.9a8.34,8.34,0,0,1,.07,3.23c-.69,5.57-1.53,11.12-2.18,16.69A121.49,121.49,0,0,0,702,279.13Z"/><path d="M340.81,179.36a12.58,12.58,0,0,0-.63,2c-.35,3.07.34,3.93,3.4,4.29,1.06.12,2.23-.1,3,.94,0,.14,0,.33-.07.37a9.65,9.65,0,0,1-8.55,1.15,3.7,3.7,0,0,1-2.24-2.27,10.36,10.36,0,0,1-.8-5.22c.14-1.09.36-2.17.39-3.26a5.11,5.11,0,0,1,1.29-3.36,12.25,12.25,0,0,0,1.52-2.41c1.48-2.91,4-4.88,6.43-6.82,1.66-1.32,3.86-1,5.65.43a4.21,4.21,0,0,1,1.61,5.06,9.65,9.65,0,0,1-3.35,5.05C346.12,177,344,178.92,340.81,179.36Z"/><path d="M583.1,119c0-2.46-.07-4.92,0-7.38.08-2.3.81-4.31,3.17-5.28,2.67-3.22,6.25-2.7,9.78-2.39a4.77,4.77,0,0,1,3.5,1.9,2.21,2.21,0,0,1,.35,1.86,2.18,2.18,0,0,1-1.56,1.06c-1.76.19-3.54.16-5.31.24a3,3,0,0,0-3.08,2.74,48.41,48.41,0,0,0-.93,11.83c.08,1.77.24,3.54.27,5.32a4.33,4.33,0,0,1-.42,1.95,3.41,3.41,0,0,1-3.08,1.63,2.77,2.77,0,0,1-1.9-2.45,26.47,26.47,0,0,1-.49-4.06c-.08-2.32,0-4.65,0-7Z"/><path d="M310.44,242.91c-2.41,2.81-4.67,1-7.08.16a8.29,8.29,0,0,0-1.5,1.81,18.64,18.64,0,0,0-1,13.2c1.09,3.43,3.87,4.94,7.37,4.06.4-.09.78-.24,1.17-.36,1.84-.56,2.87-.52,2.84.11,0,1.17-1,1.52-1.84,2a12.65,12.65,0,0,1-9.12,1.28,5.11,5.11,0,0,1-3.08-1.88,14.6,14.6,0,0,1-3.1-5.72,20.06,20.06,0,0,1,1.95-15.46,7.75,7.75,0,0,1,1.18-1.65c3.45-3.41,7.07-3.41,10.73.26A13.53,13.53,0,0,1,310.44,242.91Z"/><path d="M566.36,115.65q.55,3,1.12,6a44.86,44.86,0,0,1,.86,4.83,6.69,6.69,0,0,1-.5,3.16,2.26,2.26,0,0,1-4,.38,10.15,10.15,0,0,1-1.33-3.37c-.47-2.26-.65-4.59-1.1-6.86a56.46,56.46,0,0,0-1.46-5.54,5.27,5.27,0,0,1,.26-4,3.13,3.13,0,0,1,1-1.24c1.69-1.12,3.5-2,5.14-3.24,3.37-2.42,7.13-2.61,10.94-1.89,1.38.27,2.63,1.34,3.84,2.18.72.49.9,1.79.37,2.17s-1.37.72-1.81.52c-2.84-1.3-5.63-.65-8.42,0-3.28.73-4.37,2-4.71,5.2-.05.54,0,1.1,0,1.64Z"/><path d="M631.05,108.12c.7-.44,1.26-.78,1.8-1.16a16.39,16.39,0,0,1,8.09-2.56,7,7,0,0,1,5,1.5,1.77,1.77,0,0,1,.7,1.32,1.55,1.55,0,0,1-1,1.06c-1.47.27-3,.27-4.45.53a12.89,12.89,0,0,0-3.47,1c-3.85,1.94-4.46,5.56-4.52,9.36,0,2,.13,4.09.23,6.13a4.63,4.63,0,0,1-2.35,4.38c-3.23-1.33-3.4-1.71-3.54-4.63-.17-3.67-.55-7.33-.85-11-.16-1.9-.38-3.79-.54-5.69a2.66,2.66,0,0,1,1.16-2.48,1.43,1.43,0,0,1,1.88,0A21.31,21.31,0,0,1,631.05,108.12Z"/><path d="M387,238.41c-.84,1-1.56,1.78-2.26,2.6a8.69,8.69,0,0,0-1.42,9.6,47,47,0,0,0,3.4,6.07,26.74,26.74,0,0,1,3.17,6.24,4.81,4.81,0,0,1-5.82,1.69,16.54,16.54,0,0,1-8.34-5.43c.16-.76.75-.73,1.28-.62,1.44.3,2.87.65,4.21,1,.7-.88.18-1.48-.09-2a25.56,25.56,0,0,0-2-3.6c-2.64-3.72-2.27-7.76-1.33-11.84a8.8,8.8,0,0,1,4.88-5.76c1.66-.9,2.12-.83,3.47.71A10.61,10.61,0,0,1,387,238.41Z"/><path d="M556.53,117.17c-.11,3-.21,6-.34,9a8.37,8.37,0,0,1-.34,2,2.33,2.33,0,0,1-2.54,1.63,2,2,0,0,1-2.09-1.59,21.94,21.94,0,0,1-.54-4c-.1-4.08-.19-8.17-.08-12.24a27.66,27.66,0,0,1,.95-5.61c.14-.56.8-1.06,1.33-1.45a1.49,1.49,0,0,1,2.16.34,6.79,6.79,0,0,1,1,2.59C556.32,111,556.39,114.08,556.53,117.17Z"/><path d="M318.33,260.41c-1.36.9-2.42,1.11-3.45.55a3.16,3.16,0,0,1-1.49-2.78c-.16-2.72-.3-5.45-.25-8.17s.33-5.17.52-7.76a7,7,0,0,1,.1-1.22c.35-1.38,2.22-2.93,3.27-2.63a2.8,2.8,0,0,1,2,2.81,35.48,35.48,0,0,1,0,6.52,75.49,75.49,0,0,0-.53,10.62C318.47,259,318.38,259.68,318.33,260.41Z"/><path d="M445.37,85.49a2.21,2.21,0,0,1,2.14,2.43c-.06,1.3-1.5,2.7-2.62,2.54a3.45,3.45,0,0,1-2.21-3C442.72,86.39,444,85.45,445.37,85.49Z"/><path d="M740.86,277.82c0,1.65-2.31,3.48-3.6,2.7a3,3,0,0,1-1.1-1.95,2.14,2.14,0,0,1,.68-1.72,5.21,5.21,0,0,1,2.23-.78A1.7,1.7,0,0,1,740.86,277.82Z"/><path d="M319.44,223.44c.62.51,1.39.89,1.74,1.51a2.76,2.76,0,0,1-.06,1.85c-.09.31-.55.56-.89.77-1.38.87-2.47.91-2.89.14a2.67,2.67,0,0,1,.57-3.31A11.53,11.53,0,0,1,319.44,223.44Z"/><path d="M555.18,93.44c1,0,1.76.1,2,1.11a1.71,1.71,0,0,1-1.1,2,4.3,4.3,0,0,1-.75.29c-1.23.38-2.19,0-2.35-.81a2,2,0,0,1,1.52-2.47C554.72,93.46,555,93.46,555.18,93.44Z"/><path d="M420.94,251.72c-.19-.42-.64-.91-.55-1.26a11,11,0,0,1,3.08-5.14,2.08,2.08,0,0,1,3,2.88,47.71,47.71,0,0,1-4.12,3.24C422.07,251.66,421.59,251.6,420.94,251.72Z" style="fill:#fff"/><path d="M745.38,123.56a10.2,10.2,0,0,1,.6-6.66c1.63-4,3.3-8.05,6-11.49.65-.82,1.43-1.54,2.2-2.36,1.09,2,1.17,2.75.63,7.58-.44,3.93-2.37,7.18-4.87,10.13C748.39,122.64,748.05,122.84,745.38,123.56Z" style="fill:#fff"/><path d="M653.34,185.82a12.79,12.79,0,0,1,6.76-6.69,1.84,1.84,0,0,1,1.43.37,1.23,1.23,0,0,1,.18,1.1,7.69,7.69,0,0,1-3.49,3.88C656.92,185.32,655.65,186.58,653.34,185.82Z" style="fill:#fff"/><path d="M622.09,258.18A55,55,0,0,1,623,269a34.32,34.32,0,0,1-12.66,6.12,9.31,9.31,0,0,1-2.84.1c-1.56-.12-2.46-.92-2.6-2.13a3.46,3.46,0,0,1,1.73-3.81,2.91,2.91,0,0,1,.76-.29c5.81-1.2,9.93-4.77,13.28-9.44A15.38,15.38,0,0,1,622.09,258.18Z" style="fill:#fff"/><path d="M617,255.34a5.43,5.43,0,0,1-.33,2.19,16.2,16.2,0,0,1-7.4,6.08c-.22-.38-.51-.68-.45-.79a23.66,23.66,0,0,1,7.29-7.92Z" style="fill:#fff"/><path d="M468.81,109.65c1,3.07-.49,5.67-2.45,8a48.14,48.14,0,0,1-4.78,5,7.78,7.78,0,0,1-4.38,2c-1.69.18-2.7-.55-2.74-2.19a10.74,10.74,0,0,1,.25-2.83,36.5,36.5,0,0,1,1.58-5.5,32.45,32.45,0,0,1,8-12.15,1.86,1.86,0,0,1,3.11.32,5.91,5.91,0,0,1,1.37,3.76C468.78,107.24,468.81,108.34,468.81,109.65Z" style="fill:#fff"/><path d="M518.87,256.17c2.77,4.76,2.13,9.09-.73,13.24-1.19,1.73-3.23,2.68-4.51,2.14-1.85-.78-2.53-2.4-2.65-4.27a6,6,0,0,1,.28-2.42c.76-2,1.65-4,2.53-6S516.61,256.45,518.87,256.17Z" style="fill:#fff"/><path d="M553.76,269.19c0-3.91,2.31-6.37,4.39-8.76,1.63-1.88,3.51-3.81,6.51-3.83,1.19,2.92-.66,5.1-1.8,7.22C561.34,266.65,557.31,268.82,553.76,269.19Z" style="fill:#fff"/><path d="M698,126.4a27,27,0,0,1,2.63-11.7c1.42-3.21,2.67-6.59,5.54-8.74a1.88,1.88,0,0,1,1.82,2.09c-.1,6.19-1.48,11.94-6,16.53C701,125.56,700.09,126.58,698,126.4Z" style="fill:#fff"/><path d="M645.2,275.32a8.6,8.6,0,0,1-.55-2.68,28.22,28.22,0,0,1,6.68-15.11,7.94,7.94,0,0,1,.59-.57,1.68,1.68,0,0,1,2.77.34c1.95,3.29,2.48,6.79.26,10.05a21.23,21.23,0,0,1-8.31,7.69A7.41,7.41,0,0,1,645.2,275.32Z" style="fill:#fff"/><path d="M322.18,91.73c1.47,1.48,1.68,3.31,2.08,5,1,4,1.27,8-.33,12a8.81,8.81,0,0,1-3.89,4.53,1.92,1.92,0,0,1-2.93-1.17,9.18,9.18,0,0,1-.37-2.8,37.77,37.77,0,0,1,4.49-16.79C321.35,92.26,321.64,92.14,322.18,91.73Z" style="fill:#fff"/><path d="M677.41,276.89c-1.15-.54-2.48-.8-3.26-1.6a3.16,3.16,0,0,1,.68-5,65.08,65.08,0,0,1,7.69-3.76,2.87,2.87,0,0,1,3.24,4.69,35.79,35.79,0,0,1-4.84,4.37A13.06,13.06,0,0,1,677.41,276.89Z" style="fill:#fff"/><path d="M602.47,190.64c1.6-5.92,5.65-11.48,9.58-13.16a5.55,5.55,0,0,1,.47,1.84,6.58,6.58,0,0,1-.76,2.72,25.1,25.1,0,0,1-7.71,8.3A6.2,6.2,0,0,1,602.47,190.64Z" style="fill:#fff"/><path d="M487.47,115.78c-.14-.17-.3-.27-.3-.38a12.26,12.26,0,0,1,5-11,1.31,1.31,0,0,1,2,.76,8.13,8.13,0,0,1,.1,2.82,11.39,11.39,0,0,1-5.61,7.72A2.77,2.77,0,0,1,487.47,115.78Z" style="fill:#fff"/><path d="M616.08,107.72a4.07,4.07,0,0,1,1.72,3.42,22.76,22.76,0,0,1-1.32,10.51,11.66,11.66,0,0,1-4.68,5.58,3.39,3.39,0,0,1-5.31-2.4,9.64,9.64,0,0,1,0-3.26,22.64,22.64,0,0,1,8.28-13.33A5,5,0,0,1,616.08,107.72Z" style="fill:#fff"/><path d="M422.85,168.29c.33.45.61.65.61.86,0,6-1.93,11.2-6.56,15.21-1.34,1.16-2.61,1.47-3.25.78-.9-1-.35-2,0-3.07,1.44-4.95,4.38-9,7.68-12.85A5.48,5.48,0,0,1,422.85,168.29Z" style="fill:#fff"/><path d="M731.65,185.36c.13-.83.05-1.32.26-1.56q2.26-2.58,4.66-5.06a2.83,2.83,0,0,1,1.44-.67,1.32,1.32,0,0,1,1.06.32,1.35,1.35,0,0,1,.28,1.09,5.77,5.77,0,0,1-.85,1.81A10,10,0,0,1,731.65,185.36Z" style="fill:#fff"/><path d="M391.71,103.6c-.5,1.71-1.2,2.56-3,2.77A3.79,3.79,0,0,1,391.71,103.6Z" style="fill:#fff"/><path d="M716.62,267.18a11.24,11.24,0,0,1,5.76-5.05,1.39,1.39,0,0,1,.81,0c.25.06.63.19.68.36a1.48,1.48,0,0,1,0,1.12C722.36,265.6,720,266.76,716.62,267.18Z" style="fill:#fff"/></g></svg>
