<svg xmlns="http://www.w3.org/2000/svg" viewBox="0 0 1366 768"><g id="Layer_3" data-name="Layer 3"><g id="behind"><path d="M1043.08,234.8c3.13-3.12,2.37-7.15,2.05-10.79a153,153,0,0,0-2.49-16.82,100.43,100.43,0,0,0-25.45-49.46c-11-11.91-23.84-21.71-36.75-31.41-12.65-9.49-25.31-19-36.45-30.27A280.26,280.26,0,0,1,912.26,57q-12.91-18.9-24.48-38.65c-1-1.7-2.77-2.33-4.45-3.29-4.15-2.38-8.59-3.71-13.06-5.1a125,125,0,0,0-20.88-5,52.85,52.85,0,0,0-34.6,7.31c-3.64,2.16-3.84,5.21-4.07,8.72a115.84,115.84,0,0,0,1,24,187.15,187.15,0,0,0,10.44,39.16c8,21.43,19.29,41.16,30.57,60.92,9.24,16.17,18.63,32.26,26.32,49.24a272,272,0,0,1,16.56,49.18c2.25,9.44,4.09,19,5.74,28.56.91,5.26,1.7,10.55,2.54,15.82.75,4.65,1.46,9.31,2.24,13.95.5,3,1,6.05,1.3,9.1" style="fill:none;stroke:#000;stroke-linecap:round;stroke-linejoin:round;stroke-width:2px"/><path d="M1045.24,250.4a12.93,12.93,0,0,0,3,5.59,6.54,6.54,0,0,1,1.88,5.7c-.44,4.19.67,8.35,1.55,12.47,2.66,12.44,7.58,24.1,12.48,35.76q8.11,19.38,15.35,39.12c5.85,16.08,11.37,32.27,16,48.73a131.28,131.28,0,0,1,5,26.14c.48,6.49.34,13,.52,19.45.3,10.61,2.3,20.69,7,30.26,3,6.09,5.56,12.44,6.45,19.19a68.36,68.36,0,0,1-.32,21.12,62.92,62.92,0,0,1-18.81,35.25,15.08,15.08,0,0,1-2.09,1.78,4,4,0,0,0-1.74,4c.5,3.51.2,7,.23,10.56.09,11.38.74,22.73,1.4,34.08.26,4.4.4,8.82.84,13.19s.8,8.82,1.23,13.22c.39,3.91.9,7.82,1.16,11.75.3,4.49,1,9,1.63,13.44.52,3.92,1.09,7.84,1.68,11.76q1.08,7.21,2.29,14.42c.69,4.06,1.37,8.14,2,12.22,1,6.19,2.17,12.35,3.48,18.46,1.47,6.9,3,13.8,4.63,20.67,2.49,10.45,5.19,20.83,7.94,31.2.45,1.72,1.31,2.3,2.92,2.15" style="fill:none;stroke:#000;stroke-linecap:round;stroke-linejoin:round;stroke-width:2px"/><path d="M540.88,27c1.76,7.71,3.1,15.49,4.49,23.27a168.32,168.32,0,0,1,2.7,21.14,153.21,153.21,0,0,1-.28,21.84,92.31,92.31,0,0,1-6.34,26.38c-3.75,9.22-9.1,17.54-15.11,25.44-6.61,8.68-13.85,16.85-20.84,25.23-8.44,10.13-16.42,20.61-22.09,32.62a181.15,181.15,0,0,0-11.53,33.6c-3.94,15.74-6.79,31.74-11.51,47.28a158.74,158.74,0,0,1-9.11,23.53,4.88,4.88,0,0,1-2.42,2.63" style="fill:none;stroke:#000;stroke-linecap:round;stroke-linejoin:round;stroke-width:2px"/><path d="M419.08,271c-.24-.16-.61-.27-.7-.49-2-4.82-6.09-8.2-8.9-12.47-.22-.34-.74-.45-.72-1,.16-4.73-3.73-6.71-6.51-9.32-5.52-5.17-12.4-7.69-19.67-9.07a18,18,0,0,0-5.74-.57c-2.35.32-4.6-.66-7-.49-9.42.65-18.8,1.35-27.38,6-3.34,1.8-6,4.44-9.06,6.58a4.78,4.78,0,0,0-1.67,3.31,7.6,7.6,0,0,1-3.93,5.68c-13.25,8.42-21.53,20.8-28,34.63a245,245,0,0,0-11.75,31.44c-2.8,9-5.35,18-7.75,27.1-2.88,10.85-5.5,21.75-8.14,32.65-2.28,9.43-4.45,18.89-6.6,28.35-3.08,13.55-6.24,27.08-9.68,40.54-3.76,14.73-8,29.3-13,43.67-2.57,7.45-5.1,14.91-8.36,22.1a6.65,6.65,0,0,0-.69,2.15c-.08,2.46-1.63,3.12-3.65,3.36" style="fill:none;stroke:#000;stroke-linecap:round;stroke-linejoin:round;stroke-width:2px"/><path d="M541.72,23.84c-4.93-1.59-10-1.49-15.12-1.48-7.21,0-14,1.83-20.64,4.37a81.64,81.64,0,0,0-22.55,13.2A140.87,140.87,0,0,0,458.2,67.52C447,83.2,436.74,99.57,425.55,115.27,416.39,128.11,407,140.76,397,153c-7.41,9-15,17.9-23,26.45-6.81,7.27-13.8,14.36-20.7,21.54-6.42,6.67-12.32,13.73-16.74,21.88a48.81,48.81,0,0,0-6.1,23.74c0,2,1.58,2.61,2.46,3.84" style="fill:none;stroke:#000;stroke-linecap:round;stroke-linejoin:round;stroke-width:2px"/><path d="M233.8,523.52a5.6,5.6,0,0,1,3.89,3.09c6.67,12.92,14.24,25.35,20.57,38.44,5.76,11.9,10.44,24.14,12.09,37.42a87,87,0,0,1-1.28,27.37c-2.57,13.35-7.43,26.06-11,39.12-2.22,8-4.2,16.1-6.06,24.22-1.65,7.17-3,14.4-4.16,21.64-1.47,8.89-2.4,17.87-3.25,26.86-.57,6-.7,12-1.14,18-.16,2.23.14,4.49-.26,6.72" style="fill:none;stroke:#000;stroke-linecap:round;stroke-linejoin:round;stroke-width:2px"/><path d="M811.36,570.32c-.12.24-.34.48-.35.72,0,7.92-1.35,15.71-2.44,23.52-1.74,12.54-4,25-6.36,37.46-2.11,11.35-4.42,22.67-6.42,34-1.2,6.81-2.64,13.6-3.66,20.43-1.4,9.4-2.75,18.81-3.51,28.3-.8,9.84-1.52,19.67-1.34,29.53a167.71,167.71,0,0,0,1.4,21.12" style="fill:none;stroke:#000;stroke-linecap:round;stroke-linejoin:round;stroke-width:2px"/><path d="M524.68,574.16c2.27,2.26,3,5.37,4,8.18,3.91,10.45,7.73,20.95,10.85,31.67,3.58,12.28,6.81,24.64,9.45,37.17,1.62,7.67,3.06,15.37,4.38,23.08.88,5.14,1.51,10.36,2.12,15.57s1.08,10.26,1.77,15.38c.53,4,.56,8,.78,12,.43,7.91.91,15.83.72,23.76" style="fill:none;stroke:#000;stroke-linecap:round;stroke-linejoin:round;stroke-width:2px"/><path d="M1033,224.24c-1.53.65-3,.06-4.3-.52-5-2.25-10.21-2.88-15.62-3.14a72.86,72.86,0,0,0-21.59,2,46,46,0,0,0-17.27,8.17c-1,.81-2.3.83-3.38,1.41" style="fill:none;stroke:#000;stroke-linecap:round;stroke-linejoin:round;stroke-width:2px"/><path d="M954.28,252.8a10.56,10.56,0,0,1-3.34,3.64c-8.9,6.18-15.51,14.41-20.91,23.72-10.11,17.45-18.4,35.83-27.57,53.77-6.35,12.42-12.52,24.94-18.71,37.44a4.44,4.44,0,0,1-2.43,2.39" style="fill:none;stroke:#000;stroke-linecap:round;stroke-linejoin:round;stroke-width:2px"/><path d="M470.44,371.84c-2.94-.93-3.91-3.43-4.8-6-5.69-16.5-11.35-33-18.52-48.94-5.88-13.1-13.21-25.31-23.49-35.53-1.28-1.28-2.81-2.32-4-3.63a5.13,5.13,0,0,0-4.59-1.66" style="fill:none;stroke:#000;stroke-linecap:round;stroke-linejoin:round;stroke-width:2px"/><path d="M969.16,232.16a6.4,6.4,0,0,1,2.6-5.56,61.75,61.75,0,0,1,27.16-13.18A63.14,63.14,0,0,1,1013.8,212a13.38,13.38,0,0,1,6.5,2.09c3,1.76,6.35,2.66,9.12,4.81,1.65,1.27,3.59,2.19,3.82,4.59" style="fill:none;stroke:#000;stroke-linecap:round;stroke-linejoin:round;stroke-width:2px"/><path d="M1043.56,250.4c-3,.55-5.17-1.69-7.65-2.71a85.92,85.92,0,0,0-18-5.29,92.72,92.72,0,0,0-22.8-.76,86.89,86.89,0,0,0-27.59,6.41,11.07,11.07,0,0,1-8.42.19" style="fill:none;stroke:#000;stroke-linecap:round;stroke-linejoin:round;stroke-width:2px"/><path d="M298,477.2c-1.12,2.39.2,4.91-.67,7.5a54,54,0,0,1-2.88,7.34,223.89,223.89,0,0,0-12.66,29.56A202.24,202.24,0,0,0,274.88,548a11.28,11.28,0,0,0-.56,2.63c.05,1.58-1.09,1.79-2.36,1.68" style="fill:none;stroke:#000;stroke-linecap:round;stroke-linejoin:round;stroke-width:2px"/><path d="M297.16,479.6a6.12,6.12,0,0,0-3.39,1.41q-16.36,14-33.56,26.92c-5.8,4.38-11.6,8.76-17.51,13a3.39,3.39,0,0,1-2.42.93" style="fill:none;stroke:#000;stroke-linecap:round;stroke-linejoin:round;stroke-width:2px"/><path d="M408.52,257.36a4.94,4.94,0,0,1-4.29-1,60.7,60.7,0,0,0-22.61-9,68.58,68.58,0,0,0-22.06-.57,4.56,4.56,0,0,0-2.64,1.68" style="fill:none;stroke:#000;stroke-linecap:round;stroke-linejoin:round;stroke-width:2px"/><path d="M331.48,255.68c3.41.87,6.07-1,8.88-2.4,4.94-2.4,10.34-3.11,15.6-4.31a.68.68,0,0,1,.73.22c1.57,1.82,3.72,1.34,5.75,1.46,14.71.86,27.95,5.42,39.17,15.3,1.6,1.41,2.67,3.71,5.23,3.89" style="fill:none;stroke:#000;stroke-linecap:round;stroke-linejoin:round;stroke-width:2px"/><path d="M1094.68,452.72c-2.57.42-4.2-1.53-5.94-2.72a128.66,128.66,0,0,0-11.34-6.88c-.09-.06-.15-.2-.24-.23-1.1-.4-2.41-1.05-3.3-.19-1,1-.19,2.29.44,3.29,5.21,8.38,11.34,16,19.18,22.09" style="fill:none;stroke:#000;stroke-linecap:round;stroke-linejoin:round;stroke-width:2px"/><path d="M1073.08,517.64a3.47,3.47,0,0,1,3,3.48c-.11,3.19,1.22,5.88,2.32,8.62a79.52,79.52,0,0,0,8.83,16.1" style="fill:none;stroke:#000;stroke-linecap:round;stroke-linejoin:round;stroke-width:2px"/><path d="M1101.4,531.92a10.74,10.74,0,0,1-5.06-1.17,100.4,100.4,0,0,1-16.32-9.13,3.75,3.75,0,0,0-3.34-.74" style="fill:none;stroke:#000;stroke-linecap:round;stroke-linejoin:round;stroke-width:2px"/><path d="M1065.16,437.48c3.76.15,6.24,2.4,8.4,5.16" style="fill:none;stroke:#000;stroke-linecap:round;stroke-linejoin:round;stroke-width:2px"/></g></g></svg>
