<?xml version="1.0" encoding="utf-8"?>
<!-- Generator: Adobe Illustrator 24.0.1, SVG Export Plug-In . SVG Version: 6.00 Build 0)  -->
<svg version="1.1" id="Layer_1" xmlns="http://www.w3.org/2000/svg" xmlns:xlink="http://www.w3.org/1999/xlink" x="0px" y="0px"
	 viewBox="0 0 1366 768" style="enable-background:new 0 0 1366 768;" xml:space="preserve">
<style type="text/css">
	.st0{fill:none;stroke:#000000;stroke-width:2;stroke-linecap:round;stroke-linejoin:round;}
</style>
<path class="st0" d="M589.2,448.9c0.8-0.1,1.5-0.4,2.2-0.7c5.8-2.9,11.5-5.8,17.3-8.6c12.4-6.1,24.6-12.5,37.2-18.2
	c7-3.4,14.4-5.7,22.1-6.9c2.6-0.5,5.3-0.5,7.9-0.2"/>
<path class="st0" d="M428.4,470.5c2.4-7.5,4.5-15,7.2-22.3c4-10.8,8.6-21.4,13.2-31.9c0.5-1.1,0.9-2.2,1.1-3.4c0.3-2-0.8-3-2.6-2.1
	c-1.5,0.8-2.8,2-3.9,3.3c-7,7.7-11.4,16.9-15.1,26.4c-9.6,25.1-21.4,49.3-33.6,73.2c-8.2,16.1-16.5,32.2-25,48.2
	c-7,13.3-14,26.6-21.2,39.8c-5.2,9.6-10.4,19.3-15.7,28.9c-5.9,10.6-11.6,21.3-17.5,31.9c-3.8,6.7-7.2,13.5-11.3,19.9"/>
<path class="st0" d="M999.2,605.1c-2,0.2-3-1-3.9-2.6c-5.4-10.3-11-20.6-16.3-31c-5.1-9.9-10.2-19.7-15.4-29.5
	c-12.3-23.5-24.6-47-37-70.6c-6.9-13.2-13.7-26.6-20.7-39.8c-8.5-16-16.3-32.5-25-48.5c-3.2-5.8-6.9-11.3-12.7-14.9
	c-2-1.2-4.2-2.1-6.5-2.6c-1.4-0.4-2.7,0.4-3.8,1.2"/>
<path class="st0" d="M636.8,497.6c1.4,2,3.8,2.2,5.8,2.8c7.5,2.4,15,4.6,22.5,6.5c7.4,1.9,15,3.3,22.5,4.4c7.4,1.2,14.9,2,22.3,3.2
	c9.8,1.5,19.5,4.1,28.8,7.5c13.8,5.1,26.8,12.1,39.3,19.7c13.1,7.9,25.9,16.4,38.9,24.4c11,6.9,22.5,13.1,34.3,18.5
	c8.5,3.7,17.2,6.7,26.2,9.1c0.2,0,0.5-0.2,0.7-0.3"/>
<path class="st0" d="M1057.2,703.5c-2.4-0.2-3.7,1.7-5.2,2.9c-14.1,11.2-29.9,20.1-46.8,26.4c-12,4.5-24.4,7.9-37,10.2
	c-8.8,1.6-17.7,2.7-26.6,3.2c-7.8,0.4-15.7,1-23.5,0.7c-11.3-0.4-22.6-1-33.8-2.3c-10.4-1.2-20.7-2.8-31-4.4
	c-2.3-0.3-4.5-0.7-6.7-1.2c-1.4-0.4-2.6,0.2-3.9,0"/>
<path class="st0" d="M573.4,240.8c-3.5-0.2-6.3,1.7-9.3,2.9c-12.8,5.1-24.4,12.3-35.6,20.3c-3.5,2.5-5.4,5.6-7,9.4
	c-8.6,20.5-18.3,40.6-29.1,60.1c-6.3,11.5-12.6,23-18.8,34.5c-6.3,11.7-12.5,23.4-18.5,35.3c-1.4,2.7-2.1,5.9-5,7.7"/>
<path class="st0" d="M680.9,414.8c3.4-0.1,6.8,0.4,10.1,1.4c0.7,0.2,1.2,0.8,1.2,1.5c1.7,6.8-0.1,12.9-3.4,18.7
	c-3.6,6.2-8.6,11.3-13.9,16.1c-8,7.3-15.1,15.5-21.1,24.5c-3.9,5.6-8.2,10.8-12.9,15.6c-6.6,6.9-14.2,12.4-21.9,17.6
	c-30.2,20.6-60.9,40.5-91.2,61c-13.2,9-26.8,17.5-39.8,26.7c-10.2,7.2-19.5,15.5-26.9,25.6c-7,9.8-12.7,20.6-16.9,31.9
	c-3.9,10.3-6.6,20.9-9.2,31.5c-1.6,6.5-2.8,13.2-4,19.9c-1.5,8-2.2,16.2-3.3,24.2c-0.6,4-0.4,8.2-1,12.2"/>
<path class="st0" d="M782,419.8c0.5,2.7-1.1,4.9-2,7.2c-1.1,2.7-1.8,5.8-3.8,7.9c-2.3,2.2-3.2,4.8-4.1,7.7c-1,3.3-3.3,6.1-5.2,8.9
	c-2.3,3.5-4.9,6.7-7.8,9.7c-3.4,3.3-8,5.1-12.8,5c-10.3,0.2-20.5-0.6-30.7-1.4c-9-0.7-17.9-1.8-26.9-3c-5-0.6-9.9-1.6-14.9-2.4
	c-1.1-0.2-2-0.8-2.6-1.7"/>
<path class="st0" d="M853.7,600.3c-2.7,1.8-5.9,1.8-8.9,2.6c-10.6,2.8-19.9,7.8-28.9,14.1c-4.3,3-4.1,6.8-3.8,10.9
	c1.1,13.2,4.5,25.8,8.9,38.1c3.5,10,7.5,19.8,11.2,29.8c4.7,12,7.8,24.5,9.3,37.2c1.2,10,0.3,20.1-2.6,29.8c-0.3,1-0.4,2.5-2.2,2"/>
<path class="st0" d="M289.7,682.2c1.1,0.1,2.1,0.8,2.4,1.9c4,8,9.9,14.5,16.8,20.2c11.5,9.4,24.7,15.6,38.4,21.2
	c14.3,5.9,29.1,10.7,44.2,14.1c8.3,1.9,16.7,3.3,25.2,4.2c3.2,0.3,6.6,1.6,9.8-0.1c0.2-0.1,0.5,0,0.7,0.1c5.1,1.9,10.4,0.8,15.6,0.7
	c6.4-0.2,12.9-0.9,19.2-2c5.5-0.9,11-2.1,16.3-3.8c1.3-0.4,2.7-0.7,4.1-0.9"/>
<path class="st0" d="M1018.4,591.4c-1,0.1-1.9,0.6-2.4,1.4c-7.7,9.3-16.9,17.1-27.3,23.1c-10.7,6.1-22.1,10.6-34.1,13.4
	c-6.7,1.6-13.5,2.7-20.4,3.4c-6.7,0.7-13.4,1.1-20.1,1c-8.4,0-16.8-0.5-25.2-1.5c-1.7-0.2-3.3-0.4-5-0.5c-1.4-0.2-2.8,0.1-3.8,1"/>
<path class="st0" d="M1031.1,587.8c0.4,3.8,2.7,6.9,4.2,10.3c6.1,13.5,11.4,27.4,15.7,41.6c3.1,10,5.7,20.2,7.9,30.5
	c1.7,8,3.3,16.1,4.3,24.2"/>
<path class="st0" d="M780.3,239.8c3.7-0.6,6.6,1.5,9.6,3.1c7,3.9,13.1,9.1,18,15.4c1.4,1.6,2.2,3.6,2.2,5.7c0.1,1,0.4,1.9,1,2.6
	c3.4,7.4,6.9,14.7,10.3,22.1c5.2,11.3,10.4,22.5,15.6,33.8c6.1,13.1,12,26.3,18.3,39.3c4.1,8.6,7.7,17.5,12.2,26
	c0.7,1.2,0.9,2.6,1.7,3.9c0.5,0.8,0.9,1.4,2,1.1"/>
<path class="st0" d="M278.4,676.9c0.6,0.9,0.8,2,0.6,3.1c-2.4,13.6-3.4,27.5-2.8,41.3c0.1,3.1,0.4,6.1-0.5,9.1
	c-1.2,3.8-4.1,6.5-6.5,9.3c-6.1,7.1-12.5,14-18.6,21.2c-1.5,2-4,3-6.5,2.6"/>
<path class="st0" d="M785.1,332.4c1.5,0.5,1.1,2,1.4,3c3.7,14.2,5.2,28.9,4.5,43.6c-0.3,5.7-1,11.4-2,17c-0.9,4.9-2,9.6-3.3,14.4
	c-0.5,1.8-1.6,3.3-3.2,4.3"/>
<path class="st0" d="M1064.9,700.4c5.3-0.1,7.9,3.4,10.1,7.5c3.7,7.2,6.3,14.8,9.1,22.3c4.7,12.6,8.8,25.4,12.2,38.4
	c0.1,0.4,0.2,0.7,0.5,1"/>
<path class="st0" d="M554.4,347.4c0.5,1,0.8,2.2,0.7,3.4c0,7.1,0.2,14.3-0.8,21.4c-1.5,10.8-3.4,21.5-7.7,31.7
	c-0.2,0.7-0.3,1.4-0.2,2.2c0.1,1.6-1,3.1-2.6,3.4"/>
<path class="st0" d="M578.2,290c-1.1,0.1-2.2,0.6-2.9,1.4c-2,2.1-4.6,3.5-7.4,4.1c-1.5,0.2-2.6,1.5-2.5,3.1
	c-0.1,5.1-0.5,10.1-1.2,15.1c-1.4,10.2-3.9,20.1-7.4,29.8c-0.4,1.1-1,2.1-1.9,2.9c-1,1-2.7,1-3.7-0.1c-0.1-0.1-0.1-0.1-0.2-0.2
	c-1.7-1.9-2.9-4.2-4.5-6.3c-2.3-3-5-5.6-8-7.9c-0.9-0.7-2-1.1-3.1-0.9"/>
<path class="st0" d="M546.3,408.3c2.1,1.8,2,4.4,2.6,6.7c3,11.3,6,22.7,8.9,34.1c0.8,3.2,1.6,6.4,2.4,9.5c2.6,1.5,5,0,7.2-0.7
	c5.5-1.8,10.9-3.8,16.1-6.1c1.6-0.6,3-1.6,4.1-2.9"/>
<path class="st0" d="M482.4,768.8c1-0.3,1.9-0.9,2.6-1.7c6.9-6.6,13.1-13.8,20.1-20.2c2.1-2,2.2-3.9,0.8-6.5
	c-3.5-6.2-8.5-11.1-14.2-15.3c-1.1-0.8-2.5-1.2-3.8-1"/>
<path class="st0" d="M560,458.7c-1.3,2.1-3.8,2.2-5.8,2.6c-10.2,1.8-20.5,2.4-30.7,0.1c-2-0.5-4-1-6-1.4"/>
<path class="st0" d="M796.1,431.1c-1.2-0.3-1.6,0.5-2.2,1.4c-4.2,7-9.3,13.5-15.1,19.2c-4.9,4.9-10.4,9.1-16.3,12.8
	c-0.8,0.6-1.9,0.8-2.9,0.7"/>
<path class="st0" d="M1032.5,585.7c-1.2-2.7-3.8-3.3-6.2-3.8c-5.4-1.2-11-1.3-16.5-1.7c-5.9-0.5-11.7,0.4-17.5,0.5"/>
<path class="st0" d="M873.9,629.1c-2.8,1.8-5.6,0.4-8.4,0c-10.8-1.7-21.5-3.8-32.2-6c-0.2,0-0.3,0-0.5,0.2"/>
<path class="st0" d="M448.1,703.8c7.5,1.2,14,4.8,20.1,9.1c5.1,3.6,9.6,8.1,13.2,13.2c0.8,1.2,2.2,1.9,3.6,1.7"/>
<path class="st0" d="M689.3,471.9c0.3,5.3,0.1,10.6,0.3,15.8c0.2,6-0.8,11.9-1.5,17.8"/>
<path class="st0" d="M311.3,662.5c-10.3,1.1-20.2,4.6-28.8,10.3c-1.2,0.7-2.3,1.7-3.2,2.8c-1.1,1.5-3.1,1.8-5,1.7"/>
<path class="st0" d="M848.9,591.9c1.2-0.1,1.8,0.8,2.1,1.7c4.6,10.1,10.6,19.5,17.8,28c3.2,3.8,5.5,8.5,10.3,10.8
	c0.6,0.3,0.7,0.8,1,1.2c0.6,0.9,1.3,1.8,2.6,1.3"/>
<path class="st0" d="M634.6,480.3c-2.4-1.7-2.7-4.6-4-7c-2.1-3.6-3.8-7.4-5.8-11c-0.6-1.1-1.6-2.3-3.3-2"/>
<path class="st0" d="M680.9,417.3c-1.2,0.7-2.2,1.5-3.1,2.5l-13.9,13.9c-2.6,2.6-2.7,3.1-1,6.5c2,4,3.3,8.3,6,12
	c0.2,0.3,0,0.9,0,1.4"/>
<path class="st0" d="M552.8,276.6c3.1,0.7,4.5,3.5,5.9,5.8c2,2.9,3.4,6.1,4.2,9.5c0.3,1.7,2.2,2.6,2.8,4.3"/>
<path class="st0" d="M576.8,435c-3.1-0.4-4.7,2-6.5,3.9c-2.7,2.7-4,6.2-4.8,9.8"/>
<path class="st0" d="M665.8,487.8c0.1,5-0.3,10,0.7,14.9"/>
</svg>
