<svg xmlns="http://www.w3.org/2000/svg" viewBox="0 0 1366 768"><g id="Layer_3" data-name="Layer 3"><g id="phone"><path d="M751.24,83.84c-.74,1.29-2,1.15-3.11.93a241.5,241.5,0,0,0-25.94-3.49c-7.17-.7-14.37-1.12-21.59-1.31-8.56-.22-17.12-.35-25.68-.17-12.09.24-24.17.73-36.25,1.56-7.83.55-15.66,1.15-23.51,1.55-4.65.24-9.41.24-13.88,1.34-3.52.86-7.28.17-10.61,2-5.78,3.15-8.93,8.15-10.3,14.41a78.73,78.73,0,0,0-1.3,11.27c-.56,8.08-.55,16.17-1,24.25-.74,14.56-.54,29.13-.26,43.68.23,12.31.53,24.65,1.21,37,.44,8,.67,16,1.17,24,.4,6.48.47,13,1.23,19.46.42,3.55.28,7.19.57,10.79.59,7.35.81,14.73,1.41,22.08.51,6.23.54,12.49,1,18.72.57,7.19.7,14.41,1.32,21.61.38,4.37.33,8.79.51,13.19.46,11.36.68,22.72,1.12,34.08.58,15,.45,29.93.22,44.88-.1,6.54,0,13.13-.74,19.69-.3,2.67.54,3.84,2.33,3.6" style="fill:none;stroke:#000;stroke-linecap:round;stroke-linejoin:round;stroke-width:2px"/><path d="M769.36,126.32c0,6.08-.06,12.16-.18,18.24,0,.33-.18.8-.17,1.2.32,9.05-.55,18.07-.56,27.12,0,8.8-.35,17.6-.48,26.4q-.16,10.92-.44,21.84c-.84,33.36-.31,66.72-.43,100.08-.06,15.61.77,31.2,1,46.8.14,8.48.52,17,1,25.43.54,9.93.91,19.87,1.76,29.77.24,2.79.45,5.6.49,8.4a8,8,0,0,0,2,5.76" style="fill:none;stroke:#000;stroke-linecap:round;stroke-linejoin:round;stroke-width:2px"/><path d="M594.16,129.68c-.2,5.12-.5,10.24-.58,15.36-.15,10-.33,20-.22,30,.11,9.2.33,18.4.48,27.6q.23,14.28,1,28.56c.64,12.32,1.08,24.65,1.79,37,.44,7.5.61,15,1.12,22.55.7,10.31.88,20.66,1.77,31,.35,4.13.37,8.31.53,12.47.33,8.24.79,16.47,1.08,24.72.28,8.08.61,16.16.91,24.24.44,12.32,1,24.63.91,37,0,6.24.25,12.49-.23,18.72" style="fill:none;stroke:#000;stroke-linecap:round;stroke-linejoin:round;stroke-width:2px"/><path d="M751.72,83.24c3.5,0,6.48,1.6,9.34,3.28A41.8,41.8,0,0,1,776.69,103c4.87,9,6.81,18.66,7.53,28.8.78,11-.35,21.78-1.05,32.65-.47,7.36-.82,14.72-1.21,22.08-.56,10.64-1.32,21.27-1.61,31.92-.2,7-.32,14.1-.69,21.11-.41,7.61.09,15.22-.75,22.82-.4,3.55,0,7.19-.08,10.79-.58,21.44-.59,42.88-.43,64.32q.12,16.32.52,32.64c.23,9.84.46,19.68.94,29.52.17,3.6-.05,7.21.39,10.8a17,17,0,0,0,.51,2.16" style="fill:none;stroke:#000;stroke-linecap:round;stroke-linejoin:round;stroke-width:2px"/><path d="M765.64,126.44l-29.28-1.56c-2.16-.11-4.32-.23-6.48-.23-12.88,0-25.76-.92-38.64-.46-11.2.4-22.41.46-33.6,1-10.09.45-20.17,1.13-30.24,1.92-7.28.57-14.57,1.21-21.83,2-3.76.4-7.62.42-11.29,1.59" style="fill:none;stroke:#000;stroke-linecap:round;stroke-linejoin:round;stroke-width:2px"/></g></g></svg>
