<svg xmlns="http://www.w3.org/2000/svg" viewBox="0 0 1366 768"><g id="Layer_4" data-name="Layer 4"><path d="M404.81,153.59c.05-.86.14-1.53.11-2.19-.29-6.51,2.54-11.6,7.2-15.84.7-.64,1.63-1.07,2.26-1.77,2-2.17,4.24-2,6.78-1.18a13.77,13.77,0,0,1,6.92,5.57c1.41,2,1.28,3.93-.4,5.93a8.08,8.08,0,0,0-1.59,4.57c-1,8.46-2.92,16.74-4.54,25.08-.1.54-.26,1.07-.34,1.61a3.21,3.21,0,0,1-3.24,3,3.44,3.44,0,0,1-1.79-3.86c.53-3.11,1.11-6.21,1.63-9.32q.88-5.26,1.69-10.55a6.53,6.53,0,0,0-.29-1.75c-4.26,1.92-8.35,3.53-12.83,1.45-3.74,2.86-8.09,3.95-12.63,4.46a18.35,18.35,0,0,1-2.46.14c-4.26-.1-7.13-2.55-7.2-6.82-.09-4.64-.42-4.22-4.75-5.82a7.82,7.82,0,0,0-2.15-.14,8.56,8.56,0,0,0-.26,2.1c.21,1.49.62,3,.88,4.43s.54,3.24.66,4.88a2.15,2.15,0,0,1-1.65,2.1,2.18,2.18,0,0,1-2.52-.95,8.58,8.58,0,0,1-1.05-2.64c-.9-3.58-1.8-7.18-2.56-10.8a5.27,5.27,0,0,0-2.55-4,6.24,6.24,0,0,1-1.28-1c-1.39-1.33-1.42-2.61-.06-3.87.8-.73,1.69-1.37,2.4-1.95.58-1.71.11-3.18-.1-4.66a14.1,14.1,0,0,1,.54-6.09,2.23,2.23,0,0,1,2.7-1.89c1.41.14,2,.81,2.19,2.48q.29,3.06.46,6.15c.09,1.66.14,3.25,1.75,4.36A1.57,1.57,0,0,1,377,137c-1.6,2.59-1.58,2.61-.46,6.2,2.74,1.08,5.46,2.66,8.8,2.86a30.64,30.64,0,0,0,2.12-2.51,23.12,23.12,0,0,1,8.8-7.23,6.06,6.06,0,0,1,7.81,1.39,3.6,3.6,0,0,1-.3,5.42,22.85,22.85,0,0,1-10.64,5,3.83,3.83,0,0,0-3.31,3.14,2.58,2.58,0,0,0,1.75,3.26c2.5.76,5,1.27,7.66.38C400.89,154.41,402.65,154.11,404.81,153.59Zm5.42-4.71c-.06,2.13.78,2.91,2.26,2.67a5.31,5.31,0,0,0,1.19-.29c4.57-2,7.21-5.74,9.11-10.12a2.3,2.3,0,0,0-.73-2.62,3.62,3.62,0,0,0-5.15,0,33.22,33.22,0,0,0-3.17,3.22A16.94,16.94,0,0,0,410.23,148.88Zm-11.82-7.71a17.24,17.24,0,0,0-2.16.94,7.93,7.93,0,0,0-1.53,1.29c-.35.38-.61.89.17,1.41C396.26,144.22,397.73,143.68,398.41,141.17Zm-28.53-1.48-.53-.43c-.08.1-.24.23-.22.31a3.39,3.39,0,0,0,.27.66Z"/><path d="M136.52,208.48a70.08,70.08,0,0,0-2.77,6.92c-.76,1.91-1.45,3.84-2.23,5.74a7,7,0,0,1-1.2,2.1c-1.82,2-3.72,1.67-4.77-.75-.38-.87-.54-1.84-.87-2.73-.49-1.3-1.61-1.58-2.56-.65-.77.77-1.47,1.63-2.23,2.41a13.61,13.61,0,0,1-8.7,4.15c-5.24.54-9.67-3.37-9-8.57.77-5.58,2.3-11,7.17-14.73,1.19-.91,2.24-2,3.4-3a5.89,5.89,0,0,1,1.72-1.09,3.19,3.19,0,0,1,3.44.61,2.82,2.82,0,0,1,.64,3.06,20.18,20.18,0,0,1-1.44,2.6h-2.54a24.16,24.16,0,0,0-5.84,8.16,10,10,0,0,0-.55,6.44,3.72,3.72,0,0,0,5.3,2.89c3-1.18,5.27-3.39,7.4-5.72a9.05,9.05,0,0,0,2.46-7.92c-.3-1.89-.33-3.82-.54-5.72-.74-6.42-.35-12.85-.3-19.28a5.15,5.15,0,0,1,.88-3.51c1-1.26,2.55-1.39,3.42-.06a5.81,5.81,0,0,1,.92,2.63,59.81,59.81,0,0,1,.18,6.56c-.26,7.69.76,15.31,1.1,23,0,1,0,2.21,1.39,3a5.07,5.07,0,0,0,.81-1.22q1.26-4.12,2.41-8.28a4.7,4.7,0,0,1,3.19-3.46,2.07,2.07,0,0,1,2.53.82,7.92,7.92,0,0,1,1,2.2,31.51,31.51,0,0,1,.86,4.43c.47,3.94.85,7.88,1.24,11.83a1.57,1.57,0,0,1-1.33,1.78,1.5,1.5,0,0,1-1.83-1.23,36.54,36.54,0,0,1-.77-4c-.31-2.3-.48-4.63-.83-6.93A10.88,10.88,0,0,0,136.52,208.48Z"/><path d="M60.07,211.48c-.88,2.86.53,4.89,2.28,6.68s4.22,2.36,6.66,2.91a10.29,10.29,0,0,0,6.58-.52c-.25-.89-.43-1.65-.67-2.4a7.1,7.1,0,0,1,.15-4.83c.62-1.66,1.28-3.31,1.9-5a11.72,11.72,0,0,1,3.73-5.29c1.06-.85,2-1.88,3-2.77a9.08,9.08,0,0,1,6-2.33,2.66,2.66,0,0,1,3,2.73c.12,1.78,0,3.58.14,5.34a68,68,0,0,0,1.29,8.92,14.79,14.79,0,0,0,7.15,9.64,12.74,12.74,0,0,1,1.19.86c0,1-.67,1-1.18,1-4.9.26-7.91-2.49-10.09-6.45-.84-1.52-1.49-3.13-2.39-5-.93.95-1.64,1.55-2.22,2.26a10,10,0,0,1-6.51,3.88c-2.7.39-5.33,1.33-8,1.67a44.73,44.73,0,0,1-8.18.23c-6-.39-9.51-6-9.56-10.62a23.85,23.85,0,0,1,5.84-16.23,11.73,11.73,0,0,1,1.5-1.4c1.94-1.57,3.8-1.38,5.31.51.85,1.07,1.68,2.16,2.57,3.19a5,5,0,0,1,.67,6,9.39,9.39,0,0,1-4.9,4.75C63.64,209.86,62,210.62,60.07,211.48Zm20.74,5.85c3.5-2.58,4.6-3.89,6-7.5.58-1.56,1.71-3.09.84-5.21-3.13,1-4.71,3.4-5.81,6C81,212.55,79.24,214.53,80.81,217.33ZM64.17,199.71a18.93,18.93,0,0,0-1.65,2c-.57.88-1.49,1.74-.76,2.94.44.73,1.76,0,2.82-1.59C65.22,202.07,65.62,201.08,64.17,199.71Z"/><path d="M340.09,52.65c1.23-2.64.87-5.45,1.34-8.1a20.51,20.51,0,0,1,2.66-7.4c1.35-.47,1.54.66,2.18,1a8.51,8.51,0,0,0,2,.58C350,43,350.07,47.49,350,52a39.39,39.39,0,0,1-4,17,11.77,11.77,0,0,0-1,4.34c-.14,2.18,0,4.37,0,6.56a22.33,22.33,0,0,1-.18,3.27,1.73,1.73,0,0,1-1.67,1.53,1.82,1.82,0,0,1-2.07-1,21.84,21.84,0,0,1-1-3.09c-.27-1-.46-2.07-.66-3-1.53-.6-2.37.29-3.22.86a17.93,17.93,0,0,1-8.46,2.85,11.15,11.15,0,0,1-2.45,0,4.82,4.82,0,0,1-4.58-4.89c-.29-4.16,1.19-7.79,3.46-11.14,1.08-1.58,2.34-3,3.42-4.61,2-2.87,4.71-4.92,7.39-7C336.51,52.53,338.35,53,340.09,52.65ZM326.31,76.46a3,3,0,0,0,3.21.54,19.77,19.77,0,0,0,9-6.06,4.32,4.32,0,0,0,1-2.18c.23-3.12.35-6.25.37-9.37a1.42,1.42,0,0,0-2.32-1.19,34.68,34.68,0,0,0-3.9,3.56c-1.21,1.29-2.18,2.81-3.37,4.1-2,2.17-2.86,4.93-4,7.55C326,74.31,326.31,75.51,326.31,76.46Z"/><path d="M150.45,121.45a21,21,0,0,0,2.54.69,4.05,4.05,0,0,1,3.28,2.74,10.46,10.46,0,0,0,1.41,3c2.12,2.35,2,5,1.22,7.71a94.62,94.62,0,0,0-2.67,12.83c-1.13,7.28-1.91,14.62-2.8,21.93-.33,2.72-.57,5.45-.87,8.17a6,6,0,0,1-.34,1.59c-1,2.54-2.62,3.24-5.24,2.33-4.95-1.73-8-5.12-8.8-10.36a6.83,6.83,0,0,1,.19-1.81c1.47-.27,1.89.72,2.5,1.4,1.46,1.62,2.85,3.3,4.38,4.85a7.31,7.31,0,0,0,2.12,1c.36-.49.76-.79.8-1.14q2-17.09,4-34.2c0-.18-.3-.41-.65-.86a10.57,10.57,0,0,0-2,.95,44.74,44.74,0,0,1-9.44,4.89c-1.95.81-3.61-.13-3.76-2.25a13.49,13.49,0,0,1,.36-3.63,19.26,19.26,0,0,1,1-2.27C140,131.88,144.42,126.31,150.45,121.45Zm-7.9,20.15a5.93,5.93,0,0,0,1.44-.26,27.75,27.75,0,0,0,7.86-5.82c.85-.89,1.76-1.78,1.62-3.18-.2-1.87-.2-3.83-2.15-5.26-4.41,3.22-6.51,8-8.85,12.57C142.23,140.12,142.5,140.87,142.55,141.6Z"/><path d="M129.69,80.59a8.87,8.87,0,0,1-1-2.25,32.49,32.49,0,0,1,0-3.69c0-5.37-.43-10.68-2.42-15.74a14.12,14.12,0,0,0-1.1-2.2c-.19-.31-.62-.48-1.09-.82-2.69,2.68-4.28,5.64-3.3,9.55a47.06,47.06,0,0,1,1,4.84,29.86,29.86,0,0,1,.37,4.9,5.69,5.69,0,0,1-.86,2.68,3.58,3.58,0,0,1-3.4,1.92,2.79,2.79,0,0,1-2.29-2.6c-.52-2.82-.77-5.68-1.1-8.53a5,5,0,0,1,.08-1.64c.84-3.93-1.26-6.52-4-8.85a3.51,3.51,0,0,0-.67-.47,2.21,2.21,0,0,0-3.45,1.55,13.76,13.76,0,0,0-.06,2.87c.25,3.69.55,7.37.81,11.06.09,1.23.12,2.46.16,3.69A2.71,2.71,0,0,1,106,79.2a1.59,1.59,0,0,1-2.49-.34,8.33,8.33,0,0,1-1.19-3c-.43-3.12-.71-6.26-1-9.4-.34-4-.63-7.91-.91-11.87a7.3,7.3,0,0,1,.13-2.43A2,2,0,0,1,103.74,51a3.84,3.84,0,0,0,3.4.89,18,18,0,0,1,2.44,0,4.16,4.16,0,0,1,3.65,1.49,18.11,18.11,0,0,0,3.6,3.19c1.71-.89,2.36-2.46,3.25-3.81a4.85,4.85,0,0,1,5.62-2.35A4.56,4.56,0,0,1,128.42,52a18.91,18.91,0,0,1,3.9,9.36c.61,4.6.56,9.3.75,13.95a5.13,5.13,0,0,1-1.76,4.42A9.62,9.62,0,0,1,129.69,80.59Z"/><path d="M171.56,201.63c1.16-.4,2.18-.72,3.18-1.1,3.79-1.44,6.47-.56,8.73,2.88.57.87,1.12,1.76,1.84,2.9l4.48-4.55a11.6,11.6,0,0,1,5.3-3,3.3,3.3,0,0,1,4.07,1.56,10.1,10.1,0,0,1-1.54,1.23c-.84.44-1.77.73-2.65,1.11a9.44,9.44,0,0,0-5.29,5.94,25.27,25.27,0,0,0-1.52,8.87,18.75,18.75,0,0,1-.21,3.67,2.88,2.88,0,0,1-2.82,2.52,2.75,2.75,0,0,1-2.64-2.65c-.11-3.89-1.35-7.54-2.07-11.3a8.74,8.74,0,0,0-2.4-5.2c-1.93.85-3.8,1.65-5.64,2.51a7,7,0,0,0-1.26.92,32.31,32.31,0,0,0,1.48,15c.55,1.53.37,2.34-.62,2.82-1.83.9-3.67.65-4.32-.87a20.19,20.19,0,0,1-2.06-6.62c-.18-2.86-.55-5.7-.85-8.76-.89-.07-1.67-.09-2.44-.2a1.13,1.13,0,0,1-.68-1.87c.08-.11.15-.26.26-.31,2.8-1.45,2.91-4,2.84-6.7-.07-2.87,0-5.75-.14-8.62a5.84,5.84,0,0,1,2-5.14c1.28-1.11,2.74-.79,3.23.78a13.94,13.94,0,0,1,.62,3.2c.14,2.32.16,4.65.22,7C170.66,198.88,170.45,200.14,171.56,201.63Z"/><path d="M364.46,59.46c1.43,0,2.29,1,3.76.49,3.36-1.22,6.45-.68,8.49,2.71.21.35.49.65.86,1.14.71-.42,1.25-.76,1.8-1.08a4.85,4.85,0,0,1,6.32.84A19.07,19.07,0,0,1,390.42,73c.62,3.77,1.56,7.49,2.37,11.22.06.27.19.52.26.78a2.15,2.15,0,0,1-.66,2.59c-1.07.72-3.11.35-3.63-.82a36.3,36.3,0,0,1-1.6-5.06c-.82-3-1.54-6.09-2.38-9.12-.43-1.57-1-3.13-2.86-4-1.26,1.09-1.41,2.58-1.44,4-.06,3,0,6,0,9,0,1,.13,1.92.14,2.88a9.27,9.27,0,0,1-.16,2,3,3,0,0,1-2.28,2.62c-.91.21-2.08-.84-2.32-2.44-.29-1.88-.26-3.81-.41-5.72-.24-3.13-.46-6.27-.8-9.4-.24-2.26-1.57-4.06-2.84-5.85a1.78,1.78,0,0,0-2.56-.24,4.79,4.79,0,0,0-2.06,3.83c-.14,2.87-.31,5.74-.46,8.62-.08,1.64-.09,3.28-.25,4.91a2.58,2.58,0,0,1-2,2.31,3.1,3.1,0,0,1-2.83-2,9,9,0,0,1-.25-2.43c.06-4.11.17-8.22.27-12.33,0-1.23.16-2.47.07-3.69A5.39,5.39,0,0,1,364.46,59.46Z"/><path d="M637.16,128c-2.09-1.13-2.37-2.86-3.15-4.26s-1.5-2.58-2.33-3.82c-.18-.28-.67-.35-1.2-.6-2,2.5-2.24,5.59-3,8.41-1.54,5.65-2,12.12-1.45,15.2a16.4,16.4,0,0,0,6.35-.16,3.79,3.79,0,0,1,3.48.69c.84.72.91,1.94,0,2.39a23.56,23.56,0,0,1-4.21,1.53c-1.84.47-3.73.73-5.67,1.09a10.08,10.08,0,0,0-.52,2.09,39.48,39.48,0,0,0,1.77,11.33c.29,1.07,1.29,2,2,2.92-3.08,1.88-4.57,1.62-6.13-.94-2-3.25-2.58-6.92-3-10.58A85,85,0,0,1,621.35,126a32,32,0,0,1,5.51-12.67,3.09,3.09,0,0,1,4.3-1.11,3.14,3.14,0,0,1,1.25,1c1.58,2.55,3.25,5.07,4.58,7.76A8.71,8.71,0,0,1,637.16,128Z"/><path d="M485.53,87.84c-3.32,2.14-5,2-7.27-.51-.64-.7-1.25-1.43-2-2.32-1.6.52-3.11,1.13-4.68,1.51a37.22,37.22,0,0,1-5.24.88c-2.51.24-4.21-1.22-5.3-3.22a11.13,11.13,0,0,1-1.34-7.55A31.84,31.84,0,0,1,467,61.21,19.27,19.27,0,0,1,470.66,58a6.25,6.25,0,0,1,8.21.89A22.62,22.62,0,0,1,481.49,62c1.85,2.8,3.09,5.72,2.1,9.25a37.7,37.7,0,0,1-1.9,6.27,11.39,11.39,0,0,0-.84,4,3.56,3.56,0,0,0,2.32,3.93A3.18,3.18,0,0,1,485.53,87.84Zm-11-13.48c.34-.58.86-1.37,1.31-2.19a12.91,12.91,0,0,0,1.82-6.62,3.88,3.88,0,0,0-2.28-3.62c-1.45-.61-2.61.31-3.64,1.26a6.28,6.28,0,0,0-1,1.25,57.79,57.79,0,0,0-3.85,6.26c-1.2,2.56-2.36,5.16-2.34,8.16,0,4.18,1.5,5.51,6,4.16a7.6,7.6,0,0,0,1.48-.68,6.82,6.82,0,0,0,3.35-3.43c.58-1.45-.33-2.61-.84-3.84A3,3,0,0,1,474.52,74.36Z"/><path d="M217.84,222.41a12.48,12.48,0,0,0-.47,1.77,48.53,48.53,0,0,0-.22,11,14.31,14.31,0,0,1,.09,2.85,2.32,2.32,0,0,1-2.15,2.12c-.85.09-1.61-.45-2-1.75a43.49,43.49,0,0,1-1-5.2c-.77-5.61,0-11.19.43-16.77.23-3,.4-6,.63-9a6.32,6.32,0,0,1,.35-2.41c1.32-2.52,2.72-5,4.26-7.43a2.74,2.74,0,0,1,3.6-1.07,5.21,5.21,0,0,0,2,.5c2.28-.07,3.77,1.24,5.34,2.62a8.58,8.58,0,0,1,3.29,5.45,40.48,40.48,0,0,0,1.06,4,7.67,7.67,0,0,1-1.62,6.83A14.3,14.3,0,0,1,218.8,222C218.56,222,218.31,222.19,217.84,222.41Zm.78-8.92h-.08c0,.55,0,1.1,0,1.64.19,2.1,1.36,3,3.3,2.46a8.83,8.83,0,0,0,5.19-3.77c1.9-3,1.16-6.82-1.71-9.67a5.59,5.59,0,0,0-4-1.67,1.78,1.78,0,0,0-2,1.63C219,207.23,218.84,210.36,218.62,213.49Z"/><path d="M287.68,76.8c-2,.7-3.46,1.37-5,1.77a22.48,22.48,0,0,1-4.81.73,7.3,7.3,0,0,1-7.69-6.86,13.87,13.87,0,0,1,.18-4.07,27.69,27.69,0,0,1,11.05-17.12,6.13,6.13,0,0,1,8.46.81,12.63,12.63,0,0,1,3.66,8,23.1,23.1,0,0,1-1.08,9.31,9.35,9.35,0,0,0-.19,6,36.55,36.55,0,0,1,.87,4,1.91,1.91,0,0,1-1.49,2.14c-1,.28-1.73-.1-2.29-1.21S288.31,78.15,287.68,76.8Zm-12.26-6.59c0,.62,0,1,.1,1.43.33,2.52,1.64,3.62,4.15,3.5,2.78-.13,6.53-3.3,7-6.06s.88-5.67,1.1-8.52a8.33,8.33,0,0,0-.63-3.57c-.71-1.81-2.06-2.07-3.55-.82a25.56,25.56,0,0,0-7.93,12.22A9.32,9.32,0,0,0,275.42,70.21Z"/><path d="M496.38,139.1c1.35-1.09,2.38-1.79,3.25-2.64a7,7,0,0,1,5.11-2.21c2.49,0,5,0,7.08,1.48a6,6,0,0,1,1.7,1.73,23.72,23.72,0,0,1,1.94,4.07,6.79,6.79,0,0,1-1,7c-1.36,1.69-2.5,3.57-3.9,5.23a5.41,5.41,0,0,1-4.67,2.09,6,6,0,0,0-1.82.39c-1.09,1.15-.81,2.44-.84,3.64-.06,3.42,0,6.84-.16,10.26a41.22,41.22,0,0,1-.68,5.28c-.33,1.88-1.21,2.72-2.55,2.64s-2.37-1.22-2.44-3.2a18.35,18.35,0,0,1,.08-2.87c.94-8.21.27-16.39-.49-24.57C496.72,144.67,496.58,141.94,496.38,139.1Zm5.9,2.17a58.34,58.34,0,0,0,1.18,11,7,7,0,0,0,2.13-.59c1.19-.88,2.25-1.94,3.37-2.91,1.67-1.44,1.7-3.34,1.36-5.26a4,4,0,0,0-3.69-3.28A5.78,5.78,0,0,0,502.28,141.27Z"/><path d="M434.53,82.23c-.35,1.36-.8,2.65-1,4-.69,4.46-1.29,8.93-1.94,13.39a21.9,21.9,0,0,1-.52,2.82,2.08,2.08,0,0,1-2.07,1.66,2.7,2.7,0,0,1-2.35-2,11.42,11.42,0,0,1-.09-2.86c.48-5,1-10.07,1.54-15.1S429.2,74.07,429.51,69c.17-2.74.64-5.13,3.08-6.75a3.39,3.39,0,0,0,.85-.88c1.65-2.46,4.05-2.15,6.26-1.39,4.68,1.59,8.33,8.23,6.23,13.59-1.73,4.42-4.7,8.05-10.17,8.18A6.07,6.07,0,0,0,434.53,82.23Zm.72-4.9c2.05.31,3.06-1.21,4.38-2.35,2.85-2.49,2.13-6.65-1-9.2a1.89,1.89,0,0,0-2.59-.07C434.71,72.12,434.58,73.87,435.25,77.33Z"/><path d="M402.31,97.43c.42-3.1.85-6.21,1.27-9.31.19-1.36.46-2.7.55-4.07.11-1.91-.12-2.33-2.12-2.88a7.2,7.2,0,0,1-5.35-5.64c-.8-3.3-2.08-6.56-1.18-10.07.1-.39.12-.81.25-1.2A2.34,2.34,0,0,1,398,62.81a2.07,2.07,0,0,1,2.06,1.65,17.06,17.06,0,0,1,.26,2c.24,2,.47,4.08.73,6.12a6,6,0,0,0,1.7,3.64,1.68,1.68,0,0,0,2.77-.34,21.36,21.36,0,0,0,1.23-3.47c.63-2.38,1.26-4.76,1.72-7.18a9.85,9.85,0,0,1,2.83-4.88,1.81,1.81,0,0,1,2.85.27,4.82,4.82,0,0,1,.9,2.22c.21,3.42.22,6.84-1.2,10.09-.77,1.74-1.47,3.53-2.16,5.31-2.54,6.59-3.09,13.57-4,20.48-.12,1-.15,1.91-.23,2.87a3.47,3.47,0,0,1-1.83,2.57,1.44,1.44,0,0,1-1.87-.14,3.11,3.11,0,0,1-1.25-2.47c0-1.37,0-2.74,0-4.11Z"/><path d="M61.48,69A33.4,33.4,0,0,1,64.8,55.1a30.17,30.17,0,0,1,5.07-7.9c2.09-2.29,3-2.37,5.47-.44.32.25.62.74.94.75,2.57.07,3.41,2.18,4.31,3.9a23.43,23.43,0,0,1,2.87,13c-.51,5.68-3.09,10.73-10.4,13.29a6.36,6.36,0,0,0-1.15.44c-3.68,2.24-8.65-1-9.84-5.21A26.07,26.07,0,0,1,61.48,69Zm11.67-18.6a10.16,10.16,0,0,0-1.46,1.51,33,33,0,0,0-5.17,13.69,22.51,22.51,0,0,0,.14,5.31,3.59,3.59,0,0,0,2.51,3,2.54,2.54,0,0,0,1.93,0c3.62-2.47,6.56-5.47,6.63-10.22a23.1,23.1,0,0,0-3.28-12.14A6.5,6.5,0,0,0,73.15,50.35Z"/><path d="M503.79,64.51l2.35,1.89a5,5,0,0,1,.16,1c-1,7.33-2.93,14.46-4.49,21.67a79.92,79.92,0,0,0-2,15,7.43,7.43,0,0,1-.66,3.14,1.91,1.91,0,0,1-3.55,0,8.23,8.23,0,0,1-.93-3.5c0-2.86.34-5.72.56-8.58.14-1.76.33-3.51.49-5.11-1.33-.93-2.71-1.49-3.42-2.51a13.3,13.3,0,0,1-2.35-5.17,55.68,55.68,0,0,1-.64-13.89,4,4,0,0,1,1.53-2.8,2,2,0,0,1,3.29.87,28,28,0,0,1,.37,4.86c.08,2.86,0,5.73.16,8.59a4.54,4.54,0,0,0,1.48,3.58c1.11-.13,1.35-1,1.53-1.74.84-3.59,1.53-7.23,2.46-10.8a27.18,27.18,0,0,1,2-4.91C502.33,65.58,503,65.22,503.79,64.51Z"/><path d="M251.11,155.18c-2.13-1-2.55-2.79-2.86-4.55-.55-3.1-1.07-6.21-1.48-9.33a160.13,160.13,0,0,1-1.46-24.56,10.47,10.47,0,0,1,.65-3.17,2.16,2.16,0,0,1,2.26-1.42,2,2,0,0,1,1.64,1.63,24.2,24.2,0,0,1,.71,4c.38,6.7.67,13.4,1,20.1a4.7,4.7,0,0,0,1.14,3.58c.7-1.75,1.31-3.25,1.89-4.76a4.26,4.26,0,0,1,3-2.61c1.53-.46,3-.46,4.05,1a8.31,8.31,0,0,0,1.33,1.16q.87,7.35,1.72,14.66a3.89,3.89,0,0,1,0,2,3.33,3.33,0,0,1-1.67,1.58,2.19,2.19,0,0,1-1.73-.76,5.69,5.69,0,0,1-1.21-5,17.83,17.83,0,0,0-.52-7.72c-.25-.89-.34-1.93-1.44-2.3-.69-.22-1.38.68-1.76,2.38-.82,3.74-1.65,7.47-2.39,11.22C253.6,153.92,252.58,154.63,251.11,155.18Z"/><path d="M471,157.44l2.78.7c-2.22,3.25-2.33,3.29-6.21,2.28L464.67,155a19.82,19.82,0,0,0-2.54,1.43c-2.27,1.75-4.94,2.28-7.67,2.58a4.06,4.06,0,0,1-4.85-3.8,7.45,7.45,0,0,1,.3-3.22c1.71-4.84,4.13-9.21,8.62-12.1,1.38-.88,2.66-1.9,4-2.86a6.42,6.42,0,0,1,9.92,3.35c1.05,3.61,1.37,7-1.36,10a3.81,3.81,0,0,0-.88,3.43C470.39,155,470.7,156.14,471,157.44ZM466.48,142c-.67,0-1.31-.21-1.62,0-2.61,1.94-5.32,3.77-7.31,6.43a14.18,14.18,0,0,0-2.5,5.52c-.19.83.81,1.7,1.54,1.3a28.23,28.23,0,0,0,3.75-2.42A15.54,15.54,0,0,0,466.48,142Z"/><path d="M588.23,105.19c.95-.74,1.85-1.54,2.84-2.21,6.28-4.21,10.26-10.24,13-17.07A29,29,0,0,0,604.5,65c-1.46-4.15-3.6-8-8-10a2.24,2.24,0,0,1-1.23-2.76,3,3,0,0,1,2.74-2.08,3.71,3.71,0,0,1,1.54.49,22.16,22.16,0,0,1,10.25,11.87,32.27,32.27,0,0,1,.43,21,38.67,38.67,0,0,1-9.83,16.85,40.39,40.39,0,0,1-4,3.55,12.07,12.07,0,0,1-7.92,2.2C588.44,105.77,588.34,105.48,588.23,105.19Z"/><path d="M291.69,150.91c-1.46.87-2.42,1.39-3.32,2a12.79,12.79,0,0,1-5.41,1.79,4.7,4.7,0,0,1-5.49-3.24,8.46,8.46,0,0,1-.39-5.25c.69-2.63,1.63-5.2,2.51-7.78.17-.51.67-.91.81-1.42,1.06-3.81,4.32-5.48,7.21-7.5a2.78,2.78,0,0,1,3.1-.09c.48.26,1,.55,1.43.82,4.13,2.37,4.62,3.11,4.45,7.83-.11,3.14-.51,6.27,0,9.41.39,2.41.4,5,2.75,6.57.26.17.36.74.35,1.12,0,1.44-1.05,2.13-2.2,2.68a2.11,2.11,0,0,1-2.64-.41,11.82,11.82,0,0,1-1.69-2.74C292.63,153.62,292.28,152.46,291.69,150.91Zm-2.19-16.66a10.21,10.21,0,0,0-1.64,1.13,23.61,23.61,0,0,0-5.81,12,4.79,4.79,0,0,0,.18,2.41,2.28,2.28,0,0,0,1.42,1.28c2.07.39,6.08-3.08,6.12-5.16a.66.66,0,0,0-.06-.4c-1-1.54-.19-2.86.43-4.24A7,7,0,0,0,289.5,134.25Z"/><path d="M535.76,152.92c-1.35.88-2.47,1.6-3.58,2.34a20.23,20.23,0,0,1-10.5,3,3.62,3.62,0,0,1-3.79-3.08,9.58,9.58,0,0,1,.22-4,21.17,21.17,0,0,1,4.32-7.83,33.76,33.76,0,0,1,9.52-7,7.58,7.58,0,0,1,9.41,1.51,4.33,4.33,0,0,1,.79,5,14.82,14.82,0,0,0-1,6.82,34.12,34.12,0,0,0,.73,4.83c.41,1.73,1,3.39,1.52,5.1a1.62,1.62,0,0,1-.91,2,1.8,1.8,0,0,1-2.54-.51c-.92-1.5-1.74-3.06-2.54-4.63C536.81,155.39,536.37,154.27,535.76,152.92Zm-12.8.87c2.49,1,2.49,1,4.09.54,5.82-1.83,9-6.19,9.63-13.12-2.19-.43-2.24-.51-3.34.31-2.2,1.62-4.37,3.28-6.46,5A11.1,11.1,0,0,0,523,153.79Z"/><path d="M577.5,143.3a24.23,24.23,0,0,1,3.37-.42,2.64,2.64,0,0,1,1.75.8,1.68,1.68,0,0,1-.12,2.26,7.3,7.3,0,0,1-4,2.72c-2.4.45-3,1.91-3,4.12.07,3.68-.69,7.37.15,11.05.33,1.46-.52,2.31-1.61,3a1.46,1.46,0,0,1-2.12-.54,16.3,16.3,0,0,1-1.37-4.67c-.26-5.19-.5-10.4-.3-15.59s1-10.36,1.39-15.55c.25-3,.38-6,.46-9a6.23,6.23,0,0,1,1.35-4.19,2.75,2.75,0,0,1,2.95-.92,2.36,2.36,0,0,1,1.55,2.22,37.94,37.94,0,0,1,.22,5.32c-.36,5.19-.86,10.37-1.29,15.55C576.77,140.67,576.46,141.91,577.5,143.3Z"/><path d="M145.08,72.19a16,16,0,0,0,2.35-6.89c.16-2.18.08-4.38.08-6.57,0-1.92-.08-3.84,0-5.76a3.36,3.36,0,0,1,1.47-3l3.65,2.5a25.79,25.79,0,0,1,.52,7.91c-.43,5.08.9,9.77,2.86,14.35.27.63.52,1.26.76,1.9a3,3,0,0,1,0,.63,8.76,8.76,0,0,1-1,1,1.77,1.77,0,0,1-2.59-.06c-1.21-1.26-2.33-2.61-3.64-4.1-.83.72-1.51,1.34-2.22,1.93a11.22,11.22,0,0,1-2.2,1.74,3.08,3.08,0,0,1-4.07-.82A7.44,7.44,0,0,1,138.88,73c-.54-3.38-1.1-6.75-1.56-10.14-.26-1.9-.26-3.83-.53-5.73a9.43,9.43,0,0,1,1-5.56,1.62,1.62,0,0,1,2-1,2.36,2.36,0,0,1,1.37,1.31,19.2,19.2,0,0,1,.49,3.65,88.39,88.39,0,0,0,1.86,14.67C143.72,70.9,143.71,70.9,145.08,72.19Z"/><path d="M214.33,149.06c-1.74,1.19-3.25,2.31-4.85,3.29a11,11,0,0,1-2.93,1.3,3.48,3.48,0,0,1-3.68-1.25,13.4,13.4,0,0,1-1.61-2.35c-3.28-6.36-3-12.93-1-19.55a7.36,7.36,0,0,1,1.58-2.36,2.49,2.49,0,0,1,2.89-.95,2.55,2.55,0,0,1,1.34,3.11c-.26,1-.73,2.06-1.07,3.09a20.4,20.4,0,0,0,.22,13.68,3.25,3.25,0,0,0,2.06,2.35,11.86,11.86,0,0,0,5.72-8.9,29.54,29.54,0,0,0,0-5.32c-.21-2.71.72-5,1.89-7.69l3.49,1.58c0,2,0,3.91,0,5.81a48.58,48.58,0,0,0,.7,11c.56,2.66,1.53,4.94,3.8,6.55a6.91,6.91,0,0,1,1,1.07,3.72,3.72,0,0,1-3.15,1.44,4.29,4.29,0,0,1-3.26-1.51c-.62-.72-1.1-1.56-1.65-2.34S214.9,149.86,214.33,149.06Z"/><path d="M550.93,69.65a9.57,9.57,0,0,0,2.34-6.72c0-1.5.31-3,.47-4.49.4-3.67.78-7.34,1.19-11a19.27,19.27,0,0,1,.5-3.22,2.61,2.61,0,0,1,2.87-1.79,2.16,2.16,0,0,1,1.9,1.89,14.56,14.56,0,0,1,.29,3.66c-.33,4.36-.79,8.71-1.18,13.07-.09.93-.12,1.87-.17,2.81,1.3,1,2.47.32,3.63.15s1.94.23,2.21,1.24a1.79,1.79,0,0,1-1.19,2.3,32.18,32.18,0,0,1-3.07,1.14A3.56,3.56,0,0,0,558.16,72a106.48,106.48,0,0,0-.82,15.56,30.26,30.26,0,0,1-.09,3.69,2.18,2.18,0,0,1-2.24,2,2.05,2.05,0,0,1-2.15-1.54,19.21,19.21,0,0,1-.39-2.41,68.73,68.73,0,0,1-.05-14.34A6.67,6.67,0,0,0,550.93,69.65Z"/><path d="M60.34,41.27c-.93,6-1.84,11.56-2.6,17.11a70.12,70.12,0,0,0-.23,14.34c.12,1.73-.8,2.66-2.43,2.43a2.24,2.24,0,0,1-1.6-1,20.15,20.15,0,0,1-1-4.34c-1-7.55,0-15,1.11-22.47a29.64,29.64,0,0,0,.27-3.26,6.87,6.87,0,0,0-.32-1.46,15.13,15.13,0,0,0-2.63-.33c-1.77.08-3.54.4-5.3.44a2.31,2.31,0,0,1-1.69-.84,1.51,1.51,0,0,1,.56-2.14,16.06,16.06,0,0,1,3.54-2,36.46,36.46,0,0,1,4.76-1.21c3.73-.84,7.48-1.6,11.2-2.47a2.52,2.52,0,0,1,2.64.52,2,2,0,0,1,.47,2.59c-.88,1.62-2,2.91-4,3.16A13.61,13.61,0,0,0,60.34,41.27Z"/><path d="M57.66,140.25c1.24-1,1.93-1.65,2.64-2.22a52.11,52.11,0,0,1,4.52-3.51c2.4-1.5,4.75-.8,6.3,1.59,1.22,1.88,2.24,3.88,1.66,6.16a11.09,11.09,0,0,1-5.4,7.38A11.54,11.54,0,0,1,61,150.82a2.41,2.41,0,0,1-1.43-.66,2,2,0,0,1-.61-1.41,1.67,1.67,0,0,1,1-1.05c1.29-.42,2.63-.7,3.95-1,2.14-.51,3-2.28,3.82-4,.57-1.21-.24-3.09-1.52-3.93a1.59,1.59,0,0,0-2.19.44q-2.52,2.7-5,5.42c-.37.4-.69.85-1.07,1.24-1.83,1.87-3.4,1.53-4.25-.9-1.88-5.43-1.81-11-1.5-16.65.17-3.28.52-6.55.93-9.8A12.6,12.6,0,0,1,54.21,115a1.78,1.78,0,0,1,2.13-.81,1.69,1.69,0,0,1,1.54,1.66c-.06,2.32-.15,4.65-.43,6.95-.59,4.9-1.06,9.79-.35,14.72C57.19,138.19,57.37,138.83,57.66,140.25Z"/><path d="M316,79.87a12.14,12.14,0,0,1-2.23-5.11q-1.27-4.76-2.61-9.5c-.67-2.35-.7-2.34-3-4.33a6.74,6.74,0,0,0-2.44,4.51c-.36,2.57-.57,5.16-.83,7.75-.12,1.22-.13,2.46-.35,3.67a2.27,2.27,0,0,1-1.9,1.92,2.34,2.34,0,0,1-2.44-1.19,5.51,5.51,0,0,1-.82-2.25c-.2-1.49-.22-3-.31-4.51-.25-4.1-.48-8.2-.75-12.3a7.92,7.92,0,0,1,.4-4c1-2.13,2.94-1.9,3.83-.47.42.67.87,1.32,1.37,2.08l2.57-1.54a6.19,6.19,0,0,1,.84,0c4.74.35,6.84,3.64,8.07,7.6s2.22,8.19,3.24,12.31a9,9,0,0,1,.11,2.44C318.64,78.44,317.74,79.33,316,79.87Z"/><path d="M350.65,132.27c.4-.23.76-.41,1.11-.61,2.56-1.51,4.13-1.45,6.34.32a14.11,14.11,0,0,1,5.28,8.54,67,67,0,0,1,.83,6.92c.16,1.9.19,3.82.24,5.73a8.57,8.57,0,0,1-.11,2,2.77,2.77,0,0,1-2.31,2c-.76,0-1.51-.79-1.71-2s-.18-2.46-.36-3.68c-.45-3-.91-5.94-1.48-8.89a9.45,9.45,0,0,0-2.75-5c-1.49-1.46-2.94-1.23-3.93.65a8.61,8.61,0,0,0-.78,4.79c.18,2.46.45,4.91.65,7.36a17.3,17.3,0,0,1,.1,2.87,4.07,4.07,0,0,1-.65,1.89c-1.05,1.52-2.75,1.54-3.66,0a8.87,8.87,0,0,1-1.28-3.39c-.56-5.3-1-10.62-1.43-15.94,0-.41-.08-.82-.08-1.23,0-3.11,1.91-4.25,4.9-2.9Z"/><path d="M306.78,136.15c1.1-1,2.05-2,3.07-2.9,1.53-1.35,2.77-1.46,4.43-.35a8.56,8.56,0,0,1,1.81,1.64,18,18,0,0,1,4.37,10.82,38.72,38.72,0,0,1-.46,10.2c-.38,1.75-1.19,2.65-2.23,2.39-1.32-.32-1.47-1.45-1.57-2.56-.18-2.18-.43-4.36-.49-6.54a23.32,23.32,0,0,0-2.33-8.65c-.29-.66-1-1.14-1.51-1.65-1.58.71-1.7,2-1.82,3.2-.4,3.93-1.14,7.83-.51,11.84a2.36,2.36,0,0,1-2.44,3,2.5,2.5,0,0,1-2.56-1.68,16.47,16.47,0,0,1-.77-3.17c-.35-2.3-.59-4.61-.92-6.91-.43-3-.59-6-1.65-8.84a4.11,4.11,0,0,1-.22-1.21,1.93,1.93,0,0,1,1.21-2,1.88,1.88,0,0,1,2.26.4C305.27,134.1,306,135.1,306.78,136.15Z"/><path d="M114,129.64l6.67-6.5c4.64,1.52,6.87,4.64,7.64,9,.4,2.27,1.28,4.5.13,6.78.23,3,0,6.05,1,8.95a1.44,1.44,0,0,1-.6,1.78c-1.07.77-2.28.52-2.64-.68a25.71,25.71,0,0,1-.76-3.61c-.57-3.8-1-7.61-1.66-11.39a11.89,11.89,0,0,0-1.47-3.78,1.8,1.8,0,0,0-3.1-.08,22.52,22.52,0,0,0-2.56,4.63,22.88,22.88,0,0,0-1,11c.26,2.2-.18,4.08-2.26,5.32a3.15,3.15,0,0,1-2.86-3q-1.2-8.34-2.3-16.69a8.35,8.35,0,0,1,0-2.06,2.35,2.35,0,0,1,4-1.54A18,18,0,0,1,114,129.64Z"/><path d="M224.07,69.11a8,8,0,0,1-1,2c-4.67,4.28-10.05,7.05-16.48,7.38a8.29,8.29,0,0,1-5.47-1.39c-2.32-1.69-4-3.83-3.76-6.88a25.54,25.54,0,0,1,1-6.86c2-5.45,4.95-10.36,9.74-13.92a5.78,5.78,0,0,1,9.43,3.61,6.17,6.17,0,0,1-.38,2.76c-.25.79-.87,1.56-1.81,1.3a2.76,2.76,0,0,1-1.37-1.31c-1.8-3.19-2.67-3.38-5-.73-2.93,3.34-5.2,7-5.89,11.54a21.11,21.11,0,0,0-.26,2.86,3.44,3.44,0,0,0,2.62,3.69,7.64,7.64,0,0,0,2.8.5c3.4-.3,6.8-.59,9.83-2.49a26.09,26.09,0,0,1,4.07-1.92A8,8,0,0,1,224.07,69.11Z"/><path d="M261.88,79.78c-6.67,2.4-10.67.93-13.57-4.46a13.57,13.57,0,0,1-1.77-7.07,34.86,34.86,0,0,1,3.87-15.34,39.84,39.84,0,0,1,8.38-11c1.91-1.73,3.86-1.73,5.8,0a11.42,11.42,0,0,1,2.08,2.47,1.72,1.72,0,0,1-1.08,2.6,7,7,0,0,1-2.4.23,3,3,0,0,0-2.55,1c-5.34,5.32-8.51,11.62-8.71,19.27a14.46,14.46,0,0,0,1.32,6.37,6.87,6.87,0,0,0,4,3.89C258.63,78.29,260,79,261.88,79.78Z"/><path d="M607.17,134.59c2.31,1,3.57,2.19,3,4.56-.36,1.54.84,2.53,1.46,3.71.54,1,.71,2.37,2.33,2.56.44.05.95.92,1.12,1.5a10,10,0,0,1-6,12,35.35,35.35,0,0,1-5.52,1.55,5,5,0,0,1-5.89-3.28,11.62,11.62,0,0,1-.68-4.4C597.45,145.21,601.06,139.35,607.17,134.59Zm-1.81,8.92a27,27,0,0,0-2.11,3.66,11.59,11.59,0,0,0-.67,7.57c.28,1,1.42,1.73,2.17,1.24,2.18-1.42,4.18-3.07,4.79-5.77a4.49,4.49,0,0,0-.71-3.89A7.14,7.14,0,0,0,605.36,143.51Z"/><path d="M544.28,89.29A47.76,47.76,0,0,1,538.71,88c-2.8-1-3.65-2.48-3.68-5.55a6.93,6.93,0,0,0-.56-2.29,3.92,3.92,0,0,0-.76-1c-3.26-4-3.24-8.38-.68-12.6,2.74-4.52,6.41-8.19,11.58-10a9.12,9.12,0,0,1,3.17-.4c2.38.06,3.75,1.49,4.32,3.68a2.27,2.27,0,0,1-.27,1.88,5.75,5.75,0,0,1-2.2.78.51.51,0,0,1-.38-.13c-2.26-2.21-4.32-.81-6.22.5a19,19,0,0,0-6,6.6,5,5,0,0,0,.32,5.77A26.3,26.3,0,0,0,540.6,79c1.3,1.2,2.79,2.19,4.18,3.29a16.23,16.23,0,0,1,2.14,1.9,3.12,3.12,0,0,1,.24,3.81C546.61,88.93,545.94,89.2,544.28,89.29Z"/><path d="M568.91,88c1.9-.61,3.6.88,5.52,0a5.1,5.1,0,0,0-2.54-3.17,14.55,14.55,0,0,1-4-4.06c-1.82-2.35-2.27-5.19.12-8.74a24.83,24.83,0,0,1,6.82-6.46,18.28,18.28,0,0,1,7-3.32,4.5,4.5,0,0,1,4.22.94,1.88,1.88,0,0,1,.54,1.41c-.07.45-.58.85-1,1.21a1.46,1.46,0,0,1-.77.24c-4.68.44-8,3.39-11.09,6.44-2.47,2.4-2.38,4.71.05,7.11,1.46,1.44,3.08,2.71,4.59,4.1a30.54,30.54,0,0,1,2.86,2.94,4.38,4.38,0,0,1,.24,5,3.11,3.11,0,0,1-2,1.24,44.74,44.74,0,0,1-6.55-.1c-2.08-.2-3.41-1.64-4.35-3.38C568.44,89.08,568.82,88.44,568.91,88Z"/><path d="M90.75,127l4.14,4.34c.46,3.32-2.3,4.74-4.28,6.75s-4.9,2.2-7.26,3a4.48,4.48,0,0,0-.79,3.66,3.23,3.23,0,0,0,1.76,2.6,7.46,7.46,0,0,0,5.16.74c1.71-.29,3.4-1,5.38-.49-.32.49-.45.91-.74,1.1A14.58,14.58,0,0,1,82.79,151c-3.42-.62-5-2.36-5.25-5.82a16,16,0,0,1,.32-4.47,45.26,45.26,0,0,1,2.24-7.44,14.13,14.13,0,0,1,5.38-6A5.92,5.92,0,0,1,90.75,127Zm-1.6,3.27c-2.72,1.27-3.6,3.24-4.39,5.27a.85.85,0,0,0,.27.7.84.84,0,0,0,.7.25,6.21,6.21,0,0,0,3.84-3.92C89.73,132,89.37,131.3,89.15,130.23Z"/><path d="M514,90.62c-2.48-.58-3.57-2.27-3.55-4.74,0-4.37-.11-8.76.22-13.11.5-6.54,1.35-13,2.05-19.56a4.57,4.57,0,0,1,2.21-3.72A2.18,2.18,0,0,1,518.34,51a9.56,9.56,0,0,1,0,2.45q-.92,8.34-1.89,16.68a7.46,7.46,0,0,0-.1.81c.06,5.32-1.22,10.59-.61,15.93C516,88.47,515.91,90,514,90.62Z"/><path d="M484,144.92v16a11.2,11.2,0,0,1-.1,1.64,2.28,2.28,0,0,1-2.11,2.11,2.52,2.52,0,0,1-2.36-1.92,20.53,20.53,0,0,1-.55-3.64c-.38-9-1-18-.37-27a23.94,23.94,0,0,0-.15-3.27,6.61,6.61,0,0,1,1-3.9,2.2,2.2,0,0,1,1.89-1.35,2.78,2.78,0,0,1,2.54,1.75,7.54,7.54,0,0,1,.32,2c.05,3,.07,6,.08,9,0,2.86,0,5.73,0,8.59Z"/><path d="M457.14,88c-2.85,1.17-3.82,1-4.64-1.29a21.12,21.12,0,0,1-1.19-5.6A100.51,100.51,0,0,1,452,60.56c.44-3.12.8-6.25,1.21-9.37a7.88,7.88,0,0,1,.29-1.61,3.34,3.34,0,0,1,3.26-2A2.42,2.42,0,0,1,458.55,50a37.78,37.78,0,0,1-.12,5.32c-.53,5.18-1.19,10.34-1.75,15.51a51.79,51.79,0,0,0,.44,15.57A7.86,7.86,0,0,1,457.14,88Z"/><path d="M167.46,69.47c-.89-.7-1.51-1.23-2.17-1.7-4.13-3-4.32-6.67-2.34-10.88A14.73,14.73,0,0,1,168,51a7.09,7.09,0,0,1,6.26-.94,2,2,0,0,1,1.09,3.24c-.72,1-1.43,2-3,1.54a2.88,2.88,0,0,0-1.85.46,4.61,4.61,0,0,0-1.2,1.1c-3.27,3.55-2.86,6.13,1.38,8.49,1.19.66,2.42,1.26,3.64,1.88a9,9,0,0,1,3.52,3.36,3.36,3.36,0,0,1-.57,4.47c-3,2.87-6.69,2.84-9.65-.6a4,4,0,0,1-.54-2.29A10.36,10.36,0,0,1,167.46,69.47Z"/><path d="M240.7,134.36c-.88-1.46-1.33-2.29-1.87-3.05a1.65,1.65,0,0,0-2.78-.24c-1.72,1.94-3.58,3.86-4.21,6.45a55.51,55.51,0,0,0-1.2,7.26,8.06,8.06,0,0,0,.49,3.2,3.66,3.66,0,0,0,3.66,2.73,9.73,9.73,0,0,0,5.08-1.26c1.51-.8,2.8-2.12,4.62-2.45.08.5.24.84.14,1a15,15,0,0,1-9.21,5.66,20.3,20.3,0,0,1-3.66.28,4.94,4.94,0,0,1-4.78-3.26,17.1,17.1,0,0,1-1.14-5.15c-.43-5.69,1.58-10.77,4.45-15.51a8.4,8.4,0,0,1,6.71-4.16c3.58-.32,6.07,2.42,5.19,5.88A14.55,14.55,0,0,1,240.7,134.36Z"/><path d="M436.71,141.77a20.52,20.52,0,0,0,1.73-1.89c2.68-3.86,6.59-4.07,10.66-3.49a5.37,5.37,0,0,1,3.77,3,2.31,2.31,0,0,1-.33,2.88,3.49,3.49,0,0,1-1.32-.37,5.08,5.08,0,0,0-5.46-.55c-4,1.73-6.5,4.23-6.3,8.65.05,1.1.14,2.19.13,3.29a5.66,5.66,0,0,1-.28,2,2.17,2.17,0,0,1-3.39.87,5.2,5.2,0,0,1-2-3.47A44.71,44.71,0,0,0,429.84,139c-.44-1-1.09-2.05,0-3,.86-.79,2.39-.38,3.53,1.06S435.38,139.88,436.71,141.77Z"/><path d="M176.65,148.27c3-.85,5.81.7,8.33-.53.6-1.28-.18-2.17-.79-3-.86-1.23-1.9-2.34-2.71-3.6-.66-1-1-2.23-1.62-3.29-2.55-4.46,2.52-11.41,7.63-11.52a6.52,6.52,0,0,1,6,3.57,1.39,1.39,0,0,1-1.31,2c-.95-.11-1.87-.43-2.82-.51-3.54-.31-5.47,1.95-4.5,5.37a10.94,10.94,0,0,0,1.68,3.23c1.18,1.67,2.53,3.22,3.78,4.85a18.65,18.65,0,0,1,1.84,2.7c1.09,2.1,0,4.36-2.47,4.4a92.34,92.34,0,0,1-9.81-.57C178.61,151.21,178.55,151,176.65,148.27Z"/><path d="M561.52,135.69A14.35,14.35,0,0,1,564,136a1.48,1.48,0,0,1,.94,1.06,1.66,1.66,0,0,1-.88,1.21c-.74.31-1.62.27-2.39.51a32.53,32.53,0,0,0-4.2,1.56,7.62,7.62,0,0,0-4.05,5.37,36.84,36.84,0,0,0-.71,10.2,32.66,32.66,0,0,1,0,3.28,2.37,2.37,0,0,1-2.13,2.16,2.25,2.25,0,0,1-2.35-1.3,8.4,8.4,0,0,1-.87-2.28c-.63-2.66-1.19-5.33-1.81-8-.41-1.74-.4-3.26,1.5-4.18,1.49-.72,1.89-2.32,2.53-3.63a11.46,11.46,0,0,1,5.55-5.23C557.05,135.73,559.07,135.71,561.52,135.69Z"/><path d="M339.78,156.2l-2.57,1.32c-1.87-.59-2.2-2.05-2.4-3.58a73.89,73.89,0,0,1-.31-13.55,29.45,29.45,0,0,1,.36-4.09,13.14,13.14,0,0,1,1.23-3.41,2,2,0,0,1,2.43-1.06,2.56,2.56,0,0,1,2.06,2.27,6.32,6.32,0,0,1,0,1.23A160.1,160.1,0,0,0,340,155,5.89,5.89,0,0,1,339.78,156.2Z"/><path d="M525.83,75c.17,4-.18,8,1,11.83a4.86,4.86,0,0,1,.09,1.62,1.58,1.58,0,0,1-1.71,1.39,4,4,0,0,1-3.45-2.53,17.29,17.29,0,0,1-1.22-5.13c0-5.05.2-10.1.34-15.15a4.43,4.43,0,0,1,.25-1.19,3,3,0,0,1,2.62-2.26c1.22,0,2.3,1.14,2.39,2.85.1,1.9,0,3.82-.07,5.73C526,73.08,525.9,74,525.83,75Z"/><path d="M184.1,67.18c.51-3.93,1-7.87,1.49-11.81a4.38,4.38,0,0,1,2.74-3.77,1.72,1.72,0,0,1,2.15.65,5.11,5.11,0,0,1,.86,3.52,28,28,0,0,1-.58,4.48,51.34,51.34,0,0,0-1,12.24,19.9,19.9,0,0,1-.05,2.05,2.64,2.64,0,0,1-2.18,2.15,2,2,0,0,1-2.24-1.4,17.21,17.21,0,0,1-.76-2.75,11.65,11.65,0,0,1-.2-2c0-1.1,0-2.19,0-3.29Z"/><path d="M98.38,135c0-1.23,0-2.45,0-3.68a8,8,0,0,1,.19-2,2.24,2.24,0,0,1,2-1.8,2.3,2.3,0,0,1,2.35,1.31,5.31,5.31,0,0,1,.47,1.56c.22,1.61.45,3.24.55,4.86.26,4.21.45,8.43.66,12.64a6.21,6.21,0,0,1,0,1.22,2.82,2.82,0,0,1-2,2.36A2.45,2.45,0,0,1,99.94,150a8,8,0,0,1-.59-2.35c-.39-4.21-.72-8.41-1.07-12.62Z"/><path d="M203.71,225.94a6.4,6.4,0,0,1-1.93-4.2c-.73-4.74-.2-9.51-.3-14.27a5.53,5.53,0,0,1,2.19-4.21,1.82,1.82,0,0,1,3.15,1,19.49,19.49,0,0,1,.26,3.24c.06,5,.09,10.06.14,15.1C207.25,225.21,207.2,225.28,203.71,225.94Z"/><path d="M526.66,55.84a2.07,2.07,0,0,1-2.14-1.53,2.79,2.79,0,0,1,.72-3.33,2.65,2.65,0,0,1,3-.23,3.45,3.45,0,0,1,.89,3.36A2.67,2.67,0,0,1,526.66,55.84Z"/><path d="M246.47,222.43a2.29,2.29,0,0,1-1.75-2.73,2.15,2.15,0,0,1,2.17-1.93c1.28.16,2.58,1.72,2.36,2.81A2.69,2.69,0,0,1,246.47,222.43Z"/><path d="M192.16,44a4.13,4.13,0,0,1-.91,1.3,4.52,4.52,0,0,1-1.91.61,1.6,1.6,0,0,1-1.8-1.71,2.66,2.66,0,0,1,2.94-2.64C191.35,41.62,192,42.48,192.16,44Z"/><path d="M102.38,118.54c.14.9-1,2.12-2.26,2.48-.76.22-1.62-.59-1.83-1.73-.29-1.54.35-2.76,1.48-2.82A2.63,2.63,0,0,1,102.38,118.54Z"/><path d="M201.75,192.56c-.55-1.74-.32-2.86.54-3.8a1.76,1.76,0,0,1,2.14-.58,1.83,1.83,0,0,1,.76,2.4,3.93,3.93,0,0,1-1.35,1.37A9.12,9.12,0,0,1,201.75,192.56Z"/><path d="M336.42,127.56c-.2-.25-.67-.6-.76-1a1.46,1.46,0,0,1,1.63-1.76A1.35,1.35,0,0,1,338.7,126C338.79,126.69,337.69,127.53,336.42,127.56Z"/><path d="M410.23,148.88a16.94,16.94,0,0,1,3.51-7.16,33.22,33.22,0,0,1,3.17-3.22,3.62,3.62,0,0,1,5.15,0,2.3,2.3,0,0,1,.73,2.62c-1.9,4.38-4.54,8.13-9.11,10.12a5.31,5.31,0,0,1-1.19.29C411,151.79,410.17,151,410.23,148.88Z" style="fill:#fff"/><path d="M398.41,141.17c-.68,2.51-2.15,3.05-3.52,3.64-.78-.52-.52-1-.17-1.41a7.93,7.93,0,0,1,1.53-1.29A17.24,17.24,0,0,1,398.41,141.17Z" style="fill:#fff"/><path d="M369.88,139.69l-.48.54a3.39,3.39,0,0,1-.27-.66c0-.08.14-.21.22-.31Z" style="fill:#fff"/><path d="M80.81,217.33c-1.57-2.8.18-4.78,1-6.73,1.1-2.58,2.68-5,5.81-6,.87,2.12-.26,3.65-.84,5.21C85.41,213.44,84.31,214.75,80.81,217.33Z" style="fill:#fff"/><path d="M64.17,199.71c1.45,1.37,1,2.36.41,3.32-1.06,1.58-2.38,2.32-2.82,1.59-.73-1.2.19-2.06.76-2.94A18.93,18.93,0,0,1,64.17,199.71Z" style="fill:#fff"/><path d="M326.31,76.46c0-.95-.32-2.15.06-3,1.1-2.62,1.95-5.38,4-7.55,1.19-1.29,2.16-2.81,3.37-4.1a34.68,34.68,0,0,1,3.9-3.56,1.42,1.42,0,0,1,2.32,1.19c0,3.12-.14,6.25-.37,9.37a4.32,4.32,0,0,1-1,2.18,19.77,19.77,0,0,1-9,6.06A3,3,0,0,1,326.31,76.46Z" style="fill:#fff"/><path d="M142.55,141.6c-.05-.73-.32-1.48-.08-1.95,2.34-4.58,4.44-9.35,8.85-12.57,2,1.43,2,3.39,2.15,5.26.14,1.4-.77,2.29-1.62,3.18a27.75,27.75,0,0,1-7.86,5.82A5.93,5.93,0,0,1,142.55,141.6Z" style="fill:#fff"/><path d="M474.52,74.36a3,3,0,0,0,0,.71c.51,1.23,1.42,2.39.84,3.84A6.82,6.82,0,0,1,472,82.34a7.6,7.6,0,0,1-1.48.68c-4.53,1.35-6,0-6-4.16,0-3,1.14-5.6,2.34-8.16a57.79,57.79,0,0,1,3.85-6.26,6.28,6.28,0,0,1,1-1.25c1-.95,2.19-1.87,3.64-1.26a3.88,3.88,0,0,1,2.28,3.62,12.91,12.91,0,0,1-1.82,6.62C475.38,73,474.86,73.78,474.52,74.36Z" style="fill:#fff"/><path d="M218.62,213.49c.22-3.13.41-6.26.68-9.39a1.78,1.78,0,0,1,2-1.63,5.59,5.59,0,0,1,4,1.67c2.87,2.85,3.61,6.65,1.71,9.67a8.83,8.83,0,0,1-5.19,3.77c-1.94.55-3.11-.36-3.3-2.46-.05-.54,0-1.09,0-1.64Z" style="fill:#fff"/><path d="M275.42,70.21a9.32,9.32,0,0,1,.23-1.82,25.56,25.56,0,0,1,7.93-12.22c1.49-1.25,2.84-1,3.55.82a8.33,8.33,0,0,1,.63,3.57c-.22,2.85-.62,5.69-1.1,8.52s-4.21,5.93-7,6.06c-2.51.12-3.82-1-4.15-3.5C275.46,71.24,275.46,70.83,275.42,70.21Z" style="fill:#fff"/><path d="M502.28,141.27a5.78,5.78,0,0,1,4.35-1,4,4,0,0,1,3.69,3.28c.34,1.92.31,3.82-1.36,5.26-1.12,1-2.18,2-3.37,2.91a7,7,0,0,1-2.13.59A58.34,58.34,0,0,1,502.28,141.27Z" style="fill:#fff"/><path d="M435.25,77.33c-.67-3.46-.54-5.21.83-11.62a1.89,1.89,0,0,1,2.59.07c3.09,2.55,3.81,6.71,1,9.2C438.31,76.12,437.3,77.64,435.25,77.33Z" style="fill:#fff"/><path d="M73.15,50.35a6.5,6.5,0,0,1,1.3,1.2,23.1,23.1,0,0,1,3.28,12.14c-.07,4.75-3,7.75-6.63,10.22a2.54,2.54,0,0,1-1.93,0,3.59,3.59,0,0,1-2.51-3,22.51,22.51,0,0,1-.14-5.31,33,33,0,0,1,5.17-13.69A10.16,10.16,0,0,1,73.15,50.35Z" style="fill:#fff"/><path d="M466.48,142a15.54,15.54,0,0,1-6.14,10.86,28.23,28.23,0,0,1-3.75,2.42c-.73.4-1.73-.47-1.54-1.3a14.18,14.18,0,0,1,2.5-5.52c2-2.66,4.7-4.49,7.31-6.43C465.17,141.74,465.81,142,466.48,142Z" style="fill:#fff"/><path d="M289.5,134.25a7,7,0,0,1,.64,7c-.62,1.38-1.45,2.7-.43,4.24a.66.66,0,0,1,.06.4c0,2.08-4,5.55-6.12,5.16a2.28,2.28,0,0,1-1.42-1.28,4.79,4.79,0,0,1-.18-2.41,23.61,23.61,0,0,1,5.81-12A10.21,10.21,0,0,1,289.5,134.25Z" style="fill:#fff"/><path d="M523,153.79a11.1,11.1,0,0,1,3.92-7.24c2.09-1.75,4.26-3.41,6.46-5,1.1-.82,1.15-.74,3.34-.31-.61,6.93-3.81,11.29-9.63,13.12C525.45,154.83,525.45,154.83,523,153.79Z" style="fill:#fff"/><path d="M605.36,143.51a7.14,7.14,0,0,1,3.47,2.81,4.49,4.49,0,0,1,.71,3.89c-.61,2.7-2.61,4.35-4.79,5.77-.75.49-1.89-.22-2.17-1.24a11.59,11.59,0,0,1,.67-7.57A27,27,0,0,1,605.36,143.51Z" style="fill:#fff"/><path d="M89.15,130.23c.22,1.07.58,1.76.42,2.3a6.21,6.21,0,0,1-3.84,3.92.84.84,0,0,1-.7-.25.85.85,0,0,1-.27-.7C85.55,133.47,86.43,131.5,89.15,130.23Z" style="fill:#fff"/></g></svg>
