<svg xmlns="http://www.w3.org/2000/svg" viewBox="0 0 1366 768"><g id="Layer_4" data-name="Layer 4"><path d="M1286.32,694.1c-7.79-1.35-13-10.87-11.79-18.05a1.77,1.77,0,0,1,.21-.78c.23-.32.55-.77.85-.79.49,0,1.25.08,1.45.41a13.19,13.19,0,0,1,1.51,3.31,20.82,20.82,0,0,0,3.62,7.3c.65.85,1.33,1.78,2.79,1.67,1.55-1.73,2-4.08,2.61-6.27a125.37,125.37,0,0,1,5-13.88,44.52,44.52,0,0,0,2.22-9.55c.46-3,.5-6,.68-9,0-.34-.27-.7-.51-1.3l-4.19,2.55a17.56,17.56,0,0,1-11.08,2.18,4.06,4.06,0,0,1-3.15-1.68,3.3,3.3,0,0,1-.71-2.68,20.12,20.12,0,0,1,1.25-4.75c3.11-6.11,7.45-11.1,13.83-14,1.49-.68,3.06-1.63,4.68-.79,2.21,1.13,4.26,2.62,4.82,5.27a24.85,24.85,0,0,1,.72,5.27c0,4.24-.08,8.49-.41,12.72a58.91,58.91,0,0,1-1.42,8.06c-1.1,4.94-2.15,9.89-3.51,14.76s-3,9.39-4.56,14C1290.17,691.16,1289.6,691.71,1286.32,694.1Zm-3.88-46.66a20.78,20.78,0,0,0,11.59-6.7,8.52,8.52,0,0,0,1.6-2.81,3.48,3.48,0,0,0-1.48-4.55,5.81,5.81,0,0,0-1.25.32c-4.73,2.49-8.05,6.36-10.65,10.91A2.25,2.25,0,0,0,1282.44,647.44Z"/><path d="M1197.09,627.79c.48-2,.74-3.29,1.14-4.57.73-2.41,2.68-3.18,5.12-2.11a5.39,5.39,0,0,0,1.89.68c3.94,0,5.82,2.59,7.2,5.72a32.64,32.64,0,0,1,2.48,13.24c0,1.91-.11,3.83-.29,5.74a4.27,4.27,0,0,1-.76,1.82,1.17,1.17,0,0,1-1.76-.18,17.27,17.27,0,0,1-.78-2.75c-.63-3.78-1.21-7.57-1.78-11.36a10.48,10.48,0,0,0-2-4.88,1.37,1.37,0,0,0-2.37.12,14.89,14.89,0,0,0-1.54,5.48c-.38,4.5-1,9-1.54,13.47a3.73,3.73,0,0,1-.72,1.86,3,3,0,0,1-3,1c-1.1-.22-1.49-1.14-1.73-2.09-.29-1.14.17-2.49-1.14-3.59a13.42,13.42,0,0,0-1.62.93c-2.93,2.2-6.37,3.11-9.85,3.91a14.28,14.28,0,0,1-2.86.2c-4.74.15-6.92-3.35-7.07-6.88a18.66,18.66,0,0,1,2.25-9.49c.56-1.09,1.25-2.12,1.91-3.16a16.82,16.82,0,0,1,9-6.83c3.23-1.18,5.89-.3,8.27,1.92C1195.86,626.31,1196.18,626.75,1197.09,627.79Zm-16.86,13.33c-.92,1.35-1.32,2.8-.37,4.17a4.1,4.1,0,0,0,4.35,1.65,17.89,17.89,0,0,0,10.22-5.55,7.58,7.58,0,0,0,1.69-4.08c.22-1.39.19-1.57-.56-3.48-.78.6-1.5,1.19-2.25,1.74-1.76,1.28-3.55,2.52-5.29,3.82a8.3,8.3,0,0,1-6.54,1.62A5.16,5.16,0,0,0,1180.23,641.12Zm1.47-5.37a7.73,7.73,0,0,0,1.78,0,14.21,14.21,0,0,0,7.3-4.84,2,2,0,0,0,.29-1.77,2.31,2.31,0,0,0-1.69-.8,3.53,3.53,0,0,0-1.91.5A12.81,12.81,0,0,0,1181.7,635.75Z"/><path d="M1128.55,640.14c-.57.08-.74.05-.82.12-3.18,2.86-7.12,3.93-11.15,4.85a14.67,14.67,0,0,1-5.68.09,5.65,5.65,0,0,1-4.81-4.45,12.49,12.49,0,0,1,.13-7.29,30.6,30.6,0,0,1,5.88-10.72,27.26,27.26,0,0,1,5.79-4.49c2.06-1.36,4.24-1,6.22,1.88.31.43.37,1.08.74,1.42.83.76,1.59,1.46,1.47,2.75a5.56,5.56,0,0,1-1.46,3.74,27.22,27.22,0,0,1-4.33,3.72,57.44,57.44,0,0,1-6.27,3c-1,.45-2,.82-3.11,1.27a22.28,22.28,0,0,0-.15,2.5,3.26,3.26,0,0,0,2.74,3.16,9.65,9.65,0,0,0,3.25.28,19.7,19.7,0,0,0,10-4.4,3.55,3.55,0,0,0,1.24-2.9c.1-2.87.29-5.74.52-8.6a9.06,9.06,0,0,1,.62-2.78c.76-1.8,2.06-2.85,4.27-2.39.42.86.83,1.69,1.23,2.48.39-.08.72,0,.87-.2,2.81-2.82,6.34-3.59,10.15-3.65a4.36,4.36,0,0,1,3.86,1.93,2.48,2.48,0,0,1,.5,1.82,2.26,2.26,0,0,1-1.56,1,10.09,10.09,0,0,1-2.45,0,9.14,9.14,0,0,0-4.35,1,5.28,5.28,0,0,0-3,3.13,48.94,48.94,0,0,0-3.21,11.85,3.81,3.81,0,0,1-1.7,3.1,2.71,2.71,0,0,1-4-.63A26.73,26.73,0,0,1,1128.55,640.14Zm-14.88-11.09c3.24-.25,4.93-2,6.57-3.84a2.39,2.39,0,0,0,.56-1.49,2.18,2.18,0,0,0-.61-1.37,1.19,1.19,0,0,0-1.13.09A16,16,0,0,0,1113.67,629.05Z"/><path d="M1234.49,643.46a30.71,30.71,0,0,0-2.72,1.7,15.14,15.14,0,0,1-8.59,3.52c-3.31.22-5.24-1-5.84-4.33a14.13,14.13,0,0,1,1.48-9.16,29.13,29.13,0,0,1,13.75-13.06,5.5,5.5,0,0,0,3.43-4.63,39.83,39.83,0,0,1,2.39-9.54,8.67,8.67,0,0,1,.69-1.48,2.3,2.3,0,0,1,3-.59,3.46,3.46,0,0,1,1.75,4.15c-1,2.66-.77,5.41-1,8.13a2.44,2.44,0,0,0,0,1.21c1.26,2.27.51,4.49.08,6.78a37.63,37.63,0,0,0-.48,5.72,14.35,14.35,0,0,1-1,6c-1.58,3.25-1,6.4.18,9.57.36,1,.8,2,1.18,2.91-1.63,1.53-1.61,1.57-4.13,2C1236.39,650.13,1235.6,647.07,1234.49,643.46Zm-10.87,2c2.42-1.7,4.39-2.92,6.17-4.38,3.43-2.83,5.64-6.28,5-11-.13-.91.2-1.94-1-2.72a9.29,9.29,0,0,0-2,.85,26.21,26.21,0,0,0-8.74,11.1,8.58,8.58,0,0,0-.54,3.61C1222.44,643.63,1223,644.31,1223.62,645.49Z"/><path d="M868.24,608.63c.67-1.61.41-3.57.26-5.42-.33-4,.85-7.84,1.38-11.74a2.43,2.43,0,0,1,.72-1.43,1.78,1.78,0,0,1,1.45-.39,4.26,4.26,0,0,1,2.86,3.19c1.16,6.24,1.73,12.56.54,18.79-1.23,6.47-.69,12.8.1,19.19.16,1.36.45,2.7.68,4a2.14,2.14,0,0,1-1.21,2.37,1.77,1.77,0,0,1-2.53-.43,19.93,19.93,0,0,1-1.36-3c-.62-1.65-1.17-3.32-1.69-4.82a1.71,1.71,0,0,0-2.05.4c-1.11.8-2.2,1.63-3.33,2.4a13.21,13.21,0,0,1-8.15,2.29c-3.15-.11-5.23-2.19-4.73-5.25a20.8,20.8,0,0,1,1.93-6.23,34.31,34.31,0,0,1,10.54-11.86A26.91,26.91,0,0,1,868.24,608.63Zm-11.18,21.79a8.9,8.9,0,0,0,5.38-2.9c1.13-1.36,2.32-2.68,3.51-4a8.11,8.11,0,0,0,2-6.45,1.73,1.73,0,0,0-1.62-1.76,10.32,10.32,0,0,0-1.25.69c-3.38,2.51-5.38,6.12-7.54,9.59a7.17,7.17,0,0,0-.85,2.71A7.33,7.33,0,0,0,857.06,630.42Z"/><path d="M856.82,687.22a37,37,0,0,0-2.69,10.58c-.73,6.11-1.85,12.18-2.88,18.25-.27,1.62-.8,3.19-1.19,4.78a7.6,7.6,0,0,1-3.15,4.19,3.19,3.19,0,0,1-5.12-1.21c-.56-1.15-1.62-2.35-.27-4l2.82.78a5,5,0,0,0,1.78-3.24c.7-5.71,1.45-11.4,2.15-17.1a7.22,7.22,0,0,0-.17-1.67c-.51,0-1-.15-1.27,0-2.47,1.62-5.4,1.9-8.11,2.81a2.76,2.76,0,0,1-3.25-1.12,5.85,5.85,0,0,1-1-2.2,7.36,7.36,0,0,1-.17-2.84c1.35-7.64,4.45-14.35,10.77-19.17,3.74-2.85,7.31-1.86,9.28,2.42a20.89,20.89,0,0,1,1,3.12C855.77,683.33,856.22,685,856.82,687.22Zm-17,9.81a15.55,15.55,0,0,0,8.34-4.49A9.64,9.64,0,0,0,850.19,681c-.33-.64-1.06-1.07-1.59-1.58-4.45,3-6.28,7.44-8.19,11.83C839.65,693,839,694.78,839.8,697Z"/><path d="M1251.79,637c-.39.86-.78,1.31-.79,1.78-.06,2.31,0,4.63,0,7,0,.67.31,1.33.4,2,.28,2.06-.35,2.95-2.46,3.53a2,2,0,0,1-2.68-1.21,15.92,15.92,0,0,1-1-8c.09-.81.34-1.61.43-2.42.22-1.9.34-3.81.59-5.71a14.91,14.91,0,0,1,.69-3.18,2.23,2.23,0,0,1,2.25-1.47,2.07,2.07,0,0,1,2,1.26c.3.6.51,1.25.8,1.95,1.22-.18,2.47-.68,3.55-.42.9.21,1.61,1.3,2.58,2.16a41.08,41.08,0,0,0,3.53-2.41,4.13,4.13,0,0,1,5.63,0c2.57,2.07,4.6,4.47,4.76,8.19.16,3.57-.49,7-.62,10.58a2.09,2.09,0,0,1-.58,1.05c-.15.2-.49.44-.67.39-.36-.09-.85-.29-1-.58a10,10,0,0,1-.45-2c-.54-2.81-1.06-5.64-1.66-8.44a8.77,8.77,0,0,0-.91-2.28,2.33,2.33,0,0,0-4-.13,15.24,15.24,0,0,0-2.12,6.58c-.11,2.19-.31,4.37-.52,6.54A2.72,2.72,0,0,1,1258,654c-2,1-4,0-4.21-2.22s-.07-4.65-.25-7c-.17-2-.53-4.05-.87-6.07A8.82,8.82,0,0,0,1251.79,637Z"/><path d="M1118,696.37c-.3,1.89-.63,3.76-.92,5.65-.45,2.91.82,5.36,2.28,7.69a3,3,0,0,0,3.88,1.41,5.53,5.53,0,0,1,1.53,0c-.33.79-.41,1.51-.82,1.86a19.3,19.3,0,0,1-2.72,1.78,3.27,3.27,0,0,1-3.85-.24,9.3,9.3,0,0,1-3.58-3.85,21.27,21.27,0,0,0-1.34-2.3c-1.35,1-2.52,1.93-3.65,2.86a15.9,15.9,0,0,1-9.44,3.51c-1.76.11-2.45-.37-3.1-2.05a13.51,13.51,0,0,1,.7-11.15c2.21-4.55,4.72-8.93,9.06-11.94,2.61-1.81,5.48-1.89,7.68.38a25.92,25.92,0,0,1,2.67,3.61C1117,694.47,1117.45,695.44,1118,696.37Zm-8.32-2.71a5.74,5.74,0,0,0-3,2.76c-1,1.66-2,3.29-2.87,5a26.37,26.37,0,0,0-1.94,4.05c-.45,1.37-1.54,3.19-.28,4.22,1.59,1.3,2.89-.6,4.22-1.4a4.05,4.05,0,0,1,.35-.21c3-1.59,4.45-4.33,5.46-7.38A6,6,0,0,0,1109.66,693.66Z"/><path d="M815.91,714.23a10.22,10.22,0,0,1-1.6.33,13.35,13.35,0,0,1-1.63-.15,11.13,11.13,0,0,1-2.21-4.84c-.85-4.29-1.87-8.56-2.63-12.87-.4-2.24-1.23-3.87-3.56-4.48-.34-.09-.6-.51-.87-.75.72-1.75.72-1.75,3.36-3.64.45-2.5.34-5.24.59-8a26.17,26.17,0,0,1,3.7-12c1.74-2.73,4-3.72,7.32-1.94,1.59.84,3.18,1.72,4,3.39A5.08,5.08,0,0,1,823,672c-.15,1.16-1.12,1.81-2.57,2.06-.9-.77-1.89-1.67-2.93-2.52a1.28,1.28,0,0,0-2.07.4,27,27,0,0,0-2.52,14.08c1.11,1,2,.59,3,.52a4.25,4.25,0,0,1,2.29.44c1.92,1.1,2,2.62.09,3.77-1.49.9-3.16,1.52-5,2.4-.54,2.08.07,4.36.44,6.62.62,3.92,1.38,7.82,2.06,11.73C815.84,712.32,815.83,713.14,815.91,714.23Z"/><path d="M868.94,690.72c-1.84,2.56-3,4.95-2.8,7.82a3.77,3.77,0,0,1-1.58,3.55,2.05,2.05,0,0,1-3.37-.84,13.62,13.62,0,0,1-.9-3.55c-.64-5.16-1.2-10.33-1.78-15.49-.49-4.35-.88-8.71-1.49-13a7.59,7.59,0,0,1,.56-4.38,2.54,2.54,0,0,1,2.16-1.66,1.94,1.94,0,0,1,2,1.7c.64,2.79,1.31,5.58,1.72,8.41s.5,5.72.79,8.57c.13,1.34,0,2.76,1,3.88.3-.06.61,0,.79-.17,1.21-1,2.34-1.74,4.08-1.09,2,.75,3.91,1.48,4.66,3.64s1.32,4.17,1.82,6.29c.56,2.39.9,4.83,1.42,7.23a2.78,2.78,0,0,1-.59,2.66c-1.42,1.6-3,1.38-3.69-.68-.81-2.61-1.39-5.28-2-7.94C871.15,693.27,871.17,693.27,868.94,690.72Z"/><path d="M957.87,698.78c-.34,4.91-3,9.21-8.38,11.65-1.12.51-2.31.88-3.47,1.28a7.14,7.14,0,0,1-9.49-5.21,20.59,20.59,0,0,1-.61-5.3c.15-6.74,2.86-12.47,7.25-17.47a3.85,3.85,0,0,1,4.49-1C953.52,685.08,957.79,691.39,957.87,698.78Zm-12.15-8.38c-2.77,3.49-4.43,8.5-4.16,12a7.52,7.52,0,0,0,1.57,4.16,2.74,2.74,0,0,0,4,.58c4-3.51,8.09-9.21,3.37-15.78-.14-.2-.44-.29-.68-.44l-2.08.78c-.37-.26-.58-.42-.81-.57S946.25,690.73,945.72,690.4Z"/><path d="M808.36,629.45c0-4.57,1.24-8.94,2.33-13.3,1.2-4.77,2.69-9.47,4.06-14.19a6,6,0,0,1,.54-1.53,2.32,2.32,0,0,1,2.42-1.22,2.85,2.85,0,0,1,1.79,1.45,24,24,0,0,1,1,4.37c.59,3.23,1.11,6.47,1.71,9.7s2.33,6.12,3.81,9a19.21,19.21,0,0,1,1.66,5.89,5.7,5.7,0,0,1-.19,2.43,2.65,2.65,0,0,1-2.51,1.8,1.86,1.86,0,0,1-1.93-1.25q-1.68-3.75-3.3-7.51c-.38-.88-.64-1.81-1-2.69s-1-1.5-1.87-1.23a3,3,0,0,0-1.84,1.38c-.72,2.2-1.22,4.47-1.73,6.73-.27,1.2-.27,2.47-.61,3.64a2.86,2.86,0,0,1-1.31,1.42,1.87,1.87,0,0,1-2.87-1.26,3.17,3.17,0,0,1-.17-.8C808.35,631.37,808.36,630.41,808.36,629.45Z"/><path d="M972.54,708.56a17,17,0,0,1-5.13,3.74,2.29,2.29,0,0,1-3.25-.77,16.2,16.2,0,0,1-3-7.15c-.87-6.37-1.58-12.77-2.47-19.14-.32-2.28.73-4,1.8-5.73a2,2,0,0,1,3.4.06,3.49,3.49,0,0,1,.59,1.49c.37,3.41.71,6.81,1,10.22.28,3.14.48,6.29.75,9.42a7,7,0,0,0,.49,1.47c.41-.24.75-.33.8-.49.71-2.64,1.38-5.28,2.07-7.93.79-3,2.11-5.92,2.25-9.14a2.32,2.32,0,0,1,2.46-2.27,2.44,2.44,0,0,1,2.53,1.7,7.53,7.53,0,0,1,.39,5.22c-.24.92-.62,1.81-.94,2.72C974.41,697.4,972.37,702.8,972.54,708.56Z"/><path d="M994.13,611.41c1.32,1.4,2.25,2.37,3.25,3.42a22.63,22.63,0,0,1-.79,7.27c-1.05,3.78-.13,7.33,1.37,10.75a17.32,17.32,0,0,0,2.46,3.24c-.89,1.71-.89,1.71-3.76,2.48-1.81-1.14-2.89-3.07-4.08-4.67a2,2,0,0,0-2.29.85c-2,2.27-4.9,2.87-7.6,3.77a2.1,2.1,0,0,1-2.26-.62c-1-1.1-2-2.28-2-3.9a45.43,45.43,0,0,1,.22-7.75c.78-4.44,2-8.79,3-13.18a4.17,4.17,0,0,1,2-3c1.43-.79,3-.15,3,1.43a16.76,16.76,0,0,1-.34,4.06c-.74,3.75-1.61,7.48-2.38,11.22a11.23,11.23,0,0,0,.38,6.4c.71.49,1.33.11,1.83-.32a12.44,12.44,0,0,0,4.79-10,19.91,19.91,0,0,1,1.79-9.56A15,15,0,0,1,994.13,611.41Z"/><path d="M952.89,629.29c-.08-6,3.1-10.64,6.45-15.19a14,14,0,0,1,5.5-4.15,5.07,5.07,0,0,1,5.75.62c2.85,2.26,4.68,4.95,4.49,8.74a15.63,15.63,0,0,0,.09,2.05,14.65,14.65,0,0,1-9.5,15.5,15.08,15.08,0,0,1-6.35,1.26,6.57,6.57,0,0,1-6.18-5.57C953,631.48,953,630.38,952.89,629.29Zm14.57-14a5.34,5.34,0,0,0-.8.13,3.27,3.27,0,0,0-.72.37c-4.86,3.33-7.12,8.14-7.84,13.8a6.66,6.66,0,0,0,.27,2.42,2.35,2.35,0,0,0,3.09,1.9,11.43,11.43,0,0,0,3.29-1.56,15.09,15.09,0,0,0,5.17-7.23C971.44,621.09,970.62,618.1,967.46,615.31Z"/><path d="M1082.59,693.52a14.37,14.37,0,0,0-5.37,11.8c0,1.64.11,3.28.08,4.93a3.24,3.24,0,0,1-2,2.9,2.17,2.17,0,0,1-3.27-1.35,14.81,14.81,0,0,1-.46-3.24,60.25,60.25,0,0,0-2.12-14.62c-.79-2.89-.09-3.72,3.61-4.84l2.48,3.2a17.29,17.29,0,0,0,3.35-3.49,3.94,3.94,0,0,1,3.65-1.39c3.75.35,5.23,1.63,6.4,5.24a98.37,98.37,0,0,1,3.35,16.08c.22,1.48.38,3,.57,4.41-1.9,1.35-3.14,1.28-3.84-.55a63.81,63.81,0,0,1-2-7.09c-.68-2.66-1.18-5.35-1.89-8C1084.55,695.36,1084.47,695.39,1082.59,693.52Z"/><path d="M836.53,612.78a2.54,2.54,0,0,0-1.61,2.93c.2,2.59.4,5.18.7,7.75.27,2.31.7,4.59,1,6.89a5.56,5.56,0,0,1,0,1.63,2.78,2.78,0,0,1-2.12,2.25c-1.12.39-1.84-.27-2.47-1a7.84,7.84,0,0,1-1.59-4.58c-.35-3.67-.65-7.35-1-11-.21-2.18-.44-4.35-.76-6.51a3.79,3.79,0,0,1,1.06-3.37c.93-1,1.85-1.55,3.21-.66a2.34,2.34,0,0,0,1.89.28c2.41-1.12,4.32.09,6.06,1.36a9.64,9.64,0,0,1,3.53,4.92,69.16,69.16,0,0,1,3.46,19.7c0,.28.07.55.06.82a1.63,1.63,0,0,1-2.07,1.39,3.12,3.12,0,0,1-2.27-2.18,27.48,27.48,0,0,1-.95-4.39,42.31,42.31,0,0,0-3.08-11.87C838.89,615.5,838.22,613.85,836.53,612.78Z"/><path d="M1054.56,641.55c-1.19-1-1-2.45-1-3.79-.11-3,0-6-.3-9a58.09,58.09,0,0,0-1.65-8c-.32-1.26-1.21-1.7-2.11-1.44a2.13,2.13,0,0,0-1.79,2c-.05,1,0,1.91,0,2.87.16,5.33,0,10.66-.32,16.17l-3.44,1.73a10.16,10.16,0,0,1-1.36-2,34.12,34.12,0,0,1-1.14-15.83,22.77,22.77,0,0,0,.58-6.1,1,1,0,0,1,0-.41c.37-1.29.06-2.89,1.27-3.79s2.55-.48,3.87.1a3.87,3.87,0,0,0,2-.11c.8-.14,1.58-.37,2.4-.57,3.1,2,5.18,4.48,5.56,8.19s1.06,7.34,1.08,11a33.09,33.09,0,0,1-1.36,7.61A2.14,2.14,0,0,1,1054.56,641.55Z"/><path d="M896.46,618c.1-.68.07-.86.15-.94,2.36-2.28,2.68-5.24,2.76-8.29s.23-6,.31-9a4.86,4.86,0,0,1,1.52-3.68,2.38,2.38,0,0,1,3.62.11,4.57,4.57,0,0,1,1.16,3.41c-.07,2.19-.19,4.38-.23,6.57,0,1.19.07,2.39.11,3.8,2.28-.36,3.64-1.83,5.34-2.58a3.48,3.48,0,0,1,1.94-.32,2.2,2.2,0,0,1,1.05,3.83,52,52,0,0,1-5,3.5c-1.37.89-2.79,1.72-4,2.48-.88,2.94-1.11,13.72-.47,18.55a2.46,2.46,0,0,1-2.39,1.28c-1.51.11-2.43-.46-2.7-1.93a64.87,64.87,0,0,1-.82-6.52,52.8,52.8,0,0,1-.16-6.16A4,4,0,0,0,896.46,618Z"/><path d="M1132.06,706.53c.68-1.14.9-1.48,1.09-1.84,2.23-4.38,4.5-8.74,6.66-13.16a3.89,3.89,0,0,1,3.47-2.44,1.88,1.88,0,0,1,2.17,1.9,7.22,7.22,0,0,1-.46,2.78,20.35,20.35,0,0,1-2.46,4.72c-3.06,3.89-4.22,8.53-5.76,13.13l1.58,1.9c-.2.37-.31.82-.6,1-3.19,2.49-6.51,2.11-8.78-1.2a17.65,17.65,0,0,1-2.46-5.14c-1.36-4.89-1.75-10-2.2-15a4.6,4.6,0,0,1,.16-1.61c.52-1.87,2.1-3.41,3.31-3.12,1.6.38,2,1.85,2.2,3.17a39,39,0,0,1,.53,5.3A38.58,38.58,0,0,0,1132.06,706.53Z"/><path d="M984.16,699.91a6.79,6.79,0,0,0-1.11,4.52c.2,3.05,2.36,4.89,5.51,4.69,1.36-.09,2.72-.29,4.08-.42,1.2-.11,2.4-.2,3.62-.3,0,.33,0,.7-.09.77a21.58,21.58,0,0,1-11.27,3.21,6.57,6.57,0,0,1-6.64-5c-1.28-4.54-1.07-9,1.75-13a30.22,30.22,0,0,1,8.07-8.07,7.59,7.59,0,0,1,10.45,2.24,4.9,4.9,0,0,1-.63,6,34.84,34.84,0,0,1-5.45,4.32,9.64,9.64,0,0,1-3.9,1A42.09,42.09,0,0,1,984.16,699.91Zm2.22-3.27c2.34-1.45,4.18-2.56,6-3.73.8-.51,1.19-1.7.68-2.06a3.55,3.55,0,0,0-1.82-.6,2.15,2.15,0,0,0-1.47.56c-1.18,1.29-2.28,2.66-3.34,4.06C986.23,695.1,986.38,695.6,986.38,696.64Z"/><path d="M932.25,621.43a25,25,0,0,1-1.5,7.59,11.57,11.57,0,0,1-7.72,7.3,16.2,16.2,0,0,1-6.48.64c-3.1-.36-4.92-2.57-4.45-5.7a25.16,25.16,0,0,1,1.68-5.88c2.32-5.51,6.1-10,10.38-14.06a4,4,0,0,1,3-1.19,2,2,0,0,1,2.21,1.45,9.56,9.56,0,0,0,2,3.94,5.27,5.27,0,0,1,.86,2.64A23.78,23.78,0,0,1,932.25,621.43Zm-4.47.38c0-.57,0-.71,0-.85,0-1.09.05-2.33-1.07-2.92-1.39-.72-2.34.39-3.18,1.21-2.95,2.83-4.47,6.5-5.71,10.3a5.5,5.5,0,0,0-.1,2,1.64,1.64,0,0,0,2.06,1.45,6.62,6.62,0,0,0,1.16-.4C925.82,630.46,927.46,626.32,927.78,621.81Z"/><path d="M885.29,709.55a3.76,3.76,0,0,1-1.7-3c-.19-4.23-.48-8.45-.47-12.68a5.29,5.29,0,0,0-1.78-4.5c2.19-2.65,1.8-5.66,1.32-8.61a32,32,0,0,1,.11-10.19,2.94,2.94,0,0,1,1.44-2.33,1.93,1.93,0,0,1,3,1,14,14,0,0,1,.54,2.8c.31,2.72.53,5.44.85,8.15a23.68,23.68,0,0,0,.62,2.73c1.92.06,3.36-.81,4.92-1.22a17.47,17.47,0,0,1,4-.57,1.44,1.44,0,0,1,1,2.41,18.86,18.86,0,0,1-3.55,2.67,25,25,0,0,1-3.44,1.32c-3.3,1.29-3.26,1.3-3.24,4.7,0,4-.12,7.93,0,11.89A5,5,0,0,1,885.29,709.55Z"/><path d="M1099.05,643.36l-3.47.82a5.65,5.65,0,0,1-.87-1c-.74-1.45-1.45-2.93-2.13-4.41a7.18,7.18,0,0,1-.69-1.91c-.82-5.68-1.62-11.36-2.36-17.06a9.38,9.38,0,0,1,.08-3.26,5.88,5.88,0,0,1,1.37-2.39,1.63,1.63,0,0,1,2.49.36,15,15,0,0,1,1.69,5.86c.32,2.15.63,4.3,1,6.81a5.94,5.94,0,0,0,1.91-3.37c.52-1.7.83-3.46,1.38-5.14a4.4,4.4,0,0,1,1.33-2c1.72-1.42,3.49-.78,4,1.36a9.87,9.87,0,0,1-.65,5.63c-1,3-2.11,5.92-3,8.94-.67,2.35-1.52,4.67-1.39,7.21A14.91,14.91,0,0,1,1099.05,643.36Z"/><path d="M1066.36,628.25a16.9,16.9,0,0,1-2.37-2.07,2.1,2.1,0,0,1,1.55-3.35,17.62,17.62,0,0,1,2,.19c.54,0,1.08,0,2,0a26.17,26.17,0,0,1,2-2.25,23.1,23.1,0,0,1,7.16-4.54,3.55,3.55,0,0,1,4.1,1,2.63,2.63,0,0,1,.68,3,11.77,11.77,0,0,1-5.89,6.55c-1,.49-2,.89-3,1.31a4.7,4.7,0,0,0-3.08,4.44c0,.82-.15,1.64-.14,2.46,0,3.88,2.38,5.94,6.07,5a57,57,0,0,0,6.5-2.4,14,14,0,0,1,1.46-.71.87.87,0,0,1,.91,1.45,13.26,13.26,0,0,1-3.08,2.65,20.43,20.43,0,0,1-11.08,2.32,5.85,5.85,0,0,1-5.57-4.63,15.77,15.77,0,0,1-.59-7.29C1066.2,630.46,1066.23,629.51,1066.36,628.25Z"/><path d="M1006.89,691.12c.5-.29.67-.33.72-.42,2.26-4.45,6.45-5.1,10.77-5.46a5,5,0,0,1,1.62.17c1.12.26,2.19,1.2,1.92,1.78a4,4,0,0,1-1.48,1.79,21.18,21.18,0,0,1-3.76,1.61,8.12,8.12,0,0,0-5.6,6,31.57,31.57,0,0,0-1.45,11.15l-3.2,2.43a5.78,5.78,0,0,1-2.81-3.5,36.93,36.93,0,0,1-2.83-16.06,3.49,3.49,0,0,1,1.75-3.05,2.13,2.13,0,0,1,3.16.81C1006.14,689.17,1006.45,690.08,1006.89,691.12Z"/><path d="M915.8,685.13c-.41-.1-.57-.08-.65-.16-2-2.08-2.46-2.12-4.08-.26A22.68,22.68,0,0,0,909.3,687c-1.77,2.73-1.74,4.94.17,7.61.95,1.33,2.12,2.51,3.07,3.85,1.51,2.12,1.34,3.09-.37,5a11.53,11.53,0,0,1-5.07,3.38c-1.87.6-3.81.77-5.38-.78a1.85,1.85,0,0,1-.48-1.46,1.8,1.8,0,0,1,1-1.1c.76-.27,1.65-.2,2.41-.46a15.71,15.71,0,0,0,2.26-1.28c-.51-.86-.88-1.56-1.31-2.21-.83-1.26-1.67-2.51-2.54-3.74-1.79-2.51-1.64-5.22-.5-7.83a20,20,0,0,1,6.55-8.29,10.2,10.2,0,0,1,1.06-.63c3.5-1.93,5.49-1.34,7.85,2.56Z"/><path d="M1006.73,621.59c1.46-3.27,3.38-5.71,6.74-6.33,2.78-.52,5.68-1,8,1.14a1.59,1.59,0,0,1-1.34,2c-1.71.46-3.45.82-5.15,1.32a3.75,3.75,0,0,0-3,3.52c-.15,2.17-.34,4.35-.43,6.53s0,4.11-.15,6.16a10.18,10.18,0,0,1-.82,3.15,2.93,2.93,0,0,1-3.05,1.63c-1.12,0-1.65-.86-2-1.8a16.92,16.92,0,0,1-.61-2c-1-4.4-1.94-8.81-2.94-13.21a6.18,6.18,0,0,1,.16-4,9.45,9.45,0,0,1,1.34-1.67Z"/><path d="M1149.18,715.75c-1.94-.54-2.48-2.07-2.64-3.77a42.62,42.62,0,0,1,.36-11.45c.46-2.69,1.25-5.32,1.92-8a2.94,2.94,0,0,1,2.89-2.45c1.48-.08,2.45.54,2.52,2a14.35,14.35,0,0,1-.41,4c-1.21,4.93-2.21,9.88-1.6,15A3.8,3.8,0,0,1,1149.18,715.75Z"/><path d="M825.16,704.55c-1.89-1.58-1.91-3.85-2-6a55.52,55.52,0,0,1,1.08-12.66c.2-.94.34-1.89.61-2.8A2.83,2.83,0,0,1,828,681c1.38.1,2.3,1.16,2.32,2.87a19.51,19.51,0,0,1-.28,2.84c-.66,4.61-1.45,9.19-1.29,13.88C828.82,703.38,828.6,703.49,825.16,704.55Z"/><path d="M1180.77,681.78c.65-.86,1.33-1.7,1.93-2.59a2.35,2.35,0,0,1,2.44-1.12,2.65,2.65,0,0,1,2.1,1.75,3.85,3.85,0,0,1-.36,3.53c-1.67,2.8-3.34,5.61-5,8.4-.63,1-1.27,2.09-1.94,3.11s-1.44,2-3.11,1.76a21.63,21.63,0,0,1,1.87-9.46c.52-1.25.93-2.53,1.39-3.8l-.12.14.92-1.84Z"/><path d="M1061.62,686.44c0,1.5.07,3,0,4.5a1.79,1.79,0,0,1-.91,1.2c-.72.35-1.21-.16-1.64-.77-2.57-3.57-2.89-7.88-3.87-12a4,4,0,0,1,.47-2.36,3.2,3.2,0,0,1,3-1.78,2.48,2.48,0,0,1,2.13,2.21c.43,3,.68,6,1,8.95Z"/><path d="M1154.07,638.16a4.5,4.5,0,0,1-1.47,0,3.29,3.29,0,0,1-1.57-1,1.87,1.87,0,0,1,.76-2.49c4-1.78,8.07-3.37,12.55-3.31a3.06,3.06,0,0,1,2.54,3.53,2,2,0,0,1-.69.95,3.79,3.79,0,0,1-1.47.68C1161.09,637.06,1157.45,637.62,1154.07,638.16Z"/><path d="M1180.06,683.36a11.57,11.57,0,0,0-1.8,1.52c-1.12,1.38-2.11,2.86-3.19,4.28a3.43,3.43,0,0,1-3.67,1.55,3.92,3.92,0,0,1-.06-4.17c1-2.11,2.05-4.17,3.18-6.21a9.08,9.08,0,0,1,1.72-2.26,2.35,2.35,0,0,1,4,.89,18.5,18.5,0,0,1,.54,2.82l.09-.12-.92,1.84Z"/><path d="M1047.11,681.57a16.22,16.22,0,0,1,.85-2.86,2.08,2.08,0,0,1,1.6-1,3.83,3.83,0,0,1,2,1.08,2.74,2.74,0,0,1,.55,1.5c.51,2.82,1,5.64,1.41,8.48a2.26,2.26,0,0,1-.64,1.75,1.66,1.66,0,0,1-2.25-.23A11.73,11.73,0,0,1,1047.11,681.57Z"/><path d="M1253.25,616.65c.1,1.47-.4,2.23-1.4,2.6a2.51,2.51,0,0,1-3-.55,2.05,2.05,0,0,1,0-2.3,2.31,2.31,0,0,1,2.85-1C1252.41,615.65,1252.9,616.35,1253.25,616.65Z"/><path d="M1150.1,683.35c.15-.72.24-1.11.3-1.5a1.57,1.57,0,0,1,1.67-1.38,2,2,0,0,1,2.26,1.23,1.93,1.93,0,0,1-.16,1.49,3.77,3.77,0,0,1-1.49,1.28,2.43,2.43,0,0,1-1.8.22C1150.43,684.47,1150.27,683.67,1150.1,683.35Z"/><path d="M827.12,667.49a2.2,2.2,0,0,1,2.06,2.1,2.91,2.91,0,0,1-2.89,2.32c-1.06-.13-1.87-1.49-1.69-2.85C824.72,668.11,825.81,667.44,827.12,667.49Z"/><path d="M1175.19,720.25c-.12-.24-.45-.59-.4-.87.29-1.4.93-2,2.09-2.06a1.07,1.07,0,0,1,.79.68c0,1.1-.66,1.87-1.91,2.28A2.54,2.54,0,0,1,1175.19,720.25Z"/><path d="M1282.44,647.44a2.25,2.25,0,0,1-.19-2.83c2.6-4.55,5.92-8.42,10.65-10.91a5.81,5.81,0,0,1,1.25-.32,3.48,3.48,0,0,1,1.48,4.55,8.52,8.52,0,0,1-1.6,2.81A20.78,20.78,0,0,1,1282.44,647.44Z" style="fill:#fff"/><path d="M1180.23,641.12a5.16,5.16,0,0,1,1.25-.11,8.3,8.3,0,0,0,6.54-1.62c1.74-1.3,3.53-2.54,5.29-3.82.75-.55,1.47-1.14,2.25-1.74.75,1.91.78,2.09.56,3.48a7.58,7.58,0,0,1-1.69,4.08,17.89,17.89,0,0,1-10.22,5.55,4.1,4.1,0,0,1-4.35-1.65C1178.91,643.92,1179.31,642.47,1180.23,641.12Z" style="fill:#fff"/><path d="M1181.7,635.75a12.81,12.81,0,0,1,5.77-6.93,3.53,3.53,0,0,1,1.91-.5,2.31,2.31,0,0,1,1.69.8,2,2,0,0,1-.29,1.77,14.21,14.21,0,0,1-7.3,4.84A7.73,7.73,0,0,1,1181.7,635.75Z" style="fill:#fff"/><path d="M1113.67,629.05a16,16,0,0,1,5.39-6.61,1.19,1.19,0,0,1,1.13-.09,2.18,2.18,0,0,1,.61,1.37,2.39,2.39,0,0,1-.56,1.49C1118.6,627,1116.91,628.8,1113.67,629.05Z" style="fill:#fff"/><path d="M1223.62,645.49c-.58-1.18-1.18-1.86-1.2-2.55a8.58,8.58,0,0,1,.54-3.61,26.21,26.21,0,0,1,8.74-11.1,9.29,9.29,0,0,1,2-.85c1.22.78.89,1.81,1,2.72.69,4.73-1.52,8.18-5,11C1228,642.57,1226,643.79,1223.62,645.49Z" style="fill:#fff"/><path d="M857.06,630.42a7.33,7.33,0,0,1-.36-2.12,7.17,7.17,0,0,1,.85-2.71c2.16-3.47,4.16-7.08,7.54-9.59a10.32,10.32,0,0,1,1.25-.69,1.73,1.73,0,0,1,1.62,1.76,8.11,8.11,0,0,1-2,6.45c-1.19,1.32-2.38,2.64-3.51,4A8.9,8.9,0,0,1,857.06,630.42Z" style="fill:#fff"/><path d="M839.8,697c-.81-2.25-.15-4,.61-5.81,1.91-4.39,3.74-8.84,8.19-11.83.53.51,1.26.94,1.59,1.58a9.64,9.64,0,0,1-2.05,11.57A15.55,15.55,0,0,1,839.8,697Z" style="fill:#fff"/><path d="M1109.66,693.66a6,6,0,0,1,1.95,7c-1,3.05-2.46,5.79-5.46,7.38a4.05,4.05,0,0,0-.35.21c-1.33.8-2.63,2.7-4.22,1.4-1.26-1-.17-2.85.28-4.22a26.37,26.37,0,0,1,1.94-4.05c.92-1.68,1.91-3.31,2.87-5A5.74,5.74,0,0,1,1109.66,693.66Z" style="fill:#fff"/><path d="M945.72,690.4c.53.33.87.53,1.2.75s.44.31.81.57l2.08-.78c.24.15.54.24.68.44,4.72,6.57.68,12.27-3.37,15.78a2.74,2.74,0,0,1-4-.58,7.52,7.52,0,0,1-1.57-4.16C941.29,698.9,943,693.89,945.72,690.4Z" style="fill:#fff"/><path d="M967.46,615.31c3.16,2.79,4,5.78,2.46,9.83a15.09,15.09,0,0,1-5.17,7.23,11.43,11.43,0,0,1-3.29,1.56,2.35,2.35,0,0,1-3.09-1.9,6.66,6.66,0,0,1-.27-2.42c.72-5.66,3-10.47,7.84-13.8a3.27,3.27,0,0,1,.72-.37A5.34,5.34,0,0,1,967.46,615.31Z" style="fill:#fff"/><path d="M986.38,696.64c0-1-.15-1.54,0-1.77,1.06-1.4,2.16-2.77,3.34-4.06a2.15,2.15,0,0,1,1.47-.56,3.55,3.55,0,0,1,1.82.6c.51.36.12,1.55-.68,2.06C990.56,694.08,988.72,695.19,986.38,696.64Z" style="fill:#fff"/><path d="M927.78,621.81c-.32,4.51-2,8.65-6.84,10.82a6.62,6.62,0,0,1-1.16.4,1.64,1.64,0,0,1-2.06-1.45,5.5,5.5,0,0,1,.1-2c1.24-3.8,2.76-7.47,5.71-10.3.84-.82,1.79-1.93,3.18-1.21,1.12.59,1,1.83,1.07,2.92C927.79,621.1,927.78,621.24,927.78,621.81Z" style="fill:#fff"/><path d="M1179.94,683.5l.92-1.84Z" style="fill:#fff"/></g></svg>
