<?xml version="1.0" encoding="utf-8"?>
<!-- Generator: Adobe Illustrator 24.0.1, SVG Export Plug-In . SVG Version: 6.00 Build 0)  -->
<svg version="1.1" id="Layer_1" xmlns="http://www.w3.org/2000/svg" xmlns:xlink="http://www.w3.org/1999/xlink" x="0px" y="0px"
	 viewBox="0 0 2437.1 1370.2" style="enable-background:new 0 0 2437.1 1370.2;" xml:space="preserve">
<style type="text/css">
	.st0{fill:#FFFFFF;}
</style>
<g>
	<path d="M442.1,200.7c0-0.9,0.1-1.5,0.1-2.2c-0.3-6.5,2.5-11.6,7.2-15.8c0.7-0.6,1.6-1.1,2.3-1.8c2-2.2,4.2-2,6.8-1.2
		c2.9,1,5.3,3,6.9,5.6c1.4,2,1.3,3.9-0.4,5.9c-1,1.3-1.5,2.9-1.6,4.6c-1,8.5-2.9,16.7-4.5,25.1c-0.1,0.5-0.3,1.1-0.3,1.6
		c-0.1,1.7-1.5,3-3.2,3c-1.4-0.7-2.2-2.3-1.8-3.9c0.5-3.1,1.1-6.2,1.6-9.3c0.6-3.5,1.2-7,1.7-10.6c0-0.6-0.1-1.2-0.3-1.8
		c-4.3,1.9-8.4,3.5-12.8,1.4c-3.7,2.9-8.1,3.9-12.6,4.5c-0.8,0.1-1.6,0.1-2.5,0.1c-4.3-0.1-7.1-2.6-7.2-6.8
		c-0.1-4.6-0.4-4.2-4.8-5.8c-0.7-0.1-1.4-0.2-2.1-0.1c-0.2,0.7-0.3,1.4-0.3,2.1c0.2,1.5,0.6,3,0.9,4.4s0.5,3.2,0.7,4.9
		c0,1-0.7,1.9-1.6,2.1c-1,0.3-2-0.1-2.5-0.9c-0.5-0.8-0.8-1.7-1-2.6c-0.9-3.6-1.8-7.2-2.6-10.8c-0.2-1.7-1.1-3.1-2.5-4
		c-0.5-0.3-0.9-0.6-1.3-1c-1.4-1.3-1.4-2.6-0.1-3.9c0.8-0.7,1.7-1.4,2.4-1.9c0.6-1.7,0.1-3.2-0.1-4.7c-0.3-2-0.1-4.1,0.5-6.1
		c0.2-1.2,1.3-2.1,2.5-1.9c0.1,0,0.1,0,0.2,0c1.4,0.1,2,0.8,2.2,2.5c0.2,2,0.3,4.1,0.5,6.2c0.1,1.7,0.1,3.2,1.8,4.4
		c0.7,0.5,0.8,1.5,0.3,2.2c-1.6,2.6-1.6,2.6-0.5,6.2c2.7,1.1,5.5,2.7,8.8,2.9c0.8-0.8,1.5-1.6,2.1-2.5c2.3-3.1,5.3-5.6,8.8-7.2
		c2.6-1.5,5.9-0.9,7.8,1.4c1.4,1.4,1.5,3.7,0.1,5.1c-0.1,0.1-0.2,0.2-0.4,0.3c-3,2.6-6.7,4.3-10.6,5c-1.7,0.2-3,1.5-3.3,3.1
		c-0.4,1.4,0.3,2.8,1.7,3.2c0,0,0,0,0.1,0c2.5,0.8,5,1.3,7.7,0.4C438.2,201.6,440,201.3,442.1,200.7z M447.6,196
		c-0.1,2.1,0.8,2.9,2.3,2.7c0.4-0.1,0.8-0.1,1.2-0.3c4.6-2,7.2-5.7,9.1-10.1c0.4-0.9,0.1-2-0.7-2.6c-1.4-1.4-3.7-1.4-5.1,0
		c0,0,0,0,0,0c-1.1,1-2.2,2.1-3.2,3.2C449.3,191,448.1,193.4,447.6,196L447.6,196z M435.7,188.3c-0.7,0.3-1.5,0.6-2.2,0.9
		c-0.6,0.4-1.1,0.8-1.5,1.3c-0.4,0.4-0.6,0.9,0.2,1.4C433.6,191.4,435.1,190.8,435.7,188.3L435.7,188.3z M407.2,186.8l-0.5-0.4
		c-0.1,0.1-0.2,0.2-0.2,0.3c0.1,0.2,0.2,0.5,0.3,0.7L407.2,186.8z"/>
	<path d="M173.8,255.6c-1,2.3-2,4.6-2.8,6.9c-0.8,1.9-1.4,3.8-2.2,5.7c-0.3,0.8-0.7,1.5-1.2,2.1c-1.8,2-3.7,1.7-4.8-0.8
		c-0.4-0.9-0.5-1.8-0.9-2.7c-0.5-1.3-1.6-1.6-2.6-0.6c-0.8,0.8-1.5,1.6-2.2,2.4c-2.3,2.4-5.4,3.9-8.7,4.1c-5.2,0.5-9.7-3.4-9-8.6
		c0.8-5.6,2.3-11,7.2-14.7c1.2-0.9,2.2-2,3.4-3c0.5-0.5,1.1-0.8,1.7-1.1c1.2-0.5,2.5-0.3,3.4,0.6c0.8,0.8,1.1,2,0.6,3.1
		c-0.4,0.9-0.9,1.8-1.4,2.6h-2.5c-2.5,2.3-4.5,5.1-5.8,8.2c-0.9,2-1.1,4.3-0.6,6.4c0.3,2,2.1,3.5,4.2,3.2c0.4,0,0.8-0.2,1.1-0.3
		c3-1.2,5.3-3.4,7.4-5.7c2.1-2.1,3-5,2.5-7.9c-0.3-1.9-0.3-3.8-0.5-5.7c-0.7-6.4-0.3-12.9-0.3-19.3c-0.1-1.2,0.2-2.5,0.9-3.5
		c1-1.3,2.6-1.4,3.4-0.1c0.5,0.8,0.8,1.7,0.9,2.6c0.2,2.2,0.2,4.4,0.2,6.6c-0.3,7.7,0.8,15.3,1.1,23c0,1,0,2.2,1.4,3
		c0.3-0.4,0.6-0.8,0.8-1.2c0.8-2.7,1.6-5.5,2.4-8.3c0.4-1.6,1.6-3,3.2-3.5c0.9-0.4,2,0,2.5,0.8c0.4,0.7,0.8,1.4,1,2.2
		c0.4,1.5,0.7,2.9,0.9,4.4c0.5,3.9,0.9,7.9,1.2,11.8c0.1,0.9-0.5,1.7-1.3,1.8c0,0,0,0,0,0c-0.8,0.2-1.6-0.3-1.8-1.1c0,0,0-0.1,0-0.1
		c-0.3-1.3-0.6-2.7-0.8-4c-0.3-2.3-0.5-4.6-0.8-6.9C174.7,257.2,174.3,256.4,173.8,255.6z"/>
	<path d="M97.4,258.6c-0.9,2.9,0.5,4.9,2.3,6.7c1.8,1.8,4.2,2.4,6.7,2.9c2.2,0.6,4.5,0.4,6.6-0.5c-0.2-0.9-0.4-1.6-0.7-2.4
		c-0.5-1.6-0.5-3.3,0.2-4.8c0.6-1.7,1.3-3.3,1.9-5c0.7-2.1,2-3.9,3.7-5.3c1.1-0.9,2-1.9,3-2.8c1.6-1.5,3.8-2.3,6-2.3
		c1.5-0.2,2.8,0.8,3,2.3c0,0.1,0,0.3,0,0.4c0.1,1.8,0,3.6,0.1,5.3c0.2,3,0.7,6,1.3,8.9c0.9,4.1,3.5,7.6,7.1,9.6
		c0.4,0.3,0.8,0.6,1.2,0.9c0,1-0.7,1-1.2,1c-4.9,0.3-7.9-2.5-10.1-6.5c-0.8-1.5-1.5-3.1-2.4-5c-0.9,1-1.6,1.6-2.2,2.3
		c-1.6,2.1-3.9,3.5-6.5,3.9c-2.7,0.4-5.3,1.3-8,1.7c-2.7,0.3-5.5,0.4-8.2,0.2c-6-0.4-9.5-6-9.6-10.6c-0.1-5.9,1.9-11.7,5.8-16.2
		c0.5-0.5,1-1,1.5-1.4c1.9-1.6,3.8-1.4,5.3,0.5c0.8,1.1,1.7,2.2,2.6,3.2c1.5,1.6,1.8,4.1,0.7,6c-1,2.1-2.7,3.8-4.9,4.8
		C101,257,99.3,257.8,97.4,258.6z M118.1,264.5c3.5-2.6,4.6-3.9,6-7.5c0.6-1.6,1.7-3.1,0.8-5.2c-3.1,1-4.7,3.4-5.8,6
		C118.3,259.7,116.6,261.7,118.1,264.5z M101.5,246.9c-0.6,0.6-1.1,1.3-1.7,2c-0.6,0.9-1.5,1.7-0.8,2.9c0.4,0.7,1.8,0,2.8-1.6
		C102.5,249.2,102.9,248.2,101.5,246.9z"/>
	<path d="M377.4,99.8c1.2-2.6,0.9-5.5,1.3-8.1c0.4-2.6,1.3-5.1,2.7-7.4c1.4-0.5,1.5,0.7,2.2,1c0.6,0.3,1.3,0.5,2,0.6
		c1.7,4.3,1.8,8.8,1.7,13.3c0,5.9-1.4,11.7-4,17c-0.6,1.4-0.9,2.8-1,4.3c-0.1,2.2,0,4.4,0,6.6c0,1.1,0,2.2-0.2,3.3
		c-0.1,0.9-0.8,1.5-1.7,1.5c-0.8,0.2-1.7-0.2-2.1-1c-0.4-1-0.7-2-1-3.1c-0.3-1-0.5-2.1-0.7-3c-1.5-0.6-2.4,0.3-3.2,0.9
		c-2.5,1.6-5.4,2.6-8.5,2.8c-0.8,0.1-1.6,0.1-2.5,0c-2.6-0.1-4.6-2.3-4.6-4.9c-0.3-4.2,1.2-7.8,3.5-11.1c1.1-1.6,2.3-3,3.4-4.6
		c2-2.9,4.7-4.9,7.4-7C373.8,99.7,375.7,100.2,377.4,99.8z M363.6,123.6c0.9,0.8,2.1,1,3.2,0.5c3.5-1.1,6.6-3.2,9-6.1
		c0.5-0.6,0.9-1.4,1-2.2c0.2-3.1,0.4-6.2,0.4-9.4c0.1-0.8-0.5-1.5-1.3-1.5c-0.4,0-0.7,0.1-1,0.3c-1.4,1.1-2.7,2.3-3.9,3.6
		c-1.2,1.3-2.2,2.8-3.4,4.1c-2,2.2-2.9,4.9-4,7.6C363.3,121.5,363.6,122.7,363.6,123.6z"/>
	<path d="M187.8,168.6c0.8,0.3,1.7,0.5,2.5,0.7c1.5,0.2,2.8,1.3,3.3,2.7c0.3,1.1,0.8,2.1,1.4,3c2.1,2.4,2,5,1.2,7.7
		c-1.2,4.2-2.1,8.5-2.7,12.8c-1.1,7.3-1.9,14.6-2.8,21.9c-0.3,2.7-0.6,5.4-0.9,8.2c0,0.5-0.2,1.1-0.3,1.6c-1,2.5-2.6,3.2-5.2,2.3
		c-4.9-1.7-8-5.1-8.8-10.4c0-0.6,0-1.2,0.2-1.8c1.5-0.3,1.9,0.7,2.5,1.4c1.5,1.6,2.9,3.3,4.4,4.9c0.6,0.4,1.4,0.8,2.1,1
		c0.4-0.5,0.8-0.8,0.8-1.1c1.3-11.4,2.7-22.8,4-34.2c0-0.2-0.3-0.4-0.6-0.9c-0.7,0.2-1.4,0.6-2,0.9c-2.9,2-6.1,3.6-9.4,4.9
		c-1.9,0.8-3.6-0.1-3.8-2.2c0-1.2,0.1-2.4,0.4-3.6c0.3-0.8,0.6-1.5,1-2.3C177.3,179,181.7,173.5,187.8,168.6z M179.9,188.8
		c0.5,0,1-0.1,1.4-0.3c2.9-1.5,5.6-3.4,7.9-5.8c0.9-0.9,1.8-1.8,1.6-3.2c-0.2-1.9-0.2-3.8-2.1-5.3c-4.4,3.2-6.5,8-8.9,12.6
		C179.6,187.3,179.8,188,179.9,188.8L179.9,188.8z"/>
	<path d="M167,127.7c-0.4-0.7-0.8-1.5-1-2.2c-0.1-1.2-0.1-2.5,0-3.7c0-5.4-0.4-10.7-2.4-15.7c-0.3-0.8-0.7-1.5-1.1-2.2
		c-0.2-0.3-0.6-0.5-1.1-0.8c-2.7,2.7-4.3,5.6-3.3,9.6c0.4,1.6,0.8,3.2,1,4.8c0.3,1.6,0.4,3.3,0.4,4.9c-0.1,1-0.4,1.9-0.9,2.7
		c-0.7,1.3-2,2-3.4,1.9c-1.3-0.2-2.2-1.3-2.3-2.6c-0.5-2.8-0.8-5.7-1.1-8.5c-0.1-0.5,0-1.1,0.1-1.6c0.8-3.9-1.3-6.5-4-8.8
		c-0.2-0.2-0.4-0.3-0.7-0.5c-1-0.7-2.4-0.4-3.1,0.6c-0.2,0.3-0.3,0.6-0.4,1c-0.1,1-0.1,1.9-0.1,2.9c0.2,3.7,0.6,7.4,0.8,11.1
		c0.1,1.2,0.1,2.5,0.2,3.7c0,1-0.5,1.9-1.4,2.3c-0.6,0.6-1.6,0.6-2.2,0c-0.1-0.1-0.2-0.2-0.2-0.3c-0.6-0.9-1-1.9-1.2-3
		c-0.4-3.1-0.7-6.3-1-9.4c-0.3-4-0.6-7.9-0.9-11.9c-0.1-0.8,0-1.6,0.1-2.4c0.2-1.1,1.3-1.8,2.4-1.6c0.3,0.1,0.6,0.2,0.8,0.4
		c0.9,0.8,2.2,1.2,3.4,0.9c0.8-0.1,1.6-0.1,2.4,0c1.4-0.1,2.8,0.4,3.6,1.5c1.1,1.2,2.3,2.3,3.6,3.2c1.7-0.9,2.4-2.5,3.2-3.8
		c1.1-2,3.4-3,5.6-2.3c1.1,0.2,2,0.8,2.7,1.6c2.1,2.7,3.5,5.9,3.9,9.4c0.6,4.6,0.6,9.3,0.8,13.9c0.2,1.7-0.5,3.3-1.8,4.4
		C168.1,127.2,167.6,127.5,167,127.7z"/>
	<path d="M208.9,248.8c1.2-0.4,2.2-0.7,3.2-1.1c3.8-1.4,6.5-0.6,8.7,2.9c0.6,0.9,1.1,1.8,1.8,2.9l4.5-4.6c1.5-1.5,3.3-2.5,5.3-3
		c1.6-0.6,3.3,0.1,4.1,1.6c-0.5,0.5-1,0.9-1.5,1.2c-0.8,0.4-1.8,0.7-2.6,1.1c-2.6,1.1-4.5,3.3-5.3,5.9c-1,2.8-1.5,5.8-1.5,8.9
		c0.1,1.2,0,2.5-0.2,3.7c-0.2,1.4-1.4,2.5-2.8,2.5c-1.4-0.1-2.6-1.2-2.6-2.6c-0.1-3.9-1.4-7.5-2.1-11.3c-0.2-2-1-3.8-2.4-5.2
		c-1.9,0.9-3.8,1.6-5.6,2.5c-0.5,0.3-0.9,0.6-1.3,0.9c-0.7,5-0.2,10.2,1.5,15c0.6,1.5,0.4,2.3-0.6,2.8c-1.8,0.9-3.7,0.6-4.3-0.9
		c-1.1-2.1-1.8-4.3-2.1-6.6c-0.2-2.9-0.6-5.7-0.9-8.8c-0.9-0.1-1.7-0.1-2.4-0.2c-0.6-0.1-1-0.7-1-1.3c0-0.2,0.1-0.4,0.3-0.6
		c0.1-0.1,0.1-0.3,0.3-0.3c2.8-1.4,2.9-4,2.8-6.7c-0.1-2.9,0-5.8-0.1-8.6c-0.2-1.9,0.5-3.9,2-5.1c1.3-1.1,2.7-0.8,3.2,0.8
		c0.3,1,0.5,2.1,0.6,3.2c0.1,2.3,0.2,4.6,0.2,7C208,246,207.8,247.3,208.9,248.8z"/>
	<path d="M401.8,106.6c1.4,0,2.3,1,3.8,0.5c3.4-1.2,6.5-0.7,8.5,2.7c0.2,0.3,0.5,0.7,0.9,1.1c0.7-0.4,1.2-0.8,1.8-1.1
		c2-1.3,4.7-1,6.3,0.8c2.4,2.6,4.1,5.9,4.7,9.4c0.6,3.8,1.6,7.5,2.4,11.2c0.1,0.3,0.2,0.5,0.3,0.8c0.4,0.9,0.1,2-0.7,2.6
		c-1.1,0.7-3.1,0.3-3.6-0.8c-0.7-1.6-1.2-3.3-1.6-5.1c-0.8-3-1.5-6.1-2.4-9.1c-0.4-1.6-1-3.1-2.9-4c-1.3,1.1-1.4,2.6-1.4,4
		c-0.1,3,0,6,0,9c0,1,0.1,1.9,0.1,2.9c0,0.7,0,1.3-0.2,2c-0.1,1.3-1,2.3-2.3,2.6c-0.9,0.2-2.1-0.8-2.3-2.4c-0.3-1.9-0.3-3.8-0.4-5.7
		c-0.2-3.1-0.5-6.3-0.8-9.4c-0.2-2.3-1.6-4.1-2.8-5.8c-0.6-0.8-1.7-0.9-2.5-0.3c0,0,0,0-0.1,0c-1.3,0.9-2,2.3-2.1,3.8
		c-0.1,2.9-0.3,5.7-0.5,8.6c-0.1,1.6-0.1,3.3-0.2,4.9c-0.1,1.1-0.9,2.1-2,2.3c-1.3,0-2.4-0.8-2.8-2c-0.2-0.8-0.3-1.6-0.2-2.4
		c0.1-4.1,0.2-8.2,0.3-12.3c0-1.2,0.2-2.5,0.1-3.7C398.9,109.7,399.9,107.7,401.8,106.6z"/>
	<path d="M674.5,175.2c-2.1-1.1-2.4-2.9-3.2-4.3c-0.8-1.4-1.5-2.6-2.3-3.8c-0.2-0.3-0.7-0.4-1.2-0.6c-2,2.5-2.2,5.6-3,8.4
		c-1.5,5.6-2,12.1-1.5,15.2c2.1,0.4,4.3,0.3,6.3-0.2c1.2-0.4,2.5-0.1,3.5,0.7c0.8,0.7,0.9,1.9,0,2.4c-1.4,0.6-2.8,1.2-4.2,1.5
		c-1.8,0.5-3.7,0.7-5.7,1.1c-0.2,0.7-0.4,1.4-0.5,2.1c0,3.8,0.6,7.7,1.8,11.3c0.3,1.1,1.3,2,2,2.9c-3.1,1.9-4.6,1.6-6.1-0.9
		c-2-3.2-2.6-6.9-3-10.6c-1.1-9.1-0.6-18.3,1.3-27.3c0.9-4.6,2.8-8.9,5.5-12.7c0.8-1.5,2.7-2,4.2-1.2c0,0,0.1,0,0.1,0.1
		c0.5,0.2,0.9,0.6,1.2,1c1.6,2.6,3.2,5.1,4.6,7.8C675.4,170.4,675.4,172.9,674.5,175.2z"/>
	<path d="M522.9,135c-3.3,2.1-5,2-7.3-0.5c-0.6-0.7-1.2-1.4-2-2.3c-1.6,0.5-3.1,1.1-4.7,1.5c-1.7,0.4-3.5,0.7-5.2,0.9
		c-2.5,0.2-4.2-1.2-5.3-3.2c-1.3-2.3-1.8-5-1.3-7.6c1-5.7,3.5-11,7.3-15.4c1.1-1.2,2.3-2.3,3.7-3.2c2.6-1.8,6.1-1.4,8.2,0.9
		c1,1,1.8,2,2.6,3.1c1.8,2.8,3.1,5.7,2.1,9.2c-0.5,2.1-1.1,4.2-1.9,6.3c-0.5,1.3-0.8,2.6-0.8,4c-0.3,1.7,0.7,3.4,2.3,3.9
		C521.7,132.9,522.6,133.8,522.9,135z M511.9,121.5c0.3-0.6,0.9-1.4,1.3-2.2c1.2-2,1.8-4.3,1.8-6.6c0-1.6-0.9-3-2.3-3.6
		c-1.5-0.6-2.6,0.3-3.6,1.3c-0.4,0.4-0.7,0.8-1,1.2c-1.4,2-2.7,4.1-3.9,6.3c-1.2,2.6-2.4,5.2-2.3,8.2c0,4.2,1.5,5.5,6,4.2
		c0.5-0.2,1-0.4,1.5-0.7c1.5-0.7,2.7-1.9,3.4-3.4c0.6-1.4-0.3-2.6-0.8-3.8C511.8,122,511.8,121.8,511.9,121.5L511.9,121.5z"/>
	<path d="M255.2,269.6c-0.2,0.6-0.4,1.2-0.5,1.8c-0.5,3.6-0.6,7.3-0.2,11c0.1,0.9,0.2,1.9,0.1,2.9c-0.1,1.1-1,2-2.1,2.1
		c-0.9,0.1-1.6-0.4-2-1.8c-0.4-1.7-0.8-3.4-1-5.2c-0.8-5.6,0-11.2,0.4-16.8c0.2-3,0.4-6,0.6-9c0-0.8,0.1-1.6,0.4-2.4
		c1.3-2.5,2.7-5,4.3-7.4c0.7-1.3,2.3-1.7,3.6-1.1c0.6,0.3,1.3,0.5,2,0.5c2.3-0.1,3.8,1.2,5.3,2.6c1.8,1.3,2.9,3.3,3.3,5.4
		c0.3,1.4,0.6,2.7,1.1,4c0.6,2.4,0,4.9-1.6,6.8c-2.9,4.1-7.6,6.4-12.6,6.1C255.9,269.2,255.6,269.3,255.2,269.6z M255.9,260.6
		L255.9,260.6c-0.1,0.6-0.1,1.1-0.1,1.6c0.2,2.1,1.4,3,3.3,2.5c2.1-0.6,4-1.9,5.2-3.8c1.9-3,1.2-6.8-1.7-9.7c-1.1-1.1-2.5-1.7-4-1.7
		c-1-0.1-1.9,0.6-2,1.5c0,0,0,0.1,0,0.1C256.3,254.4,256.2,257.5,255.9,260.6z"/>
	<path d="M325,124c-2,0.7-3.5,1.4-5,1.8c-1.6,0.4-3.2,0.7-4.8,0.7c-4,0.2-7.5-2.8-7.7-6.9c-0.1-1.4-0.1-2.7,0.2-4.1
		c1.4-6.9,5.3-13,11-17.1c2.6-2,6.3-1.7,8.5,0.8c2.1,2.1,3.4,5,3.7,8c0.3,3.1-0.1,6.3-1.1,9.3c-0.7,1.9-0.8,4-0.2,6
		c0.4,1.3,0.7,2.7,0.9,4c0.1,1-0.5,1.9-1.5,2.1c-1,0.3-1.7-0.1-2.3-1.2S325.6,125.3,325,124z M312.7,117.4c0,0.6,0,1,0.1,1.4
		c0.3,2.5,1.6,3.6,4.1,3.5c2.8-0.1,6.5-3.3,7-6.1s0.9-5.7,1.1-8.5c0.1-1.2-0.2-2.4-0.6-3.6c-0.7-1.8-2.1-2.1-3.5-0.8
		c-3.8,3.2-6.5,7.5-7.9,12.2C312.8,116.1,312.8,116.8,312.7,117.4L312.7,117.4z"/>
	<path d="M533.7,186.3c1.3-1.1,2.4-1.8,3.2-2.6c1.3-1.4,3.2-2.2,5.1-2.2c2.5,0,5,0,7.1,1.5c0.7,0.5,1.3,1,1.7,1.7
		c0.8,1.3,1.4,2.7,1.9,4.1c1,2.3,0.6,5-1,7c-1.4,1.7-2.5,3.6-3.9,5.2c-1.1,1.4-2.9,2.2-4.7,2.1c-0.6,0-1.2,0.2-1.8,0.4
		c-1.1,1.1-0.8,2.4-0.8,3.6c-0.1,3.4,0,6.8-0.2,10.3c-0.1,1.8-0.3,3.5-0.7,5.3c-0.3,1.9-1.2,2.7-2.5,2.6c-1.3-0.1-2.4-1.2-2.4-3.2
		c0-1,0-1.9,0.1-2.9c0.9-8.2,0.3-16.4-0.5-24.6C534,191.8,533.9,189.1,533.7,186.3z M539.6,188.4c0,3.7,0.4,7.4,1.2,11
		c0.7-0.1,1.5-0.3,2.1-0.6c1.2-0.9,2.2-1.9,3.4-2.9c1.7-1.4,1.7-3.3,1.4-5.3c-0.3-1.8-1.9-3.2-3.7-3.3
		C542.4,187.1,540.9,187.5,539.6,188.4z"/>
	<path d="M471.9,129.4c-0.4,1.4-0.8,2.7-1,4c-0.7,4.5-1.3,8.9-1.9,13.4c-0.1,1-0.3,1.9-0.5,2.8c-0.2,1-1.1,1.7-2.1,1.7
		c-1.1-0.1-2.1-0.9-2.4-2c-0.1-0.9-0.2-1.9-0.1-2.9c0.5-5,1-10.1,1.5-15.1c0.5-5,1.1-10.1,1.4-15.1c0.2-2.7,0.6-5.1,3.1-6.8
		c0.3-0.2,0.6-0.5,0.9-0.9c1.6-2.5,4-2.2,6.3-1.4c4.7,1.6,8.3,8.2,6.2,13.6c-1.7,4.4-4.7,8-10.2,8.2
		C472.7,129,472.2,129.2,471.9,129.4z M472.6,124.5c2,0.3,3.1-1.2,4.4-2.3c2.9-2.5,2.1-6.7-1-9.2c-0.7-0.7-1.8-0.7-2.6-0.1
		C472,119.3,471.9,121,472.6,124.5z"/>
	<path d="M439.6,144.6c0.4-3.1,0.9-6.2,1.3-9.3c0.2-1.4,0.5-2.7,0.5-4.1c0.1-1.9-0.1-2.3-2.1-2.9c-2.7-0.7-4.8-2.9-5.4-5.6
		c-0.8-3.3-2.1-6.6-1.2-10.1c0.1-0.4,0.1-0.8,0.2-1.2c0.4-0.9,1.3-1.5,2.3-1.5c1,0,1.9,0.7,2.1,1.7c0.1,0.7,0.2,1.3,0.3,2
		c0.2,2,0.5,4.1,0.7,6.1c0.1,1.4,0.7,2.7,1.7,3.6c0.6,0.7,1.7,0.8,2.4,0.2c0.2-0.1,0.3-0.3,0.4-0.5c0.5-1.1,0.9-2.3,1.2-3.5
		c0.6-2.4,1.3-4.8,1.7-7.2c0.4-1.9,1.4-3.6,2.8-4.9c0.7-0.7,1.8-0.8,2.6-0.1c0.1,0.1,0.2,0.2,0.3,0.4c0.5,0.7,0.8,1.4,0.9,2.2
		c0.2,3.4,0.2,6.8-1.2,10.1c-0.8,1.7-1.5,3.5-2.2,5.3c-2.5,6.6-3.1,13.6-4,20.5c-0.1,1-0.1,1.9-0.2,2.9c-0.2,1.1-0.8,2.1-1.8,2.6
		c-0.6,0.4-1.4,0.4-1.9-0.1c-0.8-0.6-1.2-1.5-1.2-2.5c0-1.4,0-2.7,0-4.1L439.6,144.6z"/>
	<path d="M98.8,116.2c0.1-4.8,1.2-9.6,3.3-13.9c1.3-2.9,3-5.5,5.1-7.9c2.1-2.3,3-2.4,5.5-0.4c0.3,0.2,0.6,0.7,0.9,0.8
		c2.6,0.1,3.4,2.2,4.3,3.9c2.2,4,3.2,8.5,2.9,13c-0.5,5.7-3.1,10.7-10.4,13.3c-0.4,0.1-0.8,0.3-1.2,0.4c-3.7,2.2-8.7-1-9.8-5.2
		C99.1,118.8,98.9,117.5,98.8,116.2z M110.5,97.6c-0.5,0.5-1,1-1.5,1.5c-2.7,4.1-4.5,8.8-5.2,13.7c-0.2,1.8-0.1,3.6,0.1,5.3
		c0.2,1.4,1.2,2.6,2.5,3c0.6,0.3,1.3,0.3,1.9,0c3.6-2.5,6.6-5.5,6.6-10.2c0.1-4.3-1.1-8.5-3.3-12.1C111.4,98.3,111,97.8,110.5,97.6
		L110.5,97.6z"/>
	<path d="M541.1,111.7l2.4,1.9c0.1,0.3,0.1,0.7,0.2,1c-1,7.3-2.9,14.5-4.5,21.7c-1.1,4.9-1.8,9.9-2,15c0,1.1-0.2,2.2-0.7,3.1
		c-0.4,1-1.5,1.5-2.5,1.1c-0.5-0.2-0.9-0.6-1.1-1.1c-0.6-1.1-0.9-2.3-0.9-3.5c0-2.9,0.3-5.7,0.6-8.6c0.1-1.8,0.3-3.5,0.5-5.1
		c-1.3-0.9-2.7-1.5-3.4-2.5c-1.1-1.5-1.9-3.3-2.3-5.2c-0.8-4.6-1-9.3-0.6-13.9c0.1-1.1,0.7-2.1,1.5-2.8c0.8-0.8,2.1-0.7,2.8,0.1
		c0.2,0.2,0.4,0.5,0.5,0.8c0.3,1.6,0.4,3.2,0.4,4.9c0.1,2.9,0,5.7,0.2,8.6c-0.1,1.4,0.5,2.7,1.5,3.6c1.1-0.1,1.3-1,1.5-1.7
		c0.8-3.6,1.5-7.2,2.5-10.8c0.5-1.7,1.2-3.3,2-4.9C539.7,112.7,540.3,112.4,541.1,111.7z"/>
	<path d="M288.4,202.3c-2.1-1-2.6-2.8-2.9-4.6c-0.5-3.1-1.1-6.2-1.5-9.3c-1.1-8.1-1.6-16.3-1.5-24.6c0.1-1.1,0.3-2.2,0.6-3.2
		c0.3-0.9,1.3-1.5,2.3-1.4c0.8,0.1,1.5,0.8,1.6,1.6c0.3,1.3,0.6,2.6,0.7,4c0.4,6.7,0.7,13.4,1,20.1c-0.1,1.3,0.3,2.6,1.1,3.6
		c0.7-1.8,1.3-3.2,1.9-4.8c0.5-1.3,1.6-2.3,3-2.6c1.5-0.5,3-0.5,4,1c0.4,0.4,0.8,0.8,1.3,1.2c0.6,4.9,1.2,9.8,1.7,14.7
		c0.2,0.7,0.2,1.3,0,2c-0.4,0.7-0.9,1.3-1.7,1.6c-0.7,0-1.3-0.3-1.7-0.8c-1.2-1.4-1.6-3.2-1.2-5c0.4-2.6,0.2-5.2-0.5-7.7
		c-0.2-0.9-0.3-1.9-1.4-2.3c-0.7-0.2-1.4,0.7-1.8,2.4c-0.8,3.7-1.6,7.5-2.4,11.2C290.9,201.1,289.9,201.8,288.4,202.3z"/>
	<path d="M508.3,204.6l2.8,0.7c-2.2,3.2-2.3,3.3-6.2,2.3l-2.9-5.4c-0.9,0.4-1.7,0.9-2.5,1.4c-2.3,1.8-4.9,2.3-7.7,2.6
		c-2.2,0.4-4.3-1-4.8-3.2c0-0.2-0.1-0.4-0.1-0.6c-0.1-1.1,0-2.2,0.3-3.2c1.7-4.8,4.1-9.2,8.6-12.1c1.4-0.9,2.7-1.9,4-2.9
		c2.9-2.1,6.9-1.4,9,1.4c0.4,0.6,0.7,1.2,1,1.9c1,3.6,1.4,7-1.4,10c-0.8,0.9-1.2,2.2-0.9,3.4C507.7,202.2,508,203.3,508.3,204.6z
		 M503.8,189.2c-0.7,0-1.3-0.2-1.6,0c-2.6,1.9-5.3,3.8-7.3,6.4c-1.2,1.6-2.1,3.5-2.5,5.5c-0.2,0.8,0.8,1.7,1.5,1.3
		c1.3-0.7,2.6-1.5,3.8-2.4C501.1,197.4,503.4,193.5,503.8,189.2z"/>
	<path d="M625.6,152.3c1-0.7,1.8-1.5,2.8-2.2c6.3-4.2,10.3-10.2,13-17.1c2.7-6.7,2.9-14.1,0.4-20.9c-1.5-4.2-3.6-8-8-10
		c-1.1-0.5-1.6-1.7-1.2-2.8c0.4-1.2,1.5-2,2.7-2.1c0.5,0,1.1,0.2,1.5,0.5c4.7,2.6,8.4,6.8,10.2,11.9c2.5,6.8,2.6,14.1,0.4,21
		c-1.8,6.4-5.2,12.2-9.8,16.8c-1.3,1.3-2.6,2.5-4,3.6c-2.3,1.6-5.1,2.4-7.9,2.2C625.8,152.9,625.7,152.6,625.6,152.3z"/>
	<path d="M329,198.1c-1.5,0.9-2.4,1.4-3.3,2c-1.6,1-3.5,1.6-5.4,1.8c-2.4,0.5-4.8-0.9-5.5-3.2c-0.7-1.7-0.8-3.5-0.4-5.2
		c0.7-2.6,1.6-5.2,2.5-7.8c0.2-0.5,0.7-0.9,0.8-1.4c1.1-3.8,4.3-5.5,7.2-7.5c0.9-0.7,2.1-0.7,3.1-0.1c0.5,0.3,1,0.6,1.4,0.8
		c4.1,2.4,4.6,3.1,4.5,7.8c-0.1,3.1-0.5,6.3,0,9.4c0.4,2.4,0.4,5,2.8,6.6c0.3,0.2,0.4,0.7,0.4,1.1c0,1.4-1,2.1-2.2,2.7
		c-0.9,0.5-2,0.3-2.6-0.4c-0.7-0.8-1.3-1.8-1.7-2.7C330,200.8,329.6,199.6,329,198.1z M326.8,181.4c-0.6,0.3-1.1,0.7-1.6,1.1
		c-3,3.4-5.1,7.5-5.8,12c-0.1,0.8-0.1,1.6,0.2,2.4c0.3,0.6,0.8,1.1,1.4,1.3c2.1,0.4,6.1-3.1,6.1-5.2c0-0.1,0-0.3-0.1-0.4
		c-1-1.5-0.2-2.9,0.4-4.2C328.5,186.1,328.3,183.5,326.8,181.4z"/>
	<path d="M573.1,200.1c-1.3,0.9-2.5,1.6-3.6,2.3c-3.2,1.9-6.8,3-10.5,3c-1.9,0.1-3.5-1.2-3.8-3.1c-0.2-1.3-0.1-2.7,0.2-4
		c0.9-2.9,2.3-5.6,4.3-7.8c2.7-2.9,6-5.2,9.5-7c3.1-1.8,7-1.1,9.4,1.5c1.3,1.3,1.6,3.3,0.8,5c-0.9,2.2-1.2,4.5-1,6.8
		c0.1,1.6,0.4,3.2,0.7,4.8c0.4,1.7,1,3.4,1.5,5.1c0.3,0.8-0.1,1.7-0.9,2c-0.8,0.6-1.9,0.4-2.5-0.5c0,0,0,0,0-0.1
		c-0.9-1.5-1.7-3.1-2.5-4.6C574.1,202.5,573.7,201.4,573.1,200.1z M560.3,200.9c2.5,1,2.5,1,4.1,0.5c5.8-1.8,9-6.2,9.6-13.1
		c-2.2-0.4-2.2-0.5-3.3,0.3c-2.2,1.6-4.4,3.3-6.5,5C562,195.5,560.6,198.1,560.3,200.9L560.3,200.9z"/>
	<path d="M614.8,190.5c1.1-0.2,2.2-0.4,3.4-0.4c0.7,0,1.3,0.3,1.8,0.8c0.5,0.7,0.5,1.7-0.1,2.3c-1,1.3-2.4,2.3-4,2.7
		c-2.4,0.4-3,1.9-3,4.1c0.1,3.7-0.7,7.4,0.2,11.1c0.3,1.5-0.5,2.3-1.6,3c-0.7,0.5-1.6,0.3-2-0.4c0,0-0.1-0.1-0.1-0.2
		c-0.7-1.5-1.1-3.1-1.4-4.7c-0.3-5.2-0.5-10.4-0.3-15.6s1-10.4,1.4-15.6c0.2-3,0.4-6,0.5-9c-0.1-1.5,0.4-3,1.3-4.2
		c0.7-0.9,1.9-1.2,3-0.9c0.9,0.3,1.6,1.2,1.5,2.2c0.2,1.8,0.3,3.5,0.2,5.3c-0.4,5.2-0.9,10.4-1.3,15.6
		C614.1,187.8,613.8,189.1,614.8,190.5z"/>
	<path d="M182.4,119.3c1.3-2.1,2.1-4.4,2.4-6.9c0.2-2.2,0.1-4.4,0.1-6.6c0-1.9-0.1-3.8,0-5.8c-0.1-1.2,0.5-2.3,1.5-3l3.6,2.5
		c0.6,2.6,0.8,5.3,0.5,7.9c-0.4,5.1,0.9,9.8,2.9,14.4c0.3,0.6,0.5,1.3,0.8,1.9c0,0.2,0,0.4,0,0.6c-0.3,0.4-0.6,0.7-1,1
		c-0.7,0.7-1.8,0.7-2.5,0c0,0-0.1-0.1-0.1-0.1c-1.2-1.3-2.3-2.6-3.6-4.1c-0.8,0.7-1.5,1.3-2.2,1.9c-0.7,0.7-1.4,1.3-2.2,1.7
		c-1.4,0.8-3.1,0.5-4.1-0.8c-1.1-1.1-1.9-2.4-2.2-4c-0.5-3.4-1.1-6.8-1.6-10.1c-0.3-1.9-0.3-3.8-0.5-5.7c-0.2-1.9,0.1-3.9,1-5.6
		c0.3-0.8,1.2-1.3,2-1c0.6,0.2,1.1,0.7,1.4,1.3c0.3,1.2,0.4,2.4,0.5,3.7c0.2,4.9,0.8,9.8,1.9,14.7C181,118.1,181,118.1,182.4,119.3z
		"/>
	<path d="M251.7,196.2c-1.7,1.2-3.2,2.3-4.9,3.3c-0.9,0.6-1.9,1-2.9,1.3c-1.4,0.4-2.8-0.1-3.7-1.2c-0.6-0.7-1.2-1.5-1.6-2.4
		c-3.3-6.4-3-12.9-1-19.6c0.4-0.9,0.9-1.7,1.6-2.4c0.6-0.9,1.8-1.3,2.9-0.9c1.2,0.5,1.7,1.9,1.3,3.1c-0.3,1-0.7,2.1-1.1,3.1
		c-1.5,4.4-1.4,9.3,0.2,13.7c0.2,1.1,1,2,2.1,2.4c3.2-1.9,5.3-5.2,5.7-8.9c0.2-1.8,0.2-3.6,0-5.3c-0.2-2.7,0.7-5,1.9-7.7l3.5,1.6
		c0,2,0,3.9,0,5.8c-0.2,3.7,0.1,7.4,0.7,11c0.6,2.7,1.5,4.9,3.8,6.6c0.4,0.3,0.7,0.7,1,1.1c-0.7,1-1.9,1.5-3.1,1.4
		c-1.3,0-2.4-0.6-3.3-1.5c-0.6-0.7-1.1-1.6-1.6-2.3S252.2,197,251.7,196.2z"/>
	<path d="M588.3,116.8c1.6-1.9,2.5-4.3,2.3-6.7c0-1.5,0.3-3,0.5-4.5c0.4-3.7,0.8-7.3,1.2-11c0.1-1.1,0.2-2.2,0.5-3.2
		c0.4-1.2,1.6-2,2.9-1.8c1,0.1,1.8,0.9,1.9,1.9c0.3,1.2,0.3,2.4,0.3,3.7c-0.3,4.4-0.8,8.7-1.2,13.1c-0.1,0.9-0.1,1.9-0.2,2.8
		c1.3,1,2.5,0.3,3.6,0.2s1.9,0.2,2.2,1.2c0.3,0.9-0.2,2-1.1,2.3c0,0-0.1,0-0.1,0c-1,0.4-2,0.8-3.1,1.1c-1.5,0.4-2.5,1.8-2.6,3.3
		c-0.7,5.2-0.9,10.4-0.8,15.6c0,1.2,0,2.5-0.1,3.7c-0.1,1.2-1.1,2-2.2,2c-1,0.1-1.9-0.6-2.2-1.5c-0.2-0.8-0.3-1.6-0.4-2.4
		c-0.5-4.8-0.5-9.6,0-14.3C590,120.2,589.5,118.3,588.3,116.8z"/>
	<path d="M97.7,88.4c-0.9,6-1.8,11.6-2.6,17.1c-0.6,4.8-0.6,9.6-0.2,14.3c0.1,1.7-0.8,2.7-2.4,2.4c-0.7-0.1-1.2-0.4-1.6-1
		c-0.5-1.4-0.8-2.9-1-4.3c-1-7.6,0-15,1.1-22.5c0.1-1.1,0.2-2.2,0.3-3.3c-0.1-0.5-0.2-1-0.3-1.5c-0.9-0.2-1.7-0.3-2.6-0.3
		c-1.8,0.1-3.5,0.4-5.3,0.4c-0.7,0-1.3-0.3-1.7-0.8c-0.4-0.7-0.2-1.6,0.5-2.1c0,0,0.1,0,0.1-0.1c1.1-0.8,2.3-1.5,3.5-2
		c1.6-0.5,3.1-0.9,4.8-1.2c3.7-0.8,7.5-1.6,11.2-2.5c0.9-0.4,1.9-0.1,2.6,0.5c0.8,0.6,1,1.7,0.5,2.6c-0.9,1.6-2,2.9-4,3.2
		C99.5,87.7,98.5,88,97.7,88.4z"/>
	<path d="M95,187.4c1.2-1,1.9-1.6,2.6-2.2c1.4-1.3,3-2.4,4.5-3.5c2.4-1.5,4.8-0.8,6.3,1.6c1.2,1.9,2.2,3.9,1.7,6.2
		c-0.7,3.1-2.6,5.8-5.4,7.4c-2,1-4.2,1.4-6.4,1.2c-0.5-0.1-1-0.3-1.4-0.7c-0.4-0.4-0.6-0.9-0.6-1.4c0.2-0.5,0.5-0.9,1-1.1
		c1.3-0.4,2.6-0.7,3.9-1c2.1-0.5,3-2.3,3.8-4c0.6-1.2-0.2-3.1-1.5-3.9c-0.7-0.5-1.7-0.3-2.2,0.4c-1.7,1.8-3.3,3.6-5,5.4
		c-0.4,0.4-0.7,0.9-1.1,1.2c-1.8,1.9-3.4,1.5-4.2-0.9c-1.9-5.4-1.8-11-1.5-16.6c0.2-3.3,0.5-6.6,0.9-9.8c0.2-1.2,0.5-2.4,1.1-3.5
		c0.4-0.7,1.3-1.1,2.1-0.8c0.9,0.1,1.5,0.8,1.5,1.7c-0.1,2.3-0.2,4.6-0.4,6.9c-0.6,4.9-1.1,9.8-0.3,14.7
		C94.5,185.3,94.7,186,95,187.4z"/>
	<path d="M353.3,127c-1.1-1.5-1.9-3.3-2.2-5.1c-0.8-3.2-1.7-6.3-2.6-9.5c-0.7-2.3-0.7-2.3-3-4.3c-1.4,1.1-2.3,2.7-2.4,4.5
		c-0.4,2.6-0.6,5.2-0.8,7.8c-0.1,1.2-0.1,2.5-0.4,3.7c-0.1,1-0.9,1.8-1.9,1.9c-1,0.2-2-0.3-2.4-1.2c-0.4-0.7-0.7-1.4-0.8-2.2
		c-0.2-1.5-0.2-3-0.3-4.5c-0.2-4.1-0.5-8.2-0.8-12.3c-0.2-1.3-0.1-2.7,0.4-4c1-2.1,2.9-1.9,3.8-0.5c0.4,0.7,0.9,1.3,1.4,2.1l2.6-1.5
		c0.3,0,0.6,0,0.8,0c4.7,0.3,6.8,3.6,8.1,7.6s2.2,8.2,3.2,12.3c0.1,0.8,0.2,1.6,0.1,2.4C356,125.6,355.1,126.5,353.3,127z"/>
	<path d="M388,179.4c0.4-0.2,0.8-0.4,1.1-0.6c2.6-1.5,4.1-1.4,6.3,0.3c2.7,2.1,4.6,5.1,5.3,8.5c0.4,2.3,0.7,4.6,0.8,6.9
		c0.2,1.9,0.2,3.8,0.2,5.7c0,0.7,0,1.3-0.1,2c-0.3,1.1-1.2,1.9-2.3,2c-0.8,0-1.5-0.8-1.7-2s-0.2-2.5-0.4-3.7c-0.5-3-0.9-5.9-1.5-8.9
		c-0.4-1.9-1.3-3.7-2.8-5c-1.5-1.5-2.9-1.2-3.9,0.6c-0.7,1.5-1,3.2-0.8,4.8c0.2,2.5,0.5,4.9,0.6,7.4c0.1,1,0.1,1.9,0.1,2.9
		c-0.1,0.7-0.3,1.3-0.6,1.9c-1,1.5-2.8,1.5-3.7,0c-0.7-1-1.1-2.2-1.3-3.4c-0.6-5.3-1-10.6-1.4-15.9c0-0.4-0.1-0.8-0.1-1.2
		c0-3.1,1.9-4.2,4.9-2.9L388,179.4z"/>
	<path d="M344.1,183.3c1.1-1,2-2,3.1-2.9c1.5-1.4,2.8-1.5,4.4-0.4c0.7,0.5,1.3,1,1.8,1.6c2.6,3,4.2,6.8,4.4,10.8
		c0.3,3.4,0.1,6.8-0.5,10.2c-0.4,1.8-1.2,2.6-2.2,2.4c-1.3-0.3-1.5-1.4-1.6-2.6c-0.2-2.2-0.4-4.4-0.5-6.5c-0.2-3-1-5.9-2.3-8.6
		c-0.3-0.7-1-1.1-1.5-1.6c-1.6,0.7-1.7,2-1.8,3.2c-0.4,3.9-1.1,7.8-0.5,11.8c0.4,1.3-0.4,2.6-1.6,2.9c-0.3,0.1-0.5,0.1-0.8,0.1
		c-1.1,0.1-2.2-0.6-2.6-1.7c-0.4-1-0.6-2.1-0.8-3.2c-0.4-2.3-0.6-4.6-0.9-6.9c-0.4-3-0.6-6-1.6-8.8c-0.1-0.4-0.2-0.8-0.2-1.2
		c-0.1-0.9,0.4-1.7,1.2-2c0.8-0.4,1.7-0.2,2.3,0.4C342.6,181.3,343.3,182.3,344.1,183.3z"/>
	<path d="M151.3,176.8l6.7-6.5c4.6,1.5,6.9,4.6,7.6,9c0.4,2.3,1.3,4.5,0.1,6.8c0.2,3,0,6.1,1,8.9c0.3,0.7,0,1.4-0.6,1.8
		c-1.1,0.8-2.3,0.5-2.6-0.7c-0.3-1.2-0.6-2.4-0.8-3.6c-0.6-3.8-1-7.6-1.7-11.4c-0.3-1.3-0.8-2.6-1.5-3.8c-0.5-0.9-1.6-1.2-2.4-0.7
		c-0.3,0.1-0.5,0.4-0.7,0.6c-1,1.4-1.9,3-2.6,4.6c-1.2,3.5-1.6,7.3-1,11c0.3,2.2-0.2,4.1-2.3,5.3c-1.6-0.1-2.8-1.4-2.9-3
		c-0.8-5.6-1.6-11.1-2.3-16.7c-0.1-0.7-0.1-1.4,0-2.1c0.1-1.3,1.2-2.3,2.5-2.2c0.6,0,1.1,0.3,1.5,0.7
		C150.2,175.5,150.8,176.1,151.3,176.8z"/>
	<path d="M261.4,116.3c-0.2,0.7-0.6,1.4-1,2c-4.7,4.3-10,7.1-16.5,7.4c-1.9,0.2-3.9-0.3-5.5-1.4c-2.3-1.7-4-3.8-3.8-6.9
		c0-2.3,0.4-4.6,1-6.9c2-5.5,4.9-10.4,9.7-13.9c2.4-2,6.1-1.7,8.1,0.7c0.7,0.8,1.1,1.8,1.3,2.9c0.1,0.9,0,1.9-0.4,2.8
		c-0.2,0.8-0.9,1.6-1.8,1.3c-0.6-0.3-1.1-0.7-1.4-1.3c-1.8-3.2-2.7-3.4-5-0.7c-2.9,3.3-5.2,7-5.9,11.5c-0.2,0.9-0.2,1.9-0.3,2.9
		c-0.2,1.7,0.9,3.3,2.6,3.7c0.9,0.3,1.8,0.5,2.8,0.5c3.4-0.3,6.8-0.6,9.8-2.5c1.3-0.8,2.7-1.4,4.1-1.9
		C260.1,116.3,260.8,116.2,261.4,116.3z"/>
	<path d="M299.2,126.9c-6.7,2.4-10.7,0.9-13.6-4.5c-1.2-2.2-1.8-4.6-1.8-7.1c0.1-5.3,1.4-10.6,3.9-15.3c2.1-4.1,5-7.8,8.4-11
		c1.9-1.7,3.9-1.7,5.8,0c0.8,0.7,1.5,1.6,2.1,2.5c0.5,0.8,0.3,1.9-0.5,2.4c-0.2,0.1-0.4,0.2-0.5,0.2c-0.8,0.2-1.6,0.3-2.4,0.2
		c-1-0.1-1.9,0.3-2.5,1c-5.3,5.3-8.5,11.6-8.7,19.3c0,2.2,0.4,4.4,1.3,6.4c0.7,1.8,2.2,3.2,4,3.9C296,125.4,297.3,126.2,299.2,126.9
		z"/>
	<path d="M644.5,181.7c2.3,1,3.6,2.2,3,4.6c-0.4,1.5,0.8,2.5,1.5,3.7c0.5,1,0.7,2.4,2.3,2.6c0.4,0.1,1,0.9,1.1,1.5
		c1.4,4.9-1.2,10.1-6,12c-1.8,0.7-3.6,1.2-5.5,1.6c-2.5,0.6-5.1-0.8-5.9-3.3c-0.5-1.4-0.7-2.9-0.7-4.4
		C634.8,192.4,638.4,186.5,644.5,181.7z M642.7,190.7c-0.8,1.2-1.5,2.4-2.1,3.7c-1.1,2.4-1.3,5-0.7,7.6c0.3,1,1.4,1.7,2.2,1.2
		c2.2-1.4,4.2-3.1,4.8-5.8c0.4-1.3,0.1-2.8-0.7-3.9C645.3,192.2,644.1,191.2,642.7,190.7z"/>
	<path d="M581.6,136.4c-1.9-0.3-3.7-0.7-5.6-1.3c-2.8-1-3.7-2.5-3.7-5.6c-0.1-0.8-0.2-1.6-0.6-2.3c-0.2-0.4-0.5-0.7-0.8-1
		c-3.3-4-3.2-8.4-0.7-12.6c2.7-4.5,6.4-8.2,11.6-10c1-0.3,2.1-0.5,3.2-0.4c2.4,0.1,3.8,1.5,4.3,3.7c0.2,0.6,0.1,1.3-0.3,1.9
		c-0.7,0.4-1.4,0.7-2.2,0.8c-0.1,0-0.3,0-0.4-0.1c-2.3-2.2-4.3-0.8-6.2,0.5c-2.5,1.7-4.6,4-6,6.6c-1.1,1.8-1,4.1,0.3,5.8
		c1,1.4,2.1,2.6,3.2,3.8c1.3,1.2,2.8,2.2,4.2,3.3c0.8,0.6,1.5,1.2,2.1,1.9c0.9,1.1,1,2.6,0.2,3.8
		C583.9,136.1,583.3,136.4,581.6,136.4z"/>
	<path d="M606.2,135.2c1.9-0.6,3.6,0.9,5.5,0c-0.4-1.4-1.3-2.5-2.5-3.2c-1.6-1.1-2.9-2.5-4-4.1c-1.8-2.3-2.3-5.2,0.1-8.7
		c1.8-2.6,4.2-4.8,6.8-6.5c2.1-1.6,4.5-2.7,7-3.3c1.5-0.4,3.1-0.1,4.2,0.9c0.4,0.4,0.6,0.9,0.5,1.4c-0.1,0.4-0.6,0.8-1,1.2
		c-0.2,0.2-0.5,0.2-0.8,0.2c-4.7,0.4-8,3.4-11.1,6.4c-2.5,2.4-2.4,4.7,0,7.1c1.5,1.4,3.1,2.7,4.6,4.1c1,0.9,2,1.9,2.9,2.9
		c1.1,1.5,1.2,3.4,0.2,5c-0.5,0.7-1.2,1.1-2,1.2c-2.2,0.1-4.4,0.1-6.5-0.1c-2.1-0.2-3.4-1.6-4.3-3.4
		C605.8,136.2,606.1,135.6,606.2,135.2z"/>
	<path d="M128.1,174.2l4.1,4.3c0.5,3.3-2.3,4.7-4.3,6.8s-4.9,2.2-7.3,3c-0.8,1-1.1,2.4-0.8,3.7c0.1,1.1,0.8,2.1,1.8,2.6
		c1.6,0.9,3.4,1.1,5.2,0.7c1.7-0.3,3.4-1,5.4-0.5c-0.3,0.5-0.4,0.9-0.7,1.1c-3.3,2.3-7.4,3.1-11.3,2.3c-3.4-0.6-5-2.4-5.2-5.8
		c-0.1-1.5,0-3,0.3-4.5c0.5-2.5,1.3-5,2.2-7.4c1.2-2.5,3-4.6,5.4-6C124.4,173.5,126.4,173.4,128.1,174.2z M126.5,177.4
		c-2.7,1.3-3.6,3.2-4.4,5.3c0,0.3,0.1,0.5,0.3,0.7c0.2,0.2,0.4,0.3,0.7,0.2c1.8-0.6,3.2-2.1,3.8-3.9
		C127.1,179.2,126.7,178.5,126.5,177.4L126.5,177.4z"/>
	<path d="M551.3,137.8c-2.5-0.6-3.6-2.3-3.5-4.7c0-4.4-0.1-8.8,0.2-13.1c0.5-6.5,1.4-13,2.1-19.6c0.1-1.5,0.9-2.9,2.2-3.7
		c1-0.7,2.3-0.4,3,0.5c0.2,0.3,0.3,0.6,0.4,1c0.1,0.8,0.1,1.6,0,2.4c-0.6,5.6-1.2,11.1-1.9,16.7c0,0.3-0.1,0.5-0.1,0.8
		c0.1,5.3-1.2,10.6-0.6,15.9C553.3,135.6,553.2,137.2,551.3,137.8z"/>
	<path d="M521.3,192.1v16c0,0.5,0,1.1-0.1,1.6c-0.1,1.1-1,2-2.1,2.1c-1.1,0-2.1-0.8-2.4-1.9c-0.3-1.2-0.5-2.4-0.5-3.6
		c-0.4-9-1-18-0.4-27c0-1.1,0-2.2-0.1-3.3c-0.1-1.4,0.3-2.7,1-3.9c0.3-0.8,1.1-1.3,1.9-1.3c1.1,0,2.1,0.7,2.5,1.8
		c0.2,0.6,0.3,1.3,0.3,2c0,3,0.1,6,0.1,9c0,2.9,0,5.7,0,8.6L521.3,192.1z"/>
	<path d="M494.5,135.2c-2.9,1.2-3.8,1-4.6-1.3c-0.6-1.8-1-3.7-1.2-5.6c-0.5-6.9-0.2-13.7,0.7-20.6c0.4-3.1,0.8-6.2,1.2-9.4
		c0-0.5,0.1-1.1,0.3-1.6c0.6-1.3,1.9-2.1,3.3-2c1.1,0.3,1.8,1.3,1.8,2.4c0.1,1.8,0,3.6-0.1,5.3c-0.5,5.2-1.2,10.3-1.8,15.5
		c-0.6,5.2-0.5,10.4,0.4,15.6C494.5,134.1,494.5,134.6,494.5,135.2z"/>
	<path d="M204.8,116.6c-0.9-0.7-1.5-1.2-2.2-1.7c-4.1-3-4.3-6.7-2.3-10.9c1.1-2.4,2.9-4.4,5-5.9c1.8-1.3,4.1-1.6,6.3-0.9
		c1.1,0.2,1.8,1.3,1.5,2.4c-0.1,0.3-0.2,0.6-0.4,0.8c-0.7,1-1.4,2-3,1.5c-0.7-0.1-1.3,0.1-1.9,0.5c-0.5,0.3-0.9,0.7-1.2,1.1
		c-3.3,3.5-2.9,6.1,1.4,8.5c1.2,0.7,2.4,1.3,3.6,1.9c1.5,0.8,2.7,1.9,3.5,3.4c1,1.4,0.7,3.3-0.6,4.5c-3,2.9-6.7,2.8-9.6-0.6
		c-0.4-0.7-0.6-1.5-0.5-2.3C204.5,118.1,204.6,117.4,204.8,116.6z"/>
	<path d="M278,181.5c-0.9-1.5-1.3-2.3-1.9-3.1c-0.4-0.8-1.4-1.1-2.2-0.7c-0.2,0.1-0.4,0.3-0.6,0.5c-1.7,1.9-3.6,3.9-4.2,6.4
		c-0.6,2.4-1,4.8-1.2,7.3c-0.1,1.1,0.1,2.2,0.5,3.2c0.4,1.7,2,2.8,3.7,2.7c1.8,0.1,3.5-0.4,5.1-1.3c1.5-0.8,2.8-2.1,4.6-2.4
		c0.1,0.5,0.2,0.8,0.1,1c-2.3,3-5.5,5-9.2,5.7c-1.2,0.2-2.4,0.3-3.7,0.3c-2.1,0.1-4.1-1.3-4.8-3.3c-0.6-1.6-1-3.4-1.1-5.1
		c-0.4-5.7,1.6-10.8,4.5-15.5c1.4-2.4,3.9-4,6.7-4.2c3.6-0.3,6.1,2.4,5.2,5.9C279.1,179.8,278.6,180.7,278,181.5z"/>
	<path d="M474,188.9c0.6-0.6,1.2-1.2,1.7-1.9c2.7-3.9,6.6-4.1,10.7-3.5c1.7,0.3,3.1,1.5,3.8,3c0.6,0.9,0.4,2.1-0.3,2.9
		c-0.5,0-0.9-0.2-1.3-0.4c-1.6-1.2-3.7-1.5-5.5-0.6c-4,1.7-6.5,4.2-6.3,8.6c0,1.1,0.1,2.2,0.1,3.3c0,0.7-0.1,1.4-0.3,2
		c-0.4,1.1-1.7,1.7-2.8,1.2c-0.2-0.1-0.4-0.2-0.6-0.3c-1.1-0.8-1.8-2.1-2-3.5c-0.6-4.8-2-9.4-4.1-13.7c-0.4-1-1.1-2.1,0-3
		c0.9-0.8,2.4-0.4,3.5,1.1S472.7,187,474,188.9z"/>
	<path d="M214,195.4c3-0.9,5.8,0.7,8.3-0.5c0.6-1.3-0.2-2.2-0.8-3c-0.9-1.2-1.9-2.3-2.7-3.6c-0.7-1-1-2.2-1.6-3.3
		c-2.6-4.5,2.5-11.4,7.6-11.5c2.5-0.1,4.9,1.3,6,3.6c0.3,0.7,0.1,1.5-0.6,1.9c-0.2,0.1-0.4,0.2-0.7,0.1c-0.9-0.1-1.9-0.4-2.8-0.5
		c-3.5-0.3-5.5,1.9-4.5,5.4c0.4,1.2,0.9,2.3,1.7,3.2c1.2,1.7,2.5,3.2,3.8,4.9c0.7,0.8,1.3,1.7,1.8,2.7c1.1,2.1,0,4.4-2.5,4.4
		c-3.3,0-6.6-0.2-9.8-0.6C215.9,198.4,215.9,198.2,214,195.4z"/>
	<path d="M598.8,182.8c0.8,0,1.7,0.1,2.5,0.3c0.5,0.2,0.8,0.6,0.9,1.1c-0.1,0.5-0.4,1-0.9,1.2c-0.7,0.3-1.6,0.3-2.4,0.5
		c-1.4,0.4-2.8,0.9-4.2,1.6c-2.1,1.1-3.6,3-4,5.4c-0.7,3.4-0.9,6.8-0.7,10.2c0.1,1.1,0.1,2.2,0,3.3c-0.1,1.1-1,2-2.1,2.2
		c-1,0.1-1.9-0.4-2.3-1.3c-0.4-0.7-0.7-1.5-0.9-2.3c-0.6-2.7-1.2-5.3-1.8-8c-0.4-1.7-0.4-3.3,1.5-4.2c1.5-0.7,1.9-2.3,2.5-3.6
		c1.2-2.3,3.2-4.2,5.5-5.2C594.4,182.9,596.4,182.9,598.8,182.8z"/>
	<path d="M377.1,203.4l-2.6,1.3c-1.9-0.6-2.2-2.1-2.4-3.6c-0.5-4.5-0.6-9-0.3-13.6c0-1.4,0.1-2.7,0.4-4.1c0.3-1.2,0.7-2.3,1.2-3.4
		c0.4-0.9,1.5-1.4,2.4-1.1c1.1,0.2,2,1.1,2.1,2.3c0,0.4,0,0.8,0,1.2c-0.6,6.5-0.8,13.1-0.6,19.7C377.3,202.6,377.2,203,377.1,203.4z
		"/>
	<path d="M563.2,122.2c0.2,4-0.2,8,1,11.8c0.1,0.5,0.2,1.1,0.1,1.6c-0.1,0.8-0.9,1.5-1.7,1.4c-1.5-0.1-2.9-1.1-3.5-2.5
		c-0.7-1.6-1.1-3.4-1.2-5.1c0-5.1,0.2-10.1,0.3-15.2c0-0.4,0.1-0.8,0.2-1.2c0.3-1.2,1.4-2.1,2.6-2.3c1.2,0,2.3,1.1,2.4,2.9
		c0.1,1.9,0,3.8-0.1,5.7C563.3,120.2,563.2,121.2,563.2,122.2z"/>
	<path d="M221.4,114.3c0.5-3.9,1-7.9,1.5-11.8c0.1-1.7,1.2-3.1,2.7-3.8c0.8-0.3,1.7-0.1,2.1,0.7c0.7,1,1,2.3,0.9,3.5
		c-0.1,1.5-0.3,3-0.6,4.5c-0.8,4-1.2,8.1-1,12.2c0,0.7,0,1.4-0.1,2.1c-0.2,1.1-1.1,2-2.2,2.2c-1,0.2-2-0.4-2.2-1.4
		c-0.3-0.9-0.6-1.8-0.8-2.8c-0.1-0.7-0.2-1.3-0.2-2c0-1.1,0-2.2,0-3.3L221.4,114.3z"/>
	<path d="M135.7,182.2c0-1.2,0-2.4,0-3.7c0-0.7,0-1.3,0.2-2c0.2-1,1-1.7,2-1.8c1-0.1,1.9,0.4,2.4,1.3c0.2,0.5,0.4,1,0.5,1.6
		c0.2,1.6,0.4,3.2,0.6,4.9c0.3,4.2,0.4,8.4,0.7,12.6c0,0.4,0,0.8,0,1.2c-0.1,1.1-0.9,2-2,2.4c-1.1,0.2-2.2-0.4-2.7-1.5
		c-0.3-0.7-0.5-1.5-0.6-2.4C136.3,190.6,136,186.4,135.7,182.2L135.7,182.2z"/>
	<path d="M241,273.1c-1.1-1.1-1.8-2.6-1.9-4.2c-0.7-4.7-0.2-9.5-0.3-14.3c0.1-1.7,0.9-3.2,2.2-4.2c0.7-0.7,1.8-0.8,2.6-0.1
		c0.3,0.3,0.5,0.7,0.6,1.1c0.2,1.1,0.3,2.2,0.3,3.2c0.1,5,0.1,10.1,0.1,15.1C244.6,272.4,244.5,272.4,241,273.1z"/>
	<path d="M564,103c-1,0.1-1.9-0.6-2.1-1.5c-0.5-1.1-0.2-2.5,0.7-3.3c0.9-0.7,2-0.8,3-0.2c0.9,0.9,1.2,2.2,0.9,3.4
		C566.1,102.3,565.1,103,564,103z"/>
	<path d="M283.8,269.6c-1.2-0.3-2-1.5-1.8-2.7c0,0,0,0,0,0c0.1-1.1,1.1-1.9,2.2-1.9c1.3,0.2,2.6,1.7,2.4,2.8
		C286.2,268.9,285,269.7,283.8,269.6z"/>
	<path d="M229.5,91.2c-0.2,0.5-0.5,0.9-0.9,1.3c-0.6,0.3-1.2,0.6-1.9,0.6c-0.9,0.1-1.7-0.5-1.8-1.4c0-0.1,0-0.2,0-0.3
		c0-1.5,1.2-2.7,2.7-2.7c0.1,0,0.2,0,0.3,0C228.7,88.8,229.3,89.6,229.5,91.2z"/>
	<path d="M139.7,165.7c0.1,0.9-1,2.1-2.3,2.5c-0.8,0.2-1.6-0.6-1.8-1.7c-0.3-1.5,0.3-2.8,1.5-2.8
		C138.4,163.6,139.4,164.5,139.7,165.7z"/>
	<path d="M239.1,239.7c-0.6-1.7-0.3-2.9,0.5-3.8c0.5-0.7,1.4-0.9,2.1-0.6c0.9,0.5,1.2,1.5,0.8,2.4c-0.3,0.6-0.8,1-1.4,1.4
		C240.5,239.4,239.8,239.6,239.1,239.7z"/>
	<path d="M373.7,174.7c-0.2-0.2-0.7-0.6-0.8-1c-0.2-0.8,0.3-1.6,1.1-1.7c0.2,0,0.3,0,0.5,0c0.7,0,1.3,0.5,1.4,1.2
		C376.1,173.8,375,174.7,373.7,174.7z"/>
	<path class="st0" d="M447.6,196c0.6-2.6,1.8-5.1,3.5-7.2c1-1.1,2-2.2,3.2-3.2c1.4-1.4,3.7-1.4,5.1,0c0,0,0,0,0,0
		c0.8,0.6,1.1,1.7,0.7,2.6c-1.9,4.4-4.5,8.1-9.1,10.1c-0.4,0.1-0.8,0.2-1.2,0.3C448.3,198.9,447.5,198.2,447.6,196z"/>
	<path class="st0" d="M435.7,188.3c-0.7,2.5-2.1,3.1-3.5,3.6c-0.8-0.5-0.5-1-0.2-1.4c0.5-0.5,1-0.9,1.5-1.3
		C434.3,188.9,435,188.6,435.7,188.3z"/>
	<path class="st0" d="M407.2,186.8l-0.5,0.5c-0.1-0.2-0.2-0.4-0.3-0.7c0-0.1,0.1-0.2,0.2-0.3L407.2,186.8z"/>
	<path class="st0" d="M118.1,264.5c-1.6-2.8,0.2-4.8,1-6.7c1.1-2.6,2.7-5,5.8-6c0.9,2.1-0.3,3.6-0.8,5.2
		C122.7,260.6,121.6,261.9,118.1,264.5z"/>
	<path class="st0" d="M101.5,246.9c1.4,1.4,1,2.4,0.4,3.3c-1.1,1.6-2.4,2.3-2.8,1.6c-0.7-1.2,0.2-2.1,0.8-2.9
		C100.4,248.1,100.9,247.5,101.5,246.9z"/>
	<path class="st0" d="M363.6,123.6c0-0.9-0.3-2.2,0.1-3c1.1-2.6,2-5.4,4-7.6c1.2-1.3,2.2-2.8,3.4-4.1c1.2-1.3,2.5-2.5,3.9-3.6
		c0.6-0.5,1.5-0.4,2,0.2c0.2,0.3,0.3,0.6,0.3,1c0,3.1-0.1,6.2-0.4,9.4c-0.1,0.8-0.5,1.6-1,2.2c-2.4,2.8-5.5,4.9-9,6.1
		C365.8,124.7,364.5,124.5,363.6,123.6z"/>
	<path class="st0" d="M179.9,188.8c-0.1-0.7-0.3-1.5-0.1-1.9c2.3-4.6,4.4-9.4,8.9-12.6c2,1.4,2,3.4,2.1,5.3c0.1,1.4-0.8,2.3-1.6,3.2
		c-2.3,2.4-4.9,4.4-7.9,5.8C180.9,188.6,180.4,188.7,179.9,188.8z"/>
	<path class="st0" d="M511.8,121.5c0,0.2,0,0.5,0,0.7c0.5,1.2,1.4,2.4,0.8,3.8c-0.7,1.5-1.9,2.7-3.4,3.4c-0.5,0.3-1,0.5-1.5,0.7
		c-4.5,1.4-6,0-6-4.2c0-3,1.1-5.6,2.3-8.2c1.1-2.2,2.4-4.3,3.9-6.3c0.3-0.5,0.6-0.9,1-1.2c1-1,2.2-1.9,3.6-1.3
		c1.4,0.6,2.3,2.1,2.3,3.6c0,2.3-0.6,4.6-1.8,6.6C512.7,120.2,512.2,120.9,511.8,121.5z"/>
	<path class="st0" d="M255.9,260.6c0.2-3.1,0.4-6.3,0.7-9.4c0.1-1,0.9-1.7,1.9-1.6c0,0,0.1,0,0.1,0c1.5,0,2.9,0.6,4,1.7
		c2.9,2.9,3.6,6.6,1.7,9.7c-1.2,1.9-3,3.2-5.2,3.8c-1.9,0.6-3.1-0.4-3.3-2.5c-0.1-0.5,0-1.1,0-1.6L255.9,260.6z"/>
	<path class="st0" d="M312.7,117.4c0-0.6,0.1-1.2,0.2-1.8c1.4-4.8,4.2-9,7.9-12.2c1.5-1.2,2.8-1,3.5,0.8c0.5,1.1,0.7,2.3,0.6,3.6
		c-0.2,2.8-0.6,5.7-1.1,8.5s-4.2,5.9-7,6.1c-2.5,0.1-3.8-1-4.1-3.5C312.8,118.4,312.8,118,312.7,117.4z"/>
	<path class="st0" d="M539.6,188.4c1.3-0.9,2.8-1.3,4.4-1c1.8,0.1,3.4,1.5,3.7,3.3c0.3,1.9,0.3,3.8-1.4,5.3c-1.1,1-2.2,2-3.4,2.9
		c-0.7,0.3-1.4,0.5-2.1,0.6C540,195.8,539.6,192.1,539.6,188.4z"/>
	<path class="st0" d="M472.6,124.5c-0.7-3.5-0.5-5.2,0.8-11.6c0.7-0.7,1.9-0.6,2.6,0.1c3.1,2.6,3.8,6.7,1,9.2
		C475.6,123.3,474.6,124.8,472.6,124.5z"/>
	<path class="st0" d="M110.5,97.5c0.5,0.3,0.9,0.7,1.3,1.2c2.2,3.7,3.3,7.9,3.3,12.1c-0.1,4.8-3,7.8-6.6,10.2
		c-0.6,0.3-1.3,0.3-1.9,0c-1.4-0.4-2.3-1.6-2.5-3c-0.3-1.8-0.3-3.5-0.1-5.3c0.7-4.9,2.4-9.6,5.2-13.7
		C109.4,98.5,109.9,98,110.5,97.5z"/>
	<path class="st0" d="M503.8,189.2c-0.4,4.3-2.7,8.3-6.1,10.9c-1.2,0.9-2.4,1.7-3.8,2.4c-0.7,0.4-1.7-0.5-1.5-1.3
		c0.4-2,1.3-3.9,2.5-5.5c2-2.7,4.7-4.5,7.3-6.4C502.5,188.9,503.1,189.2,503.8,189.2z"/>
	<path class="st0" d="M326.8,181.4c1.5,2,1.7,4.7,0.6,7c-0.6,1.4-1.5,2.7-0.4,4.2c0.1,0.1,0.1,0.3,0.1,0.4c0,2.1-4,5.6-6.1,5.2
		c-0.6-0.2-1.2-0.7-1.4-1.3c-0.3-0.8-0.3-1.6-0.2-2.4c0.7-4.5,2.8-8.6,5.8-12C325.7,182.1,326.2,181.7,326.8,181.4z"/>
	<path class="st0" d="M560.3,200.9c0.3-2.8,1.7-5.4,3.9-7.2c2.1-1.8,4.3-3.4,6.5-5c1.1-0.8,1.2-0.7,3.3-0.3
		c-0.6,6.9-3.8,11.3-9.6,13.1C562.8,202,562.8,202,560.3,200.9z"/>
	<path class="st0" d="M642.7,190.7c1.4,0.5,2.6,1.5,3.5,2.8c0.8,1.1,1.1,2.6,0.7,3.9c-0.6,2.7-2.6,4.4-4.8,5.8
		c-0.8,0.5-1.9-0.2-2.2-1.2c-0.6-2.5-0.4-5.2,0.7-7.6C641.2,193.1,641.9,191.8,642.7,190.7z"/>
	<path class="st0" d="M126.5,177.4c0.2,1.1,0.6,1.8,0.4,2.3c-0.6,1.8-2,3.3-3.8,3.9c-0.3,0-0.5-0.1-0.7-0.2
		c-0.2-0.2-0.3-0.4-0.3-0.7C122.9,180.6,123.8,178.7,126.5,177.4z"/>
</g>
<g>
	<path d="M2340.3,1244c-7.8-1.3-13-10.9-11.8-18.1c0-0.3,0.1-0.5,0.2-0.8c0.2-0.3,0.6-0.8,0.8-0.8c0.5,0,1.2,0.1,1.4,0.4
		c0.7,1,1.2,2.1,1.5,3.3c0.7,2.6,1.9,5.1,3.6,7.3c0.6,0.8,1.3,1.8,2.8,1.7c1.6-1.7,2-4.1,2.6-6.3c1.4-4.7,3.1-9.4,5-13.9
		c1.1-3.1,1.8-6.3,2.2-9.6c0.5-3,0.5-6,0.7-9c0-0.3-0.3-0.7-0.5-1.3l-4.2,2.5c-3.4,1.9-7.2,2.7-11.1,2.2c-1.3,0-2.4-0.7-3.1-1.7
		c-0.6-0.7-0.9-1.7-0.7-2.7c0.2-1.6,0.6-3.2,1.2-4.8c3.1-6.1,7.4-11.1,13.8-14c1.5-0.7,3.1-1.6,4.7-0.8c2.2,1.1,4.3,2.6,4.8,5.3
		c0.4,1.7,0.7,3.5,0.7,5.3c0,4.2-0.1,8.5-0.4,12.7c-0.3,2.7-0.8,5.4-1.4,8.1c-1.1,4.9-2.1,9.9-3.5,14.8c-1.4,4.9-3,9.4-4.6,14
		C2344.2,1241.1,2343.6,1241.6,2340.3,1244z M2336.4,1197.3c4.5-0.9,8.6-3.2,11.6-6.7c0.7-0.8,1.3-1.8,1.6-2.8
		c0.8-1.7,0.1-3.7-1.5-4.5c-0.4,0.1-0.8,0.2-1.2,0.3c-4.7,2.5-8.1,6.4-10.6,10.9C2335.6,1195.4,2335.7,1196.6,2336.4,1197.3z"/>
	<path d="M2251.1,1177.7c0.5-2,0.7-3.3,1.1-4.6c0.7-2.4,2.7-3.2,5.1-2.1c0.6,0.3,1.2,0.6,1.9,0.7c3.9,0,5.8,2.6,7.2,5.7
		c1.7,4.2,2.6,8.7,2.5,13.2c0,1.9-0.1,3.8-0.3,5.7c-0.1,0.7-0.4,1.3-0.8,1.8c-0.5,0.4-1.2,0.4-1.7,0c0,0-0.1-0.1-0.1-0.1
		c-0.3-0.9-0.6-1.8-0.8-2.8c-0.6-3.8-1.2-7.6-1.8-11.4c-0.2-1.8-0.9-3.5-2-4.9c-0.4-0.6-1.3-0.8-1.9-0.4c-0.2,0.1-0.4,0.3-0.5,0.5
		c-0.9,1.7-1.4,3.6-1.5,5.5c-0.4,4.5-1,9-1.5,13.5c-0.1,0.7-0.3,1.3-0.7,1.9c-0.7,0.9-1.9,1.3-3,1c-1.1-0.2-1.5-1.1-1.7-2.1
		c-0.3-1.1,0.2-2.5-1.1-3.6c-0.6,0.3-1.1,0.6-1.6,0.9c-2.9,2.2-6.4,3.1-9.9,3.9c-0.9,0.2-1.9,0.2-2.9,0.2c-4.7,0.2-6.9-3.3-7.1-6.9
		c-0.1-3.3,0.7-6.6,2.2-9.5c0.6-1.1,1.2-2.1,1.9-3.2c2.1-3.2,5.3-5.7,9-6.8c3.2-1.2,5.9-0.3,8.3,1.9
		C2249.9,1176.2,2250.2,1176.7,2251.1,1177.7z M2234.2,1191c-0.9,1.3-1.3,2.8-0.4,4.2c1,1.4,2.7,2.1,4.3,1.7
		c3.9-0.7,7.5-2.6,10.2-5.5c1-1.2,1.5-2.6,1.7-4.1c0.2-1.4,0.2-1.6-0.6-3.5c-0.8,0.6-1.5,1.2-2.2,1.7c-1.8,1.3-3.6,2.5-5.3,3.8
		c-1.9,1.4-4.2,2-6.5,1.6C2235.1,1190.9,2234.6,1190.9,2234.2,1191z M2235.7,1185.7c0.6,0.1,1.2,0.1,1.8,0c2.9-0.8,5.4-2.5,7.3-4.8
		c0.4-0.5,0.5-1.2,0.3-1.8c-0.4-0.5-1-0.8-1.7-0.8c-0.7,0-1.3,0.2-1.9,0.5C2238.8,1180.3,2236.7,1182.7,2235.7,1185.7z"/>
	<path d="M2182.6,1190c-0.6,0.1-0.7,0-0.8,0.1c-3.2,2.9-7.1,3.9-11.2,4.8c-1.9,0.4-3.8,0.4-5.7,0.1c-2.4-0.3-4.3-2.1-4.8-4.4
		c-0.7-2.4-0.6-4.9,0.1-7.3c1.2-3.9,3.2-7.6,5.9-10.7c1.7-1.8,3.7-3.3,5.8-4.5c2.1-1.4,4.2-1,6.2,1.9c0.3,0.4,0.4,1.1,0.7,1.4
		c0.8,0.8,1.6,1.5,1.5,2.8c0,1.4-0.5,2.7-1.5,3.7c-1.3,1.4-2.8,2.6-4.3,3.7c-2,1.1-4.1,2.1-6.3,3c-1,0.4-2,0.8-3.1,1.3
		c-0.1,0.8-0.1,1.7-0.2,2.5c0,1.6,1.2,2.9,2.7,3.2c1.1,0.3,2.2,0.4,3.2,0.3c3.7-0.5,7.1-2,10-4.4c0.8-0.7,1.3-1.8,1.2-2.9
		c0.1-2.9,0.3-5.7,0.5-8.6c0.1-1,0.3-1.9,0.6-2.8c0.8-1.8,2.1-2.8,4.3-2.4c0.4,0.9,0.8,1.7,1.2,2.5c0.4-0.1,0.7,0,0.9-0.2
		c2.8-2.8,6.3-3.6,10.2-3.7c1.5-0.1,3,0.7,3.9,1.9c0.4,0.5,0.6,1.2,0.5,1.8c-0.4,0.5-0.9,0.9-1.6,1c-0.8,0.1-1.6,0.1-2.4,0
		c-1.5,0-3,0.3-4.3,1c-1.4,0.6-2.5,1.7-3,3.1c-1.6,3.8-2.6,7.8-3.2,11.8c0,1.2-0.7,2.4-1.7,3.1c-1.2,0.9-2.9,0.8-3.8-0.4
		c-0.1-0.1-0.1-0.2-0.2-0.3C2183.5,1191.8,2183,1190.9,2182.6,1190z M2167.7,1179c3.2-0.2,4.9-2,6.6-3.8c0.4-0.4,0.5-0.9,0.6-1.5
		c0-0.5-0.3-1-0.6-1.4c-0.4-0.2-0.8-0.1-1.1,0.1C2170.7,1174,2168.8,1176.3,2167.7,1179z"/>
	<path d="M2288.5,1193.4c-0.9,0.5-1.8,1.1-2.7,1.7c-2.4,2-5.4,3.3-8.6,3.5c-3.3,0.2-5.2-1-5.8-4.3c-0.6-3.1,0-6.4,1.5-9.2
		c3-5.8,7.8-10.4,13.8-13.1c1.9-0.8,3.3-2.6,3.4-4.6c0.4-3.3,1.2-6.5,2.4-9.5c0.2-0.5,0.4-1,0.7-1.5c0.7-0.9,2-1.2,3-0.6
		c1.5,0.8,2.3,2.5,1.8,4.2c-1,2.7-0.8,5.4-1,8.1c-0.1,0.4-0.1,0.8,0,1.2c1.3,2.3,0.5,4.5,0.1,6.8c-0.3,1.9-0.5,3.8-0.5,5.7
		c0.1,2-0.2,4.1-1,6c-1.6,3.2-1,6.4,0.2,9.6c0.4,1,0.8,2,1.2,2.9c-1.6,1.5-1.6,1.6-4.1,2C2290.4,1200,2289.6,1197,2288.5,1193.4z
		 M2277.6,1195.4c2.4-1.7,4.4-2.9,6.2-4.4c3.4-2.8,5.6-6.3,5-11c-0.1-0.9,0.2-1.9-1-2.7c-0.7,0.2-1.4,0.5-2,0.8
		c-3.9,2.8-6.9,6.7-8.7,11.1c-0.4,1.2-0.6,2.4-0.5,3.6C2276.4,1193.5,2277,1194.2,2277.6,1195.4L2277.6,1195.4z"/>
	<path d="M1922.2,1158.5c0.7-1.6,0.4-3.6,0.3-5.4c-0.3-4,0.8-7.8,1.4-11.7c0.1-0.5,0.3-1,0.7-1.4c0.4-0.3,0.9-0.5,1.4-0.4
		c1.5,0.5,2.5,1.7,2.9,3.2c1.2,6.2,1.7,12.6,0.5,18.8c-1.2,6.5-0.7,12.8,0.1,19.2c0.2,1.4,0.4,2.7,0.7,4c0.2,1-0.3,2-1.2,2.4
		c-0.8,0.6-1.9,0.4-2.5-0.4c0,0,0,0-0.1-0.1c-0.5-1-1-2-1.4-3c-0.6-1.7-1.2-3.3-1.7-4.8c-0.7-0.3-1.5-0.2-2,0.4
		c-1.1,0.8-2.2,1.6-3.3,2.4c-2.4,1.6-5.3,2.4-8.2,2.3c-3.2-0.1-5.2-2.2-4.7-5.2c0.3-2.2,1-4.3,1.9-6.2c2.5-4.7,6.1-8.8,10.5-11.9
		C1919.1,1159.8,1920.7,1159.1,1922.2,1158.5z M1911.1,1180.3c2.1-0.3,4-1.3,5.4-2.9c1.1-1.4,2.3-2.7,3.5-4c1.6-1.8,2.3-4.1,2-6.4
		c0-0.9-0.7-1.7-1.6-1.8c-0.4,0.2-0.8,0.4-1.2,0.7c-3.4,2.5-5.4,6.1-7.5,9.6c-0.5,0.8-0.8,1.8-0.8,2.7
		C1910.7,1178.9,1910.8,1179.6,1911.1,1180.3z"/>
	<path d="M1910.8,1237.1c-1.4,3.4-2.3,6.9-2.7,10.6c-0.7,6.1-1.8,12.2-2.9,18.2c-0.3,1.6-0.8,3.2-1.2,4.8c-0.5,1.7-1.6,3.2-3.2,4.2
		c-1.3,1.2-3.3,1.1-4.5-0.2c-0.3-0.3-0.5-0.6-0.6-1c-0.6-1.2-1.6-2.3-0.3-4l2.8,0.8c1-0.8,1.6-2,1.8-3.2c0.7-5.7,1.4-11.4,2.2-17.1
		c0-0.6,0-1.1-0.2-1.7c-0.5,0-1-0.2-1.3,0c-2.5,1.6-5.4,1.9-8.1,2.8c-1.2,0.4-2.6,0-3.2-1.1c-0.5-0.7-0.8-1.4-1-2.2
		c-0.2-0.9-0.3-1.9-0.2-2.8c1.3-7.6,4.4-14.3,10.8-19.2c3.7-2.8,7.3-1.9,9.3,2.4c0.4,1,0.7,2.1,1,3.1
		C1909.8,1233.2,1910.2,1234.9,1910.8,1237.1z M1893.8,1246.9c3.2-0.6,6.1-2.2,8.3-4.5c3.2-2.9,4-7.7,2-11.5
		c-0.3-0.6-1.1-1.1-1.6-1.6c-4.5,3-6.3,7.4-8.2,11.8C1893.7,1242.9,1893,1244.7,1893.8,1246.9L1893.8,1246.9z"/>
	<path d="M2305.8,1186.9c-0.4,0.9-0.8,1.3-0.8,1.8c-0.1,2.3,0,4.6,0,7c0,0.7,0.3,1.3,0.4,2c0.3,2.1-0.4,2.9-2.5,3.5
		c-1,0.4-2.2,0-2.6-1.1c0,0,0-0.1-0.1-0.2c-1-2.5-1.4-5.3-1-8c0.1-0.8,0.3-1.6,0.4-2.4c0.2-1.9,0.3-3.8,0.6-5.7
		c0.1-1.1,0.3-2.1,0.7-3.2c0.3-0.9,1.3-1.5,2.2-1.5c0.9,0,1.7,0.5,2,1.3c0.3,0.6,0.5,1.2,0.8,1.9c1.2-0.2,2.5-0.7,3.6-0.4
		c0.9,0.2,1.6,1.3,2.6,2.2c1.2-0.7,2.4-1.5,3.5-2.4c1.6-1.5,4-1.5,5.6,0c2.6,2.1,4.6,4.5,4.8,8.2c0.2,3.6-0.5,7-0.6,10.6
		c-0.1,0.4-0.3,0.8-0.6,1c-0.1,0.2-0.5,0.4-0.7,0.4c-0.4-0.1-0.9-0.3-1-0.6c-0.2-0.6-0.4-1.3-0.4-2c-0.5-2.8-1.1-5.6-1.7-8.4
		c-0.2-0.8-0.5-1.6-0.9-2.3c-0.6-1.1-2-1.5-3.2-0.9c-0.3,0.2-0.6,0.5-0.8,0.8c-1.2,2-1.9,4.3-2.1,6.6c-0.1,2.2-0.3,4.4-0.5,6.5
		c-0.1,1-0.7,1.8-1.5,2.2c-2,1-4,0-4.2-2.2s-0.1-4.7-0.2-7c-0.2-2-0.5-4.1-0.9-6.1C2306.4,1188,2306.2,1187.4,2305.8,1186.9z"/>
	<path d="M2172,1246.3c-0.3,1.9-0.6,3.8-0.9,5.7c-0.4,2.9,0.8,5.4,2.3,7.7c0.7,1.4,2.4,2,3.9,1.4c0.5-0.1,1-0.1,1.5,0
		c-0.3,0.8-0.4,1.5-0.8,1.9c-0.9,0.7-1.8,1.3-2.7,1.8c-1.2,0.8-2.8,0.7-3.9-0.2c-1.5-0.9-2.8-2.2-3.6-3.8c-0.4-0.8-0.8-1.6-1.3-2.3
		c-1.3,1-2.5,1.9-3.6,2.9c-2.7,2.2-6,3.4-9.4,3.5c-1.8,0.1-2.4-0.4-3.1-2c-1.4-3.6-1.1-7.7,0.7-11.2c2.2-4.6,4.7-8.9,9.1-11.9
		c2.6-1.8,5.5-1.9,7.7,0.4c1,1.1,1.9,2.3,2.7,3.6C2171,1244.4,2171.5,1245.3,2172,1246.3z M2163.7,1243.6c-1.3,0.5-2.4,1.5-3,2.8
		c-1,1.7-2,3.3-2.9,5c-0.8,1.3-1.4,2.6-1.9,4.1c-0.4,1.4-1.5,3.2-0.3,4.2c1.6,1.3,2.9-0.6,4.2-1.4c0.1-0.1,0.2-0.1,0.4-0.2
		c3-1.6,4.4-4.3,5.5-7.4C2166.6,1248.1,2165.8,1245.2,2163.7,1243.6L2163.7,1243.6z"/>
	<path d="M1869.9,1264.1c-0.5,0.2-1.1,0.3-1.6,0.3c-0.5,0-1.1-0.1-1.6-0.2c-1.1-1.4-1.9-3.1-2.2-4.8c-0.8-4.3-1.9-8.6-2.6-12.9
		c-0.4-2.2-1.2-3.9-3.6-4.5c-0.3-0.1-0.6-0.5-0.9-0.8c0.7-1.8,0.7-1.8,3.4-3.6c0.5-2.5,0.3-5.2,0.6-8c0.2-4.2,1.5-8.4,3.7-12
		c1.7-2.7,4-3.7,7.3-1.9c1.6,0.8,3.2,1.7,4,3.4c0.5,0.8,0.7,1.8,0.6,2.7c-0.2,1.2-1.1,1.8-2.6,2.1c-0.9-0.8-1.9-1.7-2.9-2.5
		c-0.5-0.5-1.3-0.5-1.8,0c-0.1,0.1-0.2,0.2-0.3,0.4c-2.1,4.4-3,9.2-2.5,14.1c1.1,1,2,0.6,3,0.5c0.8-0.1,1.6,0.1,2.3,0.4
		c1.9,1.1,2,2.6,0.1,3.8c-1.5,0.9-3.2,1.5-5,2.4c-0.5,2.1,0.1,4.4,0.4,6.6c0.6,3.9,1.4,7.8,2.1,11.7
		C1869.8,1262.2,1869.8,1263,1869.9,1264.1z"/>
	<path d="M1922.9,1240.6c-1.8,2.6-3,4.9-2.8,7.8c0.2,1.4-0.4,2.8-1.6,3.6c-0.8,0.8-2.1,0.8-2.9-0.1c-0.2-0.2-0.4-0.5-0.5-0.8
		c-0.5-1.1-0.8-2.3-0.9-3.5c-0.6-5.2-1.2-10.3-1.8-15.5c-0.5-4.3-0.9-8.7-1.5-13c-0.3-1.5-0.1-3,0.6-4.4c0.3-0.9,1.2-1.6,2.2-1.7
		c1,0,1.9,0.7,2,1.7c0.6,2.8,1.3,5.6,1.7,8.4c0.4,2.8,0.5,5.7,0.8,8.6c0.1,1.3,0,2.8,1,3.9c0.3-0.1,0.6,0,0.8-0.2
		c1.2-1,2.3-1.7,4.1-1.1c2,0.8,3.9,1.5,4.7,3.6s1.3,4.2,1.8,6.3c0.6,2.4,0.9,4.8,1.4,7.2c0.3,0.9,0.1,1.9-0.6,2.7
		c-1.4,1.6-3,1.4-3.7-0.7c-0.8-2.6-1.4-5.3-2-7.9C1925.2,1243.2,1925.2,1243.2,1922.9,1240.6z"/>
	<path d="M2011.9,1248.7c-0.3,4.9-3,9.2-8.4,11.7c-1.1,0.5-2.3,0.9-3.5,1.3c-3.7,1.4-7.8-0.5-9.2-4.2c-0.1-0.3-0.2-0.7-0.3-1
		c-0.4-1.7-0.6-3.5-0.6-5.3c0.2-6.7,2.9-12.5,7.2-17.5c1.1-1.3,2.9-1.7,4.5-1C2007.5,1235,2011.8,1241.3,2011.9,1248.7z
		 M1999.7,1240.3c-2.8,3.5-4.4,8.5-4.2,12c0.1,1.5,0.6,3,1.6,4.2c0.9,1.3,2.6,1.6,3.8,0.7c0.1,0,0.1-0.1,0.2-0.1
		c4-3.5,8.1-9.2,3.4-15.8c-0.1-0.2-0.4-0.3-0.7-0.4l-2.1,0.8c-0.4-0.3-0.6-0.4-0.8-0.6S2000.3,1240.6,1999.7,1240.3z"/>
	<path d="M1862.4,1179.4c0-4.6,1.2-8.9,2.3-13.3c1.2-4.8,2.7-9.5,4.1-14.2c0.1-0.5,0.3-1,0.5-1.5c0.5-0.9,1.4-1.4,2.4-1.2
		c0.8,0.2,1.4,0.7,1.8,1.5c0.5,1.4,0.8,2.9,1,4.4c0.6,3.2,1.1,6.5,1.7,9.7c0.6,3.2,2.3,6.1,3.8,9c0.9,1.9,1.4,3.9,1.7,5.9
		c0.1,0.8,0,1.6-0.2,2.4c-0.4,1.1-1.4,1.8-2.5,1.8c-0.9,0.1-1.7-0.4-1.9-1.2c-1.1-2.5-2.2-5-3.3-7.5c-0.4-0.9-0.6-1.8-1-2.7
		s-1-1.5-1.9-1.2c-0.8,0.2-1.4,0.7-1.8,1.4c-0.7,2.2-1.2,4.5-1.7,6.7c-0.3,1.2-0.3,2.5-0.6,3.6c-0.3,0.6-0.7,1.1-1.3,1.4
		c-0.9,0.6-2,0.3-2.6-0.5c-0.1-0.2-0.2-0.5-0.3-0.7c-0.1-0.3-0.1-0.5-0.2-0.8C1862.4,1181.3,1862.4,1180.3,1862.4,1179.4z"/>
	<path d="M2026.5,1258.5c-1.5,1.6-3.2,2.8-5.1,3.7c-1.1,0.7-2.5,0.4-3.2-0.6c0,0-0.1-0.1-0.1-0.1c-1.6-2.1-2.6-4.6-3-7.2
		c-0.9-6.4-1.6-12.8-2.5-19.1c-0.3-2.3,0.7-4,1.8-5.7c0.6-0.9,1.8-1.2,2.8-0.6c0.3,0.2,0.5,0.4,0.6,0.7c0.3,0.4,0.5,1,0.6,1.5
		c0.4,3.4,0.7,6.8,1,10.2c0.3,3.1,0.5,6.3,0.8,9.4c0.1,0.5,0.3,1,0.5,1.5c0.4-0.2,0.8-0.3,0.8-0.5c0.7-2.6,1.4-5.3,2.1-7.9
		c0.8-3,2.1-5.9,2.2-9.1c0-1.3,1.1-2.3,2.4-2.3c0,0,0.1,0,0.1,0c1.1-0.1,2.2,0.6,2.5,1.7c0.8,1.6,0.9,3.5,0.4,5.2
		c-0.2,0.9-0.6,1.8-0.9,2.7C2028.4,1247.3,2026.4,1252.7,2026.5,1258.5z"/>
	<path d="M2048.1,1161.3c1.3,1.4,2.2,2.4,3.2,3.4c0.1,2.5-0.1,4.9-0.8,7.3c-1.1,3.8-0.1,7.3,1.4,10.8c0.7,1.2,1.5,2.3,2.5,3.2
		c-0.9,1.7-0.9,1.7-3.8,2.5c-1.8-1.1-2.9-3.1-4.1-4.7c-0.9-0.3-1.8,0.1-2.3,0.8c-2,2.3-4.9,2.9-7.6,3.8c-0.8,0.3-1.7,0-2.3-0.6
		c-1-1.1-2-2.3-2-3.9c-0.1-2.6-0.1-5.2,0.2-7.8c0.8-4.4,2-8.8,3-13.2c0.2-1.3,0.9-2.4,2-3c1.4-0.8,3-0.2,3,1.4
		c0.1,1.4-0.1,2.7-0.3,4.1c-0.7,3.8-1.6,7.5-2.4,11.2c-0.5,2.1-0.4,4.3,0.4,6.4c0.7,0.5,1.3,0.1,1.8-0.3c3.1-2.4,4.8-6.1,4.8-10
		c-0.2-3.3,0.4-6.6,1.8-9.6C2047.1,1162.5,2047.6,1161.9,2048.1,1161.3z"/>
	<path d="M2006.9,1179.2c-0.1-6,3.1-10.6,6.4-15.2c1.5-1.8,3.3-3.2,5.5-4.2c1.9-1,4.2-0.8,5.8,0.6c2.8,2.3,4.7,4.9,4.5,8.7
		c0,0.7,0,1.4,0.1,2c0.8,6.7-3.1,13.2-9.5,15.5c-2,0.9-4.2,1.3-6.3,1.3c-3.1-0.1-5.7-2.5-6.2-5.6
		C2007,1181.4,2007,1180.3,2006.9,1179.2z M2021.5,1165.2c-0.3,0-0.5,0.1-0.8,0.1c-0.3,0.1-0.5,0.2-0.7,0.4
		c-4.9,3.3-7.1,8.1-7.8,13.8c-0.1,0.8,0,1.6,0.3,2.4c0.2,1.3,1.4,2.2,2.7,2c0.1,0,0.3-0.1,0.4-0.1c1.2-0.3,2.3-0.9,3.3-1.6
		c2.4-1.8,4.2-4.4,5.2-7.2C2025.4,1171,2024.6,1168,2021.5,1165.2L2021.5,1165.2z"/>
	<path d="M2136.6,1243.4c-3.6,2.9-5.6,7.2-5.4,11.8c0,1.6,0.1,3.3,0.1,4.9c0,1.3-0.8,2.4-2,2.9c-1,0.6-2.4,0.3-3-0.7
		c-0.1-0.2-0.2-0.4-0.3-0.7c-0.3-1.1-0.4-2.1-0.5-3.2c-0.1-4.9-0.8-9.9-2.1-14.6c-0.8-2.9-0.1-3.7,3.6-4.8l2.5,3.2
		c1.3-1,2.4-2.2,3.3-3.5c0.9-1.1,2.3-1.6,3.7-1.4c3.8,0.3,5.2,1.6,6.4,5.2c1.6,5.3,2.7,10.6,3.4,16.1c0.2,1.5,0.4,3,0.6,4.4
		c-1.9,1.3-3.1,1.3-3.8-0.6c-0.8-2.3-1.5-4.7-2-7.1c-0.7-2.7-1.2-5.3-1.9-8C2138.6,1245.3,2138.5,1245.3,2136.6,1243.4z"/>
	<path d="M1890.5,1162.7c-1.2,0.4-1.9,1.7-1.6,2.9c0.2,2.6,0.4,5.2,0.7,7.8c0.3,2.3,0.7,4.6,1,6.9c0.1,0.5,0.1,1.1,0,1.6
		c-0.2,1.1-1,2-2.1,2.2c-1.1,0.4-1.8-0.3-2.5-1c-1-1.3-1.6-2.9-1.6-4.6c-0.3-3.7-0.7-7.3-1-11c-0.2-2.2-0.4-4.3-0.8-6.5
		c-0.2-1.2,0.2-2.5,1.1-3.4c0.9-1,1.8-1.6,3.2-0.7c0.6,0.4,1.2,0.5,1.9,0.3c2.4-1.1,4.3,0.1,6.1,1.4c1.7,1.2,2.9,2.9,3.5,4.9
		c2.1,6.4,3.3,13,3.5,19.7c0,0.3,0.1,0.6,0.1,0.8c-0.1,0.9-0.9,1.5-1.8,1.4c-0.1,0-0.2,0-0.3-0.1c-1.1-0.3-2-1.1-2.3-2.2
		c-0.4-1.4-0.8-2.9-1-4.4c-0.4-4.1-1.5-8.1-3.1-11.9C1892.9,1165.4,1892.2,1163.8,1890.5,1162.7z"/>
	<path d="M2108.6,1191.5c-1.2-1-1-2.4-1-3.8c-0.1-3,0-6-0.3-9c-0.4-2.7-0.9-5.4-1.6-8c-0.3-1.3-1.2-1.7-2.1-1.4c-1,0.2-1.7,1-1.8,2
		c-0.1,1,0,1.9,0,2.9c0.2,5.3,0,10.7-0.3,16.2l-3.4,1.7c-0.5-0.6-1-1.3-1.4-2c-1.6-5.1-2-10.5-1.1-15.8c0.5-2,0.7-4,0.6-6.1
		c0-0.1,0-0.3,0-0.4c0.4-1.3,0.1-2.9,1.3-3.8c1.2-0.9,2.6-0.5,3.9,0.1c0.7,0.1,1.4,0.1,2-0.1c0.8-0.1,1.6-0.4,2.4-0.6
		c3.1,2,5.2,4.5,5.6,8.2c0.4,3.7,1.1,7.3,1.1,11c-0.2,2.6-0.6,5.1-1.4,7.6C2110.5,1191,2109.6,1191.6,2108.6,1191.5z"/>
	<path d="M1950.5,1167.9c0.1-0.7,0.1-0.9,0.2-0.9c2.4-2.3,2.7-5.2,2.8-8.3c0.1-3.1,0.2-6,0.3-9c0-1.4,0.5-2.7,1.5-3.7
		c0.9-1,2.4-1,3.4-0.2c0.1,0.1,0.2,0.2,0.3,0.3c0.8,0.9,1.3,2.2,1.2,3.4c-0.1,2.2-0.2,4.4-0.2,6.6c0,1.2,0.1,2.4,0.1,3.8
		c2.3-0.4,3.6-1.8,5.3-2.6c0.6-0.3,1.3-0.4,1.9-0.3c1.2,0.2,2,1.4,1.8,2.6c-0.1,0.5-0.3,0.9-0.7,1.3c-1.6,1.3-3.3,2.4-5,3.5
		c-1.4,0.9-2.8,1.7-4,2.5c-0.9,2.9-1.1,13.7-0.5,18.6c-0.5,0.9-1.4,1.4-2.4,1.3c-1.5,0.1-2.4-0.5-2.7-1.9c-0.4-2.2-0.7-4.3-0.8-6.5
		c-0.2-2-0.2-4.1-0.2-6.2C1952.9,1170.3,1952,1168.7,1950.5,1167.9z"/>
	<path d="M2186.1,1256.4c0.7-1.1,0.9-1.5,1.1-1.8c2.2-4.4,4.5-8.7,6.7-13.2c0.6-1.4,1.9-2.4,3.5-2.4c1-0.2,2,0.5,2.1,1.6
		c0,0.1,0,0.2,0,0.3c0,0.9-0.1,1.9-0.5,2.8c-0.6,1.7-1.4,3.3-2.5,4.7c-3.1,3.9-4.2,8.5-5.8,13.1l1.6,1.9c-0.2,0.4-0.3,0.8-0.6,1
		c-3.2,2.5-6.5,2.1-8.8-1.2c-1.1-1.6-1.9-3.3-2.5-5.1c-1.4-4.9-1.8-10-2.2-15c0-0.5,0-1.1,0.2-1.6c0.5-1.9,2.1-3.4,3.3-3.1
		c1.6,0.4,2,1.8,2.2,3.2c0.3,1.8,0.5,3.5,0.5,5.3C2184.6,1250.1,2185.1,1253.3,2186.1,1256.4z"/>
	<path d="M2038.2,1249.8c-0.9,1.3-1.3,2.9-1.1,4.5c0.2,3.1,2.4,4.9,5.5,4.7c1.4-0.1,2.7-0.3,4.1-0.4c1.2-0.1,2.4-0.2,3.6-0.3
		c0,0.3,0,0.7-0.1,0.8c-3.4,2.1-7.3,3.2-11.3,3.2c-3.1,0.1-5.9-2-6.6-5c-1.3-4.5-1.1-9,1.8-13c2.2-3.2,4.9-5.9,8.1-8.1
		c3.5-2.2,8.2-1.2,10.4,2.2c1.2,1.9,0.9,4.4-0.6,6c-1.7,1.6-3.5,3.1-5.5,4.3c-1.2,0.6-2.5,0.9-3.9,1
		C2041.1,1249.9,2039.6,1249.9,2038.2,1249.8z M2040.4,1246.5c2.3-1.4,4.2-2.6,6-3.7c0.8-0.5,1.2-1.7,0.7-2.1
		c-0.5-0.4-1.2-0.6-1.8-0.6c-0.5,0-1.1,0.2-1.5,0.6c-1.2,1.3-2.3,2.7-3.3,4.1C2040.2,1245,2040.4,1245.5,2040.4,1246.5
		L2040.4,1246.5z"/>
	<path d="M1986.3,1171.3c-0.1,2.6-0.6,5.2-1.5,7.6c-1.2,3.5-4.1,6.3-7.7,7.3c-2.1,0.6-4.3,0.9-6.5,0.6c-3.1-0.4-4.9-2.6-4.5-5.7
		c0.3-2,0.9-4,1.7-5.9c2.3-5.5,6.1-10,10.4-14.1c0.8-0.8,1.9-1.2,3-1.2c1-0.1,1.9,0.5,2.2,1.4c0.3,1.5,1,2.8,2,3.9
		c0.5,0.8,0.8,1.7,0.9,2.6C1986.3,1169.2,1986.3,1170.2,1986.3,1171.3z M1981.8,1171.7c0-0.6,0-0.7,0-0.8c0-1.1,0-2.3-1.1-2.9
		c-1.4-0.7-2.3,0.4-3.2,1.2c-3,2.8-4.5,6.5-5.7,10.3c-0.2,0.7-0.2,1.3-0.1,2c0.1,0.9,0.9,1.6,1.8,1.5c0.1,0,0.2,0,0.3-0.1
		c0.4-0.1,0.8-0.2,1.2-0.4C1979.8,1180.4,1981.5,1176.2,1981.8,1171.7z"/>
	<path d="M1939.3,1259.5c-1-0.7-1.7-1.8-1.7-3c-0.2-4.2-0.5-8.4-0.5-12.7c0.2-1.7-0.5-3.4-1.8-4.5c2.2-2.7,1.8-5.7,1.3-8.6
		c-0.5-3.4-0.5-6.8,0.1-10.2c0.1-1,0.6-1.8,1.4-2.3c0.9-0.6,2.1-0.5,2.7,0.4c0.1,0.2,0.2,0.4,0.3,0.6c0.3,0.9,0.5,1.9,0.5,2.8
		c0.3,2.7,0.5,5.4,0.8,8.2c0.2,0.9,0.4,1.8,0.6,2.7c1.9,0.1,3.4-0.8,4.9-1.2c1.3-0.3,2.6-0.5,4-0.6c0.8,0,1.4,0.7,1.4,1.5
		c0,0.3-0.1,0.7-0.4,0.9c-1.1,1-2.3,1.9-3.6,2.7c-1.1,0.5-2.3,1-3.4,1.3c-3.3,1.3-3.3,1.3-3.2,4.7c0,4-0.1,7.9,0,11.9
		C1943.2,1256.5,1941.7,1258.8,1939.3,1259.5z"/>
	<path d="M2153.1,1193.3l-3.5,0.8c-0.3-0.3-0.6-0.6-0.9-1c-0.7-1.4-1.4-2.9-2.1-4.4c-0.3-0.6-0.6-1.2-0.7-1.9
		c-0.8-5.7-1.6-11.4-2.4-17.1c-0.2-1.1-0.1-2.2,0.1-3.3c0.3-0.9,0.7-1.7,1.4-2.4c0.7-0.6,1.7-0.6,2.3,0.1c0.1,0.1,0.1,0.2,0.2,0.3
		c1,1.8,1.5,3.8,1.7,5.9c0.3,2.2,0.6,4.3,1,6.8c1-0.9,1.7-2.1,1.9-3.4c0.5-1.7,0.8-3.5,1.4-5.1c0.2-0.8,0.7-1.5,1.3-2
		c1.7-1.4,3.5-0.8,4,1.4c0.3,1.9,0.1,3.9-0.6,5.6c-1,3-2.1,5.9-3,8.9c-0.7,2.3-1.5,4.7-1.4,7.2
		C2153.7,1190.9,2153.4,1192.1,2153.1,1193.3z"/>
	<path d="M2120.4,1178.2c-0.9-0.6-1.6-1.3-2.4-2.1c-0.7-0.9-0.5-2.2,0.4-2.9c0.3-0.2,0.7-0.4,1.1-0.4c0.7,0,1.3,0.1,2,0.2
		c0.5,0,1.1,0,2,0c0.6-0.8,1.3-1.5,2-2.2c2.1-1.9,4.5-3.5,7.2-4.5c1.4-0.6,3.1-0.2,4.1,1c0.8,0.7,1.1,2,0.7,3
		c-1,2.9-3.2,5.2-5.9,6.6c-1,0.5-2,0.9-3,1.3c-1.9,0.7-3.1,2.5-3.1,4.4c0,0.8-0.2,1.6-0.1,2.5c0,3.9,2.4,5.9,6.1,5
		c2.2-0.7,4.4-1.5,6.5-2.4c0.5-0.3,1-0.5,1.5-0.7c0.4-0.2,1,0,1.1,0.5c0.1,0.3,0,0.7-0.2,1c-0.9,1-1.9,1.9-3.1,2.7
		c-3.4,1.8-7.2,2.6-11.1,2.3c-2.7-0.1-5-2-5.6-4.6c-0.8-2.4-1-4.8-0.6-7.3C2120.2,1180.4,2120.2,1179.4,2120.4,1178.2z"/>
	<path d="M2060.9,1241c0.5-0.3,0.7-0.3,0.7-0.4c2.3-4.4,6.4-5.1,10.8-5.5c0.5,0,1.1,0,1.6,0.2c1.1,0.3,2.2,1.2,1.9,1.8
		c-0.3,0.7-0.8,1.4-1.5,1.8c-1.2,0.7-2.5,1.2-3.8,1.6c-2.8,0.8-5,3.1-5.6,6c-1.1,3.6-1.6,7.4-1.4,11.2l-3.2,2.4
		c-1.4-0.7-2.4-2-2.8-3.5c-2.1-5.1-3.1-10.6-2.8-16.1c0-1.3,0.7-2.4,1.8-3.1c1-0.7,2.3-0.5,3,0.5c0.1,0.1,0.1,0.2,0.2,0.3
		C2060.1,1239.1,2060.5,1240,2060.9,1241z"/>
	<path d="M1969.8,1235c-0.4-0.1-0.6-0.1-0.7-0.2c-2-2.1-2.5-2.1-4.1-0.3c-0.6,0.7-1.2,1.5-1.8,2.3c-1.8,2.7-1.7,4.9,0.2,7.6
		c0.9,1.3,2.1,2.5,3.1,3.8c1.5,2.1,1.3,3.1-0.4,5c-1.4,1.6-3.1,2.7-5.1,3.4c-1.9,0.6-3.8,0.8-5.4-0.8c-0.4-0.4-0.5-0.9-0.5-1.5
		c0.2-0.5,0.5-0.9,1-1.1c0.8-0.3,1.7-0.2,2.4-0.5c0.8-0.4,1.5-0.8,2.3-1.3c-0.5-0.9-0.9-1.6-1.3-2.2c-0.8-1.3-1.7-2.5-2.5-3.7
		c-1.8-2.5-1.6-5.2-0.5-7.8c1.4-3.3,3.7-6.2,6.6-8.3c0.3-0.2,0.7-0.4,1.1-0.6c3.5-1.9,5.5-1.3,7.8,2.6L1969.8,1235z"/>
	<path d="M2060.7,1171.5c1.5-3.3,3.4-5.7,6.7-6.3c2.8-0.5,5.7-1,8,1.1c0.2,0.8-0.3,1.7-1.1,2c-0.1,0-0.2,0-0.2,0
		c-1.7,0.5-3.5,0.8-5.2,1.3c-1.7,0.3-2.9,1.8-3,3.5c-0.1,2.2-0.3,4.3-0.4,6.5c-0.1,2.2,0,4.1-0.2,6.2c-0.1,1.1-0.4,2.2-0.8,3.2
		c-0.6,1.1-1.8,1.8-3.1,1.6c-1.1,0-1.7-0.9-2-1.8c-0.2-0.7-0.4-1.3-0.6-2c-1-4.4-1.9-8.8-2.9-13.2c-0.4-1.3-0.3-2.7,0.2-4
		c0.4-0.6,0.8-1.2,1.3-1.7L2060.7,1171.5z"/>
	<path d="M2203.2,1265.7c-1.9-0.5-2.5-2.1-2.6-3.8c-0.4-3.8-0.3-7.7,0.4-11.5c0.5-2.7,1.2-5.3,1.9-8c0.2-1.4,1.5-2.4,2.9-2.4
		c1.5-0.1,2.4,0.5,2.5,2c0.1,1.3-0.1,2.7-0.4,4c-1.2,4.9-2.2,9.9-1.6,15c0.5,2-0.7,4.1-2.8,4.6
		C2203.4,1265.6,2203.3,1265.6,2203.2,1265.7z"/>
	<path d="M1879.2,1254.5c-1.9-1.6-1.9-3.8-2-6c-0.1-4.2,0.2-8.5,1.1-12.7c0.2-0.9,0.3-1.9,0.6-2.8c0.4-1.4,1.7-2.3,3.2-2.1
		c1.4,0.1,2.3,1.2,2.3,2.9c0,1-0.1,1.9-0.3,2.8c-0.7,4.6-1.4,9.2-1.3,13.9C1882.8,1253.3,1882.6,1253.4,1879.2,1254.5z"/>
	<path d="M2234.8,1231.7c0.7-0.9,1.3-1.7,1.9-2.6c0.5-0.8,1.5-1.3,2.4-1.1c1,0.1,1.8,0.8,2.1,1.8c0.5,1.2,0.3,2.5-0.4,3.5
		c-1.7,2.8-3.3,5.6-5,8.4c-0.6,1-1.3,2.1-1.9,3.1c-0.7,1-1.4,2-3.1,1.8c-0.1-3.3,0.5-6.5,1.9-9.5c0.5-1.2,0.9-2.5,1.4-3.8l-0.1,0.1
		l0.9-1.8L2234.8,1231.7z"/>
	<path d="M2115.6,1236.3c0,1.5,0.1,3,0,4.5c-0.1,0.5-0.4,1-0.9,1.2c-0.7,0.3-1.2-0.2-1.6-0.8c-2.6-3.6-2.9-7.9-3.9-12
		c-0.1-0.8,0.1-1.6,0.5-2.4c0.6-1.1,1.7-1.8,3-1.8c1.1,0.2,2,1.1,2.1,2.2c0.4,3,0.7,6,1,9L2115.6,1236.3z"/>
	<path d="M2208.1,1188.1c-0.5,0.1-1,0.1-1.5,0c-0.6-0.2-1.2-0.5-1.6-1c-0.5-0.9-0.1-2,0.8-2.5c4-1.8,8.1-3.4,12.6-3.3
		c1.7,0.3,2.8,1.8,2.5,3.5c0,0,0,0,0,0c-0.1,0.4-0.4,0.7-0.7,0.9c-0.4,0.3-0.9,0.6-1.5,0.7C2215.1,1187,2211.5,1187.5,2208.1,1188.1
		z"/>
	<path d="M2234.1,1233.3c-0.7,0.4-1.3,1-1.8,1.5c-1.1,1.4-2.1,2.9-3.2,4.3c-0.8,1.2-2.2,1.9-3.7,1.5c-0.8-1.3-0.8-2.9-0.1-4.2
		c1-2.1,2.1-4.2,3.2-6.2c0.5-0.8,1-1.6,1.7-2.3c0.9-1,2.4-1,3.3-0.2c0.3,0.3,0.6,0.7,0.7,1.1c0.3,0.9,0.4,1.9,0.5,2.8l0.1-0.1
		l-0.9,1.8L2234.1,1233.3z"/>
	<path d="M2101.1,1231.5c0.2-1,0.5-1.9,0.8-2.9c0.3-0.6,0.9-0.9,1.6-1c0.8,0.1,1.5,0.5,2,1.1c0.3,0.4,0.5,1,0.6,1.5
		c0.5,2.8,1,5.6,1.4,8.5c0,0.6-0.2,1.3-0.6,1.8c-0.7,0.5-1.7,0.4-2.2-0.2C2102.3,1237.9,2101,1234.7,2101.1,1231.5z"/>
	<path d="M2307.3,1166.6c0.1,1.5-0.4,2.2-1.4,2.6c-1,0.5-2.2,0.3-3-0.6c-0.5-0.7-0.5-1.6,0-2.3c0.6-1,1.8-1.4,2.8-1
		C2306.4,1165.6,2306.9,1166.3,2307.3,1166.6z"/>
	<path d="M2204.1,1233.3c0.1-0.7,0.2-1.1,0.3-1.5c0.1-0.8,0.8-1.4,1.7-1.4c1-0.2,1.9,0.3,2.3,1.2c0.1,0.5,0.1,1-0.2,1.5
		c-0.4,0.6-0.9,1-1.5,1.3c-0.5,0.3-1.2,0.4-1.8,0.2C2204.4,1234.4,2204.3,1233.6,2204.1,1233.3z"/>
	<path d="M1881.1,1217.4c1.1,0.1,2,1,2.1,2.1c-0.3,1.4-1.5,2.3-2.9,2.3c-1.1-0.1-1.9-1.5-1.7-2.8
		C1878.7,1218,1879.8,1217.3,1881.1,1217.4z"/>
	<path d="M2229.2,1270.2c-0.1-0.2-0.4-0.6-0.4-0.9c0.3-1.4,0.9-2,2.1-2.1c0.4,0.1,0.7,0.3,0.8,0.7c0,1.1-0.7,1.9-1.9,2.3
		C2229.6,1270.2,2229.4,1270.2,2229.2,1270.2z"/>
	<path class="st0" d="M2336.4,1197.3c-0.7-0.8-0.8-2-0.2-2.8c2.6-4.6,5.9-8.4,10.7-10.9c0.4-0.2,0.8-0.3,1.2-0.3
		c1.6,0.9,2.3,2.9,1.5,4.5c-0.3,1-0.9,2-1.6,2.8C2345,1194.1,2340.9,1196.4,2336.4,1197.3z"/>
	<path class="st0" d="M2234.2,1191c0.4-0.1,0.8-0.1,1.2-0.1c2.3,0.4,4.7-0.2,6.5-1.6c1.7-1.3,3.5-2.5,5.3-3.8
		c0.8-0.5,1.5-1.1,2.2-1.7c0.8,1.9,0.8,2.1,0.6,3.5c-0.1,1.5-0.7,2.9-1.7,4.1c-2.7,2.9-6.3,4.9-10.2,5.5c-1.7,0.4-3.4-0.3-4.3-1.7
		C2232.9,1193.8,2233.3,1192.4,2234.2,1191z"/>
	<path class="st0" d="M2235.7,1185.7c1-2.9,3.1-5.4,5.8-6.9c0.6-0.3,1.2-0.5,1.9-0.5c0.7,0,1.3,0.3,1.7,0.8c0.2,0.6,0.1,1.3-0.3,1.8
		c-1.9,2.3-4.4,4-7.3,4.8C2236.9,1185.7,2236.3,1185.7,2235.7,1185.7z"/>
	<path class="st0" d="M2167.7,1179c1.2-2.7,3-4.9,5.4-6.6c0.3-0.2,0.8-0.3,1.1-0.1c0.4,0.4,0.6,0.9,0.6,1.4c0,0.5-0.2,1.1-0.6,1.5
		C2172.6,1176.9,2170.9,1178.7,2167.7,1179z"/>
	<path class="st0" d="M2277.6,1195.4c-0.6-1.2-1.2-1.9-1.2-2.6c-0.1-1.2,0.1-2.5,0.5-3.6c1.8-4.4,4.9-8.3,8.7-11.1
		c0.6-0.4,1.3-0.6,2-0.8c1.2,0.8,0.9,1.8,1,2.7c0.7,4.7-1.5,8.2-5,11C2282,1192.5,2280,1193.7,2277.6,1195.4z"/>
	<path class="st0" d="M1911.1,1180.3c-0.2-0.7-0.3-1.4-0.4-2.1c0.1-1,0.4-1.9,0.8-2.7c2.2-3.5,4.2-7.1,7.5-9.6
		c0.4-0.3,0.8-0.5,1.2-0.7c0.9,0.1,1.6,0.8,1.6,1.8c0.3,2.3-0.4,4.7-2,6.4c-1.2,1.3-2.4,2.6-3.5,4
		C1915.1,1179,1913.2,1180,1911.1,1180.3z"/>
	<path class="st0" d="M1893.8,1246.9c-0.8-2.2-0.2-4,0.6-5.8c1.9-4.4,3.7-8.8,8.2-11.8c0.5,0.5,1.3,0.9,1.6,1.6
		c2,3.9,1.2,8.6-2,11.6C1899.9,1244.7,1897,1246.3,1893.8,1246.9z"/>
	<path class="st0" d="M2163.7,1243.6c2.1,1.6,2.9,4.5,1.9,7c-1,3.1-2.5,5.8-5.5,7.4c-0.1,0.1-0.2,0.1-0.4,0.2
		c-1.3,0.8-2.6,2.7-4.2,1.4c-1.3-1-0.2-2.8,0.3-4.2c0.5-1.4,1.2-2.8,1.9-4.1c0.9-1.7,1.9-3.3,2.9-5
		C2161.3,1245,2162.4,1244.1,2163.7,1243.6z"/>
	<path class="st0" d="M1999.7,1240.3c0.5,0.3,0.9,0.5,1.2,0.8c0.3,0.2,0.4,0.3,0.8,0.6l2.1-0.8c0.2,0.2,0.5,0.2,0.7,0.4
		c4.7,6.6,0.7,12.3-3.4,15.8c-1.2,1-2.9,0.8-3.9-0.4c-0.1-0.1-0.1-0.1-0.1-0.2c-0.9-1.2-1.5-2.6-1.6-4.2
		C1995.3,1248.8,1997,1243.8,1999.7,1240.3z"/>
	<path class="st0" d="M2021.5,1165.2c3.2,2.8,4,5.8,2.5,9.8c-1,2.9-2.8,5.4-5.2,7.2c-1,0.7-2.1,1.2-3.3,1.6c-1.2,0.4-2.6-0.2-3-1.5
		c0-0.1-0.1-0.3-0.1-0.4c-0.2-0.8-0.3-1.6-0.3-2.4c0.7-5.7,3-10.5,7.8-13.8c0.2-0.2,0.5-0.3,0.7-0.4
		C2020.9,1165.3,2021.2,1165.2,2021.5,1165.2z"/>
	<path class="st0" d="M2040.4,1246.5c0-1-0.2-1.5,0-1.8c1.1-1.4,2.2-2.8,3.3-4.1c0.4-0.4,0.9-0.6,1.5-0.6c0.7,0,1.3,0.2,1.8,0.6
		c0.5,0.4,0.1,1.5-0.7,2.1C2044.6,1244,2042.7,1245.1,2040.4,1246.5z"/>
	<path class="st0" d="M1981.8,1171.7c-0.3,4.5-2,8.7-6.8,10.8c-0.4,0.2-0.8,0.3-1.2,0.4c-0.9,0.2-1.8-0.3-2-1.2c0-0.1,0-0.2-0.1-0.3
		c-0.1-0.7-0.1-1.3,0.1-2c1.2-3.8,2.8-7.5,5.7-10.3c0.8-0.8,1.8-1.9,3.2-1.2c1.1,0.6,1,1.8,1.1,2.9
		C1981.8,1171,1981.8,1171.1,1981.8,1171.7z"/>
	<path class="st0" d="M2233.9,1233.4l0.9-1.8L2233.9,1233.4z"/>
</g>
</svg>
