<svg xmlns="http://www.w3.org/2000/svg" viewBox="0 0 1366 768"><g id="Layer_14" data-name="Layer 14"><path d="M1011.6,82c0,10.88-.06,21.76,0,32.64.06,8.56.19,17.12.51,25.68.13,3.36-.11,6.74.24,10.08.67,6.47.64,13,1.29,19.45.42,4.14.81,8.31,1,12.47.19,3.86.68,7.69,1.08,11.51q.88,8.53,1.89,17c.72,6.24,1.56,12.48,2.4,18.71,1.82,13.39,3.63,26.78,6,40.09q2.49,14.16,5,28.32c.85,4.7,1.46,9.44,2.21,14.15.68,4.24,1.2,8.5,1.77,12.74s1,8.64,1.56,12.95c.65,4.88,1.21,9.77,1.8,14.65.51,4.23,1,8.49,1.62,12.7.72,4.81,1.39,9.63,2.23,14.43,1.18,6.66,2.39,13.3,3.88,19.91a217.11,217.11,0,0,0,6.53,23.51,11.06,11.06,0,0,1,.72,4.8" style="fill:none;stroke:#000;stroke-linecap:round;stroke-linejoin:round;stroke-width:2px"/><path d="M198.24,405.76c9.54,0,19,.58,28.56,1.16q11.53.69,23,1.73c12.8,1.16,25.59,2.54,38.4,3.54,10.39.82,20.78,1.73,31.2,2.27,8.24.42,16.48.78,24.72,1.15,12.24.53,24.48,1.11,36.72,1.67,6.56.31,13.13.46,19.68.79,10,.51,20,.63,30,.55,12.08-.09,24.16-.17,36.24-.07,5.52.05,11.05.76,16.57,1.28,5.34.49,10.7,1,16.07,1.35s10.88.39,16.32.43c5,0,9.91-.9,14.88-1.09" style="fill:none;stroke:#000;stroke-linecap:round;stroke-linejoin:round;stroke-width:2px"/><path d="M494.16,559.24c-6.1-.29-12.16.5-18.24.59-3.37.06-6.72.24-10.08.41-8.18.4-16.33,1.09-24.49,1.69-5.84.42-11.68,1-17.5,1.59-6.41.68-12.82,1.4-19.22,2.21-4.62.59-9.27,1.1-13.9,1.64-4.33.5-8.66,1.21-13,1.71s-8.61,1.23-12.95,1.6-8.64,1.08-13,1.64l-9.36,1.2L328.8,575.2c-3.2.4-6.41.74-9.6,1.22s-6.57.89-9.85,1.31c-3,.38-5.91.73-8.87,1.09-4.09.49-8.16,1.09-12.24,1.66-3.92.55-7.85,1.07-11.76,1.69s-7.85,1.19-11.78,1.81c-2.68.42-5.42.74-8.14,1.09-3.61.45-7.2,1.1-10.8,1.65-11,1.67-21.95,4.24-33.12,5-4.23.3-8.47.82-12.72.25" style="fill:none;stroke:#000;stroke-linecap:round;stroke-linejoin:round;stroke-width:2px"/><path d="M903.6,65c0,7.12-.06,14.24,0,21.36.11,10.72.21,21.44.5,32.16.26,9.76.5,19.54,1.23,29.28,1,13.71,2.33,27.41,4.27,41,.72,5,1.25,10.06,1.69,15.12.53,6,.91,12,1.49,18,.5,5.21,1,10.44,1.84,15.61.71,4.1,1.13,8.25,2.41,12.24" style="fill:none;stroke:#000;stroke-linecap:round;stroke-linejoin:round;stroke-width:2px"/><path d="M1163.28,527.92c-3.67-.39-7,1.25-10.3,2.23-11.66,3.45-23.38,6.64-35.07,10-21,6-41.72,12.62-61.9,20.93-2.85,1.17-5.61,2.54-8.41,3.82" style="fill:none;stroke:#000;stroke-linecap:round;stroke-linejoin:round;stroke-width:2px"/><path d="M785.16,650.08c.14.57.28.88-.58,1.25-17.76,7.55-33.13,18.8-47.78,31.15-7.82,6.58-15.86,12.92-23.46,19.75-5.48,4.92-11.12,9.8-14.76,16.46a8.64,8.64,0,0,0-.9,4.35" style="fill:none;stroke:#000;stroke-linecap:round;stroke-linejoin:round;stroke-width:2px"/><path d="M727,527.2c-6.24.48-12.49.88-18.72,1.46-6.81.63-13.62,1.29-20.39,2.19-4.73.62-9.46,1.11-14.18,1.78-3.33.46-6.72.68-10.06,1.11-3.6.45-7.22.9-10.82,1.26a119.91,119.91,0,0,1-12.71,1.08" style="fill:none;stroke:#000;stroke-linecap:round;stroke-linejoin:round;stroke-width:2px"/><path d="M1064.4,475.84c.13,1.1-.17,1.62-1.43,2-10.89,3-21.68,6.45-32.4,10.05a4.23,4.23,0,0,1-2.17.1" style="fill:none;stroke:#000;stroke-linecap:round;stroke-linejoin:round;stroke-width:2px"/></g></svg>
