<svg xmlns="http://www.w3.org/2000/svg" viewBox="0 0 1366 768"><g id="Layer_14" data-name="Layer 14"><path d="M899,135a3.06,3.06,0,0,1-1.63,3.2c-5.65,4-9.43,9.66-13.25,15.28-3.54,5.21-7.2,10.32-12.72,13.68-4.65,2.82-9,1.45-11-3.61A54.79,54.79,0,0,1,857.25,149c-.6-5.59-1.39-11.17-1.66-16.8s-.71-11-.93-16.56c-.33-8-.71-16-1.64-24a100.92,100.92,0,0,0-4.39-20.87,22.17,22.17,0,0,0-2.39-4.8c-1.89-2.91-5.55-3.91-9.11-1.66-4.55,2.87-7.7,7.16-11.07,11.25-9.93,12-17.3,25.61-23.49,39.85C792,139.63,784.81,165.07,776.15,190c-6,17.3-12,34.62-18.28,51.82q-8.42,23.08-17,46.08c-3.08,8.13-6.76,16.05-10.28,24a75.64,75.64,0,0,0-4.78,14.41,30.5,30.5,0,0,0-.24,8.64" style="fill:none;stroke:#000;stroke-linecap:round;stroke-linejoin:round;stroke-width:2px"/><path d="M540.24,415.12c-.44,3,1.17,5.57,2.23,8.13,3.46,8.35,3.24,16.79.85,25.22-3.2,11.24-5.71,22.66-9.06,33.86-4.17,13.9-7.81,28-11.44,42-1.46,5.63-3.3,11.26-3.26,17.25s2.71,10.41,8,13.19a254.49,254.49,0,0,0,42,17.2,175.35,175.35,0,0,0,22.07,5.27c6,1.06,12.17,1.42,18-1.34,5-2.37,8-6.4,9.88-11.51,2.17-5.85,3.25-11.94,4.52-18,1.75-8.35,4-16.55,6.45-24.73,3.63-12.33,7.23-24.69,9.09-37.44a142.38,142.38,0,0,0,1.22-15.59c.33-9.27,5-15.59,13-19.66a31.79,31.79,0,0,0,8.66-6,7.63,7.63,0,0,0,2.37-4.83" style="fill:none;stroke:#000;stroke-linecap:round;stroke-linejoin:round;stroke-width:2px"/><path d="M992.4,325.84c-6,3.37-12,6.67-17.27,11.06-12.94,10.73-26.16,21-41,29a223.48,223.48,0,0,1-27.6,12.47c-18.75,7-38.31,11.05-57.6,16.09-13.55,3.54-26.8,8.06-40.07,12.51-10.27,3.44-20.61,6.64-31,9.83-5.22,1.61-10.31,3.62-15.59,5.07-8.41,2.3-16,.93-22.82-4.38-9.23-7.16-19-13.66-27.55-21.66-8-7.49-14.72-16-17.81-26.82a33.27,33.27,0,0,1,.12-18.48" style="fill:none;stroke:#000;stroke-linecap:round;stroke-linejoin:round;stroke-width:2px"/><path d="M590.4,42.64a265.13,265.13,0,0,1-11.47,29.78c-8.06,18.21-17.5,35.77-25,54.22-4,9.76-7.83,19.56-11.3,29.51-3.83,11-7.48,22-11,33.12q-6.86,21.3-12.51,43c-3.72,14.23-7.21,28.51-11,42.74-3.41,12.94-7.12,25.77-12.28,38.14a71.18,71.18,0,0,0-3,7.89c-1.53,5.36-3.43,10.62-4.42,16.12-.2,1.12-1.26,1.77-1.24,2.9-2.85-.29-2.85-.29-2.85-3.38" style="fill:none;stroke:#000;stroke-linecap:round;stroke-linejoin:round;stroke-width:2px"/><path d="M910.56,269.92c3.59-2.6,7.16-5.23,11.28-6.95,7.32-3.06,14.69-4.42,22.07-.24,3.66,2.07,6.16,5.36,8.66,8.62,4.51,5.9,8.25,12.32,12.66,18.28,4.15,5.61,9.31,10.06,14.68,14.39,4.46,3.59,9,7.13,12.24,12,1.52,2.29,2.82,4.63,1,7.45a2.21,2.21,0,0,0-.27,2.61c2.87,3.68,3.27,8.23,4.23,12.51a128.44,128.44,0,0,1,2.63,16.07c.41,4.14.8,8.31,1.13,12.46a136,136,0,0,0,1.31,13.94c.33,1.87.23,3.83.47,5.76.66,5.19,1.35,10.4,1.89,15.6.56,5.43,1.14,10.86,1.53,16.31.47,6.72,1.06,13.43,1.49,20.16.34,5.36.8,10.72,1.16,16.08s.77,10.72,1.2,16.08c.6,7.53,1.25,15.06,2.13,22.56.81,6.87,1.39,13.77,2.2,20.64.9,7.66,1.59,15.34,2.22,23,.21,2.56-.82,5.49.95,7.63,2.27,2.78,1.8,5.86,1.84,8.94,0,2.32,0,4.64,0,7s0,4.16-1.61,6.07c-1.88,2.17-.9,5.21-1.25,7.85-.95,7-1.41,14.14-3.87,20.88" style="fill:none;stroke:#000;stroke-linecap:round;stroke-linejoin:round;stroke-width:2px"/><path d="M974.64,321.28c-3.31,3.66-7.54,6-11.77,8.39-8.48,4.72-16.12,10.64-23.74,16.59-9.72,7.58-20.43,13.55-31.48,18.88a267.51,267.51,0,0,1-36.46,14.68,323.18,323.18,0,0,1-36.47,8.92c-15.47,2.92-31.07,5.1-46.56,7.88-10.39,1.86-20.75,3.85-30.95,6.52-4.61,1.21-9.21,2.43-13.7,4a5.51,5.51,0,0,1-2.87.5" style="fill:none;stroke:#000;stroke-linecap:round;stroke-linejoin:round;stroke-width:2px"/><path d="M606.24,470.08c-1.91.67-3.7.05-5.52-.47a76.63,76.63,0,0,0-24.48-3.35c-5.68.26-11.21,1-14.64,6.46-2.31,3.66-3.15,7.8-3.58,12-1,9.8-2.2,19.53-5.77,28.8a51.3,51.3,0,0,0-2.17,8.64,9,9,0,0,0,3.34,9.15c6.23,5.37,13.6,8.61,21.15,11.45a60,60,0,0,0,18.95,4.13,17.37,17.37,0,0,0,5.26-.81c2.88-.78,4.73-3.94,4.82-7.36a48.9,48.9,0,0,0-.71-9.36c-.78-4.69.24-9.31.78-13.91,1.22-10.47,2.69-20.9,4.88-31.23a32.7,32.7,0,0,0,.59-8.86c-.1-1.4-.29-2.92-1.27-3.78-1.44-1.25-1.52-2.79-1.75-4.38" style="fill:none;stroke:#000;stroke-linecap:round;stroke-linejoin:round;stroke-width:2px"/><path d="M686.88,359.92c-.66,2,.14,4,0,6a96.22,96.22,0,0,0,1.67,22.76,82,82,0,0,0,5,16.13c4.9,12.32,10.66,24.26,16.37,36.21,6.48,13.6,13.26,27.05,19.88,40.58,6,12.31,12.26,24.52,17.92,37,5.43,12,10.33,24.16,14.9,36.47,4.87,13.1,10,26.08,14.48,39.33,3.55,10.6,6.23,21.45,9.3,32.18a230.35,230.35,0,0,0,8.2,24.47" style="fill:none;stroke:#000;stroke-linecap:round;stroke-linejoin:round;stroke-width:2px"/><path d="M688.08,389c-2.32,1.23-4.65-.07-7-.1-3.59-.05-7.19-.53-10.8-.65a89.65,89.65,0,0,1-13.43-2c-4.7-.88-9.41-1.45-14.17-1.88a145.38,145.38,0,0,1-28.82-5.44,184.51,184.51,0,0,0-20.61-4.65c-12.75-2.28-25.49-4.6-37.94-8.32-13.49-4-26.65-9-40.1-13.15-9.13-2.79-17.74-6.77-26.62-10.15-1.21-.46-.84-1.81-1.67-2.42" style="fill:none;stroke:#000;stroke-linecap:round;stroke-linejoin:round;stroke-width:2px"/><path d="M1012.68,596.08c-1.47-.94-2.67.15-3.69.77-9.48,5.74-18.57,12.06-27.65,18.4-12.66,8.86-24.21,19.2-37.18,27.62A177.33,177.33,0,0,1,918,656.63c-11.31,4.91-22.66,9.67-34.35,13.61a197.29,197.29,0,0,1-29,7.49A181.68,181.68,0,0,1,834,680.05a7.62,7.62,0,0,0-2.15.53c-.4.15-.83.68-1.19.43-2.29-1.59-5-1.12-7.47-1.31a73.28,73.28,0,0,1-19.91-4.42" style="fill:none;stroke:#000;stroke-linecap:round;stroke-linejoin:round;stroke-width:2px"/><path d="M975.36,320.92c-1.38-1.72-2-3.89-3.32-5.67-4-5.31-8.8-10-13-15.12-4.66-5.78-8.9-11.89-13.53-17.69a47,47,0,0,0-6.89-7.51c-5.95-4.87-12.31-5.34-19.23-2.39-5,2.13-9.15,5.41-13.19,8.9-6.63,5.74-13,11.75-17.73,19.22-1.86,2.93-3.43,6-5.06,9.1-4.22,7.91-11,12.61-19.19,15.65a155.29,155.29,0,0,1-20.9,5.7c-9.43,2.05-18.81,4.16-27.86,7.64-7.12,2.73-14.19,5.58-21.31,8.29a153.7,153.7,0,0,1-22.85,7,43.6,43.6,0,0,1-11,1.08c-2.92-.13-3.07-.29-3.39-3.14-.52-4.65-1.73-9.06-5.25-12.48" style="fill:none;stroke:#000;stroke-linecap:round;stroke-linejoin:round;stroke-width:2px"/><path d="M901.68,284.56c-1.21-2-3.06-1.89-4.79-1.17-17,7.16-34.67,12.78-52.1,18.91-15,5.27-29.73,11.17-44.43,17.21-11.51,4.74-22.75,10.14-34.52,14.24-2.63.92-5.27,1.81-7.92,2.64a15.84,15.84,0,0,0-6,3.13" style="fill:none;stroke:#000;stroke-linecap:round;stroke-linejoin:round;stroke-width:2px"/><path d="M710.64,443.68c-2.17,2-4.43,1.89-7.23,1.06-5.91-1.75-12.1-2.17-18.21-3a135.61,135.61,0,0,1-16.8-3.33c-9.22-2.44-18.44-4.85-27.84-6.5-5.43-1-10.85-1.93-16.32-2.66a262,262,0,0,1-26.15-4.33c-9.74-2.33-19.48-4.7-29.31-6.58-5.69-1.09-11.47-1.88-17.25-2.58-2.56-.31-5.24-1.29-7.68-1.16-3.1.17-5.61-1.15-8.42-1.6a104.15,104.15,0,0,1-41.77-16.32,247.56,247.56,0,0,0-29.25-16.14,34.44,34.44,0,0,1-10.32-7.43c-3.14-3.39-4.62-7.07-3.76-12a100.27,100.27,0,0,1,3.77-15.56,61.55,61.55,0,0,1,8.18-16.3c4.82-6.65,12-9.65,19.64-11.53,2.38-.59,4.79-1,7.2-1.45a7.59,7.59,0,0,1,4.08.71" style="fill:none;stroke:#000;stroke-linecap:round;stroke-linejoin:round;stroke-width:2px"/><path d="M725.28,333.28c-4.55,1.45-9.37,1.67-13.92,3.11-3.56,1.13-7,2.52-9.59,5.3-2.89,3.06-2.62,7.24-.48,11a70.87,70.87,0,0,0,10.38,13.62c6.69,7.08,11.88,15.17,16.93,23.37,3.52,5.71,7.49,11.12,11.09,16.78a3.94,3.94,0,0,1,.95,2.88" style="fill:none;stroke:#000;stroke-linecap:round;stroke-linejoin:round;stroke-width:2px"/><path d="M795.36,651c-1.94.88-1.53,2.75-.88,3.79,3.07,4.95,4.54,10.61,7.37,15.64.73,1.3.68,2.72,1,4.08.13.54.18.53-.3.49" style="fill:none;stroke:#000;stroke-linecap:round;stroke-linejoin:round;stroke-width:2px"/><path d="M742.32,332.08c.09,1.57-1.36,1.15-1.92,1.13-4.88-.22-9.76.73-14.64.07" style="fill:none;stroke:#000;stroke-linecap:round;stroke-linejoin:round;stroke-width:2px"/><path d="M751.44,339.52c-1.21,1.23-2.74,1.31-4.32,1.2" style="fill:none;stroke:#000;stroke-linecap:round;stroke-linejoin:round;stroke-width:2px"/></g></svg>
