<svg xmlns="http://www.w3.org/2000/svg" viewBox="0 0 1366 768"><g id="Layer_3" data-name="Layer 3"><path d="M316.94,152.05c3.81,2.58,4.26,7.47,7.49,10.11,1.3-.39,1-1.38,1.1-2.1.65-5,1.16-10.06,1.87-15.07.6-4.2,1.44-8.36,2.1-12.54.25-1.62.3-3.26.4-4.9,0-.22-.22-.46-.42-.83-1.51.15-2.72,1.08-4,1.81a14.06,14.06,0,0,1-7.07,1.79c-3,0-4.21-1.4-3.7-4.43a10,10,0,0,1,.78-2.76c2.69-5.44,5.94-10.47,11-14.09,3.1-2.23,5.9-1.84,8.2,1.17a25.15,25.15,0,0,1,2,3.12,6.34,6.34,0,0,1,.49,6.23c-1.93,4.15-2.1,8.76-2.89,13.19C333,139.35,332.15,146,331,152.6a43.6,43.6,0,0,0-.77,8.53,49.73,49.73,0,0,1-.62,6.53,3.09,3.09,0,0,1-2.2,2.69,1.94,1.94,0,0,1-2.28-.3c-1.57-1.71-3.4-3.3-4.5-5.29a94.35,94.35,0,0,1-4.28-9.75A2.41,2.41,0,0,1,316.94,152.05Zm3.7-26.64c.4.13.54.23.65.2a22.85,22.85,0,0,0,10.56-6.5,2.85,2.85,0,0,0,.78-1.8c-.05-2.07-.61-4-2.5-5.12a4.66,4.66,0,0,0-1.31.48,31.14,31.14,0,0,0-8.21,11A4.45,4.45,0,0,0,320.64,125.41Z"/><path d="M470.16,92.12a4.53,4.53,0,0,1,2.29,3.94,46.58,46.58,0,0,1-.08,6.14c-.3,3.13-.88,6.24-1.23,9.37-.23,2-.26,4.07-.4,6.58.83-.39,1.35-.49,1.63-.8.73-.81,1.29-1.78,2-2.55a4.76,4.76,0,0,1,5.65-.94,1.9,1.9,0,0,1,1.06,2.37,5.55,5.55,0,0,1-3.06,3.67c-1.23.59-2.51,1.08-3.7,1.74a1.74,1.74,0,0,0,0,3.24,28.39,28.39,0,0,0,7.79,2.51c1.18.24,2.5.16,3.47,1.57-.44.41-.81,1-1.34,1.21a11.75,11.75,0,0,1-6.87.35c-2-.54-3.9-1.19-6-1.82a13.35,13.35,0,0,1-2.17,2.21c-1.74,1.12-3.24.36-3.58-1.69-.18-1.06-.26-2.15-.42-3.57a6.31,6.31,0,0,0-1.9.74,26.09,26.09,0,0,1-10.76,5.8,22,22,0,0,1-6.87.76c-3.28-.09-5.2-2.41-5.17-5.69a5.66,5.66,0,0,1,.06-.82,26.61,26.61,0,0,1,10.06-16.88,10,10,0,0,1,2.53-1.34,3.78,3.78,0,0,1,3.89.53,9.34,9.34,0,0,1,3.78,7.83,1.82,1.82,0,0,1-.37,1.13,2.76,2.76,0,0,1-1.35.75,1.23,1.23,0,0,1-1-.57,25.36,25.36,0,0,1-1.08-2.65,4.28,4.28,0,0,0-2.64-2.93,6.29,6.29,0,0,0-3.63,2.51,25.45,25.45,0,0,0-5.09,8.85c-1.39,4.27.2,6.39,4.69,6.1a19.91,19.91,0,0,0,9.25-3.08c1.15-.72,2.1-1.74,3.21-2.55a7.31,7.31,0,0,0,3.06-6c.22-3.83.78-7.63,1.08-11.46.28-3.54.43-7.1.59-10.65C467.76,93.81,467.73,93.8,470.16,92.12Z"/><path d="M226.93,259.59a1.87,1.87,0,0,1-.33.26c-2.21.81-3,.63-3.43-1.25-.67-2.79-1.15-5.63-1.55-8.48a44.85,44.85,0,0,1-.19-4.93c-.1-3.51-.1-3.51-3-5.95l2.72-2.7c0-3.92,0-7.75,0-11.58,0-1.1-.14-2.19-.11-3.28,0-1.4.54-1.91,1.93-2.25,1.16-.28,2,0,2.35,1a15.88,15.88,0,0,1,.82,3.58c.2,2.18.19,4.38.35,6.57.07,1,.32,2.1.48,3.12,3.22-.17,3.8-.69,3.61-3.16a20.42,20.42,0,0,1-.4-2.84,4.1,4.1,0,0,1,.9-2.17,1.79,1.79,0,0,1,2.85.07,7.18,7.18,0,0,1,1.56,4.58c.06,3.29.08,6.58.22,9.86a10.67,10.67,0,0,0,.91,2.56c.84-.94,1.33-1.55,1.88-2.09,2-1.95,3.32-2,5.34-.33a7,7,0,0,1,2.53,3.64c.33,1.33.88,2.6,1.16,3.94.65,3.08,1.19,6.19,1.79,9.28.3,1.53-.43,2.31-1.86,2.65-1.52-.56-1.8-2-2.12-3.27-.58-2.4-1.08-4.82-1.59-7.23a9.39,9.39,0,0,0-2.38-4.69c-.48-.5-1.54-.42-1.75.22a35.33,35.33,0,0,0-1.51,5.09c-.4,2.15-.55,4.34-.77,6.52a3.41,3.41,0,0,1-1.15,2.52c-1.64,1.37-3.31,1-3.64-1.12-.52-3.38-.82-6.8-1.17-10.2-.23-2.18-.37-4.37-.59-6.56a6.77,6.77,0,0,0-.45-2,1.34,1.34,0,0,0-1.7-.75,2.64,2.64,0,0,0-2.27,3c0,4.66-.23,9.33.55,13.95C227.15,256.64,227.67,258.12,226.93,259.59Z"/><path d="M365.85,195a14.17,14.17,0,0,1-7.37,2.81c-2.6.34-4.36-.82-4.61-3.4a15.32,15.32,0,0,1,.32-4.87,27.47,27.47,0,0,1,5.72-10.81,7,7,0,0,1,1.19-1.11c4.39-3.43,6.8-3.28,11,.65a2.81,2.81,0,0,0,.7.32c4.09-2.46,4.09-2.46,7,.17.31-.22.65-.44.95-.69,3.68-3,8.74-1.77,10.4,2.64a26.72,26.72,0,0,1,1.7,9.67c0,2.32-.48,4.62,0,7a1.54,1.54,0,0,1-.76,1.25,2,2,0,0,1-1.5-.19,3.19,3.19,0,0,1-1.52-2.75c-.22-2.18-.33-4.38-.65-6.54a33.85,33.85,0,0,0-1.23-5.58,2.53,2.53,0,0,0-2.8-1.94,2.79,2.79,0,0,0-2.68,2.18,22.19,22.19,0,0,0-.58,4.86c0,2.73.34,5.47.45,8.21a3.1,3.1,0,0,1-.56,1.87,2.15,2.15,0,0,1-3.49-.29,9.19,9.19,0,0,1-.79-3.12c-.31-3.14-.45-6.29-.77-9.42-.15-1.43-.12-3-1.51-4.43a10.11,10.11,0,0,0-.87,1.41c-.62,1.52-1.08,3.12-1.79,4.59a9.8,9.8,0,0,0,.15,9.45,7.2,7.2,0,0,1,.42,1.47c-2.58,2.05-3.54,2-4.93-.36C367,197.12,366.5,196.19,365.85,195ZM367.46,182c0,.15.07-.17-.07-.38a4,4,0,0,0-1.17-1.49c-.31-.17-1.08.16-1.43.48a20.31,20.31,0,0,0-6,9.64,9.88,9.88,0,0,0-.34,2.42A1.28,1.28,0,0,0,360.4,194C365.07,191.51,367.46,187.67,367.46,182Z"/><path d="M276.16,276.1a18.38,18.38,0,0,1,4,4.73,13.38,13.38,0,0,0,5.45,4.86,14.08,14.08,0,0,0,2.17.64,11.11,11.11,0,0,0,1.08-2.62c.6-4.2,1.15-8.42,1.59-12.64.38-3.54.63-7.1.87-10.65.08-1.2.32-2.46-.64-3.71a12.44,12.44,0,0,0-1.46-.11c-1.5.08-3,.29-4.5.29-3.36,0-4.44-1.11-4.24-4.5a18.4,18.4,0,0,1,3.37-9.14,26.71,26.71,0,0,1,8.19-8,8.45,8.45,0,0,1,5.05-1.42c1.88.1,3.19,1,3.38,2.94a17,17,0,0,1-.22,5.69c-.75,2.89-1.14,5.91-2.57,8.64a10.61,10.61,0,0,0-.85,3.58c-.45,3.67-.93,7.34-1.17,11a103.2,103.2,0,0,1-1.82,14.66c-.44,2.14-.47,4.36-.88,6.51a5.9,5.9,0,0,1-1.32,2.9,3.92,3.92,0,0,1-4.89.83c-1.7-.87-3.37-1.81-5-2.72a3.52,3.52,0,0,1-.69-.44C278,284.68,276.36,281.24,276.16,276.1Zm9.78-23c2.11.8,3.24-.65,4.61-1.45a4.06,4.06,0,0,0,2.25-2.75,14.34,14.34,0,0,1,2.65-5.9,4.86,4.86,0,0,0,.81-2.27,2.27,2.27,0,0,0-.58-1.79,2,2,0,0,0-1.81.2,26.8,26.8,0,0,0-7.67,9.43A4.91,4.91,0,0,0,285.94,253.11Z"/><path d="M344.72,217.81a3.11,3.11,0,0,1,2.1,3.12c.14,2.45.18,4.92.1,7.37-.17,5.47-.53,10.94-.65,16.41a31.5,31.5,0,0,0,1.5,11.75,3.3,3.3,0,0,1,0,1.13,2.71,2.71,0,0,1-3.14.51,5.2,5.2,0,0,1-1.89-2.05,37,37,0,0,1-1.54-4.12,16.23,16.23,0,0,0-1.67,1.09c-.92.82-1.76,1.73-2.68,2.54-2.78,2.45-6.1,2.91-9.61,2.43-2.26-.32-5.11-3.58-5.47-6.08a16.2,16.2,0,0,1,.91-7.27,17.14,17.14,0,0,1,6.48-9.21c3.19-2.24,7-1,7.55,2.71a17.53,17.53,0,0,0,.8,3.19c1.37,3.87-1.62,9.27-5.79,10.42-1.28.35-2.52.83-3.65,1.2a1.44,1.44,0,0,0,1.06,1.79,5.52,5.52,0,0,0,5.13-.43c4.09-2.59,7.07-5.83,7.11-11.17.06-7.12.51-14.23.71-21.34C342.15,219.9,343.15,218.8,344.72,217.81ZM327.32,249a5.39,5.39,0,0,0,3.91-1.81,6.29,6.29,0,0,0,1.86-6.69,1.41,1.41,0,0,0-2.51-.64,12.71,12.71,0,0,0-3.62,8A3.48,3.48,0,0,0,327.32,249Z"/><path d="M236.7,185.72c-1.22,1.74-1,3.53-.73,5.28a3.52,3.52,0,0,0,3.39,3,4.7,4.7,0,0,0,1.63,0c3.87-1,7.59-2.31,10.43-5.35a5.51,5.51,0,0,0,1.44-3.72c.35-7.25.76-14.49,1.07-21.74.06-1.33.24-2.43,1.51-3.1.78-.41,1.85-.27,2.13.5a11.18,11.18,0,0,1,.89,3.53c0,2.87-.15,5.74-.26,8.61-.16,4.38-.49,8.76-.42,13.13,0,2.72.72,5.42,1,8.14a2.83,2.83,0,0,1-.34,1.9c-.87,1.13-2.51,1.58-3.43.11-.56-.92-.94-2-1.41-2.92-.29-.58-.59-1.16-1-2-1.47.88-2.77,1.59-4,2.41a22.51,22.51,0,0,1-11.21,3.58,4.59,4.59,0,0,1-4.93-2.86,13.81,13.81,0,0,1-1.31-5.54c-.06-1.61-.28-3.22-.47-5.28a8.29,8.29,0,0,0,1.75-1.44,17.74,17.74,0,0,0,1.25-2.55,18.1,18.1,0,0,1,6.15-7c2.77-1.74,7-1.27,8.5,2.62a5.2,5.2,0,0,1,.34,1.6,8.89,8.89,0,0,1-7.62,8.74c-.82.08-1.65,0-2.46,0A16.82,16.82,0,0,0,236.7,185.72Zm6-11.06a10.69,10.69,0,0,0-2,1.54,21.36,21.36,0,0,0-2.25,3.38,1.62,1.62,0,0,0,.31,1.46,1.81,1.81,0,0,0,1.44.45,8.89,8.89,0,0,0,2.32-.81,3.22,3.22,0,0,0,2.11-2.34A3.14,3.14,0,0,0,242.74,174.66Z"/><path d="M412.46,191.86c-.75.53-1.44.95-2,1.45a19.41,19.41,0,0,1-9.14,4.37c-3.1.55-5.15-.91-5.28-4.05a10.35,10.35,0,0,1,.66-4,39.15,39.15,0,0,1,10.41-15.06c1.63-1.51,3.93-2.32,6.44-3.75,2-2.47,1.42-6.59,3.39-9.68,2.55.57,3.5,1.29,3.59,3.33.22,5.34.44,10.72-1.31,15.88a17.24,17.24,0,0,0-.9,8.07c.44,3.11.94,6.21,1.41,9.32a2,2,0,0,1-2,2.53,3,3,0,0,1-1.8-.72,6.43,6.43,0,0,1-1.82-4C413.89,194.32,414,193,412.46,191.86Zm-.59-15.19c-.5.15-.82.15-1,.31a36.71,36.71,0,0,0-9.65,13.61,3.54,3.54,0,0,0,0,3.17,2.47,2.47,0,0,0,.78.12,3.92,3.92,0,0,0,1.14-.42,24.09,24.09,0,0,0,8-6.89c1.44-2,2.3-4,1.94-6.43C412.89,179,413.32,177.62,411.87,176.67Z"/><path d="M187.91,110.26c.52-.82,1-1.75,1.65-2.6a2.77,2.77,0,0,1,2.9-1.1,8.53,8.53,0,0,1,7,6.11c1.8,5.31,1.8,10.77,1.88,16.25a3.76,3.76,0,0,1-2.51,3.75c-1.37-.57-1.43-1.76-1.55-2.8-.19-1.77-.15-3.56-.34-5.33a49.58,49.58,0,0,0-.95-6.9,17.4,17.4,0,0,0-2.08-4.41c-.29-.5-1-.74-1.74-1.21a9.78,9.78,0,0,0-1.78,6.72c.11,2.45.18,4.92.16,7.38a5.12,5.12,0,0,1-3.16,4.75c-.46-.54-1.27-1.06-1.35-1.67a20.09,20.09,0,0,1-.09-4.9c.45-3.73-.69-7-2.39-10.23-.63-1.2-.86-1.33-3-2.57-1.28.56-1.16,1.75-1.16,2.81,0,3.28.06,6.57.09,9.86,0,1,0,1.92,0,2.88a3.07,3.07,0,0,1-1.44,2.37,1.62,1.62,0,0,1-2.46-.47,6.94,6.94,0,0,1-.82-2.69c-.19-6-.28-12.06-.39-18.09a7.24,7.24,0,0,1,.06-1.23,1.87,1.87,0,0,1,2.41-1.57c.91.23,1.81.89,2.69.84,3-.14,5.24,1.24,7.15,3.37a3.42,3.42,0,0,0,.62.52A2.61,2.61,0,0,0,187.91,110.26Z"/><path d="M582.63,127.47a55.59,55.59,0,0,0,3.28-6.93c.43-1.15,1-2.26,1.33-3.44.9-3.17,3.08-4.67,6.27-5,1.64.48,2.69,1.78,3.77,3a3.85,3.85,0,0,1,.86,1.81,8.37,8.37,0,0,1,.19,3.25,71.71,71.71,0,0,1-3,10.62c-1.55,3.73-4.89,5.78-8.66,7-1.88.61-3.45-.28-4.92-1.31-.55-.39-1-1.16-1.55-1.26-2.44-.42-3-2.23-3.16-4.2a23.57,23.57,0,0,1,0-5.31c.81-6,1.09-12,3.26-17.71a20,20,0,0,0,.5-3.23,7.14,7.14,0,0,1,.63-1.91,1.54,1.54,0,0,1,2.15-.42,3.07,3.07,0,0,1,1.5,2.77,44.14,44.14,0,0,1-.71,5.25c-.9,4.55-2.51,9-2.71,13.66,0,1,.06,2.11.1,3.17Zm9.67-10.79c-1.58.59-1.79,1.89-2.26,3-1.82,4.26-3.29,8.67-5.91,12.55a1.54,1.54,0,0,0-.35.73,3,3,0,0,0,.38,1.45,1.23,1.23,0,0,0,1.11.11,10.66,10.66,0,0,0,4.75-3.74,52.87,52.87,0,0,0,3.5-6,7.74,7.74,0,0,0,0-6.74A6.33,6.33,0,0,0,592.3,116.68Z"/><path d="M563.8,194.91c-2.77-1.48-3.14-1.9-4-4.29C558,186,558,181.23,557.9,176.45c0-1.27,1-2.12,2.42-2.36a2,2,0,0,1,2.28,1.33,15.75,15.75,0,0,1,.93,3.55c.21,1.77.2,3.55.31,5.33.09,1.59,0,3.22,1,4.58,1.11-.07,1.18-.86,1.36-1.46,1-3.26,2-6.55,3-9.8a25,25,0,0,1,1.72-3.67,1.51,1.51,0,0,1,.91-.77,4.6,4.6,0,0,1,2.32.18A2,2,0,0,1,575,175c-.64,3.21-1,6.58-2.3,9.53a58.91,58.91,0,0,0-4,12.86c-1.29,6.86-2.38,13.75-3.57,20.62a9.54,9.54,0,0,1-.46,2,2,2,0,0,1-1.93,1.25,1.45,1.45,0,0,1-1.47-1.63,49.18,49.18,0,0,1,.19-6.54c.69-5.42,1.57-10.82,2.34-16.24A14.26,14.26,0,0,0,563.8,194.91Z"/><path d="M286.61,114.52l2.54-2.42a4.63,4.63,0,0,1,2.8,4.4c.09,5.06.11,10.13.11,15.19a2.28,2.28,0,0,1-2.34,2.35,2.13,2.13,0,0,1-2.16-2,37.76,37.76,0,0,1-.38-4.5c-.07-2.6,0-5.2-.07-7.8a29.54,29.54,0,0,0-.57-3.4c-2,2.9-3.51,5.28-6,6.73s-3.63,1.59-8.51,1a12.76,12.76,0,0,0-.68,1.77,2.27,2.27,0,0,0,1.34,2.7,14,14,0,0,0,10,1c.76-.17,1.52-.38,2.72-.68-.41.78-.5,1.27-.74,1.36a53.15,53.15,0,0,1-5.81,2,13.5,13.5,0,0,1-8.46-.63c-3.34-1.33-4.68-3.89-3.5-7.23A21.57,21.57,0,0,1,277.65,112a8.52,8.52,0,0,1,4.82-.58,3.73,3.73,0,0,1,1.76.93C285.07,113,285.83,113.8,286.61,114.52Zm-10.54,4.12.39.91a3.88,3.88,0,0,0,4.07-2.27c.14-.25-.06-.76-.23-1.08a.74.74,0,0,0-.71-.13C278.39,116.9,277.24,117.78,276.07,118.64Z"/><path d="M245.82,120.23c2.11-.76,2.86-2.17,4-3.09s2.21-2,3.44-2.88c2.93-2,6.38-1.31,8,1.77,1.94,3.58,2.17,7.32-.17,10.88-.81,1.24-1.91,2.29-2.82,3.47-2.67,3.46-6.33,3.37-10.08,2.79a3,3,0,0,1-2.63-2.29,6,6,0,0,1,.14-1.8,2.75,2.75,0,0,1,.68-.09c1.43.29,2.65,1.78,4.22,1a34.62,34.62,0,0,0,5.65-3.22,4.81,4.81,0,0,0,1.73-4,4.62,4.62,0,0,0-2.39-4.14c-1.87.07-3.13,1.33-4.45,2.52-1.83,1.64-3.67,3.26-5.57,4.82a7.29,7.29,0,0,1-2.13,1.14,1.79,1.79,0,0,1-2.37-1.06,9.7,9.7,0,0,1-.52-2.78c-.36-7.21,1.19-14.14,3.3-21a4.63,4.63,0,0,1,.7-1.47,3,3,0,0,1,2.77-1.44c.81.12,1.41,1.33,1.2,2.75a28.86,28.86,0,0,1-1.07,4.79A51.6,51.6,0,0,0,245.66,117,20.45,20.45,0,0,0,245.82,120.23Z"/><path d="M379.6,132.43c-3.3,3.54-6.23,3.58-8.8.34-1.08-1.37-1.95-2.91-2.86-4.29-1.6-.09-2.38,1-3.36,1.66a12.27,12.27,0,0,1-9,2.1,3.35,3.35,0,0,1-3.13-2.8,14.23,14.23,0,0,1-.05-4.87c.75-4.23,2.77-8,4.92-11.66a14.62,14.62,0,0,1,6-5.42,3.35,3.35,0,0,1,4.15.47,13.92,13.92,0,0,1,1.81,2.22,31.38,31.38,0,0,0,2.63,3.65,6,6,0,0,1,1.38,6.81,9.73,9.73,0,0,0-.46,5.64c.13.54.26,1.07.43,1.59C374.47,131.26,375.45,132,379.6,132.43Zm-21.51-4c3.21-.29,5.38-2.22,7.55-4.08,2.56-2.17,3.55-4.8,2-8-.42-.86-.63-1.83-1.12-2.63a10.29,10.29,0,0,0-1.66-1.72c-2.87,1.17-3.58,3.92-5.09,5.93a15.35,15.35,0,0,0-2.61,7.28A3.18,3.18,0,0,0,358.09,128.43Z"/><path d="M209,121.47a6.43,6.43,0,0,0,8.07,6.61c2.45-.23,4.88-.69,7.32-1a22.51,22.51,0,0,1,2.38,0,9.57,9.57,0,0,1-1.19,1.57c-3.24,2.51-6.77,4-11,3.06a40.07,40.07,0,0,1-4-.91c-4.7-1.6-7.15-5.53-6.81-10.48.3-4.2,2.37-7.6,5.07-10.53a11.38,11.38,0,0,1,12.84-2.59,7.77,7.77,0,0,1,4.43,8,4.28,4.28,0,0,1-1.48,2.83c-3.91,3.32-8.13,5.55-13.48,3.87C210.68,121.74,210.14,121.69,209,121.47Zm4.72-3.6a9.17,9.17,0,0,0,7.07-2.75,2.42,2.42,0,0,0-.26-3.89,4.46,4.46,0,0,0-2.24-.82c-3.87-.18-6.41,1.9-8.21,5.1a1.33,1.33,0,0,0,.81,2C211.84,117.67,212.79,117.74,213.74,117.87Z"/><path d="M180.2,187.27c-1.49.26-2.2,1.56-3.07,2.51-2.14,2.31-5,3.34-7.72,4.52a2.7,2.7,0,0,1-3.28-.93c-2-2.14-2.2-4.63-1.63-7.28.77-3.65,2.49-6.91,4.16-10.21a21.55,21.55,0,0,1,5.08-6.35,5.79,5.79,0,0,1,7.79.1,9.31,9.31,0,0,1,3.1,6.5c.08,1.09-.06,2.19,0,3.28.26,3,.46,6,.92,9,.35,2.27.7,4.68,3.64,5.67a15.6,15.6,0,0,1-1.69,1.79,2.13,2.13,0,0,1-3.26-.23,8.72,8.72,0,0,1-2.52-4.6C181.5,189.71,181.52,188.23,180.2,187.27Zm-3.28-15a30.77,30.77,0,0,0-7.69,14.33,10,10,0,0,0-.21,2,1.64,1.64,0,0,0,1.77,1.89,25.41,25.41,0,0,0,7.17-6.44,11.43,11.43,0,0,0,2.42-6.83C180.48,175,179.71,173.24,176.92,172.26Z"/><path d="M566.54,132.55c-.82.51-1.78,1-2.63,1.65a9.32,9.32,0,0,1-5,1.69c-2.45.25-3.78-1-4.23-3.46a7.07,7.07,0,0,1,.37-3.2,44.37,44.37,0,0,1,7.31-14.14,15.82,15.82,0,0,1,8.07-6,5.15,5.15,0,0,1,3,3.17,17.67,17.67,0,0,1,1,10.85c-.34,1.47-.71,2.93-1.08,4.39a12.53,12.53,0,0,0,.19,8.07,6.64,6.64,0,0,1,.33,1.18,1.24,1.24,0,0,1-1.51,1.39,4.66,4.66,0,0,1-3.08-2.51A5.36,5.36,0,0,0,566.54,132.55Zm-7-.39a16.41,16.41,0,0,0,8.13-6.43c2-2.77,1.91-6.2,2.51-9.4a1.32,1.32,0,0,0-.76-1.71c-1.35.12-2,1.23-2.82,2.1-3.16,3.37-4.68,7.66-6.51,11.76C559.68,129.4,559.77,130.55,559.55,132.16Z"/><path d="M206.58,246.73c1.72-2,1.89-4,2.56-5.69.78-2,1.61-4,2.52-6a1.8,1.8,0,0,1,2-1.06,2.25,2.25,0,0,1,2,1.8,7.39,7.39,0,0,1-.38,5.23,58.51,58.51,0,0,0-5.1,15.5c-.68,3.2-1.72,6.32-2.44,9.51-.58,2.53-.92,5.1-1.37,7.66a5.52,5.52,0,0,1-.42,2,2.72,2.72,0,0,1-1.61,1,1.2,1.2,0,0,1-1.4-1.17,37.44,37.44,0,0,1-.18-6.93c.53-4.18.87-8.42,2.26-12.47a13,13,0,0,0,.5-2.4,1.78,1.78,0,0,0-1-2.07c-3.13-1.2-3.65-3.84-3.74-6.66-.07-2.6.05-5.19.11-7.79a4.18,4.18,0,0,1,1.19-3c.5-.5,1.08-1,1.78-.65s1.28.81,1.38,1.34a24.61,24.61,0,0,1,.16,3.66c.09,2,.16,4.07.32,6.1A9.65,9.65,0,0,0,206.58,246.73Z"/><path d="M161.58,115.86a18.33,18.33,0,0,1-3.34,10.53,11.54,11.54,0,0,1-11.62,4.39c-2.29-.42-3.77-2.16-4.76-4.18a11,11,0,0,1-.53-8.39,28.68,28.68,0,0,1,6.22-10.92,10.93,10.93,0,0,1,5.07-3.32c2.18-.6,3.37,0,4.09,2.15a7.87,7.87,0,0,0,2.18,3.86c.84.7,1.86,1.23,2.11,2.4C161.28,113.71,161.45,115.06,161.58,115.86Zm-11.49-5.36a33.07,33.07,0,0,0-4.44,8.87,6.78,6.78,0,0,0,1.32,6.57,3.58,3.58,0,0,0,5.36.47c3.87-3.09,4.49-7.32,4-11.83a4.22,4.22,0,0,0-3-3.56A21.3,21.3,0,0,0,150.09,110.5Z"/><path d="M639.11,134.69a6.2,6.2,0,0,1-3.72,2.77,3,3,0,0,1-3.32-1c-.64-.83-1.17-1.76-1.88-2.86-.63.37-1.17.73-1.74,1-1.82.93-3.61,1.95-5.49,2.73-1.57.66-2.6.21-3.38-1.33a8.2,8.2,0,0,1-.74-2.72,23.47,23.47,0,0,1,.84-8.93c.59-2.1,1.14-4.22,1.56-6.36a9.94,9.94,0,0,1,2.55-5,1.49,1.49,0,0,1,2.42.33,4.4,4.4,0,0,1,.46,3.56c-.62,2.66-1.3,5.31-2.11,7.92a15.07,15.07,0,0,0-.56,7.08,1.41,1.41,0,0,0,2-.27c2.74-2.39,4.94-5.07,5.3-8.92a14.68,14.68,0,0,1,2.83-7.18,2.42,2.42,0,0,1,1.62-.93,1.54,1.54,0,0,1,1.53,1.62,33,33,0,0,1-.46,4.87c-.33,1.88-.9,3.72-1.26,5.6a17.33,17.33,0,0,0-.35,3.66,8.1,8.1,0,0,0,.61,3.14c.59,1.27,2,.36,3,.78C638.87,134.23,638.91,134.38,639.11,134.69Z"/><path d="M533.8,192.3c-1.89,2.21-3.46,2.18-5.14.94l-3-2.3a16.6,16.6,0,0,0-2,1.47c-2.53,2.49-5.77,3-9.07,3.28a4,4,0,0,1-4.52-4.51,6.49,6.49,0,0,1,.36-2c2.43-6.27,5.89-11.71,12.07-15,1.34-.71,2.65-1.86,4.15-1.13,1.68.81,3.58,1.52,4.5,3.39a9,9,0,0,1,.25,8.3,8.71,8.71,0,0,0-1.15,2.56C529.92,189.75,531,191.53,533.8,192.3Zm-18,.1a4.84,4.84,0,0,0,1.11-.17c5.52-2.6,9.05-6.78,10.11-12.89a1.43,1.43,0,0,0-1.8-1.59,6.69,6.69,0,0,0-2.14,1.1,27.87,27.87,0,0,0-8.11,11,1.72,1.72,0,0,0-.14,1.18A6.7,6.7,0,0,0,515.82,192.4Z"/><path d="M651.49,117.45c1.17,0,2.36,0,3.55,0a20,20,0,0,1,3.62.49,1.59,1.59,0,0,1,.45,2.69,6.59,6.59,0,0,1-3.72,1.57c-1.35.12-2.7.27-4,.4-1.95,3.83-2.1,6.85-.82,14.89-.53,1.26-1.75,1.5-2.86,1.85a3.43,3.43,0,0,1-2.21-3.25c-.21-3.13-.39-6.27-.48-9.4-.07-2.32.12-4.65-1.07-6.87,1.43-1.73,1.52-3.75,1.8-5.8.68-5,1.58-10,2.47-15a7.4,7.4,0,0,1,1.1-2.59,2,2,0,0,1,2.48-.91,2.72,2.72,0,0,1,1.41,1.79,26,26,0,0,1-.2,5.29c-.5,3.52-1.16,7-1.76,10.52A6.29,6.29,0,0,0,651.49,117.45Z"/><path d="M500.24,125.41a2.19,2.19,0,0,0-.49,2.93,3.54,3.54,0,0,0,1.82,1.5c4.43,1.14,8.87,1.53,13.21-.49.93-.44,1.87-1.25,3.2-.26-.36.41-.62.93-1,1.14-5.25,2.6-10.75,3.89-16.64,2.9-4.36-.74-6.63-3.73-5.46-7.87,1.93-6.85,5.93-12,13.19-13.74,2.82-.69,5.44-.36,7.41,2.12,1.48,1.87,1.38,5.63-.51,7.11a42.09,42.09,0,0,1-6.53,4.18c-1,.53-2.39.39-3.6.44C503.19,125.44,501.57,125.4,500.24,125.41ZM512,116.74c-.34-.48-.51-1-.8-1.07a5.13,5.13,0,0,0-2.32-.38,10.88,10.88,0,0,0-6.56,4.44,1.29,1.29,0,0,0-.08,1.12,1.23,1.23,0,0,0,.91.61c2.85-.37,5.59-1.1,7.78-3.1A7.72,7.72,0,0,0,512,116.74Z"/><path d="M152.86,247.45c1.53-4.76,3.59-9.39,3.47-14.57a6.3,6.3,0,0,1,.11-1.63,1.71,1.71,0,0,1,1.77-1.42,2.8,2.8,0,0,1,1.73.78,3.42,3.42,0,0,1,.78,1.85,16.4,16.4,0,0,1-.5,7.72c-1.46,4-3,8-3.1,12.29,0,.4-.23.8-.26,1.2a3.43,3.43,0,0,1-3.13,3.27,3.78,3.78,0,0,1-4.51-2,14.27,14.27,0,0,1-2.48-6.46c-.43-5.6-.74-11.21-1-16.81a7.64,7.64,0,0,1,.41-2.81,1.69,1.69,0,0,1,1.9-1.24,2.23,2.23,0,0,1,1.45,1.2,18.87,18.87,0,0,1,.57,3.61c.39,3.81.7,7.63,1.13,11.44a28.89,28.89,0,0,0,.81,3.52Z"/><path d="M390.49,257.61c-5.46,2.77-10.5,3.66-15.72,2.55a6.73,6.73,0,0,1-5.45-6c-.61-3.88.8-7.29,2.49-10.61a22.35,22.35,0,0,1,7.88-8.22c2-1.33,4.2-1.22,6.35-.84,2,.35,3.47,4,2.33,5.75-1.86,2.78-4.2,5.11-7.49,6.11a13.82,13.82,0,0,1-3.65.13c-1.79,0-2.5.55-2.7,2.38a28.17,28.17,0,0,0,0,4.5,3.71,3.71,0,0,0,3,3.48,16.23,16.23,0,0,0,7.7.69A8.6,8.6,0,0,1,390.49,257.61Zm-7.15-19.47a4.87,4.87,0,0,0-3.48,3.09C381.92,240.55,381.92,240.55,383.34,238.14Z"/><path d="M146.28,97.54c-1.31,3.21-4.36,3.36-7.33,4-.48,3.94-1.06,7.85-1.42,11.77-.33,3.67-.54,7.36-.58,11a48.47,48.47,0,0,0,.61,6.1c.18,1.63-.33,2.48-1.7,2.77a2.12,2.12,0,0,1-2.72-1.83,35.6,35.6,0,0,1-1.07-6.45c-.28-5.62.42-11.2,1-16.77a32.23,32.23,0,0,0,.28-4.49,2.1,2.1,0,0,0-2.35-2.27c-1.77.06-3.52.4-5.29.49a1.8,1.8,0,0,1-1.22-.79c-.14-.18.08-.82.32-1a6.83,6.83,0,0,1,2-1.46c2.64-1.08,5.25-2.3,8.21-2.4s6-.35,9-.49A2,2,0,0,1,146.28,97.54Z"/><path d="M217.54,184.94l3.68-3.45a25.66,25.66,0,0,1,3,.17c2.22.35,3.16,1.3,3.47,3.42a6.69,6.69,0,0,1-1.36,5.41,14.76,14.76,0,0,1-7.58,5.34c-2.45.69-4.45-.21-5.21-2.62a24.63,24.63,0,0,1-1.06-5.64,119,119,0,0,1,.37-18.88,3.78,3.78,0,0,1,1.64-3.14,1.74,1.74,0,0,1,2.7.78,8.64,8.64,0,0,1,.35,2.81c-.09,2.19-.38,4.36-.49,6.55s-.17,4.65-.16,7A10.26,10.26,0,0,0,217.54,184.94Zm2.79,5.53c1.1-.76,2.22-1,2.4-2.24a1.26,1.26,0,0,0-.39-1,1.1,1.1,0,0,0-1,0A2.74,2.74,0,0,0,220.33,190.47Z"/><path d="M268.91,235.83a7.89,7.89,0,0,1,1,.61c4.68,4,5.18,5.05,5.83,11.16.35,3.39.87,6.78,1.32,10.17.18,1.38-.16,2.44-1.68,2.84-1.61-.62-2.1-2.06-2.41-3.54-.49-2.41-.81-4.86-1.3-7.27a50,50,0,0,0-1.42-5.54,5.3,5.3,0,0,0-1.38-2,1.88,1.88,0,0,0-2.27-.31,1.55,1.55,0,0,0-.95,1.66c.24,1.9.56,3.79.86,5.68.36,2.3.77,4.59,1.1,6.89a6.59,6.59,0,0,1-.07,2,2.19,2.19,0,0,1-2.42,1.75,2.05,2.05,0,0,1-2.16-1.53q-.86-3.8-1.58-7.62c-.63-3.36-1.25-6.73-1.78-10.1-.3-1.93,1-3.69,2.62-3.27,2,.51,3.43-.34,5-1.11A11.42,11.42,0,0,1,268.91,235.83Z"/><path d="M274,173.37c1-.25,1.8-.43,2.57-.63a27.33,27.33,0,0,1,2.76-.72c1.41-.21,2.67.41,2.72,1.23.06,1.17-.85,1.7-1.68,2.11a26.81,26.81,0,0,1-4.14,1.73c-2.4.73-3.64,2.14-3.64,4.74,0,3.69-.18,7.38-.27,11.07,0,1.08,0,2.16,0,2.9a4.94,4.94,0,0,1-.53.65c-2.81,1.71-4.18,1.19-4.25-1.94-.11-5.19,0-10.4.17-15.59.05-2.19.43-4.36.51-6.55.14-3.86,1.33-7.53,2.07-11.28A5.26,5.26,0,0,1,272,158.4a3,3,0,0,1,2.29-.34,1.7,1.7,0,0,1,1.27,1.88A36.78,36.78,0,0,1,275,164c-.4,2.29-.93,4.55-1.28,6.85A10.18,10.18,0,0,0,274,173.37Z"/><path d="M166,247.29c-.72,1.28,0,2.35.64,3.38a3.81,3.81,0,0,0,3,2,46.86,46.86,0,0,0,5.3-.06c.9,0,1.78-.25,3.65-.53-1.23,1.09-1.64,1.72-2.19,1.9a50.68,50.68,0,0,1-5.92,1.59,7.88,7.88,0,0,1-3.24-.15c-4.14-1-6.33-3.66-6.23-8A18.39,18.39,0,0,1,167.12,234c.8-.73,1.75-1.3,2.61-2a6.53,6.53,0,0,1,4.64-1.24,3.81,3.81,0,0,1,3.42,2.5,6.79,6.79,0,0,1-1.28,8.28c-2.67,2.87-5.61,5.17-9.76,5.34C166.51,246.92,166.28,247.15,166,247.29Zm1-4.72c3.87-.5,5.65-2.84,7.24-5.41a2.22,2.22,0,0,0,.09-1.19,1.36,1.36,0,0,0-2.06-1.16,14.72,14.72,0,0,0-5.06,5.73A7.4,7.4,0,0,0,167,242.57Z"/><path d="M612.7,111.53a4.73,4.73,0,0,1,2.45,3.44c1.14,5.79,1,11.42-2.28,16.63a13.82,13.82,0,0,1-7.31,5.68,8.76,8.76,0,0,1-2.41.42,2.4,2.4,0,0,1-2.79-1.89,13.82,13.82,0,0,1-.27-4.44,25,25,0,0,1,3.15-8.84,34.94,34.94,0,0,1,5.67-8.5C609.94,113,610.86,111.69,612.7,111.53Zm-.79,6.69c-3.4,3.51-4.73,7.43-6.37,11.15a3.46,3.46,0,0,0,0,3.72c2.48-.6,3.63-2.74,4.7-4.65C611.89,125.49,613.1,122.31,611.91,118.22Z"/><path d="M489.29,172.54c1.11,1.37,1.9,2.47,2.82,3.47a2.68,2.68,0,0,1,.44,3.38,10.25,10.25,0,0,1-9.29,5.71c-1.9,0-3.8-.23-5.65-.35-1.4,1.61-1.16,3.2-.52,4.75a4.65,4.65,0,0,0,3.27,2.88,19.14,19.14,0,0,0,2.84.32c.92.07,1.84.11,3.14.19-.52.59-.72,1-1,1.09a29.33,29.33,0,0,1-4.44.72,8.22,8.22,0,0,1-7.71-3.83,7.09,7.09,0,0,1-1.18-3.43c-.25-3.11-.3-3.1-2.76-4.78,0-.12,0-.33.09-.35,1.05-.22,2.11-.41,3.27-.63a34.52,34.52,0,0,1,2.09-3,45.21,45.21,0,0,1,4.15-4.48,9.06,9.06,0,0,1,8.41-2.15Zm-11,8.93c3.68,1,6.45.17,8.72-2.36a2.22,2.22,0,0,0,.06-2.65,2.13,2.13,0,0,0-2.1-1,6,6,0,0,0-1.52.48C481.07,176.93,479.51,178.69,478.31,181.47Z"/><path d="M198.14,178.84a21.85,21.85,0,0,0-.37,3.53c.27,3.82.65,7.63,1,11.44,0,.54.24,1.07.29,1.61a1.36,1.36,0,0,1-.92,1.63,2.58,2.58,0,0,1-1.91-.07,7.11,7.11,0,0,1-2-2.52,9.5,9.5,0,0,1-.65-3.19,116.73,116.73,0,0,1,.08-21.72,35.61,35.61,0,0,0,.26-7.37,6.13,6.13,0,0,1,.63-3.11,1.77,1.77,0,0,1,3.06-.09,6.92,6.92,0,0,1,1,3c.06,2.74-.14,5.47-.21,8.21,0,1.33-.43,2.75,1,4,.91-.1,2-.23,3-.31a13.38,13.38,0,0,1,2.45-.05,1.8,1.8,0,0,1,1.68,1.55,3,3,0,0,1-.56,1.84,3.35,3.35,0,0,1-2.85,1.35C201.62,178.67,200.13,178.75,198.14,178.84Z"/><path d="M352.63,251.76c4.68,4,5.51,4.32,7.93,3.21-.7-1.77-2.26-2.64-3.68-3.66a9.07,9.07,0,0,1-3.8-4.68,11.19,11.19,0,0,1,3.79-11.77c1.92-1.43,3.79-3.29,6.58-2.85a12.24,12.24,0,0,1,1.23.1c1.52.41,2.82,1.1,3.18,2.82s-.31,2.93-2.15,3.73a16,16,0,0,1-1.35-1.2c-1.38-1.51-2.43-1.71-3.82-.65a7.34,7.34,0,0,0-1.56,9.95,13.59,13.59,0,0,0,2.32,2.29c1.15,1,2.44,1.79,3.53,2.82a10.33,10.33,0,0,1,2,2.58,2.36,2.36,0,0,1-.95,3.21,9.13,9.13,0,0,1-8.26,1.1,23.6,23.6,0,0,1-5-2.89C351.34,255,351.39,254.13,352.63,251.76Z"/><path d="M421.17,114.56c.55-5,1.07-9.74,1.61-14.48a41.46,41.46,0,0,1,.64-4.45,2.18,2.18,0,0,1,2.52-1.6,2,2,0,0,1,1.85,1.9,33.5,33.5,0,0,1,.06,5.3c-.19,2.31-.64,4.6-.92,6.9-.16,1.34-.49,2.71.42,4.27.46,0,1.1.14,1.74.2a1.47,1.47,0,0,1,1.4,1.25,1.75,1.75,0,0,1-.89,2.08c-1.08.57-2.18,1.09-3.29,1.65-.92,3.73-.71,7.41-.62,11.09,0,.82.2,1.63.24,2.44.06,1.23-.44,1.89-1.49,2.08-1.3.23-2.5-.16-2.74-1.17a32.11,32.11,0,0,1-.83-5.24,40.38,40.38,0,0,1,.14-4.91,3.07,3.07,0,0,0-2.08-3.5c-1.45-.59-1.31-1.85.13-2.73C419.63,115.29,420.25,115,421.17,114.56Z"/><path d="M402.16,128.61c2.32.36,4.4,2.56,7.08.8-1-1.65-2.53-2.52-3.88-3.62-1.79-1.45-3.51-3-5.15-4.64s-1.57-3.41-.84-5.34a15,15,0,0,1,1-1.81c2.63-4.67,10.07-7,13.89-6.09,2,.49,3.18,1.52,3.52,3.49a1.75,1.75,0,0,1-1,2c-.57.23-1.58.39-1.89.08-2.82-2.84-5.6-1.3-8.24.11-3.32,1.77-3.58,3.84-1,6.48,1,1.06,2.34,1.87,3.47,2.86,1.75,1.52,3.46,3.07,5.16,4.65a5,5,0,0,1,1,1.29,2.69,2.69,0,0,1-1.49,4c-3.25,1.4-6.48.74-9.57-.42-1-.38-1.66-1.7-2.39-2.67C401.7,129.65,402,129.13,402.16,128.61Z"/><path d="M300.86,125.32c0,1.78,0,3.57,0,5.34a6,6,0,0,1-.45,2c-.33.83-1.61,1.64-2.31,1.31a3.6,3.6,0,0,1-1.68-1.59,5.87,5.87,0,0,1-.27-2.42,73.84,73.84,0,0,0-.48-11.89,14.48,14.48,0,0,1,0-2.87,2.59,2.59,0,0,1,2.18-2.61,6.36,6.36,0,0,0,2.31-.69c1.87-1.4,3.57-.82,5.36.1a9.83,9.83,0,0,1,4.36,4.22,20.6,20.6,0,0,1,2.84,8.5c.09,1.36.39,2.71.56,4.07a22.93,22.93,0,0,1,.21,2.86,1.74,1.74,0,0,1-1.24,1.9,1.61,1.61,0,0,1-1.91-1.18,26,26,0,0,1-.8-2.74c-.65-2.52-1.25-5.05-1.94-7.56a10.84,10.84,0,0,0-3.77-5.26,1.37,1.37,0,0,0-2.1.46,11.83,11.83,0,0,0-.82,3.14c-.14,1.63,0,3.28,0,4.92Z"/><path d="M130.89,246.16c-.84,2.6.17,4.77,1.84,6.7a3.49,3.49,0,0,0,3.35,1.16c2-.38,4-.89,5.8-1.31a6.78,6.78,0,0,1-3.49,3c-3.54,1.59-7.91.82-10.18-1.81a8.42,8.42,0,0,1-2-6.51,57.89,57.89,0,0,1,1.6-9.28c.71-2.55,2.68-4.46,4.8-6a4,4,0,0,1,4.64-.15c2.32,1.4,4.32,3,4.38,6,.07,3.17-1.85,5.1-4.48,6.27A52.93,52.93,0,0,1,130.89,246.16Zm6.62-8.25a11.29,11.29,0,0,0-1.51-1.74c-.62-.48-1.28-.12-1.82.35a5.36,5.36,0,0,0-1.14,1.14c-.55.93-1.07,1.94-.45,3.05.37.67,1.76.61,3-.17a6.58,6.58,0,0,0,1.49-1.35A4.16,4.16,0,0,0,137.51,237.91Z"/><path d="M150.36,182.41a16,16,0,0,0,0,3.13c.59,2.67,1.86,4.81,4.78,5.56.86.22,2,0,2.61,1.14-2,.84-4,1.62-6.23,1a5.87,5.87,0,0,1-4.38-3.9c-.55-1.68-.91-3.43-1.43-5.12-.46-1.51-1.11-2-2.69-2-1.88.08-3.72.19-5.33-.91.13-.9.77-.93,1.26-1,1.08-.18,2.17-.23,3.25-.39,2.61-.4,5.22-.82,5.7-4.15a50.51,50.51,0,0,1,4.7-5.09c2.38-2,6.43-1.5,8.6.83a2.51,2.51,0,0,1,.48,1.87,6.48,6.48,0,0,1-2.24,3.81,21.26,21.26,0,0,1-6.83,4.39Zm4.44-8.32-.18.31c.11,0,.24.15.31.12s.12-.19.18-.29Z"/><path d="M138.17,173.42l-1.83-3.62c-.56.15-1.08.13-1.3.37a10.74,10.74,0,0,0-3.07,6.55,7.21,7.21,0,0,0,1.48,5.39c1.58,1.87,3.29,3.63,5,5.35,1.55,1.54,3.22,2.95,4.84,4.41a2.3,2.3,0,0,1,.89,2.55,3,3,0,0,1-2.46,1.93c-3,.39-8.46-2.64-9.64-5.27a1.6,1.6,0,0,1-.24-.78c.39-2.71-1.28-4.61-2.51-6.72-2.53-4.3-2-8.7-.06-13,1-2.2,3-3.56,5-4.71,1.67-1,5.61.65,6.45,2.39a3.09,3.09,0,0,1-.63,3.75A16.89,16.89,0,0,1,138.17,173.42Z"/><path d="M278.89,194.53a2.37,2.37,0,0,1,2.87-1,9.19,9.19,0,0,0,6-.81,1.34,1.34,0,0,0,.4-2.33c-1.33-1.38-2.75-2.67-4.07-4a9.16,9.16,0,0,1-.52-12,16.82,16.82,0,0,1,6.62-5.33,3.16,3.16,0,0,1,3.48.3c.65.54,1.23,1.27.89,2.12-.21.55-.89,1.27-1.38,1.29-2.38.1-3.57,1.76-4.91,3.31-2.13,2.47-1.92,4.91,0,7.47a40.4,40.4,0,0,0,3.74,3.78,19,19,0,0,1,2.43,2.73,2.33,2.33,0,0,1-.29,3c-3,3.06-6.49,5-10.94,4.6C281.15,197.46,279.51,196.7,278.89,194.53Z"/><path d="M461.46,178.38c-1.08.21-1.61.33-2.14.42-.12,0-.26-.07-.41-.11-.6-.76-.63-1.7.13-2.17,3-1.88,3.17-4.87,3.23-7.92,0-2.2,0-4.39.13-6.58.08-1.64.88-2.46,2.15-2.48a2.38,2.38,0,0,1,2.6,2.13,42.54,42.54,0,0,1,.38,5.31c0,1-.12,1.91-.16,2.87a3.24,3.24,0,0,0,1.5,3.11c1.39,1,1.45,2.34.17,2.91-2,.89-2.36,2.37-2.52,4.26a58,58,0,0,0-.23,12.28,4.09,4.09,0,0,1,0,1.63,1.88,1.88,0,0,1-1,1.16,1.61,1.61,0,0,1-1.37-.48,5.77,5.77,0,0,1-1-2.21c-.5-2.55-1-5.11-1.26-7.68C461.5,182.82,461.55,180.78,461.46,178.38Z"/><path d="M486.68,130.26c.53-4.38.94-9,1.7-13.59s1.79-8.83,2.83-13.21a9.71,9.71,0,0,1,1.56-3.26,1.72,1.72,0,0,1,3,.42,4.38,4.38,0,0,1,.52,1.93,17.87,17.87,0,0,1-.36,3.25c-.48,2.41-1,4.82-1.58,7.2-1.71,6.51-2,13.23-3.15,19.82a5,5,0,0,1-.69,2.28,3,3,0,0,1-2.12.85c-.43,0-1.08-.83-1.2-1.38A38.42,38.42,0,0,1,486.68,130.26Z"/><path d="M188.18,236.85c1.36-1.22,2.21-2.1,3.17-2.81,2.23-1.64,4.47-1.58,6.32.14.33.31.41.9.74,1.67a21.82,21.82,0,0,1-2.61.21,3.81,3.81,0,0,0-4.19,3.15c-.71,2.63-1.28,5.31-1.76,8a27,27,0,0,0-.29,4.5c0,2.27-1.12,3.52-3.59,4a9.14,9.14,0,0,1-1.29-2.32c-1.33-6-1.42-12.21-1.74-18.35a4.59,4.59,0,0,1,.69-2.29,1.65,1.65,0,0,1,2-1,2.9,2.9,0,0,1,1.32,1.4A32.14,32.14,0,0,1,188.18,236.85Z"/><path d="M526.67,134.65a15,15,0,0,1-2.08.9,1.57,1.57,0,0,1-2-.93,9.82,9.82,0,0,1-.81-2.71,87.55,87.55,0,0,1,0-16.35,5.63,5.63,0,0,1,.11-.81c.24-1.12.67-2.11,1.93-2.38s2,.49,2.53,1.55a7.45,7.45,0,0,0,.77,1c1.72-.38,3.41-.81,5.13-1.12a11,11,0,0,1,3.23-.23,2.88,2.88,0,0,1,2,1.18c.45.91-.5,1.43-1.23,1.78a44.22,44.22,0,0,1-4.09,1.86c-3.81,1.4-5.6,4.14-5.59,8.13,0,1.23.09,2.46.11,3.68S526.67,132.94,526.67,134.65Z"/><path d="M550.66,179c.23,4.19-.37,9.13.56,14a8.56,8.56,0,0,1,.13,2.85,1.77,1.77,0,0,1-3,1.09,4.18,4.18,0,0,1-1.22-2.06c-.34-1.45-.47-3-.67-4.44a135.88,135.88,0,0,1-.76-19.66,20.85,20.85,0,0,1,.23-3.26c.3-1.79,1.3-2.83,2.5-2.8s2.12,1.16,2.41,2.92a15.21,15.21,0,0,1,.16,2.86C550.93,173.11,550.8,175.7,550.66,179Z"/><path d="M495.58,172.76l2.13,2.83a3.5,3.5,0,0,0,1-.12c3.11-1.29,6.17-.75,9.2.23,1,.33,1.44,1.12,1,2.38-1.27-.07-2.47-.22-3.66-.2-2.68.05-3.65.8-4.3,3.46a32.86,32.86,0,0,0-.76,4.85c-.2,2-.23,4.09-.37,6.14-.06.79-.21,1.57-.34,2.47a7.06,7.06,0,0,1-1.68.37c-1.94-.12-2.57-.57-2.83-2.28-.37-2.43-.62-4.88-.87-7.32-.22-2.18-.36-4.36-.56-6.54A8.35,8.35,0,0,1,495.58,172.76Z"/><path d="M535.55,179.7c.12-2.45.3-4.91.35-7.37a11.34,11.34,0,0,1,1.41-4.66c.38-.81,1-1.37,1.91-1.15a2.32,2.32,0,0,1,2,1.78,6.8,6.8,0,0,1,0,1.63c-.14,2.18-.27,4.36-.47,6.54a57.64,57.64,0,0,0,.53,15.52,9.77,9.77,0,0,1,.26,2.83,2.55,2.55,0,0,1-1.11,1.56,1.78,1.78,0,0,1-2.25-.38,7.34,7.34,0,0,1-1.82-4.05A57.77,57.77,0,0,1,535.55,179.7Z"/><path d="M441.8,185.93c.35-5.41.66-10.32,1-15.23a5.42,5.42,0,0,1,1.58-3.68,1.82,1.82,0,0,1,3.05.5,6,6,0,0,1,.38,2.38c-.1,2.59-.27,5.19-.5,7.77s-.54,5.17-.85,7.75a11.84,11.84,0,0,0,1.19,7.15c.91,1.72.32,2.92-1.41,3.51a1.91,1.91,0,0,1-2.23-.5,6.6,6.6,0,0,1-1.88-4C442,189.53,441.88,187.48,441.8,185.93Z"/><path d="M312.49,189.38c-1.34,0-2.12-.38-2.4-1.58-.33-1.39.39-2.47,2.12-3a48.56,48.56,0,0,1,11.65-2.15c2.18-.07,4.35-.45,6.53-.69.68-.07,1.35-.22,2-.23,1.66-.05,2.48.48,2.92,1.71a2.34,2.34,0,0,1-1,2.85,7.05,7.05,0,0,1-2.51,1.18,41,41,0,0,1-5.28.79C322,188.69,317.5,189,312.49,189.38Z"/><path d="M432.13,133c-1.28-1.61-1.07-3.28-.88-4.88.49-4.06,1.08-8.11,1.63-12.16q.06-.41.15-.81c.34-1.37,1.17-2.14,2.17-2a2.39,2.39,0,0,1,2.16,2.13,31,31,0,0,1,0,5.7c-.31,2.84-.93,5.65-1.3,8.49C435.74,131.6,434.74,132.92,432.13,133Z"/><path d="M250.4,245.79c0-1.4-.06-2.5,0-3.59a9.8,9.8,0,0,1,.46-2.4c.44-1.32,1.07-2.57,2.6-2.86.9-.17,1.64,1.16,1.82,3.25.1,1.08.09,2.18.16,3.27.18,3.14.39,6.27.58,9.4a18.32,18.32,0,0,1,.1,2.45,1.9,1.9,0,0,1-1.59,1.65,1.65,1.65,0,0,1-2.13-.72,14.46,14.46,0,0,1-1.33-3.82C250.71,250.13,250.6,247.8,250.4,245.79Z"/><path d="M455,184.62c0,1.63,0,3.26,0,4.89a7.76,7.76,0,0,1-.4,2,1.19,1.19,0,0,1-2,.41,9.87,9.87,0,0,1-1.53-2.81,28.13,28.13,0,0,1-.72-10.1,4,4,0,0,1,1.49-2.79,1.75,1.75,0,0,1,2.77.44,6.08,6.08,0,0,1,.63,2.31c.09,1.89,0,3.79,0,5.69Z"/><path d="M397.67,256.75c-1.5.07-2.66-1.36-2.06-2.55a2.63,2.63,0,0,1,2.77-1.09,1.88,1.88,0,0,1,1.34,2.14C399.57,256.16,398.84,256.7,397.67,256.75Z"/><path d="M439,104c-.09.77-1.14,1.41-2.19,1.34a1.59,1.59,0,0,1-1.36-1.68c.1-1.17,1.22-2.14,2.14-1.86A2.3,2.3,0,0,1,439,104Z"/><path d="M291.66,103.54a1.69,1.69,0,0,1-1.82,1.75,1.55,1.55,0,0,1-1.45-1.62,2.06,2.06,0,0,1,1.86-2.24C291.09,101.42,291.72,102.37,291.66,103.54Z"/><path d="M253.59,230.85a2,2,0,0,1-2-1.64,2.15,2.15,0,0,1,1.93-1.76,1.7,1.7,0,0,1,.06,3.4Z"/><path d="M455.32,163.05c-.38-.41-.75-.64-.85-1a1.58,1.58,0,0,1,1.15-2.16c.67-.14,1.45-.1,1.69.66A1.71,1.71,0,0,1,457,162,7.14,7.14,0,0,1,455.32,163.05Z"/><path d="M320.64,125.41a4.45,4.45,0,0,1,0-1.78,31.14,31.14,0,0,1,8.21-11,4.66,4.66,0,0,1,1.31-.48c1.89,1.15,2.45,3,2.5,5.12a2.85,2.85,0,0,1-.78,1.8,22.85,22.85,0,0,1-10.56,6.5C321.18,125.64,321,125.54,320.64,125.41Z" style="fill:#fff"/><path d="M367.46,182c0,5.7-2.39,9.54-7.06,12a1.28,1.28,0,0,1-1.91-1.31,9.88,9.88,0,0,1,.34-2.42,20.31,20.31,0,0,1,6-9.64c.35-.32,1.12-.65,1.43-.48a4,4,0,0,1,1.17,1.49C367.53,181.8,367.48,182.12,367.46,182Z" style="fill:#fff"/><path d="M285.94,253.11a4.91,4.91,0,0,1,.26-4.53,26.8,26.8,0,0,1,7.67-9.43,2,2,0,0,1,1.81-.2,2.27,2.27,0,0,1,.58,1.79,4.86,4.86,0,0,1-.81,2.27,14.34,14.34,0,0,0-2.65,5.9,4.06,4.06,0,0,1-2.25,2.75C289.18,252.46,288.05,253.91,285.94,253.11Z" style="fill:#fff"/><path d="M327.32,249a3.48,3.48,0,0,1-.36-1.12,12.71,12.71,0,0,1,3.62-8,1.41,1.41,0,0,1,2.51.64,6.29,6.29,0,0,1-1.86,6.69A5.39,5.39,0,0,1,327.32,249Z" style="fill:#fff"/><path d="M242.74,174.66a3.14,3.14,0,0,1,1.95,3.68,3.22,3.22,0,0,1-2.11,2.34,8.89,8.89,0,0,1-2.32.81,1.81,1.81,0,0,1-1.44-.45,1.62,1.62,0,0,1-.31-1.46,21.36,21.36,0,0,1,2.25-3.38A10.69,10.69,0,0,1,242.74,174.66Z" style="fill:#fff"/><path d="M411.87,176.67c1.45,1,1,2.3,1.19,3.47.36,2.46-.5,4.41-1.94,6.43a24.09,24.09,0,0,1-8,6.89,3.92,3.92,0,0,1-1.14.42,2.47,2.47,0,0,1-.78-.12,3.54,3.54,0,0,1,0-3.17A36.71,36.71,0,0,1,410.87,177C411.05,176.82,411.37,176.82,411.87,176.67Z" style="fill:#fff"/><path d="M592.3,116.68a6.33,6.33,0,0,1,1.21,1.36,7.74,7.74,0,0,1,0,6.74,52.87,52.87,0,0,1-3.5,6,10.66,10.66,0,0,1-4.75,3.74,1.23,1.23,0,0,1-1.11-.11,3,3,0,0,1-.38-1.45,1.54,1.54,0,0,1,.35-.73c2.62-3.88,4.09-8.29,5.91-12.55C590.51,118.57,590.72,117.27,592.3,116.68Z" style="fill:#fff"/><path d="M276.07,118.64c1.17-.86,2.32-1.74,3.52-2.57a.74.74,0,0,1,.71.13c.17.32.37.83.23,1.08a3.88,3.88,0,0,1-4.07,2.27Z" style="fill:#fff"/><path d="M358.09,128.43a3.18,3.18,0,0,1-1-3.26,15.35,15.35,0,0,1,2.61-7.28c1.51-2,2.22-4.76,5.09-5.93a10.29,10.29,0,0,1,1.66,1.72c.49.8.7,1.77,1.12,2.63,1.59,3.24.6,5.87-2,8C363.47,126.21,361.3,128.14,358.09,128.43Z" style="fill:#fff"/><path d="M213.74,117.87c-1-.13-1.9-.2-2.83-.39a1.33,1.33,0,0,1-.81-2c1.8-3.2,4.34-5.28,8.21-5.1a4.46,4.46,0,0,1,2.24.82,2.42,2.42,0,0,1,.26,3.89A9.17,9.17,0,0,1,213.74,117.87Z" style="fill:#fff"/><path d="M176.92,172.26c2.79,1,3.56,2.78,3.46,5a11.43,11.43,0,0,1-2.42,6.83,25.41,25.41,0,0,1-7.17,6.44,1.64,1.64,0,0,1-1.77-1.89,10,10,0,0,1,.21-2A30.77,30.77,0,0,1,176.92,172.26Z" style="fill:#fff"/><path d="M559.55,132.16c.22-1.61.13-2.76.55-3.68,1.83-4.1,3.35-8.39,6.51-11.76.83-.87,1.47-2,2.82-2.1a1.32,1.32,0,0,1,.76,1.71c-.6,3.2-.47,6.63-2.51,9.4A16.41,16.41,0,0,1,559.55,132.16Z" style="fill:#fff"/><path d="M150.09,110.5a21.3,21.3,0,0,1,3.21.52,4.22,4.22,0,0,1,3,3.56c.49,4.51-.13,8.74-4,11.83a3.58,3.58,0,0,1-5.36-.47,6.78,6.78,0,0,1-1.32-6.57A33.07,33.07,0,0,1,150.09,110.5Z" style="fill:#fff"/><path d="M515.82,192.4a6.7,6.7,0,0,1-1-1.35,1.72,1.72,0,0,1,.14-1.18,27.87,27.87,0,0,1,8.11-11,6.69,6.69,0,0,1,2.14-1.1,1.43,1.43,0,0,1,1.8,1.59c-1.06,6.11-4.59,10.29-10.11,12.89A4.84,4.84,0,0,1,515.82,192.4Z" style="fill:#fff"/><path d="M512,116.74a7.72,7.72,0,0,1-1.07,1.62c-2.19,2-4.93,2.73-7.78,3.1a1.23,1.23,0,0,1-.91-.61,1.29,1.29,0,0,1,.08-1.12,10.88,10.88,0,0,1,6.56-4.44,5.13,5.13,0,0,1,2.32.38C511.45,115.76,511.62,116.26,512,116.74Z" style="fill:#fff"/><path d="M383.34,238.14c-1.42,2.41-1.42,2.41-3.48,3.09A4.87,4.87,0,0,1,383.34,238.14Z" style="fill:#fff"/><path d="M220.33,190.47a2.74,2.74,0,0,1,1-3.26,1.1,1.1,0,0,1,1,0,1.26,1.26,0,0,1,.39,1C222.55,189.49,221.43,189.71,220.33,190.47Z" style="fill:#fff"/><path d="M167,242.57a7.4,7.4,0,0,1,.21-2,14.72,14.72,0,0,1,5.06-5.73,1.36,1.36,0,0,1,2.06,1.16,2.22,2.22,0,0,1-.09,1.19C172.64,239.73,170.86,242.07,167,242.57Z" style="fill:#fff"/><path d="M611.91,118.22c1.19,4.09,0,7.27-1.67,10.22-1.07,1.91-2.22,4.05-4.7,4.65a3.46,3.46,0,0,1,0-3.72C607.18,125.65,608.51,121.73,611.91,118.22Z" style="fill:#fff"/><path d="M478.31,181.47c1.2-2.78,2.76-4.54,5.16-5.48a6,6,0,0,1,1.52-.48,2.13,2.13,0,0,1,2.1,1,2.22,2.22,0,0,1-.06,2.65C484.76,181.64,482,182.51,478.31,181.47Z" style="fill:#fff"/><path d="M137.51,237.91a4.16,4.16,0,0,1-.45,1.28,6.58,6.58,0,0,1-1.49,1.35c-1.22.78-2.61.84-3,.17-.62-1.11-.1-2.12.45-3.05a5.36,5.36,0,0,1,1.14-1.14c.54-.47,1.2-.83,1.82-.35A11.29,11.29,0,0,1,137.51,237.91Z" style="fill:#fff"/><path d="M154.8,174.09l.31.14c-.06.1-.1.25-.18.29s-.2-.07-.31-.12Z" style="fill:#fff"/></g></svg>
