<svg xmlns="http://www.w3.org/2000/svg" viewBox="0 0 1366 768"><g id="Layer_19" data-name="Layer 19"><path d="M1199.76,178.72c-3.74.16-7-1.56-10.55-2.45-7.4-1.88-14.85-3.48-22.32-5.05-9-1.89-18.07-3.16-27.14-4.4-5.55-.76-11.18-1.15-16.78-1.62-10.15-.87-20.32-1.34-30.49-1.54-7-.15-13.92-.35-20.88.16-1.59.12-3.2,0-4.8,0-14.56.08-29.11,1.07-43.68.67-6.8-.18-13.62.17-20.39-.29-4.57-.31-9.16,0-13.68-.48-3.46-.39-6.9-.12-10.33-.4-6.15-.51-12.31-.72-18.48-1-5.52-.26-11-.66-16.56-1s-10.87-.66-16.32-1c-5.6-.32-11.19-.66-16.8-1-6.48-.35-13-.64-19.44-1-7.6-.38-15.2-.59-22.79-1-4.49-.25-9-.1-13.45-.37-11.91-.72-23.84-.73-35.76-1.05-7.28-.19-14.56-.33-21.84-.38-14.4-.09-28.8-.39-43.2-.17s-29-.28-43.44.29c-8.41.33-16.81,0-25.2.4-11.27.58-22.57.5-33.84,1-12.8.55-25.62,1-38.4,2.05-11,.89-22,2-32.87,3.74-12.46,2-24.85,4.57-36.74,9-.41.15-.91.06-1.19.51" style="fill:none;stroke:#000;stroke-linecap:round;stroke-linejoin:round;stroke-width:2px"/><path d="M1143.12,226.72a205.79,205.79,0,0,1-20.63-1.26c-7.38-.93-14.75-2-22.1-3.25-9.72-1.66-19.48-3.15-29.28-4.31a200.69,200.69,0,0,0-29.51-1.73,113.6,113.6,0,0,0-37.44,7.67c-11.23,4.29-22.11,9.44-33.34,13.73-9,3.43-18.24,6.1-27.16,9.74a133.52,133.52,0,0,0-16.28,8c-.63.36-1.74.67-1.46,1.88" style="fill:none;stroke:#000;stroke-linecap:round;stroke-linejoin:round;stroke-width:2px"/><path d="M553.44,4c.32,2.84-1.47,5-2.45,7.42A237.15,237.15,0,0,0,540.49,45c-3.41,14-5.84,28.28-8.32,42.5-1.35,7.74-2.65,15.5-4,23.25-1.19,6.94-2.3,13.86-2.87,20.89-.41,5-.85,10.09-1.46,15.11-1.12,9.29-2.53,18.56-5.92,27.37a1.28,1.28,0,0,0,0,.48" style="fill:none;stroke:#000;stroke-linecap:round;stroke-linejoin:round;stroke-width:2px"/><path d="M419,259.84l-28.8,10.56c-13.2,4.81-26.42,9.55-39.6,14.41-16.74,6.19-33.44,12.48-50.16,18.7a148.19,148.19,0,0,0-16.55,7.22,16,16,0,0,0-5.25,3.62c-.61.74-1.24.66-2,.69" style="fill:none;stroke:#000;stroke-linecap:round;stroke-linejoin:round;stroke-width:2px"/><path d="M426.48,79.84A3.88,3.88,0,0,0,423.16,82,124,124,0,0,0,410.85,107c-5.71,15.76-9.29,32-12.25,48.48-1,5.34-1.5,10.69-2,16.08-.62,7.5-.74,15.1-3.26,22.34a37.26,37.26,0,0,1-1.83,4.55" style="fill:none;stroke:#000;stroke-linecap:round;stroke-linejoin:round;stroke-width:2px"/><path d="M378.48,221.2c-1.41-.42-2.44.51-3.33,1.23-9.62,7.79-20.65,13-32,17.7s-22.94,9-34.29,13.75c-13.17,5.52-25.76,12.09-36.27,22a73.71,73.71,0,0,0-5.75,6.73" style="fill:none;stroke:#000;stroke-linecap:round;stroke-linejoin:round;stroke-width:2px"/><path d="M436.8,4.24a166.9,166.9,0,0,0-3.38,26.64c-.77,13-.72,26-3.09,38.88-.56,3-1,6.1-2.92,8.62a2.34,2.34,0,0,0-.39,2.86c.6.85.28,1.64.42,2.44" style="fill:none;stroke:#000;stroke-linecap:round;stroke-linejoin:round;stroke-width:2px"/><path d="M632.88,185.92c-6.74.45-13.45-.36-20.16-.75-10.22-.61-20.46-1.32-30.47,1.51-7.53,2.12-13.53,6.17-16.17,14.09-.33,1,0,2-.64,2.91" style="fill:none;stroke:#000;stroke-linecap:round;stroke-linejoin:round;stroke-width:2px"/><path d="M565,203.8c5.45,2.3,11.21,2.86,17,3.27,12.76.9,25.43-.92,38.16-1.06a20.2,20.2,0,0,0,5.56-.42c-.31-2.05.41-3.89,1.15-5.75,1.38-3.47,3.22-6.74,4.33-10.32" style="fill:none;stroke:#000;stroke-linecap:round;stroke-linejoin:round;stroke-width:2px"/><path d="M1027,280.72c-4,3.3-5.2,11-2.42,15.37a4.83,4.83,0,0,0,7.7,1c5.09-4.56,4.1-11.39-2.16-14.87-.94-.53-1.92-1-2.88-1.45" style="fill:none;stroke:#000;stroke-linecap:round;stroke-linejoin:round;stroke-width:2px"/></g></svg>
