<svg xmlns="http://www.w3.org/2000/svg" viewBox="0 0 1366 768"><g id="Layer_19" data-name="Layer 19"><path d="M506.16,382.12c8.25,0,16.54,1.12,24.72-.85a21.21,21.21,0,0,0,15.42-13.16c4.11-9.72,5.7-19.92,6.92-30.27s1.39-20.69,2.89-31c.61-4.1,1.61-8.15,2.36-12.24a36.83,36.83,0,0,0,.76-11.52c-.64-4.9-3.34-7.74-8.18-8.67s-9.45,0-14.18.46a100.1,100.1,0,0,0-19.42,4.15,210.27,210.27,0,0,0-20,7.32c-3.46,1.46-6.72,3.54-10.52,4.18" style="fill:none;stroke:#000;stroke-linecap:round;stroke-linejoin:round;stroke-width:2px"/><path d="M482.16,296.8q1.24,16.05,1.39,32.16c.08,8,.36,16-.19,24,0,.32,0,.64,0,1q-.12,19.68-.22,39.36a4.07,4.07,0,0,0,.19,2.17c.71,1.35,1.18,2,3.18,1.55,6.08-1.36,11-4.89,16.3-7.79.92-.51,1.71-1.32,2.87-1.33" style="fill:none;stroke:#000;stroke-linecap:round;stroke-linejoin:round;stroke-width:2px"/><path d="M982.08,475.36c-3.14-.53-5.92-2.09-8.86-3.17a254.23,254.23,0,0,0-26.42-7.87c-11.95-3-24.11-4.9-36.25-6.92-7.24-1.2-14.57-1.83-21.82-2.95-8.17-1.27-16.36-2.31-24.51-3.71-5.83-1-11.68-1.89-17.5-3-6.24-1.17-12.47-2.47-18.72-3.57-9-1.59-18.06-3.19-27.13-4.55q-15.3-2.28-30.7-3.92c-9.44-1-18.88-1.85-28.33-2.62a602.57,602.57,0,0,0-62.88-1.8q-14.52.34-29.05,1.23c-7.1.44-14.23.75-21.35,1.16-6.88.4-13.78.57-20.65,1.31-3.33.35-6.73.36-10.07.41-6.89.11-13.76.48-20.64.72-8.56.3-17.13.61-25.69,1.24-8,.58-16,1.35-24,2.53A120.22,120.22,0,0,0,512.88,443a1.86,1.86,0,0,1-.72-.11" style="fill:none;stroke:#000;stroke-linecap:round;stroke-linejoin:round;stroke-width:2px"/><path d="M518.88,550.24c6.77,3.21,14,4.69,21.36,5.56,6.71.78,13.43,1.32,20.16,1.92,9.26.83,18.3,2.94,27.38,4.92a190.8,190.8,0,0,0,20.38,3.24c7.58.82,15.17,1.53,22.8,2,7.44.41,14.88.6,22.31,1,5.37.28,10.76-.05,16.08.47,4.1.4,8.18.09,12.25.41,6.47.5,13,.62,19.44,1,10.32.62,20.64,1.2,31,1.85,9.12.58,18.24,1.32,27.36,1.89,7.52.48,15,.81,22.56,1.22,11.51.64,23,1.05,34.56,1.51,15.92.63,31.84.39,47.76.31,4.3,0,8.65-.11,13-.42,14.9-1.07,29.83-1.86,44.65-4,3.26-.47,6.53-1,9.83-1.26" style="fill:none;stroke:#000;stroke-linecap:round;stroke-linejoin:round;stroke-width:2px"/><path d="M919,276.16c-3.78-3.58-8.7-4.65-13.45-6-7.15-2-14.59-2.57-21.83-4.14-11.82-2.57-23.62-5.2-35.52-7.43-10.33-1.94-20.63-4-31-6-8.07-1.51-16.13-3.12-24.25-4.25q-8.87-1.25-17.74-2.55c-5.85-.85-11.71-1.71-17.55-2.7-4.6-.79-9.29-1.29-13.88-2.11q-11.52-2.07-23.07-3.94-12-1.95-24-3.74c-5.61-.83-11.22-1.86-16.83-2.69-8.09-1.19-16.12-2.8-24.21-4-5.52-.83-11-1.78-16.58-2.53-4.29-.59-8.62-1-13-1.21-5.11-.29-10.24-.52-15.36-.47-7,.07-13.95.13-20.87.76-9.14.82-18.27,1.75-27.38,3-11.87,1.58-23.67,3.58-35.51,5.37-5.45.83-10.87,1.8-16.33,2.59-1,.14-.91.61-.95,1.24" style="fill:none;stroke:#000;stroke-linecap:round;stroke-linejoin:round;stroke-width:2px"/><path d="M1201,282.88h-5.52c-12-.08-24,.14-36-.32-14.48-.55-29-.34-43.44-.36-8.8,0-17.59.92-26.4.66-7.6-.22-15.17-1.13-22.8-1-7.22.14-11.7,3.5-14,9.87-1.86,5.23-2.41,10.65-3.13,16.08a154.8,154.8,0,0,0-1.32,27.37q.64,13.68,1.34,27.36c.18,3.35-.15,6.73.07,10.08.42,6.62,2.35,12.67,8.64,16,3.73,2,8,2.63,12.2,3.17a108.07,108.07,0,0,0,20.88.92c6.72-.44,13.45-.78,20.17-1.3a155.51,155.51,0,0,1,24.22-.46c7,.55,13.94,0,20.89.42,7.83.5,15.74.66,23.29,3.29a10.74,10.74,0,0,0,1.91.81v2.1" style="fill:none;stroke:#000;stroke-linecap:round;stroke-linejoin:round;stroke-width:2px"/><path d="M431,582.4c-1.51.13-2.36-.34-3.2-1.88-3.68-6.79-5.23-14.13-6.42-21.64-1.26-7.88-1.85-15.81-2.44-23.76-.3-4-.54-8-.93-12-.61-6.39-1.12-12.78-1.48-19.2-.25-4.39-.68-8.79-.95-13.2-.36-6-.64-12-1-18-.43-7.6-.55-15.2-.94-22.8-.57-11.27-.48-22.56-1-33.84-.09-2.16-.17-4.32-.18-6.48-.1-13.36-.33-26.72-.2-40.08.11-10.33.59-20.65,1.36-31a189.8,189.8,0,0,1,6.49-37.93c3.33-11.7,9-22,18.29-29.95,7-5.95,15-10.33,23.25-14.2,7.52-3.52,15.07-7,22.53-10.62,1-.52,1.95-.26,2.91-.42" style="fill:none;stroke:#000;stroke-linecap:round;stroke-linejoin:round;stroke-width:2px"/><path d="M1112.4,801.52c.11-.77-.41-1-.94-1.47a188.19,188.19,0,0,1-20.36-19.46,287.8,287.8,0,0,1-30.76-40.76A510.34,510.34,0,0,1,1032,688.26q-11-22.78-20.81-46.11c-7.29-17.33-13.81-35-20.42-52.55-5.69-15.16-12.05-30-20.4-43.92a137.31,137.31,0,0,0-14.62-19.95,98.69,98.69,0,0,0-16.83-15.33,18.24,18.24,0,0,0-5.77-2.83c-1.33-.37-3-1-3.83.91" style="fill:none;stroke:#000;stroke-linecap:round;stroke-linejoin:round;stroke-width:2px"/><path d="M937.2,501a187.88,187.88,0,0,0-29.53-14.14,254.75,254.75,0,0,0-35.26-10.41c-7.25-1.58-14.54-3.08-21.86-4.17-11.78-1.75-23.62-3.1-35.51-4-9.19-.66-18.39-1.28-27.6-1.61-14.8-.53-29.59-.94-44.4-1.06-8.24-.06-16.48-.29-24.72-.43-10.24-.18-20.49-.44-30.72-1q-14.28-.75-28.56-1.43c-11.2-.56-22.4-1-33.59-1.52-7.38-.33-14.73-.23-22.09-.3-2.19,0-4.3-.69-6.48-.54-8.71.61-17.44.27-26.16.55-5.52.17-11,.63-16.55,1-5,.31-9.95.73-14.88,1.4-12.5,1.69-25,3.29-37.22,6.62-.87.24-1.88.78-2.87.17" style="fill:none;stroke:#000;stroke-linecap:round;stroke-linejoin:round;stroke-width:2px"/><path d="M992.64,521.44c.31,3.22,2,6,3.19,8.85,5,12.09,10,24.2,15.15,36.23q6.85,16,13.73,32c5.65,13.1,11.21,26.23,16.9,39.32,5,11.4,10,22.74,15,34.11s8.82,23,12.57,34.76c3.68,11.53,7.69,22.95,12.44,34.1,3.83,9,8.52,17.49,14.94,24.92.9,1,1.67,2.47,3.32,2.67" style="fill:none;stroke:#000;stroke-linecap:round;stroke-linejoin:round;stroke-width:2px"/><path d="M469.92,300.28c-3.17,2.57-5,6.17-7.16,9.51a150,150,0,0,0-15.14,31.66,199,199,0,0,0-7.23,28.07,220.31,220.31,0,0,0-3,22.57c-.71,8.53-1.12,17.09-1.11,25.67q0,14.78.61,29.52c.26,6.4.86,12.81,1.44,19.19.59,6.57,1.17,13.14,1.9,19.69.59,5.44,1.29,10.87,1.9,16.32.64,5.76,1.43,11.5,2,17.27.27,3,1,5.89.89,8.89" style="fill:none;stroke:#000;stroke-linecap:round;stroke-linejoin:round;stroke-width:2px"/><path d="M493.68,426.88c.06,7.13-.29,14.26-.79,21.36-.67,9.47-1.88,18.92-3.3,28.32q-2.23,14.85-5.58,29.5c-3.07,13.47-6.54,26.86-10.52,40.09-2.94,9.81-5.61,19.72-9.34,29.29-4,10.2-9.07,19.78-16.33,28.06a21.07,21.07,0,0,1-7.65,5.55c-3.53,1.48-6.63.66-9.34-1.73-1.08-1-2.4-1.79-2.93-3.31-.25-.68-1-.75-1.66-.85" style="fill:none;stroke:#000;stroke-linecap:round;stroke-linejoin:round;stroke-width:2px"/><path d="M921.6,278.56c3,.65,4.54,3.24,6.16,5.34,5,6.54,8.19,14.13,10.35,22,3.89,14.27,7.64,28.57,12.75,42.48,6.18,16.85,14,32.82,24.77,47.25,6.28,8.42,13.77,15.59,23.25,20.41,5.9,3,12.37,4.07,18.72,5.54,7.14,1.64,14.39,3,20.42,7.65a10.73,10.73,0,0,1,2.38,2.66" style="fill:none;stroke:#000;stroke-linecap:round;stroke-linejoin:round;stroke-width:2px"/><path d="M1176.48,480.88c-6.73-.18-13.45-.79-20.15-1.3-9.52-.72-19-1.36-28.57-2.06-19.9-1.46-39.83-1.75-59.76-1.34-5.91.12-11.85.64-17.77,1.23-6.1.61-12.16,1.46-18.23,2.25-2.4.32-4.72,1.28-7.2,1" style="fill:none;stroke:#000;stroke-linecap:round;stroke-linejoin:round;stroke-width:2px"/><path d="M946.68,284.32c-.14,9.44,3.32,17.84,7.27,26.18,5.95,12.55,11.57,25.25,17.83,37.65,6.46,12.77,13.51,25.21,22.07,36.72a49.61,49.61,0,0,0,12.48,12c4.48,2.94,8.45,3,12,0a13.46,13.46,0,0,0,4.34-8.37,64.77,64.77,0,0,0-.24-19c-1.81-13.41-3.64-26.83-6.5-40.07-2.25-10.46-5.4-20.54-11.93-29.32a41.89,41.89,0,0,0-15.89-12.66c-10.84-5.25-22.39-7.88-34.31-9.19-6-.65-12-.54-18-.92" style="fill:none;stroke:#000;stroke-linecap:round;stroke-linejoin:round;stroke-width:2px"/><path d="M1056,408.64a46.83,46.83,0,0,0,13,2.42c9.46.72,18.87-.59,28.32-.52,7.32.06,14.58.89,21.84,1.67,2.39.25,4.81.3,7.2.42a329.07,329.07,0,0,1,35,3.46,100.78,100.78,0,0,1,29.28,9.11" style="fill:none;stroke:#000;stroke-linecap:round;stroke-linejoin:round;stroke-width:2px"/><path d="M784.56,467.2c.16,3.38.55,6.74-.46,10.09-1.69,5.65-5.86,8.74-11.08,10.5-7.07,2.39-14.41,2.38-21.82,2-9.7-.45-19.31-2.22-29-1.95-5.86.16-11.68.94-17.53,1.32-6.8.44-13.68,1-20.39-1.09-6-1.89-7.39-4.76-6-10.1.84-3.21,1.75-6.4,2.63-9.6" style="fill:none;stroke:#000;stroke-linecap:round;stroke-linejoin:round;stroke-width:2px"/><path d="M1160.16,716.8c-12.81,0-25.59-1.27-38.4-.66-7,.33-14.08.87-20.9,3.23-8.47,2.94-9.76,8.38-6.92,16.14,2.66,7.28,7.56,13.17,12.5,18.93a127.77,127.77,0,0,0,19.37,18.32c.85.66,2.81.63,2.19,2.6" style="fill:none;stroke:#000;stroke-linecap:round;stroke-linejoin:round;stroke-width:2px"/><path d="M1189.92,705.88c-.58.29-1,.07-1.45-.35-4.3-3.86-8.57-7.76-13-11.52-10.77-9.23-21.49-18.54-34.3-25a70.89,70.89,0,0,0-17.54-6.4,50,50,0,0,0-28.31,2.32,68.73,68.73,0,0,0-12.77,6.41,2.22,2.22,0,0,0-1.15,2.24" style="fill:none;stroke:#000;stroke-linecap:round;stroke-linejoin:round;stroke-width:2px"/><path d="M1167.6,725.68c-6.69-1.19-13.45-.87-20.16-.64-8,.27-15.85,1.42-23.29,4.69-6.5,2.85-8.15,8.62-7.29,14.41,1.59,10.76,7.09,19.77,14.51,27.62a25.87,25.87,0,0,0,6.94,5.77.81.81,0,0,1,.49,1" style="fill:none;stroke:#000;stroke-linecap:round;stroke-linejoin:round;stroke-width:2px"/><path d="M1176,551.68c-17.65-.46-35.11,1.61-52.56,3.86-7.76,1-15.5,2.18-23.27,3.17-4.4.56-8.84.88-13.2,1.66a24.06,24.06,0,0,1-3.61,0" style="fill:none;stroke:#000;stroke-linecap:round;stroke-linejoin:round;stroke-width:2px"/><path d="M475.92,428.56c-.64,3-1.32,6.07-1.91,9.12-1.94,10-4.26,19.89-6.73,29.76-2.87,11.44-5.81,22.87-8.61,34.33-.89,3.63-2.31,7.19-2.19,11" style="fill:none;stroke:#000;stroke-linecap:round;stroke-linejoin:round;stroke-width:2px"/><path d="M1070.4,512.8c-3-.18-5.07,1.83-7.43,3.13a35.35,35.35,0,0,0-9.87,7.89c-4.1,4.77-2.82,11,1.94,14.66,8.59,6.64,20.63.39,22.79-9.12a15.67,15.67,0,0,0-3.31-14.2,10,10,0,0,0-3.64-2.36" style="fill:none;stroke:#000;stroke-linecap:round;stroke-linejoin:round;stroke-width:2px"/><path d="M1068.72,575.2A98.61,98.61,0,0,0,1074,610a48.19,48.19,0,0,0,7.87,14.91,2.91,2.91,0,0,1,1,2.62" style="fill:none;stroke:#000;stroke-linecap:round;stroke-linejoin:round;stroke-width:2px"/><path d="M1157,615.28c-3.79.91-7.68.82-11.52,1.17-9.48.85-19,1.39-28.33,3.33-3.72.77-7.4,1.62-11,2.7-.08,0-.16.08-.24.12l.12.12" style="fill:none;stroke:#000;stroke-linecap:round;stroke-linejoin:round;stroke-width:2px"/><path d="M1133.28,450.88c-2.08.24-4.19.48-5.25,2.66-.18.37-.55.93-.46,1.16,1,2.78,0,5.46-.24,8.18-.09,1,.78,1.43,1.85,1.74,3.1.89,6.29.57,9.39.76,6.94.42,14,.84,20.87-.81,3.34-.8,4-2.21,2.4-5.29-4.72-8.94-10.95-16.52-19.69-21.83-.82-.5-1.77-.78-2.63-1.22a2.17,2.17,0,0,0-3.17.69,74,74,0,0,0-7.12,11.1c-.64,1.15-.22,2.54-.27,3.82" style="fill:none;stroke:#000;stroke-linecap:round;stroke-linejoin:round;stroke-width:2px"/></g></svg>
