<svg xmlns="http://www.w3.org/2000/svg" viewBox="0 0 1366 768"><g id="Layer_3" data-name="Layer 3"><path d="M616.37,449.13c.71-1.15,1.45-2.29,2.13-3.45,1.17-2,2.27-4.05,3.48-6,1.64-2.69,4.34-3.12,7.15-3.09,1.53,0,4.18,2.5,4.5,4.3a45,45,0,0,1,.49,5.69,15.26,15.26,0,0,1-.2,2.3c.92.52,1.11-.08,1.33-.53a18.73,18.73,0,0,1,6.68-7.6,16.93,16.93,0,0,1,5.88-2.78,20.34,20.34,0,0,0,2.51-.86c.33-2,.5-4,1-6a53.2,53.2,0,0,1,1.95-5.23c2-.37,2.74,1.43,4.22,1.58a34.22,34.22,0,0,1-.42,12.43c-.62,2.67-1.27,5.32-1.91,8a20,20,0,0,0-.12,7.35c.17,1.35.39,2.71.47,4.07a3.52,3.52,0,0,1-.35,2,2.63,2.63,0,0,1-1.6,1.05,1.61,1.61,0,0,1-1.35-.69c-.78-1.41-1.4-2.92-2.08-4.4-1.42-.23-2.14.76-2.89,1.44a18.47,18.47,0,0,1-8,3.94c-3,.8-5.11-.32-5.91-3.3a27.6,27.6,0,0,1-.48-3.65c-.1-.76-.24-1.51-.37-2.3-1.55,0-2.17,1.09-2.77,1.89A25.4,25.4,0,0,1,623,461.1a8.12,8.12,0,0,1-1.8.94c-3.22,1.09-5,.09-5.54-3.31a25.88,25.88,0,0,1,0-5.7,33.11,33.11,0,0,1,.77-4Zm33.57-1.89c-.06-1.14-.06-1.83-.13-2.51-.23-2.24-1.25-2.87-3.33-2.07a11,11,0,0,0-1.46.73c-3.75,2.21-5.86,5.69-7.12,9.68a12.09,12.09,0,0,0-.23,4.46A2,2,0,0,0,640.5,459a4.24,4.24,0,0,0,.72-.4,28.64,28.64,0,0,0,7.26-7.18C649.43,450.05,650.16,448.54,649.94,447.24Zm-21.59-6.68a14,14,0,0,1-1.23,2.31c-.41.47-1.06,1.09-1.55,1.05-1.58-.14-2.25.76-2.74,2-.87,2.15-1.79,4.3-2.49,6.51a12.27,12.27,0,0,0-.42,3.64,1.61,1.61,0,0,0,.8,1.28,2.26,2.26,0,0,0,1.83-.31,40.7,40.7,0,0,0,3.61-3.92c2.56-3.14,3.25-6.85,3.06-10.78C629.2,441.94,628.89,441.61,628.35,440.56Z"/><path d="M961.65,317.43l-6.3,1.89c-1.65,5.38-1.19,10.9-1.59,16.14-1.36,1.14-2.5.42-3.48.42-.32-.46-.59-.67-.61-.9-.22-2-.47-4.07-.57-6.11a29.63,29.63,0,0,1,.2-4.1c.23-2.41.39-4.69-2.62-5.65-.75-.23-.58-1.65.22-2s1.8-.62,2.64-.9a5.28,5.28,0,0,0,1.28-3.45c.62-4.48,1.23-9,1.87-13.43a16.7,16.7,0,0,1,.71-3.62,8.67,8.67,0,0,1,1.84-2.61,1.38,1.38,0,0,1,2.12.36,7.43,7.43,0,0,1,.83,3.09c-.1,2.46-.48,4.9-.76,7.35s-.6,5.17-.86,7.75a16.38,16.38,0,0,0,.08,2.15c1.48.11,2.79.25,4.1.3a2.39,2.39,0,0,0,1.52-.24c1-1,2.16-.8,3.43-.78s2.6-.61,4.24-1.05c2.6,1.44,5.77,2.51,7.1,6.1l3.73-2.09c3.73,1.51,5.93,4.19,6.32,8,.49,4.76.61,9.56.88,14.34a1.49,1.49,0,0,1-.1.8c-.3.43-.69,1.11-1,1.11a2.35,2.35,0,0,1-1.7-.76,5.44,5.44,0,0,1-.86-2.28c-.5-2.69-.89-5.4-1.34-8.11-.27-1.62-.49-3.25-.88-4.84a7.78,7.78,0,0,0-1-1.94,1.45,1.45,0,0,0-1.61,1.28c-.44,1.85-.78,3.73-1.11,5.6s-.5,3.52-.84,5.26a4.22,4.22,0,0,1-2.19,2.84,1.21,1.21,0,0,1-1.91-.77,11.78,11.78,0,0,1,0-3.25c.6-3,.22-6,.18-9a8.24,8.24,0,0,0-2.45-5.51,2.55,2.55,0,0,0-2.58-.9,2.05,2.05,0,0,0-1.32,1.92c-.23,1.77-.43,3.53-.6,5.3-.24,2.46-.42,4.92-.67,7.37a9.25,9.25,0,0,1-.51,2.4,2.77,2.77,0,0,1-2.62,1.68,2.16,2.16,0,0,1-1.92-2.29,33.89,33.89,0,0,1,.14-4.5c.24-3.14.57-6.27.81-9.41A23,23,0,0,0,961.65,317.43Z"/><path d="M763.44,372.44c.89,2.33.28,4.56-.59,6.75a18.88,18.88,0,0,1-1.11,2.2,8.46,8.46,0,0,0,0,8.26c.35.73.78,1.41,1.16,2.07a2.72,2.72,0,0,1-4.94.35c-.74-1-1.38-2-2.2-3.22-1.39.7-2.66,1.43-4,2a28.33,28.33,0,0,1-5,1.77c-2.88.61-4.78-.79-5.32-3.68a27.08,27.08,0,0,1-.21-3.26,11.31,11.31,0,0,0-1.82,1.21,24.49,24.49,0,0,1-5.78,4.56,10.39,10.39,0,0,1-6.75,1.15c-1.73-.22-2.75-1.43-3-3.36a.57.57,0,0,1,.12-.39c.15-.22.33-.42.5-.63.26,0,.61-.11.79,0,2.75,1.92,5.18.93,7.52-.8a32.42,32.42,0,0,0,2.92-2.26,4.33,4.33,0,0,0,1.45-3.29c0-1.11-.11-2.22-1.26-2.83-.26,0-.65,0-.77.11-2.19,2.7-5.12,4.49-7.87,6.5-1.75,1.28-3.48.89-4.36-1.06a10.2,10.2,0,0,1-.85-3.56,39.43,39.43,0,0,1,.12-6.15c.45-4.22,1-8.44,1.66-12.62a14.21,14.21,0,0,1,1.62-4.14,1.52,1.52,0,0,1,2.47,0,3.48,3.48,0,0,1,.85,1.8,38.22,38.22,0,0,1-.31,4.89c-.46,3.94-1,7.86-1.45,11.81-.12,1.15-.29,2.47,1.13,3.48.44-.53.87-1,1.25-1.5.82-1.08,1.57-2.22,2.43-3.27s2-2.28,3.78-2c2.08.37,4.08.87,5.12,2.95.71,1.43,1.26,2.95,2,4.77.62-1.11,1.17-2,1.64-2.93a30.25,30.25,0,0,1,5.4-7.71,7,7,0,0,1,9-1,5.75,5.75,0,0,1,1.9,1.52C761.34,372,762.48,371.94,763.44,372.44ZM746.12,387c.41.78.61,1.66,1.16,2.1.76.61,1.52-.13,2.18-.56,6.06-3.87,6.73-4.95,7.46-12,0-.27.08-.54.1-.81a3.06,3.06,0,0,0-1.78-3.35c-1.38-.58-2.33.46-3.11,1.36a24.58,24.58,0,0,0-4.52,8.16C747,383.57,746.62,385.28,746.12,387Z"/><path d="M970.88,474.43c-2.24-1.22-2.32-3-2.24-4.83.19-4.1.48-8.2.74-12.3.08-1.18.52-2.43-.65-3.57l-6.17,2c-1.38,3.13-.73,6.46-.81,9.7s-.14,6.56,2,9.51c-.89,1.41-2.29,1.73-3.79,1.88-2-1.31-2.56-3.29-2.78-5.34-.31-2.85-.4-5.73-.55-8.6-.05-1,.07-1.92,0-2.88-.07-1.88.28-3.87-1.59-5.25.83-.91,1.34-1.55,1.93-2.09a3.53,3.53,0,0,0,1.13-2.54c.13-1.49.39-3,.59-4.47.35-2.56,1.11-5.1-.11-7.67a3.34,3.34,0,0,1,.09-2c.44-1.91,1.25-2.51,3.17-2.48,1.26,0,2,.72,2.38,2.35a11.25,11.25,0,0,1,.28,3.26c-.23,2.31-.62,4.61-1,6.9-.2,1.2-.53,2.37-.86,3.8a7.25,7.25,0,0,0,2.08.36c1.88-.3,3.74-.75,5.7-1.15a26.33,26.33,0,0,0,.77-2.83c.37-2.57.67-5.15,1-7.73a4.33,4.33,0,0,1,1.38-2.89c1-.9,2.76-.59,3,.66a15.13,15.13,0,0,1,.5,4.85c-.44,3.8-1.09,7.59-1.83,11.35a23.66,23.66,0,0,0-.44,7.19c1.66-.8,2.19-2.1,3-3.15a3.73,3.73,0,0,1,3.1-1.72,3.62,3.62,0,0,1,3.21,1.45,12.27,12.27,0,0,1,2.78,7.58c0,2.32-.11,4.65-.25,7-.1,1.66-.12,3.27,1.23,4.69a5.65,5.65,0,0,1-1.1.85c-2.49,1-3.67.09-3.94-2.42-.33-3-.29-6-.52-9a12.36,12.36,0,0,0-.8-3.55,2.21,2.21,0,0,0-1.56-1c-.35-.05-1,.5-1.18.92-1.47,3.09-3,6.17-4.25,9.33A6.46,6.46,0,0,1,970.88,474.43Z"/><path d="M997,326.75a11.41,11.41,0,0,0-1.17,6.77c.28,2.44,1.4,3.29,3.85,3.23,4.17-.11,7.61-2,10.84-4.42a16,16,0,0,1,2.57-2c1.82-.8,2.24-2.2,2.3-4,.08-2.06.2-4.11.42-6.16a11.28,11.28,0,0,1,.81-3.13,1.59,1.59,0,0,1,2.72-.28,24.49,24.49,0,0,1,1.46,2.37l4.38-4.27c4.33.93,5.75,3.62,5.75,7.52s.28,7.94.36,11.91c0,2.07.13,4.09,1.78,5.72a12.51,12.51,0,0,1-1.41,1.72c-1.18,1-2.36.8-3-.5a14,14,0,0,1-1.51-6.34c0-2.88,0-5.76,0-8.64a9.08,9.08,0,0,0-1-5.08c-1.44-.15-1.72.89-2,1.77-1.15,4.37-2.24,8.76-3.33,13.14-.14.53-.17,1.08-.26,1.63a3.85,3.85,0,0,1-1.83,2.61,1.87,1.87,0,0,1-3-.86,10.78,10.78,0,0,1-.55-2.39c-.17-1.35-.24-2.71-.35-4-1.17-.45-1.53.57-2.08,1.05a25,25,0,0,1-14.18,5.9c-4.12.41-6.67-1.18-7.29-5.3-.83-5.49.13-10.64,3.95-15a21.24,21.24,0,0,1,6.57-4.85,8.34,8.34,0,0,1,9.49,1.72,4.63,4.63,0,0,1,1.31,4.14,7.71,7.71,0,0,1-3.75,5.61c-.71.4-1.43.81-2.13,1.24a7.37,7.37,0,0,1-7.08.35C998.84,327.61,998.11,327.26,997,326.75Zm2.09-3.72c2,1,3.63.55,5.25.42a4.64,4.64,0,0,0,3-1.9,1.87,1.87,0,0,0-.67-3.06,4.09,4.09,0,0,0-2.33-.38A7.23,7.23,0,0,0,999.09,323Z"/><path d="M822.94,462.31a2.43,2.43,0,0,0,.07,2.81,3,3,0,0,0,2.25,1.62c1.09.13,2.18.22,3.27.26s2.17,0,3.25,0c.25,1-.48,1.28-1,1.51a15.2,15.2,0,0,1-7.19,1.28,6.16,6.16,0,0,1-5.81-4.42c-.22-.65-.41-1.3-.63-2a6.42,6.42,0,0,0-5.24-.71c-.68,2.73.52,5.07,1.43,7.36-2.22,2.19-3.54,2.24-5,.19a7.35,7.35,0,0,1-1.25-2.54c-.42-1.72-.64-3.49-.91-5.24-.3-2-.56-4-.82-5.9.38-2.06.78-4,1.11-6a35.92,35.92,0,0,1,4.9-13.79,15.53,15.53,0,0,1,4.89-4.89,3.64,3.64,0,0,1,4.54,0c3.32,2.33,6.2,9.67,5.23,13.54a4.19,4.19,0,0,1-1.23,2,2.47,2.47,0,0,1-1.85.48c-.79-.13-.93-1-.83-1.66a11.27,11.27,0,0,0-.5-4.86c-.62-2.14-.84-2.43-3.43-4.74a11.39,11.39,0,0,0-2,1.75c-2.81,4-5.67,11.8-4.55,18.88,2,1.21,4.06,2.54,6.57,1.83l4.11-5.78a20.6,20.6,0,0,1,7.07-6.12,13.8,13.8,0,0,1,3.8-1.36,2.94,2.94,0,0,1,3.34,1.82,5.8,5.8,0,0,1-.14,5.51,17.7,17.7,0,0,1-8.26,7.09C826.4,461,824.6,461.65,822.94,462.31Zm10-12a13.2,13.2,0,0,0-5.9,4.37c-.38.46-1,1-.19,1.87,2.34-.42,3.81-2.19,5.37-3.8C832.81,452.13,833.55,451.4,832.91,450.33Z"/><path d="M936.79,454.19,943,450c4.75,1.29,7.58,4.08,8.25,8.8a57.76,57.76,0,0,1,.15,13.53c-.2,2-1.14,3.31-3.19,3.65-1.16-.39-1.29-1.33-1.26-2.32.07-2.05.27-4.11.24-6.15a37.78,37.78,0,0,0-.51-5.73A11.75,11.75,0,0,0,945.3,458c-1.3-2.24-3.68-2.14-4.73.18a16.53,16.53,0,0,0-1.27,4.32c-.43,2.83-.67,5.7-1,8.55-.14,1.37-.28,2.73-.34,4.1-.09,2-1.07,3-3,3-1.58-1.25-1.42-3-1.38-4.58.06-2.47.31-4.93.32-7.39a32.57,32.57,0,0,0-.4-5.31,13.07,13.07,0,0,0-1.12-2.76c-1.4,0-1.6.89-1.9,1.6-.8,1.89-1.62,3.78-2.32,5.7-1.29,3.55-4,5.84-7,7.87-1.26.88-3.06,1.06-4.65,1.35a2.53,2.53,0,0,1-1.79-.75,4.92,4.92,0,0,1-1.6-3.23,12.49,12.49,0,0,1,1.22-7.18,47.48,47.48,0,0,1,5.78-8.45c1.57-1.89,3.83-2.58,6-3.39,1.28-.47,2.63-.73,4-1.11a4.09,4.09,0,0,1,4.76,1.42C935.49,452.7,936.12,453.41,936.79,454.19Zm-18.07,16.19a13,13,0,0,0,2.29-1.59,26.87,26.87,0,0,0,5.65-10.68.51.51,0,0,0,0-.39c-.27-.26-.67-.74-.84-.67a5.3,5.3,0,0,0-2,1.16c-1.4,1.64-2.69,3.37-4,5.11A7.78,7.78,0,0,0,918.72,470.38Z"/><path d="M1050.91,487.12a1.14,1.14,0,0,1,1.51.95,20.69,20.69,0,0,1,.32,3.25,16.73,16.73,0,0,0,1.53,6.35,14,14,0,0,0,1.55,2.13,8.9,8.9,0,0,0,1.71-1.92c1.33-3.14,2.61-6.31,3.8-9.5s2.3-6.44,3.33-9.7c.82-2.58,1.45-5.22,2.12-7.67-.83-1-1.46-.47-2-.19-1.59.79-3.17,1.6-4.71,2.48-2.24,1.27-4.71,1.36-7.16,1.47a2.49,2.49,0,0,1-2.78-2.43,10.85,10.85,0,0,1,1.76-7.83,31.6,31.6,0,0,1,5.06-5.91c2.84-2.35,6.06-4.17,10-4.22a4,4,0,0,1,4.14,2.7,5.53,5.53,0,0,1,.41,1.16c.56,3.61,1.56,7.17.2,10.87-.75,2-.76,4.32-1.44,6.39-2.3,7-4.67,14-7.2,20.94a18.25,18.25,0,0,1-4.79,7.54,3,3,0,0,1-3.34.72,5.94,5.94,0,0,1-3.94-3.87c-.13-.39-.24-.79-.34-1.18C1049.89,496.75,1050,490.62,1050.91,487.12Zm4.69-16.87c4.75-1,8.38-3.79,12-6.63a1.65,1.65,0,0,0,.24-.33,3.13,3.13,0,0,0-.17-3.77,2.48,2.48,0,0,0-3-.22,23.06,23.06,0,0,0-8.1,6.66A4,4,0,0,0,1055.6,470.25Z"/><path d="M596.78,371.89a12.78,12.78,0,0,0-5.53,1.09c-1.41,5.2-.69,10.26,1,15.38-.57.35-1,.85-1.44.84a2.5,2.5,0,0,1-1.76-.68,8.82,8.82,0,0,1-1.72-3.18,42,42,0,0,1-1.1-7.29c-.12-2.39-.68-4.28-3-5.3-.33-.14-.51-.59-1-1.15l3.57-2.08a38.21,38.21,0,0,0,1.71-10.79,4.71,4.71,0,0,1,1.79-3.94,2.22,2.22,0,0,1,3.82,1.63,21.62,21.62,0,0,1-.43,3.66c-.21,1.21-.59,2.39-.83,3.6a5.26,5.26,0,0,0,.36,3.71,9.22,9.22,0,0,0,4.44.24c1-1.4.59-2.93.45-4.38s-.58-3-.68-4.46a4.41,4.41,0,0,1,.58-2.29,1.66,1.66,0,0,1,2.78-.26,10.28,10.28,0,0,1,1.78,3.6,45.83,45.83,0,0,1,.64,6.11c.11,1.46-.14,3,.55,4.42.54,0,.94,0,1.33-.08,3.77-.51,6,1,6.81,4.69a22.09,22.09,0,0,1,.24,2.45c.3,3.43-.35,6.8-.72,10.19a1.16,1.16,0,0,1-2.25.26c-.45-1.85-.78-3.73-1.07-5.62s-.4-3.53-.68-5.28A1.27,1.27,0,0,0,605,375.8a2.32,2.32,0,0,0-1.52,1.1,15,15,0,0,0-.92,3.55c-.28,1.9-.38,3.82-.62,5.72a4.63,4.63,0,0,1-.61,1.88,1.86,1.86,0,0,1-3.31-.26,7.16,7.16,0,0,1-.53-2.38c-.16-3.42-.23-6.84-.37-10.26C597.08,374.1,596.91,373.06,596.78,371.89Z"/><path d="M898.75,453.45c-2.77,1.21-4,3-3.75,6.11.3,3.39.11,6.83.12,10.24,0,2.54-1.2,4.08-3.83,4.59-2-2.41-2.11-5.24-1.88-8.12.13-1.62.39-3.24.61-4.85.36-2.58-.71-4.46-2.94-6.09a7.13,7.13,0,0,0-1.17,1.58,18.22,18.22,0,0,0-.94,3.55c-.52,3.51-.9,7-1.42,10.55a4.83,4.83,0,0,1-.93,2.18c-1.06,1.34-2.62,1.13-3.19-.47a10.69,10.69,0,0,1-.77-4c.25-4.91.65-9.82,1.1-14.72a22.19,22.19,0,0,1,1-4.39c.43-1.4,1.72-2.28,3.16-1.06A4.74,4.74,0,0,0,888,449.9a4,4,0,0,1,2.26.69,23.57,23.57,0,0,1,2.47,1.85c.63-.6,1.17-1.15,1.75-1.66a23.14,23.14,0,0,1,3.15-2.57,2.89,2.89,0,0,1,2.32-.13c2.82,1.33,5,3.29,5.64,6.58a35.23,35.23,0,0,1-.81,15.42,5.23,5.23,0,0,1-1.6,2.26,1.37,1.37,0,0,1-2.39-.93,29.9,29.9,0,0,1,.36-3.64,62.25,62.25,0,0,0,.63-6.91A10.2,10.2,0,0,0,898.75,453.45Z"/><path d="M704.51,444.27c-1.63.28-2.28.43-2.93.5-3.61.34-5.67,2.61-6.72,5.77a34.64,34.64,0,0,0-1,6c-.12.95,0,1.92-.15,2.87a2.5,2.5,0,0,1-2.81,2.36,1.51,1.51,0,0,1-1.61-1,28.74,28.74,0,0,1-.69-3.19c-.29-1.61-.53-3.23-.81-4.85a6.66,6.66,0,0,0-2.08-3.93c-2-.27-3.33,1-4.8,1.78a20,20,0,0,0,2.14,14.1,13.55,13.55,0,0,1-2.46,1.19,2.53,2.53,0,0,1-3.29-1.7,23.23,23.23,0,0,1-1.7-8c-.11-2.4-.13-2.4-1.5-4.8,1.94-3.73,1.26-8.08,2-12.22A33.12,33.12,0,0,1,680.75,427c1.57-2.45,5.52-2.85,7.63-1.3a8.89,8.89,0,0,1,3.43,5.43,1.49,1.49,0,0,1-1.76,1.7,6.27,6.27,0,0,1-1.79-.9c-.79-.54-1.51-1.16-2.26-1.74a3.37,3.37,0,0,0-.57-.24c-.34.22-1,.4-1.19.8a27.73,27.73,0,0,0-3.46,13.7c1.54.8,2.77-.67,4.12.12a53.91,53.91,0,0,0,5.56,2.56,3.41,3.41,0,0,0,.82.15,50.37,50.37,0,0,1,4.22-3.78,7.15,7.15,0,0,1,7-1.08C703,442.67,703.41,443.27,704.51,444.27Z"/><path d="M738.65,446.29a23.9,23.9,0,0,1,1.81-2c3.3-2.87,7.3-2,9,2a17.41,17.41,0,0,1,1.35,8,61.94,61.94,0,0,1-.87,7.32,10.58,10.58,0,0,1-1.45,3.33,1.58,1.58,0,0,1-1.39.55c-.42-.09-.81-.65-1-1.09a2.39,2.39,0,0,1-.15-1.2c.16-3,.33-6,.53-9,.16-2.4-.09-4.63-2.38-6.32-2.54,1.69-3.36,4.24-3.31,7a28.54,28.54,0,0,1-.79,7.72,14.27,14.27,0,0,1-1.35,3.4,2.48,2.48,0,0,1-2.72,1.14,8.38,8.38,0,0,1-.54-1.76,34,34,0,0,1,.5-10.61c.55-2.38-.69-4-2.22-5.37a2.06,2.06,0,0,0-3.54,1,24,24,0,0,0-.44,2.42c-.53,2.95-1,5.9-1.62,8.85a3.1,3.1,0,0,1-.67,1.43,2.13,2.13,0,0,1-3.8-.87,9.31,9.31,0,0,1-.29-2.83c.09-1.91.35-3.81.5-5.72s.21-3.82.37-5.72a28,28,0,0,1,.48-3.65c.28-1.26,1.12-1.73,2.48-1.23a3.58,3.58,0,0,0,2.71.15,6,6,0,0,1,6.14,1.13C736.72,445,737.55,445.54,738.65,446.29Z"/><path d="M859.31,311.9l4.4-4.36c2.8-.45,4.62.72,6.27,2.22A8.45,8.45,0,0,1,873,315.4a13.48,13.48,0,0,1,.21,2.44c-.42,3.67-.91,7.32-1.43,11a4.26,4.26,0,0,1-.7,1.46c-.33.54-1.51.5-1.73-.08a8.24,8.24,0,0,1-.61-2.35c-.09-2.46-.08-4.92-.06-7.39a10.88,10.88,0,0,0-1.08-5.57,4.34,4.34,0,0,0-1.68-1.64,1.92,1.92,0,0,0-2.68,1.13,8.54,8.54,0,0,0-.37,1.59c-.64,4-1.25,8.11-1.89,12.16-.19,1.21-.42,2.42-.68,3.62a2.78,2.78,0,0,1-1.88,2,1.46,1.46,0,0,1-2.12-1.2,12.3,12.3,0,0,1,.15-2.42c.24-2,.62-4.06.76-6.1a17.33,17.33,0,0,0-1.6-8,7.37,7.37,0,0,0-.83-1.4,1.44,1.44,0,0,0-2.42.1,9.52,9.52,0,0,0-.94,2.65c-.68,3.21-1.26,6.45-2,9.66a9,9,0,0,1-1,2.64,1.7,1.7,0,0,1-2.12.81,2.6,2.6,0,0,1-1.35-1.38,5.07,5.07,0,0,1-.15-2.42,70,70,0,0,0,1-13.49c-.06-1.66.48-2.21,2.16-2.36a5.14,5.14,0,0,0,3-1c2.14-1.65,3.8-1.53,6,0C857.73,310.5,858.43,311.16,859.31,311.9Z"/><path d="M699.16,343.57l2.67-.27c1.39-5.81,3.31-11.52,4-17.52a6.81,6.81,0,0,0-.45-2c-2.33.31-4.47.65-6.63.89a3.24,3.24,0,0,1-3.84-2.31,8.75,8.75,0,0,1-.53-3.2,13.82,13.82,0,0,1,5.19-10.3,11.5,11.5,0,0,1,6.83-2.44c2.57-.21,4.43,1.44,5.91,3.22a16.3,16.3,0,0,1,2.12,4.4,2.75,2.75,0,0,1-.62,2.69c-1.54,2-2,4.39-2.53,6.84-1.39,6.56-3,13.06-4.66,19.57a15.71,15.71,0,0,1-1.5,3.36,3.28,3.28,0,0,1-3.33,1.94c-1.65-.13-2.32-1.34-2.73-2.67A6.85,6.85,0,0,1,699.16,343.57Zm1-22.55a25.63,25.63,0,0,0,7.2-4.18,4.41,4.41,0,0,0,.8-.92,2.71,2.71,0,0,0,.1-3.41,3,3,0,0,0-3.57-1.26,7.74,7.74,0,0,0-5.35,7.83A7.2,7.2,0,0,0,700.19,321Z"/><path d="M771.73,379.42c1.22-1.08,1.75-1.47,2.18-2,1.08-1.22,2-2.56,3.19-3.73a5.68,5.68,0,0,1,9.44,1.82c1,2.49,1.36,5-.38,7.42a13,13,0,0,0-1.21,2.15c-1.69,3.58-4.77,5.58-8.24,7s-4.71.9-7.1-2a6.38,6.38,0,0,0-1.37-1.5c-1.92-1.16-2.34-3-2.22-5,.23-3.55.55-7.1.92-10.64s.81-7.08,1.26-10.61a6.68,6.68,0,0,1,.5-1.94,2.4,2.4,0,0,1,2.18-1.62c1.23,0,1.56.88,1.92,1.79.88,2.28.52,4.59.2,6.9q-.64,4.68-1.26,9.37C771.67,377.43,771.73,378,771.73,379.42Zm9.28-2.05c-.26.08-.6.08-.75.25a18,18,0,0,0-2,2.49,15.7,15.7,0,0,1-5.22,5.58c-.23.14-.52.3-.61.52a2.86,2.86,0,0,0-.35,1.49,1.31,1.31,0,0,0,1.51,1.05,6.22,6.22,0,0,0,4.05-1.66,60.08,60.08,0,0,0,4.07-4.53,4.93,4.93,0,0,0,1-2.57A2.89,2.89,0,0,0,781,377.37Z"/><path d="M786.61,465.63c-.37.6-.41.76-.52.83-4.53,2.67-5.92,2.31-8.47-2.21-.52-.92-1-1.86-1.64-3.06-.77.52-1.29.9-1.84,1.23-2,1.2-4,2.41-6,3.55a6.43,6.43,0,0,1-2,.57c-2.66.47-4.31-.51-4.74-3.22a14.65,14.65,0,0,1,.15-5.28,29.14,29.14,0,0,1,7.88-14.17c2-2.09,4.75-3.14,7.52-4a2.19,2.19,0,0,1,2.28.54,23.57,23.57,0,0,1,3.48,4c1.26,2.11,1.5,4.49-.16,6.55-3,3.74-2.29,7.64-.77,11.62a3.35,3.35,0,0,0,3,2.42A8.81,8.81,0,0,1,786.61,465.63Zm-19.51-3.16c7.24-3.24,10.16-10.44,10.91-16.33,0-.43-.4-.92-.74-1.64a11.38,11.38,0,0,0-3.07,1.33,24.73,24.73,0,0,0-8.12,13.9A2.33,2.33,0,0,0,767.1,462.47Z"/><path d="M919.64,378l3.7-3.49a6.36,6.36,0,0,1,6.48-1.46,4.47,4.47,0,0,1,3,2.58,15.38,15.38,0,0,1,1.12,11.15c-.63,2.22-.76,4.58-1.17,6.86a7.65,7.65,0,0,1-.66,1.9c-.24.51-1.51.46-1.78-.06a4.07,4.07,0,0,1-.56-1.51,16.76,16.76,0,0,1,0-3.68c.54-3.3-.15-6.55-.23-9.83a3.82,3.82,0,0,0-.28-1.19,1.8,1.8,0,0,0-2.65-1c-3.23,2-5.84,4.56-6.43,8.56-.26,1.75-.38,3.53-.59,5.29a2.32,2.32,0,0,1-1.79,2,2.25,2.25,0,0,1-2.91-1.57A39.51,39.51,0,0,1,914,386c-.18-4.38-.2-8.76-.18-13.14a26.86,26.86,0,0,0-.48-6.93,10.49,10.49,0,0,1-.15-2.86,2,2,0,0,1,1.32-1.9,2.42,2.42,0,0,1,2.65.59,5.88,5.88,0,0,1,1.53,3.73c.26,2.72.47,5.45.69,8.18C919.48,374.92,919.53,376.14,919.64,378Z"/><path d="M1050.18,478.83c-4.56,0-5.82-.72-9.66-5.19-1.57.88-3.22,1.75-4.83,2.71a16.18,16.18,0,0,1-7,2.07c-2.26.18-3.34-.54-3.87-2.78a11.69,11.69,0,0,1-.28-4.44,21.64,21.64,0,0,1,3.33-8.76c1.29-1.92,2.53-3.88,3.86-5.77,1.8-2.56,4.45-3.94,7.23-5.16a2.9,2.9,0,0,1,3.64,1,5.63,5.63,0,0,1,1.1,1.71,5.75,5.75,0,0,0,2.17,2.88,4.15,4.15,0,0,1,1.58,5,22.42,22.42,0,0,1-1.57,3.79c-2.07,3.84-.87,7.12,1.62,10.2C1048.15,477,1049,477.64,1050.18,478.83Zm-10.32-22.2a4.58,4.58,0,0,0-3.25,1.85,54.17,54.17,0,0,0-4.82,6.61,29.22,29.22,0,0,0-2.27,6.13,5.88,5.88,0,0,0,.06,2.43,1.41,1.41,0,0,0,2,.91c3.3-2,6.51-4.25,8.42-7.64S1042.41,460,1039.86,456.63Z"/><path d="M843.52,463.15c1.6-2.41,1.67-2.74,2.14-5.88a22.45,22.45,0,0,1,1-3.94,1.32,1.32,0,0,1,2.07-.5,3.8,3.8,0,0,1,1.95,2.94,49.35,49.35,0,0,0,.76,5.28,12.25,12.25,0,0,0,4.12,7,6.46,6.46,0,0,0,3.05-4.07,23.48,23.48,0,0,0,.94-12.13,10,10,0,0,1-.31-2.41c0-.4.55-.77,1-1.39,1.3,1.39,2.41,2.61,2.7,4.24a25.47,25.47,0,0,1,.52,8.57,10.21,10.21,0,0,0-.35,2c.2,3.22-1.8,5.33-3.67,7.51a6.25,6.25,0,0,1-4,2,4.11,4.11,0,0,1-4.57-2c-.84-1.39-1.64-2.81-2.53-4.34-1.73.46-2.35,1.95-3.21,3.09a5.32,5.32,0,0,1-3.35,2.13,2,2,0,0,1-2.33-1.19,20.84,20.84,0,0,1-1-4c-.56-4.4-.53-8.75,1.53-12.84.18-.37.35-.75.56-1.1a2,2,0,0,1,2-1.16,2.33,2.33,0,0,1,2,2.29,35,35,0,0,1-.66,3.63A16,16,0,0,0,843.52,463.15Z"/><path d="M878.19,346.16c-1.22-1.22-1-2.46-.88-3.68.49-4.21,1-8.43,1.48-12.63.61-4.75,1.4-9.48,1.9-14.24a12.24,12.24,0,0,1,2.62-6.33c1.86-2.43,4.25-2.84,6.83-1.29a10.57,10.57,0,0,1,5.38,9.12,5.43,5.43,0,0,1-.27,2.42c-1.91,4.11-3.92,8.19-8.59,9.93-.38.14-.76.3-1.16.41a2.62,2.62,0,0,0-2,2.36c-.29,1.89-.6,3.78-.87,5.68-.23,1.63-.45,3.25-.61,4.89C881.82,345.06,880.66,346.25,878.19,346.16Zm8.44-32.92c-1.21,4-1.62,9.27-1,11.86,4.15-2.29,5.64-5.58,4.28-9.63A3,3,0,0,0,886.63,313.24Z"/><path d="M953.88,369.24c.48.79.92,1.48,1.34,2.19a8.75,8.75,0,0,1,.84,7.83,22.31,22.31,0,0,0-1.12,9.72c.19,1.93.87,3.09,2.88,3.3.17,0,.3.38.45.59-.06.11-.1.29-.2.33-4.32,1.9-5,2.63-8-2a1.19,1.19,0,0,0-2.12,0c-2.09,2.22-4.93,2.89-7.67,3.7a3.83,3.83,0,0,1-5.06-4.08,22.36,22.36,0,0,1,3-8.89,46.12,46.12,0,0,1,5-7,41.42,41.42,0,0,1,5-4.85C949.71,368.67,951.59,368.46,953.88,369.24Zm-3,4.9a15,15,0,0,0-2.12,1.78c-1.52,1.92-2.86,4-4.44,5.85-1.92,2.27-2.67,5-3.66,7.72a1.25,1.25,0,0,0,1.65,1.59,5.11,5.11,0,0,0,1.84-.82,27.09,27.09,0,0,0,3.26-3.07c2.71-3.13,3.16-7.17,4.13-11C951.64,375.71,951.15,375.05,950.85,374.14Z"/><path d="M809,388.8a9.22,9.22,0,0,0-2,0c-2.12.5-3.39-.58-4.34-2.24a7.34,7.34,0,0,1-.76-1.89c-.67-2.65-1.29-5.31-1.91-8a5.54,5.54,0,0,1-.11-1.22,2.27,2.27,0,0,1,1.67-2.5,2.33,2.33,0,0,1,2.69,1.38c.63,1.65,1,3.39,1.53,5.08.47,1.53.43,3.28,2,4.63,1.9-1.28,3.17-2.95,3.12-5.3-.05-2.55,1.11-4.74,1.78-7.07.13-.43.67-.75,1.31-1.42l1.67,3.68,1.06-.83c-.2,2.85-.3,5.71-.64,8.55-.74,6.37-1.42,12.76-2.49,19.08A81,81,0,0,1,810.63,411a3.73,3.73,0,0,1-3,2.53,1.41,1.41,0,0,1-1.16-.78,4.24,4.24,0,0,1,.15-2A103.82,103.82,0,0,0,809,395.39C809.25,393.26,809.83,391.09,809,388.8Z"/><path d="M1082.33,457.05c-1.22-1.6-2.48,0-3.59-.51a1.41,1.41,0,0,1,.23-2.14c2.07-2,6.78-2.38,9.15-.68.33.23.74.55.8.89.34,1.85,1.75,3.08,2.58,4.63,2.54,4.73,1.8,12.7-1.74,16.71a15,15,0,0,1-8.85,4.78c-4,.71-7.25-2.17-7.57-6.24a15.62,15.62,0,0,1,3.35-10.72c1.37-1.86,3.08-3.46,4.61-5.2A13.16,13.16,0,0,0,1082.33,457.05Zm4.27,3.49c-3.44,2.21-7.06,6.91-7.93,10.35a12.23,12.23,0,0,0-.22,1.61,3.19,3.19,0,0,0,1.36,3.2c1.19.82,2.32.33,3.4-.35C1088.43,472.07,1089.76,466.27,1086.6,460.54Z"/><path d="M672.2,392.4a25.83,25.83,0,0,0-.61,7.62c0,1,.1,1.92.1,2.88a2.29,2.29,0,0,1-1.28,2,1.57,1.57,0,0,1-2.4-.66,19.39,19.39,0,0,1-.91-4.79c-.07-4.8.07-9.6.1-14.39a28.94,28.94,0,0,0-.55-7.76c-.64-2.41.32-4.6,1.53-6.64a2.35,2.35,0,0,1,2.78-1.26c2.62.76,5.31,1.28,7.67,2.83,3.82,2.51,5.48,6.34,4.58,11.41a5.91,5.91,0,0,1-1.5,2.83C679.22,389.38,676,391,672.2,392.4ZM673,376c-1.1,2.76-.73,5.52-.8,8.2,0,1.33-.11,2.76,1,3.89,1.88.23,3-1.1,4.08-2.26a13.36,13.36,0,0,0,1.84-3.11,1.58,1.58,0,0,0,0-1.19C678.05,378.84,676.4,376.64,673,376Z"/><path d="M625.05,365.29c.72.13,1.11.2,1.51.29,3.81.84,5.62,2.83,5.94,6.63a27.52,27.52,0,0,1,0,2.87c0,1.22-.12,2.46-.05,3.68.18,3.48.89,6.77,3.89,9.26a8.91,8.91,0,0,1-1.17,1.69c-1.58,1.34-2.57,1.3-3.81-.23a28.88,28.88,0,0,1-2-3.07c-.49-.78-1-1.58-1.6-2.64-1.12.86-2,1.65-3,2.29a28.12,28.12,0,0,1-4.54,2.67c-2.58,1-4.64-.3-4.87-3.11a19.87,19.87,0,0,1,.17-4.49C616.41,374.57,619.8,369.48,625.05,365.29Zm-4.38,19.25A11.85,11.85,0,0,0,625.8,378c.88-2.19,1.75-4.32.77-6.67a1.8,1.8,0,0,0-2.43,1.06c-1.29,2.86-2.54,5.75-3.62,8.69C620.23,381.89,620.57,382.92,620.67,384.54Z"/><path d="M647.71,328a7.19,7.19,0,0,1-.72-1.75c-.28-3.95-.92-7.85-.66-11.86.34-5.47.23-11,.27-16.43,0-1.66,0-3.3,1.32-4.69a3,3,0,0,1,2.9,2.85c.28,1.75.33,3.54.47,5.31s.26,3.5.41,5.43c1.5-.12,2.7-.2,3.91-.31a3.48,3.48,0,0,1,2.95,1.13c3.06,3.16,4.51,6.71,3.21,11.19a47.72,47.72,0,0,0-.95,6.48,26.41,26.41,0,0,1-.41,2.81,1.2,1.2,0,0,1-.95.6c-.34,0-.92-.24-1-.5a13.69,13.69,0,0,1-.67-3.16c-.15-2.18,0-4.39-.28-6.55a24.18,24.18,0,0,0-1.31-5.15c-.22-.63-1-1.06-1.79-1.77a22.53,22.53,0,0,0-3,10c-.11.95,0,1.92,0,2.88C651.26,327.34,651.22,327.38,647.71,328Z"/><path d="M915.76,326.29c-1.06.6-2.22,1.28-3.39,1.93a19.69,19.69,0,0,1-7.68,2.61,3.9,3.9,0,0,1-4.5-3.66,8.61,8.61,0,0,1,.46-4c2.45-5.83,6.22-10.52,12.15-13.17a8.77,8.77,0,0,1,1.54-.53c1.89-.44,3.64-.13,4.66,1.64a35.86,35.86,0,0,1,3,6.21,6.42,6.42,0,0,1-.24,3.58,16,16,0,0,0-.06,7.29,5.47,5.47,0,0,0,1.06,2.59c.71.83,1.31,1.6.36,2.4-1.2,1-3,1-3.7,0a38.2,38.2,0,0,1-2.22-4.32c-.34-.72-.59-1.48-.9-2.22C916.25,326.54,916.08,326.49,915.76,326.29ZM915.15,314c-3.1.86-5,3.21-7,5.49a21.36,21.36,0,0,0-2.81,4.5c-.53,1.1-.68,2.43.89,3.17,4.37-1.36,7.41-4.43,10-8a4.55,4.55,0,0,0,.76-2.25C917.14,315.78,916.59,314.83,915.15,314Z"/><path d="M594.41,429.42l-3.9-3.64a7,7,0,0,0-2.62,4.64,47.6,47.6,0,0,0-.76,11.05c.1,1.07.41,2.12.67,3.43,1-.29,1.74-.47,2.46-.76.36-.14.63-.53,1-.72,1.41-.77,2.73-.59,3.29.4s.27,2.18-.71,3.33c-1.33,1.55-3.18,2-5.22,2.49,0,4.21,1.74,7.74,3.38,11.27a2.73,2.73,0,0,1-3.06,1.66,2.64,2.64,0,0,1-2.18-1.67,25.93,25.93,0,0,1-1.46-2.94A50.36,50.36,0,0,1,582.17,439c.21-4.57.87-9,3-13.12a14.08,14.08,0,0,1,1.47-2.45c1.8-2.24,3.49-2.68,6.16-1.72a6.19,6.19,0,0,1,4.06,5.22C596.84,428.4,595.93,429.16,594.41,429.42Z"/><path d="M1043.52,324.16c2.83.23,5-1,7.23-1.79a2.43,2.43,0,0,1,1.8,2.87c-3.28,2.44-3.28,2.44-9.19,3.65a11.43,11.43,0,0,0-.55,2.6c0,2.45.22,4.9.37,7.36,0,.81.22,1.62.2,2.43a2,2,0,0,1-1.83,1.88,1.58,1.58,0,0,1-1.82-1.29,36.55,36.55,0,0,1-1.39-6.79,121.22,121.22,0,0,1,1.66-28.59c.43-2.27.84-4.56,1.4-6.8a7.28,7.28,0,0,1,1.31-2.51,1.77,1.77,0,0,1,3.18.7,6.35,6.35,0,0,1,.27,2.41,54.48,54.48,0,0,1-.91,6.49c-1.18,5.22-1.47,10.55-2,15.85A6.63,6.63,0,0,0,1043.52,324.16Z"/><path d="M792.86,324.37a7.44,7.44,0,0,1-4.26,4.15A34.58,34.58,0,0,1,777.41,331c-4.69.38-8.2-4.16-6.95-8.89,1.77-6.67,6-11.22,12.41-13.84a5.31,5.31,0,0,1,1.17-.37c1.81-.26,3.61-.28,5,1.17,1,1.07,1.12,4.38.06,5.87-2.51,3.55-5.58,6.38-10.14,7-.41.06-.82.09-1.22.15-1.72.29-2.41.8-2.37,1.74,0,1.58.79,2.73,2.31,2.94a20.94,20.94,0,0,0,5.69.22,53.41,53.41,0,0,0,6.74-1.75C790.73,325,791.36,324.83,792.86,324.37Zm-7.22-12c-3.1.35-3.38.41-4.92,1.92-1,1-2.26,1.95-2.54,3.51a.81.81,0,0,0,.34.66.9.9,0,0,0,.76.09A15.1,15.1,0,0,0,785.64,312.34Z"/><path d="M868.91,375.41c-.49.46-.91,1.11-1.5,1.34-2.11.84-2.75,2.49-2.88,4.55q-.35,5.73-.73,11.48a14.19,14.19,0,0,1-.26,2.85,2.22,2.22,0,0,1-2.15,1.62,2,2,0,0,1-2.17-1.51,9.47,9.47,0,0,1-.38-2.42c-.07-2.33-.07-4.66-.08-7,0-1.77,0-3.54,0-5.11a6.44,6.44,0,0,0-.73-.77c-2.17-1.41-2.3-2.21-.5-3.57a20.14,20.14,0,0,1,1.81-1.1,34.14,34.14,0,0,0,.89-6.89c.27-3.55.58-7.1.9-10.65,0-.53.06-1.24.39-1.55a7.3,7.3,0,0,1,2.31-1.52c.63-.26,1.82.72,2.09,1.65a7.66,7.66,0,0,1,.34,2.42c-.07,2.19-.25,4.37-.39,6.56-.11,1.9-.22,3.81-.34,5.86.79.45,1.45.89,2.16,1.22a1.94,1.94,0,0,1,1.09,2.7Z"/><path d="M616.76,312.26a35.16,35.16,0,0,1-1.16,5.56c-2.17,5.68-9.39,9.85-15.46,9.18a4.1,4.1,0,0,1-3.27-2.14,10,10,0,0,1-1.38-5.88,17.1,17.1,0,0,1,4.79-11,51.62,51.62,0,0,1,6.15-5.38c2.5-1.9,4.14-1.65,6.55.49C615.74,305.51,616.75,308.61,616.76,312.26Zm-4.3.2a33.82,33.82,0,0,0-1.22-4.73c-.87-2.12-2.86-2.54-4.7-1.14-1,.75-1.84,1.64-2.77,2.44-3.3,2.83-4.34,6.58-4.11,10.7.19,3.58,3.68,5.11,6.56,2.95a36.72,36.72,0,0,0,3.53-3.42C611.64,317.4,612.23,315.07,612.46,312.46Z"/><path d="M701.77,384c.3-1.93.58-4.52,1.12-7.05.65-3.05,2.82-5.25,4.71-7.57a1.85,1.85,0,0,1,2.28-.33c2,1,3.94,1.89,5.81,3s2.34,3,3,4.75c1.51,3.93.56,9.57-4,12.15a52.21,52.21,0,0,1-5.79,3c-2.37,1-4.21.23-5.68-1.88A10.25,10.25,0,0,1,701.77,384Zm4.88-.83a31,31,0,0,0,.8,3.82,1.73,1.73,0,0,0,3,.51c.84-1.07,1.53-2.26,2.29-3.38,2-2.9,1.25-5.71-.28-8.47-.47-.84-1.15-1.76-2.22-1.41a2.87,2.87,0,0,0-1.65,1.61C707.81,378.28,707.25,380.8,706.65,383.14Z"/><path d="M735.72,329c-3.69,0-6-2.09-6.07-5.76a13.68,13.68,0,0,1,.54-4c1.3-4.52,3.94-8.35,6.77-12a2.29,2.29,0,0,1,3.84-.24,8.44,8.44,0,0,0,3.44,1.89c5.2,2,6.78,5.92,4.83,10.23a16.8,16.8,0,0,1-8.62,8.89A23.69,23.69,0,0,1,735.72,329Zm-1.61-7.66c.22.88.31,1.43.49,1.94.54,1.53,1.71,2,3.25,1.34a11.64,11.64,0,0,0,6.14-6.33,7.56,7.56,0,0,0,.28-3.62,2.53,2.53,0,0,0-1.09-1.61,4.3,4.3,0,0,0-5.8,1.2,25.74,25.74,0,0,0-2.07,3.5A35,35,0,0,0,734.11,321.3Z"/><path d="M592.86,297.92c-1.42,3.09-1.35,6.32-1.87,9.39a52.74,52.74,0,0,0-.68,9.8c.06,3.11.63,6.2,1,9.26-2.79.95-3.53.75-4.31-1.26a9.51,9.51,0,0,1-.63-2.78c-.44-6-.89-12,.58-18a13.18,13.18,0,0,0,.33-3.26c0-1.8-.93-2.72-2.78-2.89-1-.09-1.92,0-2.87-.07a6.74,6.74,0,0,1-2.39-.47,2.38,2.38,0,0,1-1.06-1.51c-.06-.3.58-1,1-1.09a27.5,27.5,0,0,1,4-.85c4.62-.61,9.24-1.15,13.86-1.71a7.34,7.34,0,0,1,.82-.08c1.22,0,2.71-.34,3.17,1.15s-1,2.21-1.94,2.84a10,10,0,0,1-3.05,1C595,297.67,593.9,297.76,592.86,297.92Z"/><path d="M616.43,449c-.73,1.31-1.41,2.66-2.2,3.94a16.83,16.83,0,0,1-10.56,7.88,5.15,5.15,0,0,1-6.67-4.54,15.75,15.75,0,0,1,.32-4.49,28.37,28.37,0,0,1,6.08-11.95,16.6,16.6,0,0,1,3.45-2.89,2.75,2.75,0,0,1,4.26.87c2.11,3.29,4.91,6.29,4.91,10.58,0,.25.22.49.35.73Zm-8.54-7.75a12.4,12.4,0,0,0-1.5,1.21,23.45,23.45,0,0,0-4.59,9.86,7,7,0,0,0,.13,2.81,2.06,2.06,0,0,0,2.75,1.67,4.72,4.72,0,0,0,1.83-.8,11.22,11.22,0,0,0,4.59-8.68A6.71,6.71,0,0,0,607.89,441.26Z"/><path d="M764.2,328.63l-6.58,2.14A4,4,0,0,1,755,328a44.57,44.57,0,0,1-1.54-16.68,11.08,11.08,0,0,1,.92-3.14c.53-1.37,1.45-1.92,2.47-1.63a2,2,0,0,1,1.53,2.16c0,1.78,0,3.56,0,5.34a33.38,33.38,0,0,0,.43,6.76c1,.39,1.22-.21,1.33-.71.85-4.22,3.11-7.89,4.54-11.88a4.5,4.5,0,0,1,.58-1.08,1.77,1.77,0,0,1,3.06.17,3.8,3.8,0,0,1,.28,3.55c-.57,1.39-1.13,2.79-1.77,4.15A25.53,25.53,0,0,0,764.2,328.63Z"/><path d="M711.06,441.63a16.77,16.77,0,0,1,1.81-.59c2.31-.47,4.26.26,5.12,2.31,3.14,7.53,2.72,12.81-3.28,19.09a11.6,11.6,0,0,1-7,3.05c-2.41.32-3.83-.86-4.33-3.34a16.11,16.11,0,0,1,.22-6.91A28,28,0,0,1,708.55,445C709.36,443.92,710.16,442.83,711.06,441.63Zm3.25,4.29a14.71,14.71,0,0,0-2.35,2,18.52,18.52,0,0,0-3.92,8.83,24.7,24.7,0,0,0-.25,3.63,1.32,1.32,0,0,0,2.09,1c4.27-3.16,6.42-7.29,5.63-12.68A12.68,12.68,0,0,0,714.31,445.92Z"/><path d="M843,317.38a18.23,18.23,0,0,1-4.92,11.44c-1.91,2.13-4.59,2.89-7.41,3a5,5,0,0,1-4.32-1.94c-2.27-2.69-2.47-5.72-1.46-8.9A24.14,24.14,0,0,1,831,310.9a35.38,35.38,0,0,1,5.41-4.36c1.8-1.17,2.93-.56,3.71,1.52a23.58,23.58,0,0,0,1.43,3.39A11.92,11.92,0,0,1,843,317.38Zm-5.83-5.93c-3.52,2.27-6.95,6.68-7.8,10a8.14,8.14,0,0,0,.11,4.86,2.84,2.84,0,0,0,4.31,1.58,10.26,10.26,0,0,0,3.59-3.87A11.77,11.77,0,0,0,837.15,311.45Z"/><path d="M670.53,319.77a11.72,11.72,0,0,0-.6,1.74c-.62,4.31.54,5.8,4.81,6.34a10.31,10.31,0,0,0,5.63-.61,22.06,22.06,0,0,1,3-.75c-.69,1-.87,1.54-1.23,1.76a17.08,17.08,0,0,1-11.4,2.56c-4.27-.57-5.63-2.16-5.75-6.15A15.55,15.55,0,0,1,669.07,313a20.51,20.51,0,0,1,5.67-4.69,7.16,7.16,0,0,1,4.76-.77,4.28,4.28,0,0,1,2.48,7.23c-2.6,3-5.66,5.17-9.93,4.8A7.57,7.57,0,0,0,670.53,319.77Zm7.43-7.32c-2.44.09-2.44.09-2.93,2.41C677.19,314.44,677.19,314.44,678,312.45Z"/><path d="M642.51,370c2.18,1.15,4.48,0,6.23,1.38a3.88,3.88,0,0,1,.67,1c-.65,1.93-1.81,3-3.94,2.8a16.39,16.39,0,0,0-2.9.31,16.41,16.41,0,0,0,0,2.55c.53,3.23,1.14,6.44,1.72,9.66.1.54.38,1.17.2,1.59a4.6,4.6,0,0,1-1.42,1.84c-.64.48-1.32-.06-1.78-.55a7.56,7.56,0,0,1-2.13-3.89c-.79-4.57-1.66-9.13-2.34-13.71a29.69,29.69,0,0,1,0-4.9c0-2.44.16-4.89.21-7.34,0-2.14,1.32-3.77,2.37-5.45.26-.4,1.53-.37,2.25-.21a2,2,0,0,1,1.28,2.28c-.26,2.17-.62,4.32-.8,6.49C642,365.85,641.69,367.91,642.51,370Z"/><path d="M1007.48,473.55c-1.28,1.8-2.49,3.41-4.64,4a13,13,0,0,1-6.49-.06c-1.43-.32-1.88-1.5-2.46-2.56a2,2,0,0,1,.28-2.58c2.12-.91,3.63,2,5.93.85-.2-1.6-1.4-2.35-2.39-3.22a9.69,9.69,0,0,1-3.33-8.44,8.83,8.83,0,0,1,1.38-4.21,20.3,20.3,0,0,1,8.18-7.84c.49-.24,1-.49,1.49-.69a2.54,2.54,0,0,1,3.67,2.74,3.9,3.9,0,0,1-3.59,3.15,3.54,3.54,0,0,0-1.55.24c-4.35,2.75-5.88,8.71-2,12.22.81.74,1.62,1.48,2.46,2.17A9.66,9.66,0,0,1,1007.48,473.55Z"/><path d="M852.61,370.34l-2.35-1.76c-.46.11-.82.08-1,.25-1.27,1.4-2.58,2.79-3.74,4.28a5,5,0,0,0-.3,6.12c1.39,2.18,2.93,4.26,4.41,6.39,1,1.46,2.13,2.84,3,4.39,1.32,2.42.43,4.31-2.34,4.77-3.12.52-6.29.84-8.87-1.69-.19-.19-.45-.37-.53-.61a1.77,1.77,0,0,1-.15-1.13,1.2,1.2,0,0,1,.92-.6c1.08.12,2.13.47,3.21.57a1.68,1.68,0,0,0,1.36-.56,1.78,1.78,0,0,0-.11-1.52c-1-1.48-2.09-2.86-3.13-4.3a15.47,15.47,0,0,1-1.37-2c-1.38-2.66-3.06-5.32-1.87-8.5,1.57-4.19,3.71-7.95,8.18-9.71a4.52,4.52,0,0,1,5.21,1.19C854.28,367.09,854.17,368.3,852.61,370.34Z"/><path d="M891.32,397.07c-1-.75-1-1.88-1.08-3a103.83,103.83,0,0,1-.31-19.63c.39-3.81.58-7.63,1-11.43a7.67,7.67,0,0,1,1-3.05,2.32,2.32,0,0,1,3.83-.15,5.27,5.27,0,0,1,1.15,4.22c-.19,2.17-.39,4.35-.73,6.51a121.41,121.41,0,0,0-1.24,18,35,35,0,0,1-.3,4.91C894.23,395.59,893.62,396.16,891.32,397.07Z"/><path d="M639.63,325.83c-2.72,1.16-4.14.78-4.86-1.49a20.45,20.45,0,0,1-.68-4.42c-.11-1.36,0-2.74,0-4.1-.06-2.43-.26-2.66-2.58-3.52-.6-.22-1.17-.5-1.64-.7a1.32,1.32,0,0,1,1.07-1.7c1-.35,2.09-.59,3.08-.86,1.14-1.13,1-2.57,1.17-3.89.36-3,.58-6,1-9a8.19,8.19,0,0,1,1-3,1.72,1.72,0,0,1,3,.25,5.34,5.34,0,0,1,.6,2.33,37.6,37.6,0,0,1-.38,4.48,14.32,14.32,0,0,0,0,5c.81.64,1.22,0,1.71-.05a2.25,2.25,0,0,1,2.59,1.43,2,2,0,0,1-.83,2.17,18.24,18.24,0,0,1-2.42,1.52,5.53,5.53,0,0,0-2.91,5.05c0,3.15-.11,6.29,1,9.32A5.71,5.71,0,0,1,639.63,325.83Z"/><path d="M886.39,364.17c-.17,1.93-.28,3.57-.46,5.21-.44,3.93-1.13,7.86-1.3,11.81a98,98,0,0,0,.5,9.82,2.7,2.7,0,0,1-2.07,3.09,1.7,1.7,0,0,1-2.16-.67,9.29,9.29,0,0,1-1.23-3,30.71,30.71,0,0,1-.53-6.11c.15-4,.55-7.92.85-11.88.25-3.27.49-6.54.77-9.81a19.19,19.19,0,0,1,.46-3.23,2.52,2.52,0,0,1,2.6-1.63,2.19,2.19,0,0,1,2,1.81C886.11,361.18,886.23,362.82,886.39,364.17Z"/><path d="M819.64,310.78a9.7,9.7,0,0,0-4.65,4,27.63,27.63,0,0,0-2.76,5,9.63,9.63,0,0,0-.64,4c.11,2.39,1.07,3.42,3.48,3.88a30.06,30.06,0,0,0,4.47.3,4,4,0,0,1,2.7.74c-2.44,2-5.23,2.27-7.92,2.22-3.91-.07-7.24-2.19-7.63-7a11.64,11.64,0,0,1,1.06-6,40.17,40.17,0,0,1,4.33-7.43,10.58,10.58,0,0,1,6.36-4.21,4.51,4.51,0,0,1,5.27,2.18,15.74,15.74,0,0,1,1.51,3.76,1.55,1.55,0,0,1-1,2,1.94,1.94,0,0,1-2.26-.43C821.21,312.89,820.5,311.91,819.64,310.78Z"/><path d="M945.77,314.66c-1.44-.15-2.64-.36-3.85-.39a5.51,5.51,0,0,0-5.8,3.7c-1,2.68-1.79,5.45-2.58,8.21a15.43,15.43,0,0,0-.63,3.63,3,3,0,0,1-3,3.18,3.12,3.12,0,0,1-1.89-2.48q-1.34-5.16-2.62-10.33a3.74,3.74,0,0,1-.14-1.62c.12-.62.34-1.46.8-1.72a2.24,2.24,0,0,1,1.84.25,18.87,18.87,0,0,1,2.36,2c.67-1.25,1.22-2.3,1.79-3.35a11.77,11.77,0,0,1,5.39-5.43,10.68,10.68,0,0,1,5.18-.92,3.15,3.15,0,0,1,2.48,1.25C945.87,311.76,946.71,312.88,945.77,314.66Z"/><path d="M791.45,377c0-3.42,0-6.84,0-10.26a10.49,10.49,0,0,1,.35-2.8,2.35,2.35,0,0,1,2.6-1.55,2.13,2.13,0,0,1,2.14,1.6,15.94,15.94,0,0,1,.55,3.62q0,8.83-.11,17.65a29.72,29.72,0,0,1-.52,4.89,4.44,4.44,0,0,1-1.13,2.08c-1.19,1.25-2.68.8-3-.9a19.44,19.44,0,0,1-.4-3.66c0-3.55,0-7.11,0-10.67Z"/><path d="M701.58,372.74c-1,.2-1.91.4-2.82.56a6.65,6.65,0,0,0-3.51,1.93,7.52,7.52,0,0,0-2.59,6.18c.08,1.64.27,3.26.37,4.9a16,16,0,0,1,0,2.85,2.68,2.68,0,0,1-2.17,2.17,3.3,3.3,0,0,1-2.56-1.75,8,8,0,0,1-.27-1.2c-.7-3.47-1.31-7-2.12-10.4a32.48,32.48,0,0,0-1.76-4.56c-.69-1.7-.65-2.73.17-3.38s2.23-.33,3.5,1.14c.8.91,1.56,1.85,2.35,2.77.08.09.25.1.52.2,1.32-1,2.64-2.22,4.1-3.19,2.3-1.53,4.27-1.34,6.31.49C701.37,371.68,701.39,372.17,701.58,372.74Z"/><path d="M966.13,389.52a31.42,31.42,0,0,0-2.27-2.35c-4.47-3.69-3.47-9.75-.82-13.34a24.17,24.17,0,0,1,3.86-4.22,8,8,0,0,1,3.3-1.4,1.84,1.84,0,0,1,2,1.15,2.19,2.19,0,0,1-.5,2.6,6.29,6.29,0,0,1-1.11.53,8.77,8.77,0,0,0-3.67,3.74c-1.84,3.17-1.47,5.93,1.2,8.5.88.85,1.95,1.51,2.81,2.38,1.76,1.79,1.62,3.71-.36,5.26a6.42,6.42,0,0,1-5.42,1.15,4.51,4.51,0,0,1-2.16-1.68c-.66-.8,0-1.89,1-2.06.26,0,.54.11.81.09A8.66,8.66,0,0,0,966.13,389.52Z"/><path d="M725,328c-1.57.08-2.56.38-3.34.1a3.41,3.41,0,0,1-1.5-1.79,9.73,9.73,0,0,1-.86-3.14c-.25-3.67-.47-7.34-.51-11,0-3.14.19-6.27.29-9.41a8,8,0,0,1,1-4.32,2,2,0,0,1,2-1.15,1.9,1.9,0,0,1,1.65,1.6,16.75,16.75,0,0,1,.28,3.24c0,2.6-.19,5.19-.24,7.78C723.65,315.76,723.32,321.62,725,328Z"/><path d="M868.91,375.41l-.13.18,3-1.55a3.73,3.73,0,0,1,2.71,3.24,16.78,16.78,0,0,1,.5,4.87c-.33,3.81-.88,7.6-1.46,11.39a2.38,2.38,0,0,1-2.93,2.15,1.72,1.72,0,0,1-1.7-1.5,21.54,21.54,0,0,1,0-3.68c.13-1.91.35-3.82.56-5.72A28.44,28.44,0,0,0,868.91,375.41Z"/><path d="M1103.73,478.55c-.73,0-1.37-1.05-1.33-2.21,0-1.38.79-2.34,1.77-2.27a2.12,2.12,0,0,1,2,1.72A2.88,2.88,0,0,1,1103.73,478.55Z"/><path d="M875,363.83c-.34.4-.59.91-1,1.14-1.06.6-2.2.52-2.54-.2a1.66,1.66,0,0,1,.09-1.48,2.06,2.06,0,0,1,2.56-.52C874.4,362.92,874.58,363.36,875,363.83Z"/><path d="M649.94,447.24c.22,1.3-.51,2.81-1.46,4.16a28.64,28.64,0,0,1-7.26,7.18,4.24,4.24,0,0,1-.72.4,2,2,0,0,1-2.83-1.45,12.09,12.09,0,0,1,.23-4.46c1.26-4,3.37-7.47,7.12-9.68a11,11,0,0,1,1.46-.73c2.08-.8,3.1-.17,3.33,2.07C649.88,445.41,649.88,446.1,649.94,447.24Z" style="fill:#fff"/><path d="M628.35,440.56c.54,1.05.85,1.38.87,1.74.19,3.93-.5,7.64-3.06,10.78a40.7,40.7,0,0,1-3.61,3.92,2.26,2.26,0,0,1-1.83.31,1.61,1.61,0,0,1-.8-1.28,12.27,12.27,0,0,1,.42-3.64c.7-2.21,1.62-4.36,2.49-6.51.49-1.2,1.16-2.1,2.74-2,.49,0,1.14-.58,1.55-1.05A14,14,0,0,0,628.35,440.56Z" style="fill:#fff"/><path d="M746.12,387c.5-1.75.92-3.46,1.49-5.12a24.58,24.58,0,0,1,4.52-8.16c.78-.9,1.73-1.94,3.11-1.36a3.06,3.06,0,0,1,1.78,3.35c0,.27-.07.54-.1.81-.73,7.07-1.4,8.15-7.46,12-.66.43-1.42,1.17-2.18.56C746.73,388.69,746.53,387.81,746.12,387Z" style="fill:#fff"/><path d="M999.09,323a7.23,7.23,0,0,1,5.3-4.92,4.09,4.09,0,0,1,2.33.38,1.87,1.87,0,0,1,.67,3.06,4.64,4.64,0,0,1-3,1.9C1002.72,323.58,1001.09,324,999.09,323Z" style="fill:#fff"/><path d="M832.91,450.33c.64,1.07-.1,1.8-.72,2.44-1.56,1.61-3,3.38-5.37,3.8-.81-.87-.19-1.41.19-1.87A13.2,13.2,0,0,1,832.91,450.33Z" style="fill:#fff"/><path d="M918.72,470.38a7.78,7.78,0,0,1,1.06-7.06c1.26-1.74,2.55-3.47,4-5.11a5.3,5.3,0,0,1,2-1.16c.17-.07.57.41.84.67a.51.51,0,0,1,0,.39A26.87,26.87,0,0,1,921,468.79,13,13,0,0,1,918.72,470.38Z" style="fill:#fff"/><path d="M1055.6,470.25a4,4,0,0,1,.92-4.29,23.06,23.06,0,0,1,8.1-6.66,2.48,2.48,0,0,1,3,.22,3.13,3.13,0,0,1,.17,3.77,1.65,1.65,0,0,1-.24.33C1064,466.46,1060.35,469.24,1055.6,470.25Z" style="fill:#fff"/><path d="M700.19,321a7.2,7.2,0,0,1-.82-1.94,7.74,7.74,0,0,1,5.35-7.83,3,3,0,0,1,3.57,1.26,2.71,2.71,0,0,1-.1,3.41,4.41,4.41,0,0,1-.8.92A25.63,25.63,0,0,1,700.19,321Z" style="fill:#fff"/><path d="M781,377.37a2.89,2.89,0,0,1,1.63,2.62,4.93,4.93,0,0,1-1,2.57,60.08,60.08,0,0,1-4.07,4.53,6.22,6.22,0,0,1-4.05,1.66A1.31,1.31,0,0,1,772,387.7a2.86,2.86,0,0,1,.35-1.49c.09-.22.38-.38.61-.52a15.7,15.7,0,0,0,5.22-5.58,18,18,0,0,1,2-2.49C780.41,377.45,780.75,377.45,781,377.37Z" style="fill:#fff"/><path d="M767.1,462.47a2.33,2.33,0,0,1-1-2.74,24.73,24.73,0,0,1,8.12-13.9,11.38,11.38,0,0,1,3.07-1.33c.34.72.79,1.21.74,1.64C777.26,452,774.34,459.23,767.1,462.47Z" style="fill:#fff"/><path d="M1039.86,456.63c2.55,3.4,2,7,.09,10.29s-5.12,5.64-8.42,7.64a1.41,1.41,0,0,1-2-.91,5.88,5.88,0,0,1-.06-2.43,29.22,29.22,0,0,1,2.27-6.13,54.17,54.17,0,0,1,4.82-6.61A4.58,4.58,0,0,1,1039.86,456.63Z" style="fill:#fff"/><path d="M886.63,313.24a3,3,0,0,1,3.32,2.23c1.36,4-.13,7.34-4.28,9.63C885,322.51,885.42,317.21,886.63,313.24Z" style="fill:#fff"/><path d="M950.85,374.14c.3.91.79,1.57.66,2.08-1,3.8-1.42,7.84-4.13,11a27.09,27.09,0,0,1-3.26,3.07,5.11,5.11,0,0,1-1.84.82,1.25,1.25,0,0,1-1.65-1.59c1-2.68,1.74-5.45,3.66-7.72,1.58-1.87,2.92-3.93,4.44-5.85A15,15,0,0,1,950.85,374.14Z" style="fill:#fff"/><path d="M1086.6,460.54c3.16,5.73,1.83,11.53-3.39,14.81-1.08.68-2.21,1.17-3.4.35a3.19,3.19,0,0,1-1.36-3.2,12.23,12.23,0,0,1,.22-1.61C1079.54,467.45,1083.16,462.75,1086.6,460.54Z" style="fill:#fff"/><path d="M673,376c3.36.62,5,2.82,6.17,5.53a1.58,1.58,0,0,1,0,1.19,13.36,13.36,0,0,1-1.84,3.11c-1.07,1.16-2.2,2.49-4.08,2.26-1.15-1.13-1.08-2.56-1-3.89C672.31,381.54,671.94,378.78,673,376Z" style="fill:#fff"/><path d="M620.67,384.54c-.1-1.62-.44-2.65-.15-3.45,1.08-2.94,2.33-5.83,3.62-8.69a1.8,1.8,0,0,1,2.43-1.06c1,2.35.11,4.48-.77,6.67A11.85,11.85,0,0,1,620.67,384.54Z" style="fill:#fff"/><path d="M915.15,314c1.44.8,2,1.75,1.9,2.91a4.55,4.55,0,0,1-.76,2.25c-2.63,3.57-5.67,6.64-10,8-1.57-.74-1.42-2.07-.89-3.17a21.36,21.36,0,0,1,2.81-4.5C910.1,317.24,912.05,314.89,915.15,314Z" style="fill:#fff"/><path d="M785.64,312.34a15.1,15.1,0,0,1-6.36,6.18.9.9,0,0,1-.76-.09.81.81,0,0,1-.34-.66c.28-1.56,1.51-2.49,2.54-3.51C782.26,312.75,782.54,312.69,785.64,312.34Z" style="fill:#fff"/><path d="M612.46,312.46c-.23,2.61-.82,4.94-2.71,6.8a36.72,36.72,0,0,1-3.53,3.42c-2.88,2.16-6.37.63-6.56-2.95-.23-4.12.81-7.87,4.11-10.7.93-.8,1.8-1.69,2.77-2.44,1.84-1.4,3.83-1,4.7,1.14A33.82,33.82,0,0,1,612.46,312.46Z" style="fill:#fff"/><path d="M706.65,383.14c.6-2.34,1.16-4.86,1.93-7.32a2.87,2.87,0,0,1,1.65-1.61c1.07-.35,1.75.57,2.22,1.41,1.53,2.76,2.26,5.57.28,8.47-.76,1.12-1.45,2.31-2.29,3.38a1.73,1.73,0,0,1-3-.51A31,31,0,0,1,706.65,383.14Z" style="fill:#fff"/><path d="M734.11,321.3a35,35,0,0,1,1.2-3.58,25.74,25.74,0,0,1,2.07-3.5,4.3,4.3,0,0,1,5.8-1.2,2.53,2.53,0,0,1,1.09,1.61,7.56,7.56,0,0,1-.28,3.62,11.64,11.64,0,0,1-6.14,6.33c-1.54.64-2.71.19-3.25-1.34C734.42,322.73,734.33,322.18,734.11,321.3Z" style="fill:#fff"/><path d="M607.89,441.26a6.71,6.71,0,0,1,3.21,6.07,11.22,11.22,0,0,1-4.59,8.68,4.72,4.72,0,0,1-1.83.8,2.06,2.06,0,0,1-2.75-1.67,7,7,0,0,1-.13-2.81,23.45,23.45,0,0,1,4.59-9.86A12.4,12.4,0,0,1,607.89,441.26Z" style="fill:#fff"/><path d="M714.31,445.92a12.68,12.68,0,0,1,1.2,2.78c.79,5.39-1.36,9.52-5.63,12.68a1.32,1.32,0,0,1-2.09-1,24.7,24.7,0,0,1,.25-3.63A18.52,18.52,0,0,1,712,447.9,14.71,14.71,0,0,1,714.31,445.92Z" style="fill:#fff"/><path d="M837.15,311.45a11.77,11.77,0,0,1,.21,12.54,10.26,10.26,0,0,1-3.59,3.87,2.84,2.84,0,0,1-4.31-1.58,8.14,8.14,0,0,1-.11-4.86C830.2,318.13,833.63,313.72,837.15,311.45Z" style="fill:#fff"/><path d="M678,312.45c-.77,2-.77,2-2.93,2.41C675.52,312.54,675.52,312.54,678,312.45Z" style="fill:#fff"/></g></svg>
