<svg xmlns="http://www.w3.org/2000/svg" viewBox="0 0 1366 768"><g id="Layer_16" data-name="Layer 16"><path d="M1109,240.16a250.67,250.67,0,0,1-26.15-.81c-7.46-.55-14.91-1.26-22.34-2.22-6.88-.89-13.77-1.75-20.62-2.77-8-1.17-15.87-2.57-23.78-4q-12.24-2.22-24.47-4.58c-9.68-1.87-19.33-3.85-29-5.49q-14-2.35-28.06-4.19c-7.84-1-15.7-1.79-23.54-2.75-7.32-.91-14.72-1.22-22.07-2-5.92-.65-11.85-1.09-17.77-1.78-3.81-.45-7.69-.64-11.5-1.12-4.88-.62-9.78-1.12-14.66-1.76-4.46-.58-9-1-13.43-1.55q-7.45-.87-14.89-1.82c-3.34-.42-6.71-.69-10.07-1.07-4.08-.45-8.18-.71-12.25-1.37-1.88-.3-3.84-.33-5.75-.46-6.65-.42-13.27-1.13-19.92-1.58-6.32-.43-12.63-1-19-1.42-4.4-.31-8.8-.65-13.19-1L717.08,195c-6.08-.45-12.17-.84-18.23-1.46-12.23-1.25-24.49-2.2-36.74-3.22-10.37-.86-20.77-1.61-31.19-2.05-8.16-.36-16.32-.61-24.47-1-5.37-.28-10.76.12-16.08-.42s-10.76,0-16.08-.5c-4.18-.43-8.35-.05-12.49-.43-9.11-.83-18.25-1-27.37-1.78-6-.5-12-.79-18-1.13-9.75-.56-19.52-1.11-29.28-1.06a245.84,245.84,0,0,0-26.41,1.53c-6.86.77-13.74,1.43-20.62,2.08-13.6,1.3-27.22,2.18-40.82,3.45C388.15,190,377,191.16,366,193.15a150.67,150.67,0,0,0-31.45,9.08c-1,.42-1.7,1-1.43,2.17" style="fill:none;stroke:#000;stroke-linecap:round;stroke-linejoin:round;stroke-width:2px"/><path d="M698.84,288.4c6.23.62,12.46,1.23,18.72,1.45,15.21.54,30.32,1.91,45.12,5.73,7.11,1.84,14.37,2.89,21.6,4.13,4.79.82,9.61,1.58,14.42,2.26,4,.58,8.14,1.08,12.21,1.63s8.18,1.19,12.26,1.74,8.48,1,12.7,1.59c4.65.62,9.3,1.24,13.94,1.77,5.84.67,11.66,1.5,17.51,2,7.51.7,15,1.12,22.56,1.49,10.72.52,21,3.41,31.2,6.64a14.6,14.6,0,0,0,2.88.71c4.45.46,8.11,2.51,11.55,5.27,3.77,3,7.12,6.23,9.15,10.8A28.3,28.3,0,0,1,946,354.4c-1.81,7.45-5.84,13.79-10.57,19.66-8.36,10.38-17.7,19.93-26.15,30.24A115.73,115.73,0,0,1,895,419.24a86.34,86.34,0,0,1-27.64,15.55A112.32,112.32,0,0,1,833,441.31a99.38,99.38,0,0,1-26.88-3.15c-9.76-2.4-19.61-4.34-29.51-6-12.63-2.17-25.12-5-37-10.06a97,97,0,0,1-36.21-26.17A67.59,67.59,0,0,1,689.27,370a83.3,83.3,0,0,1-2.71-16.79c-.39-5.85-.09-11.68.09-17.52.12-3.93.75-7.84,1.15-11.76.74-7.3,3.13-14.4,2.63-21.84-.18-2.58-.29-5.18-1.88-7.46-.89-1.27-.17-2.77,1.65-4.06a8.73,8.73,0,0,1,5-1.66,12.31,12.31,0,0,0,3.36-.5" style="fill:none;stroke:#000;stroke-linecap:round;stroke-linejoin:round;stroke-width:2px"/><path d="M694.28,452.56c-6.5-9.77-15.47-17-25-23.49-20-13.75-39.33-28.47-58.07-43.93-12.92-10.66-25.56-21.66-38.41-32.39-18.75-15.64-38-30.69-57.77-45q-38.89-28-79.53-53.39c-21.06-13.19-43.07-24.53-66.91-32-12.06-3.8-24.17-7.4-36.49-10.27-7.71-1.78-15.47-3.29-23.27-4.64-6.38-1.11-12.8-2-19.22-2.71s-12.94-1-19.42-1.4c-5.54-.34-11-.14-16.57-.37" style="fill:none;stroke:#000;stroke-linecap:round;stroke-linejoin:round;stroke-width:2px"/><path d="M705.32,362.2c1,.41,2.29-.36,3.14.83a2.91,2.91,0,0,1,.78,2.17c-.29,6.51,1.87,12.28,5.67,17.53,9.78,13.53,23.22,22.35,37.94,29.5a143,143,0,0,0,48.23,13.89c9.18.95,18.38,1.68,27.59,2.29a101.62,101.62,0,0,0,26.88-1.58c10.68-2.16,20.85-5.62,28.81-13.63.24-.24.49-.47.72-.72,4.57-5.08,2.92-9.08-2.14-11.8-4.48-2.41-9.28-3.56-14.18-4.51-6.51-1.26-13.1-1.93-19.67-2.72-6.72-.8-13.46-1.42-20.18-2.23-5.36-.65-10.73-1.24-16.07-2a99.24,99.24,0,0,1-26.9-7.62,185.78,185.78,0,0,1-16.54-8.68,3.35,3.35,0,0,0-3.13-.49c-2.41,1-4.87,0-7.17-.34-5.29-.85-10.6-1.54-15.86-2.53-5.52-1-11-2.2-16.57-3.09-5.11-.81-10.13-2.27-15.35-2.42a2.71,2.71,0,0,0-1.68.23" style="fill:none;stroke:#000;stroke-linecap:round;stroke-linejoin:round;stroke-width:2px"/><path d="M1115.24,307.6a50.09,50.09,0,0,0-21.58,2.93c-6.11,2.1-11.75,5.27-17.55,8.1-18.78,9.15-37.6,18.23-56.39,27.38-6.31,3.07-12.87,5.61-19.19,8.66-16.49,8-26.69,20.94-30.77,38.84A90.87,90.87,0,0,0,968,420.15a40.53,40.53,0,0,0,11.16,25.45,83.23,83.23,0,0,0,21.12,16.08,3.6,3.6,0,0,1,2.16,4.08" style="fill:none;stroke:#000;stroke-linecap:round;stroke-linejoin:round;stroke-width:2px"/><path d="M739,373.12c.61,2.24,2.28,3.66,4,5,5.09,4.13,11.14,6.48,17,9.13,2.64,1.19,5.35,2.27,7.91,3.62a108,108,0,0,0,23.52,8.67c8.44,2.2,16.8,4.67,25.45,5.95,5.89.86,11.78,1.85,17.76,1.64,2-.07,3.81.62,5.76.53,9.64-.45,19.3-.65,28.8-2.65" style="fill:none;stroke:#000;stroke-linecap:round;stroke-linejoin:round;stroke-width:2px"/><path d="M700,317.92c.69,3.38-.62,6.56-1,9.84-.67,6.4-2.47,12.6-3.34,19-.38,2.82,1.18,4.39,4.1,5.19,4.78,1.3,9.73,2,14.61,3,3,.57,5.95,1.69,8.87,1.55,4.74-.22,9.06,1.67,13.69,1.86s9,1,13.45,1.3c4.78.28,9.56,1.28,14.39.56,2.91-.43,4.56-2.2,4.26-5a42.4,42.4,0,0,1,0-5.29c.07-5.76.13-11.52,0-17.28-.06-2.39-.25-4.81-.48-7.2-.26-2.77-2.89-4.83-6.67-5.51-7.36-1.32-14.72-2.57-22.08-3.84a2.81,2.81,0,0,0-1,0c-3.55.53-6.84-1.07-10.31-1.29-2.16-.13-4.36-.37-6.5-.52a83.75,83.75,0,0,0-16.3-.08c-2.37.29-5.09.37-5.77,3.56" style="fill:none;stroke:#000;stroke-linecap:round;stroke-linejoin:round;stroke-width:2px"/><path d="M735.32,316.48c-1.08,3.93-1,8-1.43,12-.91,8.48-2,16.92-5.79,24.71-.46.94-.4,2-.94,2.89" style="fill:none;stroke:#000;stroke-linecap:round;stroke-linejoin:round;stroke-width:2px"/><path d="M768.2,329.2a15.08,15.08,0,0,1-5.05-.17,8.38,8.38,0,0,0-10,6.2,49.49,49.49,0,0,0-2.24,12.69c-.06,3.17,1.06,4,4.3,4.62,4.47.84,8.89-.09,13.33.18" style="fill:none;stroke:#000;stroke-linecap:round;stroke-linejoin:round;stroke-width:2px"/></g></svg>
