<svg xmlns="http://www.w3.org/2000/svg" viewBox="0 0 1366 768"><g id="Layer_16" data-name="Layer 16"><path d="M756.68,500.08a49,49,0,0,1,5.26,4.82c3.85,3.62,7.71,7.25,11.4,11,7.07,7.27,13.95,14.72,19.81,23a34.36,34.36,0,0,1,4.92,9c1.31,4,.43,7.77-1.79,11.28a32,32,0,0,1-8.39,8.41,98.75,98.75,0,0,1-20.17,11c-8.14,3.5-16.41,6.66-24.72,9.73q-11,4.07-22.2,7.56-17.58,5.5-35.51,9.74c-7.22,1.7-14.46,3.26-21.74,4.63-7.76,1.46-15.55,2.74-23.38,3.79-4.2.56-8.41,1-12.61,1.61-2.82.39-5.68.51-8.52.75-3.8.32-7.6.68-11.4.95-2.84.19-5.68.27-8.52.36-4.36.15-8.72.33-13.08.26-1,0-2.08.06-3.12.11a6.75,6.75,0,0,0-4.53,2.07,2.43,2.43,0,0,1-1.95.7c-1.8,0-3.6-.07-5.4,0a4.48,4.48,0,0,1-3.63-1.18,6.47,6.47,0,0,0-4.65-1.62c-6.32,0-12.64,0-19-.13-4.24-.1-8.48,0-12.72-.1-5.76-.16-11.52-.17-17.28-.26l-13.8-.23c-4-.08-8.08-.19-12.12-.23-4.84-.06-9.68-.23-14.52-.35l-15-.36L442,616q-7.5-.22-15-.48-6.78-.22-13.56-.48l-18.84-.72-17-.72-15.84-.72-15.12-.72c-6.36-.31-12.72-.6-19.08-1-2.48-.14-5-.27-7.44-.49-6.85-.63-13.71-1.29-20.52-2.34a194.83,194.83,0,0,1-22.08-4.59A124.33,124.33,0,0,1,251,593.44c-.35-.18-.72-.32-1.08-.48" style="fill:none;stroke:#000;stroke-linecap:round;stroke-linejoin:round;stroke-width:2px"/><path d="M666.08,456.52c-3.77.4-7.32-.85-10.91-1.61-9.36-2-18.68-4.15-28-6.41-8.94-2.17-17.91-4.21-26.88-6.25-4.39-1-8.79-1.88-13.2-2.76-5.3-1.06-10.61-2-16-2.78-3.45-.5-6.88-1.14-10.32-1.66-3-.45-5.92-.79-8.88-1.22-2.6-.37-5.2-.76-7.8-1.2-3.92-.65-7.84-1.34-11.76-2-6.08-1.07-12.16-2.14-18.24-3.25-4.48-.81-9-1.67-13.44-2.51l-9.48-1.8-15.48-3-16.68-3.24-16.8-3.24-17.16-3.36-22.32-4.32c-4.36-.86-8.71-1.84-13.08-2.62q-11.62-2.08-23.28-4c-4.74-.76-9.51-1.35-14.28-1.92-3.39-.41-6.81-.61-10.2-1s-6.87-.68-10.32-1l-8.16-.71c-3.6-.33-7.21-.58-10.8-1-5.84-.65-11.69-1.31-17.53-2.09-2.77-.37-5.59-.54-8.38-.81-3.41-.33-6.81-.36-10.21-.54-1.16-.06-2.32,0-3.48,0" style="fill:none;stroke:#000;stroke-linecap:round;stroke-linejoin:round;stroke-width:2px"/><path d="M258.08,513.52a6.51,6.51,0,0,1,2.54.54,11.31,11.31,0,0,0,6.47.7,22.11,22.11,0,0,1,3.83-.16c5.58-.13,11.13.42,16.68.83,2,.14,3.93.09,5.88.26,6,.53,12,.39,18,.67,4.27.2,8.56,0,12.84,0,6.2.11,12.4.25,18.6.49q5.4.21,10.8.48c4.28.22,8.56.5,12.84.73,2.36.13,4.72.34,7.08.48,3.56.21,7.12.63,10.68.92,2.4.2,4.8.29,7.2.5,2.12.19,4.23.58,6.36.68s4.32.35,6.48.54,4.25.3,6.36.66c.94.16,1.92.14,2.88.24,3.07.32,6.17.45,9.24.76,3.71.38,7.43.69,11.16,1,3,.23,6,.49,9,.71,3.6.27,7.2.52,10.8.73l8.4.49c3.28.18,6.56.31,9.84.48,4.24.21,8.48.27,12.72.48,9.52.46,19,.44,28.56.44,6.4,0,12.8.12,19.2,0,5.36-.13,10.72-.25,16.08-.47,3.48-.15,7-.23,10.44-.49,4.64-.34,9.29-.42,13.92-.89,2.91-.3,5.84-.32,8.76-.52,3.12-.2,6.24-.5,9.36-.7,1.36-.08,2.73-.16,4.08-.19,2-.06,3.92-.27,5.88-.32,4.28-.12,8.56-.36,12.84-.53,2.32-.09,4.64-.08,7-.17,4.68-.18,9.36-.37,14-.22,3.52.1,7,.09,10.56.27,4.6.24,9.21.45,13.8.88a144.06,144.06,0,0,0,19.92.72,31.31,31.31,0,0,0,11.64-2.37c2.57-1.16,4.87-2.61,6-5.4,1.51-3.7.63-7.11-1.35-10.31a32.51,32.51,0,0,0-7.77-8.06,122.77,122.77,0,0,0-13.23-8.72,114.19,114.19,0,0,1-15.58-11.43,165.46,165.46,0,0,0-15.6-12.47,45.5,45.5,0,0,0-13.92-6.62,7.32,7.32,0,0,0-2.76-.26,17.25,17.25,0,0,1-4.44-.59,60.19,60.19,0,0,0-12-.61c-3,.15-6,.06-9,0a73.38,73.38,0,0,1-9-.92c-11.67-1.59-23-4.81-34.44-7.37-6.74-1.51-13.51-2.82-20.28-4.16-3.27-.65-6.55-1.19-9.84-1.69-4-.61-8.09-1.07-12.12-1.71-5.66-.9-11.36-1.47-17-2.24-3.31-.45-6.64-.64-10-1-2.72-.28-5.43-.75-8.16-.91-2.13-.13-4.24-.41-6.36-.54s-4.48-.38-6.72-.58l-6.72-.6c-2.68-.24-5.37-.37-8-.69-1.19-.14-2.4-.15-3.6-.25-3.8-.3-7.61-.44-11.4-.76-3.28-.27-6.56-.48-9.84-.73l-13.2-1c-3.2-.23-6.4-.46-9.6-.72-3-.24-5.92-.45-8.88-.72-3.68-.32-7.35-.66-11-.95-4.2-.32-8.4-.77-12.6-1.18-3.88-.39-7.76-.83-11.64-1.19-4.32-.4-8.64-.72-13-1.09-4.16-.35-8.32-.79-12.48-1-1.44-.09-2.88-.2-4.32-.31-2.88-.21-5.77-.29-8.64-.67-1.19-.16-2.4-.1-3.6-.22-2.83-.28-5.68-.31-8.52-.53-3.48-.27-7-.73-10.44-.91-2.41-.13-4.8-.34-7.2-.56l-6.6-.63q-4.14-.37-8.28-.79c-2.44-.25-4.89-.66-7.33-.88-4.52-.41-8.85-1.78-13.3-2.5a30.42,30.42,0,0,0-4.57-.08" style="fill:none;stroke:#000;stroke-linecap:round;stroke-linejoin:round;stroke-width:2px"/><path d="M479.24,459a174.12,174.12,0,0,0-13.67,12.37,53.4,53.4,0,0,0-9.27,12.22,19,19,0,0,0-1.29,2.89c-1,3.33-.2,4.79,2.27,6.36A21,21,0,0,0,463,495c3.49,1,7,1.92,10.56,2.56,3.78.68,7.58,1.22,11.4,1.53,5.39.44,10.79.64,16.2.77,4.24.1,8.48.07,12.72.24,3.16.13,6.33.21,9.48.45s6.56.65,9.84.94c2.12.2,4.24.3,6.36.5,2.32.21,4.64.5,7,.7,1.16.09,2.32.13,3.48.21a199.29,199.29,0,0,0,21.72.48,123.4,123.4,0,0,0,18.85-2.08,93.82,93.82,0,0,0,16.3-4.62,13.75,13.75,0,0,0,6.26-4.17c2.6-3.4,2.3-7.47-1.94-9.72a37.38,37.38,0,0,0-7.31-2.52c-5.16-1.47-10.09-3.59-15.12-5.42-8.5-3.11-17-6.14-25.92-7.89s-17.37-4.31-26-6.5A102.05,102.05,0,0,0,525,458.19c-3.55-.47-7.1-.93-10.68-1.21-4-.31-8.09-.72-12.12-1.2-2.85-.34-5.68-.87-8.52-1.3-3.51-.52-7-1.06-10.56-.35a5.36,5.36,0,0,0-2.66,1.17,3.15,3.15,0,0,0-1.18,3.26" style="fill:none;stroke:#000;stroke-linecap:round;stroke-linejoin:round;stroke-width:2px"/><path d="M710.36,508.36a30.06,30.06,0,0,0,6.83-1.48,79.74,79.74,0,0,0,13.09-4.52,22.12,22.12,0,0,0,6.36-4.2c3-3,2.65-5.73.11-8.63a25.48,25.48,0,0,0-7.06-5.19c-5.61-3.08-11.72-4.67-17.89-6.1-3.73-.86-7.51-1.48-11.29-2-3.1-.42-6.22-.76-9.35-1.05-5.27-.5-10.55-.69-15.84-.67-.52,0-1,.07-1.56.11" style="fill:none;stroke:#000;stroke-linecap:round;stroke-linejoin:round;stroke-width:2px"/><path d="M253.4,432.22c1.27.17,2.39-.49,3.59-.71a29.93,29.93,0,0,1,9-.16c7.39.82,14.5,3,21.72,4.63,3.22.72,6.48,1.22,9.72,1.82a14.71,14.71,0,0,1,4.9,1.6c3,1.79,4.8,3.81,3.64,8.61a21.24,21.24,0,0,1-3.52,7.17A70,70,0,0,1,291.58,467a69,69,0,0,1-5.42,4.67,25,25,0,0,1-10.68,4.2,50.11,50.11,0,0,1-7.44.61,66.82,66.82,0,0,1-12.23-1.14c-1-.16-2-.08-3-.26" style="fill:none;stroke:#000;stroke-linecap:round;stroke-linejoin:round;stroke-width:2px"/><path d="M440.24,454.24c-1.71,0-3.47-.21-5,.73-.43.26-.68,0-1-.15a6.87,6.87,0,0,0-2.65-.47q-8.88,0-17.76,0a25.57,25.57,0,0,0-4.19-.06c-2,.34-3.93-.1-5.89,0-6.4.19-12.81.21-19.2.82-2.88.28-5.77.43-8.64.74A31.67,31.67,0,0,0,363.31,460a44.25,44.25,0,0,0-8.53,6.11,6.17,6.17,0,0,0-2,3.62" style="fill:none;stroke:#000;stroke-linecap:round;stroke-linejoin:round;stroke-width:2px"/><path d="M434.84,455.2c1.17,3.76-.44,6.82-2.66,9.58A56.72,56.72,0,0,0,425,476.91a14.71,14.71,0,0,1-4.4,6,10.29,10.29,0,0,1-5.17,1.78c-5.82.6-11.37-.82-16.92-2.28-1.13-.3-2.25-.69-3.36-1.08a6.92,6.92,0,0,1-2.52-1.91" style="fill:none;stroke:#000;stroke-linecap:round;stroke-linejoin:round;stroke-width:2px"/><path d="M349.52,470.56c.36,0,.79.13,1.07,0,1.58-.9,2.91-.31,4.35.47s2.86.67,4.3,1c4.52.95,9,2.14,13.44,3.26s9.24,2.26,13.78,3.65a17.78,17.78,0,0,0,5.3.54c.37,0,.73,0,1-.36,1.18-1.88,3.18-2.82,4.8-4.2a26.18,26.18,0,0,0,9.13-15.48,21.15,21.15,0,0,0,.35-4.56" style="fill:none;stroke:#000;stroke-linecap:round;stroke-linejoin:round;stroke-width:2px"/><path d="M482.24,458.44a12.59,12.59,0,0,0-3.05.17,2.37,2.37,0,0,0,1,1.36,3.28,3.28,0,0,1,1.31,2.91c.18,4.8.29,9.6.4,14.4.1,4.12-.24,8.24-.05,12.36a5.83,5.83,0,0,1-.06.72" style="fill:none;stroke:#000;stroke-linecap:round;stroke-linejoin:round;stroke-width:2px"/></g></svg>
