<svg xmlns="http://www.w3.org/2000/svg" viewBox="0 0 1366 768"><g id="Layer_14" data-name="Layer 14"><path d="M1181.26,588.31a8.26,8.26,0,0,1,4.63,6.33c.23,1.74.7,3.45,1.07,5.18,1.14-.06,1-.9,1.16-1.44.47-1.72.77-3.49,1.32-5.17a10.34,10.34,0,0,1,1.67-3.23,2.85,2.85,0,0,1,2.1-.93c1.09,0,1.55,1.06,1.67,2.05a10.88,10.88,0,0,1,0,2.85c-.38,2.57-.93,5.12-1.31,7.69s-.62,4.87-.82,7.32a2.29,2.29,0,0,0,1.46,2.5c3.9-2.09,6-5.48,6.87-9.88.43-2.27,1.06-4.51,1.63-6.75.1-.39.25-.91.54-1.06a3.5,3.5,0,0,1,1.86-.46,1.54,1.54,0,0,1,1,1.11,23.66,23.66,0,0,1,0,3.67c-.28,4.55-.12,9,1.65,13.33.69,1.68.76,1.78,2.78,3.53,2.36-.73,3.3-2.8,3.81-4.88,1.21-5,1.86-10-.35-14.9a6.07,6.07,0,0,1-.42-1.57,1.29,1.29,0,0,1,1.4-1.17,3.49,3.49,0,0,1,1.75.91,12,12,0,0,1,1.83,3.59,30.28,30.28,0,0,1-.17,15,10.8,10.8,0,0,1-6.07,7.36,4.78,4.78,0,0,1-5.7-.73,23.15,23.15,0,0,1-2.8-3.49c-.69-1-1.26-2-2-3.29-1,.83-1.83,1.55-2.71,2.12a21.65,21.65,0,0,1-3.86,2.24c-3.16,1.22-5.18.42-6.92-2.48-.39-.66-.73-1.36-1.26-2.35a7.68,7.68,0,0,0-1.25,1.37c-1.71,3.4-4.78,4.74-8.25,5.43a4.71,4.71,0,0,1-4.75-1.77,10.84,10.84,0,0,1-2.37-5.17c-1.39-7.51.64-14.08,5.63-19.79a6.2,6.2,0,0,1,1.64-1.15C1178.72,589.66,1179.8,589.1,1181.26,588.31Zm-.25,5.1c-4.8,5.1-6.44,10.59-5.21,16.94.22,1.18.4,2.67,1.91,2.79,1.34.1,2.15-1,2.8-2.11,3-5,3.3-10.3,1.6-15.78A12.51,12.51,0,0,0,1181,593.41Z"/><path d="M667.56,648.11a17.72,17.72,0,0,0,2.06-1.28c.93-.81,1.78-1.7,2.66-2.56,2.77-2.72,6.19-3.24,9.88-3,1.79.11,2.9,1.39,4.39,2.26,1.49-1.37,1.49-3.23,1.9-4.9a4.2,4.2,0,0,1,3.69-3.34c1.73,1.72,1.71,3.73,1.3,5.79s-.87,4-1.28,6a6.35,6.35,0,0,0,.06,3.84,1.34,1.34,0,0,0,1.82-.83,23.27,23.27,0,0,0,3.37-10,17,17,0,0,1,1-4.37,2,2,0,0,1,2.34-1.2,1.69,1.69,0,0,1,1.53,1.67c.14,2.17.13,4.35.18,6.53.07,3.42.1,6.84.26,10.25a13.78,13.78,0,0,0,.7,3.2,10.16,10.16,0,0,0,.92,1.64l3.89-2.8c.34.36.67.55.65.73a6.55,6.55,0,0,1-5.83,6.35,2.19,2.19,0,0,1-2.39-1.22,28.33,28.33,0,0,1-1.42-3.83c-.33-1-.54-2.07-.9-3.48a19,19,0,0,0-1.76,1.34,10.45,10.45,0,0,1-5.39,2.78c-2.47.53-3.88-.39-4.44-2.93-.21-.93-.23-1.9-.4-2.84a16.2,16.2,0,0,0-.57-1.81c-6,4.45-12,8-19.7,7.18a13.67,13.67,0,0,0-1.46-2.41c-1.86-2.06-2.37-4.5-2.56-7.18a56.06,56.06,0,0,1,.93-15.94,35.18,35.18,0,0,1,2.13-6.17,2.31,2.31,0,0,1,3.1-1.2,2.49,2.49,0,0,1,1.58,3,25.27,25.27,0,0,1-.88,3.17c-1.69,5-1.93,10.19-1.82,15.41A13.17,13.17,0,0,0,667.56,648.11Zm2.92,4.44c4-.22,6.75-1.86,9.39-3.75,1.09-.78,1.49-1.92,1-2.41a2.47,2.47,0,0,0-2.68-.38,6.7,6.7,0,0,0-1.89.79A22.32,22.32,0,0,0,670.48,652.55Z"/><path d="M1143.27,680l3-1.44c1.09.88.65,1.86.19,2.63a10.8,10.8,0,0,1-5.39,4.23,2.1,2.1,0,0,1-2.61-1.44,28.07,28.07,0,0,1-2-7.92c-.1-2.18-.34-4.37-.64-6.53a17.45,17.45,0,0,0-.94-2.81,5.55,5.55,0,0,0-2.79,4.54,21.66,21.66,0,0,1-3.55,8.67,8.59,8.59,0,0,1-1.24,1.62c-1.73,1.71-3.49,1.36-4.49-.87-.39-.85-.69-1.74-1.12-2.84-1.79.87-3.37,1.62-4.93,2.4a15.48,15.48,0,0,1-8,1.4c-5.15-.28-8.72-5-8.72-9.74a14.06,14.06,0,0,1,6.89-12.33c.8-.52,1.65-1,2.5-1.42a5.57,5.57,0,0,1,7.93,2.48c.32.59.55,1.24.79,1.78-1.55,6.55-6.73,8.15-12.27,9.08-.82,2.12,0,3.69,1.16,5.06a4.44,4.44,0,0,0,4,1.73,25.86,25.86,0,0,0,4.76-1.09c1.15-.39,2.16-1.18,3.29-1.66,2.7-1.14,3.89-3.3,4.29-6,.38-2.57.87-5.13,1.14-7.71a4.85,4.85,0,0,1,2-3.43c1.29-1,2.36-.94,3.56.33a10.92,10.92,0,0,1,.9,1.26c.37,0,.67.15.89.06,4-1.53,4.85-1.35,7,2.23a13.39,13.39,0,0,1,1.7,4.56c.53,3.1.73,6.25,1.11,9.37C1141.9,677.45,1141.66,678.93,1143.27,680Zm-34.58-15c2,.24,3-.19,3.71-1.55a.42.42,0,0,0-.07-.39c-.19-.17-.44-.43-.65-.41A3.15,3.15,0,0,0,1108.69,665Z"/><path d="M885.08,608l-2.72,1.17a3.64,3.64,0,0,1-2.42-3.21,70.15,70.15,0,0,1-.57-12.29c0-1.47.41-3-.53-4.61-3.22.44-6,2.07-9.05,3a29,29,0,0,0,0,10.47,57.43,57.43,0,0,0,1.81,7.14c.47,1.62.43,2.54-.37,2.91-1.23.56-3.15.37-3.76-.65a16.37,16.37,0,0,1-2-4.45c-.73-3-1.15-6.18-1.69-9.28a5.56,5.56,0,0,1-.08-1.22,5,5,0,0,0-2-4.66,25,25,0,0,0,1.78-4.2,30.32,30.32,0,0,0,.26-4.5c.1-1.5.33-3,.41-4.49a8.89,8.89,0,0,1,2.39-5.11,1.58,1.58,0,0,1,1.82-.59,1.9,1.9,0,0,1,1.52,1.73c0,.95,0,1.91,0,2.87v8.33c3.34.09,5.86-2.25,9.1-2.3.13-1.25.29-2.17.3-3.09,0-1.37-.1-2.74-.1-4.1a2.05,2.05,0,0,1,1.51-2.19,2.66,2.66,0,0,1,3.24,1.07,10.34,10.34,0,0,1,1,3.49c.25,3,.3,6,.42,9,0,.66,0,1.32,0,1.89,1,.56,1.35-.42,1.94-.56a4.87,4.87,0,0,1,2.38-.26c2.24.75,4.44,2,5.25,4.24,1.9,5.13,1.7,10.46.39,15.73a1.56,1.56,0,0,1-1.22.85c-.59-.05-1.5-.4-1.63-.83a24.9,24.9,0,0,1-.91-4.4c-.24-1.76-.31-3.54-.54-5.31a4.38,4.38,0,0,0-1.86-3.33,8.75,8.75,0,0,0-1.69,1.56,14.63,14.63,0,0,0-2.23,7C885.24,605.82,885.17,606.77,885.08,608Z"/><path d="M1054.42,610.3c-1.42,1.15-2.65,2.2-3.94,3.18a16.73,16.73,0,0,1-9,3.6c-3.22.24-4.86-1.19-5-4.51a16.25,16.25,0,0,1,1.91-8.73c1.86-3.2,4-6.25,6-9.29a6.48,6.48,0,0,1,2.16-1.82c2.13-1.22,4.33-2.33,6.78-3.63a24.84,24.84,0,0,0,.75-7.81,19.24,19.24,0,0,1,1.46-6.78c.58-1.7,2.29-1.9,3.58-.56a6.83,6.83,0,0,1,2.07,3.89,56.47,56.47,0,0,1-.51,20.41,30.31,30.31,0,0,0-.89,5.66,14,14,0,0,0,1.57,7.15c.62,1.19,1.14,2.44,1.67,3.57a5.15,5.15,0,0,1-3.56,2.32C1056.44,616,1056.91,612.35,1054.42,610.3Zm-11.64,1.41c.6-.21,1.11-.34,1.58-.56,2.9-1.39,4.89-3.81,7-6.12a9.2,9.2,0,0,0,2.19-8,1.5,1.5,0,0,0-2.67-1,30.08,30.08,0,0,0-8.1,11.59A4.56,4.56,0,0,0,1042.78,611.71Z"/><path d="M1093.74,680.08c-3.8,1.66-4.63,1.46-6.27-1.2-.35-.56-.64-1.15-1.11-2a20.91,20.91,0,0,0-2.32,1.83c-2.5,2.64-5.73,3.66-9.17,4.15-3,.42-4.95-1.16-5.37-4.23a14.55,14.55,0,0,1,2.31-9.41c2.59-4.42,5.82-8.32,10.73-10.36,1.36-.57,2.82-.9,4.6-1.45a13.82,13.82,0,0,0,.81-2.31c.42-2.15.83-4.31,1-6.48.34-3.47,2.06-6.49,3-9.76a2.42,2.42,0,0,1,.73-1,2,2,0,0,1,3.28.88,1.89,1.89,0,0,1,.08.4c0,5.73.75,11.44-.52,17.17-.72,3.27-1.93,6.59-.93,10.09a2.52,2.52,0,0,1-1.17,2.87c-1.36.86-1.57,2.1-1.55,3.54A12.42,12.42,0,0,0,1093.74,680.08Zm-18.07-1.48a7.57,7.57,0,0,0,1.72-.58,39.34,39.34,0,0,0,7.65-7.38,9,9,0,0,0,1.54-3.71c.25-1.12.61-2.63-.7-3.33s-2.33.33-3.38.94a1.11,1.11,0,0,0-.32.25c-2.53,2.87-5.1,5.73-6.45,9.4A5.32,5.32,0,0,0,1075.67,678.6Z"/><path d="M717,645a18.27,18.27,0,0,0-.21,3c.31,3.95.66,7.9,1.1,11.83.23,2.08-.09,2.82-1.87,3.52a2.08,2.08,0,0,1-2.26-.45,4.84,4.84,0,0,1-1.51-3.26,95.16,95.16,0,0,1-1.1-17.6c0-2.47.14-4.93.28-7.39.13-2.3.3-4.61.57-6.9a3.12,3.12,0,0,1,.88-1.76,2.57,2.57,0,0,1,3.18-.35c1.56,4.35.81,9.07,1.33,13.74,1.88.22,3.31-.66,4.79-1.24,3.17-1.26,3.17-1.28,6.35-1a26.94,26.94,0,0,0-.27-6.53,3.45,3.45,0,0,1,1.33-3.63,1.7,1.7,0,0,1,2.55.19,12.28,12.28,0,0,1,1.73,3.64,41.71,41.71,0,0,1,.61,5.71c.12,1.47.16,3,.24,4.63,1,0,1.8,0,2.56,0,1.22-.1,2.44-.38,3.66-.37,1.41,0,2.19.87,2.44,2.43a10.49,10.49,0,0,1-5.53,2.39c-3.1.32-3.59,1.33-3.63,4.35,0,4,.09,7.93.14,11.89,0,.4-.08.81-.14,1.48l-3,1.31c-1.82-1-2-2.55-2.15-4-.18-2.46-.21-4.92-.24-7.39-.06-4-.07-7.92-.11-12.2-2.13.86-3.93,1.66-5.78,2.31S719.3,644.32,717,645Z"/><path d="M1160.32,610.24a16.5,16.5,0,0,1-8,5.81,17.89,17.89,0,0,1-2.76.75,4,4,0,0,1-4.88-3.28,9.16,9.16,0,0,1,0-3.65c1.81-8.75,6-15.81,14.28-20a5.47,5.47,0,0,0,.83-.75c.13-2,.36-4.14.42-6.32.07-2.82,1.36-5.28,2.18-7.88a2.3,2.3,0,0,1,1.12-1.14,1.81,1.81,0,0,1,1.5-.08,4.81,4.81,0,0,1,2.3,3.7c.18,7.8.85,15.62-1.63,23.26-1,3.16.11,9.38,2,12.26.51.78,1.1,1.52,1.54,2.13-.37,1.53-1.4,1.49-2.34,1.53a4.06,4.06,0,0,1-3.32-1.35,15.23,15.23,0,0,1-1.35-2.06Zm-9.92,1.25c.85-.09,1.17,0,1.37-.16a18.9,18.9,0,0,0,7.26-8.67,8,8,0,0,0,.07-6c-2.48,1.07-3,1.59-5.29,5A20.78,20.78,0,0,0,1150.4,611.49Z"/><path d="M771.07,599c-2.74,1.72-5.22,3.13-7.54,4.77-2,1.41-4.26,1.81-6.53,2.24-1.59.31-2.57-.29-3.26-1.84a11.34,11.34,0,0,1,.11-9.55,29.72,29.72,0,0,1,8.27-11.08c2.53-2.09,3.88-2.35,8.16-1.59a11.33,11.33,0,0,0,.68-2.19c.37-3.68.63-7.36,1-11a13.13,13.13,0,0,1,.6-3.19,1.8,1.8,0,0,1,3-.58A5.17,5.17,0,0,1,777,570.2a25.52,25.52,0,0,0-.68,11.37,7,7,0,0,1-.12,2.45,54.24,54.24,0,0,0,.08,15.94c.25,2,.5,4.07.72,6.11a2.59,2.59,0,0,1-.11,1.21c-.14.35-.45.83-.75.88a1.83,1.83,0,0,1-1.45-.29,8.52,8.52,0,0,1-1.42-2.44C772.53,603.52,771.92,601.56,771.07,599Zm-12.38.76c.67.13,1,.31,1.16.21a22.41,22.41,0,0,0,8-8,4.08,4.08,0,0,0,.11-3.58,1.42,1.42,0,0,0-2-.81,5.68,5.68,0,0,0-1.66,1.16C761.72,592,759.38,595.31,758.69,599.79Z"/><path d="M982.71,607.83c-.65.84-1,1.35-1.44,1.85a43.86,43.86,0,0,1-3.1,3.8c-1.86,1.83-4.09,1.54-5.51-.7a7.12,7.12,0,0,1-1.17-3c-.42-5-.69-10.09-1-15.15a7.29,7.29,0,0,1,.23-2,2.3,2.3,0,0,1,4.32-.6,7.76,7.76,0,0,1,.78,2.7c.27,3.14.39,6.28.62,9.42.06.9-.29,1.94.92,2.79a6.33,6.33,0,0,0,1-1.54c.72-2.35,1.34-4.73,2-7.09a17.07,17.07,0,0,1,1.06-3.09,2.15,2.15,0,0,1,3.49-.4,5.57,5.57,0,0,1,1.61,3.24c.2,2,.49,4.08.78,6.1a11.32,11.32,0,0,0,2.27,6.06c1.08,1.26,2.53,1.25,3.4-.18a11,11,0,0,0,1.37-3.38c1-4.84.66-9.53-2-13.84-1-1.58.06-2.74,1.6-2.72a3.77,3.77,0,0,1,3.83,2.45c2,4.61,3.2,9.34,2.5,14.37-.62,4.54-2.91,7.82-7.38,9.49-2.77,1-6.7-.57-7.69-3.06C984.54,611.57,983.67,609.89,982.71,607.83Z"/><path d="M893.17,646.93l3.11,1.67a33.46,33.46,0,0,1-2.46,16.06,19.08,19.08,0,0,1-5.14,6.32,8.19,8.19,0,0,1-5.81,1.62,3.37,3.37,0,0,1-2.84-1.42c-1-1.46-1.91-3-2.78-4.52a23.59,23.59,0,0,1-1.09-2.58,22.24,22.24,0,0,1-1.51,1.73,37.53,37.53,0,0,1-4,3.47,2.68,2.68,0,0,1-4.17-1.07,8.85,8.85,0,0,1-1-3.08,64.26,64.26,0,0,1-.55-8.19,54.24,54.24,0,0,0-.33-9,7,7,0,0,1,0-2A2.33,2.33,0,0,1,866.5,644a2.17,2.17,0,0,1,2.48,1,8.92,8.92,0,0,1,1.39,4.67c0,2.46,0,4.93,0,7.39v4.79c1.12.47,1.49-.14,1.69-.8,1.19-3.92,2.93-7.69,3.26-11.84a4,4,0,0,1,2.05-3.49c1.37.21,2.14,1.37,3.29,2.43-.13,2.5-.26,5.09-.42,7.67a21,21,0,0,0,.88,8.12c1.42,4.23,3.9,4.71,6.83,1.43a16.3,16.3,0,0,0,3.93-11,2.45,2.45,0,0,0-.72-1.8c-1.35-1-1-2.17-.26-3.22A20.7,20.7,0,0,1,893.17,646.93Z"/><path d="M1042.12,666.26a8.17,8.17,0,0,1-2.29,3.82c-.61.7-1.11,1.51-1.71,2.33a5.94,5.94,0,0,0,6.28,2.3,50,50,0,0,0,5.87-1.78c.87-.27,1.75-.49,3.19-.88-.41,1-.47,1.52-.78,1.78a20.11,20.11,0,0,1-14.42,4.92,4.38,4.38,0,0,1-3.26-1.47c-.63-.7-1.37-1.29-2.16-2-.84.26-1.61.47-2.36.74a20.47,20.47,0,0,1-8.11,1,7.65,7.65,0,0,1-6.78-4.57c-2.24-4.4-1.57-8.75,1.52-12.6,2.69-3.36,6.31-5.16,10.06-6.86a4.26,4.26,0,0,1,4.6.8,3.09,3.09,0,0,1,.19,4.7,38.13,38.13,0,0,1-3.17,2.26l-1.19-1.59c-3.12.32-5.06,2.34-6.67,4.52a6.11,6.11,0,0,0-.27,7c1.3,2.11,3.64,2.82,6.13,2.55a11.79,11.79,0,0,0,5-1.78c1.28-3,2.34-5.62,3.56-8.2,1.78-3.74,5.09-6.05,8.26-8.43a4.26,4.26,0,0,1,4.29-.71c1.11.47,1.83,1.71,1.31,2.64-1.26,2.24-2.22,4.74-4.59,6.16l.09.13c0-.72.1-1.45.18-2.63a16.19,16.19,0,0,0-5,6.22l2.34-.28Z"/><path d="M1274.63,683.36c-.84.71-1.21,1.07-1.63,1.37-3.26,2.31-5.24.73-5.93-2.51-.57-2.68-.8-5.42-1.17-8.13a36.42,36.42,0,0,0-.51-3.65,11.48,11.48,0,0,0-1.24-2.39c-.68.71-1.28,1.09-1.51,1.63-1.35,3.14-2.85,6.23-3.49,9.63a4.73,4.73,0,0,1-1.37,2.9,2.34,2.34,0,0,1-3.58-.32,5,5,0,0,1-.93-3.49c.15-3.43.15-6.87.57-10.26.73-5.84,1.75-11.64,2.62-17.46.25-1.63.38-3.27.57-4.9a5.2,5.2,0,0,1,1.77-3.59c1.44-1.19,3.62-.59,3.81,1.24a26.91,26.91,0,0,1-.07,6.53c-.45,3.25-1.29,6.44-1.88,9.68a18.64,18.64,0,0,0,0,3c.85-.33,1.35-.49,1.81-.71,3.21-1.49,5.61-.63,6.89,2.6a24.43,24.43,0,0,1,1.53,7.63c.12,2,.6,4.07.68,6.11S1272.76,681.81,1274.63,683.36Z"/><path d="M1100.12,605c-.54,1.16-.86,1.88-1.22,2.59a11.48,11.48,0,0,1-1.19,2.15,5.84,5.84,0,0,1-5,2.49c-2-.18-2.77-2-3.35-3.74a32.39,32.39,0,0,1-1.6-12.55,6,6,0,0,1,2.27-4.66,1.94,1.94,0,0,1,3.23,1,20.21,20.21,0,0,1,.42,3.65c.12,2.19.14,4.38.26,6.57a11.49,11.49,0,0,0,.35,1.8c1.21.19,1.4-.6,1.58-1.19.57-1.83,1-3.71,1.56-5.53.7-2.18,1.66-3.1,2.92-3a3.88,3.88,0,0,1,3.17,2.88,42.11,42.11,0,0,1,1.25,4.76,13.35,13.35,0,0,0,4,6.92,3.26,3.26,0,0,0,2.21-2.92c.5-4.87.25-9.6-2.9-13.7a5.2,5.2,0,0,1-.51-.65,2.44,2.44,0,0,1,.63-3.28,2.67,2.67,0,0,1,3.34.67,17.19,17.19,0,0,1,2,3.59c1,2.68,2,5.4,2.8,8.15a13.55,13.55,0,0,1-.47,8.09c-1.09,3.32-3.84,4.85-7,5.63a3.05,3.05,0,0,1-3.29-1.21c-1.31-1.74-2.49-3.58-3.68-5.4C1101.33,607.3,1100.87,606.34,1100.12,605Z"/><path d="M932.63,663.32a10.62,10.62,0,0,0,3.69-4.48c1.18-2.75,2.16-5.59,3.15-8.42a5.56,5.56,0,0,1,2.58-3.38l2.69,2.23c-.94,7.07-3.61,13.57-5.52,20.24s-4.57,13.07-6.94,19.7l2.61.62a10.14,10.14,0,0,1-1.23,1.79c-1.42,1.24-2.46,2.94-4.26,3.67a3.07,3.07,0,0,1-2.31-3.15,23.69,23.69,0,0,1,.73-4.82c1.56-5.38,3.26-10.72,4.89-16.09a16.23,16.23,0,0,0,.31-2c-1.42-.19-2.46,1.19-3.72.21a5,5,0,0,1-2.15-3.8,45.74,45.74,0,0,1,.14-6.52,55.8,55.8,0,0,1,1.37-7.25,13,13,0,0,1,1.53-3.3,2,2,0,0,1,2.44-1,1.93,1.93,0,0,1,1.22,1.95,18.6,18.6,0,0,1-.79,7.29A10.07,10.07,0,0,0,932.63,663.32Z"/><path d="M1226.49,678.92c-1.32.22-2.38.44-3.45.55a2.85,2.85,0,0,1-2.8-1.34c-1.17-1.72-2.19-3.47-2.15-5.65.06-2.88,0-5.76.11-8.63a5.63,5.63,0,0,1,.9-2.64,2.07,2.07,0,0,1,3.69-.05,5.54,5.54,0,0,1,1,3.48c0,2.05-.12,4.11-.1,6.16,0,1.22,0,2.51,1.59,3.23a7,7,0,0,0,4.38-3.83c.92-1.82,1.58-3.77,2.43-5.63a16.92,16.92,0,0,1,1.75-3.18,1.8,1.8,0,0,1,3,.48,5.8,5.8,0,0,1,.17,4c-.75,2.92-1.37,5.89-2.38,8.71-2,5.56-2.84,11.42-4.69,17-1.33,4-2.81,8-4.19,12a6.08,6.08,0,0,1-3.2,3.56,1.65,1.65,0,0,1-2.09-.75,4.39,4.39,0,0,1-.07-4c2.63-6.2,4-12.79,6-19.18C1226.84,682,1227.35,680.69,1226.49,678.92Z"/><path d="M1301.32,668.64c1.72-.53,2.88-.92,4-1.24a2.59,2.59,0,0,1,2.88,1.08,2,2,0,0,1-.21,2.94,21,21,0,0,1-3.89,2.19,29.82,29.82,0,0,1-3.7,1,4.85,4.85,0,0,0-1.32,3.62c-.1,2.86-.12,5.73-.15,8.6a2.88,2.88,0,0,1-3.08,3,1.89,1.89,0,0,1-1.33-.79,6.89,6.89,0,0,1-1-2.64c-.17-2.18-.16-4.37-.17-6.55,0-.95.18-1.91.22-2.86a3.15,3.15,0,0,0-1.05-2.53c-2-2-2.06-2.62.17-4a3.6,3.6,0,0,0,1.8-2.95c1.06-7.17,2.22-14.32,3.26-21.5.37-2.56.49-5.16.78-7.74a14.27,14.27,0,0,1,.6-3.19,2.55,2.55,0,0,1,2.49-1.8,2.77,2.77,0,0,1,2.7,2.11,9.58,9.58,0,0,1,.29,2.44,44.74,44.74,0,0,1-1.22,11,88.63,88.63,0,0,0-2.66,17A12.93,12.93,0,0,0,1301.32,668.64Z"/><path d="M915.87,607.21a15.75,15.75,0,0,0-4.88,2,15.5,15.5,0,0,1-6.32,1.5,3.23,3.23,0,0,1-3.06-1.69,7.22,7.22,0,0,1-1.24-4.67c.93-7.38,3.86-13.62,10.45-17.65a8.64,8.64,0,0,1,2.61-1.14c2.12-.44,4.11-.14,5.55,1.69,1.25,1.6,2.45,3.24,3.75,5a52.86,52.86,0,0,1-1.8,6.77c-1.55,3.88-.13,7.25,1.47,10.58a4.27,4.27,0,0,0,2.23,1.6,15.71,15.71,0,0,0,2.92.66,1.4,1.4,0,0,1-.49,2,5.87,5.87,0,0,1-9-1.93C917.23,610.49,916.66,609,915.87,607.21Zm-9.47-1.38a7.55,7.55,0,0,0,4.84-2.48,35,35,0,0,0,3.37-4.58,9.78,9.78,0,0,0,1.52-6.63,1.52,1.52,0,0,0-2.41-1.15,6.9,6.9,0,0,0-1.24,1,25.67,25.67,0,0,0-5.78,10.2A20.15,20.15,0,0,0,906.4,605.83Z"/><path d="M1190.18,682a2.91,2.91,0,0,1-2.71,2.33,2.41,2.41,0,0,1-2.74-1.34c-.52-1.11-.81-2.32-1.24-3.46-.22-.6-.53-1.17-.91-2-1.4,1.09-2.58,2-3.73,2.91a14.7,14.7,0,0,1-8.33,3.05c-3.29.26-5-1.37-4.59-4.64a19.85,19.85,0,0,1,1.69-5.87,28.71,28.71,0,0,1,7.33-9.76,31.61,31.61,0,0,1,5.79-3.8,8.27,8.27,0,0,1,3.18-.53c1.48-.13,2.95.16,4.42-.49a1.82,1.82,0,0,1,2.49,1.43,8.26,8.26,0,0,1,.06,3.21c-.71,3.47-1.56,6.91-2.36,10.36l-.09.4C1188,676.77,1187.54,679.75,1190.18,682Zm-18.75-3a9,9,0,0,0,1.93-.28,26,26,0,0,0,10-10.07,3,3,0,0,0-.31-3.88,4.81,4.81,0,0,0-3.88,1.84c-2.47,2.74-5,5.47-6.56,8.88A31.35,31.35,0,0,0,1171.43,679Z"/><path d="M925.69,667.34c-1.62,4.62-4.6,5.67-8,5.9a3.35,3.35,0,0,1-3-1.91c-.65-1-1.21-2.09-1.94-3.38a23.39,23.39,0,0,0-2.78,1.94c-2,1.89-4.5,2.51-7.1,2.81-2.07.23-3-.52-3.56-2.53a8.94,8.94,0,0,1,.42-5.65c2.49-6.87,5.8-13.23,11.49-18.12a6.33,6.33,0,0,1,5.16-1.83,6.64,6.64,0,0,1,3.31,7c-.28,2.43-.68,4.85-1.09,7.27-.28,1.61-.73,3.2-1,4.81a7,7,0,0,0,1,4.73c.69,1.2,1.5,1.57,2.72,1.06S923.67,668.29,925.69,667.34Zm-21,.15c2.5-.32,3.17-.58,4.5-2.29a26.05,26.05,0,0,0,5.72-14.57c0-.13-.38-.29-.7-.52-4.39,3.72-6.55,8.89-9,13.9C904.75,665.08,904.2,666.22,904.71,667.49Z"/><path d="M1000.75,669.26a21.5,21.5,0,0,0-2.22,1.25,13,13,0,0,1-8.14,2.32,4.63,4.63,0,0,1-4.81-5,18,18,0,0,1,1.2-5.56,20.63,20.63,0,0,1,9-10.31c.83-.48,1.54-1.16,2.37-1.62a5.21,5.21,0,0,1,6.14.31c1.19.91,2.37,1.83,3.59,2.79a6.15,6.15,0,0,1,0,6.54c-1.26,2.08-1.26,4.44-1.52,6.75-.38,3.23,1,5.54,3.68,7.23.63.41,1.3.77,2.17,1.28-.59.45-.87.85-1.18.88-4.31.35-5.81.6-8.8-4.23C1001.74,671.1,1001.32,670.26,1000.75,669.26Zm-.43-14c-4.83,2.36-7.23,6.16-9,10.53a2.23,2.23,0,0,0-.09,1.2c.1.49.25,1.16.61,1.37a1.77,1.77,0,0,0,1.5-.09,38.32,38.32,0,0,0,8-6.87,3.09,3.09,0,0,0,.5-3.76C1001.51,657,1001,656.36,1000.32,655.31Z"/><path d="M722,580.37c5-.43,4.37.55,4.81,4.09.22,1.76.06,3.56.19,5.34.23,3.28.55,6.55.82,9.82a11.5,11.5,0,0,1,.05,2,2.31,2.31,0,0,1-2,1.84c-.89.14-1.67-.51-1.93-1.72s-.39-2.43-.64-3.64c-.17-.77-.46-1.52-.68-2.24-1.87-.29-3,.74-4.22,1.62A18,18,0,0,1,711,600.8c-2.05.36-2.76,0-3.52-1.87a11.07,11.07,0,0,1-.75-2.76,24.09,24.09,0,0,1,3.79-16.48,13.47,13.47,0,0,1,3.39-3.51c2-1.47,4.11-1,5.73,1C720.37,578.12,721.07,579.14,722,580.37Zm-10,15.43c.8-.14,1.29-.08,1.54-.31,1.83-1.62,3.63-3.27,5.38-5a2.09,2.09,0,0,0,.63-1.46c-.25-3-.83-5.87-3.36-8.27A19.43,19.43,0,0,0,711.93,595.8Z"/><path d="M1230.6,595.3c.52-.29,1-.53,1.43-.82,4.31-2.87,8.69-1.68,10.7,3.07a24.38,24.38,0,0,1,1.45,5.55c.59,3.5,1.21,7,.71,10.61a35.14,35.14,0,0,0,.11,4.91c0,1.3-.33,1.53-2.47,1.92-1.15-1-1.13-2.44-1.35-3.76-.75-4.32-1.44-8.65-2.12-13a7.18,7.18,0,0,0-1.74-4.08,1.45,1.45,0,0,0-2.43.11,17.69,17.69,0,0,0-1.44,4.22c-.34,1.88-.31,3.83-.58,5.72s-.7,3.76-1.08,5.64a5.34,5.34,0,0,1-.38,1.17,3.56,3.56,0,0,1-3.36,1.88,3,3,0,0,1-2.27-2.59,18.26,18.26,0,0,1-.31-2.86c0-4.38,0-8.75-.09-13.13a34.27,34.27,0,0,0-.63-4,2.29,2.29,0,0,1,.93-2.53,2.39,2.39,0,0,1,2.72,0A21.86,21.86,0,0,1,1230.6,595.3Z"/><path d="M938.24,593.81c1.81-.86,3.64-1.37,5.15-2.57a15.71,15.71,0,0,1,1.27-1,3,3,0,0,1,3.73.47,3.1,3.1,0,0,1-.21,3.81,8.49,8.49,0,0,1-4.07,2.65c-2,.55-3.87,1.25-5.76,1.86-.37,4.71.43,9.07,2.78,15a6.17,6.17,0,0,1-1.22,1.4,2.31,2.31,0,0,1-3.3-.34A9.34,9.34,0,0,1,935,612.7c-1.47-3.68-3.15-7.32-3-11.43a6.91,6.91,0,0,0,0-1.64c-1.16-4.76-.29-9.55-.31-14.33,0-3.93,1.35-7.51,2.48-11.15a1.89,1.89,0,0,1,1.85-1.37,2.08,2.08,0,0,1,2.33,1.31,11,11,0,0,1,.43,3.6c-.23,3.83-.64,7.65-.93,11.47C937.72,590.62,937.41,592.12,938.24,593.81Z"/><path d="M849.28,666.92a8.1,8.1,0,0,1-1.55,1.06c-2.48.91-3.58.46-4.56-1.85-.37-.88-.6-1.82-.93-2.72-.19-.48-.47-.93-.84-1.68a14.53,14.53,0,0,0-1.74,1.16,13.91,13.91,0,0,1-7.85,3.23c-2.66.36-4.28-1-4.18-3.74a21.2,21.2,0,0,1,1-6.46,29.19,29.19,0,0,1,9-13c3.15-2.51,5.92-2.09,8.33,1.2,1.6,2.18,1.61,4.6,1.31,7.07a35.47,35.47,0,0,1-1,4A12,12,0,0,0,849.28,666.92Zm-15.85-5.49c1.25-.62,2.13-.8,2.61-1.34a64.55,64.55,0,0,0,4.65-5.67A7.64,7.64,0,0,0,842,649a7.74,7.74,0,0,0-.69-1.68c-2.6,1.6-4.06,3.9-5.41,6.18A13.89,13.89,0,0,0,833.43,661.43Z"/><path d="M813.06,583.05c1.16,0,2.1,0,3,0a2.39,2.39,0,0,1,2,3.78,5.28,5.28,0,0,1-2.31,2.21c-3.13,1.12-4,3.28-3.76,6.38.28,3.26.22,6.55.55,9.8a61.18,61.18,0,0,0,1.35,6.44,1.6,1.6,0,0,1-.32.57c-2.19,2.15-4.48,2.31-5.54-1.72a52,52,0,0,1-1.76-13c0-.8,0-1.61,0-2.68h-3.28a5.49,5.49,0,0,1,1.62-4.65,8.36,8.36,0,0,0,2.33-6.3c0-3.13.27-6.27.58-9.39a18.35,18.35,0,0,1,1-4,2.26,2.26,0,0,1,2.59-1.52,2.15,2.15,0,0,1,2,2.21c0,2.46-.06,4.92-.09,7.38C813.05,580.11,813.06,581.58,813.06,583.05Z"/><path d="M1155.9,684.53a16.53,16.53,0,0,1-2.46.79,2.05,2.05,0,0,1-2.3-1.35,13.32,13.32,0,0,1-1-3.52,71.66,71.66,0,0,1,0-16q.8-6.74,1.36-13.48a20.33,20.33,0,0,1,2.15-7.86,7.85,7.85,0,0,1,2.17-2.36,1.71,1.71,0,0,1,2.58,1.08,4.89,4.89,0,0,1,.18,1.61c-.38,3.4-.76,6.79-1.21,10.18-.36,2.71-.84,5.41-1.2,8.11a7.25,7.25,0,0,0,.22,1.76,8.48,8.48,0,0,0,2.05.06c.93-.18,1.81-.61,2.74-.83a2.27,2.27,0,0,1,2.77,1.18,3.08,3.08,0,0,1-.56,3.42,5.65,5.65,0,0,1-1.74,1,5.54,5.54,0,0,1-2,.3c-4.45-.21-4.56,1.46-4.43,5S1155.63,680.7,1155.9,684.53Z"/><path d="M1024.61,597.81c-1.17,3.73-2.2,6.66-1.81,9.91a29.64,29.64,0,0,1,0,4.52,2.77,2.77,0,0,1-2.35,2.86,3.21,3.21,0,0,1-3-2.39,7.44,7.44,0,0,1-.15-1.63,46.85,46.85,0,0,0-1.55-11.78,20.84,20.84,0,0,1-.62-4.46c-.05-1.36,1.07-2.65,2.26-2.37,2,.47,3.44-.35,5-1.2a12.64,12.64,0,0,1,1.52-.6c4.76,1.12,7.08,4.27,7.85,8.9a62.21,62.21,0,0,1,1.23,10.18,24.71,24.71,0,0,0,.66,4,9.56,9.56,0,0,1,.27,2.42,1.64,1.64,0,0,1-1,1.13,1.53,1.53,0,0,1-1.4-.42,14.68,14.68,0,0,1-1.85-3.61c-.71-2.35-1.11-4.79-1.73-7.18s-1.26-4.46-2-6.66C1025.92,599,1025.42,598.71,1024.61,597.81Z"/><path d="M739.74,585.13a8.48,8.48,0,0,0-1.5,2.07,26.32,26.32,0,0,0-1,4.78,47.66,47.66,0,0,0-.06,4.93c0,3.06,0,3.06-3.17,5-1.28-.23-1.72-1.17-1.92-2.32-.48-2.83-.92-5.67-1.46-8.49-.39-2-1-4-1.38-6a7.35,7.35,0,0,1-.24-2.41c.17-1.32,1.29-2.53,3-1.6l2.42,1.34c.74-.87,1.48-1.81,2.28-2.69a3.33,3.33,0,0,1,4.74-.57c.89.63,1.71,1.36,2.57,2a6.68,6.68,0,0,1,2.68,4.88c.31,3.82.66,7.63.94,11.44.14,1.76.16,3.52.24,5.28a2,2,0,0,1-1.94,2.21,1.74,1.74,0,0,1-2.06-1.53c-.43-2.56-.67-5.15-1.11-7.71-.53-3.09-1.15-6.16-1.81-9.23C740.79,586.13,740.27,585.78,739.74,585.13Z"/><path d="M1084.11,600.88c-.51,4.44-.83,8.69-4.14,11.91a12.24,12.24,0,0,0-1.51,1.93c-1.68,2.51-4.43,3-7,3.79a3.34,3.34,0,0,1-3-.89,7.56,7.56,0,0,1-3.07-6.42c.56-5.87,1.9-11.56,5.63-16.41,1.16-1.51,2.43-2.48,4.45-2.35,1.07.07,2.17-.37,3.24-.32a3.53,3.53,0,0,1,3.57,2.78c.35,1.44,1,2.82,1.42,4.23C1083.85,599.77,1084,600.43,1084.11,600.88Zm-13.37,9.1a4.84,4.84,0,0,0,.09,1.35,3.32,3.32,0,0,0,1,1.65c.83.57,1.52-.11,2.09-.69a17.18,17.18,0,0,0,4.82-10.13,15.91,15.91,0,0,0-.54-4.81,1.52,1.52,0,0,0-2.35-.67,3.66,3.66,0,0,0-.86.85A23.79,23.79,0,0,0,1070.74,610Z"/><path d="M821.1,598.85c0-3.53,1.59-7.3,3.5-10.94,1-2,3-3.16,4.83-4.3a3.76,3.76,0,0,1,5.73,2.48c.55,3.35,1.7,6.62,2.07,10a15.51,15.51,0,0,1-2,9,6.53,6.53,0,0,1-3.54,2.64c-5.47,2.35-10.17-.59-10.58-6.59C821.07,600.63,821.1,600.08,821.1,598.85Zm9.5-10.57c-1.14,2.6-2.34,5.18-3.4,7.82a8.11,8.11,0,0,0-.13,6,1.45,1.45,0,0,0,2.57.59,3.5,3.5,0,0,0,.51-.64A14.44,14.44,0,0,0,830.6,588.28Z"/><path d="M769.42,642.49c.45-.15.82-.26,1.18-.41,3.44-1.39,5.84-.61,7.51,2.6a16.93,16.93,0,0,1,2.19,8.67c-.15,3-.56,6-1,9-.21,1.52-.34,1.5-2.66,3a9,9,0,0,1-1.07-1.59,12.79,12.79,0,0,1-.48-5.67,23.31,23.31,0,0,0-.34-8.16,12.33,12.33,0,0,0-1.07-2.11,10.29,10.29,0,0,0-3.8,6.66c-.35,1.88-.51,3.8-.74,5.7a3.27,3.27,0,0,1-1.75,2.61,2.17,2.17,0,0,1-3.36-1.63c-.11-1.91.05-3.83.05-5.74,0-3,0-6,0-9,0-1.77-.07-3.56.07-5.33,0-.56.58-1.44,1-1.54a2.92,2.92,0,0,1,2.23.45A14.1,14.1,0,0,1,769.42,642.49Z"/><path d="M761.83,646.61a23.7,23.7,0,0,1-.7,3.16,19.06,19.06,0,0,1-6.92,9c-2.69,1.91-5.88,2.11-9,2.39-1.7.15-3.39-1.59-3.57-3.37a9.77,9.77,0,0,1,.15-3.66c2.28-8,6.78-14.22,14.55-17.72a5.4,5.4,0,0,1,1.56-.47,2.63,2.63,0,0,1,3.08,2.5c.2,2.73.34,5.46.51,8.19Zm-14.55,9.65c2.26.68,3.62-1,5.09-2a10.85,10.85,0,0,0,4.57-7.45c.27-1.72,1-3.46-.57-5.16a16.63,16.63,0,0,0-7.66,8.13C747.72,651.78,746.11,653.7,747.28,656.26Z"/><path d="M961.37,668.08c-1.22-1.34-2.22-2.4-3.19-3.5a8.55,8.55,0,0,1-2.51-4.6c-.33-2.71,0-5.16,2.13-7.16,3.09-2.92,6.26-5.71,10.35-7.17a6.11,6.11,0,0,1,4.39-.32,1.77,1.77,0,0,1,1.08,2.61c-.61,1.13-1.41,2.18-2.76,2.18-2,0-3.33,1.11-4.74,2.17-1.19.91-2.35,1.88-3.45,2.91-1.89,1.76-2,3.34-.43,5.38a27.25,27.25,0,0,0,2.94,2.84c.8.74,1.71,1.37,2.45,2.17a3.19,3.19,0,0,1,.14,4.46,12.27,12.27,0,0,1-12.17,4,4.72,4.72,0,0,1-1.69-1.06,1.32,1.32,0,0,1,.47-2.29c1.45-.4,2.94-.63,4.36-1.11A15.68,15.68,0,0,0,961.37,668.08Z"/><path d="M1199.8,643.23a5.5,5.5,0,0,1,2.68,5.84c-.54,3.38-1.22,6.73-1.71,10.12-.64,4.46-1.17,8.94-1.7,13.42a22.88,22.88,0,0,0-.07,2.87,7.55,7.55,0,0,0,1.39,5c.93,1.14.3,2.69-1,3.43-1.57.89-3.44.68-3.93-.68a25.42,25.42,0,0,1-1.79-6.69,55,55,0,0,1,.77-14.7c.86-4.42,1.36-8.93,1.79-13.41C1196.46,646,1197.33,644.28,1199.8,643.23Z"/><path d="M1212.39,683.82c-1.19.38-1.93.67-2.7.85a2.53,2.53,0,0,1-3-1.5,9.47,9.47,0,0,1-.94-2.69,93.2,93.2,0,0,1-.49-22.14c.23-2.6.47-5.18.71-7.77a11.11,11.11,0,0,1,.16-1.64c.39-1.61,2.21-3,3.56-2.86a3.08,3.08,0,0,1,2.27,3.07,28.68,28.68,0,0,1-.28,5.32,116.75,116.75,0,0,0-1.16,19.68C1210.54,677.28,1210.65,680.42,1212.39,683.82Z"/><path d="M800.54,652.63c.69-5.84,1.4-11.8,2.11-17.76a5.46,5.46,0,0,1,2.56-4,2,2,0,0,1,3,.95,12.39,12.39,0,0,1,.35,4c-.26,2.85-.63,5.71-1.15,8.52a92.5,92.5,0,0,0-1.18,15.93,16.81,16.81,0,0,0,.71,3.58c.28,1.29,0,2-.89,2.41-1.42.67-2.61.55-3.38-.37a7,7,0,0,1-1.65-4.12C800.87,658.79,800.71,655.8,800.54,652.63Z"/><path d="M856.87,667.46a15.65,15.65,0,0,1-2.26.6,2.11,2.11,0,0,1-2.51-1.6,27.27,27.27,0,0,1-1-4.78,60.28,60.28,0,0,1,.36-13.08c.4-3,.71-6,.91-9a9.83,9.83,0,0,1,1.31-4.26,3.83,3.83,0,0,1,1.1-1.17,1.91,1.91,0,0,1,3.11,1.29,76.77,76.77,0,0,1-.17,8.17c-.37,4.9-1,9.78-1.33,14.69a20.57,20.57,0,0,0,.6,7.72A4.25,4.25,0,0,1,856.87,667.46Z"/><path d="M658.47,587.07c-1.11-1.1-.62-2.27-.15-3.42a2.54,2.54,0,0,1,2.31-1.46c4.34-.39,8.67-.94,13.06-.55,2.57.23,5.17.17,7.75.3a24.22,24.22,0,0,1,4.44.45,2.13,2.13,0,0,1,1,3.78,5.8,5.8,0,0,1-4.73,2c-7.62-.54-15.23-1.38-22.88-.82A2.1,2.1,0,0,1,658.47,587.07Z"/><path d="M1003.72,605.26a9.85,9.85,0,0,0,0-1.63c-.65-3.64.79-7,1.64-10.35a1.94,1.94,0,0,1,1.67-1.57,2.27,2.27,0,0,1,2.41,1.18,3.89,3.89,0,0,1,.47,1.94c-.18,4.08.37,8.16-.35,12.24a49,49,0,0,0-.28,5.7c-.1,1.75-.91,2.65-2.38,2.79a2.76,2.76,0,0,1-3.1-2.56c-.24-2.56-.25-5.15-.35-7.73Z"/><path d="M1057.47,681.58a5.46,5.46,0,0,1-1.89-4.67c.15-2.59.34-5.19.61-7.77s.67-4.87.92-7.31a5.9,5.9,0,0,1,2.4-4.13,2,2,0,0,1,3.13.71,7.18,7.18,0,0,1,.71,3.12,37.72,37.72,0,0,1-.81,5.68,47.07,47.07,0,0,0-1.24,10.58C1061.37,680.51,1061,680.81,1057.47,681.58Z"/><path d="M1284.35,682.31a13,13,0,0,1-2,.78,2.06,2.06,0,0,1-2.66-1.27,8.32,8.32,0,0,1-.7-2.75c-.12-2.87-.17-5.74-.11-8.61a8.28,8.28,0,0,1,2.63-5.83,3.4,3.4,0,0,1,2.19-.75c.81,0,1.53,1.09,1.61,2.12a5.45,5.45,0,0,1,0,1.21c-.3,2.44-.74,4.88-.9,7.33S1284.35,679.43,1284.35,682.31Z"/><path d="M1131.74,601c.88.18,2.1.35,3.26.7a2.89,2.89,0,0,1,2.26,3.36c-.23,1.38-1.64,2.26-3.51,2.06-1.48-.15-3-.47-4.44-.66-.94-.11-1.9-.08-2.85-.16s-1.81-.32-1.89-1.22a3.79,3.79,0,0,1,.79-2.18c.84-1.22,2.26-1.44,3.6-1.69A26.29,26.29,0,0,1,1131.74,601Z"/><path d="M1315.67,691.66a2.75,2.75,0,0,1-2.83-2.42,2.71,2.71,0,0,1,2.47-2.77,2.6,2.6,0,0,1,.36,5.19Z"/><path d="M1284.36,646c0,1.09-1.38,2-3.1,2.06-.87,0-1.55-.88-1.53-2a2.13,2.13,0,0,1,2.25-2.33A2.39,2.39,0,0,1,1284.36,646Z"/><path d="M1060,654.47c0-2.35,1.21-3.61,3-3a2.39,2.39,0,0,1,1.25,1.34,1.59,1.59,0,0,1-.49,1.39,12.75,12.75,0,0,1-2.44,1.32A1.06,1.06,0,0,1,1060,654.47Z"/><path d="M1044.63,662.88a5.48,5.48,0,0,1-2.51,3.38l.12.06a6.4,6.4,0,0,1,2.48-3.31Z"/><path d="M1181,593.41a12.51,12.51,0,0,1,1.1,1.84c1.7,5.48,1.45,10.78-1.6,15.78-.65,1.06-1.46,2.21-2.8,2.11-1.51-.12-1.69-1.61-1.91-2.79C1174.57,604,1176.21,598.51,1181,593.41Z" style="fill:#fff"/><path d="M670.48,652.55a22.32,22.32,0,0,1,5.84-5.75,6.7,6.7,0,0,1,1.89-.79,2.47,2.47,0,0,1,2.68.38c.47.49.07,1.63-1,2.41C677.23,650.69,674.47,652.33,670.48,652.55Z" style="fill:#fff"/><path d="M1108.69,665a3.15,3.15,0,0,1,3-2.35c.21,0,.46.24.65.41a.42.42,0,0,1,.07.39C1111.74,664.76,1110.73,665.19,1108.69,665Z" style="fill:#fff"/><path d="M1042.78,611.71a4.56,4.56,0,0,1,0-4,30.08,30.08,0,0,1,8.1-11.59,1.5,1.5,0,0,1,2.67,1,9.2,9.2,0,0,1-2.19,8c-2.11,2.31-4.1,4.73-7,6.12C1043.89,611.37,1043.38,611.5,1042.78,611.71Z" style="fill:#fff"/><path d="M1075.67,678.6a5.32,5.32,0,0,1,.06-4.41c1.35-3.67,3.92-6.53,6.45-9.4a1.11,1.11,0,0,1,.32-.25c1-.61,2.16-1.6,3.38-.94s.95,2.21.7,3.33a9,9,0,0,1-1.54,3.71,39.34,39.34,0,0,1-7.65,7.38A7.57,7.57,0,0,1,1075.67,678.6Z" style="fill:#fff"/><path d="M1150.4,611.49a20.78,20.78,0,0,1,3.41-9.78c2.24-3.42,2.81-3.94,5.29-5a8,8,0,0,1-.07,6,18.9,18.9,0,0,1-7.26,8.67C1151.57,611.46,1151.25,611.4,1150.4,611.49Z" style="fill:#fff"/><path d="M758.69,599.79c.69-4.48,3-7.81,5.65-11a5.68,5.68,0,0,1,1.66-1.16,1.42,1.42,0,0,1,2,.81,4.08,4.08,0,0,1-.11,3.58,22.41,22.41,0,0,1-8,8C759.68,600.1,759.36,599.92,758.69,599.79Z" style="fill:#fff"/><path d="M1044.72,663a6.4,6.4,0,0,0-2.48,3.31l-2.34.28a16.19,16.19,0,0,1,5-6.22C1044.82,661.56,1044.77,662.29,1044.72,663Z" style="fill:#fff"/><path d="M906.4,605.83a20.15,20.15,0,0,1,.3-3.59,25.67,25.67,0,0,1,5.78-10.2,6.9,6.9,0,0,1,1.24-1,1.52,1.52,0,0,1,2.41,1.15,9.78,9.78,0,0,1-1.52,6.63,35,35,0,0,1-3.37,4.58A7.55,7.55,0,0,1,906.4,605.83Z" style="fill:#fff"/><path d="M1171.43,679a31.35,31.35,0,0,1,1.13-3.51c1.57-3.41,4.09-6.14,6.56-8.88a4.81,4.81,0,0,1,3.88-1.84,3,3,0,0,1,.31,3.88,26,26,0,0,1-10,10.07A9,9,0,0,1,1171.43,679Z" style="fill:#fff"/><path d="M904.71,667.49c-.51-1.27,0-2.41.56-3.48,2.41-5,4.57-10.18,9-13.9.32.23.71.39.7.52a26.05,26.05,0,0,1-5.72,14.57C907.88,666.91,907.21,667.17,904.71,667.49Z" style="fill:#fff"/><path d="M1000.32,655.31c.69,1.05,1.19,1.68,1.55,2.38a3.09,3.09,0,0,1-.5,3.76,38.32,38.32,0,0,1-8,6.87,1.77,1.77,0,0,1-1.5.09c-.36-.21-.51-.88-.61-1.37a2.23,2.23,0,0,1,.09-1.2C993.09,661.47,995.49,657.67,1000.32,655.31Z" style="fill:#fff"/><path d="M711.93,595.8a19.43,19.43,0,0,1,4.19-15c2.53,2.4,3.11,5.29,3.36,8.27a2.09,2.09,0,0,1-.63,1.46c-1.75,1.71-3.55,3.36-5.38,5C713.22,595.72,712.73,595.66,711.93,595.8Z" style="fill:#fff"/><path d="M833.43,661.43a13.89,13.89,0,0,1,2.49-8c1.35-2.28,2.81-4.58,5.41-6.18A7.74,7.74,0,0,1,842,649a7.64,7.64,0,0,1-1.33,5.45,64.55,64.55,0,0,1-4.65,5.67C835.56,660.63,834.68,660.81,833.43,661.43Z" style="fill:#fff"/><path d="M1070.74,610a23.79,23.79,0,0,1,4.24-12.45,3.66,3.66,0,0,1,.86-.85,1.52,1.52,0,0,1,2.35.67,15.91,15.91,0,0,1,.54,4.81,17.18,17.18,0,0,1-4.82,10.13c-.57.58-1.26,1.26-2.09.69a3.32,3.32,0,0,1-1-1.65A4.84,4.84,0,0,1,1070.74,610Z" style="fill:#fff"/><path d="M830.6,588.28a14.44,14.44,0,0,1-.45,13.78,3.5,3.5,0,0,1-.51.64,1.45,1.45,0,0,1-2.57-.59,8.11,8.11,0,0,1,.13-6C828.26,593.46,829.46,590.88,830.6,588.28Z" style="fill:#fff"/><path d="M747.28,656.26c-1.17-2.56.44-4.48,1.43-6.49a16.63,16.63,0,0,1,7.66-8.13c1.58,1.7.84,3.44.57,5.16a10.85,10.85,0,0,1-4.57,7.45C750.9,655.29,749.54,656.94,747.28,656.26Z" style="fill:#fff"/><path d="M448.75,154.54a13.73,13.73,0,0,1-1.81.05c-3.27-.17-6.52-.66-9.77-1.13-1.13-.16-2.73,0-3-1.59-.18-1.26,1.17-1.76,2-2.33a18.91,18.91,0,0,0,6.89-8.5,4,4,0,0,0-1.68-5.65,18.13,18.13,0,0,0-2.22-1.06,2.44,2.44,0,0,0-2.7.28,12.91,12.91,0,0,0-1.82,1.64,15.18,15.18,0,0,0-3.47,7.33A31.11,31.11,0,0,1,430,148.3c-.22.62-.86,1.06-1.92.43,0-4-.14-8.27-.08-12.49,0-2.87.27-5.75.5-8.61a8.92,8.92,0,0,0-1-5.16,1.64,1.64,0,0,0-2.74-.33,5,5,0,0,0-1.15,3,129,129,0,0,0-1.27,18c0,1.92,0,3.84.07,5.75a5.24,5.24,0,0,1-1.71,4.38A24.37,24.37,0,0,1,410.8,159a9.09,9.09,0,0,1-2.42.41c-3.94.12-5.53-1.42-5.56-5.34a7.48,7.48,0,0,1,0-.82c.48-6.36,3.44-11.45,8.06-15.67a5.12,5.12,0,0,1,1.39-.86c1.72-.77,3-.18,3.41,1.63a17.58,17.58,0,0,1,.32,6.93,1.34,1.34,0,0,0,1,1.77,7.78,7.78,0,0,0,1.72-1.89,14.11,14.11,0,0,0,.87-9.24,6.36,6.36,0,0,0-9.75-3.93,26.06,26.06,0,0,0-5,4.18,38.06,38.06,0,0,0-3.46,4.57,22.09,22.09,0,0,0-3.77,16.39c.55,4,3.81,6.39,7.85,6.25a23,23,0,0,0,15-5.87c.7-.62,1.31-1.46,2.63-1.09.21.82.43,1.74.67,2.65.31,1.19.6,2.39.95,3.57a2.43,2.43,0,0,0,2.45,1.84,3,3,0,0,0,2.73-1.54c.26-.47.34-1,.58-1.53.54-1.09,1.12-2.16,1.79-3.42,2.79.25,5.49.67,8.19.69s5.32-.29,8.33-.51C448.72,156.93,448.74,155.73,448.75,154.54Zm-10.83-14.76c0,1.41,0,1.41-1.27,2.78-.1-.2-.34-.47-.28-.61C436.72,141.12,436.79,140.06,437.92,139.78Z"/><path d="M618.66,205.77c2.36-1.78,4.88-1.49,7.43-.62,2.84,1,5.66,2,8.68,3,.71-.56,1.45-1.12,2.16-1.72,2.59-2.21,5.48-2.26,8.5-1.14a3.45,3.45,0,0,1,2.44,3,11.38,11.38,0,0,0,.23,2c.67,2.14-.38,3.54-2.11,4.35-2.34,1.09-4.78,2-7.52,1.41a13,13,0,0,0-2.87,0,10.46,10.46,0,0,0-1.44,5.09,3.72,3.72,0,0,0,3.85,4.36A14.52,14.52,0,0,0,649,221.7a4.58,4.58,0,0,0,1.59-3.24c.13-3.28.24-6.56.4-9.84a13.86,13.86,0,0,1,.42-3.6,1.76,1.76,0,0,1,3.22-.51c.66.85,1.18,1.82,1.87,2.91a21.5,21.5,0,0,1,2.17-1c2.94-.95,4.93-.37,6.93,2,.68.83,1.25,1.75,1.82,2.54,1.06,0,1.2-.74,1.55-1.29,2.38-3.8,5.75-4.11,8.68-.78a10,10,0,0,1,2.47,5.12c.36,2.43.68,4.88.83,7.33.17,2.74.19,5.48.15,8.22a5.42,5.42,0,0,1-.72,2.7,2.94,2.94,0,0,1-2,1.17c-1,.09-1.29-.91-1.37-1.73q-.59-6.13-1.08-12.28a11.17,11.17,0,0,0-1.48-5.08,13.2,13.2,0,0,0-1.52-1.69c-.56.55-1.2.91-1.42,1.44a32.86,32.86,0,0,0-2.18,10.41c-.14,2.19-.19,4.38-.27,6.57a4.35,4.35,0,0,1-1.82,3.51c-1.18.89-2.63.48-2.85-.92a19.8,19.8,0,0,1-.14-3.27c0-2.6.24-5.21.11-7.8a44.5,44.5,0,0,0-.93-6.49,5.44,5.44,0,0,0-2.93-4,2.86,2.86,0,0,0-2.34,2.32,62.87,62.87,0,0,0-1.66,6.76c-.56,3.1-.91,6.24-1.39,9.35a21.45,21.45,0,0,1-.67,2.38,10.23,10.23,0,0,1-2.08.42,2.46,2.46,0,0,1-2.73-2.46c-.11-.94,0-1.91,0-2.86,0-.53-.13-1.06-.24-1.85a10.59,10.59,0,0,0-2,.3c-1,.37-2,.89-3,1.32a17.31,17.31,0,0,1-11.27.77,5,5,0,0,1-3.87-3.83,13,13,0,0,1,0-7.71c1.32-3.77.71-4.6-3.38-5.63a25.46,25.46,0,0,0-3.2-.72c-2-.25-2.89.29-3.21,2.24-.47,2.83-.79,5.69-1,8.55-.14,1.5,0,3,0,4.52a18.33,18.33,0,0,1-.09,2.46c-.28,2.08-1.16,3.08-2.64,3.13-1.7,0-2.85-1.11-2.91-3.23-.1-3.29-.05-6.58-.08-9.87,0-3-.06-6-.08-9a17.56,17.56,0,0,1,.07-2.05,3.79,3.79,0,0,1,2.09-2.88c1-.54,1.82.19,2.62.72A12.26,12.26,0,0,0,618.66,205.77Zm23.66,3.07a5.56,5.56,0,0,0-1.21.88c-.31.37.25.87.94.84s1.1-.17,1.06-.83C643.1,209.47,642.68,209.22,642.32,208.84Z"/><path d="M441.29,235.68a3.23,3.23,0,0,1-.2.69c-1.17,1.72-2.82,2.79-4.87,2.41s-2.91-2.34-3.52-4.19a23.92,23.92,0,0,1-.51-2.83c-.19-.9-.44-1.79-.75-3.07-1.3,1.1-2.38,1.91-3.33,2.84a9.33,9.33,0,0,1-8,2.48,25.21,25.21,0,0,0-7.32.39c-1.48.25-3,.42-4.47.57a10.87,10.87,0,0,1-10-4.49c-.48-.61-1-1.19-1.56-1.83a7.66,7.66,0,0,0-1.11.9c-3,3.87-7.11,5.38-11.85,5.55a6.62,6.62,0,0,1-6.53-4,17,17,0,0,1-1.25-5.17c-.11-2.11-.44-4-1.91-5.41a3.08,3.08,0,0,1,2-2.65c1.63-.49,2.38-1.75,3.1-3.09a19.06,19.06,0,0,1,1.42-2.49c1.95-2.61,4.35-4.53,8-4.78.48.32,1.14.79,1.82,1.23a2.84,2.84,0,0,1,1.39,2.37,2.71,2.71,0,0,0,0,.41c1.33,5.73-1,7.92-6.2,10.37a25,25,0,0,1-2.75.84,2.22,2.22,0,0,0-1.63,2.13,8.17,8.17,0,0,0,0,1.64c.54,3.69,1.92,5.13,5.78,4.33a14.58,14.58,0,0,0,8.73-5.2c0-.88.05-1.83,0-2.78-.27-4.57,4.6-11.11,8.65-12.47,3.34-1.12,5.93-.51,7.92,2.39,1.07,1.55.74,5-.61,6.54a14.75,14.75,0,0,1-5.08,3.42,17,17,0,0,1-3.05,1.2c-2.54.68-2.15,2.63-1,4.11,2.44,3,5.74,4.08,9.5,3.85a35.55,35.55,0,0,0,4.19-.73,19.38,19.38,0,0,0,.48-2.84c.1-5.58,2.76-10,6.56-13.72,2.23-2.19,4.33-4.59,7.19-6.09,1.51-.79,1.75-2.4,1.77-3.93,0-2.75-.07-5.49-.07-8.23a11.69,11.69,0,0,1,.22-3.25c.18-.63,1-1.09,1.66-1.76a20.6,20.6,0,0,0,1.94,1.83,3.49,3.49,0,0,1,1.4,3.23c-.05,2.47-.18,4.93-.18,7.4,0,2.32.14,4.65.16,7a13.59,13.59,0,0,1-.19,3.26,48.24,48.24,0,0,0-.76,15.53c.07.82.21,1.63.34,2.44.32,2,1.3,3.28,3.51,3.26C440.69,235.23,440.92,235.48,441.29,235.68Zm-10.16-21.25c-4.07,2.36-6.06,5.87-7.83,9.49a6,6,0,0,0-.53,5.14c2.15,0,3.32-1.24,4.3-2.73C429.38,222.85,431.35,219.25,431.13,214.43ZM403,218.27a6.09,6.09,0,0,0,5-2.28,1.15,1.15,0,0,0,0-1.08,1.52,1.52,0,0,0-1-.53,1.82,1.82,0,0,0-1.13.3A8.42,8.42,0,0,0,403,218.27ZM387.25,214c-1.44-.44-1.89,0-1.59,1.45C386.38,214.79,386.82,214.4,387.25,214Z"/><path d="M771.39,232.78c0-.42,0-.75-.12-.94-2.57-3.38-2.25-7-.5-10.46A44,44,0,0,1,783,206.69a26.53,26.53,0,0,1,6.19-3.15,3.24,3.24,0,0,0,2.2-2.68c.15-1.09.16-2.19.27-3.27.25-2.59.37-5.2.82-7.76a11.6,11.6,0,0,1,3.51-7,6,6,0,0,1,3.61,4.94A57,57,0,0,1,798.48,211a28.68,28.68,0,0,1-2.17,6.18,18,18,0,0,0-1.9,11.91c.13.81.21,1.63.36,2.44.73,3.91.73,3.91,4.49,5.34.1,0,.16.2.42.54-.26.32-.48.85-.87,1-1,.46-2.07.71-3.07,1.14-3.19,1.39-5-.68-5.67-3.4-.41-1.59-.6-3.23-.93-4.83-.14-.64-.39-1.25-.67-2.12a20.77,20.77,0,0,0-1.93,1.11c-5.52,4.11-11.86,6.2-18.53,7.25a23.21,23.21,0,0,1-7.75-.24,9.63,9.63,0,0,1-7.9-7.44,13.29,13.29,0,0,1-.58-3.63c.09-7.57,2.88-13.92,9-18.49,1.79-1.34,4.15-2.55,6.47-1.17,2.5,1.49,4.67,3.39,4.5,6.78a11.06,11.06,0,0,1-2.74,7.14,16.88,16.88,0,0,1-9.37,5.5l-2.41.48a5.9,5.9,0,0,0,1.85,5,7.41,7.41,0,0,0,5.12,2.29A18.73,18.73,0,0,0,771.39,232.78ZM789.68,208a7.76,7.76,0,0,0-4.81,2.87c-2,2.09-3.79,4.3-5.72,6.43a18.64,18.64,0,0,0-4,8,6.92,6.92,0,0,0-.18,1.21,2,2,0,0,0,1.83,2.28,6.57,6.57,0,0,0,2-.05,16.11,16.11,0,0,0,9.71-7,5,5,0,0,0,.63-2.33c.29-3.13.51-6.26.72-9.4A11,11,0,0,0,789.68,208ZM758,221.34c.8.12,1.24.31,1.58.2a13.33,13.33,0,0,0,6.86-5.41,5.46,5.46,0,0,0,.68-3.07,2.19,2.19,0,0,0-3.51-1.79C760.49,213.77,757.92,216.67,758,221.34Z"/><path d="M482.72,154.91a24.53,24.53,0,0,0-2.69,1.38c-8,5.56-16.86,6.84-26.27,5.63a7.37,7.37,0,0,1-.82-.13c-5.44-1.2-7-3.62-7.72-8.27a12.37,12.37,0,0,1,1.38-8c2-3.63,4.37-6.94,8.25-8.87,2.63-1.3,5.24-2.36,8.21-1a7.83,7.83,0,0,0,2.21.35c.77,1.78-.07,2.9-1,3.9a17.55,17.55,0,0,1-6.76,4.52c-.9.32-1.83.57-2.74.87-3.18,1.08-4.7,3-4.83,6.29-.1,2.71.85,4.72,3.5,5.89a14.62,14.62,0,0,0,10.52.75,11,11,0,0,0,0-1.9,12.87,12.87,0,0,1,2.09-9,52.27,52.27,0,0,1,9.35-11.39,24.45,24.45,0,0,1,4.88-3,24.76,24.76,0,0,1,2.6-1.11c1.19-3,.47-6.44,2.77-9.2l2.16.71.74-1.22c.6.28,1,.33,1.05.5a19.48,19.48,0,0,1,1.05,3.5c.79,6,.75,12.11-1.4,17.87a25.33,25.33,0,0,0-.82,14.13c.43,2.15.78,4.31,1.16,6.47.16.88,0,1.66-.9,2a1.72,1.72,0,0,1-2.13-.78,10.29,10.29,0,0,1-1.34-2.51c-.59-1.82-1-3.7-1.51-5.54C483.41,156.92,483.09,156.05,482.72,154.91Zm-.94-17c-.37,0-.85,0-1.11.17A42,42,0,0,0,471,148.42a13.2,13.2,0,0,0-2.08,5.7c-.19,1.67,1.09,2.64,2.59,1.84a50.16,50.16,0,0,0,5.86-3.69C482.22,148.76,483.59,144.16,481.78,137.86Z"/><path d="M695.05,160.84a7.87,7.87,0,0,1-4,3.68,23.33,23.33,0,0,1-13.11,2.59,6.52,6.52,0,0,1-6-4.75,28.66,28.66,0,0,1-1-4.79c-.17-1.2-.11-2.43-.16-3.57-3.12-1.12-9.6-1.67-12.23-1.06a3.5,3.5,0,0,0-1.13.46,1.34,1.34,0,0,0-.6,1.76,5.6,5.6,0,0,0,.89,1.36c1,1.11,2.1,2.15,3.13,3.26s1.87,2,2.7,3.09,1,2.29.34,3a3.26,3.26,0,0,1-3.22,1.38,25.26,25.26,0,0,1-10.79-4.77c-2.35-1.82-2.68-3.77-.91-6.35a4.36,4.36,0,0,0,.86-3.83c-1.21-4.42.71-7.66,3.81-10.55A25.45,25.45,0,0,1,665,135.6a13.2,13.2,0,0,1,5.66.12c2.38.5,3,3,1.35,4.76a29.43,29.43,0,0,1-2.61,2.18,8.88,8.88,0,0,0-1.7-1.23,4,4,0,0,0-2.29-.49,16.25,16.25,0,0,0-10.22,7.65c-.17.3,0,.77,0,1.25a3.43,3.43,0,0,0,1.13.33c4.49-.42,9-1,13.48-1.28a6.27,6.27,0,0,0,5.44-3,21,21,0,0,1,9.42-7.68,7.77,7.77,0,0,1,4-.63,3.5,3.5,0,0,1,3,1.92c.5,1,1,1.93,1.59,3.1a11.55,11.55,0,0,1-7.81,8c-2.08.68-4.14,1.44-6.24,2.05a3.09,3.09,0,0,0-2.39,2.51c-.08.41-.2.8-.26,1.21-.6,4,.73,5.85,4.77,6.6a10,10,0,0,0,6.75-.74,31.13,31.13,0,0,1,5.86-1.81C694.06,160.39,694.35,160.6,695.05,160.84Zm-8-17.5c-.2-.23-.28-.41-.38-.42-1.23-.17-2,.7-2.72,1.42s-1.78,1.13-1.93,2.55C684.64,146.69,686,145.21,687.09,143.34Zm-34.54,15.21-.89-.56c0,.21-.2.46-.13.62a.88.88,0,0,0,.54.4C652.18,159,652.35,158.75,652.55,158.55Z"/><path d="M226.16,63.11c.79.25,1.07.45,1.3.4,1.33-.29,2.65-.63,3.85-.93,1.05-1.38.54-2.76.48-4.09a37.59,37.59,0,0,1-.08-4.5,1.9,1.9,0,0,1,2.8-1.44,3.76,3.76,0,0,1,2.35,3.13c.3,2.58.58,5.16.8,7.75.12,1.34.1,2.69.13,4,1.67.46,2.1-1.44,3.85-1.33a9.34,9.34,0,0,1,5.62,5c1.65,3.25,2.67,6.57,1.86,10.28-.34,1.6-.4,3.27-.68,4.88a3.45,3.45,0,0,1-.8,1.81,2.68,2.68,0,0,1-1.81.62,1.63,1.63,0,0,1-1-1.07,22.23,22.23,0,0,1-.46-3.64c-.12-2,0-4.13-.28-6.15a15.79,15.79,0,0,0-1.42-4.22,1.37,1.37,0,0,0-2.38-.15c-1.12,2-2.43,4-2.7,6.37-.31,2.86-.62,5.72-1,8.58A2.9,2.9,0,0,1,234,91.22a2,2,0,0,1-2.49-1.53,18.79,18.79,0,0,1-.11-3.27c.2-5.34.46-10.68.65-16a14.85,14.85,0,0,0-.31-2.42c-2-.59-3.6.36-5.21,1-.85.32-1,1.2-1.08,2.06-.49,5.05-.82,10.1.07,15.15a10.18,10.18,0,0,1,0,1.77,11.12,11.12,0,0,1-1.93.59c-1.61.15-2.4-.24-2.75-1.79-.6-2.66-1-5.38-1.36-8.09a18.88,18.88,0,0,1-.06-3.28c.09-2.53.18-5-2.52-6-.27-2.66,2-2.77,3.11-4.25.47-4.66,1-9.56,1.46-14.46a3,3,0,0,1,1.09-2.53c2.34-1.63,4.43-.72,4.5,2.16s-.21,5.74-.4,8.61C226.58,60.26,226.35,61.59,226.16,63.11Z"/><path d="M593.11,157.08c.25-1.22.55-2.27.67-3.35A28.08,28.08,0,0,1,598.29,142a21.17,21.17,0,0,1,10.9-10.07,4.55,4.55,0,0,1,3.6.1,2.65,2.65,0,0,1,2,2.77c0,1.23-.19,2.46-.2,3.69,0,.95-.18,2.12.29,2.81,1.16,1.75.65,3.42.24,5.13a26,26,0,0,0-.59,9,18.39,18.39,0,0,0,.93,3.16l4.13.54c-.16.63-.13,1.18-.37,1.36a15.08,15.08,0,0,1-3.08,2c-2.5,1-3.68.53-5.07-1.83-.61-1-.6-2.44-2-3.09-1.94,1.12-3.86,2.41-5.93,3.37s-4.08,1.49-6.2,2.24c-1.66-.15-2.09-2-3.54-2.84a15.21,15.21,0,0,0-5,.7,13.27,13.27,0,0,1-8.37-1.27,8.1,8.1,0,0,1-4.07-4.44,13.17,13.17,0,0,1-.25-10.77,18.51,18.51,0,0,1,8.75-9.4c3.29-1.73,7,.25,8.31,2.34a4,4,0,0,1,.55,1.52,1.73,1.73,0,0,1-2.31,1.94l-.39-.14c-1.09-.52-2-1.4-3.42-1.12-1.61.32-2.48,1.63-3.56,2.65a11.17,11.17,0,0,0-3.4,6.41c-.6,3.57.63,6.08,3.79,7.88C586.77,158.14,589.69,158,593.11,157.08Zm6.19.54a20.81,20.81,0,0,0,3-1.72,26,26,0,0,0,5.27-6.2c2-3.18,2.74-6.82,4-10.26a2.65,2.65,0,0,0-.6-2.21c-.64-.71-1.55-.18-2.2.31a11.61,11.61,0,0,0-2.06,2c-1.52,1.93-3,3.91-4.4,5.91a20,20,0,0,0-3.23,9.17A18.76,18.76,0,0,0,599.3,157.62Z"/><path d="M330.26,148.83a24.59,24.59,0,0,0-2.33,1.31,19.86,19.86,0,0,1-14.72,3.77,9.9,9.9,0,0,1-9.06-7.68c-.25-.92-.31-1.89-.52-2.83a5.3,5.3,0,0,1,.58-3.51A37.12,37.12,0,0,1,312.87,128a7.18,7.18,0,0,1,2.66-1.87c3.52-1,4.47-1.91,6.07,2.63a7.8,7.8,0,0,1-1.58,8.34,17.06,17.06,0,0,1-7.58,5.43c-1,.35-2,.86-3.05,1.34.26,3.14,1.54,5.13,4.59,6.13,4.11,1.34,7.81.48,11.46-1.39,1.56-.8,3.13-1.57,5.05-2.52.33-2.73,1.05-5.79.25-9a3.13,3.13,0,0,1-.12-1.62c1.12-3.23.39-6.52.45-9.79a14.25,14.25,0,0,1,.15-2.86,5.52,5.52,0,0,1,1.1-2.17,2.35,2.35,0,0,1,4,.51,26,26,0,0,1,.93,5.21c.17,1.49.09,3,.16,4.51,0,.24.23.48.49,1,1.86.11,3.89.19,5.9.37a1.93,1.93,0,0,1,1.78,2.61,2.51,2.51,0,0,1-1.32,1.39c-2.08.6-4.21,1-6.48,1.54-.87,1-.74,2.44-.84,3.77-.31,4.38-.58,8.75-.9,13.12a16.08,16.08,0,0,1-.51,3.24,3.7,3.7,0,0,1-1.14,1.61,2.52,2.52,0,0,1-2.62.75c-1.08-.42-1.22-1.41-1.22-2.39,0-1.92.12-3.83.1-5.75C330.67,151.29,330.46,150.38,330.26,148.83Zm-17.5-11.89c3.52-1.66,3.8-2,4-4.43C314.2,134,314.2,134,312.76,136.94Z"/><path d="M740.7,205.74c1-1.62.77-3.17.93-4.64.36-3.12.51-6.28,1.1-9.35A34.47,34.47,0,0,1,745,185.2c.6-1.46,1.86-1.55,2.93-.48a4.57,4.57,0,0,1,1.47,3.27c0,2,.12,4.11,0,6.15a109.12,109.12,0,0,1-2.31,18.7,10.23,10.23,0,0,0,0,3.62,9.56,9.56,0,0,1-.3,4.83,7,7,0,0,0,.92,7,2,2,0,0,1-.36,3.17c-1.6,1.13-3.46,1.05-4.38-.31a13.81,13.81,0,0,1-1.23-2.57c-.4-1-.73-2-1.2-3.34-1,.72-1.75,1.22-2.43,1.82-2.29,2-4.71,3.74-7.83,4.19-.4.06-.8.16-1.21.21-4,.41-5.4-1-4.86-4.87a23.69,23.69,0,0,1,3.26-9.22,42.82,42.82,0,0,1,4.38-5.91C734.28,208.68,736.9,206.05,740.7,205.74Zm-1.08,5.44a23.45,23.45,0,0,0-8,10.24c-.61,1.47-1.52,2.9-1,4.83.64-.08,1.27,0,1.62-.22a25.14,25.14,0,0,0,7.6-8.45,7.53,7.53,0,0,0,.74-4.78C740.52,212.33,740.08,211.92,739.62,211.18Z"/><path d="M230.55,143.25c-.89,5.1.37,6.47,5,5.85a4.26,4.26,0,0,0,1.21-.21,43.23,43.23,0,0,0,9.41-5.77,3.52,3.52,0,0,0,.81-2.21c.12-1.91.06-3.83.1-5.75a32.36,32.36,0,0,1,.16-3.68,2.08,2.08,0,0,1,3.9-.84c.4.68.72,1.4,1.11,2.17a4.4,4.4,0,0,0,1.25-.43,4.25,4.25,0,0,1,3.73-1.21c2.14.43,4.36.51,6.09,2.09.5.46.38,1.57-.23,1.74a22.27,22.27,0,0,1-3.59.84c-2.55.31-3.73,1.75-4.32,4.19a32.85,32.85,0,0,0-.9,12.2,3.27,3.27,0,0,1-1.37,3.57,2.37,2.37,0,0,1-3.68-1.1,12.07,12.07,0,0,1-.35-2.42,20.82,20.82,0,0,0-1.89-6.52c-1.14.87-2.08,1.6-3,2.31a24.3,24.3,0,0,1-10.76,4.71c-6.94,1.11-10.13-5.26-8.35-10.45a38.08,38.08,0,0,1,7.41-12.19,9.16,9.16,0,0,1,6-3.3,3.22,3.22,0,0,1,3.24,1.24c2.31,2.93,2.36,5.5-.16,8.33a22,22,0,0,1-7.2,5.35C233,142.27,231.83,142.71,230.55,143.25Zm6.65-10.1-.15.26.24,0Z"/><path d="M290.66,178.41c-2.62-1.76-4.33-3.79-4.35-6.84,0-2.35.29-4.6,2.51-6.13l1.32,1.54c.21-.31.48-.52.49-.74q.53-7.38,1-14.75a13.15,13.15,0,0,0-.19-1.88,12.57,12.57,0,0,0-2,.49c-1.12.49-2.2,1.1-3.31,1.61a8.58,8.58,0,0,1-1.92.72c-4.39.89-7.59.36-6.18-5.92A30.06,30.06,0,0,1,288.14,130c4.16-3.58,9.3-1.93,10.77,3.39a13.74,13.74,0,0,1-.13,8.89,23.87,23.87,0,0,0-1.26,6.82c-.51,5.59-.95,11.18-1.56,16.76-.28,2.58-1,5.11-1.3,7.68A5.44,5.44,0,0,1,290.66,178.41Zm-7-30.45a7.73,7.73,0,0,0,4.64-2c3.58-2.83,5-6.7,5.54-11a1.59,1.59,0,0,0-.65-1.31,1.63,1.63,0,0,0-1.45.24,24.57,24.57,0,0,0-7.88,11.23A11.38,11.38,0,0,0,283.71,148Z"/><path d="M325.74,89.72a4.61,4.61,0,0,1-4.88,1.8A3.6,3.6,0,0,1,318.32,89c-.7-1.77-1.25-3.61-1.88-5.42-.3-.86-.66-1.7-1.11-2.85l-1.8,1.39c-1.74,1.32-3.5,2.61-5.21,4-2.65,2.09-5.79,2.31-9,2.4a2.5,2.5,0,0,1-2.72-2c-1-2.89-.29-5.67.5-8.46,1.28-4.56,4.27-7.89,7.74-10.85a7.69,7.69,0,0,1,2.47-1.41A3.51,3.51,0,0,1,311.74,67a22.53,22.53,0,0,0,1.63,1.79A8.8,8.8,0,0,0,313.9,67c.1-2.6.12-5.21.2-7.81a16.41,16.41,0,0,1,2.51-8.13c.12-.21.45-.29.68-.43,3.81,1.5,4.37,2.33,4,5.91-.42,4.49-.87,9-1.23,13.48a15.53,15.53,0,0,0,.11,4.09c.75,3.9,1.68,7.75,2.49,11.64A5,5,0,0,0,325.74,89.72ZM308,71a6.83,6.83,0,0,0-1.49.72,19.93,19.93,0,0,0-5.58,11.18,1.57,1.57,0,0,0,2.38,1.7,15.54,15.54,0,0,0,5.46-4.25,4.81,4.81,0,0,0,1-2.2A9.18,9.18,0,0,0,308,71Z"/><path d="M491.56,88.06l4.08-1.14c.82.63.71,1.35.13,1.78-1.53,1.13-3.12,2.19-4.74,3.18a2.86,2.86,0,0,1-3.76-.49,17.49,17.49,0,0,1-2.35-3.3,18.71,18.71,0,0,1-1.09-2.79,10,10,0,0,0-2,.87c-2.39,1.8-5.25,2.23-8,2.87a7.74,7.74,0,0,1-2,.14c-3.16-.16-4.75-1.87-4.64-5a9,9,0,0,1,.35-2.43c1.6-4.85,3.82-9.38,7.53-13,1.86-1.81,3.79-3.55,5.7-5.31a7.82,7.82,0,0,1,1-.76c2.75-1.79,6-.94,7.06,2.16A27.12,27.12,0,0,0,491.11,70a4.6,4.6,0,0,1,.22,4.34,25.37,25.37,0,0,0-1.65,8C489.52,84.33,489.55,86.43,491.56,88.06Zm-7.37-20.13a6.18,6.18,0,0,0-1.64.83,39.5,39.5,0,0,0-7.93,10.29,24.15,24.15,0,0,0-1.55,4.19,1.28,1.28,0,0,0,1.39,1.57,3.1,3.1,0,0,0,1.19-.17,20.84,20.84,0,0,0,7.9-6.29,13,13,0,0,0,2-6.95A3.85,3.85,0,0,0,484.19,67.93Z"/><path d="M534.77,147.26c1.1-.88,1.63-1.24,2.08-1.68,1.26-1.26,2.48-2.55,3.7-3.84a5.51,5.51,0,0,1,3.21-1.65c3.7-.63,6.39,1.48,6.69,5.27a8.61,8.61,0,0,1-1.53,5.8,18.88,18.88,0,0,1-13.16,8.21,10.6,10.6,0,0,1-7-1.11,17,17,0,0,0,.7-1.86,3.83,3.83,0,0,0,.23-1.89c-1.47-5.14-1.09-10.27-.08-15.41.73-3.76,1.35-7.54,2-11.3a8.26,8.26,0,0,1,1.65-4.14,2.83,2.83,0,0,1,3.3-.88,2.25,2.25,0,0,1,1.43,2.65c-.15,1.48-.47,3-.74,4.43-.84,4.57-1.71,9.14-2.5,13.71A26.29,26.29,0,0,0,534.77,147.26Zm9.63-2c-2.4,1.25-3.58,3.3-5.2,4.9s-3.38,3.24-5.52,5.29c4.94-.75,7.86-3.65,10.83-6.34C545.5,148.2,545.72,146.73,544.4,145.25Z"/><path d="M449.29,70.69c1.08-.9,1.45-1.24,1.86-1.54A3.9,3.9,0,0,1,456,69a7.35,7.35,0,0,1,2.9,4.35,40.83,40.83,0,0,1,.76,5.7,28.05,28.05,0,0,0,2,10.83c.1.21,0,.52-.05.8-.6.84-1.4.72-2.19.39a5.46,5.46,0,0,1-3.18-3.57c-.52-1.69-.86-3.44-1.22-5.18s-.6-3.51-1-5.25a8.15,8.15,0,0,0-.94-1.73,7.76,7.76,0,0,0-1.22,1.79c-1.05,3.83-2.08,7.66-3,11.52A3.22,3.22,0,0,1,446,91.21a2,2,0,0,1-2.29-1.28,18.51,18.51,0,0,1-.59-4c-.05-3.83,0-7.67.07-11.5.18-6.43.45-12.86.69-19.29a17.87,17.87,0,0,1,.24-2.85,2.68,2.68,0,0,1,5-.46,8.65,8.65,0,0,1,.59,2.79c.05,2.6,0,5.2-.1,7.8C449.59,64.83,449.45,67.28,449.29,70.69Z"/><path d="M318.55,222c-1.59,1.15-3,2.17-4.42,3.21a12,12,0,0,1-7.78,2,2.6,2.6,0,0,1-2.49-1.8,7.72,7.72,0,0,1-.3-5.23c1.91-6.5,4.8-12.5,9.68-17.34a10.13,10.13,0,0,1,3.77-2.28,3.56,3.56,0,0,1,4.29,1.57,10.15,10.15,0,0,1,1.14,2.16c.68,1.93,1.3,3.89,1.87,5.86a7.76,7.76,0,0,1-.51,6.35c-1.09,1.85-.5,3.74.14,5.53a3.57,3.57,0,0,0,4,2.25c1.64-.13,3.26-.37,4.89-.56a6.89,6.89,0,0,1,1.62-.15,1.31,1.31,0,0,1,.92.61,1.18,1.18,0,0,1-.12,1.1,11.68,11.68,0,0,1-5.83,3.61,17.83,17.83,0,0,1-4.07.25c-2.28-.08-3.75-1.47-4.81-3.34C319.83,224.6,319.27,223.37,318.55,222Zm-9.94.2c3.19-.67,3.67-.73,4.8-2.1a56.05,56.05,0,0,0,4.55-6.31c1.51-2.51.75-4.92-.68-7.28-.62.23-1.13.26-1.34.53a24.59,24.59,0,0,0-2.9,3.95c-1.56,3-2.91,6.18-4.29,9.3A6.54,6.54,0,0,0,308.61,222.15Z"/><path d="M243.31,206.61c-1.85.58-2.24,1.83-2.73,2.92a16.24,16.24,0,0,0-1.09,8.44c0,.41.21.8.28,1.2.73,4.08-.05,5.08-4.74,5.86a14.31,14.31,0,0,1-.77-2.17A132.84,132.84,0,0,1,231.73,189a5.92,5.92,0,0,1,1.41-3.74c1.15-1.3,2.46-1.21,3.35.2a7.07,7.07,0,0,1,.91,4.34c-.18,3.41-.32,6.83-.46,10.24,0,.95,0,1.91,0,3.23a6.39,6.39,0,0,0,1.49-.52c.44-.31.72-.83,1.15-1.16a5.45,5.45,0,0,1,7.92,1.1,13,13,0,0,1,2.09,5.72c.72,4.45,1.53,8.88,2.34,13.32.28,1.53,0,2.25-1.06,2.7a2.21,2.21,0,0,1-3.06-1.21,11.7,11.7,0,0,1-.85-2.73c-.49-2.54-.92-5.11-1.35-7.67A15,15,0,0,0,243.31,206.61Z"/><path d="M177.66,80.48a38.67,38.67,0,0,1,7.93-23.2,16.8,16.8,0,0,1,1.71-1.77,2.9,2.9,0,0,1,2.62-.88c.54.09,1.12.39,1.6.27,2.57-.66,4.06,1.28,5.82,2.42,1.55,1,2.15,2.72,2.61,4.5,2.23,8.45,0,15.65-6,21.81A8.28,8.28,0,0,1,190.16,86c-2.11.58-4.2,1.25-6.33,1.74-2.31.54-5.48-1-5.69-3.94C178.05,82.44,177.75,81.1,177.66,80.48Zm17.56-14.54a37.46,37.46,0,0,0-1.31-5.51c-1-2.47-2.57-2.72-4.3-.81A20.86,20.86,0,0,0,187.29,63a26.38,26.38,0,0,0-1.57,3.31,36.2,36.2,0,0,0-3.05,12.65,12.13,12.13,0,0,0,.36,3.23,1.74,1.74,0,0,0,2.57,1.16,9.13,9.13,0,0,0,2.28-1.69,27,27,0,0,0,3.56-4.46C193.43,73.72,195.2,70.16,195.22,65.94Z"/><path d="M191.49,200.7a21,21,0,0,1,3.43-1.6c3.9-.95,6.05.13,7.43,3.25a32.62,32.62,0,0,1,1.82,6.68c.3,1.45.23,3,.41,4.47q.6,5.08,1.29,10.16c.12.88.1,1.68-.88,2a1.72,1.72,0,0,1-2.07-.9,8.37,8.37,0,0,1-1.08-2.18c-.54-2-1-4-1.42-6-.43-2.29-.68-4.6-1.11-6.89a15.8,15.8,0,0,0-.95-3.12,2.84,2.84,0,0,0-2.34-2c-1-.1-2.07.77-2.57,2.29a12.5,12.5,0,0,0-.71,3.61c-.06,2.86.06,5.73.1,8.6a19.92,19.92,0,0,1,0,2.44,2.39,2.39,0,0,1-1.77,2,2.82,2.82,0,0,1-2.72-1.47,21.72,21.72,0,0,1-1-3.56,110.36,110.36,0,0,1-1.56-18.78c0-3.69-.2-7.37-.36-11.06-.07-1.69,0-3.28,1.59-4.36a1.92,1.92,0,0,1,3,.79,18.47,18.47,0,0,1,.88,4.4c.19,2.58.14,5.18.22,7.78C191.3,198.2,191.39,199.14,191.49,200.7Z"/><path d="M548.53,219.28c2-.69,2.93-2.27,4.07-3.57,1-1.13,1.85-2.38,2.92-3.43a4.5,4.5,0,0,1,6.77.77,8.09,8.09,0,0,1,.39,8.59c-2.74,5.59-7.53,8.47-13.6,9.33-3.06.43-4.81-.9-4.82-4a17.75,17.75,0,0,0-1.06-5.14,45.53,45.53,0,0,1-1.73-15c.15-3.41.46-6.82.82-10.21a9.37,9.37,0,0,1,1-3.46,3,3,0,0,1,2-1.07c.95-.12,1.44.74,1.61,1.56a21.35,21.35,0,0,1,.56,4,69.63,69.63,0,0,1-.28,7.37,50.8,50.8,0,0,0,.59,12.26A10,10,0,0,0,548.53,219.28Zm8.48-2c-2.26,3.94-5.91,6-9.16,8.6-.15.12-.1.49-.16.84.33.12.71.41,1,.36,4-.6,6.87-3,9.11-6.18C558.45,220.07,558.7,218.94,557,217.32Z"/><path d="M277.15,228.72c-.4,1.19-.71,2.09-1,2.88a4.64,4.64,0,0,1-.75.57c-3.33,1.37-4.16,1.22-6.34-2.22a12.15,12.15,0,0,1-2.13-5.71,20.77,20.77,0,0,0-.7-3.06c-.9.37-1.61.63-2.3.94-1.74.79-3.43,1.7-5.21,2.36a2.36,2.36,0,0,1-3.1-1.85,8.15,8.15,0,0,1-.05-3.26c1.9-7.5,5.27-14.06,12.18-18.22a11.32,11.32,0,0,1,1.05-.64c2.39-1.1,4.54-.45,5.31,2,1.28,4.1,2.11,8.39-.53,12.25-2.47,3.62-1.91,7.25-.71,11C273.65,228.06,273.86,228.09,277.15,228.72ZM266,217.17c.84-3.08,1.65-6,2.4-8.86a.8.8,0,0,0-.82-1.09,27.68,27.68,0,0,0-5.74,8.84,9.34,9.34,0,0,0-.25,2A6.53,6.53,0,0,0,266,217.17Z"/><path d="M501.05,79.88c-1.3-1.54-3.68-1.54-3.81-4.09l3.45-2.06c.17-2.09.34-4.26.52-6.42.53-6.26,1.05-12.53,1.62-18.79a8.34,8.34,0,0,1,.71-2.74,2.44,2.44,0,0,1,3.84-.68A3.71,3.71,0,0,1,508.8,48a59,59,0,0,1-.09,6.52c-.46,4.63-1.13,9.23-1.64,13.84a33.29,33.29,0,0,0,0,3.86c1.12,1.11,2.24.62,3.28.54s2.16-.36,3.25-.42a3.5,3.5,0,0,1,3.22,1.45,1.58,1.58,0,0,1-.43,2.45,25.74,25.74,0,0,1-3.84,1.36c-1.7.46-3.44.77-5.34,1.18a22.23,22.23,0,0,0-.31,2.83c0,3.15.18,6.29.25,9.43,0,1.62-.55,2.4-1.91,2.73a2.54,2.54,0,0,1-3-1.55,7.65,7.65,0,0,1-.63-2.35c-.2-2-.31-4.09-.42-6.13C501.1,82.33,501.08,81,501.05,79.88Z"/><path d="M627.06,157.24c1-.19,1.6-.13,1.94-.42,2.92-2.5,5.88-5,6.33-9.2.18-1.62.7-3.2,1-4.81a7.33,7.33,0,0,1,3-4.29,1.62,1.62,0,0,1,2.19.35,3.83,3.83,0,0,1,1.09,3.39,43,43,0,0,1-1.41,6,19.61,19.61,0,0,0-1.1,7.66,15.93,15.93,0,0,0,2.06,6.6c1,1.78.8,2.91-.31,3.6a3.23,3.23,0,0,1-4.3-1.09c-.36-.58-.57-1.24-.89-1.84-.7-1.33-1.41-2.64-2.22-4.15a12.83,12.83,0,0,0-2,.71q-3.22,1.77-6.38,3.64a2.09,2.09,0,0,1-2.64-.25,6.32,6.32,0,0,1-2.24-4.26,20.53,20.53,0,0,1-.06-4.5c.56-4.89,1.25-9.77,1.89-14.65a4.41,4.41,0,0,1,1.92-3,2.26,2.26,0,0,1,3.59,1.71,33.86,33.86,0,0,1-.38,4.49c-.41,3.53-.91,7-1.28,10.59A28.86,28.86,0,0,0,627.06,157.24Z"/><path d="M229.24,224.19a14.48,14.48,0,0,1-2,1.19,1.75,1.75,0,0,1-2.42-.89c-.52-.92-.93-1.9-1.48-3.06-1,.43-1.89.75-2.72,1.15a13.57,13.57,0,0,1-6.3,1.53c-2.13-.05-3.45-1-3.7-3.08a22.46,22.46,0,0,1,.09-6.5,33,33,0,0,1,5.48-12.28,17.73,17.73,0,0,1,5.8-5.1,5.15,5.15,0,0,1,7.39,2,10,10,0,0,1,1.29,7.07,18.15,18.15,0,0,1-1.11,4.35c-1.44,2.83-1.43,5.83-1.41,8.82C228.14,220.8,228.76,222.23,229.24,224.19Zm-13.64-4.8a3.16,3.16,0,0,0,3.47-.62,12,12,0,0,0,4.34-6.79c.52-2.82.91-5.66,1.34-8.5a3.21,3.21,0,0,0-.07-.81,1.17,1.17,0,0,0-1.57-.82,5.18,5.18,0,0,0-1.27,1,28.66,28.66,0,0,0-6.36,14.46A12.1,12.1,0,0,0,215.6,219.39Z"/><path d="M259.89,82.28c.76.92,1.2,1.89,1.94,2.26A11.18,11.18,0,0,0,268.94,86c2.68-.51,5.33-1.17,8-1.84,1.45-.37,2.85-1.06,4.39-.69a1.31,1.31,0,0,1,.86.7,1.24,1.24,0,0,1-.33,1.06,20.23,20.23,0,0,1-10.34,4.62,26.85,26.85,0,0,1-11.76-.87c-2.67-.77-4-2.73-4.93-5a23.73,23.73,0,0,1-.86-4.41,1.27,1.27,0,0,1,.1-.8c1.83-3,2.41-6.65,4.71-9.5s5.51-3.9,8.78-4.86a2.44,2.44,0,0,1,1.56.3c1,.49,1.86,1.1,2.82,1.68.12,2.27.23,4.43.36,6.6a3.3,3.3,0,0,1-2,3.3c-3.11,1.43-5.53,4-8.9,5C261,81.29,260.7,81.66,259.89,82.28Zm7.79-12.76c-3.71,1.88-4.54,2.82-4.85,5.14C266,73.28,266.68,72.6,267.68,69.52Z"/><path d="M345.3,73.88a21.2,21.2,0,0,1-2.7,11.06,9.86,9.86,0,0,1-10.34,5,5.92,5.92,0,0,1-4.64-3.65,15.32,15.32,0,0,1-1.06-10,30.64,30.64,0,0,1,3.82-9,39.46,39.46,0,0,0,2.8-5c1-2.13,2.87-2.81,4.91-3.26a2,2,0,0,1,2.12,1,10.71,10.71,0,0,0,3,3.32,4,4,0,0,1,1.13,2.12A22.75,22.75,0,0,1,345.3,73.88Zm-9.65-9.69c.8,2.14.15,4-.87,5.87A50,50,0,0,0,332,76.42a10.21,10.21,0,0,0,.25,7.22c.86,2.31,2.64,2.59,4.43.8a10.2,10.2,0,0,0,2.54-4.61,28,28,0,0,0,.26-12.58,9.29,9.29,0,0,0-1.28-3C337.73,63.49,336.93,63.31,335.65,64.19Z"/><path d="M362.05,207.41l3.2-3.83a27.94,27.94,0,0,0,2.66,1c2.94.77,4.12,3,4.56,5.7a37.78,37.78,0,0,1,.71,7.33c-.16,4.22-.68,8.43-1.11,12.64a13.61,13.61,0,0,1-.63,2.37,2,2,0,0,1-2,1.74c-1,0-1.6-.92-1.51-2.47.21-3.69.44-7.37.76-11.05a19.19,19.19,0,0,0-.89-7.68,12.67,12.67,0,0,0-1.53-2.39c-1.8,1-2.31,2.64-2.8,4.14a31,31,0,0,0-1.75,9.64c0,1.64-.11,3.28-.15,4.92a2.89,2.89,0,0,1-1.61,2.65,2.27,2.27,0,0,1-3.3-1.33,5.9,5.9,0,0,1-.2-1.62c.09-4.36.2-8.73.29-13.1,0-1.63,0-3.26.06-4.89a11.37,11.37,0,0,1,.35-2.8c.64-2,1.39-2.28,3.69-1.34C361.13,207.15,361.39,207.21,362.05,207.41Z"/><path d="M365.71,69.53a25,25,0,0,1-4.89,14.77,9.31,9.31,0,0,1-6.8,4.12l-.4.08c-1.58.18-3.26,1.28-4.72,0a7.85,7.85,0,0,1-2.65-5.4,15,15,0,0,1,.48-4.86,34.76,34.76,0,0,1,8.85-15,9.3,9.3,0,0,1,2.7-1.82c1.67-.8,2.7-.46,3.89,1.08.41.54.65,1.34,1.19,1.64C365.7,65.38,365.66,67.59,365.71,69.53Zm-6.66-2.32a11.54,11.54,0,0,0-1.5,1.4,37.74,37.74,0,0,0-5.11,9.76,17.07,17.07,0,0,0-.79,3.59,6.12,6.12,0,0,0,.5,2c4.08-1.25,6-4.22,7.17-7.59C360.37,73.44,361.43,70.38,359.05,67.21Z"/><path d="M170,128.74c-4.32,3.08-6.17,7.06-5.76,12.13.16,1.9.25,3.82.3,5.73s-.58,2.76-2.06,3a2.67,2.67,0,0,1-3.25-2.36,21.22,21.22,0,0,1-.55-4.05c-.27-6.45.63-12.83,1.34-19.21a4.11,4.11,0,0,1,.8-1.83,2,2,0,0,1,2.89-.44,7.13,7.13,0,0,1,1.4,1.45,10,10,0,0,1,.76,1.64l3-1.61a2.67,2.67,0,0,1,2.75-.13c2,1.24,4,2.49,4.7,4.91,1.42,5.2,2.45,10.42-.28,15.56a13.09,13.09,0,0,0-.77,2.34,2.13,2.13,0,0,1-2.12,1.59c-1.19.12-2-.47-1.85-1.55a38.28,38.28,0,0,1,.87-4A23.27,23.27,0,0,0,173,133C172.79,131.16,172.24,129.5,170,128.74Z"/><path d="M211.74,142.85c.3-.59.64-1.15.89-1.75.87-2.16,1.67-4.35,2.58-6.49a23.36,23.36,0,0,0,2-6.23,4.8,4.8,0,0,1,1.63-3.22c1.68-1.41,3.59-.93,4.13,1.15a8.77,8.77,0,0,1-.33,5.23,150,150,0,0,1-7.73,18.08c-1.12,2.25-5,2.78-6.72.92a8.92,8.92,0,0,1-1.94-3.08,25.48,25.48,0,0,1-1.55-6.36c-.23-4.1-.1-8.22,0-12.32a6,6,0,0,1,.76-2.31,2.24,2.24,0,0,1,2.36-1.28,2.18,2.18,0,0,1,2.09,1.69,16.52,16.52,0,0,1,.49,3.63c0,1.78-.18,3.56-.16,5.34,0,1.5.16,3,.31,4.51.07.77.26,1.54.4,2.31Z"/><path d="M378.56,149.48a35.45,35.45,0,0,1,3.58-14.16c1.31-2.51,3.39-2.53,5.54-2.47a4.88,4.88,0,0,1,4.63,3.45c.24.63.27,1.33.46,2,.34,1.17.77,2.32,1.08,3.5a14.85,14.85,0,0,1,.76,3.54,19,19,0,0,1-2.46,9.43,11.67,11.67,0,0,1-7.24,5.68c-2.29.67-3.59.05-4.61-2.18A18.53,18.53,0,0,1,378.56,149.48Zm9.19-12.16c-2.52,4.1-3,8-3.31,11.87-.14,1.78-.55,3.75.77,5.59,2.26-1.36,2.87-3.41,3.37-5.54C389.48,145.49,389.82,141.76,387.75,137.32Z"/><path d="M520.62,220.31a68.85,68.85,0,0,1-1.84,7.56c-1.63,4.49-7.21,8.16-11.93,8.09a5.51,5.51,0,0,1-5.43-3.64,10.62,10.62,0,0,1-.64-6.06,33.31,33.31,0,0,1,10.94-18.85c1.16-1,3.06-.75,3.42.67.63,2.5,2.29,4.33,3.64,6.34A12,12,0,0,1,520.62,220.31Zm-8.91-6.15a22,22,0,0,0-5.27,10.28,17.51,17.51,0,0,0-.52,4.42,2.38,2.38,0,0,0,3.8,2.06,25.21,25.21,0,0,0,4-3.47,6,6,0,0,0,1.82-4.44,30.84,30.84,0,0,0-.27-4.9A4.56,4.56,0,0,0,511.71,214.16Z"/><path d="M574.24,218.5a2.43,2.43,0,0,0-.78,3.12,4.81,4.81,0,0,0,1.79,2.13,8.35,8.35,0,0,0,5.13,1.17c2.31-.17,4.62-.46,6.94-.68.81-.07,1.67-.19,2.06.83-.11.25-.14.62-.32.72a21.73,21.73,0,0,1-14.64,2.68c-4.53-.75-7.07-4.27-6.55-8.87.44-3.89,2.64-6.85,5.13-9.63a16.08,16.08,0,0,1,9.14-5.1,4.72,4.72,0,0,1,6,4.86c.07,6.13-5.51,11.86-12.55,9.23C575.1,218.78,574.61,218.62,574.24,218.5Zm1.91-4a3.57,3.57,0,0,0,4,.21,7.68,7.68,0,0,0,3.78-3.53,1.42,1.42,0,0,0-1.15-1.82,3.66,3.66,0,0,0-2,.18A9.66,9.66,0,0,0,576.15,214.5Z"/><path d="M439.33,65.12a26.45,26.45,0,0,1,2.25,2.23,2,2,0,0,1-.25,3c-2.59,1.54-2.57,3.88-2.53,6.41.06,4.36-.08,8.73,1.17,12.78a4.23,4.23,0,0,1-.54.92c-2.46,2.2-4.2.83-5-1.46a28.81,28.81,0,0,1-1.22-6c-.31-2.55-.39-5.14-.54-7.39-1.44-1.41-2.94-.77-4.2-1.17A2.37,2.37,0,0,1,427,73.18a2.06,2.06,0,0,1,.67-1.74,7.63,7.63,0,0,1,2.55-1.18A3.3,3.3,0,0,0,432.9,67q.41-5.72.8-11.45a26.92,26.92,0,0,1,.2-2.85,3,3,0,0,1,2.9-2.43,2.88,2.88,0,0,1,2.92,2.37,15.33,15.33,0,0,1,.12,3.25C439.71,58.93,439.51,61.93,439.33,65.12Z"/><path d="M702.94,221.84c0-2.74,0-5.48,0-8.22a10.73,10.73,0,0,1,.38-2.83,2.93,2.93,0,0,1,3.41-2.26,15.15,15.15,0,0,0,4.89.13,8.06,8.06,0,0,1,7.71,3.78,13.57,13.57,0,0,1,2.27,9c-.22,3.42-.61,6.82-1,10.23,0,.45-.57,1.23-.8,1.2a2.4,2.4,0,0,1-1.65-.81,5.38,5.38,0,0,1-.7-2.32c-.21-2-.27-4.1-.44-6.14a28.72,28.72,0,0,0-.52-4.47,5.38,5.38,0,0,0-6.84-4.16,2.1,2.1,0,0,0-1.27,1.36,11.73,11.73,0,0,0-.15,2.85c0,3.71,0,7.41-.07,11.11a7.76,7.76,0,0,1-.65,3.15,2.81,2.81,0,0,1-1.9,1.26,2.13,2.13,0,0,1-2.28-1.42,5.81,5.81,0,0,1-.43-2c-.16-3.14-.26-6.29-.39-9.44Z"/><path d="M494,234.5a13.31,13.31,0,0,1-2.13,1,2,2,0,0,1-2.62-1.34,12.79,12.79,0,0,1-.58-2.8c-.19-2.46-.42-4.92-.39-7.38s-.1-4.64-2.36-6c.14-.61.09-1.13.33-1.38a8.06,8.06,0,0,0,2-6.42c-.15-2.73-.1-5.47-.18-8.21a6,6,0,0,1,1.21-4.23,2.26,2.26,0,0,1,3.81.14,7.5,7.5,0,0,1,1.05,4.73c0,2-.22,4.1-.24,6.15a20.39,20.39,0,0,0,.28,2.68c1.52.75,2.58-.1,3.67-.53s1.95-1,3-1.42a1.9,1.9,0,0,1,2.53.64,2.16,2.16,0,0,1-.3,3c-2.44,1.7-4.56,4-7.81,4.19-.25,0-.49.22-1,.44-.95,1.44-.63,3.25-.6,5C493.73,226.52,493.87,230.34,494,234.5Z"/><path d="M289.3,207.83c-.47.26-1,.36-1.12.64-1.36,2.37-2.74,4.73-2.63,7.63.08,1.92-.08,3.84-.09,5.75a3.94,3.94,0,0,1-1.62,3.16,1.77,1.77,0,0,1-2.79-.51,5.92,5.92,0,0,1-.64-2.32c-.09-1.91,0-3.83,0-5.75,0-3,0-6,0-9a4.6,4.6,0,0,1,1.29-3.75c.48-.41,1.22-.9,1.73-.8,1.35.25,1.95-.52,2.74-1.33,2.16-2.25,4.17-2.1,6.16.3,2.21,2.65,2.93,5.91,3.3,9.14.45,3.8.38,7.65.53,11.48a6.3,6.3,0,0,1-.07,1.23,2.45,2.45,0,0,1-2.41,1.84,1.78,1.78,0,0,1-1.86-1.32,17.11,17.11,0,0,1-.7-3.6c-.14-2.46-.09-4.93-.2-7.39C290.86,211.31,290.79,209.38,289.3,207.83Z"/><path d="M453.27,228.54a22,22,0,0,0-2.42-2.19c-3-2-3.7-5-3.06-8.3a14.45,14.45,0,0,1,1.57-4.65,28.8,28.8,0,0,1,8.92-10,12.56,12.56,0,0,1,1.41-.85c1.57-.75,3.12-1,4.61.24a4.58,4.58,0,0,1,1.72,5.1c-.09.32-.55.54-.89.85a7.35,7.35,0,0,1-1-.76c-2.21-2.41-3.07-2.44-5.12,0-1.31,1.57-2.54,3.22-3.78,4.85a11.6,11.6,0,0,0-2.09,5.72,4.4,4.4,0,0,0,2.41,4.79c1.56.85,3.2,1.56,4.8,2.34,1.12.54,2.22,1.1,2.5,2.53a4.57,4.57,0,0,1-2.94,2.64,74.51,74.51,0,0,1-8.13,2.83,24.54,24.54,0,0,1-5.3.2,1.89,1.89,0,0,1-.4-.08c-1.08-.26-1.87-1.11-1.73-2a1.84,1.84,0,0,1,1.64-1.6c1.35-.21,2.72-.28,4.08-.44A4.37,4.37,0,0,0,453.27,228.54Z"/><path d="M375.1,161.24a3.62,3.62,0,0,1-4,.91,3.48,3.48,0,0,1-2.24-2.74,58.19,58.19,0,0,1-1.79-8.38,98.43,98.43,0,0,1-.23-17.17c.28-3.12.16-6.27.16-9.41a5.54,5.54,0,0,1,1.57-4.48,2.06,2.06,0,0,1,3.2.07A4,4,0,0,1,373,123c0,3.14.17,6.29,0,9.41a154.63,154.63,0,0,0,0,20.87,22,22,0,0,0,.48,4.06A30.38,30.38,0,0,0,375.1,161.24Z"/><path d="M168.59,86.58c-2.43.5-3.31.13-3.79-1.73a30.13,30.13,0,0,1-.94-11.38c.29-2.3.69-4.59,1-6.89a22.74,22.74,0,0,0,.32-6.2c-1.6-.76-3.31.28-5.12-.46a6.39,6.39,0,0,1,.71-2.11c1.78-2.16,4.41-3.16,6.71-4.61,3.39-.08,6.82-.63,10.11.46.88.28,1.45,1.47,2.09,2.17a3.55,3.55,0,0,1-3.69,3c-1.36,0-2.71,0-4.28,0a86.31,86.31,0,0,0-2.37,13.62C168.76,77,168.81,81.65,168.59,86.58Z"/><path d="M167.55,216.52c2.89-1.35,5.21,1.55,8.07.28a10.21,10.21,0,0,0-1.28-2.08c-2-1.88-4-3.79-6.11-5.46a22.9,22.9,0,0,1-4.14-4.5c-2.54-3.36-2.7-7.73.93-11,3.15-2.85,6.56-4.35,10.8-3.58a5.89,5.89,0,0,1,1.89.73,1.47,1.47,0,0,1,.6,1.8,3.14,3.14,0,0,1-3,2.34c-.68,0-1.37-.19-2-.18a8.53,8.53,0,0,0-2.83.25c-3.69,1.41-4.8,3.86-2.49,6.94a35.45,35.45,0,0,0,4.27,4.4c2,1.86,4.08,3.63,6.14,5.43a12.81,12.81,0,0,1,3.26,4.68c.94,2.18.19,3.71-2,4.48-3.68,1.28-7,.18-10.21-1.53C168.39,219,168,217.94,167.55,216.52Z"/><path d="M572.89,157.47a22.15,22.15,0,0,1-14,2.32,6.67,6.67,0,0,1-5.72-5.21,15.93,15.93,0,0,1,1.79-12.25,41.36,41.36,0,0,1,3.53-5,11.55,11.55,0,0,1,6.18-3.81,4.7,4.7,0,0,1,2.8.08,3.57,3.57,0,0,1,1.91,5.63c-1.92,2.85-4,5.56-7.79,6.17a15.72,15.72,0,0,0-2.49.88,33.72,33.72,0,0,0-1,4.31c-.34,3.17,1.3,5.33,4.48,5.74,2.69.35,5.38,1,8.14.39C571.07,156.6,571.57,157,572.89,157.47Z"/><path d="M203,141.28c-.21.92-.18,1.27-.33,1.42a16.93,16.93,0,0,1-14.62,4.7,3.93,3.93,0,0,1-3.5-3,24.7,24.7,0,0,1-.68-4c-.08-.94.22-1.91.12-2.84a12,12,0,0,0-.85-2.46,17.88,17.88,0,0,1,1.48-1.3,15.41,15.41,0,0,0,3.72-3.75c.93-1.33,2.14-2.48,3.19-3.73,1.32-1.56,3.18-2.1,5-2.53,2.23-.5,4.65,2,4.21,4.28A8.29,8.29,0,0,1,198.1,133a26,26,0,0,1-5.85,3.71,4.84,4.84,0,0,0-2.45,6.14,2.46,2.46,0,0,0,1.76,1.55c2.25.76,4.31,0,6.31-.89,1-.45,1.88-1.11,2.87-1.58A15.47,15.47,0,0,1,203,141.28Z"/><path d="M379.58,71.34c-.93,1.44-.67,2.84-.71,4.19-.12,3.56-.18,7.12-.37,10.67a6.29,6.29,0,0,1-.81,2.66,2.17,2.17,0,0,1-2.49,1,2.35,2.35,0,0,1-2.08-1.7c-.27-1.06-.48-2.13-.66-3.21-.66-3.91-1.33-7.82-1.9-11.74a33.67,33.67,0,0,1-.38-5.3c0-2,1.15-2.93,2.92-2.11,1.33.61,2.33.25,3.5,0,2.42-.46,4.85-.84,7.28-1.22a7.4,7.4,0,0,1,1.63,0c1.76.13,3.17,1.11,3,2.15-.19,1.3-1.25,1.73-2.32,2A25.33,25.33,0,0,0,379.58,71.34Z"/><path d="M686.24,223.29c.27-1.88.51-3.91.84-5.93s.74-3.77-.2-5.61a2.39,2.39,0,0,1-.18-.79,2.27,2.27,0,0,1,.82-2.19,2.42,2.42,0,0,1,2.71-.19,4.06,4.06,0,0,1,2.35,3.59,20.64,20.64,0,0,1-.55,4.42c-.81,3.62-1.59,7.21-.71,10.93a3.57,3.57,0,0,1,.06,1.22,3.16,3.16,0,0,1-2.84,2.49c-1.19-.11-1.48-1.15-1.62-2.08C686.63,227.26,686.47,225.36,686.24,223.29Z"/><path d="M691.79,199c1.2.07,2.47,2.32,1.84,3.47a5,5,0,0,1-1.61,1.74,2,2,0,0,1-3-1.91C689,200.46,690.29,198.94,691.79,199Z"/><path d="M475,74.83c0,1.41,0,1.41-1.3,2.77-.1-.21-.34-.48-.28-.62C473.74,76.16,473.81,75.1,475,74.83Z" style="fill:#fff"/><path d="M642.32,208.84c.36.38.78.63.79.89,0,.66-.51.81-1.06.83s-1.25-.47-.94-.84A5.56,5.56,0,0,1,642.32,208.84Z" style="fill:#fff"/><path d="M431.13,214.43c.22,4.82-1.75,8.42-4.06,11.9-1,1.49-2.15,2.77-4.3,2.73a6,6,0,0,1,.53-5.14C425.07,220.3,427.06,216.79,431.13,214.43Z" style="fill:#fff"/><path d="M403,218.27a8.42,8.42,0,0,1,2.83-3.59,1.82,1.82,0,0,1,1.13-.3,1.52,1.52,0,0,1,1,.53,1.15,1.15,0,0,1,0,1.08A6.09,6.09,0,0,1,403,218.27Z" style="fill:#fff"/><path d="M387.25,214c-.43.39-.87.78-1.59,1.45C385.36,214,385.81,213.57,387.25,214Z" style="fill:#fff"/><path d="M789.68,208a11,11,0,0,1,.25,2c-.21,3.14-.43,6.27-.72,9.4a5,5,0,0,1-.63,2.33,16.11,16.11,0,0,1-9.71,7,6.57,6.57,0,0,1-2,.05,2,2,0,0,1-1.83-2.28,6.92,6.92,0,0,1,.18-1.21,18.64,18.64,0,0,1,4-8c1.93-2.13,3.76-4.34,5.72-6.43A7.76,7.76,0,0,1,789.68,208Z" style="fill:#fff"/><path d="M758,221.34c0-4.67,2.53-7.57,5.61-10.07a2.19,2.19,0,0,1,3.51,1.79,5.46,5.46,0,0,1-.68,3.07,13.33,13.33,0,0,1-6.86,5.41C759.2,221.65,758.76,221.46,758,221.34Z" style="fill:#fff"/><path d="M481.78,137.86c1.81,6.3.44,10.9-4.39,14.41a50.16,50.16,0,0,1-5.86,3.69c-1.5.8-2.78-.17-2.59-1.84a13.2,13.2,0,0,1,2.08-5.7A42,42,0,0,1,480.67,138C480.93,137.83,481.41,137.91,481.78,137.86Z" style="fill:#fff"/><path d="M687.09,143.34c-1.09,1.87-2.45,3.35-5,3.55.15-1.42,1.21-1.87,1.93-2.55s1.49-1.59,2.72-1.42C686.81,142.93,686.89,143.11,687.09,143.34Z" style="fill:#fff"/><path d="M594.55,158.55c-.2.2-.37.48-.48.46a.88.88,0,0,1-.54-.4c-.07-.16.08-.41.13-.62Z" style="fill:#fff"/><path d="M599.3,157.62a18.76,18.76,0,0,1-.21-3,20,20,0,0,1,3.23-9.17c1.43-2,2.88-4,4.4-5.91a11.61,11.61,0,0,1,2.06-2c.65-.49,1.56-1,2.2-.31a2.65,2.65,0,0,1,.6,2.21c-1.25,3.44-2,7.08-4,10.26a26,26,0,0,1-5.27,6.2A20.81,20.81,0,0,1,599.3,157.62Z" style="fill:#fff"/><path d="M312.76,136.94c1.44-3,1.44-3,4-4.43C316.56,135,316.28,135.28,312.76,136.94Z" style="fill:#fff"/><path d="M739.62,211.18c.46.74.9,1.15,1,1.62a7.53,7.53,0,0,1-.74,4.78,25.14,25.14,0,0,1-7.6,8.45c-.35.25-1,.14-1.62.22-.56-1.93.35-3.36,1-4.83A23.45,23.45,0,0,1,739.62,211.18Z" style="fill:#fff"/><polygon points="237.2 133.16 237.29 133.43 237.05 133.41 237.2 133.16" style="fill:#fff"/><path d="M283.71,148a11.38,11.38,0,0,1,.2-2.82,24.57,24.57,0,0,1,7.88-11.23,1.63,1.63,0,0,1,1.45-.24,1.59,1.59,0,0,1,.65,1.31c-.56,4.3-2,8.17-5.54,11A7.73,7.73,0,0,1,283.71,148Z" style="fill:#fff"/><path d="M308,71a9.18,9.18,0,0,1,1.78,7.15,4.81,4.81,0,0,1-1,2.2,15.54,15.54,0,0,1-5.46,4.25,1.57,1.57,0,0,1-2.38-1.7,19.93,19.93,0,0,1,5.58-11.18A6.83,6.83,0,0,1,308,71Z" style="fill:#fff"/><path d="M484.19,67.93a3.85,3.85,0,0,1,1.4,3.47,13,13,0,0,1-2,6.95,20.84,20.84,0,0,1-7.9,6.29,3.1,3.1,0,0,1-1.19.17,1.28,1.28,0,0,1-1.39-1.57,24.15,24.15,0,0,1,1.55-4.19,39.5,39.5,0,0,1,7.93-10.29A6.18,6.18,0,0,1,484.19,67.93Z" style="fill:#fff"/><path d="M544.4,145.25c1.32,1.48,1.1,2.95.11,3.85-3,2.69-5.89,5.59-10.83,6.34,2.14-2.05,3.85-3.64,5.52-5.29S542,146.5,544.4,145.25Z" style="fill:#fff"/><path d="M308.61,222.15a6.54,6.54,0,0,1,.14-1.91c1.38-3.12,2.73-6.27,4.29-9.3a24.59,24.59,0,0,1,2.9-3.95c.21-.27.72-.3,1.34-.53,1.43,2.36,2.19,4.77.68,7.28a56.05,56.05,0,0,1-4.55,6.31C312.28,221.42,311.8,221.48,308.61,222.15Z" style="fill:#fff"/><path d="M195.22,65.94c0,4.22-1.79,7.78-3.78,11.21a27,27,0,0,1-3.56,4.46,9.13,9.13,0,0,1-2.28,1.69A1.74,1.74,0,0,1,183,82.14a12.13,12.13,0,0,1-.36-3.23,36.2,36.2,0,0,1,3.05-12.65A26.38,26.38,0,0,1,187.29,63a20.86,20.86,0,0,1,2.32-3.33c1.73-1.91,3.33-1.66,4.3.81A37.46,37.46,0,0,1,195.22,65.94Z" style="fill:#fff"/><path d="M557,217.32c1.69,1.62,1.44,2.75.83,3.62-2.24,3.19-5.1,5.58-9.11,6.18-.33,0-.71-.24-1-.36.06-.35,0-.72.16-.84C551.1,223.35,554.75,221.26,557,217.32Z" style="fill:#fff"/><path d="M266,217.17a6.53,6.53,0,0,1-4.41.85,9.34,9.34,0,0,1,.25-2,27.68,27.68,0,0,1,5.74-8.84.8.8,0,0,1,.82,1.09C267.63,211.21,266.82,214.09,266,217.17Z" style="fill:#fff"/><path d="M215.6,219.39a12.1,12.1,0,0,1-.12-2.1,28.66,28.66,0,0,1,6.36-14.46,5.18,5.18,0,0,1,1.27-1,1.17,1.17,0,0,1,1.57.82,3.21,3.21,0,0,1,.07.81c-.43,2.84-.82,5.68-1.34,8.5a12,12,0,0,1-4.34,6.79A3.16,3.16,0,0,1,215.6,219.39Z" style="fill:#fff"/><path d="M267.68,69.52c-1,3.08-1.69,3.76-4.85,5.14C263.14,72.34,264,71.4,267.68,69.52Z" style="fill:#fff"/><path d="M335.65,64.19c1.28-.88,2.08-.7,2.55.09a9.29,9.29,0,0,1,1.28,3,28,28,0,0,1-.26,12.58,10.2,10.2,0,0,1-2.54,4.61c-1.79,1.79-3.57,1.51-4.43-.8a10.21,10.21,0,0,1-.25-7.22,50,50,0,0,1,2.78-6.36C335.8,68.18,336.45,66.33,335.65,64.19Z" style="fill:#fff"/><path d="M359.05,67.21c2.38,3.17,1.32,6.23.27,9.13-1.22,3.37-3.09,6.34-7.17,7.59a6.12,6.12,0,0,1-.5-2,17.07,17.07,0,0,1,.79-3.59,37.74,37.74,0,0,1,5.11-9.76A11.54,11.54,0,0,1,359.05,67.21Z" style="fill:#fff"/><path d="M387.75,137.32c2.07,4.44,1.73,8.17.83,11.92-.5,2.13-1.11,4.18-3.37,5.54-1.32-1.84-.91-3.81-.77-5.59C384.75,145.31,385.23,141.42,387.75,137.32Z" style="fill:#fff"/><path d="M511.71,214.16a4.56,4.56,0,0,1,3.56,4,30.84,30.84,0,0,1,.27,4.9,6,6,0,0,1-1.82,4.44,25.21,25.21,0,0,1-4,3.47,2.38,2.38,0,0,1-3.8-2.06,17.51,17.51,0,0,1,.52-4.42A22,22,0,0,1,511.71,214.16Z" style="fill:#fff"/><path d="M576.15,214.5a9.66,9.66,0,0,1,4.64-5,3.66,3.66,0,0,1,2-.18,1.42,1.42,0,0,1,1.15,1.82,7.68,7.68,0,0,1-3.78,3.53A3.57,3.57,0,0,1,576.15,214.5Z" style="fill:#fff"/><path d="M395.4,85.46A22.92,22.92,0,0,0,393,83.27c-3.05-2-3.7-5-3.07-8.3a14.94,14.94,0,0,1,1.57-4.65,28.83,28.83,0,0,1,8.93-10,11.87,11.87,0,0,1,1.4-.85c1.58-.75,3.13-1,4.62.24a4.58,4.58,0,0,1,1.72,5.1c-.09.32-.55.54-.89.85a6.93,6.93,0,0,1-1-.76c-2.21-2.41-3.08-2.44-5.12,0-1.32,1.57-2.54,3.22-3.79,4.85a11.68,11.68,0,0,0-2.08,5.72,4.4,4.4,0,0,0,2.41,4.79c1.56.85,3.2,1.56,4.8,2.34,1.11.54,2.22,1.1,2.5,2.53a4.52,4.52,0,0,1-2.94,2.63,72,72,0,0,1-8.14,2.84,23.82,23.82,0,0,1-5.29.19,1.4,1.4,0,0,1-.4-.07c-1.09-.26-1.87-1.11-1.73-2a1.85,1.85,0,0,1,1.64-1.61c1.35-.2,2.72-.27,4.08-.43A4.37,4.37,0,0,0,395.4,85.46Z"/></g></svg>
