<svg xmlns="http://www.w3.org/2000/svg" viewBox="0 0 1366 768"><g id="Layer_14" data-name="Layer 14"><path d="M1181.26,588.31a8.26,8.26,0,0,1,4.63,6.33c.23,1.74.7,3.45,1.07,5.18,1.14-.06,1-.9,1.16-1.44.47-1.72.77-3.49,1.32-5.17a10.34,10.34,0,0,1,1.67-3.23,2.85,2.85,0,0,1,2.1-.93c1.09,0,1.55,1.06,1.67,2.05a10.88,10.88,0,0,1,0,2.85c-.38,2.57-.93,5.12-1.31,7.69s-.62,4.87-.82,7.32a2.29,2.29,0,0,0,1.46,2.5c3.9-2.09,6-5.48,6.87-9.88.43-2.27,1.06-4.51,1.63-6.75.1-.39.25-.91.54-1.06a3.5,3.5,0,0,1,1.86-.46,1.54,1.54,0,0,1,1,1.11,23.66,23.66,0,0,1,0,3.67c-.28,4.55-.12,9,1.65,13.33.69,1.68.76,1.78,2.78,3.53,2.36-.73,3.3-2.8,3.81-4.88,1.21-5,1.86-10-.35-14.9a6.07,6.07,0,0,1-.42-1.57,1.29,1.29,0,0,1,1.4-1.17,3.49,3.49,0,0,1,1.75.91,12,12,0,0,1,1.83,3.59,30.28,30.28,0,0,1-.17,15,10.8,10.8,0,0,1-6.07,7.36,4.78,4.78,0,0,1-5.7-.73,23.15,23.15,0,0,1-2.8-3.49c-.69-1-1.26-2-2-3.29-1,.83-1.83,1.55-2.71,2.12a21.65,21.65,0,0,1-3.86,2.24c-3.16,1.22-5.18.42-6.92-2.48-.39-.66-.73-1.36-1.26-2.35a7.68,7.68,0,0,0-1.25,1.37c-1.71,3.4-4.78,4.74-8.25,5.43a4.71,4.71,0,0,1-4.75-1.77,10.84,10.84,0,0,1-2.37-5.17c-1.39-7.51.64-14.08,5.63-19.79a6.2,6.2,0,0,1,1.64-1.15C1178.72,589.66,1179.8,589.1,1181.26,588.31Zm-.25,5.1c-4.8,5.1-6.44,10.59-5.21,16.94.22,1.18.4,2.67,1.91,2.79,1.34.1,2.15-1,2.8-2.11,3-5,3.3-10.3,1.6-15.78A12.51,12.51,0,0,0,1181,593.41Z"/><path d="M667.56,648.11a17.72,17.72,0,0,0,2.06-1.28c.93-.81,1.78-1.7,2.66-2.56,2.77-2.72,6.19-3.24,9.88-3,1.79.11,2.9,1.39,4.39,2.26,1.49-1.37,1.49-3.23,1.9-4.9a4.2,4.2,0,0,1,3.69-3.34c1.73,1.72,1.71,3.73,1.3,5.79s-.87,4-1.28,6a6.35,6.35,0,0,0,.06,3.84,1.34,1.34,0,0,0,1.82-.83,23.27,23.27,0,0,0,3.37-10,17,17,0,0,1,1-4.37,2,2,0,0,1,2.34-1.2,1.69,1.69,0,0,1,1.53,1.67c.14,2.17.13,4.35.18,6.53.07,3.42.1,6.84.26,10.25a13.78,13.78,0,0,0,.7,3.2,10.16,10.16,0,0,0,.92,1.64l3.89-2.8c.34.36.67.55.65.73a6.55,6.55,0,0,1-5.83,6.35,2.19,2.19,0,0,1-2.39-1.22,28.33,28.33,0,0,1-1.42-3.83c-.33-1-.54-2.07-.9-3.48a19,19,0,0,0-1.76,1.34,10.45,10.45,0,0,1-5.39,2.78c-2.47.53-3.88-.39-4.44-2.93-.21-.93-.23-1.9-.4-2.84a16.2,16.2,0,0,0-.57-1.81c-6,4.45-12,8-19.7,7.18a13.67,13.67,0,0,0-1.46-2.41c-1.86-2.06-2.37-4.5-2.56-7.18a56.06,56.06,0,0,1,.93-15.94,35.18,35.18,0,0,1,2.13-6.17,2.31,2.31,0,0,1,3.1-1.2,2.49,2.49,0,0,1,1.58,3,25.27,25.27,0,0,1-.88,3.17c-1.69,5-1.93,10.19-1.82,15.41A13.17,13.17,0,0,0,667.56,648.11Zm2.92,4.44c4-.22,6.75-1.86,9.39-3.75,1.09-.78,1.49-1.92,1-2.41a2.47,2.47,0,0,0-2.68-.38,6.7,6.7,0,0,0-1.89.79A22.32,22.32,0,0,0,670.48,652.55Z"/><path d="M1143.27,680l3-1.44c1.09.88.65,1.86.19,2.63a10.8,10.8,0,0,1-5.39,4.23,2.1,2.1,0,0,1-2.61-1.44,28.07,28.07,0,0,1-2-7.92c-.1-2.18-.34-4.37-.64-6.53a17.45,17.45,0,0,0-.94-2.81,5.55,5.55,0,0,0-2.79,4.54,21.66,21.66,0,0,1-3.55,8.67,8.59,8.59,0,0,1-1.24,1.62c-1.73,1.71-3.49,1.36-4.49-.87-.39-.85-.69-1.74-1.12-2.84-1.79.87-3.37,1.62-4.93,2.4a15.48,15.48,0,0,1-8,1.4c-5.15-.28-8.72-5-8.72-9.74a14.06,14.06,0,0,1,6.89-12.33c.8-.52,1.65-1,2.5-1.42a5.57,5.57,0,0,1,7.93,2.48c.32.59.55,1.24.79,1.78-1.55,6.55-6.73,8.15-12.27,9.08-.82,2.12,0,3.69,1.16,5.06a4.44,4.44,0,0,0,4,1.73,25.86,25.86,0,0,0,4.76-1.09c1.15-.39,2.16-1.18,3.29-1.66,2.7-1.14,3.89-3.3,4.29-6,.38-2.57.87-5.13,1.14-7.71a4.85,4.85,0,0,1,2-3.43c1.29-1,2.36-.94,3.56.33a10.92,10.92,0,0,1,.9,1.26c.37,0,.67.15.89.06,4-1.53,4.85-1.35,7,2.23a13.39,13.39,0,0,1,1.7,4.56c.53,3.1.73,6.25,1.11,9.37C1141.9,677.45,1141.66,678.93,1143.27,680Zm-34.58-15c2,.24,3-.19,3.71-1.55a.42.42,0,0,0-.07-.39c-.19-.17-.44-.43-.65-.41A3.15,3.15,0,0,0,1108.69,665Z"/><path d="M885.08,608l-2.72,1.17a3.64,3.64,0,0,1-2.42-3.21,70.15,70.15,0,0,1-.57-12.29c0-1.47.41-3-.53-4.61-3.22.44-6,2.07-9.05,3a29,29,0,0,0,0,10.47,57.43,57.43,0,0,0,1.81,7.14c.47,1.62.43,2.54-.37,2.91-1.23.56-3.15.37-3.76-.65a16.37,16.37,0,0,1-2-4.45c-.73-3-1.15-6.18-1.69-9.28a5.56,5.56,0,0,1-.08-1.22,5,5,0,0,0-2-4.66,25,25,0,0,0,1.78-4.2,30.32,30.32,0,0,0,.26-4.5c.1-1.5.33-3,.41-4.49a8.89,8.89,0,0,1,2.39-5.11,1.58,1.58,0,0,1,1.82-.59,1.9,1.9,0,0,1,1.52,1.73c0,.95,0,1.91,0,2.87v8.33c3.34.09,5.86-2.25,9.1-2.3.13-1.25.29-2.17.3-3.09,0-1.37-.1-2.74-.1-4.1a2.05,2.05,0,0,1,1.51-2.19,2.66,2.66,0,0,1,3.24,1.07,10.34,10.34,0,0,1,1,3.49c.25,3,.3,6,.42,9,0,.66,0,1.32,0,1.89,1,.56,1.35-.42,1.94-.56a4.87,4.87,0,0,1,2.38-.26c2.24.75,4.44,2,5.25,4.24,1.9,5.13,1.7,10.46.39,15.73a1.56,1.56,0,0,1-1.22.85c-.59-.05-1.5-.4-1.63-.83a24.9,24.9,0,0,1-.91-4.4c-.24-1.76-.31-3.54-.54-5.31a4.38,4.38,0,0,0-1.86-3.33,8.75,8.75,0,0,0-1.69,1.56,14.63,14.63,0,0,0-2.23,7C885.24,605.82,885.17,606.77,885.08,608Z"/><path d="M1054.42,610.3c-1.42,1.15-2.65,2.2-3.94,3.18a16.73,16.73,0,0,1-9,3.6c-3.22.24-4.86-1.19-5-4.51a16.25,16.25,0,0,1,1.91-8.73c1.86-3.2,4-6.25,6-9.29a6.48,6.48,0,0,1,2.16-1.82c2.13-1.22,4.33-2.33,6.78-3.63a24.84,24.84,0,0,0,.75-7.81,19.24,19.24,0,0,1,1.46-6.78c.58-1.7,2.29-1.9,3.58-.56a6.83,6.83,0,0,1,2.07,3.89,56.47,56.47,0,0,1-.51,20.41,30.31,30.31,0,0,0-.89,5.66,14,14,0,0,0,1.57,7.15c.62,1.19,1.14,2.44,1.67,3.57a5.15,5.15,0,0,1-3.56,2.32C1056.44,616,1056.91,612.35,1054.42,610.3Zm-11.64,1.41c.6-.21,1.11-.34,1.58-.56,2.9-1.39,4.89-3.81,7-6.12a9.2,9.2,0,0,0,2.19-8,1.5,1.5,0,0,0-2.67-1,30.08,30.08,0,0,0-8.1,11.59A4.56,4.56,0,0,0,1042.78,611.71Z"/><path d="M1093.74,680.08c-3.8,1.66-4.63,1.46-6.27-1.2-.35-.56-.64-1.15-1.11-2a20.91,20.91,0,0,0-2.32,1.83c-2.5,2.64-5.73,3.66-9.17,4.15-3,.42-4.95-1.16-5.37-4.23a14.55,14.55,0,0,1,2.31-9.41c2.59-4.42,5.82-8.32,10.73-10.36,1.36-.57,2.82-.9,4.6-1.45a13.82,13.82,0,0,0,.81-2.31c.42-2.15.83-4.31,1-6.48.34-3.47,2.06-6.49,3-9.76a2.42,2.42,0,0,1,.73-1,2,2,0,0,1,3.28.88,1.89,1.89,0,0,1,.08.4c0,5.73.75,11.44-.52,17.17-.72,3.27-1.93,6.59-.93,10.09a2.52,2.52,0,0,1-1.17,2.87c-1.36.86-1.57,2.1-1.55,3.54A12.42,12.42,0,0,0,1093.74,680.08Zm-18.07-1.48a7.57,7.57,0,0,0,1.72-.58,39.34,39.34,0,0,0,7.65-7.38,9,9,0,0,0,1.54-3.71c.25-1.12.61-2.63-.7-3.33s-2.33.33-3.38.94a1.11,1.11,0,0,0-.32.25c-2.53,2.87-5.1,5.73-6.45,9.4A5.32,5.32,0,0,0,1075.67,678.6Z"/><path d="M717,645a18.27,18.27,0,0,0-.21,3c.31,3.95.66,7.9,1.1,11.83.23,2.08-.09,2.82-1.87,3.52a2.08,2.08,0,0,1-2.26-.45,4.84,4.84,0,0,1-1.51-3.26,95.16,95.16,0,0,1-1.1-17.6c0-2.47.14-4.93.28-7.39.13-2.3.3-4.61.57-6.9a3.12,3.12,0,0,1,.88-1.76,2.57,2.57,0,0,1,3.18-.35c1.56,4.35.81,9.07,1.33,13.74,1.88.22,3.31-.66,4.79-1.24,3.17-1.26,3.17-1.28,6.35-1a26.94,26.94,0,0,0-.27-6.53,3.45,3.45,0,0,1,1.33-3.63,1.7,1.7,0,0,1,2.55.19,12.28,12.28,0,0,1,1.73,3.64,41.71,41.71,0,0,1,.61,5.71c.12,1.47.16,3,.24,4.63,1,0,1.8,0,2.56,0,1.22-.1,2.44-.38,3.66-.37,1.41,0,2.19.87,2.44,2.43a10.49,10.49,0,0,1-5.53,2.39c-3.1.32-3.59,1.33-3.63,4.35,0,4,.09,7.93.14,11.89,0,.4-.08.81-.14,1.48l-3,1.31c-1.82-1-2-2.55-2.15-4-.18-2.46-.21-4.92-.24-7.39-.06-4-.07-7.92-.11-12.2-2.13.86-3.93,1.66-5.78,2.31S719.3,644.32,717,645Z"/><path d="M1160.32,610.24a16.5,16.5,0,0,1-8,5.81,17.89,17.89,0,0,1-2.76.75,4,4,0,0,1-4.88-3.28,9.16,9.16,0,0,1,0-3.65c1.81-8.75,6-15.81,14.28-20a5.47,5.47,0,0,0,.83-.75c.13-2,.36-4.14.42-6.32.07-2.82,1.36-5.28,2.18-7.88a2.3,2.3,0,0,1,1.12-1.14,1.81,1.81,0,0,1,1.5-.08,4.81,4.81,0,0,1,2.3,3.7c.18,7.8.85,15.62-1.63,23.26-1,3.16.11,9.38,2,12.26.51.78,1.1,1.52,1.54,2.13-.37,1.53-1.4,1.49-2.34,1.53a4.06,4.06,0,0,1-3.32-1.35,15.23,15.23,0,0,1-1.35-2.06Zm-9.92,1.25c.85-.09,1.17,0,1.37-.16a18.9,18.9,0,0,0,7.26-8.67,8,8,0,0,0,.07-6c-2.48,1.07-3,1.59-5.29,5A20.78,20.78,0,0,0,1150.4,611.49Z"/><path d="M771.07,599c-2.74,1.72-5.22,3.13-7.54,4.77-2,1.41-4.26,1.81-6.53,2.24-1.59.31-2.57-.29-3.26-1.84a11.34,11.34,0,0,1,.11-9.55,29.72,29.72,0,0,1,8.27-11.08c2.53-2.09,3.88-2.35,8.16-1.59a11.33,11.33,0,0,0,.68-2.19c.37-3.68.63-7.36,1-11a13.13,13.13,0,0,1,.6-3.19,1.8,1.8,0,0,1,3-.58A5.17,5.17,0,0,1,777,570.2a25.52,25.52,0,0,0-.68,11.37,7,7,0,0,1-.12,2.45,54.24,54.24,0,0,0,.08,15.94c.25,2,.5,4.07.72,6.11a2.59,2.59,0,0,1-.11,1.21c-.14.35-.45.83-.75.88a1.83,1.83,0,0,1-1.45-.29,8.52,8.52,0,0,1-1.42-2.44C772.53,603.52,771.92,601.56,771.07,599Zm-12.38.76c.67.13,1,.31,1.16.21a22.41,22.41,0,0,0,8-8,4.08,4.08,0,0,0,.11-3.58,1.42,1.42,0,0,0-2-.81,5.68,5.68,0,0,0-1.66,1.16C761.72,592,759.38,595.31,758.69,599.79Z"/><path d="M982.71,607.83c-.65.84-1,1.35-1.44,1.85a43.86,43.86,0,0,1-3.1,3.8c-1.86,1.83-4.09,1.54-5.51-.7a7.12,7.12,0,0,1-1.17-3c-.42-5-.69-10.09-1-15.15a7.29,7.29,0,0,1,.23-2,2.3,2.3,0,0,1,4.32-.6,7.76,7.76,0,0,1,.78,2.7c.27,3.14.39,6.28.62,9.42.06.9-.29,1.94.92,2.79a6.33,6.33,0,0,0,1-1.54c.72-2.35,1.34-4.73,2-7.09a17.07,17.07,0,0,1,1.06-3.09,2.15,2.15,0,0,1,3.49-.4,5.57,5.57,0,0,1,1.61,3.24c.2,2,.49,4.08.78,6.1a11.32,11.32,0,0,0,2.27,6.06c1.08,1.26,2.53,1.25,3.4-.18a11,11,0,0,0,1.37-3.38c1-4.84.66-9.53-2-13.84-1-1.58.06-2.74,1.6-2.72a3.77,3.77,0,0,1,3.83,2.45c2,4.61,3.2,9.34,2.5,14.37-.62,4.54-2.91,7.82-7.38,9.49-2.77,1-6.7-.57-7.69-3.06C984.54,611.57,983.67,609.89,982.71,607.83Z"/><path d="M893.17,646.93l3.11,1.67a33.46,33.46,0,0,1-2.46,16.06,19.08,19.08,0,0,1-5.14,6.32,8.19,8.19,0,0,1-5.81,1.62,3.37,3.37,0,0,1-2.84-1.42c-1-1.46-1.91-3-2.78-4.52a23.59,23.59,0,0,1-1.09-2.58,22.24,22.24,0,0,1-1.51,1.73,37.53,37.53,0,0,1-4,3.47,2.68,2.68,0,0,1-4.17-1.07,8.85,8.85,0,0,1-1-3.08,64.26,64.26,0,0,1-.55-8.19,54.24,54.24,0,0,0-.33-9,7,7,0,0,1,0-2A2.33,2.33,0,0,1,866.5,644a2.17,2.17,0,0,1,2.48,1,8.92,8.92,0,0,1,1.39,4.67c0,2.46,0,4.93,0,7.39v4.79c1.12.47,1.49-.14,1.69-.8,1.19-3.92,2.93-7.69,3.26-11.84a4,4,0,0,1,2.05-3.49c1.37.21,2.14,1.37,3.29,2.43-.13,2.5-.26,5.09-.42,7.67a21,21,0,0,0,.88,8.12c1.42,4.23,3.9,4.71,6.83,1.43a16.3,16.3,0,0,0,3.93-11,2.45,2.45,0,0,0-.72-1.8c-1.35-1-1-2.17-.26-3.22A20.7,20.7,0,0,1,893.17,646.93Z"/><path d="M1042.12,666.26a8.17,8.17,0,0,1-2.29,3.82c-.61.7-1.11,1.51-1.71,2.33a5.94,5.94,0,0,0,6.28,2.3,50,50,0,0,0,5.87-1.78c.87-.27,1.75-.49,3.19-.88-.41,1-.47,1.52-.78,1.78a20.11,20.11,0,0,1-14.42,4.92,4.38,4.38,0,0,1-3.26-1.47c-.63-.7-1.37-1.29-2.16-2-.84.26-1.61.47-2.36.74a20.47,20.47,0,0,1-8.11,1,7.65,7.65,0,0,1-6.78-4.57c-2.24-4.4-1.57-8.75,1.52-12.6,2.69-3.36,6.31-5.16,10.06-6.86a4.26,4.26,0,0,1,4.6.8,3.09,3.09,0,0,1,.19,4.7,38.13,38.13,0,0,1-3.17,2.26l-1.19-1.59c-3.12.32-5.06,2.34-6.67,4.52a6.11,6.11,0,0,0-.27,7c1.3,2.11,3.64,2.82,6.13,2.55a11.79,11.79,0,0,0,5-1.78c1.28-3,2.34-5.62,3.56-8.2,1.78-3.74,5.09-6.05,8.26-8.43a4.26,4.26,0,0,1,4.29-.71c1.11.47,1.83,1.71,1.31,2.64-1.26,2.24-2.22,4.74-4.59,6.16l.09.13c0-.72.1-1.45.18-2.63a16.19,16.19,0,0,0-5,6.22l2.34-.28Z"/><path d="M1274.63,683.36c-.84.71-1.21,1.07-1.63,1.37-3.26,2.31-5.24.73-5.93-2.51-.57-2.68-.8-5.42-1.17-8.13a36.42,36.42,0,0,0-.51-3.65,11.48,11.48,0,0,0-1.24-2.39c-.68.71-1.28,1.09-1.51,1.63-1.35,3.14-2.85,6.23-3.49,9.63a4.73,4.73,0,0,1-1.37,2.9,2.34,2.34,0,0,1-3.58-.32,5,5,0,0,1-.93-3.49c.15-3.43.15-6.87.57-10.26.73-5.84,1.75-11.64,2.62-17.46.25-1.63.38-3.27.57-4.9a5.2,5.2,0,0,1,1.77-3.59c1.44-1.19,3.62-.59,3.81,1.24a26.91,26.91,0,0,1-.07,6.53c-.45,3.25-1.29,6.44-1.88,9.68a18.64,18.64,0,0,0,0,3c.85-.33,1.35-.49,1.81-.71,3.21-1.49,5.61-.63,6.89,2.6a24.43,24.43,0,0,1,1.53,7.63c.12,2,.6,4.07.68,6.11S1272.76,681.81,1274.63,683.36Z"/><path d="M1100.12,605c-.54,1.16-.86,1.88-1.22,2.59a11.48,11.48,0,0,1-1.19,2.15,5.84,5.84,0,0,1-5,2.49c-2-.18-2.77-2-3.35-3.74a32.39,32.39,0,0,1-1.6-12.55,6,6,0,0,1,2.27-4.66,1.94,1.94,0,0,1,3.23,1,20.21,20.21,0,0,1,.42,3.65c.12,2.19.14,4.38.26,6.57a11.49,11.49,0,0,0,.35,1.8c1.21.19,1.4-.6,1.58-1.19.57-1.83,1-3.71,1.56-5.53.7-2.18,1.66-3.1,2.92-3a3.88,3.88,0,0,1,3.17,2.88,42.11,42.11,0,0,1,1.25,4.76,13.35,13.35,0,0,0,4,6.92,3.26,3.26,0,0,0,2.21-2.92c.5-4.87.25-9.6-2.9-13.7a5.2,5.2,0,0,1-.51-.65,2.44,2.44,0,0,1,.63-3.28,2.67,2.67,0,0,1,3.34.67,17.19,17.19,0,0,1,2,3.59c1,2.68,2,5.4,2.8,8.15a13.55,13.55,0,0,1-.47,8.09c-1.09,3.32-3.84,4.85-7,5.63a3.05,3.05,0,0,1-3.29-1.21c-1.31-1.74-2.49-3.58-3.68-5.4C1101.33,607.3,1100.87,606.34,1100.12,605Z"/><path d="M932.63,663.32a10.62,10.62,0,0,0,3.69-4.48c1.18-2.75,2.16-5.59,3.15-8.42a5.56,5.56,0,0,1,2.58-3.38l2.69,2.23c-.94,7.07-3.61,13.57-5.52,20.24s-4.57,13.07-6.94,19.7l2.61.62a10.14,10.14,0,0,1-1.23,1.79c-1.42,1.24-2.46,2.94-4.26,3.67a3.07,3.07,0,0,1-2.31-3.15,23.69,23.69,0,0,1,.73-4.82c1.56-5.38,3.26-10.72,4.89-16.09a16.23,16.23,0,0,0,.31-2c-1.42-.19-2.46,1.19-3.72.21a5,5,0,0,1-2.15-3.8,45.74,45.74,0,0,1,.14-6.52,55.8,55.8,0,0,1,1.37-7.25,13,13,0,0,1,1.53-3.3,2,2,0,0,1,2.44-1,1.93,1.93,0,0,1,1.22,1.95,18.6,18.6,0,0,1-.79,7.29A10.07,10.07,0,0,0,932.63,663.32Z"/><path d="M1226.49,678.92c-1.32.22-2.38.44-3.45.55a2.85,2.85,0,0,1-2.8-1.34c-1.17-1.72-2.19-3.47-2.15-5.65.06-2.88,0-5.76.11-8.63a5.63,5.63,0,0,1,.9-2.64,2.07,2.07,0,0,1,3.69-.05,5.54,5.54,0,0,1,1,3.48c0,2.05-.12,4.11-.1,6.16,0,1.22,0,2.51,1.59,3.23a7,7,0,0,0,4.38-3.83c.92-1.82,1.58-3.77,2.43-5.63a16.92,16.92,0,0,1,1.75-3.18,1.8,1.8,0,0,1,3,.48,5.8,5.8,0,0,1,.17,4c-.75,2.92-1.37,5.89-2.38,8.71-2,5.56-2.84,11.42-4.69,17-1.33,4-2.81,8-4.19,12a6.08,6.08,0,0,1-3.2,3.56,1.65,1.65,0,0,1-2.09-.75,4.39,4.39,0,0,1-.07-4c2.63-6.2,4-12.79,6-19.18C1226.84,682,1227.35,680.69,1226.49,678.92Z"/><path d="M1301.32,668.64c1.72-.53,2.88-.92,4-1.24a2.59,2.59,0,0,1,2.88,1.08,2,2,0,0,1-.21,2.94,21,21,0,0,1-3.89,2.19,29.82,29.82,0,0,1-3.7,1,4.85,4.85,0,0,0-1.32,3.62c-.1,2.86-.12,5.73-.15,8.6a2.88,2.88,0,0,1-3.08,3,1.89,1.89,0,0,1-1.33-.79,6.89,6.89,0,0,1-1-2.64c-.17-2.18-.16-4.37-.17-6.55,0-.95.18-1.91.22-2.86a3.15,3.15,0,0,0-1.05-2.53c-2-2-2.06-2.62.17-4a3.6,3.6,0,0,0,1.8-2.95c1.06-7.17,2.22-14.32,3.26-21.5.37-2.56.49-5.16.78-7.74a14.27,14.27,0,0,1,.6-3.19,2.55,2.55,0,0,1,2.49-1.8,2.77,2.77,0,0,1,2.7,2.11,9.58,9.58,0,0,1,.29,2.44,44.74,44.74,0,0,1-1.22,11,88.63,88.63,0,0,0-2.66,17A12.93,12.93,0,0,0,1301.32,668.64Z"/><path d="M915.87,607.21a15.75,15.75,0,0,0-4.88,2,15.5,15.5,0,0,1-6.32,1.5,3.23,3.23,0,0,1-3.06-1.69,7.22,7.22,0,0,1-1.24-4.67c.93-7.38,3.86-13.62,10.45-17.65a8.64,8.64,0,0,1,2.61-1.14c2.12-.44,4.11-.14,5.55,1.69,1.25,1.6,2.45,3.24,3.75,5a52.86,52.86,0,0,1-1.8,6.77c-1.55,3.88-.13,7.25,1.47,10.58a4.27,4.27,0,0,0,2.23,1.6,15.71,15.71,0,0,0,2.92.66,1.4,1.4,0,0,1-.49,2,5.87,5.87,0,0,1-9-1.93C917.23,610.49,916.66,609,915.87,607.21Zm-9.47-1.38a7.55,7.55,0,0,0,4.84-2.48,35,35,0,0,0,3.37-4.58,9.78,9.78,0,0,0,1.52-6.63,1.52,1.52,0,0,0-2.41-1.15,6.9,6.9,0,0,0-1.24,1,25.67,25.67,0,0,0-5.78,10.2A20.15,20.15,0,0,0,906.4,605.83Z"/><path d="M1190.18,682a2.91,2.91,0,0,1-2.71,2.33,2.41,2.41,0,0,1-2.74-1.34c-.52-1.11-.81-2.32-1.24-3.46-.22-.6-.53-1.17-.91-2-1.4,1.09-2.58,2-3.73,2.91a14.7,14.7,0,0,1-8.33,3.05c-3.29.26-5-1.37-4.59-4.64a19.85,19.85,0,0,1,1.69-5.87,28.71,28.71,0,0,1,7.33-9.76,31.61,31.61,0,0,1,5.79-3.8,8.27,8.27,0,0,1,3.18-.53c1.48-.13,2.95.16,4.42-.49a1.82,1.82,0,0,1,2.49,1.43,8.26,8.26,0,0,1,.06,3.21c-.71,3.47-1.56,6.91-2.36,10.36l-.09.4C1188,676.77,1187.54,679.75,1190.18,682Zm-18.75-3a9,9,0,0,0,1.93-.28,26,26,0,0,0,10-10.07,3,3,0,0,0-.31-3.88,4.81,4.81,0,0,0-3.88,1.84c-2.47,2.74-5,5.47-6.56,8.88A31.35,31.35,0,0,0,1171.43,679Z"/><path d="M925.69,667.34c-1.62,4.62-4.6,5.67-8,5.9a3.35,3.35,0,0,1-3-1.91c-.65-1-1.21-2.09-1.94-3.38a23.39,23.39,0,0,0-2.78,1.94c-2,1.89-4.5,2.51-7.1,2.81-2.07.23-3-.52-3.56-2.53a8.94,8.94,0,0,1,.42-5.65c2.49-6.87,5.8-13.23,11.49-18.12a6.33,6.33,0,0,1,5.16-1.83,6.64,6.64,0,0,1,3.31,7c-.28,2.43-.68,4.85-1.09,7.27-.28,1.61-.73,3.2-1,4.81a7,7,0,0,0,1,4.73c.69,1.2,1.5,1.57,2.72,1.06S923.67,668.29,925.69,667.34Zm-21,.15c2.5-.32,3.17-.58,4.5-2.29a26.05,26.05,0,0,0,5.72-14.57c0-.13-.38-.29-.7-.52-4.39,3.72-6.55,8.89-9,13.9C904.75,665.08,904.2,666.22,904.71,667.49Z"/><path d="M1000.75,669.26a21.5,21.5,0,0,0-2.22,1.25,13,13,0,0,1-8.14,2.32,4.63,4.63,0,0,1-4.81-5,18,18,0,0,1,1.2-5.56,20.63,20.63,0,0,1,9-10.31c.83-.48,1.54-1.16,2.37-1.62a5.21,5.21,0,0,1,6.14.31c1.19.91,2.37,1.83,3.59,2.79a6.15,6.15,0,0,1,0,6.54c-1.26,2.08-1.26,4.44-1.52,6.75-.38,3.23,1,5.54,3.68,7.23.63.41,1.3.77,2.17,1.28-.59.45-.87.85-1.18.88-4.31.35-5.81.6-8.8-4.23C1001.74,671.1,1001.32,670.26,1000.75,669.26Zm-.43-14c-4.83,2.36-7.23,6.16-9,10.53a2.23,2.23,0,0,0-.09,1.2c.1.49.25,1.16.61,1.37a1.77,1.77,0,0,0,1.5-.09,38.32,38.32,0,0,0,8-6.87,3.09,3.09,0,0,0,.5-3.76C1001.51,657,1001,656.36,1000.32,655.31Z"/><path d="M722,580.37c5-.43,4.37.55,4.81,4.09.22,1.76.06,3.56.19,5.34.23,3.28.55,6.55.82,9.82a11.5,11.5,0,0,1,.05,2,2.31,2.31,0,0,1-2,1.84c-.89.14-1.67-.51-1.93-1.72s-.39-2.43-.64-3.64c-.17-.77-.46-1.52-.68-2.24-1.87-.29-3,.74-4.22,1.62A18,18,0,0,1,711,600.8c-2.05.36-2.76,0-3.52-1.87a11.07,11.07,0,0,1-.75-2.76,24.09,24.09,0,0,1,3.79-16.48,13.47,13.47,0,0,1,3.39-3.51c2-1.47,4.11-1,5.73,1C720.37,578.12,721.07,579.14,722,580.37Zm-10,15.43c.8-.14,1.29-.08,1.54-.31,1.83-1.62,3.63-3.27,5.38-5a2.09,2.09,0,0,0,.63-1.46c-.25-3-.83-5.87-3.36-8.27A19.43,19.43,0,0,0,711.93,595.8Z"/><path d="M1230.6,595.3c.52-.29,1-.53,1.43-.82,4.31-2.87,8.69-1.68,10.7,3.07a24.38,24.38,0,0,1,1.45,5.55c.59,3.5,1.21,7,.71,10.61a35.14,35.14,0,0,0,.11,4.91c0,1.3-.33,1.53-2.47,1.92-1.15-1-1.13-2.44-1.35-3.76-.75-4.32-1.44-8.65-2.12-13a7.18,7.18,0,0,0-1.74-4.08,1.45,1.45,0,0,0-2.43.11,17.69,17.69,0,0,0-1.44,4.22c-.34,1.88-.31,3.83-.58,5.72s-.7,3.76-1.08,5.64a5.34,5.34,0,0,1-.38,1.17,3.56,3.56,0,0,1-3.36,1.88,3,3,0,0,1-2.27-2.59,18.26,18.26,0,0,1-.31-2.86c0-4.38,0-8.75-.09-13.13a34.27,34.27,0,0,0-.63-4,2.29,2.29,0,0,1,.93-2.53,2.39,2.39,0,0,1,2.72,0A21.86,21.86,0,0,1,1230.6,595.3Z"/><path d="M938.24,593.81c1.81-.86,3.64-1.37,5.15-2.57a15.71,15.71,0,0,1,1.27-1,3,3,0,0,1,3.73.47,3.1,3.1,0,0,1-.21,3.81,8.49,8.49,0,0,1-4.07,2.65c-2,.55-3.87,1.25-5.76,1.86-.37,4.71.43,9.07,2.78,15a6.17,6.17,0,0,1-1.22,1.4,2.31,2.31,0,0,1-3.3-.34A9.34,9.34,0,0,1,935,612.7c-1.47-3.68-3.15-7.32-3-11.43a6.91,6.91,0,0,0,0-1.64c-1.16-4.76-.29-9.55-.31-14.33,0-3.93,1.35-7.51,2.48-11.15a1.89,1.89,0,0,1,1.85-1.37,2.08,2.08,0,0,1,2.33,1.31,11,11,0,0,1,.43,3.6c-.23,3.83-.64,7.65-.93,11.47C937.72,590.62,937.41,592.12,938.24,593.81Z"/><path d="M849.28,666.92a8.1,8.1,0,0,1-1.55,1.06c-2.48.91-3.58.46-4.56-1.85-.37-.88-.6-1.82-.93-2.72-.19-.48-.47-.93-.84-1.68a14.53,14.53,0,0,0-1.74,1.16,13.91,13.91,0,0,1-7.85,3.23c-2.66.36-4.28-1-4.18-3.74a21.2,21.2,0,0,1,1-6.46,29.19,29.19,0,0,1,9-13c3.15-2.51,5.92-2.09,8.33,1.2,1.6,2.18,1.61,4.6,1.31,7.07a35.47,35.47,0,0,1-1,4A12,12,0,0,0,849.28,666.92Zm-15.85-5.49c1.25-.62,2.13-.8,2.61-1.34a64.55,64.55,0,0,0,4.65-5.67A7.64,7.64,0,0,0,842,649a7.74,7.74,0,0,0-.69-1.68c-2.6,1.6-4.06,3.9-5.41,6.18A13.89,13.89,0,0,0,833.43,661.43Z"/><path d="M813.06,583.05c1.16,0,2.1,0,3,0a2.39,2.39,0,0,1,2,3.78,5.28,5.28,0,0,1-2.31,2.21c-3.13,1.12-4,3.28-3.76,6.38.28,3.26.22,6.55.55,9.8a61.18,61.18,0,0,0,1.35,6.44,1.6,1.6,0,0,1-.32.57c-2.19,2.15-4.48,2.31-5.54-1.72a52,52,0,0,1-1.76-13c0-.8,0-1.61,0-2.68h-3.28a5.49,5.49,0,0,1,1.62-4.65,8.36,8.36,0,0,0,2.33-6.3c0-3.13.27-6.27.58-9.39a18.35,18.35,0,0,1,1-4,2.26,2.26,0,0,1,2.59-1.52,2.15,2.15,0,0,1,2,2.21c0,2.46-.06,4.92-.09,7.38C813.05,580.11,813.06,581.58,813.06,583.05Z"/><path d="M1155.9,684.53a16.53,16.53,0,0,1-2.46.79,2.05,2.05,0,0,1-2.3-1.35,13.32,13.32,0,0,1-1-3.52,71.66,71.66,0,0,1,0-16q.8-6.74,1.36-13.48a20.33,20.33,0,0,1,2.15-7.86,7.85,7.85,0,0,1,2.17-2.36,1.71,1.71,0,0,1,2.58,1.08,4.89,4.89,0,0,1,.18,1.61c-.38,3.4-.76,6.79-1.21,10.18-.36,2.71-.84,5.41-1.2,8.11a7.25,7.25,0,0,0,.22,1.76,8.48,8.48,0,0,0,2.05.06c.93-.18,1.81-.61,2.74-.83a2.27,2.27,0,0,1,2.77,1.18,3.08,3.08,0,0,1-.56,3.42,5.65,5.65,0,0,1-1.74,1,5.54,5.54,0,0,1-2,.3c-4.45-.21-4.56,1.46-4.43,5S1155.63,680.7,1155.9,684.53Z"/><path d="M1024.61,597.81c-1.17,3.73-2.2,6.66-1.81,9.91a29.64,29.64,0,0,1,0,4.52,2.77,2.77,0,0,1-2.35,2.86,3.21,3.21,0,0,1-3-2.39,7.44,7.44,0,0,1-.15-1.63,46.85,46.85,0,0,0-1.55-11.78,20.84,20.84,0,0,1-.62-4.46c-.05-1.36,1.07-2.65,2.26-2.37,2,.47,3.44-.35,5-1.2a12.64,12.64,0,0,1,1.52-.6c4.76,1.12,7.08,4.27,7.85,8.9a62.21,62.21,0,0,1,1.23,10.18,24.71,24.71,0,0,0,.66,4,9.56,9.56,0,0,1,.27,2.42,1.64,1.64,0,0,1-1,1.13,1.53,1.53,0,0,1-1.4-.42,14.68,14.68,0,0,1-1.85-3.61c-.71-2.35-1.11-4.79-1.73-7.18s-1.26-4.46-2-6.66C1025.92,599,1025.42,598.71,1024.61,597.81Z"/><path d="M739.74,585.13a8.48,8.48,0,0,0-1.5,2.07,26.32,26.32,0,0,0-1,4.78,47.66,47.66,0,0,0-.06,4.93c0,3.06,0,3.06-3.17,5-1.28-.23-1.72-1.17-1.92-2.32-.48-2.83-.92-5.67-1.46-8.49-.39-2-1-4-1.38-6a7.35,7.35,0,0,1-.24-2.41c.17-1.32,1.29-2.53,3-1.6l2.42,1.34c.74-.87,1.48-1.81,2.28-2.69a3.33,3.33,0,0,1,4.74-.57c.89.63,1.71,1.36,2.57,2a6.68,6.68,0,0,1,2.68,4.88c.31,3.82.66,7.63.94,11.44.14,1.76.16,3.52.24,5.28a2,2,0,0,1-1.94,2.21,1.74,1.74,0,0,1-2.06-1.53c-.43-2.56-.67-5.15-1.11-7.71-.53-3.09-1.15-6.16-1.81-9.23C740.79,586.13,740.27,585.78,739.74,585.13Z"/><path d="M1084.11,600.88c-.51,4.44-.83,8.69-4.14,11.91a12.24,12.24,0,0,0-1.51,1.93c-1.68,2.51-4.43,3-7,3.79a3.34,3.34,0,0,1-3-.89,7.56,7.56,0,0,1-3.07-6.42c.56-5.87,1.9-11.56,5.63-16.41,1.16-1.51,2.43-2.48,4.45-2.35,1.07.07,2.17-.37,3.24-.32a3.53,3.53,0,0,1,3.57,2.78c.35,1.44,1,2.82,1.42,4.23C1083.85,599.77,1084,600.43,1084.11,600.88Zm-13.37,9.1a4.84,4.84,0,0,0,.09,1.35,3.32,3.32,0,0,0,1,1.65c.83.57,1.52-.11,2.09-.69a17.18,17.18,0,0,0,4.82-10.13,15.91,15.91,0,0,0-.54-4.81,1.52,1.52,0,0,0-2.35-.67,3.66,3.66,0,0,0-.86.85A23.79,23.79,0,0,0,1070.74,610Z"/><path d="M821.1,598.85c0-3.53,1.59-7.3,3.5-10.94,1-2,3-3.16,4.83-4.3a3.76,3.76,0,0,1,5.73,2.48c.55,3.35,1.7,6.62,2.07,10a15.51,15.51,0,0,1-2,9,6.53,6.53,0,0,1-3.54,2.64c-5.47,2.35-10.17-.59-10.58-6.59C821.07,600.63,821.1,600.08,821.1,598.85Zm9.5-10.57c-1.14,2.6-2.34,5.18-3.4,7.82a8.11,8.11,0,0,0-.13,6,1.45,1.45,0,0,0,2.57.59,3.5,3.5,0,0,0,.51-.64A14.44,14.44,0,0,0,830.6,588.28Z"/><path d="M769.42,642.49c.45-.15.82-.26,1.18-.41,3.44-1.39,5.84-.61,7.51,2.6a16.93,16.93,0,0,1,2.19,8.67c-.15,3-.56,6-1,9-.21,1.52-.34,1.5-2.66,3a9,9,0,0,1-1.07-1.59,12.79,12.79,0,0,1-.48-5.67,23.31,23.31,0,0,0-.34-8.16,12.33,12.33,0,0,0-1.07-2.11,10.29,10.29,0,0,0-3.8,6.66c-.35,1.88-.51,3.8-.74,5.7a3.27,3.27,0,0,1-1.75,2.61,2.17,2.17,0,0,1-3.36-1.63c-.11-1.91.05-3.83.05-5.74,0-3,0-6,0-9,0-1.77-.07-3.56.07-5.33,0-.56.58-1.44,1-1.54a2.92,2.92,0,0,1,2.23.45A14.1,14.1,0,0,1,769.42,642.49Z"/><path d="M761.83,646.61a23.7,23.7,0,0,1-.7,3.16,19.06,19.06,0,0,1-6.92,9c-2.69,1.91-5.88,2.11-9,2.39-1.7.15-3.39-1.59-3.57-3.37a9.77,9.77,0,0,1,.15-3.66c2.28-8,6.78-14.22,14.55-17.72a5.4,5.4,0,0,1,1.56-.47,2.63,2.63,0,0,1,3.08,2.5c.2,2.73.34,5.46.51,8.19Zm-14.55,9.65c2.26.68,3.62-1,5.09-2a10.85,10.85,0,0,0,4.57-7.45c.27-1.72,1-3.46-.57-5.16a16.63,16.63,0,0,0-7.66,8.13C747.72,651.78,746.11,653.7,747.28,656.26Z"/><path d="M961.37,668.08c-1.22-1.34-2.22-2.4-3.19-3.5a8.55,8.55,0,0,1-2.51-4.6c-.33-2.71,0-5.16,2.13-7.16,3.09-2.92,6.26-5.71,10.35-7.17a6.11,6.11,0,0,1,4.39-.32,1.77,1.77,0,0,1,1.08,2.61c-.61,1.13-1.41,2.18-2.76,2.18-2,0-3.33,1.11-4.74,2.17-1.19.91-2.35,1.88-3.45,2.91-1.89,1.76-2,3.34-.43,5.38a27.25,27.25,0,0,0,2.94,2.84c.8.74,1.71,1.37,2.45,2.17a3.19,3.19,0,0,1,.14,4.46,12.27,12.27,0,0,1-12.17,4,4.72,4.72,0,0,1-1.69-1.06,1.32,1.32,0,0,1,.47-2.29c1.45-.4,2.94-.63,4.36-1.11A15.68,15.68,0,0,0,961.37,668.08Z"/><path d="M1199.8,643.23a5.5,5.5,0,0,1,2.68,5.84c-.54,3.38-1.22,6.73-1.71,10.12-.64,4.46-1.17,8.94-1.7,13.42a22.88,22.88,0,0,0-.07,2.87,7.55,7.55,0,0,0,1.39,5c.93,1.14.3,2.69-1,3.43-1.57.89-3.44.68-3.93-.68a25.42,25.42,0,0,1-1.79-6.69,55,55,0,0,1,.77-14.7c.86-4.42,1.36-8.93,1.79-13.41C1196.46,646,1197.33,644.28,1199.8,643.23Z"/><path d="M1212.39,683.82c-1.19.38-1.93.67-2.7.85a2.53,2.53,0,0,1-3-1.5,9.47,9.47,0,0,1-.94-2.69,93.2,93.2,0,0,1-.49-22.14c.23-2.6.47-5.18.71-7.77a11.11,11.11,0,0,1,.16-1.64c.39-1.61,2.21-3,3.56-2.86a3.08,3.08,0,0,1,2.27,3.07,28.68,28.68,0,0,1-.28,5.32,116.75,116.75,0,0,0-1.16,19.68C1210.54,677.28,1210.65,680.42,1212.39,683.82Z"/><path d="M800.54,652.63c.69-5.84,1.4-11.8,2.11-17.76a5.46,5.46,0,0,1,2.56-4,2,2,0,0,1,3,.95,12.39,12.39,0,0,1,.35,4c-.26,2.85-.63,5.71-1.15,8.52a92.5,92.5,0,0,0-1.18,15.93,16.81,16.81,0,0,0,.71,3.58c.28,1.29,0,2-.89,2.41-1.42.67-2.61.55-3.38-.37a7,7,0,0,1-1.65-4.12C800.87,658.79,800.71,655.8,800.54,652.63Z"/><path d="M856.87,667.46a15.65,15.65,0,0,1-2.26.6,2.11,2.11,0,0,1-2.51-1.6,27.27,27.27,0,0,1-1-4.78,60.28,60.28,0,0,1,.36-13.08c.4-3,.71-6,.91-9a9.83,9.83,0,0,1,1.31-4.26,3.83,3.83,0,0,1,1.1-1.17,1.91,1.91,0,0,1,3.11,1.29,76.77,76.77,0,0,1-.17,8.17c-.37,4.9-1,9.78-1.33,14.69a20.57,20.57,0,0,0,.6,7.72A4.25,4.25,0,0,1,856.87,667.46Z"/><path d="M658.47,587.07c-1.11-1.1-.62-2.27-.15-3.42a2.54,2.54,0,0,1,2.31-1.46c4.34-.39,8.67-.94,13.06-.55,2.57.23,5.17.17,7.75.3a24.22,24.22,0,0,1,4.44.45,2.13,2.13,0,0,1,1,3.78,5.8,5.8,0,0,1-4.73,2c-7.62-.54-15.23-1.38-22.88-.82A2.1,2.1,0,0,1,658.47,587.07Z"/><path d="M1003.72,605.26a9.85,9.85,0,0,0,0-1.63c-.65-3.64.79-7,1.64-10.35a1.94,1.94,0,0,1,1.67-1.57,2.27,2.27,0,0,1,2.41,1.18,3.89,3.89,0,0,1,.47,1.94c-.18,4.08.37,8.16-.35,12.24a49,49,0,0,0-.28,5.7c-.1,1.75-.91,2.65-2.38,2.79a2.76,2.76,0,0,1-3.1-2.56c-.24-2.56-.25-5.15-.35-7.73Z"/><path d="M1057.47,681.58a5.46,5.46,0,0,1-1.89-4.67c.15-2.59.34-5.19.61-7.77s.67-4.87.92-7.31a5.9,5.9,0,0,1,2.4-4.13,2,2,0,0,1,3.13.71,7.18,7.18,0,0,1,.71,3.12,37.72,37.72,0,0,1-.81,5.68,47.07,47.07,0,0,0-1.24,10.58C1061.37,680.51,1061,680.81,1057.47,681.58Z"/><path d="M1284.35,682.31a13,13,0,0,1-2,.78,2.06,2.06,0,0,1-2.66-1.27,8.32,8.32,0,0,1-.7-2.75c-.12-2.87-.17-5.74-.11-8.61a8.28,8.28,0,0,1,2.63-5.83,3.4,3.4,0,0,1,2.19-.75c.81,0,1.53,1.09,1.61,2.12a5.45,5.45,0,0,1,0,1.21c-.3,2.44-.74,4.88-.9,7.33S1284.35,679.43,1284.35,682.31Z"/><path d="M1131.74,601c.88.18,2.1.35,3.26.7a2.89,2.89,0,0,1,2.26,3.36c-.23,1.38-1.64,2.26-3.51,2.06-1.48-.15-3-.47-4.44-.66-.94-.11-1.9-.08-2.85-.16s-1.81-.32-1.89-1.22a3.79,3.79,0,0,1,.79-2.18c.84-1.22,2.26-1.44,3.6-1.69A26.29,26.29,0,0,1,1131.74,601Z"/><path d="M1315.67,691.66a2.75,2.75,0,0,1-2.83-2.42,2.71,2.71,0,0,1,2.47-2.77,2.6,2.6,0,0,1,.36,5.19Z"/><path d="M1284.36,646c0,1.09-1.38,2-3.1,2.06-.87,0-1.55-.88-1.53-2a2.13,2.13,0,0,1,2.25-2.33A2.39,2.39,0,0,1,1284.36,646Z"/><path d="M1060,654.47c0-2.35,1.21-3.61,3-3a2.39,2.39,0,0,1,1.25,1.34,1.59,1.59,0,0,1-.49,1.39,12.75,12.75,0,0,1-2.44,1.32A1.06,1.06,0,0,1,1060,654.47Z"/><path d="M1044.63,662.88a5.48,5.48,0,0,1-2.51,3.38l.12.06a6.4,6.4,0,0,1,2.48-3.31Z"/><path d="M1181,593.41a12.51,12.51,0,0,1,1.1,1.84c1.7,5.48,1.45,10.78-1.6,15.78-.65,1.06-1.46,2.21-2.8,2.11-1.51-.12-1.69-1.61-1.91-2.79C1174.57,604,1176.21,598.51,1181,593.41Z" style="fill:#fff"/><path d="M670.48,652.55a22.32,22.32,0,0,1,5.84-5.75,6.7,6.7,0,0,1,1.89-.79,2.47,2.47,0,0,1,2.68.38c.47.49.07,1.63-1,2.41C677.23,650.69,674.47,652.33,670.48,652.55Z" style="fill:#fff"/><path d="M1108.69,665a3.15,3.15,0,0,1,3-2.35c.21,0,.46.24.65.41a.42.42,0,0,1,.07.39C1111.74,664.76,1110.73,665.19,1108.69,665Z" style="fill:#fff"/><path d="M1042.78,611.71a4.56,4.56,0,0,1,0-4,30.08,30.08,0,0,1,8.1-11.59,1.5,1.5,0,0,1,2.67,1,9.2,9.2,0,0,1-2.19,8c-2.11,2.31-4.1,4.73-7,6.12C1043.89,611.37,1043.38,611.5,1042.78,611.71Z" style="fill:#fff"/><path d="M1075.67,678.6a5.32,5.32,0,0,1,.06-4.41c1.35-3.67,3.92-6.53,6.45-9.4a1.11,1.11,0,0,1,.32-.25c1-.61,2.16-1.6,3.38-.94s.95,2.21.7,3.33a9,9,0,0,1-1.54,3.71,39.34,39.34,0,0,1-7.65,7.38A7.57,7.57,0,0,1,1075.67,678.6Z" style="fill:#fff"/><path d="M1150.4,611.49a20.78,20.78,0,0,1,3.41-9.78c2.24-3.42,2.81-3.94,5.29-5a8,8,0,0,1-.07,6,18.9,18.9,0,0,1-7.26,8.67C1151.57,611.46,1151.25,611.4,1150.4,611.49Z" style="fill:#fff"/><path d="M758.69,599.79c.69-4.48,3-7.81,5.65-11a5.68,5.68,0,0,1,1.66-1.16,1.42,1.42,0,0,1,2,.81,4.08,4.08,0,0,1-.11,3.58,22.41,22.41,0,0,1-8,8C759.68,600.1,759.36,599.92,758.69,599.79Z" style="fill:#fff"/><path d="M1044.72,663a6.4,6.4,0,0,0-2.48,3.31l-2.34.28a16.19,16.19,0,0,1,5-6.22C1044.82,661.56,1044.77,662.29,1044.72,663Z" style="fill:#fff"/><path d="M906.4,605.83a20.15,20.15,0,0,1,.3-3.59,25.67,25.67,0,0,1,5.78-10.2,6.9,6.9,0,0,1,1.24-1,1.52,1.52,0,0,1,2.41,1.15,9.78,9.78,0,0,1-1.52,6.63,35,35,0,0,1-3.37,4.58A7.55,7.55,0,0,1,906.4,605.83Z" style="fill:#fff"/><path d="M1171.43,679a31.35,31.35,0,0,1,1.13-3.51c1.57-3.41,4.09-6.14,6.56-8.88a4.81,4.81,0,0,1,3.88-1.84,3,3,0,0,1,.31,3.88,26,26,0,0,1-10,10.07A9,9,0,0,1,1171.43,679Z" style="fill:#fff"/><path d="M904.71,667.49c-.51-1.27,0-2.41.56-3.48,2.41-5,4.57-10.18,9-13.9.32.23.71.39.7.52a26.05,26.05,0,0,1-5.72,14.57C907.88,666.91,907.21,667.17,904.71,667.49Z" style="fill:#fff"/><path d="M1000.32,655.31c.69,1.05,1.19,1.68,1.55,2.38a3.09,3.09,0,0,1-.5,3.76,38.32,38.32,0,0,1-8,6.87,1.77,1.77,0,0,1-1.5.09c-.36-.21-.51-.88-.61-1.37a2.23,2.23,0,0,1,.09-1.2C993.09,661.47,995.49,657.67,1000.32,655.31Z" style="fill:#fff"/><path d="M711.93,595.8a19.43,19.43,0,0,1,4.19-15c2.53,2.4,3.11,5.29,3.36,8.27a2.09,2.09,0,0,1-.63,1.46c-1.75,1.71-3.55,3.36-5.38,5C713.22,595.72,712.73,595.66,711.93,595.8Z" style="fill:#fff"/><path d="M833.43,661.43a13.89,13.89,0,0,1,2.49-8c1.35-2.28,2.81-4.58,5.41-6.18A7.74,7.74,0,0,1,842,649a7.64,7.64,0,0,1-1.33,5.45,64.55,64.55,0,0,1-4.65,5.67C835.56,660.63,834.68,660.81,833.43,661.43Z" style="fill:#fff"/><path d="M1070.74,610a23.79,23.79,0,0,1,4.24-12.45,3.66,3.66,0,0,1,.86-.85,1.52,1.52,0,0,1,2.35.67,15.91,15.91,0,0,1,.54,4.81,17.18,17.18,0,0,1-4.82,10.13c-.57.58-1.26,1.26-2.09.69a3.32,3.32,0,0,1-1-1.65A4.84,4.84,0,0,1,1070.74,610Z" style="fill:#fff"/><path d="M830.6,588.28a14.44,14.44,0,0,1-.45,13.78,3.5,3.5,0,0,1-.51.64,1.45,1.45,0,0,1-2.57-.59,8.11,8.11,0,0,1,.13-6C828.26,593.46,829.46,590.88,830.6,588.28Z" style="fill:#fff"/><path d="M747.28,656.26c-1.17-2.56.44-4.48,1.43-6.49a16.63,16.63,0,0,1,7.66-8.13c1.58,1.7.84,3.44.57,5.16a10.85,10.85,0,0,1-4.57,7.45C750.9,655.29,749.54,656.94,747.28,656.26Z" style="fill:#fff"/></g></svg>
