<svg xmlns="http://www.w3.org/2000/svg" viewBox="0 0 1366 768"><g id="Layer_2" data-name="Layer 2"><path d="M999.76,339.88a3.09,3.09,0,0,0-2.19.68c-8.47,7.12-17.08,14.06-26.14,20.43-12.76,9-26.19,16.68-41.27,21.12a146.86,146.86,0,0,1-26.88,5.08c-9.5.95-19,1.17-28.56,1.47-5.84.19-11.68.1-17.52.17-11,.12-21.92,0-32.88.31-8.08.23-16.16.05-24.24.18-18,.29-36,.62-54,.52-1.83,0-3.68.19-5.52.2" style="fill:none;stroke:#000;stroke-linecap:round;stroke-linejoin:round;stroke-width:2px"/><path d="M386.32,348.76c2.33-.38,4.09,1.15,6,2a483.91,483.91,0,0,0,50.44,18.86,516.28,516.28,0,0,0,51.82,13.53c13.69,2.81,27.44,5.22,41.29,7,9.25,1.19,18.54,2,27.84,2.83,19.1,1.64,38.23,1.54,57.36,1.28,5.74-.07,11.53-.36,17.28-.85" style="fill:none;stroke:#000;stroke-linecap:round;stroke-linejoin:round;stroke-width:2px"/><path d="M987.28,353.8c-11.31,10.39-22.75,20.59-36,28.58a103.13,103.13,0,0,1-31.93,12.46,228.86,228.86,0,0,1-29.52,3.88c-12.14,1-24.32,1.42-36.48,2.06-5.27.27-10.56.44-15.84.53-16.64.26-33.28.89-49.92.4-7.84-.23-15.69,0-23.51-.5-4.25-.25-8.52.05-12.72-.45-4-.47-8-.3-12-.39-1.38,0-2.61-1.26-4.08-.49" style="fill:none;stroke:#000;stroke-linecap:round;stroke-linejoin:round;stroke-width:2px"/><path d="M626.32,403.24a7.25,7.25,0,0,1-1.2.23c-12.48.34-25,.57-37.44.12-7.51-.26-15-.54-22.57-1.19-6.63-.56-13.28-1-19.9-1.64-6-.59-12-1.39-18-2.22-5-.69-9.91-1.42-14.86-2.08-5.4-.71-10.75-1.74-16.08-2.85-8.67-1.79-17.34-3.58-25.94-5.7-8.94-2.19-17.8-4.64-26.66-7.14-11.17-3.15-22.14-6.83-33.09-10.65-8.76-3.06-17.38-6.46-25.92-10.07a6,6,0,0,0-1.2-.25" style="fill:none;stroke:#000;stroke-linecap:round;stroke-linejoin:round;stroke-width:2px"/><path d="M602.8,502.84a192.54,192.54,0,0,0-19.67.6c-15.73.9-31.43,2.17-47.06,4.37-10.43,1.47-20.85,2.94-31.18,4.94-17.87,3.47-35.59,7.7-53,12.91-14.92,4.46-29.69,9.36-44.18,15.07-4.81,1.9-9.62,3.79-14.38,5.81a5.13,5.13,0,0,1-2.17.46" style="fill:none;stroke:#000;stroke-linecap:round;stroke-linejoin:round;stroke-width:2px"/><path d="M617.2,427c-3.88.28-7.69,1.08-11.52,1.71-4.08.66-8.17,1.4-12.25,2.06-5,.79-9.93,1.62-14.85,2.56-6.18,1.18-12.35,2.48-18.52,3.66-12.36,2.37-24.66,5-36.93,7.81q-26.06,5.9-51.84,12.95c-10.63,2.88-21.24,5.86-31.68,9.36a153.36,153.36,0,0,0-29.05,12.69" style="fill:none;stroke:#000;stroke-linecap:round;stroke-linejoin:round;stroke-width:2px"/><path d="M959.92,514.84c-2,0-3.17-1.61-4.53-2.67-8.37-6.52-16.88-12.8-26.44-17.47a63.37,63.37,0,0,0-18.72-6c-6.71-1-13.42-.45-20.16.34-4,.46-8,.69-12,1.05-5.36.49-10.74.74-16.09,1.4-2.69.33-5.45.31-8.15.39-4.41.13-8.8.49-13.2.66-17.28.67-34.56.68-51.84.66-2.32,0-4.64-.15-7-.23" style="fill:none;stroke:#000;stroke-linecap:round;stroke-linejoin:round;stroke-width:2px"/><path d="M466,464.68a99.12,99.12,0,0,1,11.27,21.6c1.6,4.23.78,6.52-3.12,8.87a29.69,29.69,0,0,1-10.32,3.57,171.76,171.76,0,0,1-22.55,2c-5.36.24-10.73.57-16.07,1-6.75.53-13.46.91-20.17-.12-1.61-.25-3.33-.52-4.45-2.2,1.12-2.48,3.58-3.26,5.65-4.49a324.24,324.24,0,0,1,32.63-16.82c8.13-3.63,16.3-7.16,24.73-10.06" style="fill:none;stroke:#000;stroke-linecap:round;stroke-linejoin:round;stroke-width:2px"/><path d="M993.52,410.2c-7.93.28-15.84.91-23.76,1.43-4.08.27-8.17.52-12.24.62-5.29.14-10.55.59-15.84.69-4.47.1-9,0-13.43.49s-8.81.13-13.21.37c-13.67.75-27.35.91-41,1-3.59,0-7.2.13-10.8.16-8.16.06-16.32-.1-24.48.24a6.39,6.39,0,0,1-2.64-.23" style="fill:none;stroke:#000;stroke-linecap:round;stroke-linejoin:round;stroke-width:2px"/><path d="M880.24,506a4.32,4.32,0,0,1,1.45.7c6.44,6,12.61,12.22,18.44,18.77a452.84,452.84,0,0,1,35.77,46.3c9.23,13.56,17.93,27.47,26.43,41.5,4.61,7.61,9,15.32,12.93,23.3,1.87,3.79,3.56,7.66,5.28,11.52a3.29,3.29,0,0,1,.44,1.65c-1,2.65.72,4.41,2,6.24,1.59,2.27,1.84,4.94,2.61,7.46.34,1.11.64,2.24,1,3.36" style="fill:none;stroke:#000;stroke-linecap:round;stroke-linejoin:round;stroke-width:2px"/><path d="M388.72,572c3.56-.32,7,.53,10.54.88,1.89.19,3.9.45,5.8.68,7.42.89,14.86,1.76,22.31,2.45,9.44.88,18.87,1.87,28.31,2.73,6.48.59,13,1.3,19.45,1.82s12.95,1.05,19.42,1.59c4.89.41,9.8.53,14.66,1.33a58.24,58.24,0,0,0,6.48.39c3.2.15,6.36.73,9.59.67a64.43,64.43,0,0,1,7.44.66" style="fill:none;stroke:#000;stroke-linecap:round;stroke-linejoin:round;stroke-width:2px"/><path d="M883.6,512.2c1.91.77,2.69,2.67,3.78,4.12,10.85,14.41,21.67,28.83,32.06,43.58q16.23,23,31.59,46.63c9.05,14,17.94,28,26.19,42.46a5.18,5.18,0,0,0,3.1,2.65" style="fill:none;stroke:#000;stroke-linecap:round;stroke-linejoin:round;stroke-width:2px"/><path d="M511.6,638.44c-5.92,1.55-11.35,4.29-16.8,7-10.11,5-19.69,10.86-29.51,16.34-9.54,5.33-19.27,10.27-29.78,13.38A76.46,76.46,0,0,1,407,678.38a113.94,113.94,0,0,1-24-5c-.61-.19-1.45,0-1.95-.62" style="fill:none;stroke:#000;stroke-linecap:round;stroke-linejoin:round;stroke-width:2px"/><path d="M540.88,597.16a133,133,0,0,0-13.68-.39c-6.09,0-12.16-.43-18.24-.66-7.12-.27-14.24-.85-21.35-1.42-5.05-.41-10.11-.77-15.12-1.43-6.24-.82-12.5-1.5-18.74-2.26-12.94-1.57-25.8-3.59-38.64-5.81-1.13-.19-2.22-.55-3.35-.75" style="fill:none;stroke:#000;stroke-linecap:round;stroke-linejoin:round;stroke-width:2px"/><path d="M992.08,631c-7.22-11.53-14.4-23.08-22.09-34.31-12.53-18.32-25.74-36.13-39.8-53.32-5.61-6.86-11.48-13.5-17.07-20.37a2.21,2.21,0,0,0-2.16-1" style="fill:none;stroke:#000;stroke-linecap:round;stroke-linejoin:round;stroke-width:2px"/><path d="M889.84,418.6c1,3,3.66,4.24,6.26,5.23,6.33,2.42,12.81,4.43,19.2,6.71,6.05,2.16,12.1,4.36,18.25,6.21a83,83,0,0,0,17,3.56,146.4,146.4,0,0,0,18.49.27c7.68-.31,15.35-.87,23-1.1" style="fill:none;stroke:#000;stroke-linecap:round;stroke-linejoin:round;stroke-width:2px"/><path d="M468.4,407.32c-4.57,9.95-11.49,18.12-19.71,25.16-10.48,9-22.41,15.64-35,21.16-7.73,3.39-15.57,6.5-23.49,9.45-.64.24-1.44.06-1.95.63" style="fill:none;stroke:#000;stroke-linecap:round;stroke-linejoin:round;stroke-width:2px"/><path d="M404.8,430.12a74.5,74.5,0,0,0,23.77-14.87c3-2.82,2.15-4.45.43-6.45a110.92,110.92,0,0,0-18.45-17.06c-2.23-1.64-4.62-3.08-6.95-4.58-6.84-4.39-12.57-3.29-18.24,1.92-2,1.8-3.62,3.91-5.76,5.52" style="fill:none;stroke:#000;stroke-linecap:round;stroke-linejoin:round;stroke-width:2px"/><path d="M389.2,629.08a10.25,10.25,0,0,0,2.9-.15,111.66,111.66,0,0,1,25.42-3.19A123.09,123.09,0,0,1,437.19,627c15,2.16,29.66,6.09,44.17,10.51a55.55,55.55,0,0,1,7.44,2.39" style="fill:none;stroke:#000;stroke-linecap:round;stroke-linejoin:round;stroke-width:2px"/><path d="M455.92,654c-10.68-4.41-21.4-8.74-32.65-11.49a85.87,85.87,0,0,0-20.87-2.63c-3.12,0-6.24.44-9.36.68" style="fill:none;stroke:#000;stroke-linecap:round;stroke-linejoin:round;stroke-width:2px"/><path d="M960.88,516.52a96.45,96.45,0,0,1,27.43,31.88,89.61,89.61,0,0,1,8.55,21.88c.08.36.34.48.5.72" style="fill:none;stroke:#000;stroke-linecap:round;stroke-linejoin:round;stroke-width:2px"/><path d="M974.08,581.32c3.3,4,5.68,8.59,8.36,13a384.53,384.53,0,0,1,18.93,35.29c.41.88.8.56,1.27.69" style="fill:none;stroke:#000;stroke-linecap:round;stroke-linejoin:round;stroke-width:2px"/><path d="M927.76,502.6a4.19,4.19,0,0,0-1-.23c-10.88-.05-21.76-.86-32.64-.45-3.34.13-6.79.29-9.61,2.59a1.21,1.21,0,0,1-1.43,0" style="fill:none;stroke:#000;stroke-linecap:round;stroke-linejoin:round;stroke-width:2px"/><path d="M971.92,581.8a58.46,58.46,0,0,0,7-5.27,2.74,2.74,0,0,0,.47-4.09,203.76,203.76,0,0,0-13.17-17.79,3.13,3.13,0,0,0-3.87-.92c-2.33.84-4.67,1.68-6.94,2.68-.55.25-.82,0-1.22,0" style="fill:none;stroke:#000;stroke-linecap:round;stroke-linejoin:round;stroke-width:2px"/><path d="M460.24,492.52c-4.88-.25-9.75-.65-14.64-.48a90.07,90.07,0,0,0-21.33,3.46c-.6.17-1.45,0-1.95.62" style="fill:none;stroke:#000;stroke-linecap:round;stroke-linejoin:round;stroke-width:2px"/><path d="M924.4,517a3.84,3.84,0,0,1,2.15,1.45,252.22,252.22,0,0,1,26.9,31.91c.63.91,1.2,2,2.63,1.68" style="fill:none;stroke:#000;stroke-linecap:round;stroke-linejoin:round;stroke-width:2px"/><path d="M469.36,485.08a111,111,0,0,0-16.8-1,90,90,0,0,0-18,2.23c-.58.13-1.14.06-1.69.19" style="fill:none;stroke:#000;stroke-linecap:round;stroke-linejoin:round;stroke-width:2px"/><path d="M983.44,576c3.56,2.27,5.12,6,6.72,9.6l7.68,17.52" style="fill:none;stroke:#000;stroke-linecap:round;stroke-linejoin:round;stroke-width:2px"/><path d="M945.28,523c2.4,2.93,5.68,4.87,8.47,7.36a149.63,149.63,0,0,1,13.37,13.52l3.36,3.84" style="fill:none;stroke:#000;stroke-linecap:round;stroke-linejoin:round;stroke-width:2px"/><path d="M422.8,416.92c-2.47-2.15-4.13-5-6.23-7.45-4.39-5.12-9-10.05-13.69-14.87-.6-.6-1.07-1.47-2.16-1.2" style="fill:none;stroke:#000;stroke-linecap:round;stroke-linejoin:round;stroke-width:2px"/><path d="M425.2,625.48a78.5,78.5,0,0,1,2.9-9.89c-1.91-1.55-4.34-1.34-6.51-1.54a71.37,71.37,0,0,0-11.51-.56,7.89,7.89,0,0,0-4.79,1.44,2.09,2.09,0,0,0-.61,2.87" style="fill:none;stroke:#000;stroke-linecap:round;stroke-linejoin:round;stroke-width:2px"/><path d="M393,401.32a239.21,239.21,0,0,1,13.2,21.6" style="fill:none;stroke:#000;stroke-linecap:round;stroke-linejoin:round;stroke-width:2px"/><path d="M397.84,396l18.72,20.88" style="fill:none;stroke:#000;stroke-linecap:round;stroke-linejoin:round;stroke-width:2px"/><path d="M467.44,478.12c-6,.83-12,.6-18,1.45-.61.09-1.1-.29-1.68-.25" style="fill:none;stroke:#000;stroke-linecap:round;stroke-linejoin:round;stroke-width:2px"/><path d="M386.32,417.88c2.16,4.07,3.9,8.34,7.15,11.8a46.5,46.5,0,0,0,7.49,6.68" style="fill:none;stroke:#000;stroke-linecap:round;stroke-linejoin:round;stroke-width:2px"/><path d="M708.4,503.56a33.41,33.41,0,0,0-11.76-1.48c-2.08,0-3.94,1.05-6,1" style="fill:none;stroke:#000;stroke-linecap:round;stroke-linejoin:round;stroke-width:2px"/><path d="M388.72,407.32c2.4.95,2.8,3.46,4.08,5.28,2.46,3.51,4,7.55,6.48,11" style="fill:none;stroke:#000;stroke-linecap:round;stroke-linejoin:round;stroke-width:2px"/><path d="M707.92,496.84c-.16-.08-.39.23-.47.21-4.65-1.45-9.29-1.06-13.93,0" style="fill:none;stroke:#000;stroke-linecap:round;stroke-linejoin:round;stroke-width:2px"/></g></svg>
