<svg xmlns="http://www.w3.org/2000/svg" viewBox="0 0 1366 768"> <g id="Layer_2" data-name="Layer 2"><path d="M682,475.48c-1.28-.29-1.2-1.65-1.88-2.44-2.64-3.07-6.22-4.41-9.89-5.44-9.48-2.68-19.13-4.42-29-3.33-2.92.32-6,.76-8.22,3.25-1,1.06-.65,2-.74,3.15-.23,2.82-.76,5.62-1.26,8.41-1.56,8.7-2.93,17.45-4.49,26.15-1.42,7.92-2.7,15.87-4.16,23.79-1,5.24-1.68,10.55-2.58,15.81s-1.87,10.41-2.7,15.63q-1.68,10.44-3.53,20.85c-1.26,7.07-2.7,14.11-4.17,21.15-2.61,12.48-6.05,24.73-9.69,36.94-4.49,15.07-9.11,30.11-12.85,45.38a215.4,215.4,0,0,0-4,21.33c-1,7.52-1.92,15-2.88,22.56a270,270,0,0,1-6.22,34.56,70.69,70.69,0,0,1-2.93,8.86,9.86,9.86,0,0,0-.4,2.43" style="fill:none;stroke:#000;stroke-linecap:round;stroke-linejoin:round;stroke-width:2px"/><path d="M684.88,484.12c.77,4.46,1.22,9,1.86,13.45,1.1,7.73,1.83,15.51,2.7,23.27.7,6.31,1.27,12.64,2,18.95,1.62,14.3,2.75,28.64,4,43,.64,7.51,1.19,15,1.55,22.56.27,5.52.66,11,1,16.56.37,6.24.61,12.48.94,18.72.71,13.35,1,26.72,1.48,40.08.66,18.8.11,37.6.38,56.4" style="fill:none;stroke:#000;stroke-linecap:round;stroke-linejoin:round;stroke-width:2px"/><path d="M805.36,545.08c10.4,9.74,18.21,21.45,24.89,33.88,6.85,12.73,15.35,24.29,24.07,35.72,9.5,12.45,19.41,24.58,29.34,36.67,7.85,9.57,15.8,19.07,23.66,28.64,8.09,9.86,16,19.87,23.86,29.92,11.88,15.18,23.19,30.75,33.76,46.86,2.59,3.93,5,8,7.47,12,.66,1.06,1,2.38,2.39,2.89" style="fill:none;stroke:#000;stroke-linecap:round;stroke-linejoin:round;stroke-width:2px"/><path d="M721.6,371.8a83.17,83.17,0,0,0-11.73,16.1,7.15,7.15,0,0,1-3.31,3.32c.72,2.4-.63,4.25-1.49,6.27a80.93,80.93,0,0,0-3.72,11,28.25,28.25,0,0,1-6.35,11.3c-4.51,5.25-5.66,11.35-4.69,18.22,1.19,8.35,5.48,15.14,9.68,22.08,4.83,8,9.63,15.95,12.11,25.16a58.35,58.35,0,0,1,1.51,21.38c-1.08,10.67-4.29,20.91-7.1,31.22-2.61,9.58-5,19.19-4.88,29.27a27.87,27.87,0,0,0,7.94,19.71c5.73,5.94,12.36,10,20.67,11,2.49.32,5,.05,7.44.2" style="fill:none;stroke:#000;stroke-linecap:round;stroke-linejoin:round;stroke-width:2px"/><path d="M802.48,547.24c-4.28,0-8.39,1.16-12.47,2.21a107.83,107.83,0,0,0-29.07,12.16,16.44,16.44,0,0,1-4,1.59c-2.58.75-4,3.13-4.54,5.65A138.14,138.14,0,0,0,750,584.19a70.53,70.53,0,0,0,1.16,20.63,73.24,73.24,0,0,0,4.5,13.21c4,9.58,8.87,18.77,13.42,28.1a603.38,603.38,0,0,1,24.28,56.14,331.93,331.93,0,0,1,10.66,35.8,156.45,156.45,0,0,1,3.07,16.76c.54,4.16,1.13,8.32,1.6,12.49" style="fill:none;stroke:#000;stroke-linecap:round;stroke-linejoin:round;stroke-width:2px"/><path d="M707,390.76c-1.7-2.43-.48-5.07-.13-7.42,1.35-9,2.47-18.1,3.73-27.14.9-6.48,1.71-13,2.65-19.44,1.63-11.3,3-22.63,2.61-34.08-.2-5.86-.91-11.81-4.15-16.74-5.51-8.38-12-10.45-22.44-6.23-4.79,1.93-8.91,5.17-13,8.34-4.48,3.49-8.94,7-14.17,9.36s-8.18,6.68-10.17,11.76c-1.58,4.05-2.48,8.35-3.89,12.42-2,5.83-1,11.57-.75,17.33.33,6.65,1,13.31,1.9,19.91a173.21,173.21,0,0,1,1.35,28.33,121.1,121.1,0,0,1-1.8,15.85c-1.06,6.75-2.74,13.31-4.35,19.92-1.52,6.24-3.58,12.31-5.39,18.45-1.48,5-3.46,9.94-5.22,14.9" style="fill:none;stroke:#000;stroke-linecap:round;stroke-linejoin:round;stroke-width:2px"/><path d="M735.76,433.72a163.09,163.09,0,0,0,14.17,25.44c7.86,12,16.7,23.31,24.94,35,7.3,10.39,14,21.13,18.94,32.88,1.31,3.15,2.1,6.51,3.63,9.59" style="fill:none;stroke:#000;stroke-linecap:round;stroke-linejoin:round;stroke-width:2px"/><path d="M794.8,531.64a3.53,3.53,0,0,1-1.94-.45,8.8,8.8,0,0,0-8.13-.48,60.27,60.27,0,0,0-35.06,34.77,31.5,31.5,0,0,0-1.91,6" style="fill:none;stroke:#000;stroke-linecap:round;stroke-linejoin:round;stroke-width:2px"/><path d="M677.68,621.16a64.69,64.69,0,0,0-14.42-9.07,68.77,68.77,0,0,0-20.61-5.86c-6-.65-11.85-.92-17.78.23-1.32.26-2.42,1.2-3.83,1" style="fill:none;stroke:#000;stroke-linecap:round;stroke-linejoin:round;stroke-width:2px"/><path d="M818.32,586.36a47.37,47.37,0,0,0-19.42,3.19c-10.87,4-20.23,10.3-27.15,19.84a3.75,3.75,0,0,1-1.91,1.45" style="fill:none;stroke:#000;stroke-linecap:round;stroke-linejoin:round;stroke-width:2px"/><path d="M839,619a52.64,52.64,0,0,0-17.75,1c-10.32,2.66-19.45,7.45-26.41,15.8a5.78,5.78,0,0,1-1.92,1.44" style="fill:none;stroke:#000;stroke-linecap:round;stroke-linejoin:round;stroke-width:2px"/><path d="M672.4,542.2C665.33,541,658.27,539.73,651,540c-8.6.36-16.34,2.78-22.27,9.4-.39.43-.65.35-1,.44" style="fill:none;stroke:#000;stroke-linecap:round;stroke-linejoin:round;stroke-width:2px"/><path d="M826.48,608.2c-10.75,0-20,4.16-28.32,10.56a86.56,86.56,0,0,0-12,11.54c-.69.79-1.22,1.6-2.42,1.42" style="fill:none;stroke:#000;stroke-linecap:round;stroke-linejoin:round;stroke-width:2px"/><path d="M738.4,400.6a14.27,14.27,0,0,0,2.43,6.22c4.73,7.77,5.32,16.24,4.53,25-.35,3.86-1.26,7.64-1.44,11.52" style="fill:none;stroke:#000;stroke-linecap:round;stroke-linejoin:round;stroke-width:2px"/><path d="M667.6,516.52a2.89,2.89,0,0,1-1.92-.48c-6.45-4.53-13.4-4.51-20.65-2.42a76.39,76.39,0,0,0-13.43,5.54,3.74,3.74,0,0,1-2.4.72" style="fill:none;stroke:#000;stroke-linecap:round;stroke-linejoin:round;stroke-width:2px"/><path d="M758.32,509.56c-8.52,1.59-14.77,6.36-19.2,13.68a22.88,22.88,0,0,0-3.36,9.36" style="fill:none;stroke:#000;stroke-linecap:round;stroke-linejoin:round;stroke-width:2px"/><path d="M657.76,626a61.88,61.88,0,0,1,26.67,16.77c.93,1,1.6,2.22,2.61,3.15" style="fill:none;stroke:#000;stroke-linecap:round;stroke-linejoin:round;stroke-width:2px"/><path d="M724.72,373c6.18.57,8.7,5,10.53,10.09,1.26,3.46,1.23,7.18,1.66,10.8.23,1.92.64,3.82.77,5.75" style="fill:none;stroke:#000;stroke-linecap:round;stroke-linejoin:round;stroke-width:2px"/><path d="M665.92,488.2a36.29,36.29,0,0,0-23.75,4.58,5.06,5.06,0,0,1-2.89.94" style="fill:none;stroke:#000;stroke-linecap:round;stroke-linejoin:round;stroke-width:2px"/><path d="M779.92,543.16A3.74,3.74,0,0,1,777,542a2,2,0,0,0-2.62-.22c-7.16,4.74-12.59,11.15-17.28,18.23a3.68,3.68,0,0,0-.74,3.11" style="fill:none;stroke:#000;stroke-linecap:round;stroke-linejoin:round;stroke-width:2px"/><path d="M796.48,568.6a83.28,83.28,0,0,0-21.12,23.52" style="fill:none;stroke:#000;stroke-linecap:round;stroke-linejoin:round;stroke-width:2px"/><path d="M815,686.68a1.29,1.29,0,0,0-1.27.27c-4.32,5.88-7.72,12.21-9.28,19.41a4.4,4.4,0,0,0,0,1" style="fill:none;stroke:#000;stroke-linecap:round;stroke-linejoin:round;stroke-width:2px"/><path d="M698.8,747.16a41.65,41.65,0,0,1,0,9.6c-.41,3.92-.16,7.89-1.09,11.76" style="fill:none;stroke:#000;stroke-linecap:round;stroke-linejoin:round;stroke-width:2px"/><path d="M829.84,719.8a114.51,114.51,0,0,0-11,20.88" style="fill:none;stroke:#000;stroke-linecap:round;stroke-linejoin:round;stroke-width:2px"/><path d="M657.52,501.4c-5.28-1-10.57-2-15.83-3.16-1-.21-2,.06-2.89-.44" style="fill:none;stroke:#000;stroke-linecap:round;stroke-linejoin:round;stroke-width:2px"/><path d="M679.36,462c1.24-1.73.57-3.92,1.41-5.77.75-1.68.92-3.63,2.9-4.58,1.18-.56.45-1.55,0-2.11-2-2.34-4.76-3.61-7.39-5.09a45,45,0,0,0-14.68-5.6,30.29,30.29,0,0,0-7.68-.06,22.1,22.1,0,0,0-12.22,5c-1.12.9-2.09,0-3.12-.24" style="fill:none;stroke:#000;stroke-linecap:round;stroke-linejoin:round;stroke-width:2px"/><path d="M804.64,656.44c-3.84,4.74-7.37,9.72-11.21,14.46a2.26,2.26,0,0,1-2,1.14" style="fill:none;stroke:#000;stroke-linecap:round;stroke-linejoin:round;stroke-width:2px"/><path d="M776.8,541.48c2.3-2.61,5.58-2.83,8.65-3.31,6.12-1,11.54.88,16.32,4.74a4.51,4.51,0,0,0,1.19.49" style="fill:none;stroke:#000;stroke-linecap:round;stroke-linejoin:round;stroke-width:2px"/><path d="M699.28,478.12a1.84,1.84,0,0,0-1.2.72c-2.62,4.7-6.91,6.52-12,7" style="fill:none;stroke:#000;stroke-linecap:round;stroke-linejoin:round;stroke-width:2px"/><path d="M688.48,474.52a60.4,60.4,0,0,0-5-7c-1.21-1.59-3.05-2.65-3.65-4.79-.35-1.24-2-1.19-2.86-2.14a27.77,27.77,0,0,0-9.88-6.82A21.39,21.39,0,0,0,655.6,452a48.91,48.91,0,0,1-5.76.69c-1.65.05-2.78,1.25-4.32,1.49a21.49,21.49,0,0,0-8.88,3.83,6.92,6.92,0,0,0-2.64,8.16" style="fill:none;stroke:#000;stroke-linecap:round;stroke-linejoin:round;stroke-width:2px"/><path d="M686.32,454.36c-.16,4.08-.34,8.16-.46,12.24a1.84,1.84,0,0,1-1.22,1.92" style="fill:none;stroke:#000;stroke-linecap:round;stroke-linejoin:round;stroke-width:2px"/><path d="M653.44,439.24c-.26,2.48-1.88,4.43-2.62,6.72-.69,2.13-2.09,4.07-1.7,6.48" style="fill:none;stroke:#000;stroke-linecap:round;stroke-linejoin:round;stroke-width:2px"/><path d="M647.2,440.92c.25.4.24.94.81,1.23a24.92,24.92,0,0,0-6.13,10.28,3.72,3.72,0,0,0,0,2.17" style="fill:none;stroke:#000;stroke-linecap:round;stroke-linejoin:round;stroke-width:2px"/><path d="M677.2,445.48c-1.34,3-1.57,6.25-2.31,9.38a4.76,4.76,0,0,1-1.29,2.38" style="fill:none;stroke:#000;stroke-linecap:round;stroke-linejoin:round;stroke-width:2px"/><path d="M752.8,544.12c-1.51,4-3.31,7.86-5,11.76" style="fill:none;stroke:#000;stroke-linecap:round;stroke-linejoin:round;stroke-width:2px"/><path d="M671.44,442.6c-2,3.41-3,7.21-4.56,10.8" style="fill:none;stroke:#000;stroke-linecap:round;stroke-linejoin:round;stroke-width:2px"/><path d="M664.72,442.36c-3.8,1.86-5.31,5.22-6,9.12" style="fill:none;stroke:#000;stroke-linecap:round;stroke-linejoin:round;stroke-width:2px"/><path d="M782.08,532.36a4.52,4.52,0,0,0,2.37,2.22,6.63,6.63,0,0,1,3.39,2.82" style="fill:none;stroke:#000;stroke-linecap:round;stroke-linejoin:round;stroke-width:2px"/></g></svg>
