<svg xmlns="http://www.w3.org/2000/svg" viewBox="0 0 1366 768"><title>text</title><g id="Layer_18" data-name="Layer 18"><path d="M1032.6,614c-1.21,1-2.26,2.08-3.43,3a15.07,15.07,0,0,1-6.89,2.63c-1.36.21-2.75.28-4.13.36a4.28,4.28,0,0,1-3.12-1.21,8.51,8.51,0,0,1-2.89-7.68c.15-1.65.36-3.3.63-4.94a3.36,3.36,0,0,1,.73-1.43c1.23-1.55,2.5-3.06,3.77-4.59a27,27,0,0,1,2.51-2.91,8.49,8.49,0,0,1,2.34-1.14,4.63,4.63,0,0,0,1-.36c1-.78,1.81-.5,2.75.16,1.26.88,2.58,1.66,3.2,3.15a2,2,0,0,1,.25,1.31c-.66,1.78-.8,3.83-2.48,5.12-.62.47-1.23,1-1.88,1.37a11.9,11.9,0,0,1-5.48,1.67c-1,.11-1.2.47-1.56,1.47a8,8,0,0,0,.15,4.61,3.1,3.1,0,0,0,3.2,2.16,12,12,0,0,0,5-1.15c.67-.31,1.38-.52,2-.84s1.3-.67,1.93-1c.32-.19.56-.52.89-.65a2.19,2.19,0,0,0,1.39-2.29,69.61,69.61,0,0,1,1.29-11.24c.26-1.3.2-2.66.9-3.88a3.32,3.32,0,0,1,3.23-1.65,2.15,2.15,0,0,1,2,2.28,15.72,15.72,0,0,1-.7,5.31,29.58,29.58,0,0,0-1.15,7.37c-.08,1.47,0,3,0,4.43a7.8,7.8,0,0,0,.22,1.25h.31c.28-.85.61-1.69.85-2.55a45.19,45.19,0,0,1,4.16-10.36,11.58,11.58,0,0,0,1.35-4.74,2.92,2.92,0,0,1,1.11-2.28c.73-.53,1.4-1.35,2.45-.81s2.24,1.33,2.22,2.89a8.1,8.1,0,0,1-.67,3.92,1.3,1.3,0,0,0-.14.39c-.4,2.07-1.65,3.75-2.51,5.62-1,2.11-2.23,4.12-2.75,6.46a43.13,43.13,0,0,1-1.75,5.37,3.48,3.48,0,0,1-3.85,2,1.65,1.65,0,0,1-.86-.79c-.64-1.2-.62-1.22-1.78-.68a1.26,1.26,0,0,1-1.63-.23,4.12,4.12,0,0,1-1.26-1.93C1033.23,615.87,1032.89,614.91,1032.6,614Zm-10.29-11.39c1-.24,1.37-.83,1.83-1.75C1023.14,601.18,1022.4,601.44,1022.31,602.57Z"/><path d="M1120,598.66c.23-.13.36-.17.38-.22.37-1.74,1.33-3.34,1.26-5.19a2.7,2.7,0,0,1,.94-2.21,8.16,8.16,0,0,0,.82-1.11,2.25,2.25,0,0,1,3.4-.31,3.22,3.22,0,0,1,1.21,2.11,1.56,1.56,0,0,0,1.09,1.42,3.39,3.39,0,0,1,1.29,1.15,1,1,0,0,1-.19,1.47,1,1,0,0,1-1.48-.13c-.35-.41-.7-.88-1.39-.76-.53,2.12-1.06,4.23-1.63,6.53a10.12,10.12,0,0,0,1.72-.29c.69-.23,1.35-.58,2-.88,1.19-.53,3.15,0,3.64,1.13a5.24,5.24,0,0,1,0,2,27,27,0,0,0-2.7,1.68,12.26,12.26,0,0,1-5.19,2.1c-1.09.24-1.41.43-1.67,1.52a75.51,75.51,0,0,0-1.89,12c-.06.87-.16,1.74-.2,2.61a1.21,1.21,0,0,1-.82,1.16.89.89,0,0,1-.26.09c-3.23.46-3.39.52-3.59-2.5a55.11,55.11,0,0,1,.29-9.26c.11-1.05.41-2.08.6-3.12a2.58,2.58,0,0,0-.25-2.13,1.16,1.16,0,0,1,.2-1.52,16.6,16.6,0,0,0,1.26-1.64c.16-.26.07-.66.1-1a2.55,2.55,0,0,0-1,0,3.18,3.18,0,0,0-.9.82c-.34.39-.62.81-.93,1.21a1.38,1.38,0,0,1-1.48.5.64.64,0,0,1-.57-.91c.49-1.43,1-2.85,1.5-4.28a2.59,2.59,0,0,0,.23-.93,2.94,2.94,0,0,0-4.3-2.3,11.86,11.86,0,0,0-4.33,4.57c-1.62,3.31-1.62,5.77,1.33,8.81a28.43,28.43,0,0,1,2.47,2.8,11.39,11.39,0,0,1,1.43,2.66,2.35,2.35,0,0,1-1.69,2.88,13.18,13.18,0,0,1-1.78.27c-2.45.18-4.07-1.19-5.41-3a1.68,1.68,0,0,1-.09-2,1.65,1.65,0,0,0-.12-1.94,16.56,16.56,0,0,1-1.22-2,11.47,11.47,0,0,1,2.18-12.91c.7-.79,1.38-1.61,2.1-2.38a7.37,7.37,0,0,1,4.27-2.37c1.55-.24,3.08-.64,4.64-.05a6.28,6.28,0,0,1,3.58,3.26C1119.28,596.89,1119.62,597.78,1120,598.66Z"/><path d="M1048.75,617.1a25.79,25.79,0,0,1,1.45-7.1c1.29-3.72,3.71-6.66,6.16-9.58a17.32,17.32,0,0,1,3.8-3.17,2.89,2.89,0,0,1,3.5-.15c.41.3.94.41,1.35.7a4,4,0,0,1,1.67,4.61,9.41,9.41,0,0,1-2.39,4.45c-.94.95-1.71,2.07-2.71,2.94a14.86,14.86,0,0,1-3,1.9c-1,.52-2.13.85-3.18,1.32a1.47,1.47,0,0,0-.62.66,8.63,8.63,0,0,0-.64,5.41,2.17,2.17,0,0,0,2.71,1.88,10.75,10.75,0,0,0,2.34-.79c1.29-.61,2.56-1.27,3.8-2a12.23,12.23,0,0,0,3.41-3.39,7.87,7.87,0,0,1,.55-.79c1.26-1.23,1.45-2.79,1.53-4.45.15-3.17.35-6.34.63-9.51.2-2.2,1.86-3.11,3.86-2.28a2.46,2.46,0,0,1,1.36,2.24c.18,1.22.19,1.24,1.29.82a9.27,9.27,0,0,1,1.6-.34c.64-.12,1.28-.2,1.9-.34a6.43,6.43,0,0,1,5.53,1.51.79.79,0,0,1,0,1.39,5.67,5.67,0,0,1-1.73.8c-1.34.34-2.71.55-4,.89a4.37,4.37,0,0,0-3,2.49,15.48,15.48,0,0,0-1,3.41,34.06,34.06,0,0,0-.82,8.24,3.25,3.25,0,0,1-.08.69c-.18.88-.38,1.73-1.41,2s-2.26.48-3.25-.46a2.27,2.27,0,0,1-.73-1.58,7.52,7.52,0,0,0-.11-1.51,1.15,1.15,0,0,0-.63-.75,1.23,1.23,0,0,0-.88.45,14.73,14.73,0,0,1-1.35,1.9c-3.42,3-7.34,4.68-12,4.22a4.28,4.28,0,0,1-4.08-3.34C1049.08,619.26,1048.91,617.93,1048.75,617.1Z"/><path d="M1119.07,577.74a2.38,2.38,0,0,1-2.21-1.91c-.22-.69-.45-1.39-.68-2.08-.28-.85-1-1.1-1.52-.38a11.86,11.86,0,0,1-4.48,3.39,24.08,24.08,0,0,1-5.29,1.92,5.94,5.94,0,0,1-2.71-.29,2.17,2.17,0,0,1-1.65-1.86,22.38,22.38,0,0,1-.09-7.26c.44-3.22,2.1-5.85,3.5-8.62a7,7,0,0,0,.47-1,7.66,7.66,0,0,1,2.12-3.19,15.91,15.91,0,0,0,1.25-1.47,4.4,4.4,0,0,1,2.52-1.82,4.3,4.3,0,0,0,1.33-.71,4.5,4.5,0,0,1,2.34-.74,3.17,3.17,0,0,0,1.28-.39,1.68,1.68,0,0,1,2.35.33c.88.81,1.76,1.62,2.62,2.45a3.14,3.14,0,0,1,.49.66,8.29,8.29,0,0,1,.87,7.34,23.1,23.1,0,0,0-.7,10,2.11,2.11,0,0,0,1.84,2.06c1.46.34,1.57.93.56,2.05S1121.11,577.71,1119.07,577.74Zm-2.73-18.41a10.07,10.07,0,0,0,0-1.1c-.14-1.45-1.12-2-2.43-1.4a7.27,7.27,0,0,0-1.31,1c-.32.27-.58.6-.91.84a10,10,0,0,0-2.75,3.41c-.72,1.28-1.38,2.59-2,3.9a14.63,14.63,0,0,0-1.73,7.42c0,1.11.7,1.54,1.63,1a14.25,14.25,0,0,0,4.44-3.43,27.34,27.34,0,0,0,3.6-5.53A14.18,14.18,0,0,0,1116.34,559.33Z"/><path d="M1166.57,602.81a12.8,12.8,0,0,1-1,4.4,39.26,39.26,0,0,1-3.64,6.49,23.74,23.74,0,0,1-2.61,3,13.83,13.83,0,0,1-2.42,1.8,3,3,0,0,0-1.72,2.42c-.19,1.95-.82,3.86-1.19,5.8-.3,1.58-.48,3.19-.74,4.78-.18,1-.42,2.07-.61,3.12a1.1,1.1,0,0,1-1.19,1.07,13.25,13.25,0,0,0-1.36.22c-1.65.24-2.65-.6-2.5-2.25.17-1.92.45-3.84.73-5.76.33-2.18.88-4.33,1-6.52a23.2,23.2,0,0,1,1.52-7c.35-.89.43-1.88.71-2.8.59-1.89,1.27-3.76,1.82-5.65s1.08-4,1.56-6a3.73,3.73,0,0,1,4.43-2.93,3.87,3.87,0,0,0,1.76,0,3.1,3.1,0,0,1,3.55,1.13A6.59,6.59,0,0,1,1166.57,602.81Zm-7.83,6.94c1.79-2.74,2.44-4.46,2.14-5.54C1159.56,605,1158.43,607.73,1158.74,609.75Z"/><path d="M1005.33,601.06a12.56,12.56,0,0,0-1.28,1.89c-.87,1.93-1.65,3.89-2.45,5.85-.33.81-.66,1.62-.93,2.44a15.23,15.23,0,0,0-.68,5.19,2.47,2.47,0,0,1-1.14,2.23c-.73.51-1.5,1-2.41.55a2.67,2.67,0,0,1-1.71-2.48c.06-2.21.09-4.42.16-6.63.11-3.68.34-7.37.32-11.05a9.13,9.13,0,0,1,1.38-4.41c.52-1,1.6-.73,2.51-.7a1.51,1.51,0,0,1,1.48,1.23,15.13,15.13,0,0,1,.25,1.5c0,.35.12.7.18,1,.62.11.76-.25.85-.61a5.44,5.44,0,0,1,2-2.72,2.14,2.14,0,0,1,1.11-.48,4.76,4.76,0,0,1,5,3.72,46.46,46.46,0,0,1,.58,11.29c-.11,1.46,0,3-.12,4.41s-.57,3.16-.87,4.73a1.56,1.56,0,0,1-1.12,1.27,5,5,0,0,0-1.3.75,1.06,1.06,0,0,1-1.77-.43,3,3,0,0,1-.19-1.22q.16-5.52.37-11c.06-1.61.18-3.21.24-4.82a10.13,10.13,0,0,0-.17-1.43Z"/><path d="M1087,559.11c1.38-.32,2.48-.62,3.6-.84a3.56,3.56,0,0,1,3.45.89,6.05,6.05,0,0,1,1.81,3c.39,1.8.91,3.57.41,5.45-.37,1.43-.61,2.89-.93,4.33a4.56,4.56,0,0,1-2.29,3c-1.13.68-1.81.41-2.11-.88a4.2,4.2,0,0,1,0-1.5c.23-1.59.62-3.17.75-4.77a22.67,22.67,0,0,0-.18-3.58c0-.59-.45-.73-1-.69a1.64,1.64,0,0,0-1.42,1c-1.12,2.34-2.13,4.71-2,7.39,0,.93-.07,1.86,0,2.77a3,3,0,0,1-1.42,2.67,1.84,1.84,0,0,1-1.29.28,3.16,3.16,0,0,1-2.74-3.16c-.17-3.68-.43-7.36-.52-11-.06-2.67.11-5.34.12-8,0-2.12-.07-4.24-.11-6.36,0-1.29-.07-2.59,0-3.87a1.9,1.9,0,0,1,.56-1.18c.41-.4,1-1,1.45-.87a4.05,4.05,0,0,1,2.63,1.36,5.51,5.51,0,0,1,1.08,3.21c-.07,3.14-.07,6.28-.07,9.42A18.77,18.77,0,0,0,1087,559.11Z"/><path d="M1149.72,607.39c.36,2.86-.69,5.26-2.11,7.68a14.9,14.9,0,0,1-4.78,5,7.21,7.21,0,0,1-1.87.86c-1.54.46-3.1.86-4.66,1.25a3.75,3.75,0,0,1-2.82-.25c-2.23-1.23-3.63-2.94-3.4-5.65.08-.92.11-1.84.1-2.76a13.19,13.19,0,0,1,1.8-6.19,26.21,26.21,0,0,1,6.46-8.17,2.74,2.74,0,0,1,3.1-.26,2.76,2.76,0,0,0,2.35.38c2.15-.5,3.53.38,4.7,2.22S1149.61,605.4,1149.72,607.39Zm-4.93-.32c-.07-.82-.08-1.66-.23-2.47-.23-1.3-.76-1.54-1.93-1-.58.28-1.19.51-1.75.83a5.53,5.53,0,0,0-1.3.94,17.61,17.61,0,0,0-3.39,5.81,12,12,0,0,0-.9,5.55c.1,1.07.43,1.39,1.47,1.44a3.72,3.72,0,0,0,3-1.17c1.09-1.18,2.17-2.39,3.15-3.66A8,8,0,0,0,1144.79,607.07Z"/><path d="M1216.53,617.16c-2.42,1.94-5.07,1.5-7.61,1.26-1.44-.13-2.27-1.32-2.81-2.61a15.82,15.82,0,0,1-.09-11.49c.62-1.82,1.42-3.6,2.17-5.38a2.53,2.53,0,0,1,3.26-1.48c2.42.75,2.48.84,1.85,3.31a9.77,9.77,0,0,1-1.36,3.45,5.86,5.86,0,0,0-.68,1.65c-.3.92-.53,1.86-.82,2.79a9.52,9.52,0,0,0,.06,4.8c.37,1.82,1.56,2.13,3.22,1.14,2.45-1.46,3.58-3.74,4.17-6.4.33-1.52.61-3.06,1-4.56a7.46,7.46,0,0,1,1.06-1.93c.37-.58.81-1.11,1.2-1.68a1.56,1.56,0,0,1,2.11-.77c2.13.63,2.86,2.21,1.61,4a15.3,15.3,0,0,0-1.63,4.35c-.52,1.61-.78,3.32-1.18,5a11.46,11.46,0,0,0,.15,6.28,4.11,4.11,0,0,1,.24,1.08,1,1,0,0,1-.92,1.14,3.61,3.61,0,0,1-4.12-2.06C1217.17,618.47,1216.9,617.9,1216.53,617.16Z"/><path d="M1133.65,560.41c.69-.45,1.11-.79,1.58-1a4,4,0,0,1,4.2-.07,1.32,1.32,0,0,1,.7,1.24,3.37,3.37,0,0,1-2.3,3.23,3.72,3.72,0,0,0-1.21.65,6.65,6.65,0,0,1-3.23,1.48c-1,.21-1.15.41-1.23,1.37-.23,2.62-.48,5.24-.6,7.87a25.91,25.91,0,0,0,.24,3.72c.14,1.47.06,1.64-1.36,2.23-.13,0-.24.13-.36.19-1.66.85-2.72.52-3.14-1.28a21.34,21.34,0,0,1-.78-7.8c.35-2.55.47-5.13.83-7.68.42-3,1-5.9,1.51-8.86q.43-2.67.73-5.34a3.89,3.89,0,0,1,.63-2.07,3,3,0,0,0,.36-1.54c0-.63-.08-1.28-.06-1.92a1.62,1.62,0,0,1,1.12-1.46,3,3,0,0,1,4,2,6,6,0,0,1,.22,2.18c-.38,2.64-.87,5.27-1.34,7.89-.19,1.09-.48,2.16-.65,3.25A9.51,9.51,0,0,0,1133.65,560.41Z"/><path d="M1066.79,556.84c.51,0,1,0,1.52,0,1.22-.06,1.54-.36,1.7-1.55a5.7,5.7,0,0,0,.1-.83c-.07-1.92.75-3.68,1.05-5.53a7.67,7.67,0,0,0,.06-4.09,1,1,0,0,1,.13-.78c.56-.9,1.15-1.78,1.75-2.65s1.42-.76,2.25-.58a1.9,1.9,0,0,1,1.58,1.55,18.24,18.24,0,0,1-.76,10,13.86,13.86,0,0,0-.36,3.55c0,.48.3.71.76.83a7.11,7.11,0,0,1,1.57.54,2.1,2.1,0,0,1,1.23,1.87c0,.74-.57,1.09-1.15,1.42a5.09,5.09,0,0,1-2.4,1,1.14,1.14,0,0,0-1.09,1.08c-.2,1.13-.4,2.26-.54,3.41-.24,2-.43,3.94-.65,5.91a2.91,2.91,0,0,1-3.72,2.25,1.77,1.77,0,0,1-.85-1.14,17.19,17.19,0,0,1-.27-3.43c.07-1.89.28-3.77.42-5.66a10.29,10.29,0,0,0,0-1.11c0-1.49-.28-1.79-1.73-1.91-.69-.06-1.39,0-2.07-.15a15,15,0,0,1-2-.55,1.45,1.45,0,0,1-1.15-1.53,1.72,1.72,0,0,1,1.3-1.62,32,32,0,0,1,3.26-.49Z"/><path d="M1232.91,618c-.5-.38-.7-.55-.91-.7a18.08,18.08,0,0,1-4.37-4.18c-2-2.68-1.92-5.63-1.29-8.72.47-2.33,2.21-3.53,3.86-4.84.57-.45,1.23-.8,1.82-1.23,2.26-1.65,5-1.87,7.58-2.37.31-.06.65,0,1-.11,1.67-.44,2.6.53,3.37,1.78.42.68.35,1.11-.41,1.45a8.06,8.06,0,0,1-2.62.82,15.92,15.92,0,0,0-9.37,5,1.4,1.4,0,0,0-.3.61c-.17,1.47-.52,3,.22,4.35a11.38,11.38,0,0,0,2.38,3c1.41,1.25,3,2.25,4.52,3.4a9.48,9.48,0,0,1,1.6,1.5,1.76,1.76,0,0,1-.85,2.9,25.64,25.64,0,0,1-3.89.94c-2.08.32-4.17.86-6.29.21a12.42,12.42,0,0,1-1.66-.65,1.41,1.41,0,0,1-.77-1.61c.12-1.17.52-1.48,1.71-1.43s2.39.06,3.59.07A9,9,0,0,0,1232.91,618Z"/><path d="M1183,598.62a4.23,4.23,0,0,0-4.26.63c-2.14,1.58-3.54,3.47-3.31,6.26a3.68,3.68,0,0,0,.11.82,48,48,0,0,0,3.15,8.1,4,4,0,0,1,.45,1.43,2.27,2.27,0,0,1-1.72,2.49,4.48,4.48,0,0,1-3.7-.73,6.35,6.35,0,0,1-2.28-2.35c-.68-1.3-1.52-2.51-2.32-3.74-.66-1-.59-1.38.52-1.87a11.87,11.87,0,0,1,1.29-.4,3.25,3.25,0,0,0-.06-1c-.76-2-.36-4.11-.36-6.16a3.37,3.37,0,0,1,.56-1.39c1.05-2,2.2-4,4.07-5.15,1.35-.86,2.7-2.2,4.62-1.74a.78.78,0,0,0,.4,0c2.59-.79,4.55.21,6.24,2.11a5.55,5.55,0,0,1,1.53,2.87,2.34,2.34,0,0,1-.43,1.92c-.31.4-.69.76-1,1.18a1.48,1.48,0,0,1-1.46.79,4,4,0,0,0-1.58.44,1.14,1.14,0,0,1-1.56-.44,1,1,0,0,1,.24-1.35C1183,600.57,1182.94,599.65,1183,598.62Z"/><path d="M1251.35,613.87a1.19,1.19,0,0,1,.53.11,16.35,16.35,0,0,1,2.79,2.19c.93,1.07.22,2.45-1.21,2.69a6.88,6.88,0,0,0-1,.39c-1.1.4-1.58.21-2.15-.81s-1.2-2.3-.46-3.65A1.35,1.35,0,0,1,1251.35,613.87Z"/><path d="M1022.31,602.57c.09-1.13.83-1.39,1.83-1.75C1023.68,601.74,1023.28,602.33,1022.31,602.57Z" style="fill:#fff"/><path d="M1116.34,559.33a14.18,14.18,0,0,1-1.52,6.11,27.34,27.34,0,0,1-3.6,5.53,14.25,14.25,0,0,1-4.44,3.43c-.93.53-1.58.1-1.63-1a14.63,14.63,0,0,1,1.73-7.42c.67-1.31,1.33-2.62,2-3.9a10,10,0,0,1,2.75-3.41c.33-.24.59-.57.91-.84a7.27,7.27,0,0,1,1.31-1c1.31-.63,2.29-.05,2.43,1.4A10.07,10.07,0,0,1,1116.34,559.33Z" style="fill:#fff"/><path d="M1158.74,609.75c-.31-2,.82-4.8,2.14-5.54C1161.18,605.29,1160.53,607,1158.74,609.75Z" style="fill:#fff"/><path d="M1144.79,607.07a8,8,0,0,1-1.88,6.29c-1,1.27-2.06,2.48-3.15,3.66a3.72,3.72,0,0,1-3,1.17c-1-.05-1.37-.37-1.47-1.44a12,12,0,0,1,.9-5.55,17.61,17.61,0,0,1,3.39-5.81,5.53,5.53,0,0,1,1.3-.94c.56-.32,1.17-.55,1.75-.83,1.17-.56,1.7-.32,1.93,1C1144.71,605.41,1144.72,606.25,1144.79,607.07Z" style="fill:#fff"/><path d="M996.33,559.16c-.18-3.94.6-7.8,1.14-11.68.23-1.6.51-3.19.64-4.79.1-1.16.85-1.54,1.74-1.89a2.25,2.25,0,0,1,2.45.44,2.84,2.84,0,0,1,.59,1.62,21.1,21.1,0,0,1-.37,6.19c-.24,1.46-.65,2.89-.79,4.35-.2,2.2-.27,4.42-.32,6.63,0,1.25.38,1.43,1.52.81s2-1.1,3-1.6a4.35,4.35,0,0,1,4.81.53c.48.35,1,.65,1.5,1a2.93,2.93,0,0,1,.78,4.6,25.4,25.4,0,0,0-2.35,3.4,6,6,0,0,1-3.76,2.83,5.84,5.84,0,0,1-5.08-.41c-.51-.32-1.06-.57-1.59-.85a6.73,6.73,0,0,1-3.94-5.9C996.26,562.67,996.33,560.92,996.33,559.16Zm12.41,5.77c-.48-1.07-.7-1.3-1.55-1.17a8.87,8.87,0,0,0-5.44,2.69,3.53,3.53,0,0,0,2.81,1C1006.42,567.4,1007.66,566.29,1008.74,564.93Z"/><path d="M1020.82,566a9.57,9.57,0,0,0,1.13-1,18.59,18.59,0,0,0,1.89-2.54,16.32,16.32,0,0,0,1.32-3.17c.5-1.68.82-3.4,1.3-5.08.41-1.46.88-2.91,1.43-4.33a1.65,1.65,0,0,1,2.77-.12,4.43,4.43,0,0,1,.68,2.19,22.37,22.37,0,0,1-.38,4c-.4,2.36-1,4.68-1.35,7a40.71,40.71,0,0,0-.14,4.56,1,1,0,0,0,.76,1c.43.14.84.35,1.42.59a5.87,5.87,0,0,1-.65,1.26,22.06,22.06,0,0,1-2.1,2,1.67,1.67,0,0,1-2.57-.18,4.26,4.26,0,0,1-1.38-2.64,7,7,0,0,0-.58-1.57,11.22,11.22,0,0,0-3,2,2.85,2.85,0,0,1-4.28.06,4.84,4.84,0,0,1-1.55-3.7,33.65,33.65,0,0,1,1-10.57,34.77,34.77,0,0,0,.93-4,3.17,3.17,0,0,1,1.49-2.07,1.89,1.89,0,0,1,2.78.79,3.93,3.93,0,0,1,.29,2.83c-.64,3.12-1.14,6.26-1.47,9.42A5.81,5.81,0,0,0,1020.82,566Z"/><path d="M1044.58,544.71q-.43,3.56-.85,7.13c0,.18-.07.36-.09.55-.16,1.34,0,1.52,1.41,1.36a10.88,10.88,0,0,1,2.34-.12,3.36,3.36,0,0,1,1.6.68c.76.62.73,1.08.13,1.87a3.53,3.53,0,0,0-.77,1.27c-.18.91-.74,1.18-1.54,1.32s-1.6.38-2.42.51-.89.56-.88,1.18c0,2,.07,4,.12,5.93,0,1,.06,1.94.13,2.9.13,1.69-.77,3-1.6,4.33a1.8,1.8,0,0,1-2.67,0,5.61,5.61,0,0,1-.86-2.28c-.28-2.61-.43-5.23-.62-7.85a9.09,9.09,0,0,1,0-1.38,1.57,1.57,0,0,0-.74-1.53c-.76-.52-1.49-1.08-2.28-1.55a1.26,1.26,0,0,1-.72-1.36c.09-.64.17-1.32.91-1.58.43-.15.89-.23,1.33-.37,1.17-.36,1.43-.75,1.57-2,.4-3.52.83-7,1.26-10.56a3.85,3.85,0,0,1,1.6-2.5,2,2,0,0,1,2.23-.17,2.13,2.13,0,0,1,1.28,2c0,.74,0,1.48,0,2.21Z"/><path d="M964.84,557.65c2.87-.37,5.74-.77,8.62-1.11,1.64-.19,3.3-.31,4.95-.43,2.22-.16,3.32.49,3,3.19,0,.18,0,.37,0,.55a1.32,1.32,0,0,1-1.35,1.3c-3.93.48-7.86,1-11.8,1.41a26.87,26.87,0,0,1-4.82-.17,1.58,1.58,0,0,1-1.64-1.68,3,3,0,0,0-.37-1,1.53,1.53,0,0,1,1.36-2.24c.68,0,1.38,0,2.07,0Z"/><path d="M1008.74,564.93c-1.08,1.36-2.32,2.47-4.18,2.49a3.53,3.53,0,0,1-2.81-1,8.87,8.87,0,0,1,5.44-2.69C1008,563.63,1008.26,563.86,1008.74,564.93Z" style="fill:#fff"/></g></svg>