<svg xmlns="http://www.w3.org/2000/svg" viewBox="0 0 1366 768"><g id="Layer_18" data-name="Layer 18"><path d="M258.78,230.78c-2.37,2.62-4.67,4.7-7.95,5.24a3.21,3.21,0,0,0-.79.27,3.3,3.3,0,0,1-4.43-1.25,11.44,11.44,0,0,1-1.84-7.24c.26-2,.73-4,1.18-6a7.16,7.16,0,0,1,.87-2c.74-1.26,1.58-2.47,2.37-3.7a9.2,9.2,0,0,0,.84-1.41,4.58,4.58,0,0,1,4.32-2.86,4.28,4.28,0,0,1,3.58,2.23,4.86,4.86,0,0,0,.75,1.15,7.29,7.29,0,0,1,2.23,3.89,25.06,25.06,0,0,0,.9,2.58,4.38,4.38,0,0,0,1.58-1.93,15,15,0,0,1,1.68-3c1-1.35,2-2.65,3.08-3.92s1.52-1.16,2.71-.27c1,.72,1.89,1.49,2.8,2.26a9.28,9.28,0,0,1,.71.82,7,7,0,0,0,1.25,1.24,3,3,0,0,1,1.4,1.79,1.81,1.81,0,0,0,1,1.43,1.66,1.66,0,0,0,1-1.76c-.11-1.79-.1-3.59-.18-5.39,0-.64-.24-1.27-.25-1.91,0-1.7,0-3.41.07-5.11a3.1,3.1,0,0,1,2.26-2.14,2.42,2.42,0,0,1,2.31,2,22.79,22.79,0,0,1,.38,2.61c.18,2.11.32,4.22.47,6.34,0,.14,0,.28,0,.41,0,.55,0,1.18.6,1.44s.91-.29,1.28-.61a2.45,2.45,0,0,1,3.85.11c1.38,1.43,1.41,1.55,0,3a8.82,8.82,0,0,1-3.47,2.23,2.35,2.35,0,0,0-1.81,2.59c.07,1.24,0,2.5.15,3.73.28,2.24.06,4.52.82,6.71.43,1.24.21,1.42-1.13,1.93-.34.13-.66.34-1,.49-1.14.52-1.71.22-2.38-.85a11.61,11.61,0,0,1-1.43-5.63c-.1-1.57-.13-3.14-.24-4.71a8.74,8.74,0,0,0-.35-1.89.79.79,0,0,0-1.09-.56c-.23.11-.34.59-.37.92-.28,2.91-.69,5.76-2.94,7.93a21.33,21.33,0,0,1-2.33,2.14,16.09,16.09,0,0,1-7.55,2.71,5.47,5.47,0,0,1-3.3-.89,2.82,2.82,0,0,1-1.3-2.33Zm13.36-7.35c-.08-.92-.14-1.84-.25-2.75a4.8,4.8,0,0,0-1.33-2.81c-.7-.71-.84-.76-1.47.06a31.62,31.62,0,0,0-3.64,6.9,26.52,26.52,0,0,0-1.33,4.77,7.9,7.9,0,0,0-.1,2.33c.09,1,.74,1.38,1.6.83a32.5,32.5,0,0,0,2.78-2C270.74,228.86,272.34,226.61,272.14,223.43Zm-23.57,5.76c.13,1.14,0,2.24,1,3.11.66.6,1,.7,1.62.08a17,17,0,0,0,4.07-5.65,10.7,10.7,0,0,0-.51-8.69c-.36-.78-.82-.91-1.38-.29a17.78,17.78,0,0,0-2.84,3.67,9.71,9.71,0,0,0-1.36,4.4A18.72,18.72,0,0,1,248.57,229.19Z"/><path d="M274.22,163.68c-.86-.37-1.25.2-1.68.57-1.45,1.27-2.82,2.65-4.35,3.83-1.08.83-2.43,1.29-3.55,2.09a10.87,10.87,0,0,1-8.31,1.74,5.87,5.87,0,0,1-3.78-2.38c-.92-1.18-1.24-1.16-2.6-.4a9.29,9.29,0,0,1-8.25.82,5.57,5.57,0,0,1-3.45-4.36,13.13,13.13,0,0,1,0-6.17,3.87,3.87,0,0,0-.21-2c-.36-1.17-.28-1.66.79-2.31A4.9,4.9,0,0,0,241.3,152a1.53,1.53,0,0,1,.31-.76c1.19-1.19,2.1-2.71,3.73-3.4,1-.41,1.75-1.13,2.88-1.23a4.61,4.61,0,0,1,4.48,2.26,7.58,7.58,0,0,0,1.34,1.55,1.74,1.74,0,0,1,.07,2.85,8.08,8.08,0,0,0-.6.57c-2.32,2.73-5.42,3.84-8.84,4.34a8.45,8.45,0,0,0-1.21.27,1,1,0,0,0-.79,1c0,1.84-.21,3.67.59,5.44a2.85,2.85,0,0,0,2.35,1.87A7.4,7.4,0,0,0,251.3,165a5.94,5.94,0,0,0,1.28-2.53c.55-1.46.88-3,1.54-4.42a17.55,17.55,0,0,1,2.18-3.15,13.29,13.29,0,0,1,2.17-2.32c1.36-1,2.47-2.5,4.37-2.69.24,0,.47-.25.69-.41.43-.32.82-.9,1.27-.94a6.16,6.16,0,0,1,2.71.26,4.44,4.44,0,0,1,2.17,6.12,5.89,5.89,0,0,1-3.41,3.4,2.61,2.61,0,0,0-.94.57,4.56,4.56,0,0,1-3.61,1c-.83-.06-1.66-.15-2.49-.17-1.18,0-1.64.37-1.84,1.58s-.42,2.34-.57,3.53a5.64,5.64,0,0,0,.08,1.64,1.79,1.79,0,0,0,1.6,1.52,6.39,6.39,0,0,0,3.65-.47c1-.45,2.1-.7,3.07-1.2a30.65,30.65,0,0,0,3.12-1.95,11.66,11.66,0,0,0,1.49-1.22c1.22-1.18,2.49-2.33,3.59-3.62a3.4,3.4,0,0,0,.67-2.05c0-2.16-.09-4.33-.11-6.49,0-1.42.1-2.85,0-4.27-.14-3.95.27-7.91-.26-11.86a4.57,4.57,0,0,1,.38-2.13,1.84,1.84,0,0,1,3.1-.67,3.74,3.74,0,0,1,1.3,2.23,30.94,30.94,0,0,1,.4,3.57c.14,3.32.22,6.64.28,10,0,2.11,0,4.23,0,6.35.1,3,.24,5.89.43,8.84a12.75,12.75,0,0,1-.92,5.8c-.49,1.18-.85,1.34-2,1.22a2,2,0,0,1-1.91-1.71c-.08-.4-.06-.83-.12-1.24C274.55,166,274.38,164.8,274.22,163.68Zm-25.57-13.29c-1.88.28-2.17.5-2.4,1.74C247.91,152.15,248.48,151.76,248.65,150.39Zm15.07,3.05c-.89.38-1.9.41-2,1.63C263.59,155.22,264.06,154.86,263.72,153.44Z"/><path d="M276.16,89.8c-1.32.41-2.44.78-3.58,1.11a.94.94,0,0,0-.77,1c.06,1.93-.46,3.83-.18,5.8a55.71,55.71,0,0,1,.34,5.79,3,3,0,0,0,.81,2,4.88,4.88,0,0,1,.54.8.74.74,0,0,1-.35,1.15,9.21,9.21,0,0,1-1.67.66,2.4,2.4,0,0,1-3.1-1.6c-.22-.51-.43-1-.69-1.51a10.94,10.94,0,0,1-1.07-5.5c.05-1.84-.16-3.68-.23-5.52a1.59,1.59,0,0,0-1.2-1.64,9.31,9.31,0,0,1-1.52-.82,3.63,3.63,0,0,1,2-2.17,2.37,2.37,0,0,0,1.27-2.24c.12-3,.37-5.89.53-8.84.07-1.41,1.09-2.18,2-3a1.32,1.32,0,0,1,1.67,0,3.12,3.12,0,0,1,1.38,2.86c.09,1.93.15,3.87.25,5.81,0,.56-.24,1.29.54,1.55s1.31-.19,1.82-.71a2.26,2.26,0,0,0,.77-1.85c-.09-.92-.18-1.83-.29-2.75q-.12-.88-.27-1.77a13.37,13.37,0,0,0-.54-2.56c-.48-1.19-.11-1.54.91-2.08,1.66-.87,3.1-.23,3.77,1.54a26.8,26.8,0,0,1,1.6,6.43c.21,2,.5,3.93.79,5.88a2.82,2.82,0,0,0,.4,1.15.55.55,0,0,0,1,0c.26-.42.38-1,1-1a7.25,7.25,0,0,1,2.15.27,6.44,6.44,0,0,1,3.86,4.58,21.88,21.88,0,0,1,1.08,6.52,1.4,1.4,0,0,1-.63,1.42c-.25.15-.37.7-.36,1.06a9.19,9.19,0,0,0,1.94,6.2c.06.06.05.18.1.37-.49.45-1,1-1.56,1.43a1.16,1.16,0,0,1-1.64-.08,4.84,4.84,0,0,1-1-1.59,39.41,39.41,0,0,1-1.6-8.41c-.14-1.14-.34-2.28-.58-3.41a7.87,7.87,0,0,0-.6-1.36A2.17,2.17,0,0,0,284,96.33c-.32,1.86-.66,3.71-1,5.57s-.52,3.55-.86,5.31a2.68,2.68,0,0,1-.7,1.14,2.15,2.15,0,0,1-.83.49c-.56.22-1,1-1.73.52a2.85,2.85,0,0,1-1.63-2.25c-.16-2.86-.35-5.71-.5-8.57-.13-2.44-.2-4.89-.33-7.33A9.06,9.06,0,0,0,276.16,89.8Z"/><path d="M518.75,76.16c0,1.25,0,2.5,0,3.74,0,.65.07,1.29.09,1.93q0,1.31,0,2.61c0,.33,0,.65,0,1,0,1.44.41,2.93-.54,4.26a1.24,1.24,0,0,0-.1.68,13.31,13.31,0,0,1-2,6.36,4.52,4.52,0,0,0-.61,2.91,82,82,0,0,1,.49,11.61,2.75,2.75,0,0,1-2.6,2.8,1.32,1.32,0,0,1-1.56-1.19c-.34-2-.59-4-.88-6-.09-.61.2-1.41-.53-1.75s-1.13.38-1.5.76c-2,2.12-4.73,3-7.43,3.78a13.41,13.41,0,0,1-3.29.4c-2.37.06-4.77-2.83-4.78-4.75a14.32,14.32,0,0,1,1.25-6A36.33,36.33,0,0,1,497.23,95c.78-1.25,1.57-2.49,2.43-3.68a17.17,17.17,0,0,1,1.89-2.19c1.8-1.78,3.65-3.51,5.48-5.26.17-.16.42-.24.54-.42a3.3,3.3,0,0,1,2.9-1.55c.62,0,1-.49,1.08-1.08s.28-1.36.38-2c.35-2.23.67-4.47,1-6.7a4,4,0,0,1,.38-1.17c.49-.88,1-1.73,1.56-2.58.43-.68.88-.76,1.66-.48,1.7.59,2,2,2.08,3.51s0,3.23,0,4.84ZM511,87a3.33,3.33,0,0,0-2.65,1.29c-.81.82-1.6,1.66-2.35,2.54a37,37,0,0,0-2.66,3.33c-1.25,1.87-2.32,3.85-3.57,5.71a13,13,0,0,0-1.44,4.16,2.53,2.53,0,0,0,.18,1.34c.33.9.82,1.06,1.74.72a16.82,16.82,0,0,0,3.82-2.12,14.58,14.58,0,0,0,3-2.44c.42-.49.89-.93,1.34-1.39a6.44,6.44,0,0,0,2.22-4.61c0-.37,0-.73.05-1.1C510.8,92,510.91,89.52,511,87Z"/><path d="M341.16,85.57c.07-.72.12-1.11.14-1.5.2-3.41.33-6.82.63-10.22a12.62,12.62,0,0,1,1-3.86,10.38,10.38,0,0,1,1.9-2.25c.3.38.58.59.66.87.43,1.55.88,3.09,1.19,4.67.35,1.81.54,3.65.82,5.47a2.26,2.26,0,0,0,.52,1.08c.28-3.52-.48-6.94-1.15-10.48a1.37,1.37,0,0,1,1.4,1.29,58.23,58.23,0,0,1,.67,14.74c-.27,2.52-.43,5.06-.76,7.57a22.58,22.58,0,0,1-.92,3.15,5.83,5.83,0,0,0-.37,1.71,32,32,0,0,0,1.7,9.64c.06.17.12.35.17.52.44,1.49.27,1.73-1.32,1.92a5.71,5.71,0,0,0-.93.21c-1,.31-1.34.29-1.87-.57a18.12,18.12,0,0,1-1.37-2.84c-.33-.8-.54-1.65-.85-2.47s-.59-.9-1.39-.68a2,2,0,0,0-.75.32,13.58,13.58,0,0,1-4,2.4,7.86,7.86,0,0,1-4.56.79l-2.19-.29a3.26,3.26,0,0,1-3.09-3.14c-.07-.69-.16-1.38-.21-2.07a5.09,5.09,0,0,1,0-1.51,27.29,27.29,0,0,1,3.29-8.31,55.31,55.31,0,0,1,3.89-5.35,7.34,7.34,0,0,1,5-2.44,3.24,3.24,0,0,1,1.6.59A8.1,8.1,0,0,1,341.16,85.57Zm-3.55,2.57c-1.11,1.34-2.08,2.5-3,3.67a6.23,6.23,0,0,0-.91,1.28c-.73,1.62-1.47,3.25-2.05,4.93a16.71,16.71,0,0,0-.78,3.78c-.13,1.39.58,1.94,1.86,1.44,2.27-.89,4.6-1.73,6.05-3.91.17-.27.44-.49.59-.77A6.07,6.07,0,0,0,340,97c.56-2.82-.49-5.36-1.52-7.89C338.4,88.78,338,88.57,337.61,88.14Z"/><path d="M478.75,202.92c-.21,0-.28,0-.3,0-1.4-1.26-3.28-1.59-4.85-2.5a5.52,5.52,0,0,1-1.06-.87c-.42-.42-.75-.95-1.21-1.33a10.73,10.73,0,0,1-2.46-3.95,2.67,2.67,0,0,1,.13-2.67,3.4,3.4,0,0,1,2.3,1.1c1.07,1.14,2.25,2.17,3.42,3.21a7.08,7.08,0,0,0,1.27.71c.23-1.36.43-2.51.64-3.67a114.07,114.07,0,0,0,1.24-11.38c.2-2.66.53-5.32.81-8,0-.23.07-.46.08-.69,0-.78-.29-1-1-.77-1.09.38-2.14.86-3.21,1.27a5.54,5.54,0,0,1-3.77.21,3.39,3.39,0,0,1-2.35-2.8,7.8,7.8,0,0,1,.44-5,73.79,73.79,0,0,1,3.25-6.84,31.31,31.31,0,0,1,3.56-4.73,14,14,0,0,1,3.07-2.76c2.33-1.47,4.21-1.06,5.63,1.33a16.34,16.34,0,0,1,1.57,4.84,14.73,14.73,0,0,1,.35,2.46,5.8,5.8,0,0,1-.13,1.91,86.66,86.66,0,0,0-2.26,12.38c-.31,2.6-.52,5.22-.9,7.82-.21,1.49-.67,2.95-1,4.44a12.47,12.47,0,0,0-.13,1.5c-.08.91-.17,1.81-.26,2.72a2.7,2.7,0,0,0-.07.41,23.23,23.23,0,0,1-.79,6.43,36.4,36.4,0,0,1-1.3,4.2A4.12,4.12,0,0,1,478.75,202.92Zm1.75-47.08a14.38,14.38,0,0,0-3,3.23c-1.06,1.56-2,3.16-3.1,4.71a14.85,14.85,0,0,0-1.59,4.05,1.21,1.21,0,0,0,.56,1.56,2,2,0,0,0,1.56-.08c2.26-1.34,4.41-2.86,5.54-5.37.37-.83.6-1.74,1-2.56a5.39,5.39,0,0,0-.06-4.28A5.65,5.65,0,0,0,480.5,155.84Z"/><path d="M295.36,179.94a1.39,1.39,0,0,1,1.92.73,7,7,0,0,0,2.58,3c1.69.91,2.7.62,3.3-1.23a17.45,17.45,0,0,0,1.08-6.76,2.84,2.84,0,0,1,0-.41c0-2.67.11-5.34.14-8a20.29,20.29,0,0,0-.13-2.2c-.1-.88-.68-1.2-1.45-.8-1.42.73-2.85,1.47-4.25,2.25a5.85,5.85,0,0,1-5.08.22,2.73,2.73,0,0,1-1.17-.91,6.09,6.09,0,0,1-1.12-5.35,2.13,2.13,0,0,0,.19-.66c-.14-1.63.66-3,1.09-4.53a14.31,14.31,0,0,1,8-9.17,3.92,3.92,0,0,1,3.71,0,15.73,15.73,0,0,1,4,2.47,7.19,7.19,0,0,1,1.86,3c.52,1.8.8,3.72-.56,5.39-.06,1.05-.17,2.09-.17,3.13,0,2.35.1,4.69.14,7,0,.46-.05.92,0,1.38,0,1.56.09,3.12.14,4.68,0,.78.07,1.56.1,2.34a6.42,6.42,0,0,1,0,1.24c-.34,2.09-.64,4.18-1.08,6.25a8.92,8.92,0,0,1-1,2.22,24,24,0,0,1-1.3,2.08,2.79,2.79,0,0,1-2.5,1.23,32.61,32.61,0,0,1-4.53-.43,3.35,3.35,0,0,1-1.46-1c-1.22-1.16-2.23-2.43-2.15-4.28A26.11,26.11,0,0,0,295.36,179.94Zm.08-20.12.15,0c0,.32,0,.65,0,1,.11,2,1.06,2,2.78,1.54A2.15,2.15,0,0,0,299,162l3-2.39a9.58,9.58,0,0,0,3.42-5.16,3.5,3.5,0,0,0-1.24-3.72,2.91,2.91,0,0,0-3.49-.25,7.47,7.47,0,0,0-4,4.85c-.16.62-.36,1.24-.53,1.86C295.9,158.06,295.67,158.94,295.44,159.82Z"/><path d="M572.32,161.27c1.3.14,1.43.26,1.58,1.68.22,2.11.38,4.22.64,6.33a5.58,5.58,0,0,0,.63,1.95,2.8,2.8,0,0,0,2.43,1.58,11,11,0,0,0,4.47-.73,6.48,6.48,0,0,0,2.83-1.6,4.16,4.16,0,0,1,2.19-.93c.83-.16,1.33.59,1,1.41a2.11,2.11,0,0,1-.27.63c-1.22,1.4-2.26,3-4,3.9a10.2,10.2,0,0,1-2.56,1.27,33.27,33.27,0,0,1-4.13.94,5.07,5.07,0,0,1-3.65-1.06c-1.78-1.39-3.26-3-3.55-5.39a11.44,11.44,0,0,0-.46-1.66c-.44.19-.81.24-1,.45a10.78,10.78,0,0,1-3.43,2.5,20,20,0,0,1-3.46,1.33c-.42.17-.84.36-1.49.64a1.79,1.79,0,0,0-2.11.39c-.74.59-1.12.39-1.79-.23a6.15,6.15,0,0,1-1.84-5.14,20.72,20.72,0,0,1,1.3-6.05,35.29,35.29,0,0,1,2.14-4.62,17.58,17.58,0,0,1,4.82-6.16,4.32,4.32,0,0,1,4.28-.82,4.73,4.73,0,0,1,2.69,3c.34.9.42,1.89.7,2.81a9,9,0,0,0,.77,1.74C571.48,160,571.87,160.56,572.32,161.27ZM559.53,171a3.27,3.27,0,0,0,1.07-.36c1.74-1.57,3.45-3.17,5.17-4.77a.64.64,0,0,0,.11-.25,11.81,11.81,0,0,0,.51-7.6,1.38,1.38,0,0,0-.74-.88,1.31,1.31,0,0,0-1,.52,39.8,39.8,0,0,0-2.38,3.54c-.68,1.19-1.17,2.48-1.8,3.7a14,14,0,0,0-1.15,5.36A2.57,2.57,0,0,0,559.53,171Z"/><path d="M405.35,99.13c-.89,1.23-1.81,2.33-2.53,3.55a21.32,21.32,0,0,0-1.22,3c-.49,1.29-1,2.59-1.47,3.85-.11.25-.46.42-.74.57s-.69.25-1,.41a1.75,1.75,0,0,1-2.6-1.07,15.39,15.39,0,0,1-.62-2.83c-.26-2.61-.48-5.23-.64-7.85-.14-2.21-.25-4.42-.25-6.64,0-2.67.11-5.34.2-8,.13-3.59.28-7.18.43-10.77a3.64,3.64,0,0,1,1.46-3.12,1.93,1.93,0,0,1,3.22,1.3,10.21,10.21,0,0,1,.13,4.09,34.78,34.78,0,0,0-.18,5.11,5,5,0,0,1-.06,1.51,11.76,11.76,0,0,0-.26,3.12,45.21,45.21,0,0,0,.15,7.45c.12,1.22-.17,2.54-.1,3.83,0,.23,0,.46,0,.69,0,.48.11.95.7,1s1-.4,1.11-1a5.42,5.42,0,0,1,2.7-3.6,4.36,4.36,0,0,1,4,.21A10.08,10.08,0,0,1,410,95.85a5.44,5.44,0,0,1,1.45,3.66c0,1.66,0,3.32,0,5a5.59,5.59,0,0,1-1.08,3c-.47.68-.95,1.36-1.36,2.08a1,1,0,0,1-1.27.53.94.94,0,0,1-.9-1c0-1.34,0-2.68,0-4s0-2.67,0-4C406.74,100,406.51,99.73,405.35,99.13Z"/><path d="M237.84,201.46a2.16,2.16,0,0,0-1.27,1.91c-.54,3.7-.82,7.41-1,11.14-.06,1.15.59,1.48,1.54,1s1.67-.77,2.5-1.15a1.81,1.81,0,0,1,2.17.32,2.29,2.29,0,0,1,.82,2.35,2.88,2.88,0,0,1-.86,1.54,12.45,12.45,0,0,1-2.51,1.38,17,17,0,0,1-2.21.78,1.36,1.36,0,0,0-1,1.45c.09,1.42.23,2.84.37,4.25s.3,3,.47,4.53c.06.64.15,1.27.25,1.91a15.25,15.25,0,0,1,.28,1.62,3.33,3.33,0,0,0,.93,2.35c1.07,1.13.62,2.24-.92,2.54-.59.12-1.17.29-1.76.38-.91.16-1.27,0-1.62-.88-.66-1.65-1.56-3.21-1.63-5.09a15.51,15.51,0,0,0-.85-3.48,15.92,15.92,0,0,1-.47-4.66,5.38,5.38,0,0,0-.69-3,3.16,3.16,0,0,1-.24-1.58c0-.78.17-1.56.17-2.34,0-2.58-.15-5.17,0-7.75a59.57,59.57,0,0,1,.74-7.42,11.5,11.5,0,0,1,2.62-6,3.51,3.51,0,0,1,4.59-.89,20.57,20.57,0,0,1,6.71,6.86,17.44,17.44,0,0,1,.93,2.6c.31.87-.41,1.54-1.06,1.86a1.33,1.33,0,0,1-1.8-.5,6.68,6.68,0,0,1-.65-1.06A17,17,0,0,0,237.84,201.46Z"/><path d="M377.91,168.85c-.63.05-1,.07-1.35.11a3.75,3.75,0,0,1-4.14-3.23c-.22-1.55-.35-3.11-.55-4.66-.13-1-.3-2.1-.46-3.14a1.41,1.41,0,0,1-.05-.27,20.73,20.73,0,0,0-.47-4.78,5.1,5.1,0,0,1,.94-2.94c.54-.89,2.83-.36,3.29.78a20.27,20.27,0,0,1,1.29,4.21c.36,2.13.46,4.31.68,6.46a5,5,0,0,0,.13,1.1.61.61,0,0,0,1.14.22,4.86,4.86,0,0,0,.66-1.51c.26-1.16.4-2.36.65-3.53.54-2.47.5-5,1.37-7.46-.35-1,.56-1.54,1-2.21.53-.88,2.74-.59,3,.39a14.37,14.37,0,0,1,.53,4.35,47.54,47.54,0,0,1-1.52,9.83,12.48,12.48,0,0,0-.36,2.46c-.25,2.7-.46,5.41-.72,8.12-.18,1.82-.45,3.64-.64,5.47a27.84,27.84,0,0,0-.18,3,6.54,6.54,0,0,1-1.59,4.44,1.83,1.83,0,0,1-1.85.58,1.39,1.39,0,0,1-1.22-1.32,23.84,23.84,0,0,1-.34-3.58c0-2.39.19-4.79.35-7.18.1-1.41.33-2.82.47-4.24C377.94,169.91,377.91,169.46,377.91,168.85Z"/><path d="M420.18,175.84c-2.06-1.81-2.48-4.57-3.9-6.7-.16,0-.3,0-.33,0a9,9,0,0,1-4.8,2.84,6.34,6.34,0,0,1-3.66,0,7.83,7.83,0,0,1-2.66-2.31,6.82,6.82,0,0,1-1.62-4.46,36.37,36.37,0,0,1-.08-7.45c.46-2.81.84-5.64,1.37-8.45.29-1.51,1-2,2.22-2a2.53,2.53,0,0,1,2.32,2,3.62,3.62,0,0,1,.15,1.22c-.09,1-.25,1.92-.39,2.88-.49,3.23-1.3,6.44-.92,9.74a15.21,15.21,0,0,0,.7,3.36c.67,1.95,2.13,2.32,3.78,1.12a7.74,7.74,0,0,0,3.24-5.7c.33-3.34.49-6.71.54-10.06a22.15,22.15,0,0,1,.8-4.75c.18-.8.86-1,1.54-1.22s1,.27,1.37.7c.64.7,1.2,1.38.83,2.42a1.17,1.17,0,0,0,0,.69c.81,2.41.27,4.85.06,7.27a36.29,36.29,0,0,0,.89,12.76,22.82,22.82,0,0,0,1.39,3.45c.5,1.1.38,1.55-.73,2.06a1.37,1.37,0,0,1-.38.15Z"/><path d="M470.42,105.89,467,107.25a3.71,3.71,0,0,0-.75.36c-2.24,1.55-4.73,1.28-7.21.93a2,2,0,0,1-1.07-.77,5.44,5.44,0,0,1-.85-4.74,18.92,18.92,0,0,1,2.27-6.48c.79-1.23,1.42-2.58,2.09-3.89a23.32,23.32,0,0,1,3.85-5,7.65,7.65,0,0,1,2.52-1.86c2.67-1.15,4.31-.41,6.42,2.16a5.36,5.36,0,0,1,.46.8c.84-.69,1.66-.89,2.42,0a2,2,0,0,1,.33.44c1,2.65,1,5.2-.74,7.59a5.66,5.66,0,0,0-.63,1.49c-.09.25,0,.57-.15.81-1.15,2.37-.83,4.84-.52,7.31.14,1,0,1.26-1,1.61-2.15.75-2.15.75-3.35-1.24C470.86,106.4,470.58,106.1,470.42,105.89Zm-8.56-.88a4.15,4.15,0,0,0,2.74-.51c.88-.58,1.8-1.1,2.64-1.74,1.67-1.28,3.28-2.62,3-5.07a1,1,0,0,1,.07-.41c.77-1.77.47-3.63.43-5.46,0-.63,0-1.44-.72-1.66s-1.18.45-1.55,1a39.18,39.18,0,0,0-5.32,8.79c-.25.6-.57,1.16-.84,1.75A5.4,5.4,0,0,0,461.86,105Z"/><path d="M330.73,174.3a5.23,5.23,0,0,1-2.58-3.88c-.3-1.72-.67-3.43-1-5.14a7.15,7.15,0,0,0-.34-.94,17.28,17.28,0,0,1-1.51,2.21c-1.54,1.65-3.14,3.24-4.76,4.8-.77.74-2.48.45-3.34-.61a6,6,0,0,1-1.57-3.34c-.22-3.35-.65-6.69,0-10.06.28-1.57.07-3.26.83-4.72s.75-3.16,2.06-4.3a2.88,2.88,0,0,1,2.8-.42,1.19,1.19,0,0,1,.65,1.26c-.11,1-.21,2-.32,3-.39,3.34-.79,6.68-1.17,10a6.84,6.84,0,0,0,.49,3.61,9.87,9.87,0,0,0,1.16-1.5,50.11,50.11,0,0,0,2.24-5.17c.9-2.66,1.61-5.38,2.39-8.07a5.53,5.53,0,0,0,.16-.81c.27-1.76.6-2,2.48-2,.85,1.15,1.67,2.31,1.28,3.89a.81.81,0,0,0,0,.41,35.18,35.18,0,0,1,.86,6.85c.16,1.74.21,3.49.31,5.24.05.87.12,1.75.19,2.62a3.62,3.62,0,0,0,1.4,2.75,1.48,1.48,0,0,1,.41,2c-.4,1-.87,1.94-2.17,2A3.47,3.47,0,0,0,330.73,174.3Z"/><path d="M423.53,97.17c.41-.23.7-.29.78-.46.55-1.09,1.64-1.57,2.52-2.3a3.62,3.62,0,0,1,4.48-.2,4.49,4.49,0,0,1,2.33,3.53c.05.82.29,1.64.37,2.46.3,3-.47,5.57-3.34,7.12a4,4,0,0,0-.75.62,4,4,0,0,1-2.7,1.21,10.23,10.23,0,0,0-1.9.34c-2,.49-3.74,0-4.82-2.54a9.3,9.3,0,0,0-1.32-2.23,4.82,4.82,0,0,1-1.13-3c0-6.41-.16-12.82.3-19.22,0-.69,0-1.39.07-2.07a19.53,19.53,0,0,1,.64-4.07,7.21,7.21,0,0,1,1.87-2.5c.52-.52,1.8-.19,2.32.58a4.05,4.05,0,0,1,.82,2,43.15,43.15,0,0,1-.41,4.39c-.07.64-.17,1.28-.2,1.92-.11,1.88-.24,3.76-.27,5.65-.05,2.53,0,5.07,0,7.6A5.58,5.58,0,0,0,423.53,97.17Zm4.75,1.24a24.29,24.29,0,0,0-4.19,4,1.84,1.84,0,0,0-.3,2.39,1.86,1.86,0,0,0,2.48.43c.54-.26,1.05-.56,1.56-.87A3.75,3.75,0,0,0,428.28,98.41Z"/><path d="M365,107.56a11.13,11.13,0,0,1-5.34,2.26c-2.36.39-4.47-.08-6-2.18a5.28,5.28,0,0,1-1.3-3.67c.07-1,0-2,.07-3a3.28,3.28,0,0,1,.17-1.09,19.92,19.92,0,0,1,2.3-4.53c.91-1.14,1.52-2.52,2.42-3.67a28.09,28.09,0,0,1,3.49-3.89c1.63-1.43,3.28-1,4.38.85.21.35.42.7.65,1.06.1-.11.2-.18.19-.22-.09-.34-.4-.72.07-1s.79.11,1,.44a4.65,4.65,0,0,1,.42.87c.4.87.81,1.74,1.18,2.63a9.11,9.11,0,0,1,.26,1.06c.07.28.19.56.35,1l1.07-1.32c.71.14.85.69.85,1.24a15.48,15.48,0,0,1-1,6.23,8.24,8.24,0,0,0-.2,5.44c.15.59.35,1.46.06,1.81a7.11,7.11,0,0,1-2.22,1.56c-.19.11-.67-.19-.95-.39C366.34,108.59,365.7,108.07,365,107.56Zm-1.69-11.74h-.08a9.63,9.63,0,0,0,0-1.52c0-.33-.22-.82-.44-.89a1.38,1.38,0,0,0-1.11.23,3.55,3.55,0,0,0-1.55,2.2,2.4,2.4,0,0,1-.43.84,18.46,18.46,0,0,0-1.32,1.9,10.5,10.5,0,0,0-1.29,5.57,2,2,0,0,0,.3,1,2,2,0,0,0,2.34.63c1.22-.46,1.78-1.12,1.68-2.2a3.65,3.65,0,0,1,.41-2,12.2,12.2,0,0,0,1.06-2.37A29.72,29.72,0,0,0,363.35,95.82Z"/><path d="M543.21,102.92a27.19,27.19,0,0,0,1.35-4c.47-2.15,1.08-4.28,1.7-6.39.22-.75.58-.78,1.92-.31.12-.2.26-.43.4-.64l.46-.67a9.55,9.55,0,0,1,.79.83,9,9,0,0,1,1.84,5.38,5.19,5.19,0,0,0,.73,2.9,4.44,4.44,0,0,1,.39,1.44,5.71,5.71,0,0,0,.28,1.33c.3.6.68,1.37,1.48,1.24a2.17,2.17,0,0,0,2-1.42,18.55,18.55,0,0,0,.8-7.79c-.19-1.92-.49-3.84-.73-5.76-.06-.45-.21-1,.33-1.23s.83.17,1.24.37c1.72.85,1.5,2.58,1.9,4,.21.75.38,1.51.55,2.26a5.89,5.89,0,0,1,.21,1.22,8.61,8.61,0,0,0,.69,3.5,3.28,3.28,0,0,1,.13,1.89,14.68,14.68,0,0,1-1.68,4.94,3.54,3.54,0,0,1-.6.74c-.68.68-1.4,1.33-2.08,2a1.39,1.39,0,0,1-1.55.47,5.94,5.94,0,0,1-3-1.8,17.6,17.6,0,0,1-3.41-4.49,6.6,6.6,0,0,0-1.07-1.3c-1.4,2.06-2.69,4-4,5.86a12.57,12.57,0,0,1-.85,1.49,1.43,1.43,0,0,1-2.18.27,6.77,6.77,0,0,1-2.62-3.47,16.94,16.94,0,0,1-.64-8.18c.24-1.79.47-3.57.62-5.36.11-1.32,1-2.27,1.47-3.4.27-.59,1.56-.83,2.28-.58s.85.93.8,1.58c-.12,1.33-.28,2.66-.48,4-.24,1.6-.62,3.17-.79,4.77a15.61,15.61,0,0,0,.15,2.89A1.62,1.62,0,0,0,543.21,102.92Z"/><path d="M382.93,224c-.69,2.68-.87,5.39-2.23,7.86-.86,1.57-2.24,2.68-3.09,4.21a1.42,1.42,0,0,1-.61.55c-1.46.76-2.94,1.47-4.4,2.22a10.38,10.38,0,0,0-1.15.76,5,5,0,0,1-6.08-.63,6.27,6.27,0,0,1-1.91-5.14,28.3,28.3,0,0,1,.44-3.57,18.66,18.66,0,0,1,1-2.51,86.53,86.53,0,0,1,5-10.31c1-1.75,2.51-3,3.31-4.88.3-.69,2.12-1.29,2.84-1.08a2.56,2.56,0,0,1,1.56,2.25,4.23,4.23,0,0,0,1.28,3.2c1.22,1.54,2,3.38,3.32,4.89A6.08,6.08,0,0,1,382.93,224Zm-4.63.51a9.26,9.26,0,0,0-2.13-5.39c-.72-.8-1.11-.76-1.72.12a33.08,33.08,0,0,0-2.93,5.27c-.34.75-.78,1.45-1.12,2.2-.27.58-.47,1.2-.69,1.8a3.29,3.29,0,0,1-.28.92c-1.1,1.56-1,3.32-.8,5.06.16,1.33.75,1.59,2,1.2a6.26,6.26,0,0,0,3.44-2.62c.68-1,1.47-2,2.09-3.07a18.07,18.07,0,0,0,1.25-2.76C377.78,226.38,378,225.45,378.3,224.54Z"/><path d="M230.26,147.75c.92-.13,1.54-.26,2.17-.3a10.86,10.86,0,0,1,2.61,0c1.52.29,1.74,1.28,1,2.61a5,5,0,0,1-3.62,2.49c-.58.11-1.14.33-1.75.51-.38,1.29.16,2.48.3,3.69s.37,2.55.59,3.82c.16.91.38,1.8.57,2.71.11.54.26,1.07.32,1.62a2.74,2.74,0,0,1-1.74,2.83,1.16,1.16,0,0,1-1.45-.42,10.4,10.4,0,0,1-2.1-4.31c-.56-2.18-1-4.4-1.46-6.61a1.89,1.89,0,0,0-1.29-1.61,2.16,2.16,0,0,1-1.44-3.15,2.29,2.29,0,0,1,1.06-1,1.81,1.81,0,0,0,1-2c-.09-1.74.08-3.49.14-5.24a8.23,8.23,0,0,0,.07-1.1,11.86,11.86,0,0,1,1.47-6.8.64.64,0,0,0,.12-.25,3,3,0,0,1,1.66-2.55c1.3-.55,2.61-1.27,4.11-.85a6,6,0,0,1,1.87.81,15.91,15.91,0,0,1,3.94,4.44,5.58,5.58,0,0,1-.11,5.91.76.76,0,0,1-.17.22c-.48.39-.85,1.08-1.62.85a1.49,1.49,0,0,1-1-1.53c-.14-2.53-1.5-4.41-3.16-6.13a1.5,1.5,0,0,0-1.15-.49c-.32.11-.58.66-.69,1.06a25,25,0,0,0-.58,6.73C229.94,145,230.13,146.23,230.26,147.75Z"/><path d="M582.62,106.92c-1.58,1.09-2.52,2.88-4.38,3.67a7.76,7.76,0,0,0-2,1.28,7.62,7.62,0,0,1-5,1.62c-.65,0-1.29,0-1.94.05a5.72,5.72,0,0,1-2.66-.54,5,5,0,0,1-3-3.86,12.6,12.6,0,0,1,.11-5.76,2.88,2.88,0,0,0-.23-2.26c-.66-1.15-.47-1.77.69-2.28a4,4,0,0,0,2-1.87c.68-1.31,1.31-2.64,2-4a4.15,4.15,0,0,1,.7-1,24.38,24.38,0,0,1,4.46-3.9,3.63,3.63,0,0,0,.72-.64,2.43,2.43,0,0,1,3-.46,4,4,0,0,1,2.36,3.43,14.06,14.06,0,0,1-.27,6A10.36,10.36,0,0,1,577,100a11.66,11.66,0,0,1-5.14,3.16,6,6,0,0,1-2,.19c-1.2,0-1.37,0-1.42,1.24a21.34,21.34,0,0,0,0,2.77,1.73,1.73,0,0,0,1.82,1.7,18.72,18.72,0,0,0,6.89-1.25,33,33,0,0,1,3.77-1.33,5.8,5.8,0,0,1,1.56,0Zm-12-8.73a1.52,1.52,0,0,0,1.79,0,7.54,7.54,0,0,0,3.36-4.22,2.48,2.48,0,0,0,0-1.35c-.18-.77-.75-1-1.34-.46a17.76,17.76,0,0,0-2.33,2.34A8.58,8.58,0,0,0,570.63,98.19Z"/><path d="M505,165.43a11.42,11.42,0,0,1,2.51-7.05,3.24,3.24,0,0,0,.43-.85,14.29,14.29,0,0,1,2.74-4.28,9.25,9.25,0,0,0,1.28-1.81,2.31,2.31,0,0,1,1.48-1.15c.4-.1.81-.19,1.21-.27,2.76-.55,4.34.4,5.25,3.11a6.28,6.28,0,0,0,.72,1.32c.38.62.79,1.22,1.2,1.83.1.15.19.35.34.41,1.09.48,1,1.42,1,2.36a5.81,5.81,0,0,1-.14,1.1,17.64,17.64,0,0,0,.22,7.55,6.41,6.41,0,0,0,.39,1c.22.56.47,1.1.67,1.67s.45,1.34-.14,1.8a2.22,2.22,0,0,1-2.35.41,4,4,0,0,1-2.2-2c-.26-.63-.62-1.23-.89-1.86a.79.79,0,0,0-1.11-.5,9.87,9.87,0,0,0-2.15.94,8.32,8.32,0,0,1-4.37,1.53,8,8,0,0,0-1,.16,3.94,3.94,0,0,1-4.76-2.87A20,20,0,0,1,505,165.43Zm10.7-10.16c-.2.07-.36.08-.45.17a19.81,19.81,0,0,0-5.08,8.59,7.73,7.73,0,0,0-.22,2.2c0,.84.61,1.24,1.29.79,1.6-1.07,3.39-1.92,4.59-3.5a5.05,5.05,0,0,0,1.43-3.65,26,26,0,0,0-1-3.85A2.86,2.86,0,0,0,515.71,155.27Z"/><path d="M317.06,100.63l-1.94,1.9a6.59,6.59,0,0,1-.94.81c-1.19.76-2.45,1.43-3.61,2.25a12.59,12.59,0,0,1-5.83,2,10,10,0,0,1-4.94-.27A5.68,5.68,0,0,1,297,105a7.09,7.09,0,0,1-.61-6.61c.47-1.3.75-2.66,1.18-4a13.39,13.39,0,0,1,3.52-5.7c1-.92,1.93-1.84,2.91-2.75a3.34,3.34,0,0,1,2.77-1c.69.07,1.38.11,2.07.15,1,.06,1.81.23,2.19,1.31a1.13,1.13,0,0,0,.83.63c.66,0,1.31.13,1.52.74a5.33,5.33,0,0,1,.38,2.41,7.23,7.23,0,0,1-3.9,5.42,19.15,19.15,0,0,1-4.72,2.25,15.51,15.51,0,0,0-2.87,1.27,2.31,2.31,0,0,0-.45.32c-1.3,1.23-.76,4.11.94,4.65a5.06,5.06,0,0,0,2.58.19,17.69,17.69,0,0,0,4.63-1.71c1.54-.9,3.11-1.76,4.69-2.6C315.71,99.41,316.33,99.61,317.06,100.63Zm-8.77-10.46a1.65,1.65,0,0,0-2.57-.18,13.23,13.23,0,0,0-1.84,2.36c-.11.18.1.7.31.9s.59,0,.81-.12a12.38,12.38,0,0,0,1.74-1.31C307.3,91.31,307.78,90.72,308.29,90.17Z"/><path d="M250.38,94.42,250,91.66a1.8,1.8,0,0,1,1.3,1.28c1.11,3.5,1.69,7.09.15,10.54a7.79,7.79,0,0,1-4.19,4.38c-.77.29-1.46.78-2.21,1.1a16.64,16.64,0,0,1-2,.61c-.31.09-.64.09-.94.19A4.74,4.74,0,0,1,237,108.2c-.41-.49-.81-1-1.2-1.52a6.52,6.52,0,0,1-1.41-3.67,17.44,17.44,0,0,1,.82-6.39c.75-2.22,1.57-4.42,2.4-6.61a11.83,11.83,0,0,1,.73-1.16c.5-1,1.28-1.71,1.71-2.76a4,4,0,0,1,2.09-1.66,2.66,2.66,0,0,1,3,1.45c.43,1.5,1.57,2.45,2.32,3.69.85,1.42,1.6,2.89,2.39,4.34.11.19.22.38.32.57Zm-7.57,11.84c1.08-1.18,2-2.14,2.88-3.14a4.68,4.68,0,0,0,.89-1.37,11.26,11.26,0,0,0,0-7.45,6.32,6.32,0,0,0-1.14-2,7.6,7.6,0,0,0-1.69-1.39.69.69,0,0,0-1,.33c-.4.77-.83,1.53-1.2,2.32a42.16,42.16,0,0,0-1.83,5.71,8.72,8.72,0,0,0,.07,4.91,2.87,2.87,0,0,0,1.19,1.42A7.9,7.9,0,0,0,242.81,106.26Z"/><path d="M346.16,232.84c.33-2,.65-4.08,1-6.11a2.57,2.57,0,0,1,.19-.67c1.09-2.43,2.17-4.86,3.29-7.28a28.74,28.74,0,0,1,1.46-2.81,4,4,0,0,1,3.82-2.27c1.9.15,4.67,1.44,5.44,3.85a32.91,32.91,0,0,0,2.11,4.46,6.75,6.75,0,0,1,.42,4.45,14.72,14.72,0,0,0-.31,1.76,10.23,10.23,0,0,1-2.38,5.63,18.72,18.72,0,0,1-1.26,1.64,11.43,11.43,0,0,1-2,1.57c-1.34.79-2.73,1.5-4.11,2.22a4.25,4.25,0,0,1-2.52.57,5.73,5.73,0,0,1-4.9-5c0-.64,0-1.29,0-1.94Zm13.46-7.41c-.27-2.54-.49-4.6-1.62-6.42-.76-1.22-1.49-1.26-2.29-.08a2.53,2.53,0,0,0-.2.36c-.89,1.92-1.81,3.82-2.65,5.75a16.07,16.07,0,0,0-1,3,35.22,35.22,0,0,0-.51,4.11,10.79,10.79,0,0,0,.09,2.34,1.14,1.14,0,0,0,.58.82,2.58,2.58,0,0,0,2.72-.51c1.39-1.57,3.05-3,3.75-5.05A15.14,15.14,0,0,0,359.62,225.43Z"/><path d="M340.54,209.83c-.16,1.22-.32,2.44-.47,3.66a2.82,2.82,0,0,0,0,.82c.14.82.64,1.09,1.49.93a9.07,9.07,0,0,1,2.31-.28,2,2,0,0,1,1.82,2.54,1.47,1.47,0,0,1-.69.95c-1.5.52-2.69,1.73-4.35,1.91a1.36,1.36,0,0,0-1.16,1.23c-.06.41-.18.82-.2,1.23a44.57,44.57,0,0,0,.18,9.09c.34,2.09.52,4.2.71,6.31.1,1.08-.05,1.19-1.16,1.47a6.3,6.3,0,0,0-1,.39,1.49,1.49,0,0,1-2.22-.65,8.31,8.31,0,0,1-1.2-3.46c-.18-3-.49-6-.72-8.95-.1-1.46,0-2.93-.87-4.26a1.85,1.85,0,0,1,.3-2.09,5.65,5.65,0,0,0,.93-3.26c.13-1.69.38-3.38.53-5.08q.3-3.3.52-6.61a5.28,5.28,0,0,1,1.43-3.36,1.64,1.64,0,0,1,1.76-.48,4.65,4.65,0,0,1,2.21,1.8c.47.54.15,1.14.09,1.72l-.48,4.4Z"/><path d="M385.78,85.84a6.69,6.69,0,0,1,4.62,1.62,4,4,0,0,1,1.06,4.86.72.72,0,0,1-.14.24,32.79,32.79,0,0,1-3,2.51c-1,.66-1.88,0-1.87-1.24,0-.69.16-1.37.21-2.06.08-1.3-.41-1.75-1.64-1.41a6.08,6.08,0,0,0-1.46.74c-.31.19-.56.48-.87.67-2.12,1.24-2.29,3.48-.4,5.07,1.23,1,2.46,2.08,3.62,3.19a14.65,14.65,0,0,1,3.58,5.37,6.57,6.57,0,0,1,.07,4.09,1.4,1.4,0,0,1-.6.68,19.07,19.07,0,0,1-2.41,1.36,4.72,4.72,0,0,1-1.6.27c-.82,0-1.65-.11-2.46,0-2.39.35-6.59-1.68-7.12-4.93-.1-.59-.17-1.18-.29-1.77a3,3,0,0,1,.78-2.56c.64-.8,1.38-.74,1.83.2a19,19,0,0,1,.92,2.45c.58,1.86,2.14,2.46,3.77,2.81a3.25,3.25,0,0,0,1.92-.52c.61-.31.7-1,.28-1.71a8.57,8.57,0,0,0-1.32-1.93,39.64,39.64,0,0,0-4.18-4c-1.54-1.21-3-2.73-2.79-5a5,5,0,0,1,1.12-3.06,1.85,1.85,0,0,0,.39-.55c.67-1.84,2.26-2.72,3.8-3.66a5.45,5.45,0,0,0,.91-.59C383.78,85.83,383.77,85.82,385.78,85.84Z"/><path d="M240,80.43c-1.07.81-2.11,1.65-3.2,2.39a3,3,0,0,1-1.33.28c-.69.07-1.39,0-2.07.13-1.08.13-1.22.26-1.37,1.37-.19,1.42-.3,2.85-.48,4.26-.15,1.1-.5,2.18-.54,3.27-.17,4.64-.78,9.3.32,13.92a2.13,2.13,0,0,1,0,.57l-2.46,1.49a3.45,3.45,0,0,1-1.86-2.5c-.22-1.16-.8-2.26-1-3.42a34.42,34.42,0,0,1-.46-4.53,60,60,0,0,1,.86-11.44,2.84,2.84,0,0,0,0-1.36,1.34,1.34,0,0,0-.91-.71c-1.72-.22-3.47-.69-5,.6-.37.3-1,.29-1.42.51A1.15,1.15,0,0,1,217.5,85a1.29,1.29,0,0,1-.1-1.66,5.55,5.55,0,0,1,2.41-2.2c1.38-.61,2.86-1,4.3-1.49a15.09,15.09,0,0,1,1.46-.41c1.53-.33,3.06-.67,4.6-.94s3.36-.56,5.05-.76a7.91,7.91,0,0,1,2.06.12A3.23,3.23,0,0,1,240,80.43Z"/><path d="M455.14,174.48c-.81-.32-1.43-.61-2.07-.83a1.66,1.66,0,0,1-1.4-1.78c-.1-3.18-.14-6.37-.33-9.54-.12-1.89-.47-3.76-.73-5.63a4.76,4.76,0,0,1,.58-3.59,1.46,1.46,0,0,1,2.13-.56c.2.1.38.26.58.38a1.34,1.34,0,0,0,2-.17,25.53,25.53,0,0,1,2.21-1.83,2.52,2.52,0,0,1,1.52-.41,6.19,6.19,0,0,1,3.41,1.72,6.88,6.88,0,0,1,2.27,5.41c0,2.44.41,4.86.62,7.29a13.66,13.66,0,0,1-.37,6,8.56,8.56,0,0,1-.71,1.5,1.06,1.06,0,0,1-1.82.26,2.91,2.91,0,0,1-1.11-2,47,47,0,0,1-.09-5.93,16,16,0,0,0-.51-6.43c-.09-.26-.16-.53-.27-.78-.66-1.47-1.66-1.67-2.81-.56a4.33,4.33,0,0,0-1.5,3.15c0,3-.05,6.09-.08,9.13a11.55,11.55,0,0,1-.09,2.89A9.83,9.83,0,0,1,455.14,174.48Z"/><path d="M352.94,157.12c0-.69,0-1.05,0-1.42a1.3,1.3,0,0,1,.94-1.37,2.5,2.5,0,0,0,.38-.15c2-.93,2.33-1.58,2.34-3.76,0-2.86.15-5.71.27-8.57a5.93,5.93,0,0,1,.35-1.47c.45-1.47.86-1.77,2.25-1.71a2.3,2.3,0,0,1,2.34,1.94,18.45,18.45,0,0,1,.21,5.5c0,.92-.12,1.84-.09,2.76a7.18,7.18,0,0,0,.45,1.51,7.58,7.58,0,0,0,1.07-.73,3.1,3.1,0,0,1,2.58-.74,2.14,2.14,0,0,1,1.72,1.57,1.07,1.07,0,0,1-.24.86,23.39,23.39,0,0,1-5.47,4,1.24,1.24,0,0,0-.13.46c.1,2.07.17,4.14.35,6.21.27,3.12.62,6.23.94,9.35a1.46,1.46,0,0,1-.58,1.46,4.41,4.41,0,0,0-.52.45c-1.21,1.15-1.94,1-2.77-.44a9.8,9.8,0,0,1-1.19-3.51c-.31-2.51-.74-5-1.06-7.52-.12-.91-.07-1.84-.1-2.77s-.33-1.26-1.41-1.35A17.75,17.75,0,0,1,352.94,157.12Z"/><path d="M455.23,96.21A14.19,14.19,0,0,1,452,106a4.24,4.24,0,0,1-1.75,1.31,40.49,40.49,0,0,1-5.26,1.63,4.72,4.72,0,0,1-6-4.72,15.47,15.47,0,0,1,1.74-7.73,52.92,52.92,0,0,1,2.89-5.29A15.67,15.67,0,0,1,447,87.25c2.46-1.81,4.41-1.07,6.09,2a13.1,13.1,0,0,1,.75,2.37,6.32,6.32,0,0,0,.63,1.82A4.47,4.47,0,0,1,455.23,96.21Zm-4.13.05.11,0c-.3-1.25-.53-2.52-.92-3.74-.31-1-.89-1.07-1.59-.26A13,13,0,0,0,447,94.4c-.84,1.58-1.59,3.21-2.27,4.86a13.6,13.6,0,0,0-1,4.42c-.08,1.41.75,1.95,2.12,1.53a5.64,5.64,0,0,0,2.91-2.38c1.15-1.59,1.5-3.45,2.15-5.21A6.1,6.1,0,0,0,451.1,96.26Z"/><path d="M391.82,222.3c0,3.41-.11,6.83,0,10.23a48,48,0,0,0,.9,6.28,4.76,4.76,0,0,1-1,4.14,2.71,2.71,0,0,1-2.7.65c-.81-.14-1.14-.83-1.25-1.63q-.33-2.68-.72-5.34a77.41,77.41,0,0,1-.6-11.59c.05-4.24,0-8.49,0-12.73a3.93,3.93,0,0,0-.06-1,6.7,6.7,0,0,1,.93-4.88,1.81,1.81,0,0,1,2.77-.64,2.87,2.87,0,0,1,1.12,2,48.09,48.09,0,0,1,.57,7.58c-.05,2.31,0,4.61,0,6.92Z"/><path d="M326.22,236.42a15.22,15.22,0,0,0-1.92.19c-1.92.43-3.16-.64-4.31-1.88a4.06,4.06,0,0,1-.75-1.31c-.41-1.06-.69-2.12.33-3,.56-.51.44-1,0-1.58a16.45,16.45,0,0,1-1.92-2.52c-1-1.9-2.08-3.81-1.58-6.13a21.75,21.75,0,0,1,.38-2.46c.73-2.13,1.72-4.09,4.23-4.63,1.57-.33,3.15-.92,4.74-.26s3,1.14,3.62,2.92a3.79,3.79,0,0,1-.48,3.16,1,1,0,0,1-1.74,0,10,10,0,0,1-.84-1.1c-.76-1.16-1.82-1.14-3.09-.83a3.15,3.15,0,0,0-1.77,2.6,9.09,9.09,0,0,0,3.09,7.38,61.26,61.26,0,0,1,4.91,5c.68.74,1.43,1.56.77,2.7s-1.48,2-3,1.81a4,4,0,0,0-.69,0Z"/><path d="M533.93,169.43a3.93,3.93,0,0,0-1.38-2.24c-1.29-1.24-2.65-2.42-4-3.63A6.34,6.34,0,0,1,527,157c.67-2.15,2.19-3.56,3.56-5.17a11.72,11.72,0,0,1,3.24-2.5,2,2,0,0,1,3.12.85,3.55,3.55,0,0,1,.43,2.54,8.12,8.12,0,0,1-1.83,4.11,11.42,11.42,0,0,0-1.21,1.81c-1.4.21-1.22-1.16-1.77-1.75a2.12,2.12,0,0,0-.56,3.24c1.2,1.14,2.44,2.25,3.72,3.3a20.58,20.58,0,0,1,3.69,4.27,4.21,4.21,0,0,1,.33,3.36,1.25,1.25,0,0,1-.56.74c-1.17.64-2.35,1.27-3.56,1.81a12.12,12.12,0,0,1-2.26.6c-1.79.38-3.33-.5-4.91-1.09-.29-.1-.51-.52-.65-.84-.26-.59-.43-1.21-.65-1.88l1.29-1.08C532.58,170.16,532.58,170.16,533.93,169.43Z"/><path d="M351.18,145.84c-.05,3.36-.16,6.72-.13,10.08,0,3.09.19,6.17.26,9.26,0,1.56.05,3.13,0,4.7,0,1.17-2,2.74-3.16,2.57-.74-.1-1.15-.48-1.28-1.4-.2-1.47-.3-2.94-.49-4.41-.13-1-.33-2.08-.49-3.12a7.84,7.84,0,0,1-.11-1c-.1-2.76-.25-5.53-.26-8.29,0-4.47.05-8.94.11-13.42a2.5,2.5,0,0,1,2-2.37,2.67,2.67,0,0,1,2.81,1.77c.35,1.56.52,3.17.75,4.76a5.73,5.73,0,0,1,0,.83Z"/><path d="M434.12,167.08a7.54,7.54,0,0,0-1.4-1.39,9.84,9.84,0,0,1-3.83-3.71,6.8,6.8,0,0,1-.63-6.13,18.54,18.54,0,0,1,8-9.24,2.31,2.31,0,0,1,1-.17,5.45,5.45,0,0,0,1.21,0c.57-.17,1-.17,1.24.45s.47,1.24-.13,1.78-1.15.93-1.69,1.44c-.89.86-1.76,1.74-2.63,2.62a4.62,4.62,0,0,1-.46.52c-1.85,1.35-1.87,3.37-1.94,5.36a2.31,2.31,0,0,0,1.11,1.83c1.23,1,2.52,1.88,3.69,2.91a24.49,24.49,0,0,1,2.92,2.93c.84,1,.56,1.79-.39,2.69-1.72,1.64-3.91,2-6.08,2.37a.9.9,0,0,1-.28,0c-1.71-.51-3.57-.73-4.86-2.13a5.73,5.73,0,0,1-1-1.94,1.23,1.23,0,0,1,.38-1.51,1.41,1.41,0,0,1,1.67.14,11.45,11.45,0,0,0,1.39.91A3.19,3.19,0,0,0,434.12,167.08Z"/><path d="M479.18,93.25a12.45,12.45,0,0,1,.75-1.82c.62-1,1.2-1.06,2.15-.34.33.26.59.59.9.86.7.62,1.14.57,1.72-.18.14-.19.23-.4.37-.59.87-1.18,1.68-2.43,3.37-2.59a2.48,2.48,0,0,0,1-.4,3.3,3.3,0,0,1,2.47-.66A8.68,8.68,0,0,1,495.17,89c1.29.9,1.26,2.35,1.59,3.64a.63.63,0,0,1-.71.8,2.52,2.52,0,0,1-1.14-.37c-2.16-1.4-4.12-1.31-5.86.46s-3.11,4.09-2.8,6.92c.17,1.56.21,3.13.23,4.7,0,1.88-.9,2.81-2.6,2.87a2.66,2.66,0,0,1-2.76-2.28c-.14-1.7-.16-3.41-.36-5.1-.17-1.46-.49-2.9-.79-4.33C479.76,95.33,479.47,94.37,479.18,93.25Z"/><path d="M443.91,167.14c0-.92.14-2.21.16-3.49s-.07-2.76-.09-4.14a31,31,0,0,0-.19-4.81,8.61,8.61,0,0,1,.25-3.14,2.41,2.41,0,0,1,1.75-1.8,2.07,2.07,0,0,1,2.24,1.06,5,5,0,0,1,.83,2.15c.14,2.34.15,4.69.16,7,0,1.88,0,3.77-.09,5.65s-.08,3.5-.23,5.24a2.25,2.25,0,0,1-3.63,1.7,1.69,1.69,0,0,1-.82-1.36C444.17,170,444.05,168.75,443.91,167.14Z"/><path d="M340.78,171.22a3.66,3.66,0,0,1-2.84,1.07,1.5,1.5,0,0,1-1.32-.86,26.42,26.42,0,0,1-.77-2.63,2.09,2.09,0,0,1,0-.56c.3-3.87-.19-7.73-.12-11.6a15.53,15.53,0,0,1,.13-3.85c.27-1,1.34-2.08,2.12-2.11a1.69,1.69,0,0,1,1.89,1.3,27.82,27.82,0,0,1,.93,4.31c.44,3.63,0,7.28,0,10.92C340.77,168.5,340.78,169.78,340.78,171.22Z"/><path d="M443.75,145a3.49,3.49,0,0,1,.94-2.37,1.64,1.64,0,0,1,1.84-.52,3,3,0,0,1,1.66,2.77,1.09,1.09,0,0,1-.34.56c-.35.36-.77.66-1.1,1-.47.52-1,.92-1.67.58a2,2,0,0,1-1.33-1.77Z"/><path d="M337.88,141.61a2.44,2.44,0,0,1,2.73,2.4,1.23,1.23,0,0,1-.21.76,10.07,10.07,0,0,1-1.46,1.46,1.58,1.58,0,0,1-2.11-.36,3.33,3.33,0,0,1,.32-3.83A3.48,3.48,0,0,1,337.88,141.61Z"/><path d="M272.14,223.43c.2,3.18-1.4,5.43-3.74,7.29a32.5,32.5,0,0,1-2.78,2c-.86.55-1.51.21-1.6-.83a7.9,7.9,0,0,1,.1-2.33,26.52,26.52,0,0,1,1.33-4.77,31.62,31.62,0,0,1,3.64-6.9c.63-.82.77-.77,1.47-.06a4.8,4.8,0,0,1,1.33,2.81C272,221.59,272.06,222.51,272.14,223.43Z" style="fill:#fff"/><path d="M248.57,229.19a18.72,18.72,0,0,0,.58-3.37,9.71,9.71,0,0,1,1.36-4.4,17.78,17.78,0,0,1,2.84-3.67c.56-.62,1-.49,1.38.29a10.7,10.7,0,0,1,.51,8.69,17,17,0,0,1-4.07,5.65c-.61.62-1,.52-1.62-.08C248.59,231.43,248.7,230.33,248.57,229.19Z" style="fill:#fff"/><path d="M248.65,150.39c-.17,1.37-.74,1.76-2.4,1.74C246.48,150.89,246.77,150.67,248.65,150.39Z" style="fill:#fff"/><path d="M263.72,153.44c.34,1.42-.13,1.78-2,1.63C261.82,153.85,262.83,153.82,263.72,153.44Z" style="fill:#fff"/><path d="M511,87c-.12,2.56-.23,5-.35,7.43,0,.37-.05.73-.05,1.1a6.44,6.44,0,0,1-2.22,4.61c-.45.46-.92.9-1.34,1.39a14.58,14.58,0,0,1-3,2.44,16.82,16.82,0,0,1-3.82,2.12c-.92.34-1.41.18-1.74-.72a2.53,2.53,0,0,1-.18-1.34,13,13,0,0,1,1.44-4.16c1.25-1.86,2.32-3.84,3.57-5.71A37,37,0,0,1,506,90.79c.75-.88,1.54-1.72,2.35-2.54A3.33,3.33,0,0,1,511,87Z" style="fill:#fff"/><path d="M337.61,88.14c.43.43.79.64.91.94,1,2.53,2.08,5.07,1.52,7.89a6.07,6.07,0,0,1-.7,1.59c-.15.28-.42.5-.59.77-1.45,2.18-3.78,3-6.05,3.91-1.28.5-2,0-1.86-1.44a16.71,16.71,0,0,1,.78-3.78c.58-1.68,1.32-3.31,2.05-4.93a6.23,6.23,0,0,1,.91-1.28C335.53,90.64,336.5,89.48,337.61,88.14Z" style="fill:#fff"/><path d="M480.5,155.84a5.65,5.65,0,0,1,.89,1.26,5.39,5.39,0,0,1,.06,4.28c-.38.82-.61,1.73-1,2.56-1.13,2.51-3.28,4-5.54,5.37a2,2,0,0,1-1.56.08,1.21,1.21,0,0,1-.56-1.56,14.85,14.85,0,0,1,1.59-4.05c1.07-1.55,2-3.15,3.1-4.71A14.38,14.38,0,0,1,480.5,155.84Z" style="fill:#fff"/><path d="M295.44,159.82c.23-.88.46-1.76.7-2.64.17-.62.37-1.24.53-1.86a7.47,7.47,0,0,1,4-4.85,2.91,2.91,0,0,1,3.49.25,3.5,3.5,0,0,1,1.24,3.72A9.58,9.58,0,0,1,302,159.6L299,162a2.15,2.15,0,0,1-.58.38c-1.72.48-2.67.42-2.78-1.54,0-.32,0-.65,0-1Z" style="fill:#fff"/><path d="M559.53,171a2.57,2.57,0,0,1-.21-.74,14,14,0,0,1,1.15-5.36c.63-1.22,1.12-2.51,1.8-3.7a39.8,39.8,0,0,1,2.38-3.54,1.31,1.31,0,0,1,1-.52,1.38,1.38,0,0,1,.74.88,11.81,11.81,0,0,1-.51,7.6.64.64,0,0,1-.11.25c-1.72,1.6-3.43,3.2-5.17,4.77A3.27,3.27,0,0,1,559.53,171Z" style="fill:#fff"/><path d="M461.86,105a5.4,5.4,0,0,1,.44-3.36c.27-.59.59-1.15.84-1.75a39.18,39.18,0,0,1,5.32-8.79c.37-.5.85-1.15,1.55-1s.7,1,.72,1.66c0,1.83.34,3.69-.43,5.46a1,1,0,0,0-.07.41c.29,2.45-1.32,3.79-3,5.07-.84.64-1.76,1.16-2.64,1.74A4.15,4.15,0,0,1,461.86,105Z" style="fill:#fff"/><path d="M428.28,98.41a3.75,3.75,0,0,1-.45,6c-.51.31-1,.61-1.56.87a1.86,1.86,0,0,1-2.48-.43,1.84,1.84,0,0,1,.3-2.39A24.29,24.29,0,0,1,428.28,98.41Z" style="fill:#fff"/><path d="M363.35,95.82a29.72,29.72,0,0,1-.45,3.41,12.2,12.2,0,0,1-1.06,2.37,3.65,3.65,0,0,0-.41,2c.1,1.08-.46,1.74-1.68,2.2a2,2,0,0,1-2.34-.63,2,2,0,0,1-.3-1,10.5,10.5,0,0,1,1.29-5.57,18.46,18.46,0,0,1,1.32-1.9,2.4,2.4,0,0,0,.43-.84,3.55,3.55,0,0,1,1.55-2.2,1.38,1.38,0,0,1,1.11-.23c.22.07.4.56.44.89a9.63,9.63,0,0,1,0,1.52Z" style="fill:#fff"/><path d="M378.3,224.54c-.28.91-.52,1.84-.86,2.73a18.07,18.07,0,0,1-1.25,2.76c-.62,1.07-1.41,2-2.09,3.07a6.26,6.26,0,0,1-3.44,2.62c-1.28.39-1.87.13-2-1.2-.21-1.74-.3-3.5.8-5.06a3.29,3.29,0,0,0,.28-.92c.22-.6.42-1.22.69-1.8.34-.75.78-1.45,1.12-2.2a33.08,33.08,0,0,1,2.93-5.27c.61-.88,1-.92,1.72-.12A9.26,9.26,0,0,1,378.3,224.54Z" style="fill:#fff"/><path d="M570.63,98.19a8.58,8.58,0,0,1,1.47-3.73,17.76,17.76,0,0,1,2.33-2.34c.59-.52,1.16-.31,1.34.46a2.48,2.48,0,0,1,0,1.35,7.54,7.54,0,0,1-3.36,4.22A1.52,1.52,0,0,1,570.63,98.19Z" style="fill:#fff"/><path d="M515.71,155.27a2.86,2.86,0,0,1,.53.75,26,26,0,0,1,1,3.85,5.05,5.05,0,0,1-1.43,3.65c-1.2,1.58-3,2.43-4.59,3.5-.68.45-1.28,0-1.29-.79a7.73,7.73,0,0,1,.22-2.2,19.81,19.81,0,0,1,5.08-8.59C515.35,155.35,515.51,155.34,515.71,155.27Z" style="fill:#fff"/><path d="M308.29,90.17c-.51.55-1,1.14-1.55,1.65A12.38,12.38,0,0,1,305,93.13c-.22.15-.69.24-.81.12s-.42-.72-.31-.9A13.23,13.23,0,0,1,305.72,90,1.65,1.65,0,0,1,308.29,90.17Z" style="fill:#fff"/><path d="M242.81,106.26a7.9,7.9,0,0,1-1.86-.7,2.87,2.87,0,0,1-1.19-1.42,8.72,8.72,0,0,1-.07-4.91,42.16,42.16,0,0,1,1.83-5.71c.37-.79.8-1.55,1.2-2.32a.69.69,0,0,1,1-.33,7.6,7.6,0,0,1,1.69,1.39,6.32,6.32,0,0,1,1.14,2,11.26,11.26,0,0,1,0,7.45,4.68,4.68,0,0,1-.89,1.37C244.82,104.12,243.89,105.08,242.81,106.26Z" style="fill:#fff"/><path d="M359.62,225.43a15.14,15.14,0,0,1-1.12,4.33c-.7,2.06-2.36,3.48-3.75,5.05a2.58,2.58,0,0,1-2.72.51,1.14,1.14,0,0,1-.58-.82,10.79,10.79,0,0,1-.09-2.34,35.22,35.22,0,0,1,.51-4.11,16.07,16.07,0,0,1,1-3c.84-1.93,1.76-3.83,2.65-5.75a2.53,2.53,0,0,1,.2-.36c.8-1.18,1.53-1.14,2.29.08C359.13,220.83,359.35,222.89,359.62,225.43Z" style="fill:#fff"/><path d="M558.84,229.1a11,11,0,0,1,.25-1.14,18.69,18.69,0,0,1,2.73-4.61,1.76,1.76,0,0,1,.39-.38c.56-.39,1-.23,1.08.46a3.28,3.28,0,0,1-.66,2.74,23.59,23.59,0,0,1-2.19,2.28,7.85,7.85,0,0,1-1.36.83Z" style="fill:#fff"/><path d="M451.1,96.26a6.1,6.1,0,0,1-.17,1.36c-.65,1.76-1,3.62-2.15,5.21a5.64,5.64,0,0,1-2.91,2.38c-1.37.42-2.2-.12-2.12-1.53a13.6,13.6,0,0,1,1-4.42c.68-1.65,1.43-3.28,2.27-4.86a13,13,0,0,1,1.69-2.18c.7-.81,1.28-.74,1.59.26.39,1.22.62,2.49.92,3.74Z" style="fill:#fff"/><path d="M1032.6,614c-1.21,1-2.26,2.08-3.43,3a15.07,15.07,0,0,1-6.89,2.63c-1.36.21-2.75.28-4.13.36a4.28,4.28,0,0,1-3.12-1.21,8.51,8.51,0,0,1-2.89-7.68c.15-1.65.36-3.3.63-4.94a3.36,3.36,0,0,1,.73-1.43c1.23-1.55,2.5-3.06,3.77-4.59a27,27,0,0,1,2.51-2.91,8.49,8.49,0,0,1,2.34-1.14,4.63,4.63,0,0,0,1-.36c1-.78,1.81-.5,2.75.16,1.26.88,2.58,1.66,3.2,3.15a2,2,0,0,1,.25,1.31c-.66,1.78-.8,3.83-2.48,5.12-.62.47-1.23,1-1.88,1.37a11.9,11.9,0,0,1-5.48,1.67c-1,.11-1.2.47-1.56,1.47a8,8,0,0,0,.15,4.61,3.1,3.1,0,0,0,3.2,2.16,12,12,0,0,0,5-1.15c.67-.31,1.38-.52,2-.84s1.3-.67,1.93-1c.32-.19.56-.52.89-.65a2.19,2.19,0,0,0,1.39-2.29,69.61,69.61,0,0,1,1.29-11.24c.26-1.3.2-2.66.9-3.88a3.32,3.32,0,0,1,3.23-1.65,2.15,2.15,0,0,1,2,2.28,15.72,15.72,0,0,1-.7,5.31,29.58,29.58,0,0,0-1.15,7.37c-.08,1.47,0,3,0,4.43a7.8,7.8,0,0,0,.22,1.25h.31c.28-.85.61-1.69.85-2.55a45.19,45.19,0,0,1,4.16-10.36,11.58,11.58,0,0,0,1.35-4.74,2.92,2.92,0,0,1,1.11-2.28c.73-.53,1.4-1.35,2.45-.81s2.24,1.33,2.22,2.89a8.1,8.1,0,0,1-.67,3.92,1.3,1.3,0,0,0-.14.39c-.4,2.07-1.65,3.75-2.51,5.62-1,2.11-2.23,4.12-2.75,6.46a43.13,43.13,0,0,1-1.75,5.37,3.48,3.48,0,0,1-3.85,2,1.65,1.65,0,0,1-.86-.79c-.64-1.2-.62-1.22-1.78-.68a1.26,1.26,0,0,1-1.63-.23,4.12,4.12,0,0,1-1.26-1.93C1033.23,615.87,1032.89,614.91,1032.6,614Zm-10.29-11.39c1-.24,1.37-.83,1.83-1.75C1023.14,601.18,1022.4,601.44,1022.31,602.57Z"/><path d="M1120,598.66c.23-.13.36-.17.38-.22.37-1.74,1.33-3.34,1.26-5.19a2.7,2.7,0,0,1,.94-2.21,8.16,8.16,0,0,0,.82-1.11,2.25,2.25,0,0,1,3.4-.31,3.22,3.22,0,0,1,1.21,2.11,1.56,1.56,0,0,0,1.09,1.42,3.39,3.39,0,0,1,1.29,1.15,1,1,0,0,1-.19,1.47,1,1,0,0,1-1.48-.13c-.35-.41-.7-.88-1.39-.76-.53,2.12-1.06,4.23-1.63,6.53a10.12,10.12,0,0,0,1.72-.29c.69-.23,1.35-.58,2-.88,1.19-.53,3.15,0,3.64,1.13a5.24,5.24,0,0,1,0,2,27,27,0,0,0-2.7,1.68,12.26,12.26,0,0,1-5.19,2.1c-1.09.24-1.41.43-1.67,1.52a75.51,75.51,0,0,0-1.89,12c-.06.87-.16,1.74-.2,2.61a1.21,1.21,0,0,1-.82,1.16.89.89,0,0,1-.26.09c-3.23.46-3.39.52-3.59-2.5a55.11,55.11,0,0,1,.29-9.26c.11-1.05.41-2.08.6-3.12a2.58,2.58,0,0,0-.25-2.13,1.16,1.16,0,0,1,.2-1.52,16.6,16.6,0,0,0,1.26-1.64c.16-.26.07-.66.1-1a2.55,2.55,0,0,0-1,0,3.18,3.18,0,0,0-.9.82c-.34.39-.62.81-.93,1.21a1.38,1.38,0,0,1-1.48.5.64.64,0,0,1-.57-.91c.49-1.43,1-2.85,1.5-4.28a2.59,2.59,0,0,0,.23-.93,2.94,2.94,0,0,0-4.3-2.3,11.86,11.86,0,0,0-4.33,4.57c-1.62,3.31-1.62,5.77,1.33,8.81a28.43,28.43,0,0,1,2.47,2.8,11.39,11.39,0,0,1,1.43,2.66,2.35,2.35,0,0,1-1.69,2.88,13.18,13.18,0,0,1-1.78.27c-2.45.18-4.07-1.19-5.41-3a1.68,1.68,0,0,1-.09-2,1.65,1.65,0,0,0-.12-1.94,16.56,16.56,0,0,1-1.22-2,11.47,11.47,0,0,1,2.18-12.91c.7-.79,1.38-1.61,2.1-2.38a7.37,7.37,0,0,1,4.27-2.37c1.55-.24,3.08-.64,4.64-.05a6.28,6.28,0,0,1,3.58,3.26C1119.28,596.89,1119.62,597.78,1120,598.66Z"/><path d="M1048.75,617.1a25.79,25.79,0,0,1,1.45-7.1c1.29-3.72,3.71-6.66,6.16-9.58a17.32,17.32,0,0,1,3.8-3.17,2.89,2.89,0,0,1,3.5-.15c.41.3.94.41,1.35.7a4,4,0,0,1,1.67,4.61,9.41,9.41,0,0,1-2.39,4.45c-.94.95-1.71,2.07-2.71,2.94a14.86,14.86,0,0,1-3,1.9c-1,.52-2.13.85-3.18,1.32a1.47,1.47,0,0,0-.62.66,8.63,8.63,0,0,0-.64,5.41,2.17,2.17,0,0,0,2.71,1.88,10.75,10.75,0,0,0,2.34-.79c1.29-.61,2.56-1.27,3.8-2a12.23,12.23,0,0,0,3.41-3.39,7.87,7.87,0,0,1,.55-.79c1.26-1.23,1.45-2.79,1.53-4.45.15-3.17.35-6.34.63-9.51.2-2.2,1.86-3.11,3.86-2.28a2.46,2.46,0,0,1,1.36,2.24c.18,1.22.19,1.24,1.29.82a9.27,9.27,0,0,1,1.6-.34c.64-.12,1.28-.2,1.9-.34a6.43,6.43,0,0,1,5.53,1.51.79.79,0,0,1,0,1.39,5.67,5.67,0,0,1-1.73.8c-1.34.34-2.71.55-4,.89a4.37,4.37,0,0,0-3,2.49,15.48,15.48,0,0,0-1,3.41,34.06,34.06,0,0,0-.82,8.24,3.25,3.25,0,0,1-.08.69c-.18.88-.38,1.73-1.41,2s-2.26.48-3.25-.46a2.27,2.27,0,0,1-.73-1.58,7.52,7.52,0,0,0-.11-1.51,1.15,1.15,0,0,0-.63-.75,1.23,1.23,0,0,0-.88.45,14.73,14.73,0,0,1-1.35,1.9c-3.42,3-7.34,4.68-12,4.22a4.28,4.28,0,0,1-4.08-3.34C1049.08,619.26,1048.91,617.93,1048.75,617.1Z"/><path d="M1119.07,577.74a2.38,2.38,0,0,1-2.21-1.91c-.22-.69-.45-1.39-.68-2.08-.28-.85-1-1.1-1.52-.38a11.86,11.86,0,0,1-4.48,3.39,24.08,24.08,0,0,1-5.29,1.92,5.94,5.94,0,0,1-2.71-.29,2.17,2.17,0,0,1-1.65-1.86,22.38,22.38,0,0,1-.09-7.26c.44-3.22,2.1-5.85,3.5-8.62a7,7,0,0,0,.47-1,7.66,7.66,0,0,1,2.12-3.19,15.91,15.91,0,0,0,1.25-1.47,4.4,4.4,0,0,1,2.52-1.82,4.3,4.3,0,0,0,1.33-.71,4.5,4.5,0,0,1,2.34-.74,3.17,3.17,0,0,0,1.28-.39,1.68,1.68,0,0,1,2.35.33c.88.81,1.76,1.62,2.62,2.45a3.14,3.14,0,0,1,.49.66,8.29,8.29,0,0,1,.87,7.34,23.1,23.1,0,0,0-.7,10,2.11,2.11,0,0,0,1.84,2.06c1.46.34,1.57.93.56,2.05S1121.11,577.71,1119.07,577.74Zm-2.73-18.41a10.07,10.07,0,0,0,0-1.1c-.14-1.45-1.12-2-2.43-1.4a7.27,7.27,0,0,0-1.31,1c-.32.27-.58.6-.91.84a10,10,0,0,0-2.75,3.41c-.72,1.28-1.38,2.59-2,3.9a14.63,14.63,0,0,0-1.73,7.42c0,1.11.7,1.54,1.63,1a14.25,14.25,0,0,0,4.44-3.43,27.34,27.34,0,0,0,3.6-5.53A14.18,14.18,0,0,0,1116.34,559.33Z"/><path d="M1166.57,602.81a12.8,12.8,0,0,1-1,4.4,39.26,39.26,0,0,1-3.64,6.49,23.74,23.74,0,0,1-2.61,3,13.83,13.83,0,0,1-2.42,1.8,3,3,0,0,0-1.72,2.42c-.19,1.95-.82,3.86-1.19,5.8-.3,1.58-.48,3.19-.74,4.78-.18,1-.42,2.07-.61,3.12a1.1,1.1,0,0,1-1.19,1.07,13.25,13.25,0,0,0-1.36.22c-1.65.24-2.65-.6-2.5-2.25.17-1.92.45-3.84.73-5.76.33-2.18.88-4.33,1-6.52a23.2,23.2,0,0,1,1.52-7c.35-.89.43-1.88.71-2.8.59-1.89,1.27-3.76,1.82-5.65s1.08-4,1.56-6a3.73,3.73,0,0,1,4.43-2.93,3.87,3.87,0,0,0,1.76,0,3.1,3.1,0,0,1,3.55,1.13A6.59,6.59,0,0,1,1166.57,602.81Zm-7.83,6.94c1.79-2.74,2.44-4.46,2.14-5.54C1159.56,605,1158.43,607.73,1158.74,609.75Z"/><path d="M1005.33,601.06a12.56,12.56,0,0,0-1.28,1.89c-.87,1.93-1.65,3.89-2.45,5.85-.33.81-.66,1.62-.93,2.44a15.23,15.23,0,0,0-.68,5.19,2.47,2.47,0,0,1-1.14,2.23c-.73.51-1.5,1-2.41.55a2.67,2.67,0,0,1-1.71-2.48c.06-2.21.09-4.42.16-6.63.11-3.68.34-7.37.32-11.05a9.13,9.13,0,0,1,1.38-4.41c.52-1,1.6-.73,2.51-.7a1.51,1.51,0,0,1,1.48,1.23,15.13,15.13,0,0,1,.25,1.5c0,.35.12.7.18,1,.62.11.76-.25.85-.61a5.44,5.44,0,0,1,2-2.72,2.14,2.14,0,0,1,1.11-.48,4.76,4.76,0,0,1,5,3.72,46.46,46.46,0,0,1,.58,11.29c-.11,1.46,0,3-.12,4.41s-.57,3.16-.87,4.73a1.56,1.56,0,0,1-1.12,1.27,5,5,0,0,0-1.3.75,1.06,1.06,0,0,1-1.77-.43,3,3,0,0,1-.19-1.22q.16-5.52.37-11c.06-1.61.18-3.21.24-4.82a10.13,10.13,0,0,0-.17-1.43Z"/><path d="M1087,559.11c1.38-.32,2.48-.62,3.6-.84a3.56,3.56,0,0,1,3.45.89,6.05,6.05,0,0,1,1.81,3c.39,1.8.91,3.57.41,5.45-.37,1.43-.61,2.89-.93,4.33a4.56,4.56,0,0,1-2.29,3c-1.13.68-1.81.41-2.11-.88a4.2,4.2,0,0,1,0-1.5c.23-1.59.62-3.17.75-4.77a22.67,22.67,0,0,0-.18-3.58c0-.59-.45-.73-1-.69a1.64,1.64,0,0,0-1.42,1c-1.12,2.34-2.13,4.71-2,7.39,0,.93-.07,1.86,0,2.77a3,3,0,0,1-1.42,2.67,1.84,1.84,0,0,1-1.29.28,3.16,3.16,0,0,1-2.74-3.16c-.17-3.68-.43-7.36-.52-11-.06-2.67.11-5.34.12-8,0-2.12-.07-4.24-.11-6.36,0-1.29-.07-2.59,0-3.87a1.9,1.9,0,0,1,.56-1.18c.41-.4,1-1,1.45-.87a4.05,4.05,0,0,1,2.63,1.36,5.51,5.51,0,0,1,1.08,3.21c-.07,3.14-.07,6.28-.07,9.42A18.77,18.77,0,0,0,1087,559.11Z"/><path d="M1149.72,607.39c.36,2.86-.69,5.26-2.11,7.68a14.9,14.9,0,0,1-4.78,5,7.21,7.21,0,0,1-1.87.86c-1.54.46-3.1.86-4.66,1.25a3.75,3.75,0,0,1-2.82-.25c-2.23-1.23-3.63-2.94-3.4-5.65.08-.92.11-1.84.1-2.76a13.19,13.19,0,0,1,1.8-6.19,26.21,26.21,0,0,1,6.46-8.17,2.74,2.74,0,0,1,3.1-.26,2.76,2.76,0,0,0,2.35.38c2.15-.5,3.53.38,4.7,2.22S1149.61,605.4,1149.72,607.39Zm-4.93-.32c-.07-.82-.08-1.66-.23-2.47-.23-1.3-.76-1.54-1.93-1-.58.28-1.19.51-1.75.83a5.53,5.53,0,0,0-1.3.94,17.61,17.61,0,0,0-3.39,5.81,12,12,0,0,0-.9,5.55c.1,1.07.43,1.39,1.47,1.44a3.72,3.72,0,0,0,3-1.17c1.09-1.18,2.17-2.39,3.15-3.66A8,8,0,0,0,1144.79,607.07Z"/><path d="M1216.53,617.16c-2.42,1.94-5.07,1.5-7.61,1.26-1.44-.13-2.27-1.32-2.81-2.61a15.82,15.82,0,0,1-.09-11.49c.62-1.82,1.42-3.6,2.17-5.38a2.53,2.53,0,0,1,3.26-1.48c2.42.75,2.48.84,1.85,3.31a9.77,9.77,0,0,1-1.36,3.45,5.86,5.86,0,0,0-.68,1.65c-.3.92-.53,1.86-.82,2.79a9.52,9.52,0,0,0,.06,4.8c.37,1.82,1.56,2.13,3.22,1.14,2.45-1.46,3.58-3.74,4.17-6.4.33-1.52.61-3.06,1-4.56a7.46,7.46,0,0,1,1.06-1.93c.37-.58.81-1.11,1.2-1.68a1.56,1.56,0,0,1,2.11-.77c2.13.63,2.86,2.21,1.61,4a15.3,15.3,0,0,0-1.63,4.35c-.52,1.61-.78,3.32-1.18,5a11.46,11.46,0,0,0,.15,6.28,4.11,4.11,0,0,1,.24,1.08,1,1,0,0,1-.92,1.14,3.61,3.61,0,0,1-4.12-2.06C1217.17,618.47,1216.9,617.9,1216.53,617.16Z"/><path d="M1133.65,560.41c.69-.45,1.11-.79,1.58-1a4,4,0,0,1,4.2-.07,1.32,1.32,0,0,1,.7,1.24,3.37,3.37,0,0,1-2.3,3.23,3.72,3.72,0,0,0-1.21.65,6.65,6.65,0,0,1-3.23,1.48c-1,.21-1.15.41-1.23,1.37-.23,2.62-.48,5.24-.6,7.87a25.91,25.91,0,0,0,.24,3.72c.14,1.47.06,1.64-1.36,2.23-.13,0-.24.13-.36.19-1.66.85-2.72.52-3.14-1.28a21.34,21.34,0,0,1-.78-7.8c.35-2.55.47-5.13.83-7.68.42-3,1-5.9,1.51-8.86q.43-2.67.73-5.34a3.89,3.89,0,0,1,.63-2.07,3,3,0,0,0,.36-1.54c0-.63-.08-1.28-.06-1.92a1.62,1.62,0,0,1,1.12-1.46,3,3,0,0,1,4,2,6,6,0,0,1,.22,2.18c-.38,2.64-.87,5.27-1.34,7.89-.19,1.09-.48,2.16-.65,3.25A9.51,9.51,0,0,0,1133.65,560.41Z"/><path d="M1066.79,556.84c.51,0,1,0,1.52,0,1.22-.06,1.54-.36,1.7-1.55a5.7,5.7,0,0,0,.1-.83c-.07-1.92.75-3.68,1.05-5.53a7.67,7.67,0,0,0,.06-4.09,1,1,0,0,1,.13-.78c.56-.9,1.15-1.78,1.75-2.65s1.42-.76,2.25-.58a1.9,1.9,0,0,1,1.58,1.55,18.24,18.24,0,0,1-.76,10,13.86,13.86,0,0,0-.36,3.55c0,.48.3.71.76.83a7.11,7.11,0,0,1,1.57.54,2.1,2.1,0,0,1,1.23,1.87c0,.74-.57,1.09-1.15,1.42a5.09,5.09,0,0,1-2.4,1,1.14,1.14,0,0,0-1.09,1.08c-.2,1.13-.4,2.26-.54,3.41-.24,2-.43,3.94-.65,5.91a2.91,2.91,0,0,1-3.72,2.25,1.77,1.77,0,0,1-.85-1.14,17.19,17.19,0,0,1-.27-3.43c.07-1.89.28-3.77.42-5.66a10.29,10.29,0,0,0,0-1.11c0-1.49-.28-1.79-1.73-1.91-.69-.06-1.39,0-2.07-.15a15,15,0,0,1-2-.55,1.45,1.45,0,0,1-1.15-1.53,1.72,1.72,0,0,1,1.3-1.62,32,32,0,0,1,3.26-.49Z"/><path d="M1232.91,618c-.5-.38-.7-.55-.91-.7a18.08,18.08,0,0,1-4.37-4.18c-2-2.68-1.92-5.63-1.29-8.72.47-2.33,2.21-3.53,3.86-4.84.57-.45,1.23-.8,1.82-1.23,2.26-1.65,5-1.87,7.58-2.37.31-.06.65,0,1-.11,1.67-.44,2.6.53,3.37,1.78.42.68.35,1.11-.41,1.45a8.06,8.06,0,0,1-2.62.82,15.92,15.92,0,0,0-9.37,5,1.4,1.4,0,0,0-.3.61c-.17,1.47-.52,3,.22,4.35a11.38,11.38,0,0,0,2.38,3c1.41,1.25,3,2.25,4.52,3.4a9.48,9.48,0,0,1,1.6,1.5,1.76,1.76,0,0,1-.85,2.9,25.64,25.64,0,0,1-3.89.94c-2.08.32-4.17.86-6.29.21a12.42,12.42,0,0,1-1.66-.65,1.41,1.41,0,0,1-.77-1.61c.12-1.17.52-1.48,1.71-1.43s2.39.06,3.59.07A9,9,0,0,0,1232.91,618Z"/><path d="M1183,598.62a4.23,4.23,0,0,0-4.26.63c-2.14,1.58-3.54,3.47-3.31,6.26a3.68,3.68,0,0,0,.11.82,48,48,0,0,0,3.15,8.1,4,4,0,0,1,.45,1.43,2.27,2.27,0,0,1-1.72,2.49,4.48,4.48,0,0,1-3.7-.73,6.35,6.35,0,0,1-2.28-2.35c-.68-1.3-1.52-2.51-2.32-3.74-.66-1-.59-1.38.52-1.87a11.87,11.87,0,0,1,1.29-.4,3.25,3.25,0,0,0-.06-1c-.76-2-.36-4.11-.36-6.16a3.37,3.37,0,0,1,.56-1.39c1.05-2,2.2-4,4.07-5.15,1.35-.86,2.7-2.2,4.62-1.74a.78.78,0,0,0,.4,0c2.59-.79,4.55.21,6.24,2.11a5.55,5.55,0,0,1,1.53,2.87,2.34,2.34,0,0,1-.43,1.92c-.31.4-.69.76-1,1.18a1.48,1.48,0,0,1-1.46.79,4,4,0,0,0-1.58.44,1.14,1.14,0,0,1-1.56-.44,1,1,0,0,1,.24-1.35C1183,600.57,1182.94,599.65,1183,598.62Z"/><path d="M1251.35,613.87a1.19,1.19,0,0,1,.53.11,16.35,16.35,0,0,1,2.79,2.19c.93,1.07.22,2.45-1.21,2.69a6.88,6.88,0,0,0-1,.39c-1.1.4-1.58.21-2.15-.81s-1.2-2.3-.46-3.65A1.35,1.35,0,0,1,1251.35,613.87Z"/><path d="M1022.31,602.57c.09-1.13.83-1.39,1.83-1.75C1023.68,601.74,1023.28,602.33,1022.31,602.57Z" style="fill:#fff"/><path d="M1116.34,559.33a14.18,14.18,0,0,1-1.52,6.11,27.34,27.34,0,0,1-3.6,5.53,14.25,14.25,0,0,1-4.44,3.43c-.93.53-1.58.1-1.63-1a14.63,14.63,0,0,1,1.73-7.42c.67-1.31,1.33-2.62,2-3.9a10,10,0,0,1,2.75-3.41c.33-.24.59-.57.91-.84a7.27,7.27,0,0,1,1.31-1c1.31-.63,2.29-.05,2.43,1.4A10.07,10.07,0,0,1,1116.34,559.33Z" style="fill:#fff"/><path d="M1158.74,609.75c-.31-2,.82-4.8,2.14-5.54C1161.18,605.29,1160.53,607,1158.74,609.75Z" style="fill:#fff"/><path d="M1144.79,607.07a8,8,0,0,1-1.88,6.29c-1,1.27-2.06,2.48-3.15,3.66a3.72,3.72,0,0,1-3,1.17c-1-.05-1.37-.37-1.47-1.44a12,12,0,0,1,.9-5.55,17.61,17.61,0,0,1,3.39-5.81,5.53,5.53,0,0,1,1.3-.94c.56-.32,1.17-.55,1.75-.83,1.17-.56,1.7-.32,1.93,1C1144.71,605.41,1144.72,606.25,1144.79,607.07Z" style="fill:#fff"/><path d="M996.33,559.16c-.18-3.94.6-7.8,1.14-11.68.23-1.6.51-3.19.64-4.79.1-1.16.85-1.54,1.74-1.89a2.25,2.25,0,0,1,2.45.44,2.84,2.84,0,0,1,.59,1.62,21.1,21.1,0,0,1-.37,6.19c-.24,1.46-.65,2.89-.79,4.35-.2,2.2-.27,4.42-.32,6.63,0,1.25.38,1.43,1.52.81s2-1.1,3-1.6a4.35,4.35,0,0,1,4.81.53c.48.35,1,.65,1.5,1a2.93,2.93,0,0,1,.78,4.6,25.4,25.4,0,0,0-2.35,3.4,6,6,0,0,1-3.76,2.83,5.84,5.84,0,0,1-5.08-.41c-.51-.32-1.06-.57-1.59-.85a6.73,6.73,0,0,1-3.94-5.9C996.26,562.67,996.33,560.92,996.33,559.16Zm12.41,5.77c-.48-1.07-.7-1.3-1.55-1.17a8.87,8.87,0,0,0-5.44,2.69,3.53,3.53,0,0,0,2.81,1C1006.42,567.4,1007.66,566.29,1008.74,564.93Z"/><path d="M1020.82,566a9.57,9.57,0,0,0,1.13-1,18.59,18.59,0,0,0,1.89-2.54,16.32,16.32,0,0,0,1.32-3.17c.5-1.68.82-3.4,1.3-5.08.41-1.46.88-2.91,1.43-4.33a1.65,1.65,0,0,1,2.77-.12,4.43,4.43,0,0,1,.68,2.19,22.37,22.37,0,0,1-.38,4c-.4,2.36-1,4.68-1.35,7a40.71,40.71,0,0,0-.14,4.56,1,1,0,0,0,.76,1c.43.14.84.35,1.42.59a5.87,5.87,0,0,1-.65,1.26,22.06,22.06,0,0,1-2.1,2,1.67,1.67,0,0,1-2.57-.18,4.26,4.26,0,0,1-1.38-2.64,7,7,0,0,0-.58-1.57,11.22,11.22,0,0,0-3,2,2.85,2.85,0,0,1-4.28.06,4.84,4.84,0,0,1-1.55-3.7,33.65,33.65,0,0,1,1-10.57,34.77,34.77,0,0,0,.93-4,3.17,3.17,0,0,1,1.49-2.07,1.89,1.89,0,0,1,2.78.79,3.93,3.93,0,0,1,.29,2.83c-.64,3.12-1.14,6.26-1.47,9.42A5.81,5.81,0,0,0,1020.82,566Z"/><path d="M1044.58,544.71q-.43,3.56-.85,7.13c0,.18-.07.36-.09.55-.16,1.34,0,1.52,1.41,1.36a10.88,10.88,0,0,1,2.34-.12,3.36,3.36,0,0,1,1.6.68c.76.62.73,1.08.13,1.87a3.53,3.53,0,0,0-.77,1.27c-.18.91-.74,1.18-1.54,1.32s-1.6.38-2.42.51-.89.56-.88,1.18c0,2,.07,4,.12,5.93,0,1,.06,1.94.13,2.9.13,1.69-.77,3-1.6,4.33a1.8,1.8,0,0,1-2.67,0,5.61,5.61,0,0,1-.86-2.28c-.28-2.61-.43-5.23-.62-7.85a9.09,9.09,0,0,1,0-1.38,1.57,1.57,0,0,0-.74-1.53c-.76-.52-1.49-1.08-2.28-1.55a1.26,1.26,0,0,1-.72-1.36c.09-.64.17-1.32.91-1.58.43-.15.89-.23,1.33-.37,1.17-.36,1.43-.75,1.57-2,.4-3.52.83-7,1.26-10.56a3.85,3.85,0,0,1,1.6-2.5,2,2,0,0,1,2.23-.17,2.13,2.13,0,0,1,1.28,2c0,.74,0,1.48,0,2.21Z"/><path d="M964.84,557.65c2.87-.37,5.74-.77,8.62-1.11,1.64-.19,3.3-.31,4.95-.43,2.22-.16,3.32.49,3,3.19,0,.18,0,.37,0,.55a1.32,1.32,0,0,1-1.35,1.3c-3.93.48-7.86,1-11.8,1.41a26.87,26.87,0,0,1-4.82-.17,1.58,1.58,0,0,1-1.64-1.68,3,3,0,0,0-.37-1,1.53,1.53,0,0,1,1.36-2.24c.68,0,1.38,0,2.07,0Z"/><path d="M1008.74,564.93c-1.08,1.36-2.32,2.47-4.18,2.49a3.53,3.53,0,0,1-2.81-1,8.87,8.87,0,0,1,5.44-2.69C1008,563.63,1008.26,563.86,1008.74,564.93Z" style="fill:#fff"/></g></svg>
