<svg xmlns="http://www.w3.org/2000/svg" viewBox="0 0 1366 768"><g id="Layer_8" data-name="Layer 8"><path d="M388.92,416a4.53,4.53,0,0,0,2.67-1.66A151.2,151.2,0,0,0,410.11,380a142.61,142.61,0,0,0,8.25-33.88,137.1,137.1,0,0,0,.16-29.28,195.19,195.19,0,0,0-8.21-39.6,259.26,259.26,0,0,0-13-33.1c-5.26-11.25-11-22.25-17-33.15-6.64-12.13-13.61-24.07-20.25-36.19-1.32-2.42-2.45-4.95-4-7.26a1.82,1.82,0,0,0-2-.93" style="fill:none;stroke:#000;stroke-linecap:round;stroke-linejoin:round;stroke-width:2px"/><path d="M655.56,233c-1.14.28-1.47-.38-2-1.3-8.69-16.25-21-29.21-35.92-39.91a182.21,182.21,0,0,0-27.63-16.28c-9.17-4.39-18.59-8.17-28.08-11.77-10-3.76-19.79-7.83-29.79-11.46-12.08-4.38-24.18-8.7-36.46-12.52-9.44-2.94-19-5.48-28.57-7.89-3.57-.9-7.23-1.46-10.8-2.38a3.77,3.77,0,0,0-3.59.67" style="fill:none;stroke:#000;stroke-linecap:round;stroke-linejoin:round;stroke-width:2px"/><path d="M907.08,606c2.06.54,2.9,2.42,4,3.86,6.58,8.23,14.42,15.18,22.11,22.3,6.23,5.77,12.49,11.5,18.72,17.28q11.7,10.88,23.72,21.4c6.16,5.41,12.4,10.7,19,15.57a133.38,133.38,0,0,0,15.38,9.8c4.3,2.33,8.86,3.91,13.9,3.27" style="fill:none;stroke:#000;stroke-linecap:round;stroke-linejoin:round;stroke-width:2px"/><path d="M505.32,500c-4.13,2.35-8.21.6-12.23-.28-8.47-1.84-16.46-5.22-24.46-8.43a179.07,179.07,0,0,0-26.93-8.7,122.19,122.19,0,0,0-15.81-2.17c-7-.65-13.81.27-20.64,1.4-.95.16-1.77-.18-2.65-.06" style="fill:none;stroke:#000;stroke-linecap:round;stroke-linejoin:round;stroke-width:2px"/><path d="M1039.56,584.92a19.16,19.16,0,0,0-1.93.2c-5,1.45-9.83.3-14.63-1.16-15.6-4.73-31.22-9.39-46.79-14.18-10.36-3.18-20.75-6.24-31-9.79a11.34,11.34,0,0,0-2.63-.27" style="fill:none;stroke:#000;stroke-linecap:round;stroke-linejoin:round;stroke-width:2px"/><path d="M953.16,531.4c.3,1.6,1.88,1.56,2.9,2.13a177.52,177.52,0,0,0,38.62,15.62,162.23,162.23,0,0,0,23.05,4.74,138.7,138.7,0,0,0,23.75,1.51" style="fill:none;stroke:#000;stroke-linecap:round;stroke-linejoin:round;stroke-width:2px"/><path d="M1037.88,535.48a191.75,191.75,0,0,0-21.15-6.36c-6.14-1.48-12.4-2.59-18.68-3.55a210,210,0,0,0-37-2.29c-3.12.07-6.24.19-9.36.2" style="fill:none;stroke:#000;stroke-linecap:round;stroke-linejoin:round;stroke-width:2px"/><path d="M932.28,725.8c.27-2.28-.51-4.38-1.2-6.48a203.61,203.61,0,0,0-15.63-36,186.78,186.78,0,0,0-19.62-28.85c-.64-.77-1.15-1.45-2.19-1.53" style="fill:none;stroke:#000;stroke-linecap:round;stroke-linejoin:round;stroke-width:2px"/><path d="M663,271.24c-3,2.06-5.57,4.68-8.36,7A350.83,350.83,0,0,1,623.38,301c-4.75,3.13-9.87,5.73-13.89,9.88-.62.64-1.44.59-2.17.83" style="fill:none;stroke:#000;stroke-linecap:round;stroke-linejoin:round;stroke-width:2px"/><path d="M387.72,424.12c-.2,9.18,2.11,18,4.65,26.61,2.33,7.94,4.64,15.89,7.3,23.9a5.54,5.54,0,0,0,2,.13" style="fill:none;stroke:#000;stroke-linecap:round;stroke-linejoin:round;stroke-width:2px"/><path d="M593.4,300.52c2.84-.93,5.38-1.95,7.55-4.46,4.42-5.09,10.34-8.47,16-12.07,3.11-2,6.09-4.15,9.08-6.3,2.18-1.56,2.29-2.3,1-5-2.61-5.35-2.48-4.84-7-1.94-9.22,6-18.89,11.14-28.55,16.33-1.13.61-2.24,1.28-3.36,1.92" style="fill:none;stroke:#000;stroke-linecap:round;stroke-linejoin:round;stroke-width:2px"/><path d="M466,441.76c-2,.7-2.24,2.81-2.76,4.24-2,5.66-4.73,11-7.06,16.53-1,2.44-2.26,4.79-3.36,7.2a2.33,2.33,0,0,1-2.66,1.67" style="fill:none;stroke:#000;stroke-linecap:round;stroke-linejoin:round;stroke-width:2px"/><path d="M464.52,444.52a122,122,0,0,1,18.26,6.93c1.87.91,3.33,2.58,5.5,2.91" style="fill:none;stroke:#000;stroke-linecap:round;stroke-linejoin:round;stroke-width:2px"/><path d="M644.28,253c2.75,4.21,6.77,7,10.77,9.88a21.76,21.76,0,0,1,5.86,5.43,11.14,11.14,0,0,1,1.37,2.93" style="fill:none;stroke:#000;stroke-linecap:round;stroke-linejoin:round;stroke-width:2px"/><path d="M656.52,238.12c-2.73.76-3.49,3.44-5,5.33-2.47,3.13-5.84,5.53-7.5,9.31-5.69,3.27-9.87,8.46-15.32,12.06-1.52,1-3.53,1.68-4.12,3.78" style="fill:none;stroke:#000;stroke-linecap:round;stroke-linejoin:round;stroke-width:2px"/><path d="M517.56,430.36c3.08,3.25,6,6.73,9.85,9.1,1.53.93,3,2,5,1.75,1.2-.16,2.94,2.57,3.11,4.51" style="fill:none;stroke:#000;stroke-linecap:round;stroke-linejoin:round;stroke-width:2px"/><path d="M354.24,130.12c.32.49,0,.54-.36.48-.58-.09-1-.64-1.68-.48" style="fill:none;stroke:#000;stroke-linecap:round;stroke-linejoin:round;stroke-width:2px"/></g></svg>
