<svg xmlns="http://www.w3.org/2000/svg" viewBox="0 0 1366 768"><g id="Layer_8" data-name="Layer 8"><path d="M711.24,387.16a4.19,4.19,0,0,1-1,1.91q-6.46,7.1-12.95,14.17a5.7,5.7,0,0,1-4.32,1.92" style="fill:none;stroke:#000;stroke-linecap:round;stroke-linejoin:round;stroke-width:2px"/><path d="M627,478.36a6.41,6.41,0,0,0-.49,9.12c2.71,3.07,6.19,5.1,9.61,7.19a357.8,357.8,0,0,0,35,18.71,5.46,5.46,0,0,0,3.11.76,1.5,1.5,0,0,1,1.21.2c7.19,5.3,19.71,8.84,28.3,7.65,6.67-.93,11.71-4.49,15.45-10.22a44.19,44.19,0,0,1,7.06-9c6.05-5.48,14-4.91,17.34,3.66,3.05,7.91,6.22,15.77,8.47,24,.81,2.94,2.57,5.58,4.24,8.19a112.4,112.4,0,0,0,13.9,18.26c7.4,7.58,16.39,12.51,26.2,16,12.27,4.39,25.07,6.53,37.91,8.45a79.86,79.86,0,0,0,9.12.95c9.35.33,17.91-2.29,25.92-7a75.08,75.08,0,0,0,29.47-30.51c4.46-8.58,7.16-17.75,6.75-27.57a27.32,27.32,0,0,0-6.49-17c-11.89-13.85-25.4-25.88-41.27-35a87.39,87.39,0,0,0-35.5-11.53,67.52,67.52,0,0,0-36.47,6.71,44.08,44.08,0,0,1-11.06,4c-3.14.59-6.35.7-9.34-.71-4.17-2-6.83-5.28-4.09-11.5a37,37,0,0,1,4-6.27c1.79-2.5,3.45-5.13,3.64-8.37a13.53,13.53,0,0,0-4.35-10.77c-5.49-5.39-12.34-7.88-19.89-8.67" style="fill:none;stroke:#000;stroke-linecap:round;stroke-linejoin:round;stroke-width:2px"/><path d="M491.52,439.24c.76,3.52,1.46,7.05,2.29,10.56,1.24,5.23,2,10.55,2.89,15.84,1.82,10.57,3.64,21.16,7.66,31.2a54.25,54.25,0,0,0,17,22.79c13.29,10.48,27.81,19.11,42.25,27.83,23.71,14.32,48.2,27.22,73,39.62q35.56,17.8,71.48,34.88Q727.6,631.27,747,640.8c8.9,4.36,17.8,8.72,26.84,12.79,11.43,5.15,23.07,9.7,35.31,12.39,14.16,3.12,28.36,3.68,42.48-.64a79.13,79.13,0,0,0,29.77-17,80.35,80.35,0,0,0,18.91-25.47,67.2,67.2,0,0,0,4.59-12.71c.32-1.26,1-2.43,1.34-3.63a10.5,10.5,0,0,0,0-6.42,3.79,3.79,0,0,1,1.31-4.55c14.83-12.52,23.85-29.07,32.09-46.14,3.06-6.35,5.89-12.83,8.41-19.43a3.2,3.2,0,0,1,3.63-2.39" style="fill:none;stroke:#000;stroke-linecap:round;stroke-linejoin:round;stroke-width:2px"/><path d="M496.56,422.8a43.26,43.26,0,0,0,8,18.84c5.59,7.47,12.84,13,20.89,17.5,12.21,6.83,25.41,11.57,37.91,17.78,7.09,3.52,14.11,7.19,20.86,11.31a250,250,0,0,0,46.58,22.28c11.65,4.12,22.9,9.18,34.09,14.39,7.73,3.59,15.21,7.66,22.77,11.57,7.28,3.77,14.43,7.79,21.61,11.76a5.63,5.63,0,0,1,2.25,2.08c1.39,2.29,4.15,2.77,6.43,3.57,11.51,4.1,22.76,8.87,34,13.53,19.47,8,38.45,17.16,57.6,25.91a210,210,0,0,0,26.41,10,128.47,128.47,0,0,0,16.54,3.71,85.43,85.43,0,0,0,26.89.37c7.62-1.16,15-3.33,21.56-7.48,2.61-1.65,5.24-1.33,8-1.37" style="fill:none;stroke:#000;stroke-linecap:round;stroke-linejoin:round;stroke-width:2px"/><path d="M948.6,499c-2,.11-3.4-1.17-5-1.92-13.19-6.1-26.11-12.74-39.09-19.26-16.37-8.23-32.53-16.86-48.74-25.39-9.19-4.84-18.41-9.6-27.57-14.47q-18.06-9.61-36.55-18.33c-10.29-4.89-20.69-9.58-31.38-13.6-3.3-1.24-6.66-2.46-9.87-4a7.44,7.44,0,0,0-6.24-.23" style="fill:none;stroke:#000;stroke-linecap:round;stroke-linejoin:round;stroke-width:2px"/><path d="M400.68,48c2.62-.06,3.85,2.07,5.23,3.64a168.24,168.24,0,0,1,16.63,22c3.68,5.87,7,11.92,10.34,18,6.23,11.37,11.25,23.33,17.23,34.83,4.65,8.95,8.88,18.11,13.88,26.9a489,489,0,0,0,28.84,45.34,159.39,159.39,0,0,0,18.53,21.78c9.45,9.09,19.92,17,30.44,24.78,10.69,7.93,21.33,15.95,30.68,25.47a129.42,129.42,0,0,1,12.61,15.25,76.37,76.37,0,0,1,11.12,23.61c.31,1.08,1,.75,1.51,1.18" style="fill:none;stroke:#000;stroke-linecap:round;stroke-linejoin:round;stroke-width:2px"/><path d="M493.44,405.64c-.76,4.88-1.49,9.77-2.32,14.63a5.88,5.88,0,0,1-.42,1.94c-.65,1.23-1.44,2.32-2.9,2.35-1.22,0-2-.8-2.67-1.86-4.69-7.48-9-15.18-13.36-22.85q-16.06-28.31-31.7-56.87c-5.45-9.9-10.6-20-15.86-30-.63-1.21-1.31-2.26-2.89-2.16" style="fill:none;stroke:#000;stroke-linecap:round;stroke-linejoin:round;stroke-width:2px"/><path d="M485.28,293.32a149.69,149.69,0,0,0,7.05,27.13c5.14,14.12,12.16,27.31,20,40,6.18,10,12.59,19.87,19.54,29.37a18.39,18.39,0,0,0,3.22,3.51c3.18,2.58,5.34,2.49,8.34-1.41,2.27-2.95,2.2-6.58,2.39-10.06.18-3.2-.46-6.44-.33-9.6.18-4.64-1.21-9-1.94-13.42a93.51,93.51,0,0,0-3.42-13.23c-1.39-4.34-2.89-8.64-4.32-13-2.73-8.29-6.34-16.23-9.16-24.47-2.51-7.3-5.17-14.54-7-22.06a124.42,124.42,0,0,1-3.74-19.94c-.06-.78-.46-.91-1-1.08" style="fill:none;stroke:#000;stroke-linecap:round;stroke-linejoin:round;stroke-width:2px"/><path d="M433.32,307.36c2.17,1.35,3.13,3.72,4.51,5.67,8.58,12.18,17,24.47,25.5,36.69q21.33,30.61,42.71,61.2c2.47,3.53,5,7,7.43,10.57a11.49,11.49,0,0,0,3.39,3.31c2.94,1.8,6,2.86,10.06-1.4" style="fill:none;stroke:#000;stroke-linecap:round;stroke-linejoin:round;stroke-width:2px"/><path d="M354.6,130.84a99.45,99.45,0,0,0,8.69,19.89c4.85,8.9,10.16,17.56,15,26.45s9.14,17.75,13.24,26.86,7.53,18.17,11.05,27.35c2.49,6.46,4.55,13.12,8.85,18.74a23,23,0,0,0,7.7,6.95" style="fill:none;stroke:#000;stroke-linecap:round;stroke-linejoin:round;stroke-width:2px"/><path d="M457,304c2.61,8.76,4.81,17.64,7.8,26.28,4.36,12.62,9.69,24.73,17.72,35.55,4.62,6.23,9.65,12.11,14.74,17.92,7.11,8.1,12.95,17.06,18.9,26a83.22,83.22,0,0,0,6.68,8.43,52.76,52.76,0,0,0,11.08,9.09" style="fill:none;stroke:#000;stroke-linecap:round;stroke-linejoin:round;stroke-width:2px"/><path d="M877.56,533.56a86.61,86.61,0,0,0-12-19.16c-5.35-6.29-12.46-9.87-20.35-12a126.53,126.53,0,0,0-21.85-4.19,73.55,73.55,0,0,0-15.85-.26,76.47,76.47,0,0,0-15.57,3c-7.16,2.42-13.72,5.9-19,11.49-.58.62-1.27,1.13-1.91,1.69" style="fill:none;stroke:#000;stroke-linecap:round;stroke-linejoin:round;stroke-width:2px"/><path d="M876.6,551.8A55.36,55.36,0,0,0,860.28,534c-12.68-9-26.55-15.79-41-21.36A51.61,51.61,0,0,0,802,509.11c-8.54-.23-16.11,2.93-23.26,7.2A131,131,0,0,0,767.64,524" style="fill:none;stroke:#000;stroke-linecap:round;stroke-linejoin:round;stroke-width:2px"/><path d="M627,347.8c-1.2-2.1-.59-4.51-1.17-6.73-1.67-6.38-5.57-10.93-11.05-14.42s-11.78-5.22-18-6.93a84.53,84.53,0,0,0-27.36-2.85,52.21,52.21,0,0,0-28.34,9.79c-1.68,1.22-3.07,2.93-5.26,3.38" style="fill:none;stroke:#000;stroke-linecap:round;stroke-linejoin:round;stroke-width:2px"/><path d="M677.64,343.24c-.79,0-1.94-.24-2.1.73-.3,1.77-1.47,1.68-2.7,1.67a8.94,8.94,0,0,0-5.75,2.41c-4.48,3.58-7.32,8.54-10.81,12.95-4.79,6-9.25,12.31-14.14,18.26a7.58,7.58,0,0,1-2.66,2.38" style="fill:none;stroke:#000;stroke-linecap:round;stroke-linejoin:round;stroke-width:2px"/><path d="M631.8,392.92c-2.18,6.45-.68,12.4,1.82,18.52,3.13,7.7,5,15.85,6.83,24,1.65,7.19,3.11,14.42,4.69,21.62A189.2,189.2,0,0,0,652,481.24a64.62,64.62,0,0,0,3.88,8.86,3.4,3.4,0,0,1,.44,1.7" style="fill:none;stroke:#000;stroke-linecap:round;stroke-linejoin:round;stroke-width:2px"/><path d="M625.8,440.44c-5.16,1.29-10.15,3.18-15.35,4.37-6.12,1.4-12.25,2.55-18.48,3.37a133.9,133.9,0,0,1-18.73,1.3c-11.61-.13-23.19-.92-34.32-4.72a9.94,9.94,0,0,0-3.12-.24" style="fill:none;stroke:#000;stroke-linecap:round;stroke-linejoin:round;stroke-width:2px"/><path d="M633.48,374c-1.12-7.36-2.26-14.72-3.33-22.08a9.28,9.28,0,0,0-.89-2.63c-.72-1.54-2.2-1.61-3.23-.26a10.9,10.9,0,0,0-1.2,2.65c-2.64,6.55-7.25,11.56-12.72,15.83a52.33,52.33,0,0,1-20.85,9.92,54.24,54.24,0,0,1-18.27.95A53,53,0,0,1,555.25,373a28.89,28.89,0,0,1-4.82-2.84,4.46,4.46,0,0,0-4.31-.74" style="fill:none;stroke:#000;stroke-linecap:round;stroke-linejoin:round;stroke-width:2px"/><path d="M680.28,436.6c-1.65-.05-2.26.73-2.44,2.4-1,8.7-1.47,17.42-2,26.16-.59,10.48-.84,21-.51,31.44.15,4.71.08,9.45.59,14.16a6.79,6.79,0,0,1-.47,3.36" style="fill:none;stroke:#000;stroke-linecap:round;stroke-linejoin:round;stroke-width:2px"/><path d="M643.56,403.24c.28,4,1.29,7.84,2,11.75,2.12,12.2,4.33,24.38,6.93,36.48,1.81,8.39,3.8,16.74,6.22,25" style="fill:none;stroke:#000;stroke-linecap:round;stroke-linejoin:round;stroke-width:2px"/><path d="M847.8,546.88c-2.52,0-3.92-2-5.74-3.27-6.18-4.16-12.3-8.34-19.45-10.81-9.27-3.2-18.32-2.6-27.38.74a79.59,79.59,0,0,0-19,9.85c-.62.44-1.28.81-1.92,1.21" style="fill:none;stroke:#000;stroke-linecap:round;stroke-linejoin:round;stroke-width:2px"/><path d="M707.4,446.92a4.38,4.38,0,0,0-.47,2.88,260.89,260.89,0,0,1-1.29,27.11c-.53,6.18-1.44,12.34-2.21,18.5-.41,3.28-.89,6.73.13,10.07" style="fill:none;stroke:#000;stroke-linecap:round;stroke-linejoin:round;stroke-width:2px"/><path d="M631.08,390c-3.75.45-5,3.64-6.72,6.24-4,5.84-4.55,12.23-3.12,19,1.53,7.2,3.16,14.38,4.53,21.61,1.57,8.34,3.57,16.59,5.11,24.94,1.48,8,3.31,15.85,5,23.77a14.71,14.71,0,0,1,.22,2.88" style="fill:none;stroke:#000;stroke-linecap:round;stroke-linejoin:round;stroke-width:2px"/><path d="M426.36,254.92c.64,5.84.1,11.69-.09,17.52-.17,5.43-.44,10.89-.94,16.31-.43,4.64-.6,9.3-1.13,13.93" style="fill:none;stroke:#000;stroke-linecap:round;stroke-linejoin:round;stroke-width:2px"/><path d="M555.72,313.36c-.35-.33-.79-.36-1-1.06-2.33-7-5.28-13.68-10.28-19.2a30.13,30.13,0,0,0-18.23-10.05,22.93,22.93,0,0,0-6.71.19" style="fill:none;stroke:#000;stroke-linecap:round;stroke-linejoin:round;stroke-width:2px"/><path d="M742.68,404.68c-2.14.94-3.11,2.87-4.08,4.8A282.59,282.59,0,0,1,717,445.74a18.43,18.43,0,0,1-2.67,3.1" style="fill:none;stroke:#000;stroke-linecap:round;stroke-linejoin:round;stroke-width:2px"/><path d="M675.48,345.16c1.41.93,2.6,2.21,4.32,2.65,1,.24,1.17,1.1,1.44,1.91a224.7,224.7,0,0,1,8.23,30.95c.53,2.84.82,5.41-.79,7.93" style="fill:none;stroke:#000;stroke-linecap:round;stroke-linejoin:round;stroke-width:2px"/><path d="M677.4,369.16a4.3,4.3,0,0,0-2.41,1.43c-3.08,4.28-7.07,7.7-11.08,11-5.89,4.83-10.77,10.56-15.47,16.44-1.42,1.78-3.34,2.93-4.64,4.74" style="fill:none;stroke:#000;stroke-linecap:round;stroke-linejoin:round;stroke-width:2px"/><path d="M714.24,449.56c-.69-1.66-2.28-1.93-3.72-2.39-10.4-3.3-24.21-11.18-31.91-18.26a25.06,25.06,0,0,1-2.4-2.64,4.17,4.17,0,0,0-3.85-1.43" style="fill:none;stroke:#000;stroke-linecap:round;stroke-linejoin:round;stroke-width:2px"/><path d="M587.88,337.24c0,2.33,1.37,4.19,2.16,6.24.87,2.24,1.76,4.48,2.64,6.72a6.08,6.08,0,0,0,9.6,2.4c2.74-2.13,3.42-6.29,1.4-10.06a37.3,37.3,0,0,0-3.58-5.05,3.92,3.92,0,0,0-3.1-1.65c-2.48,0-5.08-.13-7.4.56s-3,.08-3.52-1.8" style="fill:none;stroke:#000;stroke-linecap:round;stroke-linejoin:round;stroke-width:2px"/><path d="M694,377.32c1.14-.47,2,.21,2.87.74,4.26,2.68,8.47,5.46,12.75,8.11.8.49,1.75,1.31,2.87.28,2.93-2.7,6.65-2,9.8-1.32,8.31,1.85,15.91,5.59,23.07,10.19" style="fill:none;stroke:#000;stroke-linecap:round;stroke-linejoin:round;stroke-width:2px"/><path d="M675.72,343.48c-3.14-3.23-6.92-2.56-10.54-1.39-4.72,1.53-7.61,5.3-10.66,9s-4.92,7.82-7.58,11.59c-2.79,3.95-5.4,8-8.2,12-1.63,2.29-2.71,4.61-1.9,7.46" style="fill:none;stroke:#000;stroke-linecap:round;stroke-linejoin:round;stroke-width:2px"/><path d="M533.16,441.16a5.57,5.57,0,0,0,.24-2.4c0-2.8-.06-5.6.21-8.4.17-1.81.52-3.16,2.39-4.15,3.33-1.76,3.6-5.41,4-8.58a18.61,18.61,0,0,0-2.29-11.52,3.44,3.44,0,0,0-3.62-2.15" style="fill:none;stroke:#000;stroke-linecap:round;stroke-linejoin:round;stroke-width:2px"/><path d="M677.28,366.76c.71,3.45,3,6.25,4,9.59.82,2.62,2,5.14,3.09,7.69a14.88,14.88,0,0,0,2.15,3.36" style="fill:none;stroke:#000;stroke-linecap:round;stroke-linejoin:round;stroke-width:2px"/><path d="M692,409.48A43.53,43.53,0,0,0,681.56,422c-1.08,1.8-2.65,3-3.92,4.51" style="fill:none;stroke:#000;stroke-linecap:round;stroke-linejoin:round;stroke-width:2px"/><path d="M651.48,353.8c-4.53-3-9.19-5.75-13.93-8.39a4.49,4.49,0,0,0-1.19-.25" style="fill:none;stroke:#000;stroke-linecap:round;stroke-linejoin:round;stroke-width:2px"/><path d="M748.32,392.2c-.74,2.18-3.12,3.07-3.84,5.48-.84,2.8-1.43,6.37-.37,9.16a5.93,5.93,0,0,1,.22,3.12c-.58,3.51.2,7.05-.21,10.56a3,3,0,0,0,.24,1.44" style="fill:none;stroke:#000;stroke-linecap:round;stroke-linejoin:round;stroke-width:2px"/></g></svg>
