<?xml version="1.0" encoding="utf-8"?>
<!-- Generator: Adobe Illustrator 24.0.1, SVG Export Plug-In . SVG Version: 6.00 Build 0)  -->
<svg version="1.1" id="Layer_1" xmlns="http://www.w3.org/2000/svg" xmlns:xlink="http://www.w3.org/1999/xlink" x="0px" y="0px"
	 viewBox="0 0 1366 768" style="enable-background:new 0 0 1366 768;" xml:space="preserve">
<style type="text/css">
	.st0{fill:#FFFFFF;}
</style>
<g id="Layer_14">
	<path d="M1235.3,261l4.2-2.3c0.2-2.3,0.4-4.5,0.6-6.6c0.1-1.1,0.7-2.1,1.6-2.8c1-0.8,2.4-0.6,3.2,0.4c0.2,0.2,0.3,0.5,0.4,0.8
		c0.2,0.9,0.3,1.9,0.2,2.8c-0.3,2.7-0.6,5.4-1.1,8.1c-0.4,1.7-0.5,3.4-0.5,5.2c1.1,0.5,1.3-0.4,1.8-0.8c2.5-1.9,5.5-1.4,6.8,1.5
		c0.6,1.5,1,3.1,1.2,4.7c0.3,1.8,0.3,3.5,0.6,5.3c0.2,2.2,1.8,4,3.9,4.5c0.2-0.5,0.4-1,0.5-1.5c1.8-7,6.4-12,12.1-16.1
		c2.7-2,5.6-0.9,7.1,2.2c0.7,1.6,1,3.4,2.1,4.9c0.8,1.1-0.1,2.4-0.4,3.5c-1,3.4-1,3.6,0.5,7.5c2.8-0.4,4.3-1.8,4.6-4.2
		c0.6-4.7,1.1-9.5,1.9-14.2c0.8-4.6,1.3-9.2,2.9-13.6c0.6-1.5,0.7-3.2,1.2-4.8c0.2-0.8,1.1-1.3,1.9-1.1c0.1,0,0.3,0.1,0.4,0.2
		c1.6,0.6,2.6,2.3,2.2,4c-1,4.6-2,9.1-3,13.6c-0.3,1.3-0.8,2.6,0,4.2c1.5,0.6,3.1,0,4.7-0.3c1.2-0.3,2.5,0,3.5,0.7
		c0.8,0.5,1,1.5,0.5,2.3c-0.1,0.2-0.3,0.4-0.5,0.5c-1.1,0.9-2.4,1.4-3.7,1.6c-1.8,0.1-3.5,0.5-5.2,0.7c-2.1,4.9-2.1,10.5,0,14.6
		c-0.4,1.2-1.6,1.4-2.6,1.8c-1.1,0.5-2.5-0.1-3-1.2c0,0,0-0.1,0-0.1c-0.4-0.8-0.8-1.7-1.2-2.6c-1.4,0.4-2.2,1.5-3.1,2.2
		c-1.2,1.1-3,1-4.1-0.1c-0.2-0.2-0.3-0.4-0.5-0.6c-0.5-0.8-0.9-1.7-1.3-2.5l-1.1-2.3c-1.9,1-3.6,1.8-5.2,2.7
		c-1.6,0.9-3.3,1.3-5.1,1.3c-2.7,0-5.5,0.1-8.2,0c-2.5-0.1-5.4-2.2-6.1-6.3c-0.2-1.1-0.1-2.2-0.2-3.3c-0.1-1.2-0.4-2.4-0.7-3.6
		c-0.1-0.4-0.6-0.8-1-1.2c-1.7,1.3-2.2,2.9-2.9,4.6c-0.9,2.2-1.8,4.3-2.8,6.4c-0.7,1.4-1.6,1.7-2.6,1.4c-1.3-0.3-2.1-1.4-2-2.7
		c0.1-3.3,0.3-6.6,0.4-9.9c0.1-1.5,0-3,0-4.7c-3.1,0.6-5.1,2.1-5.5,5.3c-0.6,4.6-1.4,9.2-0.8,13.9c0,0.5,0,1.1,0,1.6
		c-1,1-2.5,1.3-3.9,0.9c-1-1.2-1.4-2.7-1.3-4.2c0-2.5,0.1-4.9,0.3-7.4c0.1-1.9,0.3-3.8,0.4-5.9c-0.9-0.5-1.7-0.9-2.4-1.4
		s-0.8-1.8,0-2c3.7-1.1,4.4-4.1,4.9-7.3c0.4-2.8,0.9-5.7,1.4-8.5c0.2-1.1,0.5-2.1,1-3.1c0.5-1,1.7-1.5,2.8-1.2
		c1.1,0.2,2,1.1,2.2,2.2c0.1,0.8,0,1.6-0.2,2.4C1236.6,254.2,1236,257.1,1235.3,261z M1273,268.6c-3.8,2.7-5.9,6-8,9.3
		c-0.6,1-1.3,2.1-0.7,3.6c3.6,0.4,5.2-2.5,7.1-4.5C1273.6,274.9,1274.2,272.1,1273,268.6L1273,268.6z"/>
	<path d="M934,325.5c1.3-1.4,2.6-2.8,3.9-4.1c2.2-2.1,5.6-2,7.6,0.2c0.3,0.3,0.6,0.6,0.8,1c0.7,1.1,1.4,2.3,2.3,3.6
		c-1.5,5-6.3,6.1-10.4,8.3c-0.7,2-1.1,4,0.7,5.6c1.5,1.4,3.5,1.3,5.4,0.7c2.3-0.6,4.4-1.8,6-3.4c0.8-0.9,1.7-1.8,2.7-2.8
		c0.3-2.2-0.4-4.4-0.8-6.7s-0.7-4.3-0.9-6.5c0-0.7,0.1-1.3,0.5-1.9c1-1.6,2.5-1.6,3.6-0.1c0.4,0.5,0.7,1.1,1.2,1.9
		c0.7-0.2,1.3-0.3,2-0.5c4.7-0.9,8.9,1.5,10.1,6.1c0.7,3.1,1.2,6.2,1.5,9.3c0.3,1.8,0.4,3.5,0.7,5.3c0.2,1.1-0.2,2.2-1.2,2.8
		c-0.8,0.6-1.8,0.4-2.4-0.3c0-0.1-0.1-0.1-0.1-0.2c-0.5-1.3-0.8-2.6-1-3.9c-0.2-1.8-0.1-3.6-0.4-5.3c-0.3-1.9-0.8-3.7-1.4-5.5
		c-0.3-1.1-1.1-1.9-2.2-2.4c-1.1-0.5-2.4-0.5-3.5,0.2c-0.2,1-0.2,2-0.2,3c0.2,3.1,0.6,6.3,0.9,9.4c0.2,1.8,0.4,3.5,0.6,5
		c-0.3,0.5-0.4,0.8-0.6,1c-2.8,2-4.2,1.5-4.8-1.7c-0.4-1.7-0.7-3.5-1.1-5.2c0-0.1-0.2-0.2-0.5-0.4c-0.5,0.3-1,0.7-1.5,1.1
		c-2.9,3.2-6.8,4.6-10.8,5.5c-3.6,0.9-7.2-1.3-8.1-4.8c0-0.1,0-0.2-0.1-0.2c-0.4-1-0.5-2.1-0.4-3.2c0.4-2.2-0.5-4-1.3-5.8l-0.1,0.1
		c2-0.3,2.7-1.5,2.6-3.4l-0.1,0.2l0.9-1.8L934,325.5z M939.7,328.1c1.1,0.4,2.2,0,2.9-0.8c0.4-0.4,0.6-0.9,0.5-1.4
		c-0.2-0.6-0.6-1.1-1-1.5C940.2,326,940.2,326,939.7,328.1L939.7,328.1z"/>
	<path d="M977.1,277.5c-2.1,0.4-2.8,0.2-3.3-1.2c-0.2-0.8-0.4-1.6-0.4-2.4c-0.3-2.6-0.5-5.2-0.8-7.8c-0.1-1.2-0.1-2.5-1.6-3.2
		c-1.1,0.3-1.8,1.2-2,2.3c-1.1,3.9-3,7.6-2.9,11.9c0,0.5-0.1,1.1-0.3,1.6c-0.4,0.9-1.3,1.5-2.3,1.3c-0.9,0-1.6-0.5-1.8-1.4
		c-0.1-0.5-0.2-1.1-0.2-1.6c0-4.6,0.1-9.3,0.2-14c0-1.1,0-2.1,0-3.2c-2.9,0.1-4,0.9-4.4,3.3c-0.8,5.1-1.5,10.3,0.2,15.3
		c-0.7,1.7-2.1,1.2-3,1.6c-1.4-0.9-2.2-2.4-2.2-4c-0.2-3.3-0.3-6.5-0.5-9.8c0-0.8,0-1.6,0-2.5c-1-0.3-1.9-0.5-2.7-0.8
		c-0.7-0.2-1-0.9-0.8-1.6c0.1-0.3,0.3-0.5,0.5-0.7c0.9-0.6,1.8-1.2,2.8-1.7c0.9-0.4,1.4-1.3,1.5-2.3c0.2-2.2,0.4-4.3,0.5-6.5
		c0.1-1.6,0-3.3,1-4.8c0.5-0.7,1.1-1.2,1.8-1.6c1-0.5,2.2,0,2.7,1c0.1,0.2,0.1,0.3,0.2,0.5c0.1,0.8,0.1,1.6,0.1,2.4
		c-0.1,2.2-0.2,4.4-0.3,6.8l2.8,0.6c0.9-2.1,0.5-4.2,0.6-6.2c0-1.1,0.2-2.1,0.6-3.1c0.4-0.9,1.5-1.3,2.4-0.9
		c0.3,0.1,0.5,0.3,0.7,0.6c0.6,0.9,1.1,1.9,1.2,3c0.2,1.9,0.2,3.8,0.2,5.7c0,1.5,0,3,0,4.7c0.5-0.3,0.9-0.5,1-0.8
		c0.5-0.9,1-1.7,2.1-1.6c0.9,0.1,1.8,0.4,2.7,0.9c1.1,0.8,2,1.9,2.5,3.2c1.9,4.1,2.6,8.7,2.1,13.2
		C977.5,274.8,977.3,276.1,977.1,277.5z"/>
	<path d="M1160.1,257.9c0.6-3,1.3-6.1,1.8-9.2c0.4-2.4,1.4-4.7,2.8-6.8c0.5-0.5,1.1-0.9,1.8-1.2c0.3,0.2,0.6,0.4,0.9,0.6
		c2.2,2.5,2.5,5.5,2.3,8.7c-0.5,6.9-1.3,13.6-3.9,20.1c-1.7,3.8-1.1,8.3,1.5,11.6c0.1,0.1,0,0.3-0.1,0.7c-0.8,0.4-1.5,0.8-2.4,1
		c-1.8,0.5-2.8-0.1-3.6-1.8c-0.4-1-0.8-2-1-2.9c-1-0.5-1.5,0.1-2,0.4c-3.1,2.1-6.4,3.7-10.2,3.6c-2.9-0.1-4.2-1.4-4.3-4.3
		c-0.1-2.3,0.5-4.7,1.7-6.7c2.7-4.8,5.8-9.3,10.8-12C1157.5,259.1,1158.5,258.6,1160.1,257.9z M1159.2,264c-0.5,0.1-0.9,0.2-1.4,0.4
		c-4.3,2.7-7,6.8-8.9,11.4c-0.2,0.5-0.3,1.1-0.2,1.6c0,0.7,0.5,1.3,1.2,1.3c0,0,0.1,0,0.1,0c0.7,0.1,1.4-0.1,2-0.4
		c2.2-1.9,4.6-3.4,6.3-5.8C1160.2,269.9,1159.9,267.1,1159.2,264L1159.2,264z"/>
	<path d="M1065,274.8c-1.2,3.8-1.7,7.9-1.4,11.9c0.2,2.6,0.4,5.2,0.5,7.8c0,1.1-1,2-2.1,1.9c0,0-0.1,0-0.1,0c-0.7-0.1-1.3-0.5-1.7-1
		c-0.5-0.8-0.8-1.7-0.8-2.7c-0.5-4.8-0.6-9.6-0.2-14.4c0.6-6.7,1.9-13.3,4-19.6c0.2-0.6,0.3-1.3,0.2-1.9c-0.5-1.9,0.7-3.1,1.8-4.2
		c1-1,2.5-1.3,3.8-0.9c3.4,0.6,6.5,2.2,9,4.6c0.8,0.8,1.4,1.7,1.9,2.6c1.4,2.5,1,5.6-1,7.6c-3.1,3.6-6.7,6.4-11.4,7.6
		C1066.7,274.2,1065.8,274.6,1065,274.8z M1076.1,262c-2-2.7-4.4-3.7-7.1-4.6c-0.4,0.4-0.7,0.9-1,1.5c-0.9,3.4-1.8,6.8-2.6,10.3
		c-0.1,0.3,0.3,0.7,0.5,1.2C1070.5,269.3,1074.2,266.2,1076.1,262z"/>
	<path d="M1187.3,334.6c-1.5,1.4-1.8,3.2-2.5,4.8c-1,2.3-1.9,4.5-2.8,6.8c-0.8,2-2.4,2.8-4.6,3.4c-0.5-0.7-1-1.6-1.3-2.4
		c-0.2-1.4-0.3-2.7-0.2-4.1c-0.2-8.1-0.3-16.2-0.4-24.2c0-1.6,0.2-3,1.5-4c0.8-0.7,2-0.6,2.6,0.2c0.1,0.1,0.1,0.2,0.2,0.3
		c0.4,0.7,0.7,1.5,0.7,2.3c0.2,3.5,0.4,7.1,0.5,10.7c0.1,2.3,0,4.6,0,6.8c1.1,0.4,1.2-0.3,1.4-0.7c0.4-1.1,1-2.3,1.6-3.3
		c1.6-2.4,4.1-2.7,6.4-1c2,1.5,3.3,3.8,3.5,6.3c0.1,1.6,0.1,3.3-0.1,4.9c-0.1,2.1-0.7,4.4,1,6.2c0.4,0.4-0.2,1.4-0.9,1.6
		c-1.4,0.7-3.2,0.1-4-1.2c-0.8-1.1-1.1-2.5-0.8-3.9c0.3-1.5,0.5-3,0.5-4.5c-0.2-1.3-0.6-2.6-1.1-3.9
		C1188.5,335.2,1187.9,335,1187.3,334.6z"/>
	<path d="M1098.2,264.5c0.6-0.7,1.2-1.3,1.8-2c0.3-0.4,0.6-0.9,0.9-1.4c1.2-1.6,2.7-3,4.8-2.4c2.1,0.5,3.6,2.2,4,4.3
		c0.4,2.4,0.4,4.9,0.2,7.3c-0.3,2.2-0.6,4.3-0.7,6.5c-0.1,1.2-0.4,2.4-0.9,3.5c-0.4,0.7-1.3,0.9-2,0.5c-0.2-0.1-0.3-0.2-0.4-0.4
		c-0.4-0.6-0.6-1.2-0.7-1.9c-0.1-2,0-4.1,0-6.1s0.3-3.8,0.3-5.7c-0.1-0.5-0.2-1-0.4-1.5c-1.3-0.1-2.6,0.6-3.3,1.6
		c-2.1,3-4.8,5.7-5,9.7c0,0.4-0.1,0.8-0.2,1.2c-0.3,1.4-1.1,2-2.2,2c-1.4,0.1-2.6-0.9-2.7-2.3c0-0.1,0-0.1,0-0.2
		c0-1.6,0-3.3,0.1-4.9c0.2-5.6,0.4-11.2,0.5-16.8c0.1-2.7,0.1-5.5,0.2-8.2c0-0.8,0.2-1.6,0.5-2.4c0.4-0.9,1.4-1.4,2.4-1.2
		c0.8,0.1,1.5,0.8,1.7,1.6c0.3,2.6,0.6,5.2,0.7,7.8c0,2.9-0.2,5.7-0.4,8.6c0,0.8,0,1.6,0,2.4L1098.2,264.5z"/>
	<path d="M1218.5,348.8c-0.7,0.5-1.5,0.9-2.3,1.2c-2.4,0.6-3.4-0.1-3.8-2.4c-0.2-1.3-0.3-2.7-0.6-4.4c-0.9,0.4-1.7,0.9-2.6,1.4
		c-2.7,1.9-5.8,3.1-9.1,3.6c-1.1,0.4-2.3-0.2-2.7-1.4c0-0.1-0.1-0.2-0.1-0.4c-0.3-1.3-0.3-2.7-0.1-4c0.4-1.5,0.9-2.9,1.6-4.2
		c1.9-4,4.7-7.4,7.4-10.9c1.4-1.7,3.1-3.1,5.1-4c0.7-0.4,1.7-0.3,2.3,0.2c2,1.8,3.5,3.7,3.8,6.6c0.4,3,0.2,6-0.5,9
		c-0.1,0.4-0.3,0.8-0.3,1.2C1216.1,343.2,1215.5,346.1,1218.5,348.8z M1203,342.9c4.2-1.3,7.5-4.5,9.1-8.6c0.4-0.9,0.6-1.8,0.7-2.8
		c0.2-0.7-0.2-1.3-0.9-1.5c-0.1,0-0.2,0-0.3,0c-2.9,3.1-5.5,6.6-7.6,10.3C1203.5,341.2,1203.2,342,1203,342.9L1203,342.9z"/>
	<path d="M1005.9,273c-0.2,0.7-0.5,1.4-0.9,2c-2.9,3.2-6.7,4.6-10.8,5.4c-2.5,0.5-5.2,0.5-7.7,0c-3.9-1-5.5-3-5.7-6.9
		c-0.1-4.1,1.7-7.7,3.5-11.2c0.9-1.4,1.8-2.7,2.9-4c1.9-2.6,4.8-3.5,7.8-4.1c0.8-0.1,1.6,0.1,2.3,0.4c2,0.9,3.7,4.4,3.5,6.5
		c-0.1,2.5-1.2,4.8-2.9,6.6c-2.8,2.8-5.8,4.9-9.8,5.5c-0.8,0.1-1.7,0.2-1.9,1.2c-0.2,0.8,0.4,1.6,1.6,2c1.8,0.7,3.8,0.8,5.6,0.3
		c3.4-1,6.9-1.6,10.1-3.2C1004.3,273.2,1005.1,273.1,1005.9,273z M987.2,268.2c0.5,0.1,1.1,0.2,1.6,0.1c3.4-0.9,5.6-3.2,7.4-6
		c0.2-0.5,0.4-1,0.4-1.6c0.1-1.1-0.7-2-1.7-2.1c-0.3,0-0.7,0-1,0.1c-0.4,0.1-0.8,0.3-1.1,0.5C990.2,261.6,987.8,264.2,987.2,268.2
		L987.2,268.2z"/>
	<path d="M1271.7,341.2c-1.3,1.2-1.2,2.6-1.3,4c-0.2,2.2-0.3,4.4-0.6,6.5c-0.1,0.7-0.2,1.4-0.4,2c-0.5,1-1.6,1.6-2.7,1.5
		c-1-0.1-1.8-0.9-1.9-1.9c-0.1-0.9-0.2-1.9-0.1-2.9c0.2-6.6,0.9-13.1,2.3-19.5c0.2-0.8,0.4-1.6,0.5-2.4c0.1-2.7,1.4-4,4-4.9
		c2.7-1,5.7-0.6,8.1,1c2,1.4,3.5,3.5,4.1,5.9c0.4,1.3,0.1,2.8-0.8,3.9c-2.4,3.3-5.3,5.9-9.5,6.4
		C1272.9,340.9,1272.2,341.1,1271.7,341.2z M1272.1,336.5c1.9-0.2,3.8-1,5.2-2.4c1.2-1,1.4-2.8,0.4-4c-1-1.2-2.4-1.9-4-1.8
		C1272.5,330.8,1272,333.6,1272.1,336.5z"/>
	<path d="M1191.9,264.9c-2.5,5.9-7.3,8.3-13.5,8.5c-1.1,1.2-0.9,2.6-0.8,4c0.3,2.1,1,2.7,3.1,3.1c2,0.4,4.2,0,5.9-1.1
		c1.4-0.9,2.7-1.8,4.1-2.7c0.8-0.7,2-0.7,2.8,0c-0.1,0.5-0.3,1-0.6,1.4c-4,4.5-10,6.7-15.9,5.8c-1.8-0.1-3.4-1.5-3.7-3.3
		c-1.1-3.6-0.7-7.4,0.9-10.8c1.6-3,3.6-5.9,5.9-8.4c1.7-1.9,3.9-2.6,6.1-3.1c1.7-0.3,3.4,0.6,4,2.2
		C1190.9,261.9,1191.3,263.3,1191.9,264.9z M1180.3,268.6c1.1-0.2,2.1-0.6,3.1-1c1.6-0.8,2.8-2.1,3.4-3.8c0.1-0.4,0-0.8-0.2-1.1
		c-0.3-0.2-0.6-0.3-1-0.3C1183.1,263.8,1181.2,266,1180.3,268.6z"/>
	<path d="M1131.5,263.6c0.1,6-2.1,10.6-5.6,14.7c-2.5,3-5.9,3.1-9.3,3.2c-1.3,0-2.7-1.6-3.1-3.4c-0.5-2.3-0.3-4.7,0.5-6.9
		c1.6-4.4,3.5-8.6,6.8-12c0.6-0.5,1.1-1.2,1.5-1.9c0.7-1.5,1.9-1.9,3.3-2.2c1.2-0.3,2.5,0.2,3.2,1.3
		C1130.4,258.7,1132,261,1131.5,263.6z M1119.1,277.5c6.1-4.1,9.2-12.2,6.5-16.9c-3.4,3.4-5.8,7.7-7.1,12.3
		c-0.2,1.1-0.3,2.2-0.2,3.2C1118.4,276.6,1118.8,277,1119.1,277.5L1119.1,277.5z"/>
	<path d="M1173.8,344.5c-0.1,0.6-0.1,1.1-0.3,1.3c-1.5,1.8-3.4,3.1-5.6,3.9c-2.8,1-5.8,1.7-8.8,1.9c-4.4,0.2-9.1-2.7-9.1-8.4
		c0-7.3,3.1-13.2,8.9-17.6c0.8-0.7,1.8-1.3,2.8-1.7c3.2-1.4,5.1-0.5,6.1,2c0.7,1.8,1.2,3.6,1.5,5.5c0.3,1.2,0,2.4-0.6,3.4
		c-0.9,0.4-1.3-0.2-1.7-0.8c-0.9-1.4-1.7-2.8-2.5-4c-1.1-0.4-2.4,0-3.2,0.9c-3.3,2.9-5.5,6.9-6.2,11.2c-0.5,2.8,0.7,4.5,3.4,5.1
		c3,0.9,6.3,0.7,9.2-0.6c1.5-0.7,3-1.4,4.5-2.1C1172.7,344.5,1173.2,344.5,1173.8,344.5z"/>
	<path d="M1054.6,277.5l3.1-0.2c0,2-1.3,2.7-2.7,3.2c-1.4,0.7-3.1,0.3-4.2-0.8c-0.7-0.8-1.2-1.8-1.6-2.8c-0.5-1.1-0.7-2.3-1.2-3.8
		c-1.3,1.1-2.3,2-3.3,2.9c-1.3,1.2-3,2-4.8,2.2c-1.7,0.2-2.5-0.1-3.3-1.8c-0.5-1-0.8-2-0.9-3.1c-0.7-5.3,0.8-10.3,1.8-15.4
		c0.2-0.6,0.5-1.2,1-1.7c0.5-0.7,1.4-0.9,2.2-0.7c0.8,0.3,1.3,1.1,1.3,1.9c-0.3,2.9-0.7,5.7-1.1,8.5c-0.2,2-0.5,4.1-0.7,6.1
		c0.1,0.8,0.3,1.5,0.6,2.2c5.2-3.9,5.7-10,8.1-15.3c0.9,0.3,1.8,0.4,2.3,0.9c0.5,0.6,0.8,1.4,0.9,2.2c0.1,2.3,0,4.6,0,7
		C1052.5,271.9,1052.5,274.8,1054.6,277.5z"/>
	<path d="M920.8,275.8c-4.9,0.2-7.4-2.1-7.5-6.6c-0.1-2.3,0.3-4.7,1.3-6.8c1.8-3.9,4.2-7.3,7.3-10.3c2.5-2.3,5.5-2.4,8.5-2.2
		c1.7,0.2,3.1,1.5,3.4,3.2c0.4,1.6,0.8,3.2,1.1,4.8c1.1,6.3-0.9,11.2-6.1,15C926.2,274.8,923.5,276,920.8,275.8z M921.4,272.6
		c0.5-0.3,1.1-0.6,1.7-0.9c3.2-0.8,4.9-3.4,6.5-5.9c1.9-3.1,2.3-6.9,1.1-10.3c-0.7-2.3-2.4-2.8-4.5-1.6c-4.3,2.7-6.8,6.7-8,11.4
		c-0.3,0.9-0.4,1.9-0.4,2.8C917.8,270.6,918.7,272.2,921.4,272.6z"/>
	<path d="M930.8,330.4c-2.7,0.9-5.4,1.9-8.1,2.8c-1,0.2-1.7,0.9-1.9,1.9c-0.2,1.3-0.1,2.5,1.1,3.3c0.8,0.5,1.7,0.7,2.7,0.9
		c1.1,0.1,2.2,0.1,3.3,0c-1.6,1.5-3.6,2.5-5.8,2.7c-1.2,0.2-2.5,0-3.5-0.6c-1.5-0.8-2.5-2.2-2.9-3.8c-0.3-1.5-0.5-2.9-0.8-4.6
		l-2.1-1.5c0.2-0.3,0.2-0.7,0.4-0.8c1.5-0.2,2.7-1.3,3.1-2.8c0.9-2.3,2.1-4.4,3.5-6.5c1.6-2.5,4.3-4,7.2-4c2.2,0,3.8,0.4,5.1,2.5
		c1.1,1.8,2.5,3.2,2,5.5l0.1-0.1l-0.9,1.8l0.1-0.2C932.1,327.9,931.2,329.1,930.8,330.4L930.8,330.4z M922,328
		c3,0.3,4.4-1.4,5.9-2.9c0.7-0.5,0.9-1.4,0.5-2.2c-0.5-0.8-1.5-1.2-2.5-0.9c-0.7,0.3-1.4,0.7-1.9,1.4
		C923.1,324.7,922.4,326.3,922,328z"/>
	<path d="M1314.2,281.6c1.3-0.9,2.7-0.4,4-0.2s2.7,0.7,4,0.9c0.7,0,1.5-0.1,2.2-0.2c0.5-1.1-0.3-1.4-0.7-1.9
		c-1.2-1.3-2.2-2.7-3.2-4.2c-1.2-1.9-0.9-4.5,0.7-6.1c2.7-3.1,6.2-5.4,10.1-6.7c2.1-0.9,4.5-0.5,6.2,0.9c0.9,0.7,1.2,1.9,0.7,2.9
		c-0.4,1.1-1.7,1.6-2.7,1.2c-3.9-1.4-6.5,0.9-9.2,3c-1.2,1.1-1.3,2.9-0.2,4c0,0,0,0,0,0c0.7,0.8,1.5,1.6,2.3,2.3
		c0.8,0.7,1.7,1.4,2.5,2.1c1.6,1.6,1.5,2.2,0.2,3.8c-1.4,1.5-3.1,2.6-5,3.4c-0.5,0.3-1,0.4-1.6,0.3c-2.3-0.4-4.6-0.7-6.8-1.2
		c-1.6-0.5-2.9-1.7-3.5-3.2C1314,282.5,1314.2,282,1314.2,281.6z"/>
	<path d="M900.9,247.7c0.6-0.6,1.3-1.2,2.1-1.6c3.9-1.4,7.8-2.3,11.9-2.9c0.5-0.1,1.1-0.1,1.6-0.1c0.9,0,1.9-0.1,2.6,0.8
		c0.5,0.7,0.1,2-1.1,2.8c-0.9,0.6-1.9,1-3,1.3c-1.7,0.4-3.5,0.6-5.5,1c-0.3,1.4-0.6,2.9-0.8,4.4c-0.3,4.9-0.7,9.8-0.9,14.7
		c-0.3,3.4,0.1,6.7,1.1,10c-0.7,0.4-1.4,0.7-2.1,1c-0.9,0.4-2,0-2.4-0.9c0,0,0,0,0-0.1c-0.5-0.9-0.9-2-1-3.1
		c-0.2-4.1-0.3-8.2-0.2-12.3c0.1-4.4,0.3-8.7,0.5-13L900.9,247.7z"/>
	<path d="M1335.6,328.6c-0.3-1.2-0.5-2.2-0.7-3.2c-0.3-0.1-0.6-0.2-0.8-0.1c-1.5,0.7-2.7,2-3.3,3.5c-1.4,2.7-1.1,4.5,1.2,6.5
		c0.9,0.8,2,1.5,2.8,2.3c0.5,0.6,0.9,1.4,1.2,2.1c-2.1,2.4-5,4-8.1,4.7c-2,0.4-4.2,0-5.9-1.2c-0.8-0.3-1.2-1.2-1.2-2
		c0.2-1,1-1.1,1.9-1.2c1.6-0.1,3.2-0.2,4.6-0.4c0.7-1.1,0-1.5-0.4-2c-1-1.3-1.8-2.7-2.4-4.3c-0.9-3,0-6.2,2.3-8.3
		c2.2-2.3,4.7-4.1,7.6-5.4c1.3-0.7,3-0.5,4.1,0.5c1.8,1.5,2,1.9,1,4.1c-0.6,1.4-1.1,2.9-2.4,3.7
		C1336.7,328.2,1336.1,328.4,1335.6,328.6z"/>
	<path d="M1310,313c-0.5,3-1,5.8-1.5,8.6c-1.1,6.5-2.3,12.9-3.4,19.4c-0.1,0.8,0.1,1.7,0,2.5c-0.1,0.7-0.4,1.3-0.9,1.7
		c-1.5,1.2-3.5,0.8-3.9-1.1c-0.4-1.9-0.6-3.8-0.3-5.7c1-7,1.6-14.1,3.4-21.1c0.4-1.7,0.6-3.5,0.7-5.3c0-1.5,0.8-3,2.1-3.8
		c1.2-0.7,2.6-0.5,3,0.8C1309.6,310.4,1309.8,311.7,1310,313z"/>
	<path d="M913.2,315.5c-1.5,0-2.9-1-4.4-0.1c-1.7,0.9-3.1,2.3-4,4c-1.5,3.1-1.8,6.3,0.6,9.2c1.2,1.5,2.6,2.9,3.9,4.3
		c1.8,1.8,3.4,3.8,4.6,6.1c-0.6,1.4-1.9,2.2-3.4,2.2c-3.2,0.3-6.4-1.3-8-4.1c-0.4-0.7-0.6-1.5-0.4-2.3c0.3-1.5-0.1-3.1-1.1-4.2
		c-2.2-2.6-2.9-6-2-9.3c1-3.6,3.4-6.7,6.6-8.5c1.6-1.1,3.5-1.7,5.4-1.8c2.2,0.1,3,0.8,2.9,3C913.6,314.5,913.4,315.1,913.2,315.5z"
		/>
	<path d="M1141.3,281.7c-0.8,0.3-1.7,0.5-2.5,0.7c-1.2,0.2-2.2-0.6-2.4-1.8c-0.4-1.6-0.7-3.2-0.8-4.8c-0.4-7.3,0.2-14.5,1.5-21.7
		c0.4-2,0.7-4,1-6.1c0.2-1.5,1-2.9,2.3-3.7c0.8-0.6,1.9-0.5,2.5,0.3c0.2,0.2,0.3,0.5,0.4,0.8c0.2,0.9,0.3,1.9,0.2,2.9
		c-0.3,2.7-0.7,5.4-1.3,8.1c-1.4,7-2,14.1-1.6,21.2C1140.7,279,1140.9,280.4,1141.3,281.7z"/>
	<path d="M1309.6,339c0.3-2.2,0.5-4.6,0.8-7.1c0.8-6,1.5-11.9,2.3-17.9c0.2-1.1,0.5-2.1,1.1-3c0.5-0.9,1.5-1.3,2.4-1.1
		c1.1,0.1,2,1,2.1,2.2c0.1,1.2,0,2.4-0.1,3.7c-0.9,6.5-1.8,13-2.7,19.5c-0.4,3-1,5.9-1.5,8.9c0,0.7-0.6,1.3-1.4,1.3
		c-0.7,0-1.3-0.2-1.8-0.7c-0.5-0.6-0.9-1.4-1-2.2C1309.8,341.4,1309.7,340.2,1309.6,339z"/>
	<path d="M1262.8,321c0.8,0.4,1.7,0.8,2.5,1.3c1.1,0.6,1.5,2.1,0.8,3.1c-0.2,0.4-0.5,0.7-0.9,0.9c-0.9,0.5-1.8,0.9-2.7,1.3l-2-1.6
		c-0.6,0.4-1.3,0.9-1.9,1.4c-2.5,1.9-3.2,5.3-1.8,8.1c0.5,1.1,1.2,2.1,1.8,3.2c0.8,1.3,1.5,2.6,2.1,4c0.9,1.9,0.1,4.1-1.7,5
		c-0.1,0-0.2,0.1-0.3,0.1c-1.3,0.7-2.7,1.5-4.3,0.9c-2.1-0.9-4.3-1.9-5-4.8c2.2-0.2,4.2,1.9,6.4,0.2c-0.6-2-1.8-3.7-2.6-5.6
		c-0.9-1.6-1.5-3.2-1.8-5c-0.7-5.8,1.9-9.2,7.6-11.6c0.1,0,0.3-0.1,0.4-0.1L1262.8,321z"/>
	<path d="M1201,265c2.5-1.1,4.7-2.1,7-3c1.9-0.9,4-1.1,6-0.4c0.6,0.2,1,1.3,0.5,1.7c-0.9,0.8-1.9,1.5-2.9,2.2
		c-1.4,0.9-2.9,1.5-4.3,2.3c-3.1,1.6-5.1,4.8-4.9,8.4c0,1.6-0.2,3.3-0.1,4.9c0.1,2.2-1.5,3-3.6,2.6c-0.5-0.2-0.9-0.5-1.2-1
		c-0.2-0.5-0.3-1-0.3-1.6c-0.3-5.3-0.6-10.6-0.9-15.9c0-0.8,0.1-1.6,0.4-2.4c0.2-0.8,1.1-1.2,1.8-1c0.3,0.1,0.6,0.3,0.8,0.6
		c0.3,0.4,0.7,0.9,0.9,1.3C1200.5,264,1200.6,264.3,1201,265z"/>
	<path d="M1034.8,273.6c-0.3,1.1-0.2,1.8-0.5,2.1c-2.5,3-6.5,4.4-10.3,3.7c-2.8-0.5-4.5-2.4-5.1-5.2c-0.7-3.5-0.1-7.2,1.5-10.4
		c0.5-1,1.2-1.9,1.5-2.9c0.8-2.1,2.5-3.2,4.3-4.3c2.6-1.5,5.4-0.4,6.6,2.6c0.5,1.2,0,2.6-1.1,3.3c-0.6,0.3-1.2,0.3-1.8,0.1
		c-0.6-0.3-1.2-0.8-1.8-1.3c-3.1,3.1-4.8,6.6-4.5,11c0,0.5,0.1,1.1,0.3,1.6c0.5,1.9,2.4,3,4.2,2.6c0.2-0.1,0.4-0.1,0.6-0.2
		C1030.6,275.6,1032.3,274.8,1034.8,273.6z"/>
	<path d="M1223,352.1c-1.2-0.5-1.9-1.7-1.8-3c-0.1-1.5,0-3,0.2-4.5c0.5-4.3,1.2-8.6,1.8-13c0.1-1.4,0.7-2.7,1.7-3.6
		c0.6-0.6,1.7-0.6,2.3,0c0.2,0.2,0.3,0.3,0.4,0.5c0.6,1.7,0.8,3.5,0.6,5.2c-0.3,2.3-0.7,4.6-0.9,6.9s-0.5,4.9-0.7,7.3
		C1226.2,351.1,1226.2,351.1,1223,352.1z"/>
	<path d="M1286.1,340.4c0.6-4.1,1.2-8.2,1.9-12.2c0.2-0.9,0.5-1.8,1-2.6c0.6-1,1.8-1.4,2.8-1.1c1,0.2,1.7,1,1.9,1.9
		c0.2,0.8,0.3,1.6,0.2,2.4c-0.7,4.4-1.6,8.8-2.3,13.3c-0.2,1.4-1.1,2.5-2.4,3c-0.8,0.5-1.9,0.2-2.4-0.7c-0.1-0.1-0.1-0.3-0.2-0.5
		C1286.3,342.8,1286.2,341.6,1286.1,340.4z"/>
	<path d="M1310.7,266.6c-0.1-5,1.7-8.5,3.5-12.1c0.4-0.6,0.9-1,1.6-1.2c1.2-0.7,2.7-0.4,3.4,0.8c0.5,0.8,0.5,1.7,0.1,2.5
		c-1.9,3.3-3.6,6.7-5,10.2c-0.1,0.3-0.2,0.5-0.4,0.7c-0.7,0.4-1.4,1-2.1,1c-1-0.1-0.9-1.2-1-2C1310.7,266.3,1310.7,266,1310.7,266.6
		z"/>
	<path d="M1347.7,339.2c0.7,0.3,1.4,0.6,2.1,1c1.1,0.7,1,1.9-0.2,2.5c-1.8,1-3.3,0.7-4-0.9c-0.3-1.1,0.2-2.2,1.3-2.5
		C1347.1,339.2,1347.4,339.2,1347.7,339.2z"/>
	<path d="M1229.5,319.3c0.1,0.8-1,1.7-2.4,1.8c-1,0.1-1.9-0.5-2.2-1.4c0-1.4,1.1-2.6,2.5-2.7C1228.3,317,1229.5,318.2,1229.5,319.3z
		"/>
	<path d="M1293.7,317.9c-0.5-0.5-0.8-1-1.1-1.6c-0.2-0.8,0.6-1.1,1.2-1.3c0.1,0,0.3-0.1,0.4-0.1c1.2-0.1,2.2,0.4,2.4,1.1
		C1296.9,316.9,1295.4,318,1293.7,317.9z"/>
	<path class="st0" d="M1273,268.6c1.2,3.5,0.6,6.3-1.5,8.4c-1.9,2-3.6,4.9-7.1,4.5c-0.6-1.5,0.1-2.6,0.7-3.6
		C1267.1,274.6,1269.2,271.3,1273,268.6z"/>
	<path class="st0" d="M939.7,328.1c0.5-2,0.5-2,2.4-3.8c0.4,0.5,0.8,1,1,1.5c0,0.5-0.1,1.1-0.5,1.4
		C941.9,328.1,940.7,328.4,939.7,328.1z"/>
	<path class="st0" d="M930.7,330.5c0.5-1.4,1.4-2.6,2.6-3.4C933.5,328.9,932.7,330.2,930.7,330.5z"/>
	<path class="st0" d="M933.2,327.2l0.9-1.8L933.2,327.2z"/>
	<path class="st0" d="M1159.2,264c0.8,3.1,1,5.9-1,8.6c-1.7,2.4-4.2,3.9-6.3,5.8c-0.6,0.3-1.3,0.5-2,0.4c-0.7,0-1.3-0.5-1.3-1.2
		c0,0,0-0.1,0-0.1c0-0.5,0-1.1,0.2-1.6c1.9-4.6,4.6-8.7,8.9-11.4C1158.2,264.2,1158.7,264.1,1159.2,264z"/>
	<path class="st0" d="M1076.1,262c-1.9,4.2-5.6,7.3-10.1,8.3c-0.2-0.5-0.6-0.9-0.6-1.2c0.8-3.4,1.7-6.8,2.6-10.2
		c0.3-0.5,0.6-1,1-1.5C1071.7,258.3,1074.1,259.3,1076.1,262z"/>
	<path class="st0" d="M1203,342.9c0.2-0.9,0.5-1.7,0.9-2.5c2.2-3.7,4.7-7.2,7.6-10.4c0.7,0,1.2,0.5,1.2,1.2c0,0.1,0,0.2,0,0.3
		c-0.1,0.9-0.3,1.9-0.7,2.8C1210.5,338.4,1207.2,341.5,1203,342.9z"/>
	<path class="st0" d="M987.2,268.3c0.6-4.1,2.9-6.7,5.7-9c0.3-0.2,0.7-0.4,1.1-0.5c1-0.4,2.1,0,2.5,1c0.1,0.3,0.2,0.6,0.1,1
		c0,0.5-0.2,1.1-0.4,1.6c-1.8,2.8-4,5.1-7.4,6C988.3,268.4,987.8,268.3,987.2,268.3z"/>
	<path class="st0" d="M1272.1,336.5c-0.1-2.8,0.5-5.6,1.6-8.2c1.6-0.1,3,0.6,4,1.8c0.9,1.2,0.7,3-0.4,4
		C1275.8,335.4,1274,336.2,1272.1,336.5z"/>
	<path class="st0" d="M1180.3,268.6c0.9-2.6,2.8-4.8,5.3-6.1c0.4-0.1,0.7,0,1,0.3c0.2,0.3,0.3,0.7,0.2,1.1c-0.6,1.7-1.8,3-3.4,3.8
		C1182.4,268.1,1181.3,268.4,1180.3,268.6z"/>
	<path class="st0" d="M1119,277.5c-0.3-0.5-0.7-0.9-0.7-1.3c-0.1-1.1-0.1-2.2,0.2-3.2c1.2-4.6,3.7-8.9,7.1-12.3
		C1128.3,265.3,1125.1,273.4,1119,277.5z"/>
	<path class="st0" d="M921.4,272.6c-2.7-0.3-3.6-2-3.6-4.3c0-1,0.1-1.9,0.4-2.8c1.3-4.8,3.8-8.8,8-11.4c2.1-1.3,3.7-0.7,4.5,1.6
		c1.2,3.4,0.8,7.2-1.1,10.3c-1.6,2.5-3.3,5-6.5,5.9C922.5,271.9,921.9,272.2,921.4,272.6z"/>
	<path class="st0" d="M922,328c0.4-1.7,1.1-3.3,2.1-4.7c0.5-0.6,1.1-1.1,1.9-1.4c0.9-0.3,1.9,0.1,2.5,0.9c0.3,0.8,0.1,1.7-0.5,2.2
		C926.5,326.6,925,328.3,922,328z"/>
	<path d="M1006,336.4c-2.6,1.9-5.8,4.3-7.9,0.5c-1.5-2.7-1.2-6.1-0.1-8.9c0.9-2.5,2.4-4.8,4.3-6.6c2.3-1.9,2.5,0.9,2.8,3.1
		c0.3,2.6,4.5,2.7,4.2,0c-0.4-3.8-1.9-9.6-7-8.1c-4.1,1.2-6.9,5.9-8.5,9.5c-2,4.7-2.3,10.8,1.1,15c3.8,4.9,10.4,3.4,14-0.9
		C1010.3,338.2,1008.2,334.7,1006,336.4z"/>
	<path d="M1029.5,326.6c-0.9-5.3-5.2-7.7-10-5.1c-0.6,0.1-1.1,0.5-1.3,1c-2.6,4.7-6.4,10.1-6.1,15.8c0,2.9,1.9,5.5,4.7,6.3
		c3.3,0.9,6.9-1.1,9-3.5C1029.2,337.5,1030.3,331.4,1029.5,326.6z M1022.5,337.8c-1,1.2-4,3.5-5.4,1.6c-1-1.2-0.2-3.5,0.2-4.9
		c1.1-3.1,2.4-6.1,4.1-8.9c0.1,0,0.3-0.1,0.4-0.1c2.9-1.2,3.3,1.1,3.3,3.6C1025,332.1,1024.4,335.5,1022.5,337.8z"/>
	<path d="M1049.5,321.5c-0.1-2.5-4-3.3-4.6-0.6c-0.9,4.6-0.8,9.4-2.5,13.8c-0.7,2-1.8,3.7-3.9,4.4c-0.4,0.2-0.8,0.3-1.2,0.3
		c0,0-0.2-0.2-0.2-0.4c-1-2.7,0.2-6.6,0.8-9.3s1.5-5.3,2.3-8c0.8-2.7-3.1-3.6-4-1.1c-1.3,3.5-2.3,7.1-3.1,10.7
		c-0.7,3.3-1.8,8.5,1,11.3c2.6,2.6,6.5,1.2,9.2-1c0,1.4-0.1,2.8,0,4.3c0.2,3,4.7,3,4.7,0C1048,337.7,1049.8,329.6,1049.5,321.5z"/>
	<path d="M1068.2,342.2c-1.3-1.2-0.8-4.5-0.8-6.1c0.2-2.9,0.2-5.7,0-8.6c-0.5-4.2-3.8-8.7-8.6-7c-1.1,0.4-2.1,1.1-2.8,2.1
		c-0.8-0.8-2-0.8-2.8-0.1c-0.4,0.4-0.6,0.9-0.6,1.5c0,4.4,0.2,8.8,0.2,13.2c-0.1,2.2-0.1,4.3,0,6.5c0,3,4.5,2.9,4.6,0
		c0.1-3.2-0.1-6.4,0.2-9.7c0.2-2,0.3-8.3,2.7-9.2c3.4-1.3,2.5,7.5,2.4,8.9c-0.2,3.5-1.1,9.2,2.1,11.7
		C1067.2,347.4,1070.5,344.3,1068.2,342.2z"/>
	<path d="M1079.9,324.4c-0.7-0.2-1.5-0.5-2.2-0.6c0-4.7,0-9.4-0.1-14.1c-0.1-2.7-4.2-2.6-4.2,0c0,4.6-0.2,9.1-0.3,13.7
		c-1.3,0.1-2.6,0.6-3.7,1.3c-2,1.3-0.4,4.9,1.9,3.9c0.5-0.2,1.1-0.4,1.7-0.6c-0.2,5-0.3,9.9-0.3,14.9c0,3.1,4.7,3,4.8,0
		c0.1-4.9,0.2-9.7,0.3-14.6c0.4,0.1,0.9,0.2,1.3,0.4C1081.6,329.5,1082.5,325.3,1079.9,324.4z"/>
	<path d="M1088.5,314.6c0-2.7-4.2-2.7-4.2,0c0,4.7-0.3,9.4-0.6,14.1c-0.3,4.7-0.9,9.4-0.6,14.1c0,1.3,1.1,2.3,2.3,2.3
		c1.3,0,2.3-1.1,2.3-2.3l0,0c0.4-4.7,0.3-9.4,0.5-14.1C1088.4,324,1088.5,319.3,1088.5,314.6z"/>
	<path d="M1101,340.9c-3.2,1.6-4.2-2.1-4.2-5c3.8-2.3,10.4-5.6,8.5-11c-0.3-0.9-1.1-1.5-2.1-1.6c-7.3-0.2-11.2,6.7-10.9,13.3
		c0.2,5.9,4.9,12.5,11.2,8.1c1-0.8,1.2-2.2,0.5-3.2C1103.1,340.7,1102,340.4,1101,340.9z M1100.6,328.2c-0.7,0.8-1.5,1.5-2.3,2
		C1098.8,329.3,1099.6,328.6,1100.6,328.2L1100.6,328.2z"/>
	<path d="M1119.5,328.4c2.4-0.5,1.5-4.2-0.9-3.8c-4.9,0.9-8.8,3.5-6.6,8.8c0.9,2.1,2.3,4,3.1,6.2c0.5,1.1,0.6,2.4,0.1,3.6
		c-0.9,1.6-1.7,0.1-2.5-0.9c-1.6-2.2-4.3,0.5-3.5,2.5c1.1,2.9,4.2,4.9,7.2,3.5c3-1.4,4.2-4.9,3.7-7.9c-0.4-2.8-2.1-5.2-3.4-7.6
		c-0.3-0.6-1.4-2-1.2-2.8C1115.9,328.9,1118.5,328.6,1119.5,328.4z"/>
	<path d="M1134.2,322c-2.3-0.4-4.8,1.4-6.2,3.1c-2.4,2.7-3.2,6.4-2,9.8c0.7,1.9,1.5,3.7,2.5,5.4c0.3,0.6,1.3,1.6,1.3,2.3
		c0.1,1.7-1.4,0.3-2-0.4c-1.4-1.8-4.8-0.6-3.9,1.8c1.2,3.3,5,5.5,8.3,3.5c2.9-1.7,2.9-4.8,1.5-7.5c-1.5-2.9-4.7-6.3-3.9-9.8
		c0.4-1.4,1.2-2.7,2.4-3.6c0.3-0.2,0.6-0.4,0.9-0.6c0,0.3-0.1,0.6-0.2,0.9c-0.5,2.4,3.2,3.2,3.7,0.9S1137.2,322.5,1134.2,322z"/>
</g>
</svg>
