<svg xmlns="http://www.w3.org/2000/svg" viewBox="0 0 1366 768"><g id="Layer_5" data-name="Layer 5"><path d="M803.48,54.16c-3-.15-5.94.55-8.87.93q-9.11,1.2-18.25,2c-11.26,1-22.53,2-33.84,2.49-6.56.3-13.12.66-19.68,1-8.64.4-17.28.64-25.92,1-10.32.38-20.64.63-31,.94-10.88.34-21.76.64-32.64,1l-32.16,1c-11.36.34-22.73.54-34.08,1s-22.88.13-34.32.38c-3.7.09-7.34-.57-11-.54-9.28.07-13.6,4.14-17,11.33-5,10.41-6.57,21.48-6,32.88A67,67,0,0,0,503,129.4a4.34,4.34,0,0,0,2.17,2.62,8.94,8.94,0,0,1,5.06,6.49c.59,2.37,1.81,3.22,4.29,3.12,9.12-.38,18.24-.27,27.36-.53,10.08-.28,20.17.16,30.24-.23,13.92-.55,27.85-.09,41.76-.51,12.48-.38,25-.11,37.44-.45,13.92-.39,27.84-.2,41.76-.5,12.64-.27,25.28-.24,37.92-.45,13.6-.24,27.2-.27,40.8-.51,9.77-.18,19.56-.7,29-3.53,4.74-1.41,9.42-2.87,13.48-5.95a6.36,6.36,0,0,0,2.55-6.52c-1.21-7.77-2.17-15.58-3.74-23.3C811.67,92,809.87,84.88,808,77.82a23.64,23.64,0,0,0-2.3-6c-3.2-5.42-6.32-6.94-13.24-6a41,41,0,0,1-5.52.46c-9.44.08-18.9-.15-28.32.33-8.16.43-16.34,0-24.47.47-7.29.47-14.58,0-21.85.46-7.76.44-15.53.15-23.28.49-7.44.32-14.89.18-22.32.47-7.76.3-15.52.22-23.28.48-7.6.25-15.2.25-22.8.47-7.76.23-15.52.22-23.28.5-8.24.29-16.48.28-24.72.45-5.92.13-11.86.13-17.75.52A143.46,143.46,0,0,0,527,75.47c-6.33,1.72-11.31,4.61-14.81,10a30.23,30.23,0,0,0-4.38,12.7c-1.28,9.78-.72,19.53.27,29.28a9.3,9.3,0,0,1-.95,5.28" style="fill:none;stroke:#000;stroke-linecap:round;stroke-linejoin:round;stroke-width:2px"/><path d="M687.8,566.2c-23.28,0-46.56.16-69.84-.06-12.72-.12-25.44-.32-38.16-.48-7.68-.09-15.36-.31-23-.46-10.08-.18-20.16-.48-30.24-.73-10.64-.26-21.28-.63-31.92-1-4.64-.16-9.29-.13-13.92-.42-7.67-.49-15.36-.64-23-1-7.84-.37-15.68-.69-23.52-1.12" style="fill:none;stroke:#000;stroke-linecap:round;stroke-linejoin:round;stroke-width:2px"/><path d="M637.16,665.32c-8.4.09-16.82.2-25.19-.54-7.12-.64-14.26-1-21.38-1.76-2.92-.3-5.9-.52-8.87-.59-6.81-.17-13.59-.82-20.39-1.08-2.87-.12-5.79,0-8.65-.38-4.79-.56-9.64,0-14.39-.55s-9.77-.1-14.65-.39c-15.35-.89-30.72-.43-46.08-.42q-17.28,0-34.56.74c-6.48.27-13,.45-19.44.89" style="fill:none;stroke:#000;stroke-linecap:round;stroke-linejoin:round;stroke-width:2px"/><path d="M502.28,142.12c.28,1.36-.92,2.28-1,3.6-.25,4,1.84,7.54,7.72,9.37a39.34,39.34,0,0,0,9.85,1.33c8.55.45,17.09,1.07,25.67,1.12,4.88,0,9.76.21,14.64.17,14.57-.11,29.13-.61,43.68-1.39,11.93-.63,23.84-1.48,35.76-2.23,10.17-.65,20.31-1.85,30.48-2.29,9.38-.4,18.7-1.49,28.08-1.82,9-.33,18.07-.85,27.12-1.15,19.44-.65,38.88-.31,58.32-.53a180.13,180.13,0,0,0,23-1.79,145.18,145.18,0,0,0,20.15-4.14c3.37-1,3.73-1.66,4.13-5,.57-4.8,1-9.59,1.16-14.41a121.81,121.81,0,0,0-.65-14.41,82.75,82.75,0,0,0-3.21-16.31c-3.76-12.7-10.31-23.66-20.37-32.42a1.83,1.83,0,0,0-1.46-.46" style="fill:none;stroke:#000;stroke-linecap:round;stroke-linejoin:round;stroke-width:2px"/><path d="M1013,575.56c.62,6.4.2,12.81-.06,19.2s-1,12.65-1.64,19c-.55,5.43-.91,10.89-1.47,16.31-.78,7.51-.71,15.06-1.33,22.57-.33,3.9,0,7.84-.07,11.76-.2,9.29,0,18.57.52,27.84a499,499,0,0,0,4.94,49.69,5.86,5.86,0,0,0,4.4,5.23,73.2,73.2,0,0,0,20.39,2.92" style="fill:none;stroke:#000;stroke-linecap:round;stroke-linejoin:round;stroke-width:2px"/><path d="M1010.6,669.64c-7.91-.43-15.83-.93-23.76-.7-5.68.15-11.38.21-17,.76-6.74.67-13.49,1.41-20.16,2.61a18.11,18.11,0,0,1-2.41.21" style="fill:none;stroke:#000;stroke-linecap:round;stroke-linejoin:round;stroke-width:2px"/><path d="M702.92,57.16a2.87,2.87,0,0,1-2.17-1.43c-4.7-6.09-11.14-7.9-18.73-5.84-4.59,1.25-8.38,3.75-12.23,6.3-1.32.87-2.48,2.17-4.31,1.93" style="fill:none;stroke:#000;stroke-linecap:round;stroke-linejoin:round;stroke-width:2px"/><path d="M1079.24,566.2c-7.54-.2-15-1-22.56-1.35-4.16-.21-8.31-.78-12.48-.57-.24,0-.53-.09-.71,0-4.09,2.36-8.18,0-12.25-.13a76,76,0,0,0-10.56-.1,3,3,0,0,0-2.44,1.15,15.32,15.32,0,0,1-4.52,3.87" style="fill:none;stroke:#000;stroke-linecap:round;stroke-linejoin:round;stroke-width:2px"/><path d="M672.92,152.44c.72,2.4-.12,4.8,0,7.2,0,1-1.06,1.5-1.88,1.64-4.87.84-9.67,2.1-14.63,2.44a4.17,4.17,0,0,1-3.82-2.18c-1.26-1.9-.55-3.16,1.9-3.58" style="fill:none;stroke:#000;stroke-linecap:round;stroke-linejoin:round;stroke-width:2px"/><path d="M1041.08,566.2c2.13,2.1,5,2.27,7.67,3.15,2.91,1,5.75,2.16,8.89,2.13" style="fill:none;stroke:#000;stroke-linecap:round;stroke-linejoin:round;stroke-width:2px"/></g></svg>
