<svg xmlns="http://www.w3.org/2000/svg" viewBox="0 0 1366 768"><g id="Layer_5" data-name="Layer 5"><path d="M858.52,510.91a165.35,165.35,0,0,1-3.08,20.65c-.49,2.4-1.24,3.13-3.61,2.61-3.49-.76-7-1.13-10.56-1.65A89.87,89.87,0,0,0,799.76,536c-8.21,2.68-16.66,3.94-25.2,4.81-4.24.43-8.49.73-12.72,1.24A138.8,138.8,0,0,0,740,546.63c-5.36,1.54-10.78,3.07-16.31,2.27-4.65-.67-7.84,1.43-11.05,4-7.12,5.68-12.49,12.86-17,20.67-6.95,12.06-11.87,25.1-17.71,37.7a295.25,295.25,0,0,1-14.44,27.1,308.43,308.43,0,0,1-20.8,30.52q-10,12.93-21.29,24.78c-5.15,5.43-10.45,10.69-16.08,15.61-1.15,1-2.27,2.06-1.92,3.84" style="fill:none;stroke:#000;stroke-linecap:round;stroke-linejoin:round;stroke-width:2px"/><path d="M767.93,605.83a116.37,116.37,0,0,0,4.77,30.26c.84,2.87,3.08,3.07,5.13,3.51a49.69,49.69,0,0,0,15.57.66,51.74,51.74,0,0,0,26.15-10,33,33,0,0,1,16.55-6.34,185.41,185.41,0,0,1,22.09-.85,35.52,35.52,0,0,1,7.43.72c7.37,1.61,9.5,8.51,8.14,15a25.34,25.34,0,0,1-7.15,12.48c-4,4.08-8.79,7-13.63,9.91-5.32,3.19-11.1,5.57-16.1,9.33-4.67,3.51-8.72,7.47-11,13-3.24,7.79-8.71,13.71-15.55,18.53-7.12,5-14.07,10.3-22.08,13.92-4,1.8-8.08,3.36-12,5.34-6.38,3.27-11.22,8.35-15.61,13.9-3.43,4.34-6.94,8.6-11.74,11.54-2.28,1.39-4.66,2.52-7.44,2.41" style="fill:none;stroke:#000;stroke-linecap:round;stroke-linejoin:round;stroke-width:2px"/><path d="M855.19,533.72c1.89,2.31,4.78,1.79,7.22,2.31,7.24,1.55,14.51,3,21.84,4a109,109,0,0,0,11,1.08c4.56.17,9.11.78,13.69,0,1.41-.25,2.43,1.63,2.65,4,.79,8.7-3.38,14.92-10.1,19.65-4.83,3.4-10.45,4.94-16.28,5.85-8.86,1.38-17.74,1-26.64.76-6.73-.14-13.48-.25-20.15.76s-12.81,3.15-19.18,4.86a59.2,59.2,0,0,1-11.07,1.76,23.57,23.57,0,0,1-6.72-.79c-2.67-.6-5,.62-6.69,2.6-3.1,3.55-6,7.24-9.13,10.79-4.17,4.79-8,9.89-12.45,14.43" style="fill:none;stroke:#000;stroke-linecap:round;stroke-linejoin:round;stroke-width:2px"/><path d="M964,613a7.12,7.12,0,0,1-4.8.69c-4.63-.59-9.28-.66-13.92-.91-7-.37-13.92-.78-20.88-1-2.47-.09-5-.19-7.44-.36-10.39-.71-20.83-.51-31.21-1.38a3.85,3.85,0,0,0-.48,0c-8.64,0-17.28-.09-25.92-.44" style="fill:none;stroke:#000;stroke-linecap:round;stroke-linejoin:round;stroke-width:2px"/><path d="M966.07,537.64a7.21,7.21,0,0,1-5.27-.23c-2.23-1.06-4.7-.67-7-.81-8.62-.56-17.25-1.14-25.91-1.12-5.43,0-10.89-.19-16.32-.49-11.82-.65-23.66-1.4-35.29-3.94-5-1.1-10-2.54-14.88-4a2.47,2.47,0,0,0-.72,0" style="fill:none;stroke:#000;stroke-linecap:round;stroke-linejoin:round;stroke-width:2px"/><path d="M859.23,507.79c4.36.16,8.65.94,13,1.34,4.57.42,9.12,1,13.67,1.55,4.25.53,8.51,1.06,12.75,1.76,2.6.43,5.27.67,7.9,1.06,5,.76,10.11,1.37,15.14,2.25,3.33.58,6.71,1,10.06,1.55,5,.76,10.1,1.53,15.12,2.4a2.89,2.89,0,0,1,2.1,2.62c.19,1.23.58,2.55.08,3.83" style="fill:none;stroke:#000;stroke-linecap:round;stroke-linejoin:round;stroke-width:2px"/><path d="M958.53,639.89c2.76-1,5.32.41,7.9.84a16.22,16.22,0,0,1,5.31,1.54c.61.34,1.4.56,1.65,1.21,1.27,3.31-1.09,10.18-4.27,12.72-.66.53-1.53,1-1.87,1.71-.93,1.9-2.36,1.64-3.89,1.17-17.37-5.26-35-9.57-52.59-14-7.22-1.83-14.53-3.35-21.85-4.76-3.89-.75-7.69-2.16-11.75-1.95" style="fill:none;stroke:#000;stroke-linecap:round;stroke-linejoin:round;stroke-width:2px"/><path d="M915.09,635.63a3.6,3.6,0,0,0,2.64,1.47A97.81,97.81,0,0,1,937,640.85a124.72,124.72,0,0,1,14.16,5c3.51,1.46,5.31.43,6.48-3.34.25-.8.14-1.7.71-2.42-2.44-2.57-5.87-2.12-8.9-2.83-3.56-.83-7.2-1.29-10.81-1.83-3-.45-6.07-.69-9.1-1.06-3.2-.38-6.43-.3-9.61-.88a5.79,5.79,0,0,0-4.3.46c-2.69,1.8-5.35,1-7.91-.08a10.43,10.43,0,0,0-3.87-.91c-7.93-.17-15.84.45-23.75.84-1.83.1-3.67.43-5.52.42" style="fill:none;stroke:#000;stroke-linecap:round;stroke-linejoin:round;stroke-width:2px"/><path d="M869.09,521.34c4.56.27,9.14.4,13.68.86,5,.5,10.09.7,15.13,1.12s9.91.64,14.88,1c10,.62,20,1.3,30,1.86,7,.39,14.08.6,21.12,1,3.36.17,6.71.49,10.08.5a3.84,3.84,0,0,1,3.67,2.31c1.2,2.33,3.5,3.77,5.74,5a5.37,5.37,0,0,1,1.92,2c1.84,2.68,3.42,5.66,6.69,7" style="fill:none;stroke:#000;stroke-linecap:round;stroke-linejoin:round;stroke-width:2px"/><path d="M568.21,752.51a166.77,166.77,0,0,1,16.07-23.76c3.12-3.93,6-8,9.28-11.83a2.55,2.55,0,0,1,2-1.18,12.67,12.67,0,0,0,7.2-2.15,1.44,1.44,0,0,1,.83-.24c7.15.42,14.35.36,21.26,2.82A92.66,92.66,0,0,1,645,726.26q16.75,11.06,33.36,22.32a5.23,5.23,0,0,0,3.16.89" style="fill:none;stroke:#000;stroke-linecap:round;stroke-linejoin:round;stroke-width:2px"/><path d="M963.19,538.37c-.56,2.48,0,5,0,7.44.13,10.72-.15,21.46.41,32.15.48,9.37.13,18.73.45,28.09.05,1.59.22,3.19.2,4.8,0,2.52.18,2.76,2.89,3.11" style="fill:none;stroke:#000;stroke-linecap:round;stroke-linejoin:round;stroke-width:2px"/><path d="M992.73,548.41c.7,3.24.55,6.56.69,9.84.42,10.42-.59,20.8-1.07,31.2-.26,5.44-.83,10.87-.73,16.32,0,1.2.15,2.4.23,3.6" style="fill:none;stroke:#000;stroke-linecap:round;stroke-linejoin:round;stroke-width:2px"/><path d="M854.07,594.44c-7.27-.54-14.63-1.71-21.81-.93-5,.55-10,.52-14.91.7s-9.76,0-14.64.06" style="fill:none;stroke:#000;stroke-linecap:round;stroke-linejoin:round;stroke-width:2px"/><path d="M796.72,601.48c2.7,1.47,5.79,1.43,8.65,1.53,4.4.15,8.8.45,13.19.64,8.77.39,17.17,2.05,23.77,8.57a3.44,3.44,0,0,0,2.65.95" style="fill:none;stroke:#000;stroke-linecap:round;stroke-linejoin:round;stroke-width:2px"/><path d="M881,641.92c1.55-.66,2.52.65,3.57,1.25a119.09,119.09,0,0,1,16.34,11c3.71,3,3.12,6.7-1.13,9.16a6.45,6.45,0,0,1-1.72.79c-3.7.1-5.12,2.62-7.09,5.29-3.28,4.45-8.36,5.26-13.77,4.74s-10.22-3-15.1-5.15c-3-1.27-5.88-2.65-8.91-3.76a5.06,5.06,0,0,1-2.16-1.43" style="fill:none;stroke:#000;stroke-linecap:round;stroke-linejoin:round;stroke-width:2px"/><path d="M993.29,609.37c-1.58-.25-2.31.82-3.14,1.91a10.57,10.57,0,0,0-2,8.43c.61,5,1.2,10,.29,15.12a33.68,33.68,0,0,0-.58,6.46" style="fill:none;stroke:#000;stroke-linecap:round;stroke-linejoin:round;stroke-width:2px"/><path d="M744.14,586.67c4.56.61,8.31,3.09,12,5.55,4.06,2.72,8,5.67,10.85,9.77.66,1,1.69.71,2.63.72" style="fill:none;stroke:#000;stroke-linecap:round;stroke-linejoin:round;stroke-width:2px"/><path d="M855.48,572.11c.09,3.36.25,6.71,0,10.09a150.78,150.78,0,0,1-5,32.16" style="fill:none;stroke:#000;stroke-linecap:round;stroke-linejoin:round;stroke-width:2px"/><path d="M756.67,624.09a51,51,0,0,0,3.1,11.29c.55,1.31,1.09,2.24,2.68,1.9" style="fill:none;stroke:#000;stroke-linecap:round;stroke-linejoin:round;stroke-width:2px"/><path d="M1018.43,564.21c-1.28-1.32-2.95-1-4.56-1.23a45.8,45.8,0,0,0-9.36-.31" style="fill:none;stroke:#000;stroke-linecap:round;stroke-linejoin:round;stroke-width:2px"/><path d="M840.13,576.58c.88,2.83,1.92,5.64,2.58,8.53.34,1.45.9,1.89,2.23,1.66" style="fill:none;stroke:#000;stroke-linecap:round;stroke-linejoin:round;stroke-width:2px"/><path d="M865.19,654.42c3.16,2.69,7,4.17,10.57,6.23" style="fill:none;stroke:#000;stroke-linecap:round;stroke-linejoin:round;stroke-width:2px"/><path d="M984.94,645.62c-2.62-.11-5-1.32-7.44-1.91-1.28-.3-2.56-.79-3.84,0" style="fill:none;stroke:#000;stroke-linecap:round;stroke-linejoin:round;stroke-width:2px"/></g></svg>
