<svg xmlns="http://www.w3.org/2000/svg" viewBox="0 0 1366 768"><g id="Layer_16" data-name="Layer 16"><path d="M681.37,321.88c-1.77,2.63-2,5.35-2.29,8.05-.09.81,0,1.64-.07,2.46a6.21,6.21,0,0,1-.31,1.6,3.42,3.42,0,0,1-2.91,1.91c-.86,0-1.69-1.09-1.78-2.45a32.83,32.83,0,0,1,0-3.29,24.4,24.4,0,0,0-1.44-8.28c-.44,1.3-.73,2-.93,2.75a15.67,15.67,0,0,1-15.21,12,9.34,9.34,0,0,1-3.93-1,5.07,5.07,0,0,1-3.06-5.33,9.85,9.85,0,0,1,.81-3.56c3-5.87,7.09-10.71,13.1-13.69.37-.18.72-.4,1.1-.55,2.89-1.13,5.48-.51,6.68,2.64.28.75.54,1.51.8,2.22,2.59-.24,2.59-.24,4.72.77a11.33,11.33,0,0,1,2-1.35,5.39,5.39,0,0,1,5.11.09c1.5.91,3.08,1.72,4.54,2.52,1.51-.28,2.13-1.43,2.87-2.36a15.71,15.71,0,0,1,6-4.24,2.6,2.6,0,0,1,3,.49,5,5,0,0,1,2.09,4.63c-.15,1.08-.21,2.19-.46,3.25a7.12,7.12,0,0,1-6.94,5.86c-.55,0-1.1-.06-1.64-.05-1.45,0-2.08.42-2.24,1.3a2.57,2.57,0,0,0,1.51,3,7.89,7.89,0,0,0,3.19.52,36.24,36.24,0,0,0,14.39-4.45c.22-.13.35-.41.59-.7.39-1.39-.63-2.52-1-3.81a7.37,7.37,0,0,1,1.71-7.6,10.92,10.92,0,0,1,5.45-2.66,2.28,2.28,0,0,1,1.75.76,6.11,6.11,0,0,1,1.43,5.74,22,22,0,0,1-1.49,4.68,4.07,4.07,0,0,0,.6,4.58,24.12,24.12,0,0,1,1.85,2.68,2.12,2.12,0,0,1-.76,2.88,6.27,6.27,0,0,1-5.46,1c-1.85-.47-3.65-1.13-5.72-1.78-2.21.67-4.67,1.48-7.16,2.14a21.46,21.46,0,0,1-10.56.16c-3.76-.88-5.26-2.8-5.42-6.68a16.82,16.82,0,0,1,.12-2.46,3.3,3.3,0,0,0-2.36-3.83C683,322.32,682.38,322.17,681.37,321.88Zm-14.63-4.45c-.6-.13-.75-.21-.86-.17-6,1.83-9.25,6.47-11.65,11.83-.72,1.6.18,3,1.95,3.4a6.61,6.61,0,0,0,2.8,0c3.77-.85,6.23-3.42,7.78-6.74A8.68,8.68,0,0,0,666.74,317.43Zm31-.12c-1.46,1.15-3.2,2.12-3.49,4.6,2.14.28,3.59-.32,4.46-2.13C699.23,318.77,699,318,697.78,317.31Zm18.22,1.5c-1.08-.35-1.52.13-1.65.8a3.12,3.12,0,0,0,.29,1.47c0,.07.86,0,.91-.13A20.38,20.38,0,0,0,716,318.81Z"/><path d="M469.06,376.67a4,4,0,0,0-1.49,3.07c-.18,2.23.5,3.38,2.71,3.9s4.45,1.53,7.07.46c.51-1.39,1-2.93,1.62-4.45a21.24,21.24,0,0,1,1.43-3.4,39.24,39.24,0,0,1,6.43-8.45,20.24,20.24,0,0,1,3.95-2.87c2.66-1.49,5-.66,6.5,2a9.83,9.83,0,0,1,.9,8.29,14.37,14.37,0,0,0-1.06,6,5.51,5.51,0,0,0,1.27,3.78c2.93-.25,3.45-.64,3.82-3.08.19-1.22.2-2.46.36-3.68.64-5,1.24-10.05,2-15.05A20.16,20.16,0,0,1,506,359a2,2,0,0,1,2.58-1.38c1.3.27,2.13,1,2.12,2.14a31,31,0,0,1-.47,4.05c-.22,1.47-1,2.88-.51,4.42.89,1.07,2.05.41,3.08.51,1.26.12,2.48.32,3.07,1.64.44,1-.34,2.43-2,3.16a43.82,43.82,0,0,1-5.29,1.55,13.11,13.11,0,0,0-1.24,5.75c-.19,2.59-.29,5.19-.42,7.79a4.52,4.52,0,0,1-1.33,3.33,1.68,1.68,0,0,1-2.75-.42,41,41,0,0,1-1.22-4c-1.29-.56-2.27.5-3.37.83-2.69.79-2.95.73-4.57-1.84-.29-.45-.63-.86-1.06-1.44-.81.38-1.51.72-2.24,1-1.75.76-3.46,1.64-5.27,2.23-2.29.75-4.59.83-6.5-1.08-.88-.89-1.94-.74-3.07-.6a54.43,54.43,0,0,1-5.71.43,9,9,0,0,1-2.8-.47c-2.91-.92-4.2-2.68-4.5-5.68s.8-5.42,2-7.86c1.54-3.22,3.56-6.18,6.76-8a4.52,4.52,0,0,1,6.52,2c1.48,3.44,1.52,4.88-1.31,7.24a8,8,0,0,1-5.54,2.26C470.2,376.55,469.53,376.65,469.06,376.67Zm13.69,8.1c4.55-.4,6.88-3.08,8.75-6,1.72-2.71,2.71-5.81,1.48-9.36a7.42,7.42,0,0,0-4.21,3.3C486.52,376.34,483.45,379.6,482.75,384.77Z"/><path d="M750.48,257.06a37.29,37.29,0,0,1,3.69-1.23,3.8,3.8,0,0,1,2,.18,1.71,1.71,0,0,1,1.19,1.93,2.58,2.58,0,0,1-1.05,1.58,13.47,13.47,0,0,1-2.69,1c-3.19,1.05-3.09,1.06-3.47,4.19a25.75,25.75,0,0,0,1.11,11.4,6.62,6.62,0,0,1-1.32,1c-1.82.72-2.92.31-3.57-1.43-.43-1.15-.65-2.38-1-3.57-.2-.76-.41-1.52-.61-2.24a3.53,3.53,0,0,0-3.06,1.31c-3.54,3.15-7.81,3.8-12.28,3.63-3.64-.13-5.76-2.14-6.32-5.79-.21-1.35-.26-2.72-.39-4.2a19.82,19.82,0,0,0-7.55-3.6c-1.27,2.35-1.28,2.51-1.24,7.58,0,2.46,0,4.92,0,7.41a13.64,13.64,0,0,1-1.58.85c-2.09.75-3.08.07-3.34-2.19a74.45,74.45,0,0,1-.31-15.58c.17-1.77.38-3.55.69-5.3a6.63,6.63,0,0,1,.9-2.23,1.72,1.72,0,0,1,2.06-1,2.55,2.55,0,0,1,1.34,1.36,30.55,30.55,0,0,1,.86,3.72c3.58.85,6.66,3,10.31,3.79,1-1,1.78-2,2.68-2.81a32.23,32.23,0,0,1,3.73-3.19c2.78-1.88,5.67-1.06,7.21,2a4.07,4.07,0,0,1-.5,4.27c-1.51,2.28-3.82,3.47-6.27,4.4-1,.38-2.09.59-3,.83-.28.42-.54.64-.56.87-.39,3.92.12,4.6,3.76,5.38a6.59,6.59,0,0,0,4.78-.58c1.91-1.07,3.82-2.15,5.63-3.36,2.31-1.53,2.82-3,2.12-5.61a19.43,19.43,0,0,0-1-2.41c1.48-1.85,1.81-4.06,1.9-6.42a70.38,70.38,0,0,1,.93-8.57c.55-3.37,1.4-6.7,2-10.08a5.76,5.76,0,0,1,2.21-3.78,2,2,0,0,1,3.08.76,6.77,6.77,0,0,1,.39,4q-1.23,6-2.26,12.11A54.43,54.43,0,0,0,750.48,257.06Z"/><path d="M938,271.12v8.57a7.23,7.23,0,0,1-2.58,5.8,6.16,6.16,0,0,1-2.18.65c-.68-1.88-.39-3.52-.34-5.14.07-2.33.16-4.65.11-7a6.82,6.82,0,0,0-3.33-6,5.48,5.48,0,0,0-2.35,3.55c-.45,2-.75,4-1.08,6.06-.13.8-.1,1.64-.26,2.44a2.33,2.33,0,0,1-2.4,1.85,2.11,2.11,0,0,1-2.38-1.77,34.43,34.43,0,0,1-.22-3.67c-.12-2.15.42-4.36-.48-6.63-1.93-.35-3.46.62-4.88,1.54-.54.36-.75,1.42-.88,2.2-.65,3.9-1.23,7.82-1.84,11.76-.17.16-.33.43-.56.52-2.71,1-3.65.59-3.82-2.07a38.39,38.39,0,0,1,.19-4.91c.12-2,.28-4.08.43-6.16L906.5,270c.15-.44.17-1,.43-1.15,1-.73,2-1.35,3.21-2.13.37-3.17.76-6.42,1.1-9.67.26-2.59.46-5.18.67-7.78a5.38,5.38,0,0,1,1.64-3.65,2.36,2.36,0,0,1,4,.92,7.66,7.66,0,0,1,.27,2.82c-.33,3.67-.75,7.33-1.17,11a7.48,7.48,0,0,0,0,3.64c1.91-.37,3.72-.83,5.55-1.07a73.82,73.82,0,0,1,7.7-.66,6.7,6.7,0,0,1,3.05.91,12.13,12.13,0,0,1,2.12,1.67,2.61,2.61,0,0,0,.58.09c4.87-1,6-.46,8.23,4.45a23.66,23.66,0,0,1,2,12.83c-.23,1.89-1,3.34-3,3.79-1.15-.81-1.07-2-1.2-3-.25-2-.39-4.09-.66-6.13A8.31,8.31,0,0,0,938,271.12Z"/><path d="M467.72,311.14c.86,0,1.25,0,1.65,0a5.08,5.08,0,0,1,5.26,3.06,15.21,15.21,0,0,1,1.81,6.67c0,2.18.2,4.37.28,6.56a7.63,7.63,0,0,1-.09,2,2.09,2.09,0,0,1-1.65,1.65c-.66.15-1.44-.51-1.62-1.53-.45-2.55-.83-5.13-1.22-7.69a10.78,10.78,0,0,0-1.79-5.23,11.54,11.54,0,0,0-1.49,1.49c-.87,1.34-.73,2.88-.72,4.38s0,3.27,0,4.78a5.23,5.23,0,0,1-.61.76c-2.4,1.95-4,1.41-4.49-1.7a49.8,49.8,0,0,1-.65-5.69,106.79,106.79,0,0,1,.65-16c.12-1.06.15-2.13.26-3.87-2.16,2.66-3.71,5.07-6.82,6.66a14.68,14.68,0,0,1,.32-2.34c.53-1.55,1.23-3,1.71-4.6a3.86,3.86,0,0,0-.07-2,1.25,1.25,0,0,0-1.56-1,4.63,4.63,0,0,0-1.84.82,18.83,18.83,0,0,0-5.85,7.26c-2,4.55-1.37,8.14,2.2,11.59,1.57,1.51,3.32,2.84,5,4.24,1,.86,2.27,1.54,2.77,2.9a2.83,2.83,0,0,1-2.09,2.34,17.68,17.68,0,0,1-7.61,1.38,7.08,7.08,0,0,1-4.63-2.35,1.07,1.07,0,0,1,.78-1.73c.95,0,1.9.23,2.85.26a15.64,15.64,0,0,0,2.31-.26,10.65,10.65,0,0,0-1-1.59c-1.2-1.3-2.5-2.51-3.68-3.84-2.46-2.77-2.91-6.08-2.45-9.61a19.79,19.79,0,0,1,5.69-11.12c1.88-2,3.84-3.89,6.65-4.55a5.79,5.79,0,0,1,3.61.1c1.5.58,2.66,1.33,3,3a14.46,14.46,0,0,0,.7,2,15.88,15.88,0,0,1,2.42-1.69,2,2,0,0,1,2.84,1.47,21.74,21.74,0,0,1,.11,4.49C468.47,305.41,468.08,308.1,467.72,311.14Z"/><path d="M984.45,283.62l2.43.56a2.82,2.82,0,0,1,0,.94,8.59,8.59,0,0,1-3.14,3.71,2,2,0,0,1-3.2-1.24,54.29,54.29,0,0,1-.73-6.1c-.19-2.73-.22-5.47-.38-8.21a4.35,4.35,0,0,0-1.22-3.23,38.13,38.13,0,0,0-2.55,11.77c-.06,1.37,0,2.74,0,4.11a2.26,2.26,0,0,1-2.28,2.39,2.61,2.61,0,0,1-2.92-1.72,12.22,12.22,0,0,1-.33-2c-.14-1.07-.25-2.15-.36-3.1-1.25-.76-2-.08-2.7.57-3.41,3.36-7.7,3.9-12.15,3.87s-6.86-2.49-6.7-7c.16-4.82,2.62-8.54,6.17-11.57a12.39,12.39,0,0,1,6.51-3.26,5.89,5.89,0,0,1,5.21,1.77c1.85,1.93,1.93,4,.49,6.37a16.88,16.88,0,0,1-7.4,6.29,5,5,0,0,1-2.37.25,25.84,25.84,0,0,1-2.8-.39c-.72,2.2-.49,3.07,1.1,3.65,2.23.81,4.55,1.21,6.8.2a31.7,31.7,0,0,0,5-2.78c2.39-1.64,3.82-3.8,3.5-6.94a35.1,35.1,0,0,1,0-6.15c.16-2.13,1.6-2.85,3.78-2.1.13,0,.24.14.36.19l.82.28c.34-.13.73-.25,1.11-.41,2.78-1.14,4.6-.44,6,2.18s1.5,5.21,1.54,8C984.11,277.49,984.31,280.49,984.45,283.62ZM956,273.1a3.55,3.55,0,0,0,4-.68c1-.91,2.09-1.81,2.21-3.27,0-.31-.62-.9-1-.95a1.91,1.91,0,0,0-1.43.56C958.56,270,957.47,271.38,956,273.1Z"/><path d="M788.42,376.34l6.7-.89c.67-.94.29-2.32.36-3.64a19.26,19.26,0,0,1,.18-2.84,2.21,2.21,0,0,1,2.16-1.58,1.86,1.86,0,0,1,2,1.19,20.69,20.69,0,0,1,.87,4c.21,1.61.24,3.25.35,4.91a24.51,24.51,0,0,1,3.82,1.57c3,1.9,4.26,4.87,4.49,8.32.21,2.94-.83,5.65-1.73,8.37a1.54,1.54,0,0,1-1.3.67,1.63,1.63,0,0,1-1.16-.94,13.32,13.32,0,0,1-.29-2.83c-.06-1.51,0-3-.13-4.51a7.48,7.48,0,0,0-.74-2.73,2.19,2.19,0,0,0-1.52-1.15,2,2,0,0,0-1.5,1.1,18.72,18.72,0,0,0-1.29,3.87c-.6,2.8-1.09,5.63-1.6,8.46a3.26,3.26,0,0,1-1.43,2.37,2,2,0,0,1-3.07-.88,8.44,8.44,0,0,1-.3-3.2c.3-2.71.8-5.41,1.17-8.12.27-2,.5-4.07.67-6.12a6.54,6.54,0,0,0-.43-1.74l-6.8,2.54a18.32,18.32,0,0,0-.81,2.64c-.54,3.65-1,7.31-1.48,11-.09.68-.14,1.36-.27,2-.49,2.43-1,2.77-4.29,2.54a6.83,6.83,0,0,1-.78-4.6c.32-2.85.69-5.7,1-8.56a32.57,32.57,0,0,0,0-3.28c-1.06-1.45-3.32-1.44-4-3.36.66-2.38,3.18-1.59,4.82-2.63.7-3.16.92-6.42,1.32-9.66a23.16,23.16,0,0,1,.43-3.24,3.13,3.13,0,0,1,3.43-2.31,1.81,1.81,0,0,1,1.93,1.73,61.85,61.85,0,0,1-.39,6.53C788.56,372.92,788.07,374.5,788.42,376.34Z"/><path d="M684.68,264.92c1-2.07,1.89-4.07,2.91-6a19.19,19.19,0,0,1,11.06-9.82c2.55-.85,4.9-.71,6.69,1.55s2.67,4.8,1.53,7.65a2.23,2.23,0,0,1-2.65,1.69c-.15-.56-.32-1.18-.48-1.81a21.18,21.18,0,0,0-.7-2.77,2.12,2.12,0,0,0-3-1.33,12.69,12.69,0,0,0-3.51,2,27.3,27.3,0,0,0-6.43,9.42,6.68,6.68,0,0,0-.43,2,2.26,2.26,0,0,0,1.5,2.62,10.34,10.34,0,0,0,7.19.77,19.47,19.47,0,0,0,6.4-2.67,18,18,0,0,1,2.39-1.21c-.09.76,0,1.24-.2,1.44-4.52,4.67-10.05,6.31-16.43,5.44a6.38,6.38,0,0,1-5.82-5c-.13-.51-.34-1-.58-1.71a19.35,19.35,0,0,0-2.34.87,19,19,0,0,1-12.35,1.8c-3.31-.53-4.38-1.65-5.08-5-.2-.94-.37-1.88-.55-2.81a4.9,4.9,0,0,0-3.72-1.47c-1.09,0-2.29.87-3.34-.15.13-.31.15-.52.22-.53a47.11,47.11,0,0,1,5.55-1.33,6.16,6.16,0,0,0,4.68-2.83c2.88-4.14,7.23-6.17,11.91-7.51,2.52-.72,3.36-.23,5,2.23.45.68,1,1.31,1.46,2a9.76,9.76,0,0,1-5.15,5.63c-1.86.86-3.72,1.72-5.62,2.46a30.6,30.6,0,0,1-3.55,1c-1,.26-1.86.6-2,1.76a2.63,2.63,0,0,0,1.9,2.83,12,12,0,0,0,7.66.36C680.63,266.07,682.47,265.54,684.68,264.92Z"/><path d="M548.73,251.4c-2.52.27-4.11,1.35-4.36,3.75-.32,3.12-.48,6.26-.66,9.4-.06,1.09.18,2.2,0,3.27a2.27,2.27,0,0,1-1.1,1.52,1.68,1.68,0,0,1-2.21-.5,12.72,12.72,0,0,1-1.51-3.74,31.86,31.86,0,0,1-.24-4.9c0-1.49,0-3,0-4.16-1.53-2-3.69-.75-5.37-2,.19-.41.26-1,.6-1.27a16,16,0,0,1,3.21-1.79,4.49,4.49,0,0,0,3.1-4.36c.09-1.36.3-2.72.48-4.07A8.61,8.61,0,0,1,541,241a3.25,3.25,0,0,1,3.14-2.15,2.74,2.74,0,0,1,2.22,2.61c.16,1.2.18,2.42.27,3.6,2.75.44,3.3.17,3.53-1.84.15-1.22.1-2.46.23-3.68a2.12,2.12,0,0,1,2-2.16,2.29,2.29,0,0,1,2.39,1.84,26.33,26.33,0,0,1,.49,4.85,36.2,36.2,0,0,1-.41,4.36c1,.69,1.36-.15,1.79-.52,2.27-1.91,5.94-.52,6.86,2a19.75,19.75,0,0,1,1.34,5.12c.32,4.09.36,8.2.51,12.3a2.31,2.31,0,0,1-.07,1.21A3.64,3.64,0,0,1,564,269.9a1.24,1.24,0,0,1-1.69-.72,16.71,16.71,0,0,1-1.15-3.89c-.38-3-.53-6-.85-9a23.47,23.47,0,0,0-.72-2.9,5.73,5.73,0,0,0-3.45,4q-1.68,5-3.38,10.1c-.21.13-.42.37-.66.41-3,.51-3.49.23-3.78-2.54a35,35,0,0,1,0-5.32c.1-2.19.37-4.36.52-6.55A16.07,16.07,0,0,0,548.73,251.4Z"/><path d="M791.46,275.2c-.26.32-.45.75-.78.94-3.9,2.19-7.95,3.63-12.51,2.38a6.32,6.32,0,0,1-5-5.35c-1.06-6.82,2.5-15.28,9.82-18.68,2.7-1.25,7.56,0,8.84,3,.58,1.35,1.17,2.68,1.8,4.1,1.6-.54,2.31-1.79,3.36-2.61a22.57,22.57,0,0,1,4.34-3,5.12,5.12,0,0,1,6.32,1.21,8.65,8.65,0,0,1,2.67,6.19,18.69,18.69,0,0,1-2.27,9.89c-2.16,3.77-5.2,6.3-9.9,6.09a6,6,0,0,1-4.42-1.78c-.75-.79-1.59-1.5-2.38-2.26,0-3.52,0-7-.05-10.7-2.42-1.26-2.73-4.52-5.1-6.12a16.94,16.94,0,0,0-8.4,12.11c-.58,2.92.66,4.68,3.59,5.44a10,10,0,0,0,4.86.11C788,275.76,789.72,275.52,791.46,275.2Zm11.29-14.64a38,38,0,0,0-3.23,2.37,11.53,11.53,0,0,0-3.71,7.13,5.26,5.26,0,0,0,1.05,4.26,2.9,2.9,0,0,0,4,.81,5.14,5.14,0,0,0,1.31-1,17.92,17.92,0,0,0,4.39-9.11,9.33,9.33,0,0,0-.4-2.51C804.21,263.39,803.72,261.92,802.75,260.56Z"/><path d="M828.44,263.64a9,9,0,0,1,7.18-1.7,5.17,5.17,0,0,1,4.33,3.34,14.33,14.33,0,0,1,1.09,4.35c.14,4.1.09,8.21,0,12.31,0,2.14-.49,2.42-3.29,2.79a18.9,18.9,0,0,1-.61-2.68c-.26-3.55-.39-7.11-.69-10.66a6.71,6.71,0,0,0-1-3,2.69,2.69,0,0,0-2.1-.86c-.44,0-1.1.82-1.24,1.38a24.86,24.86,0,0,0-.56,4c-.1,1.37,0,2.74-.07,4.11-.1,3.06-1.72,5-4.53,6.31a6.89,6.89,0,0,1-1.38-5.87c.19-1.35.55-2.68.79-4a5.52,5.52,0,0,0-1.41-4.55c-1.35-1.71-1.9-2-4.56-2.37-.85,2.28.17,4.56.06,6.83s-.22,4.62-.33,6.85a5.05,5.05,0,0,1-4.34.81,12,12,0,0,1-.88-2.51,17,17,0,0,1-.13-4.5c.58-3.76-.13-7.36-.95-11a11.07,11.07,0,0,1-.28-1.61c-.08-1.34,1.45-2.54,2.47-1.76,1.57,1.19,3.14,1.1,4.94,1a11.8,11.8,0,0,1,4.3,1.11A23.42,23.42,0,0,1,828.44,263.64Z"/><path d="M752.3,320.05a15.51,15.51,0,0,0-1.12,2.61c-.79,3.61-1.47,7.24-2.21,10.86a8,8,0,0,1-.59,2A2.59,2.59,0,0,1,746.1,337a2.08,2.08,0,0,1-2.21-2,6.54,6.54,0,0,1,.24-2,39.46,39.46,0,0,0,1.54-12.17c0-2.17.62-3.71,2.87-4.36a5.37,5.37,0,0,0,1.63-1.19c2.16-1.83,4.08-1.81,6.06.13.78.76,1.45,1.62,2.32,2.62a7.74,7.74,0,0,0,1.72-.89c1-.9,2.21-1,3.38-1.35a2.57,2.57,0,0,1,2.92,1c2.32,3,3.86,6.28,2.9,10.24-.61,2.52-1.21,5.05-1.88,7.57a28.32,28.32,0,0,1-1.09,3.09c-.28.68-.87,1.27-1.57.94a2.08,2.08,0,0,1-1.09-1.51c0-1.62.34-3.24.53-4.87.26-2.3.54-4.61.74-6.92a3.74,3.74,0,0,0-.22-2,3.52,3.52,0,0,0-1.68-1.6,2,2,0,0,0-1.67.85,8.33,8.33,0,0,0-1,3c-.34,2.43-.37,4.92-.79,7.34a20.66,20.66,0,0,1-1.6,4.61,2.22,2.22,0,0,1-2.47,1.07,2,2,0,0,1-1.68-2c.11-2.46.33-4.91.59-7.36.16-1.49.61-3,.7-4.45A4.38,4.38,0,0,0,752.3,320.05Z"/><path d="M851.81,320.1c2.1.78,2.5,2.15,2,4-1.19,4.07-2.43,8.13-4.71,11.74a25.57,25.57,0,0,0-2.6,6c-.72,2.21-1.48,4.41-2.35,6.55-2.42,5.95-4.68,11.95-5.77,18.32a18.46,18.46,0,0,1-.82,3.17,8,8,0,0,1-1.17,2.12,1.54,1.54,0,0,1-2.83-.57,6.31,6.31,0,0,1-.26-2.79,55.15,55.15,0,0,1,1.48-7.23c1.13-3.79,2.5-7.52,3.76-11.28.82-2.44,1.61-4.9,2.44-7.43-.69-.55-1.17-1-1.73-1.37a6.11,6.11,0,0,1-2.64-4,33.71,33.71,0,0,1-.85-5.26c-.13-2.59,0-5.19,0-7.79a3.7,3.7,0,0,1,.48-1.94,2.7,2.7,0,0,1,1.66-1,1.55,1.55,0,0,1,1.24.85,18.43,18.43,0,0,1,1.07,3.91c.24,1.9.25,3.82.37,5.73a20.06,20.06,0,0,0,.19,2.46c.18.91.23,2.1,1.32,2.33,1.42.31,1.82-1,2.23-2,1.4-3.26,2.72-6.56,4-9.86C849.09,323,849.78,321.25,851.81,320.1Z"/><path d="M679.05,388.12a2,2,0,0,0,2.33-1.67c.85-2.88,1.73-5.76,2.36-8.69a11.68,11.68,0,0,1,2.32-5.18,1.68,1.68,0,0,1,3,.39,3.55,3.55,0,0,1,.55,2.71c-.73,3.05-1.1,6.16-2.13,9.18-1.46,4.26-2.36,8.7-3.55,13.06-1.44,5.28-2.88,10.55-4.4,15.8a5.72,5.72,0,0,1-3.85,3.72,6.72,6.72,0,0,1-.88-1.76,19.19,19.19,0,0,1,1-7.28c.83-3.17,1.73-6.33,2.54-9.52.37-1.44.57-2.92.89-4.58-4.23-.89-5.58-3.89-5.71-7.54a85.28,85.28,0,0,1,.35-8.6,6.72,6.72,0,0,1,1.91-4,2.08,2.08,0,0,1,2.21-.73,1.72,1.72,0,0,1,1.24,1.9c-.1,2.32-.3,4.64-.46,7A14.72,14.72,0,0,0,679.05,388.12Z"/><path d="M510.16,310.67c3.44-2.68,5.91-5.73,10.06-3.79,1.73,2,2,4.3,1.68,6.88-.52,4.2-.87,8.43-1.17,12.65-.17,2.42-.1,4.85-.14,7.63a5.73,5.73,0,0,1-1.45.66c-2.28.46-3.08,0-3.21-2.37a57.12,57.12,0,0,1,.11-8.17c.23-2.58.91-5.11,1.23-7.69a39.35,39.35,0,0,0,0-4.78,8.26,8.26,0,0,0-2.32.61,25.27,25.27,0,0,0-2.81,2.38,7.82,7.82,0,0,0-2.76,6.14c0,3.27-.14,6.54-.22,9.86a11.94,11.94,0,0,1-1.47.87c-1.7.69-2.54.28-3-1.49a7,7,0,0,1-.37-2c.11-4-.2-8,.54-11.86,1-5.17,1-10.32,1.12-15.5,0-1.1,0-2.19.09-3.28a3.17,3.17,0,0,1,1.72-2.63,1.48,1.48,0,0,1,2,.74,11.24,11.24,0,0,1,.33,2,25,25,0,0,0,.38,4.08,4.93,4.93,0,0,1-.16,3.93,3.82,3.82,0,0,0-.23,1.6C510.13,308.06,510.16,309,510.16,310.67Z"/><path d="M850.93,279.9a32.67,32.67,0,0,0-.63,10.1,28.05,28.05,0,0,1,0,4.49,2.6,2.6,0,0,1-1,1.64c-1.47,1.08-3.17.52-3.45-1.24a61.9,61.9,0,0,1-.86-8.14,100,100,0,0,1,.54-15.95,11.4,11.4,0,0,0-.43-5.63c-.89-2.47,1.14-5.37,3.78-5.69a17.11,17.11,0,0,1,8.09.74A8.06,8.06,0,0,1,860.46,273c-1.21,1.48-2.51,2.89-3.81,4.28C855.19,278.85,853.23,279.46,850.93,279.9Zm1.26-14.85c-.32,3.57-1.42,6.78-.86,10.31,1.87,0,3-1,4-2.06,1.42-1.35,2.78-2.86,2.19-5S855,265.27,852.19,265.05Z"/><path d="M581.86,331.19a21.26,21.26,0,0,1-8.14,4.35c-4.08,1.18-5.66,0-5.66-4.23,0-3.72,1.56-6.94,3.43-10a68.41,68.41,0,0,1,4.48-5.87,6.5,6.5,0,0,1,.86-.88c3.14-2.67,4.57-2.65,7.74.08a15.74,15.74,0,0,1,1.18,1.13c.55.6,1.06,1.23,1.75,2a33.11,33.11,0,0,1-.76,5.13,14.94,14.94,0,0,0,0,6.91c.56,3.16,1.83,4,5.12,3.88l2.06-.15a7.63,7.63,0,0,1-1.17,1.86,9.79,9.79,0,0,1-2.47,1.42c-2.74,1.06-4.72.44-6.39-2C583.22,333.87,582.71,332.75,581.86,331.19Zm-2-12.61a24.26,24.26,0,0,0-6.48,9.63c-.45,1.06-1.37,2.14-.41,3.4,5-1.12,6.53-2.76,7.15-7.53.14-1.08.31-2.17.35-3.26A10.63,10.63,0,0,0,579.89,318.58Z"/><path d="M506.48,271.53a29.6,29.6,0,0,1-3.15,1,1.73,1.73,0,0,1-1.95-1.17c-.39-1-.69-2-1.14-3.32-.81.48-1.34.82-1.89,1.12a10.84,10.84,0,0,1-5.52,1.33c-2.82,0-4-.88-4.52-3.69a12.93,12.93,0,0,1-.14-4.07,28.28,28.28,0,0,1,6.1-14.14,10.21,10.21,0,0,1,5-3.37,3.7,3.7,0,0,1,4.39,1.23c2.84,3.4,3.49,7.33,2.66,11.57-.27,1.34-.77,2.63-1.08,4C504.51,265.06,504.2,268.15,506.48,271.53ZM501.34,253c-.13-.79-.2-1.33-.32-1.85a1.12,1.12,0,0,0-1.65-.59,3.42,3.42,0,0,0-.63.49,24.11,24.11,0,0,0-5.91,13.22,6.86,6.86,0,0,0,.19,2,1.24,1.24,0,0,0,1.69.6,3.11,3.11,0,0,0,.66-.46C499,262.61,500.35,257.81,501.34,253Z"/><path d="M879.24,277a15.3,15.3,0,0,0-2,1.26c-2.62,2.37-5.8,2.91-9.15,2.8a4.09,4.09,0,0,1-4.19-4.15,5.73,5.73,0,0,1,.15-2c2-6.44,5.48-11.58,12-14.09a5.64,5.64,0,0,1,6.7,1.46,9.62,9.62,0,0,1,3,7.36,6.37,6.37,0,0,1-.8,3.09c-1.61,2.51-1.59,5.16-1.12,7.91a10.27,10.27,0,0,1,.4,2.82,2,2,0,0,1-1.24,1.4,1.87,1.87,0,0,1-1.67-.7,41.7,41.7,0,0,1-1.23-4.31C879.9,279,879.6,278.1,879.24,277Zm-8.87.86a18.53,18.53,0,0,0,2.41-1.12,19.14,19.14,0,0,0,6.09-6.5,12.82,12.82,0,0,0,1.16-3,1.66,1.66,0,0,0-.37-1.44,4.06,4.06,0,0,0-1.87-.35,1.26,1.26,0,0,0-.73.34,24.11,24.11,0,0,0-7.61,9.43,1.79,1.79,0,0,0-.23,1.17A8,8,0,0,0,870.37,277.85Z"/><path d="M532.72,387.45c3.6-2.11,5.43-4.63,6.13-8,.61-2.94,1.31-5.86,2-8.78a3,3,0,0,1,2.33-2.47,16.22,16.22,0,0,0,1.32,1.07c.54.36,1.14.64,1.81,1a69.57,69.57,0,0,1-1.75,8.87,16.33,16.33,0,0,0-.68,4.82c0,2.18.65,4.07,3.28,4.44a1.16,1.16,0,0,1,.68.88,1.29,1.29,0,0,1-.6,1,15.26,15.26,0,0,1-1.94.66c-2,.72-3.75.38-5-1.54a6.89,6.89,0,0,0-1.08-1c-1,.56-2,1.19-3.1,1.73a30.51,30.51,0,0,1-3,1.34c-2.6,1-4.18.37-5.27-2.11a17.16,17.16,0,0,1-1-8.87c.35-3.26.91-6.5,1.48-9.72a10.86,10.86,0,0,1,1.14-3,2.4,2.4,0,0,1,2.79-1.2,2.32,2.32,0,0,1,1.6,2.56,66,66,0,0,1-1.2,6.86,25.11,25.11,0,0,0-.82,8.53A20.53,20.53,0,0,0,532.72,387.45Z"/><path d="M664.18,370.15A26.49,26.49,0,0,1,667,371.6a4.44,4.44,0,0,1,2.16,4.17A29.94,29.94,0,0,1,668,383c-1.15,3.25-1.23,6.1,1,8.84a1.93,1.93,0,0,1,.24.77,1.19,1.19,0,0,1-.08.4c-2.79,1.06-3,1-6.06-2.58-.78.24-1.67.5-2.54.8a32.62,32.62,0,0,1-4.24,1.45c-4.62.91-7.69-2-7.21-6.76a16.81,16.81,0,0,1,3.32-7.84A19,19,0,0,1,664.18,370.15Zm-.54,5.44a8.22,8.22,0,0,0-2.16.68,19.46,19.46,0,0,0-6.9,8.84,6.05,6.05,0,0,0-.28,2,1.68,1.68,0,0,0,1.84,1.72c2.17-.05,5.07-2,5.48-4.18s1.57-4.32,2.11-6.54A10.11,10.11,0,0,0,663.64,375.59Z"/><path d="M447.22,385.9c.12-1.78,1.26-2.08,2.2-2.56a46.8,46.8,0,0,0,4.71-2.47,8.37,8.37,0,0,0,2.42-2.7,4.23,4.23,0,0,0,.17-2.34,1.15,1.15,0,0,0-1.62-.71,6.69,6.69,0,0,0-1.88,1.55c-2,3-5.24,4.3-8.19,6a1.6,1.6,0,0,1-2.34-.94,11.49,11.49,0,0,1-.75-4c.16-3.14.49-6.28,1-9.38s1.18-6.18,1.85-9.25a5.85,5.85,0,0,1,1-2.22,1.73,1.73,0,0,1,2.15-.74,2.55,2.55,0,0,1,1.19,1.53,8.17,8.17,0,0,1-.08,2.83c-.37,2.16-.93,4.29-1.28,6.45-.39,2.43-.67,4.88-.93,7.32a6.87,6.87,0,0,0,.43,1.85,14.81,14.81,0,0,0,1.79-1.38c1-1.12,1.9-2.34,2.92-3.45a5.08,5.08,0,0,1,6-1.29,6.21,6.21,0,0,1,3,9.47,16.69,16.69,0,0,1-6.74,5.86A9,9,0,0,1,447.22,385.9Z"/><path d="M495.74,309.16c1.22,1.44,2.74,3,4,4.75a4.89,4.89,0,0,1,.63,4.68,11.43,11.43,0,0,0-.42,1.16c-1,3.65-1.34,7.23,1.23,10.38-2.12,2.07-3.75,2.08-5.08.1-.67-1-1.22-2.07-1.89-3.24a10.15,10.15,0,0,0-1.94,1c-2,1.78-4.54,2.49-7,3.21-2.65.78-4.3-.15-4.91-2.79a7.11,7.11,0,0,1-.12-4c2.83-6.86,6.89-12.69,14.34-15.25A5.35,5.35,0,0,1,495.74,309.16ZM485.06,326.4c.5.23.88.56,1.19.51a10.47,10.47,0,0,0,5.17-3.1,11.49,11.49,0,0,0,2.79-3.91,5.89,5.89,0,0,0,.1-4.73,2.75,2.75,0,0,0-.82-.21,2.26,2.26,0,0,0-1.14.36C489,318.34,486.25,321.81,485.06,326.4Z"/><path d="M546.21,332.54c-2.2,1.62-3.5,1.57-4.71-.23-.53-.78-1-1.63-1.55-2.67l-2.2,1.05a43.94,43.94,0,0,1-5.23,2.3c-2.54.77-4.27-.2-5.16-2.67a6.74,6.74,0,0,1-.46-2.79,23.83,23.83,0,0,1,7.32-15.18,8.71,8.71,0,0,1,5.65-2.12,2.26,2.26,0,0,1,1.5.49c1.44,1.25,2.82,2.58,4.18,3.91a3.77,3.77,0,0,1,.93,3.81,17.33,17.33,0,0,1-.8,2.75,11.49,11.49,0,0,0,.55,11C546.29,332.25,546.22,332.41,546.21,332.54Zm-13.72-3.46c3.3-.4,5.48-2.46,7.1-5.28a1.67,1.67,0,0,0,.19-.79c0-1.92.11-3.84,0-5.74a2.09,2.09,0,0,0-1.12-1.52,2.22,2.22,0,0,0-1.82.55,17.13,17.13,0,0,0-5.13,9.16A3.42,3.42,0,0,0,532.49,329.08Z"/><path d="M728.83,370l-2-.5c-2.58,2.81-3.43,5-3.63,9.55.5.68,1.19.48,1.85.35s1.32-.35,2-.42a2.11,2.11,0,0,1,2.18,1.51,1.88,1.88,0,0,1-1,2.41,17.63,17.63,0,0,1-2.7.94,6.43,6.43,0,0,0-3.86,2.16c0,1.42-.07,3.18,0,4.94s.33,3.51.52,5.3c-2.28,1.69-3.77,1.44-4.63-.89a28.33,28.33,0,0,1-.86-3.16,4.23,4.23,0,0,1-.13-1.22c.27-3.19-2.05-6.32-.2-9.54.15-3.18,1.5-6.08,2.22-9.12.91-3.82,3.43-6.8,5.2-10.17a3.71,3.71,0,0,1,1.13-1.17c2-1.47,4.51-1.18,5.34,1.92C730.9,365.29,730.36,367.53,728.83,370Z"/><path d="M830.38,395a6.26,6.26,0,0,1-3.45,3.22,23.72,23.72,0,0,1-12.81,2,3.19,3.19,0,0,1-2-1.19c-1.56-2.1-2.21-4.49-1-6.94a36.64,36.64,0,0,1,3.43-5.58,24.49,24.49,0,0,1,8.19-7.32,10.6,10.6,0,0,1,2.65-1.07,4.28,4.28,0,0,1,2.38.21,4.94,4.94,0,0,1,2.51,6.47c-2,4.83-5.84,7.4-10.7,8.67-.92.25-1.93.15-2.83.42-.38.11-.71.76-.82,1.22a1.25,1.25,0,0,0,.55,1,6.08,6.08,0,0,0,5.15.42c1.83-.56,3.65-1.17,5.49-1.68a11.55,11.55,0,0,1,2.43-.31C829.77,394.52,830,394.78,830.38,395Zm-5.67-10.94c-2.36,1.18-2.24,1.41-3.3,3.53C822.89,386.92,824.16,386.28,824.71,384.08Z"/><path d="M614.72,382.6a13.12,13.12,0,0,1-.27,1.68c-1.5,5-4.45,8.42-9.78,9.39a11.76,11.76,0,0,0-1.21.23c-4.45,1.26-6.47-1.31-7.38-5a12.25,12.25,0,0,1,.16-6.1,32,32,0,0,1,6.59-12.63,24.28,24.28,0,0,1,2.4-2.24,3,3,0,0,1,3.07-.57c.55.2,1.36.94,1.31,1.32a4.37,4.37,0,0,0,1.48,4,6.16,6.16,0,0,1,1,2.2c.77,2,1.5,4.1,2.22,6.16A13.6,13.6,0,0,1,614.72,382.6Zm-8.54-8.47a20.76,20.76,0,0,0-4.52,6.93,11.89,11.89,0,0,0-.91,6,5.84,5.84,0,0,0,.86,2.25,1.84,1.84,0,0,0,2.54.56c5.26-3.35,6.4-8,4.19-13.49C608,375.62,607.11,375.08,606.18,374.13Z"/><path d="M792.15,324.88c-.32,4-1.25,7.64-4.3,10.4-1,.92-2,1.91-3,2.82a12.58,12.58,0,0,1-7.48,3,4.82,4.82,0,0,1-5.24-3.08,8.86,8.86,0,0,1-.7-4,23.46,23.46,0,0,1,7.79-15.77,7.43,7.43,0,0,1,4.74-2.2,8.22,8.22,0,0,1,7.69,5.67A28,28,0,0,1,792.15,324.88Zm-9.24-3.19a22.81,22.81,0,0,0-6.8,10.77c-.42,1.28-.54,2.88.7,3.83s3,.43,4.24-.36a14.83,14.83,0,0,0,6.33-7.34c.79-2.07,1.07-4.26-.46-6.14Z"/><path d="M636.47,389c-1.33,4.38-1.17,8.52-1.75,12.56-.11.8-.12,1.63-.26,2.43a1.49,1.49,0,0,1-1.4,1.27c-.84.1-1.79,0-2.09-.85a16.44,16.44,0,0,1-.83-4,55,55,0,0,1,.89-12.22c.58-3.64,1.24-7.26,1.88-10.89a8,8,0,0,1,2.42-5.06,4.19,4.19,0,0,1,4.87-.77c3.1,1.37,5.22,3.4,5.73,6.87a4.55,4.55,0,0,1-1.14,4.16c-.77.77-1.5,1.58-2.23,2.4C640.92,386.82,639.12,388.46,636.47,389Zm1.44-6.43c2.59-.82,3.31-1.66,2.84-3.48a1.69,1.69,0,0,0-1-1.08,1.52,1.52,0,0,0-1.25.67A4.73,4.73,0,0,0,637.91,382.6Z"/><path d="M633.32,323c.4-1.6.75-2.64.91-3.71a9.26,9.26,0,0,0,0-2.83,1.88,1.88,0,0,0-2.82-1.39,9.46,9.46,0,0,0-4,3.44c-1.4,2.42-1.35,4,.57,5.94,1.43,1.46,3.07,2.72,4.6,4.09.92.82,1.85,1.62,2.69,2.51a5.48,5.48,0,0,1,1,1.74,2.49,2.49,0,0,1-1.1,3.2c-4.75,2.75-9.17,1.77-12.92-1.38a4.4,4.4,0,0,1-1.48-3.69c0-.44.46-.87.81-1.47,2.34,1.67,4.15,4,7.61,3.53a5.25,5.25,0,0,0-.74-1.44c-.91-.83-1.93-1.53-2.85-2.35C620.6,324.65,620.33,319,625,314a40.06,40.06,0,0,1,3.28-3.1c1.56-1.35,3.5-1.44,5.43-1.42a2.62,2.62,0,0,1,1.16.39c3.87,2.17,4.76,6.48,2.12,10.2a27.87,27.87,0,0,1-2,2.58C634.74,322.9,634.22,322.82,633.32,323Z"/><path d="M462.39,269.31c-3.74.05-5.62-1.29-6.3-4.25a10,10,0,0,1-.27-3.65,20.88,20.88,0,0,1,8.12-14.23,10.38,10.38,0,0,1,2.49-1.41,3.6,3.6,0,0,1,5.16,2.95,5.82,5.82,0,0,0,1.66,4,5.06,5.06,0,0,1,.89,1.8c1.86,4.38-1.48,11.65-5.7,13.14C466.23,268.47,464.12,269.39,462.39,269.31Zm7.32-11.46c-.11-.66-.19-1.34-.32-2a3.33,3.33,0,0,0-2.53-2.89,3.12,3.12,0,0,0-3.73,1.8,42.37,42.37,0,0,0-2.51,6c-.44,1.38-.82,3.1.74,4.09,1.3.84,2.68.11,3.84-.57C467.64,262.83,469.46,260.89,469.71,257.85Z"/><path d="M559.34,320a28.73,28.73,0,0,0-1.24,3.3c-.7,3.06-1.37,6.12-1.93,9.21a3.75,3.75,0,0,1-2.4,3.05,1.8,1.8,0,0,1-2.37-1,10.73,10.73,0,0,1-.57-2.79q-.36-7.77-.6-15.56c0-1.42.26-2.75,2.15-3.25l2.42,1.92c.23,0,.58,0,.71-.15a3.89,3.89,0,0,1,4.39-1.29,4.81,4.81,0,0,1,3.55,3.64,66.47,66.47,0,0,1,1,6.89c.26,2.71.33,5.45.55,8.17a6.75,6.75,0,0,1-1.37,4.6,1.93,1.93,0,0,1-1.42.5,1.2,1.2,0,0,1-.84-.77,34.34,34.34,0,0,1-.46-3.65c-.27-3.27-.47-6.54-.77-9.81A23.35,23.35,0,0,0,559.34,320Z"/><path d="M908.59,330.39a31.07,31.07,0,0,1-1,3.88c-1.35,3.78-4.22,6.39-7.34,8.63a9.83,9.83,0,0,1-6.7,1.49,4.18,4.18,0,0,1-3.29-2.15,6.78,6.78,0,0,1-.84-5.54c1.8-6.68,5.21-12.31,11.17-16.12,1.86-1.19,2.27-1.06,3.7.75.94,1.18,1.81,2.41,2.79,3.55C908.27,326.23,908.56,327.8,908.59,330.39Zm-14.29,7.34c0,2,1,2.62,2.43,1.88a19.62,19.62,0,0,0,5.19-4.55c2-2.14,2.06-4.63,1.43-7.26a1.72,1.72,0,0,0-1.71-1.47,2.56,2.56,0,0,0-1.79.67,34.63,34.63,0,0,0-5.28,9.15A6.16,6.16,0,0,0,894.3,337.73Z"/><path d="M859.66,384.58c-.62,5-1.74,9.91-1.34,14.88-.27.31-.4.62-.62.7-2.82,1.13-4.25.5-4.52-2.38a60.2,60.2,0,0,1,.12-7.35c0-.81.18-1.62.18-2.44a5,5,0,0,0-.39-1.27l-3.24-1.31a1.67,1.67,0,0,1,.8-2.48,12.45,12.45,0,0,1,1.88-.79,2.62,2.62,0,0,0,1.85-2.43c.57-3.64,1.19-7.27,1.81-10.91a12.16,12.16,0,0,1,.43-2,2.93,2.93,0,0,1,2.4-2,2.21,2.21,0,0,1,2.73,1.8,15.46,15.46,0,0,1-.08,3.26c-.21,1.9-.56,3.78-.79,5.68a7.85,7.85,0,0,0,.15,1.61,20.06,20.06,0,0,1,3.24-.95,2,2,0,0,1,2,3,5.2,5.2,0,0,1-1.54,1.85C863.26,382.21,861.65,383.23,859.66,384.58Z"/><path d="M862.07,396.74c-.19-2.48,1-4.54,2.22-6.49a40.16,40.16,0,0,1,7.94-9.85,19,19,0,0,1,4.08-2.68,2.16,2.16,0,0,1,3.15,2,12.71,12.71,0,0,0,1.14,5.52c1.44,4,.13,7.53-2.24,10.75-2.79,3.81-6.83,5.35-11.31,5.8C864.1,402.12,862.06,399.91,862.07,396.74Zm13.25-11.93c-.64.35-1.1.45-1.32.74-1.67,2.15-3.35,4.28-4.9,6.51a12.54,12.54,0,0,0-1.58,3.3,2.45,2.45,0,0,0,.29,1.88c.5.76,1.41.7,2.22.44a2.32,2.32,0,0,0,1.05-.59,50.69,50.69,0,0,0,4.16-5C876.49,390.19,876.39,387.83,875.32,384.81Z"/><path d="M659.75,257.89a17.33,17.33,0,0,1,.38-2c.88-2.68-.23-4.82-1.85-6.8a2.12,2.12,0,0,0-3.26-.33,17,17,0,0,0-4.31,5.43,7.86,7.86,0,0,0,.5,7.84,17.44,17.44,0,0,0,5.25,5.12,14.08,14.08,0,0,1,2.15,1.85,1.34,1.34,0,0,1-.51,2.07c-.87.33-2,.87-2.72.62-3.1-1-6.33-1.82-8.91-4-1-.88-1.67-1.87-.77-3.19a2.89,2.89,0,0,0,0-2.75,13.92,13.92,0,0,1,.87-11.13,11,11,0,0,1,4.64-5c.6-.33,1.22-.62,1.83-.94,1.32-.7,2.57-1.59,4.23-1,1.84.65,3.6,1.37,4.7,3.1a23,23,0,0,1,1.67,2.82c1.41,3.14.56,6.15-2.32,8.31C661.1,258.05,660.6,257.89,659.75,257.89Z"/><path d="M995.43,264c1.2.26,2.12.43,3,.67a10.06,10.06,0,0,1,1.92.71c.6.31,1.25.79.92,1.56a1.88,1.88,0,0,1-1.22.89,16.53,16.53,0,0,1-2.45.16l-2.23.16a17,17,0,0,0-.56,2.75c-.15,4.64-.45,9.29.26,13.92a10.18,10.18,0,0,1,.09,1.23c.07,2.42-.55,2.95-3.79,3.05a27.09,27.09,0,0,1-1.68-9.52c-.14-6.69-.5-13.4.44-20.07.4-2.84.64-5.71,1.21-8.51a13.2,13.2,0,0,1,1.84-4c1.06-1.7,2.88-1.05,3.57.39a4.4,4.4,0,0,1,.33,2.36c-.35,3-.76,6-1.28,8.93A34.55,34.55,0,0,0,995.43,264Z"/><path d="M746.26,381.71a13.33,13.33,0,0,1-4.53,10.62c-1.1,1-2.17,2.09-3.32,3.06a11.76,11.76,0,0,1-7.64,2.56,2.86,2.86,0,0,1-3-2.26,9.62,9.62,0,0,1,.88-7.93,35.85,35.85,0,0,1,9.57-11.66,15.39,15.39,0,0,1,3.15-1.91c2.12-.92,3.83,0,4.36,2.22a19.79,19.79,0,0,1,.37,2.43C746.16,379.8,746.2,380.75,746.26,381.71Zm-4.26-1.2c-.37-.06-.52-.13-.63-.09a4.48,4.48,0,0,0-1.09.49,25.66,25.66,0,0,0-7.06,8.92,10.66,10.66,0,0,0-.83,2.73,1.33,1.33,0,0,0,.41,1.05,1.27,1.27,0,0,0,1.1.2,5.93,5.93,0,0,0,1.73-1.06,20.46,20.46,0,0,0,6.13-9.51A13.08,13.08,0,0,0,742,380.51Z"/><path d="M442.15,245.63c.37-1.4.34-2.36.8-2.8a24.36,24.36,0,0,1,3.9-3c3.13-1.95,6.7-2.27,10.27-2.4a2.22,2.22,0,0,1,2.49,2.16,2.61,2.61,0,0,1-2.3,2.91,19.08,19.08,0,0,1-2.72,0c-1.69,1.6-1.81,3.5-1.82,5.43q0,10.89-.11,21.77v3.69a6.56,6.56,0,0,1-1.59.78c-2,.3-3-.31-3.14-2.18-.23-2.86-.35-5.74-.39-8.61-.07-4.79,0-9.59-.05-14.38,0-1,0-1.92-.1-2.87a1.43,1.43,0,0,0-1.69-1.37C444.78,245,443.87,245.23,442.15,245.63Z"/><path d="M814.76,325.88c1.32-1.21,2.65-2.34,3.9-3.57a11.28,11.28,0,0,1,8.86-3.48,8,8,0,0,1,2.38.46c4,1.5,4.59,4.57,1.46,7.51a14.86,14.86,0,0,1-7.6,3.75c-1.2.22-2.42.37-3.5.54a2.39,2.39,0,0,0-.45,3.11,3.46,3.46,0,0,0,2.55,1.89,15.64,15.64,0,0,0,6.5.08c1.42-.35,2.89-.52,4.92-.87-.5.9-.62,1.42-.94,1.66-4,3-8.61,3.26-13.3,2.38-3-.57-5.06-3.51-5.06-7.06C814.48,330.1,814.66,327.93,814.76,325.88Zm7.24,0a7.83,7.83,0,0,0,6.39-2.36c-1-.45-1.75-1-2.38-1C824.29,322.72,823.19,323.86,822,325.89Z"/><path d="M797.64,317.54a15.32,15.32,0,0,0,3.33,0c3.15-.73,4.95,1.14,6.37,3.36a13.33,13.33,0,0,1,1.93,4.92,34.17,34.17,0,0,1-.4,12.22,4.62,4.62,0,0,1-1.31,2,1.32,1.32,0,0,1-2.28-.55,24.57,24.57,0,0,1-.16-4c0-2.58.2-5.17.11-7.75a4.53,4.53,0,0,0-2.49-4,1.22,1.22,0,0,0-1.68.63c-.19.79-.27,1.6-.41,2.4-.7,4-1.39,8.07-2.11,12.09a2.87,2.87,0,0,1-2.64,2.69,1.84,1.84,0,0,1-2.07-1.52,6.9,6.9,0,0,1,0-2,79.26,79.26,0,0,0,1.75-16.25A4.81,4.81,0,0,1,797.64,317.54Z"/><path d="M610.9,261.44a3.72,3.72,0,0,0-.78,3.3,2.56,2.56,0,0,0,2.2,2.15c2.83.33,5.69,1.11,8.31-.82.28-.2.78-.13,1.13-.17.8.68.47,1.29-.1,1.73-3.2,2.47-7,3.09-10.87,3.08a5.34,5.34,0,0,1-5.46-4.13,9.83,9.83,0,0,1,.14-7.2,20.22,20.22,0,0,1,8-9.62,10.5,10.5,0,0,1,1.82-.95,5.07,5.07,0,0,1,7.11,3.41,3.64,3.64,0,0,1-1.17,4.11,30.11,30.11,0,0,1-5.12,3.32A39.34,39.34,0,0,1,610.9,261.44Zm6.33-7.64c-.31-.22-.53-.47-.68-.44a1,1,0,0,0-.56.5c0,.11.18.36.29.54Z"/><path d="M569.42,262.55a21.59,21.59,0,0,1,3.7-11.55c1.27-1.88,3-3.64,5.42-4.07,6.15-1.05,9,3.53,8.79,8a31.1,31.1,0,0,1-.86,5.66c-1.23,5.38-7.53,9.76-13,9.13a3.34,3.34,0,0,1-2.41-1.38A9,9,0,0,1,569.42,262.55Zm13.82-7.89a15.68,15.68,0,0,0-1-3.06,2.06,2.06,0,0,0-3.45-.2c-2,2.92-3.87,6-4.46,9.54a10.56,10.56,0,0,0,.15,3.63,1.79,1.79,0,0,0,2.87,1.15C580.58,263.07,583.23,260,583.24,254.66Z"/><path d="M590.83,377.34a46,46,0,0,0,.5,14.75c-2.59,1.31-3.84,1.06-4.65-1.08a23.15,23.15,0,0,1-1-4.37c-.24-1.49-.25-3-.48-4.49s-.64-3.16-1-5.08c1.12-1.55,1.46-3.65,1.69-5.86.4-3.81,1.07-7.59,1.71-11.37a2.81,2.81,0,0,1,2.87-2.45,2,2,0,0,1,2.34,1.8,25.91,25.91,0,0,1-.32,4.48c-.28,2-.71,4.05-1,6.08a11,11,0,0,0,.15,2.16c1.29-.45,2.28-.88,3.3-1.15,1.7-.46,2.8-.12,3.27.86.59,1.25.08,2.31-1.65,3.16S593,376.36,590.83,377.34Z"/><path d="M878,328.81l-2.86-.79c0-.49-.11-.86,0-1,1.19-1.28,2.44-2.53,4-4.1.51-2.34,1.06-5.15,1.76-7.92a5.27,5.27,0,0,1,1.38-2.4,3,3,0,0,1,2.17-.73,2.07,2.07,0,0,1,1.7,2.05c.06.82,0,1.64,0,2.46s0,1.6,0,2.56a13.25,13.25,0,0,0,1.62.22,2.29,2.29,0,0,1,2.37,1.87c.3,1.11-.43,1.83-1.23,2.37a10.39,10.39,0,0,1-2.52,1.35,3.57,3.57,0,0,0-2.47,3.41q-.8,7.33-1.56,14.67a14.62,14.62,0,0,1-.09,1.64,2,2,0,0,1-1.74,1.51,2.1,2.1,0,0,1-2.37-1.2,5.94,5.94,0,0,1-.37-2C877.76,338.28,877.87,333.78,878,328.81Z"/><path d="M602.17,267.8a14,14,0,0,1-6.39,2.68,5.55,5.55,0,0,1-3.95-.67c-1.73-1-1.88-1.59-.78-4,1.17-.51,1.88,1.93,3.38.29l-1.33-1.33a9.72,9.72,0,0,1-1.24-12.65,30.37,30.37,0,0,1,10.15-8.8,6.65,6.65,0,0,1,1.13-.49,2.6,2.6,0,0,1,3.48,2.41,9.56,9.56,0,0,1-2.36,6.78c-.22.23-.73.19-1.35.32-.08-1.12-.14-2.12-.23-3.53a18.07,18.07,0,0,0-6.6,6.54c-1.57,2.75-1.13,4.81,1.42,6.82,1.07.84,2.24,1.56,3.34,2.37A3.08,3.08,0,0,1,602.17,267.8Z"/><path d="M914.42,399.67c-.93-1-1.8-1.87-2.58-2.8-3.85-4.65-4.15-10.54.78-15a15.84,15.84,0,0,1,5.13-3.27,8.37,8.37,0,0,1,2.37-.51c1.84-.14,2.74.31,3.09,1.35.46,1.38-.68,1.94-1.38,2.71-.91,1-1.72,2.1-3.37,2-.54,0-1.19.52-1.66.94a9.59,9.59,0,0,0-1.24,1.63c-1.88,2.74-1.87,4.42.28,7,1.13,1.35,2.53,2.49,3.72,3.8a16.35,16.35,0,0,1,2.21,2.9,3.05,3.05,0,0,1-.32,3.46,6.25,6.25,0,0,1-5.7,2.59,4.31,4.31,0,0,1-3.72-4.23,2.4,2.4,0,0,1,.71-1.38A10.91,10.91,0,0,1,914.42,399.67Z"/><path d="M884.12,397.38c.29-2,.63-4.06.84-6.1.73-7.13,3.28-13.81,5-20.7a5.18,5.18,0,0,1,2.36-3.23,2,2,0,0,1,3.07.89,5.9,5.9,0,0,1,.11,4.41c-.79,2.76-1.51,5.55-2.49,8.25a32.67,32.67,0,0,0-2,7.94,28.13,28.13,0,0,1-.63,3.65,21.78,21.78,0,0,0-.7,8.12c.26,1.71-.6,2.52-2.31,2.72a2.31,2.31,0,0,1-2.75-1.86,5.07,5.07,0,0,1-.27-1.2c0-1,0-1.92,0-2.87Z"/><path d="M558,387.09c-.8-.77-1.37-1.3-1.91-1.84-1.25-1.26-2.59-2.45-3.71-3.81a5.35,5.35,0,0,1-.36-6.52,28.17,28.17,0,0,1,7-7.94,3.35,3.35,0,0,1,1.9-.54c2.22,0,2.94,1.25,1.81,3.18-.48.82-1.07,1.59-1.53,2.42a5.42,5.42,0,0,1-2.32,2.17c-3.72,2.05-2.71,4.76-.46,6.45,1.31,1,2.65,1.95,3.86,3,3.59,3.24,3.44,4.46-.55,7.12a12.09,12.09,0,0,1-7.72,2.26,5,5,0,0,1-4.72-4.31,1.23,1.23,0,0,1,1.54-1.38,19.08,19.08,0,0,1,1.94.63C554.48,388.65,556,388.47,558,387.09Z"/><path d="M646.13,313.83c1.46-.07,2.52-.15,3.59-.18a5.64,5.64,0,0,1,2,.09,2.37,2.37,0,0,1,1.38,1.26,2,2,0,0,1-.62,1.76,16.38,16.38,0,0,1-3.3,1.57,24.33,24.33,0,0,1-2.37.63,1.83,1.83,0,0,0-1.44,1.78c0,1.91.12,3.81.22,5.72s.3,3.53.32,5.3c0,1.06-.68,1.64-1.82,1.84a1.87,1.87,0,0,1-2.31-1.2,17.67,17.67,0,0,1-.85-3.57c-.59-5.55-1.39-11.09-.39-16.71a52.57,52.57,0,0,0,.33-6.54,16.41,16.41,0,0,1,.25-2.43,2.37,2.37,0,0,1,2.32-1.93,2.1,2.1,0,0,1,2.13,1.6,21.39,21.39,0,0,1,.54,4.44c0,1.36-.21,2.72-.26,4.08A21.2,21.2,0,0,0,646.13,313.83Z"/><path d="M898.86,403.19l-1.41.67a1.79,1.79,0,0,1-2.46-.78,6.19,6.19,0,0,1-.9-2.25,32,32,0,0,1-.37-6.93,85.72,85.72,0,0,1,3.47-19.34c.48-1.68,1.15-3,3.06-3.44s3.36.67,3.12,2.59a17.18,17.18,0,0,1-.88,3.58,59.29,59.29,0,0,0-3.31,23.4,11.1,11.1,0,0,1,0,1.63A3.92,3.92,0,0,1,898.86,403.19Z"/><path d="M891.28,265.58a2,2,0,0,0,2.47-.87c2.48-3.26,5.79-3.17,9.25-2.22a5.28,5.28,0,0,1,2,1.34,1.2,1.2,0,0,1-.62,1.94c-1.32.31-2.65.57-4,.8a3.61,3.61,0,0,0-3.07,2.87,32.33,32.33,0,0,0-1.39,11.31,27.15,27.15,0,0,1,.11,2.85,2.24,2.24,0,0,1-1.56,2.17c-1.85.76-3.53.07-3.57-1.91-.09-4.38-2-8.51-1.62-12.95a13.36,13.36,0,0,0-.45-2.81C888.52,266.05,889,265.53,891.28,265.58Z"/><path d="M1015.82,266c-1.19,1.85-2,3.79-4.4,4.58-2,.64-3.69,4.52-3.37,6.57a3.45,3.45,0,0,0,1.63,2.26,22.35,22.35,0,0,1,2.85,2.27,1.8,1.8,0,0,1-.2,2.57,5.9,5.9,0,0,1-1.35.93c-2.22,1-4.43,2.14-6.71,3-1.75.68-2.54.22-4.09-2l5.52-2.76a7.26,7.26,0,0,0-.77-1.58c-3.22-3.6-2.43-7.42-.22-11,1.27-2.06,3.24-3.69,4.95-5.45a4.53,4.53,0,0,1,3.45-1A2.63,2.63,0,0,1,1015.82,266Z"/><path d="M516.77,254.5c.12-3.52.21-7.2.43-10.88A5.36,5.36,0,0,1,518,241a3.18,3.18,0,0,1,2-1.14,2.1,2.1,0,0,1,2.17,1.55,5.79,5.79,0,0,1,.42,2,36.55,36.55,0,0,1,0,4.91,174.33,174.33,0,0,0-.88,18,16.85,16.85,0,0,1-.26,2.84,1.82,1.82,0,0,1-1.66,1.56,1.94,1.94,0,0,1-2.24-1.36,16.61,16.61,0,0,1-.74-4C516.7,261.76,516.77,258.21,516.77,254.5Z"/><path d="M514.16,269.25a20.75,20.75,0,0,1-2,.83,1.83,1.83,0,0,1-2.38-1,17.45,17.45,0,0,1-1.24-3.87,45.2,45.2,0,0,1,.22-16.68,22.55,22.55,0,0,0,.48-3.64,9.38,9.38,0,0,1,1.88-4.9,1.7,1.7,0,0,1,3,.13,4.55,4.55,0,0,1,.52,2.31c-.15,2.18-.44,4.35-.71,6.51-.63,4.87-1.36,9.74-.65,14.67C513.57,265.31,513.83,267,514.16,269.25Z"/><path d="M754.5,379.64c1.2-.2,1.18-1.35,1.53-2.15,1.18-2.65,3.38-3.43,6-3.35a1.59,1.59,0,0,1,1.18.88,1.56,1.56,0,0,1-.29,1.46c-2.67,1.72-3.38,4.48-4.15,7.27-.68,2.5-1.54,4.95-2.27,7.44a2.68,2.68,0,0,1-1.89,2,1.88,1.88,0,0,1-2.43-.92,6.2,6.2,0,0,1-.74-1.89c-.45-3.12-.83-6.24-1.19-9.36a2.2,2.2,0,0,1,1-2.49,1.92,1.92,0,0,1,2.51.72A2.68,2.68,0,0,0,754.5,379.64Z"/><path d="M933.7,398.89a5.43,5.43,0,0,1,1.17.74c2,2.39,1.47,4-1.48,4.53a2,2,0,0,1-2.3-1.24,1.81,1.81,0,0,1,.32-2.55A23.46,23.46,0,0,1,933.7,398.89Z"/><path d="M666.74,317.43a8.68,8.68,0,0,1,0,8.29c-1.55,3.32-4,5.89-7.78,6.74a6.61,6.61,0,0,1-2.8,0c-1.77-.4-2.67-1.8-1.95-3.4,2.4-5.36,5.63-10,11.65-11.83C666,317.22,666.14,317.3,666.74,317.43Z" style="fill:#fff"/><path d="M697.78,317.31c1.22.64,1.45,1.46,1,2.47-.87,1.81-2.32,2.41-4.46,2.13C694.58,319.43,696.32,318.46,697.78,317.31Z" style="fill:#fff"/><path d="M716,318.81a20.38,20.38,0,0,1-.45,2.14c0,.14-.88.2-.91.13a3.12,3.12,0,0,1-.29-1.47C714.48,318.94,714.92,318.46,716,318.81Z" style="fill:#fff"/><path d="M482.75,384.77c.7-5.17,3.77-8.43,6-12.07a7.42,7.42,0,0,1,4.21-3.3c1.23,3.55.24,6.65-1.48,9.36C489.63,381.69,487.3,384.37,482.75,384.77Z" style="fill:#fff"/><path d="M956,273.1c1.46-1.72,2.55-3.08,3.74-4.34a1.91,1.91,0,0,1,1.43-.56c.4.05,1.05.64,1,.95-.12,1.46-1.23,2.36-2.21,3.27A3.55,3.55,0,0,1,956,273.1Z" style="fill:#fff"/><path d="M791.46,275.2c-1.74.32-3.5.56-5.22,1a10,10,0,0,1-4.86-.11c-2.93-.76-4.17-2.52-3.59-5.44a16.94,16.94,0,0,1,8.4-12.11c2.37,1.6,2.68,4.86,5.1,6.12,0,3.67,0,7.18.05,10.7Z" style="fill:#fff"/><path d="M802.75,260.56c1,1.36,1.46,2.83,3.4,2a9.33,9.33,0,0,1,.4,2.51,17.92,17.92,0,0,1-4.39,9.11,5.14,5.14,0,0,1-1.31,1,2.9,2.9,0,0,1-4-.81,5.26,5.26,0,0,1-1.05-4.26,11.53,11.53,0,0,1,3.71-7.13A38,38,0,0,1,802.75,260.56Z" style="fill:#fff"/><path d="M852.19,265.05c2.85.22,4.72,1,5.36,3.28s-.77,3.62-2.19,5c-1.07,1-2.16,2-4,2.06C850.77,271.83,851.87,268.62,852.19,265.05Z" style="fill:#fff"/><path d="M501.34,253c-1,4.77-2.38,9.57-6,13.42a3.11,3.11,0,0,1-.66.46,1.24,1.24,0,0,1-1.69-.6,6.86,6.86,0,0,1-.19-2,24.11,24.11,0,0,1,5.91-13.22,3.42,3.42,0,0,1,.63-.49,1.12,1.12,0,0,1,1.65.59C501.14,251.71,501.21,252.25,501.34,253Z" style="fill:#fff"/><path d="M870.37,277.85a8,8,0,0,1-1.15-1.51,1.79,1.79,0,0,1,.23-1.17,24.11,24.11,0,0,1,7.61-9.43,1.26,1.26,0,0,1,.73-.34,4.06,4.06,0,0,1,1.87.35,1.66,1.66,0,0,1,.37,1.44,12.82,12.82,0,0,1-1.16,3,19.14,19.14,0,0,1-6.09,6.5A18.53,18.53,0,0,1,870.37,277.85Z" style="fill:#fff"/><path d="M663.64,375.59a10.11,10.11,0,0,1,.09,2.52c-.54,2.22-1.68,4.23-2.11,6.54s-3.31,4.13-5.48,4.18a1.68,1.68,0,0,1-1.84-1.72,6.05,6.05,0,0,1,.28-2,19.46,19.46,0,0,1,6.9-8.84A8.22,8.22,0,0,1,663.64,375.59Z" style="fill:#fff"/><path d="M485.06,326.4c1.19-4.59,3.89-8.06,7.29-11.08a2.26,2.26,0,0,1,1.14-.36,2.75,2.75,0,0,1,.82.21,5.89,5.89,0,0,1-.1,4.73,11.49,11.49,0,0,1-2.79,3.91,10.47,10.47,0,0,1-5.17,3.1C485.94,327,485.56,326.63,485.06,326.4Z" style="fill:#fff"/><path d="M532.49,329.08a3.42,3.42,0,0,1-.8-3.62,17.13,17.13,0,0,1,5.13-9.16,2.22,2.22,0,0,1,1.82-.55,2.09,2.09,0,0,1,1.12,1.52c.13,1.9,0,3.82,0,5.74a1.67,1.67,0,0,1-.19.79C538,326.62,535.79,328.68,532.49,329.08Z" style="fill:#fff"/><path d="M824.71,384.08c-.55,2.2-1.82,2.84-3.3,3.53C822.47,385.49,822.35,385.26,824.71,384.08Z" style="fill:#fff"/><path d="M606.18,374.13c.93.95,1.84,1.49,2.16,2.29,2.21,5.45,1.07,10.14-4.19,13.49a1.84,1.84,0,0,1-2.54-.56,5.84,5.84,0,0,1-.86-2.25,11.89,11.89,0,0,1,.91-6A20.76,20.76,0,0,1,606.18,374.13Z" style="fill:#fff"/><path d="M782.91,321.69l4,.76c1.53,1.88,1.25,4.07.46,6.14a14.83,14.83,0,0,1-6.33,7.34c-1.29.79-2.86,1.41-4.24.36s-1.12-2.55-.7-3.83A22.81,22.81,0,0,1,782.91,321.69Z" style="fill:#fff"/><path d="M637.91,382.6a4.73,4.73,0,0,1,.55-3.89,1.52,1.52,0,0,1,1.25-.67,1.69,1.69,0,0,1,1,1.08C641.22,380.94,640.5,381.78,637.91,382.6Z" style="fill:#fff"/><path d="M469.71,257.85c-.25,3-2.07,5-4.51,6.41-1.16.68-2.54,1.41-3.84.57-1.56-1-1.18-2.71-.74-4.09a42.37,42.37,0,0,1,2.51-6,3.12,3.12,0,0,1,3.73-1.8,3.33,3.33,0,0,1,2.53,2.89C469.52,256.51,469.6,257.19,469.71,257.85Z" style="fill:#fff"/><path d="M894.3,337.73a6.16,6.16,0,0,1,.27-1.58,34.63,34.63,0,0,1,5.28-9.15,2.56,2.56,0,0,1,1.79-.67,1.72,1.72,0,0,1,1.71,1.47c.63,2.63.52,5.12-1.43,7.26a19.62,19.62,0,0,1-5.19,4.55C895.32,340.35,894.29,339.73,894.3,337.73Z" style="fill:#fff"/><path d="M875.32,384.81c1.07,3,1.17,5.38-.08,7.27a50.69,50.69,0,0,1-4.16,5,2.32,2.32,0,0,1-1.05.59c-.81.26-1.72.32-2.22-.44a2.45,2.45,0,0,1-.29-1.88,12.54,12.54,0,0,1,1.58-3.3c1.55-2.23,3.23-4.36,4.9-6.51C874.22,385.26,874.68,385.16,875.32,384.81Z" style="fill:#fff"/><path d="M742,380.51a13.08,13.08,0,0,1-.24,2.73,20.46,20.46,0,0,1-6.13,9.51,5.93,5.93,0,0,1-1.73,1.06,1.27,1.27,0,0,1-1.1-.2,1.33,1.33,0,0,1-.41-1.05,10.66,10.66,0,0,1,.83-2.73,25.66,25.66,0,0,1,7.06-8.92,4.48,4.48,0,0,1,1.09-.49C741.48,380.38,741.63,380.45,742,380.51Z" style="fill:#fff"/><path d="M822,325.89c1.19-2,2.29-3.17,4-3.33.63-.06,1.33.52,2.38,1A7.83,7.83,0,0,1,822,325.89Z" style="fill:#fff"/><path d="M617.23,253.8l-1,.6c-.11-.18-.34-.43-.29-.54a1,1,0,0,1,.56-.5C616.7,253.33,616.92,253.58,617.23,253.8Z" style="fill:#fff"/><path d="M583.24,254.66c0,5.37-2.66,8.41-5.91,11.06a1.79,1.79,0,0,1-2.87-1.15,10.56,10.56,0,0,1-.15-3.63c.59-3.57,2.44-6.62,4.46-9.54a2.06,2.06,0,0,1,3.45.2A15.68,15.68,0,0,1,583.24,254.66Z" style="fill:#fff"/></g></svg>
