<svg xmlns="http://www.w3.org/2000/svg" viewBox="0 0 1366 768"> <g id="Layer_6" data-name="Layer 6"><path d="M773.48,419.32c-4.27.25-8.31-1.19-12.48-1.7-2.57-.31-5.11-.87-7.68-1.16-6.16-.7-12.31-1.43-18.48-1.89-3.59-.27-7.2-.29-10.8-.46a221.28,221.28,0,0,0-26.39.49c-7,.51-13.95,1.32-20.9,2.23a284.73,284.73,0,0,0-55.66,13.31c-7.72,2.64-15.33,5.58-22.31,9.85-9.2,5.63-15.24,13.93-18.69,24a241.31,241.31,0,0,0-10.15,44.14,272.05,272.05,0,0,0-2.77,46.32c.17,6,.59,12,1.27,18,.61,5.44,1.13,10.9,2,16.31.85,5.23,1.51,10.51,3.11,15.6,1.27,4,4.15,6.39,8.15,7.43,4.33,1.12,8.78,1.43,13.19,2,5.44.67,10.88,1.15,16.33,1.61,5.27.45,10.56.74,15.84,1,9.19.41,18.4.65,27.6.45,11-.23,21.93-.68,32.89-1.57q21.6-1.74,42.95-5.38A419.36,419.36,0,0,0,778.27,599c8.53-2.52,13.6-8.48,16.15-17a177.61,177.61,0,0,0,6.17-26.9,162.32,162.32,0,0,0,1.29-33.85,185.55,185.55,0,0,0-3.68-26.15,152.43,152.43,0,0,0-14.43-39.82c-4.54-8.47-10.1-16.14-18.44-21.4-2.29-1.44-5.3-1.82-6.73-4.54" style="fill:none;stroke:#000;stroke-linecap:round;stroke-linejoin:round;stroke-width:2px"/><path d="M1001.48,400.36c-5.83-.56-11.52-2-17.28-2.85-11.36-1.77-22.68-3.81-34.08-5.34-6.1-.81-12.15-2-18.24-2.83-5.35-.75-10.75-1.12-16.07-2-5.75-.94-11.54-1.5-17.3-2.25-4.85-.63-9.74-1.17-14.63-1.59-6.89-.6-13.75-1.67-20.64-2.32-9.67-.92-19.36-1.64-29-2.43-7.92-.65-15.84-1.34-23.76-1.9-5.83-.42-11.68-.66-17.52-1-9-.48-17.92-1-26.88-1.43-4.56-.22-9.12-.37-13.68-.48-14.32-.37-28.63-.69-43-.81-9.2-.08-18.4-.25-27.6-.09-7.36.14-14.72,0-22.08.18-10.88.27-21.76.54-32.64,1-11.2.45-22.41,1-33.6,1.69q-18,1.15-36,2.54Q537.78,380,518.13,382c-9.46.93-18.9,2.07-28.34,3.21-7,.85-14.08,1.62-21.1,2.57-7.45,1-14.9,2.13-22.34,3.18q-14.89,2.1-29.74,4.5c-9.7,1.58-19.43,3.09-29.07,5.11-2.68.57-5.44.94-8.14,1.53-1.9.42-3.16-1.09-4.8-1.45" style="fill:none;stroke:#000;stroke-linecap:round;stroke-linejoin:round;stroke-width:2px"/><path d="M774.44,105.16a41.5,41.5,0,0,0-9.37.66c-2.05.27-4.16.35-6.23.48-5.94.38-11.83,1.12-17.75,1.58-6.49.5-13,1.21-19.44,1.92-7,.77-14.11,1.37-21.14,2.23-3.81.46-7.68.7-11.5,1.12s-7.86.78-11.78,1.27c-3.5.42-7,.7-10.55,1.07-4.08.43-8.18.69-12.25,1.38-1.72.29-3.51.29-5.28.47-5.84.58-11.67,1.38-17.52,1.89-5.2.46-10.39,1.07-15.58,1.61s-10.1,1.09-15.14,1.74c-3.49.46-7,.68-10.55,1.08-10.36,1.19-20.84,2-30.23,7.19a29.87,29.87,0,0,0-12.1,11.7c-3.11,5.6-2.82,11.44-2.21,17.32a33.36,33.36,0,0,0,1.76,7.95,5.45,5.45,0,0,0,4.4,3.73,43,43,0,0,0,5.5.62c9.68.46,19.37.71,29,1.35,4.07.26,8.17-.13,12.24.07q16.68.85,33.36.36c7.6-.22,15.21-.1,22.8-.47,7.2-.34,14.42-.38,21.59-.94,8.48-.67,17-1,25.46-1.76,6.63-.57,13.28-1,19.9-1.63q7.93-.75,15.86-1.72c4.7-.58,9.43-1.06,14.14-1.6,4.26-.49,8.58-.72,12.72-1.89,5.15-1.44,7.6-4.95,7.66-10.3q.16-15,0-30c-.05-3.76-.18-7.52-.19-11.28" style="fill:none;stroke:#000;stroke-linecap:round;stroke-linejoin:round;stroke-width:2px"/><path d="M1000,81.64c-4,.73-8,.53-12,.68-11.6.44-23.19,1-34.8,1.37-3.91.11-7.85,0-11.76.38-10.14.89-20.33.62-30.49,1.33-5.33.37-10.71.41-16.07.5-12.81.2-25.6.83-38.4,1.12-7.11.16-14.24.34-21.36.6q-14.88.52-29.76.79-9.48.18-19,.47c-10.56.31-21.12.49-31.68.71-7.28.15-14.56.36-21.84.48l-30.24.49q-16.32.28-32.64.52c-2.29,0-4.71-.3-7,.64-1.22.52-2.15-.57-3.36-.53-11,.33-22.08.21-33.12.36-3.52,0-7,.14-10.56.16-15.36.1-30.73-.06-46.08.31-17.36.42-34.72.58-52.08.33-8.56-.12-17.12-.2-25.68-.44-10.09-.27-20.19-.66-30.24-1.66-15.09-1.5-30-3.82-44.65-8.11A162,162,0,0,1,387.8,70.37a5.13,5.13,0,0,0-2.88-1" style="fill:none;stroke:#000;stroke-linecap:round;stroke-linejoin:round;stroke-width:2px"/><path d="M827.48,635c-10.32,0-20.64.52-31,.7-9.2.16-18.4.56-27.6.88s-18.4.74-27.6,1.19c-12.24.6-24.49,1.13-36.72,1.95-11.36.76-22.73,1.48-34.09,2.28-9.59.67-19.19,1.41-28.79,2.06-7.76.53-15.51,1.3-23.28,1.92-5.2.41-10.42.8-15.59,1.45-5.6.7-11.23,1-16.83,1.73-2.72.36-5.56,1-8.38.36" style="fill:none;stroke:#000;stroke-linecap:round;stroke-linejoin:round;stroke-width:2px"/><path d="M543.56,469c-3.88.17-7.68-.64-11.52-1-6.88-.6-13.77-1.18-20.64-1.94-4.55-.51-9.14-.68-13.69-1.34-2-.3-4.15-.33-6.23-.52-5.36-.47-10.74-.73-16.09-1.43-2.13-.28-4.33-.34-6.47-.43-5.22-.22-10.4-.75-15.59-1.13-11-.83-22.09-1.55-33.12-2.39-11.52-.88-23.06-1.4-34.57-2.28-8.39-.65-16.8-.83-25.2-1.25-9.68-.49-19.34-1.25-29-1.17-4.62,0-9.25.28-13.69,1.86a5.43,5.43,0,0,1-1.91-.09" style="fill:none;stroke:#000;stroke-linecap:round;stroke-linejoin:round;stroke-width:2px"/><path d="M782.12,649c-8.45,1.47-16.92,2.92-25.45,3.76-5,.49-10.06.83-15.11,1.08-24.71,1.25-49.44.67-74.16,1-9.28.14-18.58.74-27.85,1.78a209.9,209.9,0,0,0-29,4.81c-5.67,1.46-9,5.07-10,10.61a115.8,115.8,0,0,0-2.22,21.83,3.29,3.29,0,0,0,.45,2.4c2.62,1,5.31-.28,7.93-.81,10.66-2.16,21.39-2.15,32.18-1.9,8.27.19,16.5.85,24.71,1.61a421.11,421.11,0,0,0,43.21,1.3c7-.08,14.09-.69,21.13-1.31,5.12-.44,10.25-1,15.34-1.6,5.3-.67,10.6-1.47,15.86-2.53,2.95-.6,5.94-1,8.87-1.73,2.47-.59,3.24-1.73,2.37-4.06-2.33-6.2-3.08-12.68-3.54-19.21-.12-1.67.18-3.36.19-5,0-1.25,1-1,1.7-1.32" style="fill:none;stroke:#000;stroke-linecap:round;stroke-linejoin:round;stroke-width:2px"/><path d="M576.68,434.44c-5.81-.29-11.51-1.53-17.28-2.19-4.64-.53-9.29-1.08-13.91-1.72-10.06-1.39-20.17-2.19-30.26-3.23-8.05-.84-16.16-1.08-24.23-1.77-10-.85-20-1.06-30-1.85-3.67-.28-7.37-.37-11-.42-7.37-.1-14.72-.48-22.08-.72-6.16-.2-12.35.14-18.47-.45-4.9-.47-9.77-.18-14.65-.36-7.92-.29-15.83-.7-23.76-.5a4.78,4.78,0,0,0-3.61,1.2c-.51.52-.07.83.13,1.21" style="fill:none;stroke:#000;stroke-linecap:round;stroke-linejoin:round;stroke-width:2px"/><path d="M963.8,420.64a44.5,44.5,0,0,1-6.72.27c-5.38-.05-10.71.54-16.08.64-12.48.25-25,.95-37.44,1.34-5.2.16-10.4.36-15.6.49-13.44.33-26.87,1-40.32,1.35-4.47.11-9-.1-13.43.42-4.66.56-9.3.14-13.93.43-9,.58-18.08.64-27.12,1-10,.43-20,.62-30,1.12a3.78,3.78,0,0,0-1.43.25c-3.21,1.51-6.85.64-10.09,1.9" style="fill:none;stroke:#000;stroke-linecap:round;stroke-linejoin:round;stroke-width:2px"/><path d="M1009.4,408.76c-3,.44-5.2,2.6-7.66,4.11-17,10.4-33.9,21.07-49.71,33.32-15,11.66-28.83,24.61-40.28,39.87a140.78,140.78,0,0,0-22.09,42.23,99.84,99.84,0,0,0-4.83,27.59c0,1-.15,2.08-.23,3.12" style="fill:none;stroke:#000;stroke-linecap:round;stroke-linejoin:round;stroke-width:2px"/><path d="M914.84,464.44a81.44,81.44,0,0,0-16.81.15c-6.73.59-13.43,1.4-20.15,2-6.4.59-12.8,1.26-19.2,1.91-7,.71-13.94,1.32-20.87,2.2-5.28.67-10.58,1.29-15.86,1.75-5.58.5-11.14,1.64-16.79,1.33" style="fill:none;stroke:#000;stroke-linecap:round;stroke-linejoin:round;stroke-width:2px"/><path d="M1006.52,444.52A164.65,164.65,0,0,0,970,469.2a172.05,172.05,0,0,0-33,39.67,169.46,169.46,0,0,0-12,24.23c-.57,1.38-1.81,3-.7,4.49s3.1.7,4.73.53" style="fill:none;stroke:#000;stroke-linecap:round;stroke-linejoin:round;stroke-width:2px"/><path d="M662.6,92.2c0,5.9-1.11,11.68-1.68,17.52" style="fill:none;stroke:#000;stroke-linecap:round;stroke-linejoin:round;stroke-width:2px"/></g></svg>
