<svg xmlns="http://www.w3.org/2000/svg" viewBox="0 0 1366 768"><g id="Layer_6" data-name="Layer 6"><path d="M1057.16,41.92a87.24,87.24,0,0,0-15.8,10.49,118.14,118.14,0,0,0-22.1,23,49.73,49.73,0,0,0-8.48,17.49c-2.48,10.38,1.75,17.86,10.85,21.4a68.87,68.87,0,0,0,10.11,3c12.07,2.68,18.13,10.84,20.84,22.17,1.46,6.15,2.12,12.44,3,18.7,1,7.46,2,15,5.45,21.86a23,23,0,0,0,14.89,12.22c3.36,1,6.77,1.82,9.85,3.6,5.93,3.42,8.21,8.92,9.15,15.36,1,7.06-.28,13.94-.91,20.9a70,70,0,0,0-.61,9.83c.16,3.47,1.56,6.09,4.61,7.66a28.3,28.3,0,0,0,14.87,2.9c12.2-.75,22.12-6.69,31.43-13.93a190.06,190.06,0,0,0,19.45-17.75,38.28,38.28,0,0,1,6-4.62c5.9-4.05,12.35-1.3,14.9,4.39a28,28,0,0,1,1.7,17.27c-2.71,13.71-8,26.68-11.81,40.07a167.94,167.94,0,0,0-5.67,26.17,67.81,67.81,0,0,0,3.36,31.9c4.65,12.64,13.28,21.85,25.16,28.1,10.18,5.36,21.11,8.24,32.39,10.14,6.94,1.17,13.89,2.11,20.89,2.84,8.17.86,16.31,2.06,24.49,2.8,5.68.52,11.33,1.34,17,1.73,1,.07,2.08,0,3.12,0" style="fill:none;stroke:#000;stroke-linecap:round;stroke-linejoin:round;stroke-width:2px"/><path d="M1295.72,399.16a102,102,0,0,0-19,.66c-19.1,2-36.78,8.47-54,16.59-17,8-32.93,17.9-49,27.64-11.37,6.91-22.73,13.84-34.32,20.38-7.58,4.28-15.1,8.67-22.82,12.69-12.13,6.3-24.33,12.46-36.68,18.32-10.71,5.08-21.51,10-32.42,14.59-12.84,5.43-25.77,10.61-38.86,15.43q-16.71,6.15-33.62,11.71C961,541.81,946.7,546,932.38,550c-12.54,3.49-25,7.29-36.75,13.11-15.52,7.68-27.43,18.8-34.59,34.8a143,143,0,0,0-8.53,26.2c-2.33,10-4.39,20.1-6.37,30.21-2.56,13.09-4.79,26.24-7.1,39.38-1.25,7.08-2,14.26-3.2,21.34-1.29,7.42-2.19,14.9-3.2,22.35-.89,6.52-1.87,13.07-2.28,19.66" style="fill:none;stroke:#000;stroke-linecap:round;stroke-linejoin:round;stroke-width:2px"/><path d="M1012.16,138.28c.5,2.53-.68,4.81-1.1,7.2-1.5,8.55-3,17.09-4.37,25.67-1.44,9.34-2.46,18.72-3.41,28.1-.58,5.72-.77,11.52-1.2,17.26-1.08,14.64-.94,29.29-.76,43.93.11,8.48.64,17,1.29,25.45q1.13,14.43,3,28.79c.91,7,2.07,13.94,3.23,20.89,1.52,9.1,3.39,18.11,5.38,27.11,2.62,11.81,5.89,23.45,9.33,35,2,6.68,4.09,13.3,7.46,19.44,4.21,7.65,10.94,12.2,19,14.83a164.81,164.81,0,0,0,50.62,6.72c17.19-.74,33.7-4.15,48.75-13.11A77.28,77.28,0,0,0,1164,414.28c1-1,2-2.17,3.6-2.28" style="fill:none;stroke:#000;stroke-linecap:round;stroke-linejoin:round;stroke-width:2px"/><path d="M286.52,493c2.64,2.46,6.16,3,9.38,4Q326.64,507,358,514.6c18.32,4.46,36.75,8.38,55.19,12.3,16.84,3.58,33.61,7.56,49.44,14.6,9.8,4.35,19,9.61,27.18,16.73a87.84,87.84,0,0,1,18.94,23.56c5.93,10.56,9.68,21.93,12.39,33.62a348.37,348.37,0,0,1,6.35,39.34c.83,7.21,1.75,14.4,2.59,21.61q1.1,9.48,2.26,18.95c.55,4.4,1.16,8.82,1.71,13.22.72,5.83,1.44,11.66,2,17.51.53,5,1.26,9.92,1.9,14.88" style="fill:none;stroke:#000;stroke-linecap:round;stroke-linejoin:round;stroke-width:2px"/><path d="M396,144.52c0-3.79-1.21-7.38-1.95-11-1.39-7-3-13.85-5-20.66a138.46,138.46,0,0,0-5.59-16,86.46,86.46,0,0,0-12.66-21.4,73.79,73.79,0,0,0-19.2-16.57c-12.52-7.47-26.17-11.58-40.33-14.4-6.46-1.29-13-2.26-19.46-3.27-5.88-.92-11.85-1.2-17.75-2-7.26-1-14.57-1.52-21.85-2.25-3.08-.31-6.25-.38-9.34-.68-9.27-.89-18.58-.63-27.86-1.26-4.28-.29-8.65-.54-13,.36a13.89,13.89,0,0,1-3.35,0,163.55,163.55,0,0,0-21.35,1.07c-7.79.74-15.56,1.84-23.3,3.17A244.94,244.94,0,0,0,112.29,50.7c-4.05,1.47-8.06,3.07-12,4.84-1.27.57-2.44.22-3.63.42" style="fill:none;stroke:#000;stroke-linecap:round;stroke-linejoin:round;stroke-width:2px"/><path d="M392.48,150a209,209,0,0,0-2.57,24.48q-.44,10.68-.1,21.36c.17,5.12.67,10.25,1.25,15.37.75,6.61,1.79,13.15,3,19.66,1.53,8,3.46,15.89,5.45,23.77,3.21,12.75,6.19,25.55,7.69,38.64a121.88,121.88,0,0,1,.38,21.35c-.8,12.86-4.17,25.24-8.84,37.19a271.51,271.51,0,0,1-16.42,33.91C377,395.28,371.91,404.9,365.93,414c-6.6,10.06-15.43,17.5-26.86,21.61a71.4,71.4,0,0,1-18.71,3.88,74.19,74.19,0,0,1-14.89-.69,75.61,75.61,0,0,1-27.09-8.74c-13.09-7.1-23.83-16.76-31.5-29.69A68.55,68.55,0,0,1,241,387.87a2.77,2.77,0,0,0-3.15-2.15" style="fill:none;stroke:#000;stroke-linecap:round;stroke-linejoin:round;stroke-width:2px"/><path d="M290.6,161.8c-.16,4,.89,7.83,1.31,11.75.52,4.8,1.06,9.61,1.26,14.41a187.94,187.94,0,0,1,0,19.43c-.37,6.18-.84,12.35-1.73,18.51s-1.88,12.52-3.25,18.69a230.76,230.76,0,0,1-10.29,33.61,217.23,217.23,0,0,1-30,53.24,172.38,172.38,0,0,1-21.78,24.05,17.15,17.15,0,0,0-1.48,1.73c2.05,4.44,2.25,9.35,2.83,14.11a190.5,190.5,0,0,1,1.5,28.55,199,199,0,0,1-4,34.56,200.09,200.09,0,0,1-8.44,29,181.7,181.7,0,0,1-14.62,30.25,185.29,185.29,0,0,1-20.44,28,190.78,190.78,0,0,1-47.48,39.15c-2.79,1.62-5.44,3.52-8.64,4.32" style="fill:none;stroke:#000;stroke-linecap:round;stroke-linejoin:round;stroke-width:2px"/><path d="M1288.76,73.84A25.69,25.69,0,0,0,1278,78.3c-7.41,5-12.65,11.91-16.77,19.68a124.22,124.22,0,0,0-10.45,25.4,48.32,48.32,0,0,0,2.09,32.63,53.32,53.32,0,0,0,25.88,27.3c4.65,2.32,9.65,4.23,15.08,4.05" style="fill:none;stroke:#000;stroke-linecap:round;stroke-linejoin:round;stroke-width:2px"/><path d="M947.72,597.28c-1.68,1.41-1.71,3.58-2.35,5.42a308.7,308.7,0,0,0-10.13,36.22,316.38,316.38,0,0,0-5.8,36.24,344.54,344.54,0,0,0-1.88,35.76" style="fill:none;stroke:#000;stroke-linecap:round;stroke-linejoin:round;stroke-width:2px"/><path d="M1278.44,479.8c-2.86.37-4.79-1.79-7.19-2.68a73.82,73.82,0,0,0-19.68-4.12c-6.1-.49-12.17-.42-18.25-.36-6.66.08-13.29.71-19.93,1.33a236,236,0,0,0-33.1,5.86c-4,1-8,2.12-12,3.4a4.25,4.25,0,0,1-2.18.29" style="fill:none;stroke:#000;stroke-linecap:round;stroke-linejoin:round;stroke-width:2px"/><path d="M384.68,146.08c-2.49.64-5,0-7.43-.22a164.11,164.11,0,0,0-79.2,14.51,7.53,7.53,0,0,1-4.09.95" style="fill:none;stroke:#000;stroke-linecap:round;stroke-linejoin:round;stroke-width:2px"/><path d="M220.52,466.6c17.29,8.51,35.07,15.88,53.06,22.75a103.48,103.48,0,0,0,9.83,3.36c2.64.71,3.21.82,4-2.12q3.4-12.36,6.85-24.69c1.83-6.58,3.49-13.22,5.7-19.69a6.18,6.18,0,0,0,.22-1.69" style="fill:none;stroke:#000;stroke-linecap:round;stroke-linejoin:round;stroke-width:2px"/><path d="M1109.48,447.16a32.12,32.12,0,0,0-1.11,9.36c.31,7.07,1.61,14,5.42,20.16a8.39,8.39,0,0,1,.49,1.2" style="fill:none;stroke:#000;stroke-linecap:round;stroke-linejoin:round;stroke-width:2px"/></g></svg>
