<svg xmlns="http://www.w3.org/2000/svg" viewBox="0 0 1366 768"><g id="Layer_5" data-name="Layer 5"><path d="M716.39,248.65a5.33,5.33,0,0,0-1.8,3.95,2.45,2.45,0,0,0,2.37,2.79,14,14,0,0,0,3.65-.27c5-1,9.53-3.36,14.11-5.49,1-.46,1.95-1,2.95-1.42.59-.26,1.26.55,1.2,1.25A3.27,3.27,0,0,1,737,252a62.31,62.31,0,0,1-10.47,5.61,26,26,0,0,1-12.94,1.08,4.24,4.24,0,0,1-4.06-3.9,23.9,23.9,0,0,1-.14-4.06c0-1,.35-1.91.29-2.84,0-.56-.56-1.08-1.07-2-.47.83-.88,1.24-.94,1.7-.19,1.35-.26,2.72-.34,4.09a11.59,11.59,0,0,1-2.15,5.7,6,6,0,0,1-3.16,2.5c-1.89.61-3.6.45-4.7-1.33-1.36-2.2-2.54-4.51-3.77-6.79-.45-.83-.82-1.7-1.25-2.54,0-.1-.23-.13-.55-.3a4.07,4.07,0,0,0-.83,1.22c-.48,1.94-1.82,3.3-3,4.82s-2.77,1.58-4.43,1.3a2.48,2.48,0,0,1-1.93-1.94A41.76,41.76,0,0,1,680,248c-.47-4.12.3-8.19,1-12.25a4.44,4.44,0,0,1,2.14-3.34,2.47,2.47,0,0,1,3.84,2,41,41,0,0,1-.67,5.27c-.32,2.16-.77,4.31-1,6.48a11.38,11.38,0,0,0,.33,2.69c1.35-.13,1.44-1.08,1.6-1.79.46-2.14.73-4.32,1.2-6.46a19.41,19.41,0,0,1,1.17-3.47,1.65,1.65,0,0,1,2.15-.63,6.5,6.5,0,0,1,3.48,4.31c1.07,3.54,2.28,7,3.48,10.52.44,1.26.83,2.62,2.31,3.26,1.4-1.27,1.49-3,1.71-4.55a31.89,31.89,0,0,0-.8-12.22,15.81,15.81,0,0,1-.5-2.8,1.93,1.93,0,0,1,3.49-1.19,20.93,20.93,0,0,1,1.91,4,6.48,6.48,0,0,0,2.87,3.84c1.82,1.06,2.88,1,4.4-.44.9-.84,1.73-1.75,2.57-2.66,1.91-2.06,4.4-3.22,6.83-4.47a3.31,3.31,0,0,1,3.51.28c2.21,1.49,3.57,3.37,3,6.2a3.87,3.87,0,0,0-.16.81c.24,3.78-1.63,5.73-5.23,6.66C721.8,248.81,719.12,249.89,716.39,248.65Zm7.82-9.29c-1.62,1.14-3.28,2-4.09,3.86,2.58.28,3.56.07,4.44-1.11A1.77,1.77,0,0,0,724.21,239.36Z"/><path d="M708.49,379.86a34.31,34.31,0,0,0-.48,8.34c0,1.78.13,3.56.16,5.35a2.37,2.37,0,0,1-1.76,2.46c-1.42.5-2.54.11-2.91-1.33a46,46,0,0,1-1-5.24,18,18,0,0,1-.22-3.28c.09-2.77-.11-5.44-2-7.43.09-.55,0-.94.2-1.06,2.08-1.57,2.41-3.72,2.47-6.18.09-4,.54-7.91.87-11.87a5.49,5.49,0,0,1,.44-1.57,2.94,2.94,0,0,1,2.9-1.87,2.55,2.55,0,0,1,2.34,2,10.67,10.67,0,0,1,.38,3.23c-.13,3-.39,6-.61,9,0,.68-.21,1.36-.24,2a1.33,1.33,0,0,0,1.63,1.33c.52-.15,1-.44,1.51-.62a9.75,9.75,0,0,1,1.95-.6c1.6-.22,3.13.18,3.31,2.61.11,1.66.24,1.65,1.48,3.26a45.89,45.89,0,0,1,5.4-2.67c1.92-.67,4-.88,6-1.36a15.81,15.81,0,0,0,1.88-.77c1.64-.61,2.61-.3,3.27,1.39a29.1,29.1,0,0,1,1.24,4.73c.28,1.33.33,2.71.59,4.05a1.19,1.19,0,0,0,.84.73,1.22,1.22,0,0,0,1-.47,9.59,9.59,0,0,0,.92-2.25c.4-1.59.68-3.22,1-4.82a6.23,6.23,0,0,1,2-3.48,1.57,1.57,0,0,1,2.21,0,3,3,0,0,1,1.23,2.48c-.12,2.32-.25,4.64-.52,6.95s-.71,4.31-1.06,6.47c-.54,3.24-1,6.49-1.59,9.73-.73,4.18-1.53,8.35-2.23,12.54a3.9,3.9,0,0,1-2.2,3.23c-1.45.68-3-.06-2.93-1.66a74.6,74.6,0,0,1,.57-8.18c.45-3.53,1.16-7,1.67-10.55.22-1.46.21-3,.3-4.46-.61-.24-1-.57-1.32-.5-2.72.57-4.13-1-5-3.17a30.19,30.19,0,0,1-1.18-4.34c-.2-.8-.27-1.63-.51-2.41a1.7,1.7,0,0,0-2.27-1.16,13.69,13.69,0,0,0-5.76,3.83,6.62,6.62,0,0,0-1.47,5.37,4.34,4.34,0,0,1-1.49,4.06c-1.38,1.19-3,.93-3.56-.82-.67-2.08-1.09-4.24-1.62-6.37-.16-.66-.3-1.33-.46-2C713.12,379,712.64,378.74,708.49,379.86Z"/><path d="M689,456a4,4,0,0,0,2.48,3.74c3,1.39,6,2.65,9.46,2.15a17.78,17.78,0,0,0,2.41-.75,17.76,17.76,0,0,0,.51-2.42c.39-6.62,3.84-11.56,8.57-15.81a21.28,21.28,0,0,1,7.36-4.38c2.76-1,4.93.11,5.69,2.87a15.59,15.59,0,0,1,.33,6.87,63,63,0,0,0-.57,9.42c0,2.28.62,4.36,3.24,5.16-.26,2.14-1.78,2.4-3.24,2.68a2.84,2.84,0,0,1-3.23-1.25c-.78-1.26-1.44-2.6-2.28-4.15a14.88,14.88,0,0,0-2.15,1.29c-2.4,2.07-5.31,2.77-8.33,3.11a5.88,5.88,0,0,1-2.78-.41,6.92,6.92,0,0,0-4.81-.08,24.88,24.88,0,0,1-8.56.6c-5.28-.27-8.18-3.44-9.84-8a11.67,11.67,0,0,1,.11-8.84c.71-1.62,1.57-3.18,2.37-4.77,2-4,5.48-5.59,9.61-6.15a6.84,6.84,0,0,1,7.32,5.7,31,31,0,0,1-.29,7.33A39.89,39.89,0,0,1,689,456Zm32.58-12.56a6.45,6.45,0,0,0-1.79.49,36,36,0,0,0-7.61,7.34,11.93,11.93,0,0,0-2.63,6.32,10.42,10.42,0,0,0,.33,2.2c.52.08.82.23,1,.15a14.75,14.75,0,0,0,9.08-9.27A44.52,44.52,0,0,0,721.4,446,15.18,15.18,0,0,0,721.59,443.45ZM688.44,450a8.41,8.41,0,0,0,2.67.31,15.85,15.85,0,0,0,6.26-3.56,2.7,2.7,0,0,0,.63-1,2.94,2.94,0,0,0-.91-3.3,2.86,2.86,0,0,0-3.73.07A15,15,0,0,0,688.44,450Z"/><path d="M889.14,271.83c-1.27,1.84-2.51,3.69-4.58,3.36s-2.19-2.61-2.6-4.3c-.83-3.36-.58-6.8-.42-10.23a65.49,65.49,0,0,0,.08-6.57,4.94,4.94,0,0,0-2.07-4.29c-1.52,1.18-1.8,2.83-2,4.43-.75,5.29-1.43,10.59-2.12,15.89-.09.68,0,1.38-.16,2.05a3.08,3.08,0,0,1-3.73,2.33,2.24,2.24,0,0,1-1.72-2.09c-.12-1.77,0-3.55-.08-5.33,0-.93.21-2-1.12-2.61a16.54,16.54,0,0,0-1.79,1.4c-3.23,3.31-7.33,4.15-11.69,4-3.53-.13-5.49-1.9-6.48-5.28a12.84,12.84,0,0,1,0-7.32c1.33-4.41,3.37-8.42,7.75-10.63a27,27,0,0,1,2.69-1c2.62-1,4.49.15,6,2.18a6,6,0,0,1,.47,6.57A8.62,8.62,0,0,1,861,258.3c-1.8.63-3.69,1-5.53,1.54a2.2,2.2,0,0,0-1.76,2.76c.39,2.4,2.68,4.33,5,3.86,2-.41,4-.81,5.55-2.41a38.57,38.57,0,0,1,4-3.55,4.16,4.16,0,0,0,1.63-3.55c0-3,.11-6,.27-9a6.23,6.23,0,0,1,.72-2.69c1.06-1.81,2.13-2.15,4.1-1.2a3.14,3.14,0,0,0,2.69.14c3.33-1.15,6.11.11,7.6,3.43a16.44,16.44,0,0,1,1.33,6.82c0,3.56-.09,7.12-.13,10.68,0,.69,0,1.37,0,2.06a3.46,3.46,0,0,0,1.76,3.45C888.53,270.76,888.69,271.21,889.14,271.83Zm-33.88-15.4a38.12,38.12,0,0,0,3.66-1.32,3.85,3.85,0,0,0,2.15-3.21,1.67,1.67,0,0,0-.54-1.38,1.54,1.54,0,0,0-1.46,0A9.7,9.7,0,0,0,855.26,256.43Z"/><path d="M795.83,424.39a26.28,26.28,0,0,0,2.35-8.61c.82-6.39,1.52-12.78,2.31-19.17.13-1.08.47-2.13.68-3.2.34-1.73.81-3.46,0-5.07a2.87,2.87,0,0,0-3.23.45c-3.37,2.39-7.33,2.88-11.23,3.57a2.27,2.27,0,0,1-2.82-1.77,10.72,10.72,0,0,1-.07-4,17.74,17.74,0,0,1,3.51-7.36c1.6-2.05,3.31-4,5.06-5.94a15.57,15.57,0,0,1,8-4.72,5.24,5.24,0,0,1,6.4,3,14.87,14.87,0,0,1,1.31,8.42c-.14.81-.18,1.64-.34,2.44-1.77,8.61-2,17.42-3.27,26.08-.82,5.42-1.74,10.82-2.64,16.22a9.68,9.68,0,0,1-3.1,5.65,2.59,2.59,0,0,1-3,.52c-4-1.71-7.19-4-9-8.37a41.84,41.84,0,0,1-3.36-11.35c-.1-.82-.16-1.67.76-2.13.76-.38,1.7.1,2.18,1.33a57.06,57.06,0,0,0,5.61,10.48A9.21,9.21,0,0,0,795.83,424.39ZM801,373.17c-4.15,1.8-6.47,5.8-9.38,9.13a5.61,5.61,0,0,0-1.79,4.61,7,7,0,0,0,2-.37,50.36,50.36,0,0,0,8.84-5.78,9.33,9.33,0,0,0,2.09-2.48,5.56,5.56,0,0,0,.5-2.71C803.26,374.39,802.49,373.6,801,373.17Z"/><path d="M827.79,266.75a20.77,20.77,0,0,0-2.87.61,11.42,11.42,0,0,1-5.27.58A5.87,5.87,0,0,1,815,265c-.1-.17.06-.5.12-.9,1.72-1,4,.06,5.74-1.33-.05-1.55-1.37-2-2.17-2.89-1.39-1.51-3-2.87-4-4.6-4.22-7.29.41-14.5,7.08-15.94a7.29,7.29,0,0,1,1.62-.14,3.23,3.23,0,0,1,3.14,2.22,3.37,3.37,0,0,1-.89,3.76,1.79,1.79,0,0,1-1.48.3,7.05,7.05,0,0,1-1.67-1,6.3,6.3,0,0,0-3.09,2.78,4.58,4.58,0,0,0-.08,5.39,10.53,10.53,0,0,0,1,1.3c2.35,2.86,5.24,5.13,8.28,7.8a8.86,8.86,0,0,0,.81-2c.2-2.05.21-4.11.44-6.15s.5-4-1.07-5.83c-.39-.44-.25-1.61,0-2.31a6.26,6.26,0,0,1,6.16-3.95c4.2.29,7.7,2,9.87,5.72a8.78,8.78,0,0,1,.46,8.67c-2,3.92-4.43,7.6-8.89,9.22a2.92,2.92,0,0,0-1.88,2.5c-.17.94-.18,1.9-.29,2.85-.31,2.59-.66,5.17-.95,7.75a3.53,3.53,0,0,1-2.17,2.78c-1.6.83-2.7.35-2.9-1.45a28.33,28.33,0,0,1-.1-3.69c.05-2.19.21-4.38.22-6.57A14.2,14.2,0,0,0,827.79,266.75Zm9.2-18.23c-1.37,2.36-1.14,4.7-1.26,7-.06,1.12-.38,2.34.34,3.57,2.85-1.53,5.06-3.13,4.62-6.62C840.43,250.37,839.61,248.87,837,248.52Z"/><path d="M478.34,233.71l-4.69-1c.19-.68.18-1.46.56-1.81a16.7,16.7,0,0,1,2.72-1.81,4.67,4.67,0,0,0,2.38-4.06,20.39,20.39,0,0,1,.23-3.68,21.88,21.88,0,0,1,1.49-4.2,2.31,2.31,0,0,1,2.42-1.19c1.33.05,2.16.64,2.25,1.9a27.41,27.41,0,0,1-.12,3.26c-.07,1.2-.16,2.4-.25,3.72,1.77.18,2.69-.92,3.81-1.57.84-2.47.29-4.93.14-7.36-.11-1.8.19-3.28,2.1-4.06a3.64,3.64,0,0,1,3.13,3.27,61.76,61.76,0,0,1,.64,6.52c.1,1.61,0,3.23,0,5.08a5.73,5.73,0,0,0,1.28-.64c2.28-2,3.39-2.25,5.68-.59a8.19,8.19,0,0,1,2.62,3.06,34.3,34.3,0,0,1,2.76,17.24,3.64,3.64,0,0,1-1.61,2.73,1.44,1.44,0,0,1-2.32-.66,21,21,0,0,1-.35-3.26,42.78,42.78,0,0,0-1.25-9.75c-.39-1.4-.71-2.92-2.21-3.67-1.47.79-1.79,2.19-2.18,3.45-1.15,3.79-2.21,7.61-3.26,11.43A2.57,2.57,0,0,1,493,248a2.49,2.49,0,0,1-3.62-1.53A9,9,0,0,1,489,244c-.07-3-.08-6-.1-9,0-1.21,0-2.43,0-3.59-2.14-.8-3.11-.67-3.91.76a8.56,8.56,0,0,0-1,3.06,32.14,32.14,0,0,0,.81,13.41,4.85,4.85,0,0,1,.25,1.19,1.29,1.29,0,0,1-1.19,1.41c-2,.32-3.2-.33-3.86-2.18a26.67,26.67,0,0,1-1.65-8.84C478.32,238.17,478.34,236.13,478.34,233.71Z"/><path d="M500.18,295.41l11.75-.81c.81-2.43,1.78-5.11,2.6-7.84a22.26,22.26,0,0,1,5.11-8.33,5.75,5.75,0,0,1,2-1.41,3,3,0,0,1,3.87,1.4,6.14,6.14,0,0,1,.7,4.36c-.21,1.15-.68,1.62-2.27,1.65a1.91,1.91,0,0,0-1.71.81,6.89,6.89,0,0,0-1.09,1.73c-1,3-1.92,6-2.83,9-.1.33.14.77.28,1.46l2.65-.78a16.89,16.89,0,0,1,2.73-.78,2.46,2.46,0,0,1,2.55,1.67c.34,1-.16,1.93-1.48,2.55-1.11.52-2.27.94-3.39,1.46-1.35.63-2.68,1.31-4,2a23.61,23.61,0,0,0-.53,7.09c0,.82.18,1.64.19,2.46,0,1.64-.55,2.47-1.85,2.76s-2.25-.26-2.77-1.85a30,30,0,0,1-1.38-6,55,55,0,0,1,0-6.16c0-.8,0-1.6,0-2.7-.92.06-1.54,0-2.15.14-2.3.37-4.6.72-6.88,1.18-2.64.53-3.3,1.16-3.14,3.91a61.3,61.3,0,0,0,1.26,7.67c.26,1.39-.2,2.09-1.53,2.28a3.13,3.13,0,0,1-3.67-2,26.84,26.84,0,0,1-1.85-6.27,37.77,37.77,0,0,1,3-21.27c1-2.22,1.82-4.62,3.65-6.39a10.52,10.52,0,0,1,2.58-1.94,2.45,2.45,0,0,1,3,.78,2,2,0,0,1,.34,2.29c-.48,1.13-1,2.22-1.58,3.32a39.92,39.92,0,0,0-3.87,9.93A23.27,23.27,0,0,0,500.18,295.41Z"/><path d="M841,316.34c-1.41.36-1.84,1.56-2.21,2.72a27.74,27.74,0,0,0-1.76,8,3,3,0,0,1-2.89,3.33,2.32,2.32,0,0,1-2.74-1.87,18.78,18.78,0,0,1-.19-3.27c0-3.15.14-6.29.17-9.44,0-1.07-.13-2.13-.2-3.16-3.61-.15-4.38.29-4.87,3.06a39.35,39.35,0,0,0-.45,5.31c-.07,2.32,0,4.65,0,6.57-.41.63-.5.95-.71,1.07-3.24,1.82-4.46,1.35-5-2.17a54.43,54.43,0,0,1-.26-5.73c-.1-1.75.39-3.56-.45-5.37-1.23-.37-2.54-.68-3.78-1.19-.37-.15-.66-.83-.73-1.31,0-.28.35-.76.67-.93a7.73,7.73,0,0,1,2.28-.87c2.72-.41,3.59-2,3.5-4.61a21.78,21.78,0,0,1,.45-4.08,4.71,4.71,0,0,1,2-3,2.49,2.49,0,0,1,4,1.08,10.73,10.73,0,0,1,.48,2.79c.09.81,0,1.65.1,2.45s.76,1.06,1.5,1.09,1.43-.24,1.54-1c.16-1.07.09-2.18.15-3.26a20.56,20.56,0,0,1,.27-3.25,2.65,2.65,0,0,1,2.68-2.11A2.37,2.37,0,0,1,836.9,299a61.1,61.1,0,0,1,1,6.46c.16,1.47.09,3,.12,4.5a4.8,4.8,0,0,0,1.4.08c1.05-.3,2.08-.78,3.18-.26a6.74,6.74,0,0,1,3.34,2.93A26.51,26.51,0,0,1,848,317.6a35.71,35.71,0,0,1,.8,11,1.87,1.87,0,0,1-1.39,1.82,2,2,0,0,1-2.35-1.15,16.06,16.06,0,0,1-1.53-5.92c-.21-1.49-.41-3-.75-4.45A3.26,3.26,0,0,0,841,316.34Z"/><path d="M985.41,377.53c2.45-1.76,4.82-3.36,7.07-5.11a10.89,10.89,0,0,1,4.35-2.21,6.45,6.45,0,0,1,2.43-.17c3.21.57,5.82,2.63,3.31,6.76a18.45,18.45,0,0,1-8,6.84,10,10,0,0,1-4.84.6,2.35,2.35,0,0,0-2.64,1.5,3.37,3.37,0,0,0,.75,3.79,4.77,4.77,0,0,0,3.34,1.36c3.14.07,6.29.25,9.31-1a23.9,23.9,0,0,1,3-.83c.93.59.75,1.18.3,1.79a1,1,0,0,1-.27.3A26.79,26.79,0,0,1,988,395.42a10.1,10.1,0,0,1-3.14-.88,5.66,5.66,0,0,1-3.67-5,11.39,11.39,0,0,1,.52-5.67,2.81,2.81,0,0,0-1-3.63c-1.83-1.4-3.76-2.67-5.9-4.17a7,7,0,0,0-.92,2,60.05,60.05,0,0,0-.12,6.15c.09,2.46.29,4.92.57,7.37a3.61,3.61,0,0,1-2.27,3.94,1.93,1.93,0,0,1-3-1,5.82,5.82,0,0,1-.31-1.6q-.42-8.21-.78-16.41a10.58,10.58,0,0,1,.2-2.45,3.35,3.35,0,0,1,3.07-2.83,9.84,9.84,0,0,1,8.12,1.91C981.26,374.63,983.31,376,985.41,377.53Zm13.55-3c-.72-.07-1.41-.35-1.87-.14a9.75,9.75,0,0,0-4.75,4.18C995.53,378.85,996.92,378,999,374.57Z"/><path d="M788.13,322.46a9.13,9.13,0,0,0-2,.91c-2,1.65-4.37,2.23-6.79,2.71a4.39,4.39,0,0,1-5.38-3.2,12.61,12.61,0,0,1-.29-4.46c.61-5.35,3.18-9.87,6.69-13.8a37.63,37.63,0,0,1,6-5,4.62,4.62,0,0,0,1.9-3,33,33,0,0,1,1.56-5.07c.68-1.7,2.55-2.06,4.08-1a5.4,5.4,0,0,1,2.32,3.69,35.19,35.19,0,0,1-.05,11.45,66.11,66.11,0,0,1-1.94,7.94,11.66,11.66,0,0,0-.3,4.87c.28,2.17.63,4.33.9,6.51a9.49,9.49,0,0,1,0,2.44,2.66,2.66,0,0,1-2.39,1.92,2,2,0,0,1-2-1.23c-.52-1.11-.87-2.3-1.33-3.44C788.89,324.07,788.54,323.36,788.13,322.46Zm-1.41-15.8c-.66.47-1.08.62-1.29.92a52.09,52.09,0,0,0-5.36,10.55,7.91,7.91,0,0,0-.32,2.4,1.09,1.09,0,0,0,1.45,1,6.54,6.54,0,0,0,1.09-.55,11.28,11.28,0,0,0,4.43-14.28Z"/><path d="M678.21,298.61c1.86-1.65,3.43-3,4.91-4.38a8.52,8.52,0,0,1,4.29-2.28c1.41-.27,2.78-.21,3.66,1.15,1,1.57.45,2.85-1.09,4.09l-2.67-.64c-2.62,1.61-4.54,3.75-4.82,7.08a5.13,5.13,0,0,0,1.52,4.48c1.19,1.13,2.24,2.41,3.35,3.62a8.87,8.87,0,0,1,.84.9c.85,1.19,2.39,2.26,1.73,3.91a5.63,5.63,0,0,1-4.38,3.37c-2.8.53-5.07-.73-7-2.57a1.93,1.93,0,0,1,.58-2.82l1.9-.73c-1.35-2.13-2.89-3.93-3.7-6s-.78-4.23-1.18-6.67a13.79,13.79,0,0,0-9.25,1.09A8,8,0,0,0,666,307c.11,3.42.32,6.84.56,10.26a2.64,2.64,0,0,1-.82,2.59,2.5,2.5,0,0,1-3.89-.66,14.62,14.62,0,0,1-1.49-4.62,61.55,61.55,0,0,1-.37-7.8c0-4.25,0-8.51.37-12.74a63.11,63.11,0,0,1,1.7-8.42,2.26,2.26,0,0,1,2.59-1.52c1.4.1,2.62,1,2.58,2.17,0,1.36-.28,2.72-.44,4.08a16.62,16.62,0,0,0-.07,6.34,7.2,7.2,0,0,0,2,0C672.09,295.57,675.21,295.81,678.21,298.61Z"/><path d="M619.91,340.63c-4.93-3.23-6.07-7.6-3.35-13.24l1.53,2.32c.29-.24.63-.38.65-.56q.71-6.31,1.33-12.64c.09-.94,0-1.88,0-2.78-1.61-.6-2.63.33-3.7.72a15.65,15.65,0,0,1-6,1c-3.13-.14-4.71-1.87-4.64-5a12.86,12.86,0,0,1,1.57-5.89,28,28,0,0,1,9.27-10.26,6,6,0,0,1,9,2.28,15.9,15.9,0,0,1,1.65,10.77c-1.69,8.35-1.94,16.86-2.89,25.29-.14,1.22-.24,2.45-.36,3.68A4.42,4.42,0,0,1,619.91,340.63Zm.38-42.74c-4.26,2.57-6.68,6.32-8.71,10.36a2.2,2.2,0,1,0,3.06,3.08,24.9,24.9,0,0,0,5.69-4C623.37,304.57,623.45,301.6,620.29,297.89Z"/><path d="M927.36,408.28a31.68,31.68,0,0,0,1.81-4.43c1.27-5.32,2.4-10.68,3.58-16,.35-1.6.69-3.21,1-4.82a6.28,6.28,0,0,0,.08-1.62c0-.23-.26-.45-.52-.85-1.93.39-3.74,1.38-5.67,2a18.89,18.89,0,0,1-4.38.87c-2.18.14-3.31-1-3.23-3.26a5.82,5.82,0,0,1,.83-3.08,43.1,43.1,0,0,1,4.75-5.61c2.47-2.4,5.73-3,9-3.48,4.43-.6,8.38,5.85,6.47,9.14-1.29,2.22-1.48,4.66-2,7.07-1.42,7.1-2.63,14.26-4.87,21.18a26.22,26.22,0,0,1-2.3,5.23,9.74,9.74,0,0,1-2.83,2.89c-1.82,1.26-3.52.91-5.2-.61a7.66,7.66,0,0,1-2.43-7.81,2.47,2.47,0,0,1,1.23-1.45c.72-.35,1.27.25,1.61.89C925,405.76,925.25,407.35,927.36,408.28Zm-.44-29.82c2.81-.67,5.36-1.72,7.18-4,.21-.27.34-.95.19-1.08-.35-.32-1-.69-1.34-.57A10.91,10.91,0,0,0,926.92,378.46Z"/><path d="M444.52,292.48c4.51-.23,4.51-.23,6.84,3.73,1.48-.6,2.07-2.11,3.11-3.13,2.46-2.44,5.31-3.87,8.83-3.48a7.65,7.65,0,0,1,3,1,3.57,3.57,0,0,1,1.38,1.92,2.32,2.32,0,0,1-.44,1.81,1.51,1.51,0,0,1-1.46.15c-2.11-1.15-4-.5-5.79.66a7.73,7.73,0,0,0-2.49,2.63c-1.82,3.38-3.57,6.83-2.66,10.91a5.57,5.57,0,0,1,0,1.63,7.25,7.25,0,0,1-.26,1,4.56,4.56,0,0,1-1.13.8c-2.74.94-4,.35-4.35-2.43a38.47,38.47,0,0,0-2.7-9.85,6.58,6.58,0,0,0-.5-1.11.92.92,0,0,0-.65-.41c-.37.06-1,.23-1,.47a18.11,18.11,0,0,0-.72,4c-.07,2.6.14,5.2.1,7.8,0,2.11-.33,2.31-3.13,3.07a6.39,6.39,0,0,1-2.07-4.64c-.19-1.9-.29-3.82-.45-5.72-.07-.8-.2-1.6-.32-2.51l-3.33-1a2.16,2.16,0,0,1,.88-3.05c2.52-1.47,2.88-3.77,2.85-6.33,0-1.91-.07-3.83.07-5.74a10.79,10.79,0,0,1,.8-3.55,3,3,0,0,1,3-1.82,3.14,3.14,0,0,1,2.7,2.71,24.94,24.94,0,0,1-.1,3.66c-.1,1.77-.27,3.54-.33,5.32A5.64,5.64,0,0,0,444.52,292.48Z"/><path d="M460.17,366.94c-.78-.64-1.72-1.1-2.11-1.85a3.54,3.54,0,0,1,.1-2.37,2.17,2.17,0,0,1,2.06-1.72c1.16,0,2.27.25,2.69,1.47a59.72,59.72,0,0,1,1.93,6.27,18,18,0,0,1-1,11.26,14.15,14.15,0,0,1-7.63,7.61,3.38,3.38,0,0,1-4.44-.91,37.46,37.46,0,0,1-3-4.85,21.88,21.88,0,0,1-1.06-2.62,10.46,10.46,0,0,0-1.73,1.82,13.36,13.36,0,0,1-9.55,6.89,4.45,4.45,0,0,1-2.56-3.64,50.22,50.22,0,0,1-.74-8.16,113,113,0,0,1,1.58-11.37,5,5,0,0,1,1-2.19,2.32,2.32,0,0,1,4,.79,8.81,8.81,0,0,1,.08,3.24c-.39,2.71-1.08,5.38-1.34,8.09a55.77,55.77,0,0,0,.06,7c0,.33.41.66.78,1.22a11.36,11.36,0,0,0,1.78-1.61c2.36-3.3,3.35-7.16,4.24-11,.25-1.07.32-2.18.64-3.22a2.55,2.55,0,0,1,2.49-2,6.28,6.28,0,0,1,2.41,4.38c.2,1.91.35,3.82.55,5.73a12.53,12.53,0,0,0,2.89,7.12,2.2,2.2,0,0,0,3.55.1,10.14,10.14,0,0,0,2.78-4.93A21.32,21.32,0,0,0,460.17,366.94Z"/><path d="M560.08,232.25a27.92,27.92,0,0,1,2.37-2.17c3.56-2.54,7.43-1.37,8.92,2.73a22,22,0,0,1,1.61,8.42c-.12,3.28-.13,6.57-.24,9.86,0,1.53-.26,1.69-2.64,2.65-1.57-1.33-1.92-3.19-2-5.12s.11-4.13,0-6.17a40.16,40.16,0,0,0-1-6c-.16-.69-.92-1.23-1.47-1.92a8.27,8.27,0,0,0-3.1,4.45c-1.39,3.85-3.14,7.63-2.69,11.91a4.43,4.43,0,0,1-.25,1.6,2.6,2.6,0,0,1-2.54,1.74,2.09,2.09,0,0,1-2.23-1.46,14,14,0,0,1-.59-3.21,143.6,143.6,0,0,1,.91-31.56,17.13,17.13,0,0,1,.71-3.19,2.9,2.9,0,0,1,2.43-2c1.73-.25,3.11.74,3,2.46-.15,2.59-.53,5.17-.84,7.75s-.66,5.16-.92,7.75C559.47,231.17,559.83,231.62,560.08,232.25Z"/><path d="M522.85,452.39c-1.08,1.05-1.75,1.72-2.44,2.38a14,14,0,0,1-1.53,1.36c-3.18,2.12-5.37,1.23-6.34-2.49-1.07-4.14-1.7-8.29-.79-12.56a37,37,0,0,0,.34-4.09c.24-2.24,1.27-3.49,2.77-3.44,1.66.06,2.76,1.56,2.65,3.93-.09,1.91-.41,3.81-.62,5.71a11.17,11.17,0,0,0,.64,6.37c.6-.59,1.17-.93,1.4-1.43a14.81,14.81,0,0,0,.81-2.73c.3-1.32.53-2.66.74-3.71,1.07-1.09,1.68-.19,2.41,0a6.8,6.8,0,0,0,2-.09c1.48,1.93,1.54,4.36,2.41,6.49a23.14,23.14,0,0,0,3.58,6.3c.52-.69,1.07-1.12,1.2-1.66a23.85,23.85,0,0,0,.73-4.42,42.23,42.23,0,0,0-1.92-14.16,15.79,15.79,0,0,1-.61-2.79,2.07,2.07,0,0,1,1.5-2.17,2.39,2.39,0,0,1,2.32,1.37c.22.49.31,1,.49,1.56a13.47,13.47,0,0,0,.83,2.31c2.82,5,2.73,10.49,2.46,16a16.49,16.49,0,0,1-.69,3.2c-1,3.8-3.89,5.39-7.31,6.39a2.32,2.32,0,0,1-2.82-1.1c-.86-1.4-1.72-2.8-2.6-4.18C524,454.05,523.56,453.41,522.85,452.39Z"/><path d="M548.1,435.72c1.25.11,2.31.28,3.37.28,3.07,0,4.79,1.89,5.74,4.46a29.88,29.88,0,0,1,1.19,5.59c.44,2.84.73,5.69,1.16,8.53a27.91,27.91,0,0,0,.8,3.18c.77,2.72.77,2.72-2.17,4.34a5,5,0,0,1-2.53-3.44c-.36-1.73-.56-3.5-.77-5.26-.3-2.44-.41-4.91-.85-7.32a10.87,10.87,0,0,0-1.55-3.27,1.13,1.13,0,0,0-1.93.35,10.39,10.39,0,0,0-.31,2c-.31,3-.51,6-1,9a17.37,17.37,0,0,1-1.56,4.62,5.51,5.51,0,0,1-2,2c-1.55,1.06-3,.54-3.5-1.22a13.52,13.52,0,0,1-.43-3.24c-.16-7.25-.51-14.49.42-21.73.39-3.1.23-6.28.43-9.42a11.89,11.89,0,0,1,.74-3.54,2,2,0,0,1,2.28-1.37,2.09,2.09,0,0,1,1.88,1.9,57,57,0,0,1,.5,5.69C548.16,430.29,548.1,432.74,548.1,435.72Z"/><path d="M607.33,389.11a70.25,70.25,0,0,0-.58,15,4.19,4.19,0,0,1-1.63,4.33,1.82,1.82,0,0,1-3-.83,15.9,15.9,0,0,1-.71-3.62c-.16-2.18-.26-4.38-.21-6.57.11-4.38.27-8.76.54-13.13a40.8,40.8,0,0,1,.86-5.68c.69-3.49,1.46-7,2.25-10.43a13.48,13.48,0,0,1,.87-2.72,3,3,0,0,1,2.18-1.69,7.72,7.72,0,0,1,7.26,1.82,14.79,14.79,0,0,1,5.19,10.8,4.84,4.84,0,0,1-.36,2.4c-1.72,3.46-3.69,6.71-7.59,8.18C610.64,387.67,608.91,388.45,607.33,389.11Zm.26-3.88a11.23,11.23,0,0,0,4.67-2.52,7.38,7.38,0,0,0,.6-10.85c-1.18-1.32-2.63-1.09-3.06.61-.92,3.56-1.7,7.16-2.47,10.75A7.16,7.16,0,0,0,607.59,385.23Z"/><path d="M942,266c-2,.3-2.58,1.48-3.35,2.38-2.55,3-5.93,4.21-9.71,4.74a3.47,3.47,0,0,1-4-2.68,11.86,11.86,0,0,1-.46-4.05c.54-7,2.84-13.34,7.74-18.56,1.83-2,5.51-2.84,7.92-1.66s4.68,2.68,7.06,4.07c0,1.77,0,3.4,0,5-.07,2-.31,4.1-.36,6.14-.06,2.95.5,5.74,2.56,8,.92,1,.91,2,.3,2.54a2.73,2.73,0,0,1-3.73.26,15.7,15.7,0,0,1-1.92-2.63C943.36,268.4,942.73,267.2,942,266Zm-11.77,3.45c4.69-2.3,9-7.32,10.32-11.61a6.5,6.5,0,0,0-.31-4.41c-.59-1.5-1-3.18-3-3.78-3.34,1.56-4.46,4.89-5.54,8.05C930.45,261.32,928.66,265,930.27,269.42Z"/><path d="M471.82,456.78a11.69,11.69,0,0,0,1.72-1.43c.82-1.09,1.5-2.29,2.31-3.39a1.19,1.19,0,0,1,1-.38,1.1,1.1,0,0,1,.66.85,9.58,9.58,0,0,1-5.41,7.7c-1.87.95-3.38.38-4.59-1.31-.55-.78-1.09-1.56-1.66-2.33-.07-.1-.23-.14-.6-.34-.54.37-1.2.8-1.83,1.27-.88.66-1.69,1.42-2.61,2-2,1.22-3.76.85-5.49-.83a8,8,0,0,1-2.56-5c-.35-3-.84-6-1.14-8.95a12.78,12.78,0,0,1,.29-3.25c.3-1.76.79-3.48,1-5.24a6.47,6.47,0,0,1,2.41-4.16,1.89,1.89,0,0,1,3.2.95,9.24,9.24,0,0,1-.08,2.82c-.39,3.12-.93,6.23-1.24,9.36a16.39,16.39,0,0,0,1.9,10.15,9.43,9.43,0,0,0,1.62-1.24,19.42,19.42,0,0,0,4.07-10.16c.4-3.25.84-6.51,1.38-9.75a10.72,10.72,0,0,1,1.11-3.06,1.67,1.67,0,0,1,2.78-.08,5,5,0,0,1,1,3.83c-.52,3.38-.89,6.78-1.27,10.18a24.08,24.08,0,0,0,.83,9.36A18.59,18.59,0,0,0,471.82,456.78Z"/><path d="M746.27,324.13c-1.37.89-2.57,1.15-3.48.56a7,7,0,0,1-1.93-2.53,25,25,0,0,1-1.27-3.27c-.88.67-1.54,1.09-2.12,1.62a13.23,13.23,0,0,1-6.52,3.25c-3.2.66-5.8-.68-6.57-3.83a12.22,12.22,0,0,1-.18-4.47,23.22,23.22,0,0,1,8.09-14.78c.82-.72,1.83-1.24,2.6-2a3.52,3.52,0,0,1,4.84-.47c.93.57,1.84,1.18,2.75,1.78a5.36,5.36,0,0,1,2.55,4.45c.1,1.91.36,3.83.29,5.73a50.16,50.16,0,0,0,.83,11.86A15.34,15.34,0,0,1,746.27,324.13ZM738.11,303c-4.23,2.78-6.3,6.58-7.72,10.75a16.86,16.86,0,0,0-.59,4.84,1.48,1.48,0,0,0,2,1.35,6.28,6.28,0,0,0,1.8-.93,18,18,0,0,0,5.29-7.2,11.18,11.18,0,0,0,.33-7.25C739.13,304.06,738.65,303.68,738.11,303Z"/><path d="M591.73,455.55c0,1,.18,1.64,0,2a11.72,11.72,0,0,1-4.8,4.89c-1.95,1-3.28.76-4.72-.93a13.88,13.88,0,0,1-1.67-2.77c-.54-1.08-1-2.23-1.37-3.23-1.34-.35-1.94.53-2.62,1.13a19.61,19.61,0,0,1-7.57,3.9,8,8,0,0,1-2,.31,2.69,2.69,0,0,1-2.93-2.31,12.44,12.44,0,0,1,.3-6.87,30.21,30.21,0,0,1,8-12.19,8.11,8.11,0,0,1,5.69-1.94,4.61,4.61,0,0,1,4.12,2.25,10.68,10.68,0,0,1,2.06,6.47c-.12,2.18-.13,4.37-.17,6.55a18.36,18.36,0,0,0,0,2.46c.26,2.22,1.69,3.08,3.74,2.23C588.9,457.06,590,456.44,591.73,455.55Zm-22.25.18a9.92,9.92,0,0,0,2.33-1.13A17.78,17.78,0,0,0,577.1,447a26.06,26.06,0,0,0,.79-3.16,1.06,1.06,0,0,0-1.4-1,3.64,3.64,0,0,0-1.35.84,33.11,33.11,0,0,0-5.83,10.27A5.9,5.9,0,0,0,569.48,455.73Z"/><path d="M899.86,375.13c1.85.3,2.87-.83,4.13-1.26a8.55,8.55,0,0,1,2.74-.49,1.79,1.79,0,0,1,1.67,1.56,1.86,1.86,0,0,1-.76,2.17A37.76,37.76,0,0,1,904,379c-.74.35-1.54.58-2.31.86a3.12,3.12,0,0,0-2.28,3.45c.21,3.28.34,6.57,2.31,9.34-2.39,2.42-4.74,2.24-5.92-.42a22.66,22.66,0,0,1-1.49-4.69,46.58,46.58,0,0,1,2.11-25.45,34.82,34.82,0,0,1,4-7.14c1.17-1.76,3.14-2.61,5.09-3.32a3.38,3.38,0,0,1,3.1.69,8.21,8.21,0,0,1,2,10.95,1.33,1.33,0,0,1-1,.49,1.24,1.24,0,0,1-.94-.62c-.34-.88-.44-1.86-.78-2.74a22.29,22.29,0,0,0-1.36-2.55c-3.22,1.46-3.85,4.5-5,7A19.62,19.62,0,0,0,899.86,375.13Z"/><path d="M637.66,286.31c4.31,4.27,3.13,10.14,4.18,15.43a3.44,3.44,0,0,0,1.26,0c1.12-.53,2.17-1.17,3.47-.48,1.47.78,2.94,1.52,3.48,3.28a83.79,83.79,0,0,1,2.49,8.24c.5,2.46,1,4.63,3.76,4.76A2.41,2.41,0,0,1,655,320.3a9.29,9.29,0,0,1-2.61,1,2.22,2.22,0,0,1-1.45-.62,9.66,9.66,0,0,1-2.94-4.84c-.51-1.56-.87-3.17-1.43-4.71a12.76,12.76,0,0,0-1.49-2.23c-1.29,2.41-2.54,4.35-3.14,6.6a3.5,3.5,0,0,1-2.8,2.65,2.56,2.56,0,0,1-3.21-1.8,14.27,14.27,0,0,1-.28-2.85c-.08-3.15,0-6.31-.2-9.45-.25-4.1-.69-8.18-1.05-12.27-.06-.68-.23-1.36-.26-2C634.07,287.33,634.55,286.85,637.66,286.31Z"/><path d="M608.94,247c-1.06,1-1.88,1.93-2.8,2.7-1.56,1.32-3.1,2.71-5.39,2.56-2-.13-3.07-.86-3.62-2.74a19.52,19.52,0,0,1-.83-7.32,62.64,62.64,0,0,1,2.42-13.31,7,7,0,0,1,1.43-2.43,2.26,2.26,0,0,1,2.65-.53,1.86,1.86,0,0,1,1.19,2,47,47,0,0,1-.44,4.89c-.52,3.38-1.17,6.74-1.66,10.13a13,13,0,0,0,.15,2.67,1.39,1.39,0,0,0,1.93-.61,37.57,37.57,0,0,0,5.51-12.74,14.35,14.35,0,0,1,1.11-3.49,2,2,0,0,1,3.45-.27,3.5,3.5,0,0,1,.84,3.44c-1.2,4.33-.73,8.71-.41,13.08a15.9,15.9,0,0,0,1,3.93c.54,1.59.43,2.67-.57,3.22a3,3,0,0,1-4.23-1.17c-.36-.73-.56-1.54-.87-2.3C609.57,248.16,609.31,247.71,608.94,247Z"/><path d="M752.69,326.14a4.44,4.44,0,0,1-2.6-4.14q-.35-5.73-.91-11.45c-.17-1.76-.61-3.49-.82-5.25a9.49,9.49,0,0,1-.05-3.23,3.08,3.08,0,0,1,1.48-1.76,2,2,0,0,1,2.55.72c.81,1.08,1.51,2.25,2.22,3.33,1,.13,1.24-.53,1.6-1.1a12.25,12.25,0,0,1,1.4-2,3.31,3.31,0,0,1,4.12-.65,7.79,7.79,0,0,1,3.38,2.88,15.33,15.33,0,0,1,2.41,7.32c.29,4.22.64,8.45,1,12.67.1,1.28-.27,1.95-1.26,2.21a2.14,2.14,0,0,1-2.52-.83,5.7,5.7,0,0,1-.77-1.88c-.37-2.15-.64-4.32-.94-6.48s-.61-4.6-1-6.9c-.17-1.12-.24-1.11-2-2.72-.37.55-.92,1-1,1.58-.84,4-1.6,8-2.38,12-.05.27-.06.55-.09.82C756.09,324.34,756.09,324.34,752.69,326.14Z"/><path d="M492.81,312.41c.23.87-.06,1.54-.78,1.73-2.63.72-5.14.77-7.16-1.55-.79-.92-1.73-1.71-2.74-2.69-1.08.42-2.1.76-3.06,1.22a30.1,30.1,0,0,1-7.41,2.38c-2.68.53-4.36-.49-4.82-3.6a13.56,13.56,0,0,1,1-7.26,25.11,25.11,0,0,1,9-10.89,5.55,5.55,0,0,1,8.63,2.83A33.65,33.65,0,0,1,486.6,301c.14,1.08,0,2.19,0,3.29.2,3.57,1.53,6.37,5.26,7.49A3.33,3.33,0,0,1,492.81,312.41Zm-19.62-3.33a10.3,10.3,0,0,0,6.76-5.65,6.53,6.53,0,0,0-.32-6.77c-3.35,2.35-3.47,3.37-5.81,7.67A5.17,5.17,0,0,0,473.19,309.08Z"/><path d="M757.12,254c.25-.62.5-1.24.73-1.86l4.68-12.23a4.34,4.34,0,0,1,3.53-3,1.91,1.91,0,0,1,2.37,1.68,7,7,0,0,1-.16,2.81,43.73,43.73,0,0,1-2.08,5.34,58.51,58.51,0,0,0-4.43,13.19,13.56,13.56,0,0,1-.63,2.37,3.15,3.15,0,0,1-4,1.8c-.39-.11-.77-.54-1.1-.49-3.42.47-4.28-1.74-4.6-4.4a46.26,46.26,0,0,1-.55-7.32c.22-5.32.71-10.64,1.09-15.95.15-2.11,1.26-3.16,3.07-2.9a2.47,2.47,0,0,1,2.32,2.46,72.28,72.28,0,0,1,0,7.36c-.09,2.05-.46,4.08-.58,6.13-.1,1.62,0,3.26,0,4.89Z"/><path d="M851.49,321.63a6.65,6.65,0,0,1,1.14-4.29,29.9,29.9,0,0,1,10.88-9.8,9.24,9.24,0,0,1,6-.72c3.38.6,4.8,3.35,3.31,6.46a11.4,11.4,0,0,1-2.32,3.36,49.62,49.62,0,0,1-5.41,4.39,7.64,7.64,0,0,1-2.68.89c-1.2.28-2.43.41-3.64.67-.64.13-.88,1.33-.31,1.66A8,8,0,0,0,861,325.4c4,.72,8.1,1.29,12.18,0a14.29,14.29,0,0,1,3.65-.41,1.15,1.15,0,0,1,.92.58,1.11,1.11,0,0,1-.33,1c-3.51,1.85-7,3.87-11.19,3.49-1.49-.13-3,0-4.52,0a18.8,18.8,0,0,1-3.27-.23C854.19,329,851.48,326.69,851.49,321.63ZM868.16,311a20.63,20.63,0,0,0-6.81,4.58.61.61,0,0,0-.22.34c0,.37-.17.89,0,1.07a1.18,1.18,0,0,0,1.1.19c1.78-1.27,3.52-2.57,5.2-4C867.77,312.94,867.76,312.27,868.16,311Z"/><path d="M741.19,450.49c-.17,1.83-.43,3.58-.48,5.33-.08,2.87,0,5.75-.06,8.62a22.18,22.18,0,0,1-.21,3.27,2.6,2.6,0,0,1-2.31,2,2.33,2.33,0,0,1-2.18-1.55,8.06,8.06,0,0,1-.48-2c-.19-2-.35-4.09-.45-6.13-.14-2.71.17-5.45-.35-8.33-1-.28-1.86-.49-2.72-.8a1.19,1.19,0,0,1-.61-2c1.09-1,2.28-1.92,3.78-3.18.19-1.5.49-3.38.66-5.27.31-3.27.5-6.54.82-9.8a10.23,10.23,0,0,1,.69-2.77c.59-1.48,1.66-2.14,2.79-1.89a3.07,3.07,0,0,1,2.56,2.81,47.34,47.34,0,0,1-.23,5.32c-.18,2.45-.47,4.9-.65,7.35a14.5,14.5,0,0,0,.2,2.24,10.5,10.5,0,0,0,2.42.05c1.2-.25,2.34-.76,3.53-1.07a2.36,2.36,0,0,1,2.78,1.23,2.08,2.08,0,0,1,.06,1.86,9.13,9.13,0,0,1-2.86,2.21C745.9,449,743.8,449.57,741.19,450.49Z"/><path d="M892.2,253c1.94-2.26,2-4.89,2.37-7.44.75-4.86,1.6-9.71,2.41-14.56a6.59,6.59,0,0,1,2.57-4.06,1.94,1.94,0,0,1,3.09.68,4.46,4.46,0,0,1,.44,2.34c-.41,3.11-1,6.2-1.46,9.3-.39,2.56-.78,5.12-1.08,7.69a7.77,7.77,0,0,0,.35,2.1,16.66,16.66,0,0,1,2.15-.09,8.33,8.33,0,0,1,2.34.48,1.94,1.94,0,0,1,1.2,2,2,2,0,0,1-1.34,1.89c-.88.34-1.82.57-2.73.85l-2.37.73a28.47,28.47,0,0,0-.9,8.2c.1,2.32.26,4.64.34,7a3.17,3.17,0,0,1-3,3.64,2,2,0,0,1-1.72-.7,11.09,11.09,0,0,1-1.24-3.84,62.94,62.94,0,0,1-.14-7.77C893.59,258.45,894,255.57,892.2,253Z"/><path d="M949.64,323.45c-1.71,1.06-3.06,2-4.49,2.75a15.49,15.49,0,0,1-3.38,1.38,3.12,3.12,0,0,1-3.92-2.08,9.07,9.07,0,0,1-.58-2.78c-.27-4.68.55-9.27,1.26-13.85a8.75,8.75,0,0,1,1.53-3.31,2.09,2.09,0,0,1,3.64.51,7.29,7.29,0,0,1,.46,2.8c-.16,2.44-.52,4.88-.75,7.32-.16,1.62-.27,3.25-.27,4.88,0,.2,1,.7,1.25.55a6.19,6.19,0,0,0,1.79-1.63,29.77,29.77,0,0,0,5.45-11.36,19.57,19.57,0,0,1,.75-2.75,2.26,2.26,0,0,1,2.25-1.45c1.2.17,2.57,1.27,2.57,2.3a8.86,8.86,0,0,1-.49,3.2c-1.78,4.53-1.1,9.15-.59,13.76a3.25,3.25,0,0,0,2,2.81c1,.46.73,2.17-.24,2.71a5,5,0,0,1-.75.33c-3.26,1.21-4.82.55-6.13-2.63-.21-.5-.32-1.05-.52-1.55S950.09,324.39,949.64,323.45Z"/><path d="M901.23,310.33c1-.63,1.42-.92,1.88-1.2a3,3,0,0,1,3.14-.15c2.13,1.31,4,2.92,4.16,5.7a61.38,61.38,0,0,1-.7,12.26c-.13.94-.88,1.63-1.66,1.39-.57-.16-1.35-.69-1.44-1.17-.45-2.41-.72-4.86-1-7.29-.19-1.46,0-3-1.2-4.47-.48.39-1,.62-1.2,1-1,2.38-2.51,4.57-2.85,7.21-.32,2.48-1.8,3.54-4.21,3.44a3.53,3.53,0,0,1-1.76-3.07c-.06-.95-.05-1.91,0-2.87.13-4.65.31-9.29.39-13.94,0-1.91-.14-3.83-.21-5.74a28,28,0,0,1-.07-4.09,5.57,5.57,0,0,1,1-2.58,2.19,2.19,0,0,1,4,.42,14.45,14.45,0,0,1,1.14,4.32c.25,2.45.2,4.92.31,7.38C900.94,307.82,901.07,308.74,901.23,310.33Z"/><path d="M458.57,230.33c-.22,2.61-.41,4.25-.48,5.89-.19,4.71-6.28,11-11.39,10.62a5,5,0,0,0-1.64.11c-2.49.66-3.93-.7-4.93-2.66a11.08,11.08,0,0,1-1.3-5.55,18.58,18.58,0,0,1,1.57-7.6,88.87,88.87,0,0,1,5.05-8.92A14,14,0,0,1,449,218.9a2.5,2.5,0,0,1,3.07.1,27.73,27.73,0,0,1,5,4.8,5.74,5.74,0,0,1,1.12,2.6A38.39,38.39,0,0,1,458.57,230.33Zm-6.73-6.27a12.41,12.41,0,0,0-1.67,1.23,25,25,0,0,0-5.77,11.54,12.23,12.23,0,0,0,0,4,1.94,1.94,0,0,0,3.08,1.44c2.93-1.89,5.39-4.37,6-7.9A17.38,17.38,0,0,0,451.84,224.06Z"/><path d="M776.94,257.78c-.66,1.75-.12,2.73,1.17,3.34a6.08,6.08,0,0,0,4.77.08c2.67-.94,5.36-1.79,7.9-2.62.89.77.8,1.54.32,2a15.2,15.2,0,0,1-2.88,2.23c-3.38,2-7.2,2.53-11,2.9a5.68,5.68,0,0,1-6.2-4.78,10.08,10.08,0,0,1-.15-4.05c1.71-7.52,5.75-13.17,13.26-15.88a12.41,12.41,0,0,1,1.58-.46,5.05,5.05,0,0,1,6.21,5.84A8,8,0,0,1,789.5,251a23.49,23.49,0,0,1-9.3,5.8C779.17,257.17,778.12,257.44,776.94,257.78Zm10.63-13.23a15.94,15.94,0,0,0-7.18,5.06c-.6.66-1.49,1.28-1,2.62,1.77.21,3-1,4.2-2C785.24,248.93,787,247.57,787.57,244.55Z"/><path d="M529.2,229.25A27.61,27.61,0,0,0,530,232a3.54,3.54,0,0,1-1.26,4.36,21.19,21.19,0,0,1-10,4.27c-2.43.46-3.4,1.45-3.55,3.68a2.32,2.32,0,0,0,1.67,2.51,15.52,15.52,0,0,0,8.88,0c2.92-.69,5.82-1.5,8.74-2.23.76-.19,1.6-.53,2.32.65a3.9,3.9,0,0,1-.84,1.07c-5,3.12-10.21,5.21-16.25,4.63a35,35,0,0,0-4.09.06c-3.35.08-5.06-1.36-5.57-4.63a10.72,10.72,0,0,1,.69-6.44c2.43-5,5.49-9.4,10.81-11.86C524.31,226.87,526.74,226.54,529.2,229.25Zm-5.41,4.3-.38-.48c-.1.09-.27.17-.29.27a3.44,3.44,0,0,0,.06.63Z"/><path d="M652.57,375.58a6.9,6.9,0,0,0-2,4.7c-.32,3.4-.65,6.8-1.07,10.19a4.35,4.35,0,0,1-.91,2.2,2.3,2.3,0,0,1-4-.54,9.25,9.25,0,0,1-.79-3.14c-.29-5.05-.5-10.11-.69-15.16a9.37,9.37,0,0,1,1.27-5.11,1.46,1.46,0,0,1,2.11-.54c.86.66,1.62,1.43,2.58,2.29.54-.15,1.19-.3,1.82-.52,3.09-1,5.67-.32,7.53,2.31a15.79,15.79,0,0,1,1.85,3.64,44.53,44.53,0,0,1,2.55,12,11,11,0,0,1-.3,3.23,2,2,0,0,1-1.79,1.47,1.68,1.68,0,0,1-1.79-1.4c-.42-1.58-.69-3.2-1-4.81s-.61-3.51-1-5.24A8.51,8.51,0,0,0,652.57,375.58Z"/><path d="M960.75,252.61c2,.54,3.43-.19,4.88-.52,2.2-.5,3.81.09,4.14,1.49.29,1.23-.47,2.49-2.48,3.33a26.55,26.55,0,0,1-4.73,1.15c-1.82.38-2.35.87-2.47,2.71a38.8,38.8,0,0,0,1.17,11c.15.66.46,1.3.55,2a1.71,1.71,0,0,1-1.23,1.9,3.09,3.09,0,0,1-3.69-1,6.87,6.87,0,0,1-1.13-2.16,25.74,25.74,0,0,1-.94-4.4,114.64,114.64,0,0,1-.31-22.15c.16-1.77.21-3.55.29-5.33a11.59,11.59,0,0,1,1.7-5.43,1.9,1.9,0,0,1,2.52-.68,3.47,3.47,0,0,1,2.11,3.25c0,1.77-.09,3.55-.18,5.33-.11,2.32-.3,4.65-.39,7A22.41,22.41,0,0,0,960.75,252.61Z"/><path d="M435.05,246.76a9.4,9.4,0,0,1-1.55.37c-2.08.05-2.94-.43-3.29-2.26a50.16,50.16,0,0,1-.9-7.31c-.15-4.1,0-8.2-.07-12.3,0-1.19-.1-2.38-.15-3.47-2.53-.76-4.71,1.4-7.27,0a6.18,6.18,0,0,1,.86-1.82,17.45,17.45,0,0,1,2.89-2.24c2-1.23,4-2.27,5.32-4.37a2.29,2.29,0,0,1,3.22-.87,4.67,4.67,0,0,0,4.32-.09,13.13,13.13,0,0,1,5.59-1.09,2.26,2.26,0,0,1,2.38,1.83,2.2,2.2,0,0,1-1.16,2.77,25.87,25.87,0,0,1-5,1.74c-4.53.91-4.74,1.3-5,6.38a131.13,131.13,0,0,0,.05,20.88A10.7,10.7,0,0,1,435.05,246.76Z"/><path d="M576.85,244.2c-.3-4.21,1.63-8,2.21-12.06a3.87,3.87,0,0,1,1-1.76,10.37,10.37,0,0,1,5.62-3.17c2.85-.7,5.32,1,6.13,4.14a41.29,41.29,0,0,1,1.26,11.35,13.74,13.74,0,0,1-4.3,9.07c-2.06,2.09-4.77,2.6-7.55,2.56a3.39,3.39,0,0,1-2-1.23,8.17,8.17,0,0,1-2.08-4.81C577,246.93,576.93,245.56,576.85,244.2ZM586,231a15,15,0,0,0-1.35,2.66q-1.14,5.17-2.11,10.38a11.42,11.42,0,0,0-.1,3.25c.06.55.57,1.06.89,1.61,3-2.12,3.82-3.23,4.31-6.76S588.89,234.87,586,231Z"/><path d="M767.18,370.54c1.18-1,2.31-2,3.49-2.9a4,4,0,0,1,4.26-.51,7.42,7.42,0,0,1,4.54,4.44,21.51,21.51,0,0,1,1.25,9.72,90.14,90.14,0,0,0-.73,10.65,6.31,6.31,0,0,1-.46,2.39,1.68,1.68,0,0,1-1.2.9,1.8,1.8,0,0,1-1.31-.8,4.18,4.18,0,0,1-.58-1.93c-.12-2.46-.14-4.92-.21-7.38s0-4.94-.23-7.39a5.77,5.77,0,0,0-3.26-5.08c-2.35.83-3,3-3.51,5.05-.53,2.26-.81,4.58-1.15,6.89-.24,1.62-.36,3.27-.59,4.9a2.92,2.92,0,0,1-2,2.4,2.31,2.31,0,0,1-3.35-1.89,24.77,24.77,0,0,1-.1-2.86c-.09-4.11-.19-8.22-.26-12.32a15.36,15.36,0,0,1,.13-2.45,1.82,1.82,0,0,1,1.63-1.62C764.76,370.6,766,370.6,767.18,370.54Z"/><path d="M646,455.78a19.85,19.85,0,0,1,5.33-13.85,9.29,9.29,0,0,1,6-3.33c1.72-.18,2.84.49,2.73,2.15a3.75,3.75,0,0,0,1.56,3.55c1.65,1.21,2,2.84,2,4.69,0,3.75-.4,7.36-2.65,10.57-1.29,1.84-2.62,3.47-4.93,4.06-1.32.34-2.54,1.05-3.85,1.39-2.44.63-3.87-.1-5-2.4A14.94,14.94,0,0,1,646,455.78Zm8.87-9.94c-2.94,3.34-4.32,9-3.24,12.74a1.4,1.4,0,0,0,2,.77c2.72-2.28,4.6-5,4.78-8.71a3.49,3.49,0,0,0-1.59-3.52C656.12,446.71,655.48,446.25,654.85,445.84Z"/><path d="M428.18,448.17c.23-7.14,2.67-12.44,7.29-16.73a11.21,11.21,0,0,1,2.37-1.6c2.46-1.3,4-.51,5.68,1.53a2.45,2.45,0,0,1,.33,1.92,6.08,6.08,0,0,0,2.06,6.58,5.25,5.25,0,0,1,1.32,2.92c.7,4.63-.41,8.69-4.23,11.71a6.61,6.61,0,0,1-2.15,1.13c-1.55.48-3.14.88-4.73,1.21-1.17.24-2.4.88-3.57.07-1.46-1-2.95-2.13-3.45-3.92A44.17,44.17,0,0,1,428.18,448.17ZM437.33,436a19.68,19.68,0,0,0-3.53,6.65,13,13,0,0,0-.31,7.65c.58,2.08,2,2.78,4.08,2.08a7.22,7.22,0,0,0,4.68-6.57c.14-2.52-.76-4.82-1.67-7.09A4.84,4.84,0,0,0,437.33,436Z"/><path d="M493.4,378.38a7.08,7.08,0,0,1-4.15,5.07,23.56,23.56,0,0,1-10.64,2.77c-.41,0-.82,0-1.23,0-4.74-.28-6.66-2.45-6.27-7.15.1-1.21.28-2.42.46-3.88a34,34,0,0,1-3.24-1.69,1.77,1.77,0,0,1-.77-2.15c.23-.51,1-.79,1.55-1.16a.55.55,0,0,1,.4-.06c3.53.76,5.51-1.14,7.27-3.89a16.17,16.17,0,0,1,5.62-5.31,6.14,6.14,0,0,1,4-1.12c.83,1.28,1.7,2.64,2.59,4a2.58,2.58,0,0,1,0,3.06,11.41,11.41,0,0,1-4.34,4.27,50.94,50.94,0,0,1-5.53,2.65,3.82,3.82,0,0,0-2.69,3.28c-.22,1.46-.17,2.95-.24,4.25a5.44,5.44,0,0,0,5.21,1.5c3.44-.83,7-1.31,9.86-3.74A8.31,8.31,0,0,1,493.4,378.38Z"/><path d="M964.92,388.58c-3.36,3.33-4.21,3.25-8.19-.07-1.49-.17-2.44,1-3.63,1.61a14.44,14.44,0,0,1-5,1.8,3.33,3.33,0,0,1-3.68-2,9.4,9.4,0,0,1-.81-2.74,24.43,24.43,0,0,1,2.69-14.72,7.44,7.44,0,0,1,1.87-2.13,1.79,1.79,0,0,1,2.74.79,5,5,0,0,1,.35,2.38,12.46,12.46,0,0,1-1,3.11,19.31,19.31,0,0,0-1.06,10,6.22,6.22,0,0,0,1.93-.5,11.53,11.53,0,0,0,5.42-8.32,26.17,26.17,0,0,1,1.53-5.1,3.07,3.07,0,0,1,2.16-2.23c3,2.26,3.49,3.51,2.65,6.52-.22.79-.65,1.53-.8,2.33a39.56,39.56,0,0,0-.63,4.84,3.58,3.58,0,0,0,1.71,3.51C963.68,387.92,964.17,388.17,964.92,388.58Z"/><path d="M599,438.32c1.94-.69,3.49-1.17,5-1.81a2.59,2.59,0,0,1,3,.63,1.66,1.66,0,0,1,.34,2.51,6.63,6.63,0,0,1-3.64,2.52c-1.57.45-3.14.88-4.63,1.29-1.39,3.85-.89,11.41,1.07,16.57-.9,1.51-2.35,1.51-3.88,1.27s-2-1.3-2.31-2.56a25.39,25.39,0,0,1-1.1-6,142.37,142.37,0,0,1,1.47-25.35,14.11,14.11,0,0,1,2.26-6.08,2.07,2.07,0,0,1,2.05-1.08,2.65,2.65,0,0,1,2.16,2.17,6.84,6.84,0,0,1-.11,1.62c-.51,3.09-1,6.19-1.57,9.28A10.65,10.65,0,0,0,599,438.32Z"/><path d="M838.45,371.07a11.58,11.58,0,0,0,2.49-.36c1.27-.49,2.44-1.25,3.71-1.75,2-.82,3.29-.47,3.87.89a2.68,2.68,0,0,1-2,3.47c-1.56.5-3.08,1.14-4.61,1.7-.52.19-1,.35-1.56.52A3.18,3.18,0,0,0,838,378.9c-.05,4.1-.2,8.2-.31,12.3,0,1.09,0,2.19-.09,3.28a1.91,1.91,0,0,1-1.55,1.69,2.07,2.07,0,0,1-2.54-.81,9.08,9.08,0,0,1-1-3.07,40.64,40.64,0,0,1-.37-5.73c.07-7.52.2-15.05.35-22.57a20.56,20.56,0,0,1,.44-3.66c.42-1.95,1.64-2.72,3.61-2.44a1.81,1.81,0,0,1,1.7,1.53,26.46,26.46,0,0,1,.23,4.07A49.32,49.32,0,0,0,838.45,371.07Z"/><path d="M590.58,387.35c-1.09-1.7-2.86-2.51-4.34-3.61a16.06,16.06,0,0,1-5.54-7.47c-1.28-3.37-.93-6.42,1.86-9a13.76,13.76,0,0,1,5.05-3.42,8,8,0,0,1,8.09,1.41c1.6,1.36,1.85,3.59-.61,4.47-.64.23-1.25.52-2,.81-.46-.36-.87-.7-1.3-1-2.68-2-5.92-.72-6.34,2.58a6.21,6.21,0,0,0,1.18,4.66,18.49,18.49,0,0,0,5.15,4.62c2.32,1.43,4.57,3,6.81,4.55,1.3.9,2.29,2.06,1.77,3.8A3.44,3.44,0,0,1,597,392.2c-2.72.06-5.45-.07-8.17-.25a4.31,4.31,0,0,1-2.24-.89,2.49,2.49,0,0,1-.72-1.75c0-.33.68-.8,1.14-1C588.06,388,589.41,388.46,590.58,387.35Z"/><path d="M641.78,381.7a1.78,1.78,0,0,1,0,2.4c-3.28,4.61-7.64,7.47-13.4,7.53-4.71,0-7.23-2.92-7-7.67s2.48-8.9,5.6-12.48a15.54,15.54,0,0,1,5.1-4,4.62,4.62,0,0,1,5.9,2.17c2.4,4.63,1.93,6.56-2.38,9.7a16.8,16.8,0,0,1-7.3,3.5,1.71,1.71,0,0,0-1.45,1.74,2,2,0,0,0,1,2.07,6.85,6.85,0,0,0,2.3.76,9.67,9.67,0,0,0,7.53-2.57C639,383.69,640.06,382.23,641.78,381.7ZM628.55,378c3.45-.43,5.16-1.93,5.89-4.79.17-.7.06-1.37-1.18-1.64A24.79,24.79,0,0,0,628.55,378Z"/><path d="M916.87,319.76a20,20,0,0,1,7.2-15c2.07-1.81,5.62-1.52,6.77.82a5.92,5.92,0,0,0,1.35,2c2,1.58,2.16,3.69,2,5.94-.25,4.82-1.81,9.07-5.44,12.43a10.39,10.39,0,0,1-5.86,2.7,4.18,4.18,0,0,1-3.7-1.3C917.09,325.23,916.78,322.57,916.87,319.76Zm9.71-12.27c-1.24,3.13-2.33,5.63-3.23,8.2a11.74,11.74,0,0,0-.19,6.87,1.33,1.33,0,0,0,2,.72,6.24,6.24,0,0,0,1.61-1.8,20.44,20.44,0,0,0,2.27-7.83,8.05,8.05,0,0,0-1-4.76A9,9,0,0,0,926.58,307.49Z"/><path d="M675.21,371.14c1.6,0,2.94,0,4.27,0a14.83,14.83,0,0,1,2.83.27,1.67,1.67,0,0,1,.77,2.67,6.14,6.14,0,0,1-4.12,2.43c-1.21.08-2.4.29-3.77.46a21,21,0,0,0-.57,2.87c-.16,2.87-.22,5.74-.35,8.61a12.3,12.3,0,0,1-.26,2.43,3.39,3.39,0,0,1-3.13,2.23c-.91,0-1.57-.73-1.81-2.35a28.21,28.21,0,0,1-.29-3.67c-.1-3.81.44-7.65-.64-11.41a2,2,0,0,1,.06-1.2c1.52-3.77.65-7.86,1.58-11.73.33-1.39-.2-3-.24-4.47s.56-2.34,1.56-2.58c1.4-.34,3,.23,3.44,1.49a14.53,14.53,0,0,1,.64,4C675.27,364.32,675.21,367.45,675.21,371.14Z"/><path d="M552,379.5a8.72,8.72,0,0,1-1.41,2,23.26,23.26,0,0,1-10.91,4.42,25.21,25.21,0,0,1-3.67.29c-1.46,0-3,.45-4.25-.89-1.51-1.65-2.87-3.36-2.83-5.73a14.35,14.35,0,0,1,.42-3.65,22.32,22.32,0,0,1,10.29-13.23,5.4,5.4,0,0,1,1.09-.57c1.53-.51,3.28-1.53,4.54,0a4.55,4.55,0,0,1,.45,5.69,18.37,18.37,0,0,1-7.11,6.61c-.87.41-1.68.93-2.55,1.32a2.68,2.68,0,0,0-1.55,3,2.92,2.92,0,0,0,2.09,2.76,6.28,6.28,0,0,0,2,.35c3.56-.09,7.13-.15,10.37-2A3.28,3.28,0,0,1,552,379.5Z"/><path d="M550.63,299a16.2,16.2,0,0,0-4.52,12.25c.15,3,1.3,4.24,4.24,4.44,2.48.17,4.91.09,7.13-1.34a12.91,12.91,0,0,1,3-1.3,5.53,5.53,0,0,1,1.74.1,7.38,7.38,0,0,1-4,4.27,28.28,28.28,0,0,1-9.43,2.66c-3.23.42-6.34-1.68-7.7-5a16.33,16.33,0,0,1,.53-13.17,20.81,20.81,0,0,1,5.22-6.78A5.29,5.29,0,0,1,554,295a9.81,9.81,0,0,1,3.72,8.29,3.34,3.34,0,0,1-.53,1.53,1.76,1.76,0,0,1-3,0c-.51-1-.79-2-1.23-3a9.45,9.45,0,0,0-1-1.77A6.29,6.29,0,0,0,550.63,299Z"/><path d="M853.13,391.66c-1.22,0-1.63,0-2,0a3.86,3.86,0,0,1-4-3.79,10.54,10.54,0,0,1,1.65-7.44,40.12,40.12,0,0,1,9-10,6,6,0,0,1,5-1.17,2.86,2.86,0,0,1,2.48,1.85A4.8,4.8,0,0,0,866,373c2.27,2.19,1.61,4.72,1,7.26-.13.53-.42,1-.57,1.54C864.5,388.67,857.63,391.57,853.13,391.66Zm7.64-17.18a3.31,3.31,0,0,0-1.1.32c-3.34,2.37-5.21,5.87-7.11,9.34a3.87,3.87,0,0,0-.32,1.19c-.27,1.45.91,2.53,2.21,1.93a12.28,12.28,0,0,0,7.59-9.94A2.48,2.48,0,0,0,860.77,374.48Z"/><path d="M638.84,441.33c1.77.88,2.88-.26,4.12-.68a3.22,3.22,0,0,1,3.44.53,1.68,1.68,0,0,1,.49,2.18c-1,1.51-2.12,2.87-4.08,3.16-.67.11-1.35.25-2,.42-1.94.52-2.51,1.06-2.53,3.16,0,3,.17,6,.32,9,.07,1.5.27,3,.35,4.5a1.72,1.72,0,0,1-1.34,1.82,2,2,0,0,1-2.25-.54A7.9,7.9,0,0,1,634,462a64.1,64.1,0,0,1-1-6.9c-.34-3.73-.29-3.73-2.82-6.44.07-.36,0-.85.26-1.13,1.89-2.36,2.33-5.15,2.56-8,.14-1.77.43-3.53.6-5.3a4.57,4.57,0,0,1,1.55-3.24,2.8,2.8,0,0,1,2.68-.55,2,2,0,0,1,1.53,2.18c0,2-.31,4.08-.44,6.13C638.8,439.63,638.84,440.54,638.84,441.33Z"/><path d="M648.1,247.88c-1.29-1.6-2.52-3-3.66-4.55a10,10,0,0,1-1.43-9.72,5.56,5.56,0,0,1,1.41-2.44,62,62,0,0,1,5.83-4.5c1.86-1.27,3.92-.95,5.91-.21a1.92,1.92,0,0,1,1.28,1.92,2,2,0,0,1-1.35,1.88,2.85,2.85,0,0,1-1.18.26c-1.82-.05-3.06,1-4.3,2.12-2.92,2.5-3.27,5.25-.9,8.25a39.77,39.77,0,0,0,4.47,4.8c1.91,1.74,1.59,4-.46,5.56a15.68,15.68,0,0,1-13.22,2.66,3.91,3.91,0,0,1-3.24-2.81A1.54,1.54,0,0,1,639,249c1.08.17,2.13.5,3.21.69a6.69,6.69,0,0,0,4.77-.62A6.62,6.62,0,0,0,648.1,247.88Z"/><path d="M515.9,385.28c-1.25-.57-2.1-2-3.88-1.72-1.09.19-1.6-1-1.8-1.91a74.14,74.14,0,0,1-1.4-7.66,37.79,37.79,0,0,1,.76-11.42,5.93,5.93,0,0,1,1.53-2.78,3,3,0,0,1,2.26-.48,1.68,1.68,0,0,1,1.39,1.79c-.06,1.91-.28,3.81-.35,5.72-.11,2.73-.17,5.46-.2,8.18a7.7,7.7,0,0,0,.51,1.84l5.42-12.3a13,13,0,0,1,.84-1.86,3.14,3.14,0,0,1,3.66-1,2.12,2.12,0,0,1,1,2.48,14.24,14.24,0,0,1-1.37,4.24,42,42,0,0,0-4.54,11.81A6.72,6.72,0,0,1,515.9,385.28Z"/><path d="M483.93,440.15c1.83-.78,3.06-1.36,4.32-1.82a6.27,6.27,0,0,1,2.36-.46,2,2,0,0,1,1.52,3.29,7.09,7.09,0,0,1-2.22,1.74c-1.84.9-3.75,1.65-5.81,2.54-1.29,4.26,1.12,8.11,1.93,12a2.67,2.67,0,0,1-3,1.22,3,3,0,0,1-2.38-2.07,47.25,47.25,0,0,1-2.17-7.9,50.2,50.2,0,0,1-.24-14.74c.35-2.15.24-4.38.52-6.55a11.4,11.4,0,0,1,1.07-3.46,2.32,2.32,0,0,1,2.79-1.18,2,2,0,0,1,1.56,2.14c0,3,0,6-.27,9A23.55,23.55,0,0,0,483.93,440.15Z"/><path d="M998.14,307.56l-2.39-1.79a4,4,0,0,0-.91.3,10.54,10.54,0,0,0-4.13,6.84c-.62,3,0,5.69,2.52,7.72a26.55,26.55,0,0,1,2.76,2.42,1.79,1.79,0,0,1-.33,2.84c-3.11,1.72-6.32,3.26-10,3.16a5.84,5.84,0,0,1-2-.37,1.58,1.58,0,0,1-.22-2.71,14.33,14.33,0,0,1,2.22-1c.49-.21,1-.36,1.74-.61-.27-.72-.48-1.32-.74-1.9a38.51,38.51,0,0,1-2-4.45c-1.3-4.34-.74-8.33,2.51-11.78,1.89-2,3.64-4.13,6.42-4.88a10.4,10.4,0,0,1,3.18-.4,3.78,3.78,0,0,1,3.42,3.08C1000.62,305.58,999.55,306.54,998.14,307.56Z"/><path d="M979.82,311.13c-.85.87-1.76.45-2.67.18a19.58,19.58,0,0,0-3.52-1c-2.56-.26-3.57.62-3.78,3.12-.11,1.22,0,2.45,0,3.68q0,4.52.09,9a3.18,3.18,0,0,1-1.27,2.86c-2,1.48-4.2.76-4.7-1.67a50.09,50.09,0,0,1-.77-6.1c-.29-3.55-.48-7.1-.7-10.64-.17-2.82.49-3.63,3.27-4.16a16.11,16.11,0,0,0,2.76-.67c4-1.52,7.17.12,10.17,2.44A2.84,2.84,0,0,1,979.82,311.13Z"/><path d="M628.21,234.59c-1.27,1.74-1.3,3.68-1.31,5.59,0,2.73,0,5.47.08,8.2,0,.55.08,1.1,0,1.64a2.57,2.57,0,0,1-2.63,2.59,2.5,2.5,0,0,1-2.8-1.86,26.67,26.67,0,0,1-.46-4.47c-.14-4.51-.21-9-.3-13.53a12.83,12.83,0,0,1,0-1.64c.15-1.53,1.53-2.78,2.82-2.14,2,1,4,.47,6,.35a10.27,10.27,0,0,1,6.26,1.6,4.36,4.36,0,0,1,1.59,1.77,2.37,2.37,0,0,1-.35,1.85,1.55,1.55,0,0,1-1.43.16A8.78,8.78,0,0,0,628.21,234.59Z"/><path d="M593.7,292.47c-.09.47-.18,1.29-.39,2.07-1.9,7-2.46,14.27-3.4,21.45a14.78,14.78,0,0,1-.4,2.41,1.83,1.83,0,0,1-1.92,1.26,2.22,2.22,0,0,1-1.65-.92,21.29,21.29,0,0,1-1.34-4.67,16,16,0,0,1,.1-4.09c.67-5.43,1.36-10.85,2.16-16.25a9.37,9.37,0,0,1,1.35-3.37c.94-1.54,2.07-1.9,3.43-1.43S593.69,290.45,593.7,292.47Z"/><path d="M603.17,302.42c-.91,5.09-1.75,10.19-2.76,15.26a2.78,2.78,0,0,1-4.16,1.75,2,2,0,0,1-.94-1.24,10,10,0,0,1-.11-2.84c.42-3.92.94-7.83,1.37-11.75.19-1.62.24-3.26.4-4.88a3.2,3.2,0,0,1,2.85-3,2.2,2.2,0,0,1,1.72.78,7,7,0,0,1,1.12,2.57,23.48,23.48,0,0,1,.26,3.25Z"/><path d="M535.57,302.08c-.58,3.8-1.11,7.57-1.75,11.33a4.22,4.22,0,0,1-2.31,3.2c-1.45.74-2.84.25-3.24-1.29a10.92,10.92,0,0,1-.37-3.22c.07-1.76.35-3.52.55-5.28q.38-3.45.77-6.89a12.29,12.29,0,0,1,.29-2,3,3,0,0,1,2.75-2.08,2.53,2.53,0,0,1,2.46,1.84C535.13,299.09,535.29,300.58,535.57,302.08Z"/><path d="M909.56,387c.53-3.94,1.07-8.27,1.71-12.59a2.45,2.45,0,0,1,2.52-2.22c1.59-.1,2.78.6,3,2.12a14.46,14.46,0,0,1,.07,4.05c-.42,3.52-1,7-1.48,10.54-.14,1-.25,2-1.17,2.48s-2.17,1.3-3.44.52a3,3,0,0,1-1.24-2.86Z"/><path d="M759.17,378.64c-.38,3.13-.69,6.11-1.13,9.08a2.34,2.34,0,0,1-2.81,2.28,2.56,2.56,0,0,1-2.65-2.56,16.68,16.68,0,0,1,0-2.45c.14-3.53.3-7.06.44-10.6,0-.27,0-.54,0-.81.13-1.75.93-2.66,2.41-2.76a2.75,2.75,0,0,1,3,2.29C758.79,375,758.93,376.87,759.17,378.64Z"/><path d="M700.28,326.33a8.7,8.7,0,0,1-1.4-.34,1.32,1.32,0,0,1-.82-1.66,3.19,3.19,0,0,1,.71-1.45,14.89,14.89,0,0,0,3.16-5.24,6.36,6.36,0,0,1,.34-.75c.81-1.44,1.77-2,3-1.66a3.39,3.39,0,0,1,2.64,3.64,7.47,7.47,0,0,1-.8,2.31,11.56,11.56,0,0,1-4.64,4.53A8.24,8.24,0,0,1,700.28,326.33Z"/><path d="M739.64,231.5c.23-1.42.46-3.72,1-5.94a5.56,5.56,0,0,1,1.75-2.62,2.15,2.15,0,0,1,3.59,1.52,5.94,5.94,0,0,1-.08,2q-1,3.93-2.25,7.8a5.89,5.89,0,0,1-1,1.74c-.4.55-1,1.18-1.66.75a2.63,2.63,0,0,1-1.07-1.56A25.29,25.29,0,0,1,739.64,231.5Z"/><path d="M498.49,366a28.14,28.14,0,0,1-.25-3.52c.13-2.31.37-4.61.62-6.9a3.55,3.55,0,0,1,.53-1.51,2.11,2.11,0,0,1,2.41-1.11,3.26,3.26,0,0,1,1.82,1.44c1.36,2.95-.68,9.49-3.47,11.37C499.87,365.94,499.4,365.87,498.49,366Z"/><path d="M602.83,288.51c.2,2.38-.47,3.44-1.78,4.17s-2.44.41-2.89-1a23.79,23.79,0,0,1-.88-3.54,2.39,2.39,0,0,1,1.82-2.76,2.71,2.71,0,0,1,3.14,1.27A9.09,9.09,0,0,1,602.83,288.51Z"/><path d="M754.06,464a7.61,7.61,0,0,1,.91-1.76,1.57,1.57,0,0,1,2.19-.32,6.79,6.79,0,0,1,.93.77c.82.77,1.51,1.64,1.16,2.84s-1.57,1.41-2.6,1.62C755.07,467.44,754,466.25,754.06,464Z"/><path d="M757.17,364.08a2,2,0,0,1-1.84-2.25c0-1.82,1.09-3,2.67-2.92a2.19,2.19,0,0,1,2.12,2.07A2.73,2.73,0,0,1,757.17,364.08Z"/><path d="M915.19,365c-.6-.47-1.31-.77-1.53-1.28a3.3,3.3,0,0,1,1.53-3.83,2.46,2.46,0,0,1,2.93.72,2.12,2.12,0,0,1-.39,2.92A21.64,21.64,0,0,1,915.19,365Z"/><path d="M535.58,288.91a3.2,3.2,0,0,1-.59.85,5.13,5.13,0,0,1-1.41.74,2.28,2.28,0,0,1-2.88-.71,1.75,1.75,0,0,1,.17-2.22,2.41,2.41,0,0,1,3.17-.92A2.22,2.22,0,0,1,535.58,288.91Z"/><path d="M724.21,239.36a1.77,1.77,0,0,1,.35,2.75c-.88,1.18-1.86,1.39-4.44,1.11C720.93,241.32,722.59,240.5,724.21,239.36Z" style="fill:#fff"/><path d="M721.59,443.45a15.18,15.18,0,0,1-.19,2.57,44.52,44.52,0,0,1-1.39,4.66,14.75,14.75,0,0,1-9.08,9.27c-.22.08-.52-.07-1-.15a10.42,10.42,0,0,1-.33-2.2,11.93,11.93,0,0,1,2.63-6.32,36,36,0,0,1,7.61-7.34A6.45,6.45,0,0,1,721.59,443.45Z" style="fill:#fff"/><path d="M688.44,450a15,15,0,0,1,4.92-7.51,2.86,2.86,0,0,1,3.73-.07,2.94,2.94,0,0,1,.91,3.3,2.7,2.7,0,0,1-.63,1,15.85,15.85,0,0,1-6.26,3.56A8.41,8.41,0,0,1,688.44,450Z" style="fill:#fff"/><path d="M855.26,256.43a9.7,9.7,0,0,1,3.81-5.86,1.54,1.54,0,0,1,1.46,0,1.67,1.67,0,0,1,.54,1.38,3.85,3.85,0,0,1-2.15,3.21A38.12,38.12,0,0,1,855.26,256.43Z" style="fill:#fff"/><path d="M801,373.17c1.45.43,2.22,1.22,2.27,2.4a5.56,5.56,0,0,1-.5,2.71,9.33,9.33,0,0,1-2.09,2.48,50.36,50.36,0,0,1-8.84,5.78,7,7,0,0,1-2,.37,5.61,5.61,0,0,1,1.79-4.61C794.57,379,796.89,375,801,373.17Z" style="fill:#fff"/><path d="M837,248.52c2.62.35,3.44,1.85,3.7,3.92.44,3.49-1.77,5.09-4.62,6.62-.72-1.23-.4-2.45-.34-3.57C835.85,253.22,835.62,250.88,837,248.52Z" style="fill:#fff"/><path d="M999,374.57c-2,3.43-3.43,4.28-6.62,4a9.75,9.75,0,0,1,4.75-4.18C997.55,374.22,998.24,374.5,999,374.57Z" style="fill:#fff"/><path d="M786.72,306.66a11.28,11.28,0,0,1-4.43,14.28,6.54,6.54,0,0,1-1.09.55,1.09,1.09,0,0,1-1.45-1,7.91,7.91,0,0,1,.32-2.4,52.09,52.09,0,0,1,5.36-10.55C785.64,307.28,786.06,307.13,786.72,306.66Z" style="fill:#fff"/><path d="M620.29,297.89c3.16,3.71,3.08,6.68,0,9.48a24.9,24.9,0,0,1-5.69,4,2.2,2.2,0,1,1-3.06-3.08C613.61,304.21,616,300.46,620.29,297.89Z" style="fill:#fff"/><path d="M926.92,378.46a10.91,10.91,0,0,1,6-5.66c.35-.12,1,.25,1.34.57.15.13,0,.81-.19,1.08C932.28,376.74,929.73,377.79,926.92,378.46Z" style="fill:#fff"/><path d="M607.59,385.23a7.16,7.16,0,0,1-.26-2c.77-3.59,1.55-7.19,2.47-10.75.43-1.7,1.88-1.93,3.06-.61a7.38,7.38,0,0,1-.6,10.85A11.23,11.23,0,0,1,607.59,385.23Z" style="fill:#fff"/><path d="M930.27,269.42c-1.61-4.41.18-8.1,1.42-11.75,1.08-3.16,2.2-6.49,5.54-8.05,2.07.6,2.46,2.28,3,3.78a6.5,6.5,0,0,1,.31,4.41C939.31,262.1,935,267.12,930.27,269.42Z" style="fill:#fff"/><path d="M738.11,303c.54.71,1,1.09,1.15,1.56a11.18,11.18,0,0,1-.33,7.25,18,18,0,0,1-5.29,7.2,6.28,6.28,0,0,1-1.8.93,1.48,1.48,0,0,1-2-1.35,16.86,16.86,0,0,1,.59-4.84C731.81,309.55,733.88,305.75,738.11,303Z" style="fill:#fff"/><path d="M569.48,455.73a5.9,5.9,0,0,1-.17-1.86,33.11,33.11,0,0,1,5.83-10.27,3.64,3.64,0,0,1,1.35-.84,1.06,1.06,0,0,1,1.4,1,26.06,26.06,0,0,1-.79,3.16,17.78,17.78,0,0,1-5.29,7.65A9.92,9.92,0,0,1,569.48,455.73Z" style="fill:#fff"/><path d="M473.19,309.08a5.17,5.17,0,0,1,.63-4.75c2.34-4.3,2.46-5.32,5.81-7.67a6.53,6.53,0,0,1,.32,6.77A10.3,10.3,0,0,1,473.19,309.08Z" style="fill:#fff"/><path d="M868.16,311c-.4,1.29-.39,2-.72,2.22-1.68,1.39-3.42,2.69-5.2,4a1.18,1.18,0,0,1-1.1-.19c-.18-.18,0-.7,0-1.07a.61.61,0,0,1,.22-.34A20.63,20.63,0,0,1,868.16,311Z" style="fill:#fff"/><path d="M451.84,224.06a17.38,17.38,0,0,1,1.59,10.36c-.57,3.53-3,6-6,7.9a1.94,1.94,0,0,1-3.08-1.44,12.23,12.23,0,0,1,0-4,25,25,0,0,1,5.77-11.54A12.41,12.41,0,0,1,451.84,224.06Z" style="fill:#fff"/><path d="M787.57,244.55c-.56,3-2.33,4.38-4,5.71-1.19,1-2.43,2.18-4.2,2-.51-1.34.38-2,1-2.62A15.94,15.94,0,0,1,787.57,244.55Z" style="fill:#fff"/><path d="M523.79,233.55l-.61.42a3.44,3.44,0,0,1-.06-.63c0-.1.19-.18.29-.27Z" style="fill:#fff"/><path d="M586,231c2.85,3.91,2.12,7.58,1.64,11.14s-1.34,4.64-4.31,6.76c-.32-.55-.83-1.06-.89-1.61a11.42,11.42,0,0,1,.1-3.25q1-5.2,2.11-10.38A15,15,0,0,1,586,231Z" style="fill:#fff"/><path d="M654.85,445.84c.63.41,1.27.87,1.94,1.28a3.49,3.49,0,0,1,1.59,3.52c-.18,3.68-2.06,6.43-4.78,8.71a1.4,1.4,0,0,1-2-.77C650.53,454.81,651.91,449.18,654.85,445.84Z" style="fill:#fff"/><path d="M437.33,436a4.84,4.84,0,0,1,3.25,2.72c.91,2.27,1.81,4.57,1.67,7.09a7.22,7.22,0,0,1-4.68,6.57c-2.06.7-3.5,0-4.08-2.08a13,13,0,0,1,.31-7.65A19.68,19.68,0,0,1,437.33,436Z" style="fill:#fff"/><path d="M628.55,378a24.79,24.79,0,0,1,4.71-6.43c1.24.27,1.35.94,1.18,1.64C633.71,376,632,377.54,628.55,378Z" style="fill:#fff"/><path d="M926.58,307.49a9,9,0,0,1,1.48,1.4,8.05,8.05,0,0,1,1,4.76,20.44,20.44,0,0,1-2.27,7.83,6.24,6.24,0,0,1-1.61,1.8,1.33,1.33,0,0,1-2-.72,11.74,11.74,0,0,1,.19-6.87C924.25,313.12,925.34,310.62,926.58,307.49Z" style="fill:#fff"/><path d="M860.77,374.48a2.48,2.48,0,0,1,1.27,2.84,12.28,12.28,0,0,1-7.59,9.94c-1.3.6-2.48-.48-2.21-1.93a3.87,3.87,0,0,1,.32-1.19c1.9-3.47,3.77-7,7.11-9.34A3.31,3.31,0,0,1,860.77,374.48Z" style="fill:#fff"/></g></svg>
