<svg xmlns="http://www.w3.org/2000/svg" viewBox="0 0 1366 768"><g id="Layer_22" data-name="Layer 22"><path d="M718.36,161.08c-.64.62-1.43.35-2.16.35-8.4,0-16.81.18-25.2-.25-9-.45-17.93-.42-26.88-.13-10.24.34-20.49.61-30.72,1.32-4,.28-8,0-12,.22-6.23.28-12.48.09-18.72.32s-12.64.32-19,.51c-5.45.17-10.9.72-16.31,1.43-4.68.62-9.28,1.75-13.93,2.58a112.83,112.83,0,0,1-17.76,1.92c-12.1.2-24.18.42-36.25,1.63q-13.87,1.41-27.6,3.85A174.41,174.41,0,0,0,438.51,184c-11.73,4.62-21.72,11.5-28.76,22.12-5,7.61-7.42,16.27-8.89,25.18a166.48,166.48,0,0,0-2,17.28c-.27,4.72-.56,9.45-1,14.15-.8,9.3-1.12,18.63-2.72,27.86-1.1,6.29-2.18,12.61-2.92,18.95-1.54,13.17-.61,26,4.73,38.41,4.55,10.52,11.45,19,21.42,24.66a53.45,53.45,0,0,0,17,5.83c9.3,1.74,18.72,2.55,28.07,3.87,6.88,1,13.78,1.83,20.66,2.73,4.77.63,9.59,1.07,14.38,1.62,5.76.66,11.54,1.15,17.3,1.75,4.61.47,9.27.74,13.91,1,14.54.94,29.1,1.56,43.68,1.18A172.89,172.89,0,0,0,593.57,389c19.33-2.81,38.73-4.8,58.31-3.88,9.36.43,18.72.58,28.08.75a158.33,158.33,0,0,1,26.9,3c6.6,1.27,13.25,2.38,19.9,3.49a143.69,143.69,0,0,0,25.44,2.12,79.62,79.62,0,0,0,18.48-2.63c.81-.21.84-.78.6-1.44" style="fill:none;stroke:#000;stroke-linecap:round;stroke-linejoin:round;stroke-width:2px"/><path d="M1086.4,197.2c1.87,2.14,4.64,2.48,7.1,3.31,8.83,3,17.79,5.67,26.61,8.73,9.57,3.32,18.82,7.34,26.41,14.36a38.46,38.46,0,0,1,11.55,21.11c2.23,10.81,2.19,21.74,1.78,32.65-.25,6.48-.94,13-1.71,19.45-.49,4.13-.74,8.32-1.13,12.46-.51,5.28-.66,10.58-1.27,15.86-.34,3-.26,6.08-.59,9.11-.91,8.18-2.37,16.21-7.44,23-3.21,4.31-7.79,6.6-12.7,8.43a91.78,91.78,0,0,1-19.92,4.61c-11.51,1.53-23,.8-34.57.75a100,100,0,0,1-10.8-.38c-8.55-.94-17.13-.52-25.68-.33a210.41,210.41,0,0,0-21.12,1.32,15.37,15.37,0,0,1-1.92,0c-12.56,0-25.13.3-37.68-.1-8.64-.28-17.29,0-25.92-.47-5.52-.29-11-.43-16.56-.36-6.4.08-12.81.25-19.19.57-7,.34-14.1,1-21.14,1.7-6,.62-12,1.11-18,1.64-8.32.72-16.65,1.22-25,1.73-7.25.44-14.56-.09-21.83.15a86.13,86.13,0,0,0-15.36,1.4,9.77,9.77,0,0,0-3.8,1.71c-.47.34-.75.49-1.24.31" style="fill:none;stroke:#000;stroke-linecap:round;stroke-linejoin:round;stroke-width:2px"/><path d="M685.24,178.6c-5,.12-10.09.08-15.12.42-3,.2-5.93.37-8.89.56-6.33.4-12.64,1-18.94,1.61-7.37.71-14.72,1.61-22.09,2.37q-7.31.76-14.64,1.45c-5.91.54-11.83,1.05-17.76,1.46-5.6.38-11.19.66-16.8.95-8,.43-16,.68-24,1-7,.26-14.08.55-21.12,1-5,.28-10.09.51-15.11,1s-10.1.84-15.13,1.39c-11.83,1.31-23.71,2.41-35,6.46a65.88,65.88,0,0,0-31.25,23A93.19,93.19,0,0,0,413.17,256a106.88,106.88,0,0,0-2.54,20.38c-.2,5.12-.26,10.24-.15,15.36.15,7.45.69,14.89,1.33,22.33.37,4.16.63,8.33,1.26,12.47a40.81,40.81,0,0,0,9.85,21.36c7.31,8.3,16.71,13.25,26.87,17.07,5.75,2.16,11.62,3.87,17.53,5.47,2.11.57,4.33.44,6.49.93,6,1.35,11.9,3.31,18,4.35,4.45.76,8.94,1.25,13.43,1.76,12.23,1.38,24.49,1,36.73.82,12.72-.19,25.44-.57,38.16-1,7.2-.25,14.42.13,21.59-.42,9.69-.74,19.39.11,29-.48,12.64-.77,25.29,0,37.92-.43,28.08-.93,56.16-.13,84.24-.52,7.6-.11,15.2-.22,22.8-.12,4.8.06,9.6.28,14.4.14q5.28-.17,10.56-.2" style="fill:none;stroke:#000;stroke-linecap:round;stroke-linejoin:round;stroke-width:2px"/><path d="M856.84,171c4.17-.09,8.13,1.29,12.24,1.7,7.36.75,14.71,1.54,22.08,2.16,10,.84,20,1.3,30,1.61,7.67.24,15.36.48,23,.29,12.81-.32,25.61.24,38.4.62,8.16.23,16.33,0,24.48.57,13.28.93,26.56-.57,39.84-.25,5.68.13,11.38-.32,17,.08a315.27,315.27,0,0,1,47.75,6.92c6,1.38,11.75,3.79,17.53,6a86.21,86.21,0,0,0,19,5.25c1.73.23,4-.53,5,.84,1.2,1.66,2.85,1.95,4.33,2.79a60.74,60.74,0,0,1,11.3,7.66c7.84,7.13,12.4,16.12,15.08,26.18a78.31,78.31,0,0,1,2.64,16.8c.06,1.15.13,2.34,1,3.09,1.44,1.23,1.16,2.81,1.16,4.35q0,5.16,0,10.32c0,2.13.36,4.3-1.52,6.05a3.76,3.76,0,0,0-.66,2.59c-.42,13.21-1.41,26.38-1.75,39.6a201.91,201.91,0,0,1-2.52,26.4,87.1,87.1,0,0,1-3.91,15.82,21.55,21.55,0,0,1-9.33,11.29c-8.74,5.34-17.63,10.45-27.6,13.17a84.66,84.66,0,0,1-16.79,2.74c-7.83.51-15.67.68-23.52,1-10,.38-20,.67-30,1-7.84.23-15.69.49-23.51,1-10.18.64-20.35.58-30.49.25-10.31-.34-20.65-.59-31-1.24a131.17,131.17,0,0,0-17.51.05c-2.89.21-5.77.29-8.65.34-21.36.37-42.72.14-64.08.33-6.4.05-12.84-.32-19.19.3-4.41.43-8.82.18-13.23.63a44.43,44.43,0,0,1-8.14-.48,176.85,176.85,0,0,0-21.84-.18,26.18,26.18,0,0,0-13.46,3.71,2.11,2.11,0,0,1-1.66.51" style="fill:none;stroke:#000;stroke-linecap:round;stroke-linejoin:round;stroke-width:2px"/><path d="M1076.68,197.68c-6.63-1.41-13.23-2.94-19.91-4.14-8.06-1.46-16.12-2.78-24.25-3.8-6.94-.86-13.91-1.5-20.87-2.22-8.55-.87-17.13-1.17-25.7-1.76-5.09-.35-10.23-.39-15.35-.53q-22.68-.6-45.36-.2c-11.92.23-23.85,0-35.76.49-20,.75-40,.32-60,.27-5,0-10.1,0-15.12-.41-5.67-.46-11.38-.4-17-1-4.88-.49-9.79-.61-14.66-1.26-2.27-.31-4.63-.44-6.95-.63-4.33-.36-8.66-.69-13-1.36a59.07,59.07,0,0,0-6.24-.41c-6.4-.33-12.78-.85-19.19-1.13-13.44-.58-26.87-1-40.32-.92a12.43,12.43,0,0,1-2.16-.34" style="fill:none;stroke:#000;stroke-linecap:round;stroke-linejoin:round;stroke-width:2px"/><path d="M839.8,155.92H838c-1-4-2.15-8-3-12-1.73-8-7.25-11.92-14.68-13.62a96.5,96.5,0,0,0-13.9-2.09,89.72,89.72,0,0,0-10.09-.31,123.38,123.38,0,0,0-18,1.93c-6.11,1.11-12.24,2.17-18.25,3.77a47.84,47.84,0,0,0-14.86,6.28c-5.84,3.93-8.58,9.39-7.47,16.53a8,8,0,0,1,0,1.2" style="fill:none;stroke:#000;stroke-linecap:round;stroke-linejoin:round;stroke-width:2px"/><path d="M856.12,164.32a128.93,128.93,0,0,1-19-1.28c-10.43-1.23-20.8-3.07-31.21-4.44a111.26,111.26,0,0,0-22.55-.92c-5.37.39-10.74,1.24-16.1,1.71a85.49,85.49,0,0,1-15.59-.1c-3.2-.3-6.41-.37-9.6-.76a54.67,54.67,0,0,0-10.55.11c-2.37.16-5-.18-7,1.84" style="fill:none;stroke:#000;stroke-linecap:round;stroke-linejoin:round;stroke-width:2px"/><path d="M864,98.56c.16,2.49-1,4.75-1.31,7.19a55.25,55.25,0,0,0-.81,10.57c.32,5.12.36,10.24.84,15.37a155.62,155.62,0,0,1,1.07,19.67,50.37,50.37,0,0,1-2.42,14.88,20.09,20.09,0,0,0-.73,4.56" style="fill:none;stroke:#000;stroke-linecap:round;stroke-linejoin:round;stroke-width:2px"/><path d="M715.72,101.92c1.32,8.35,1.87,16.79,2.6,25.2a182.57,182.57,0,0,0,2.39,19.21,35.56,35.56,0,0,0,4.17,10.77c.4.72.83,1.42,1.16,2.18" style="fill:none;stroke:#000;stroke-linecap:round;stroke-linejoin:round;stroke-width:2px"/></g></svg>
