<svg xmlns="http://www.w3.org/2000/svg" viewBox="0 0 1366 768"><g id="Layer_22" data-name="Layer 22"><path d="M863.32,389.92c.2,3.48,1.28,6.82,1.49,10.32.31,5.28,0,10.56.21,15.84.19,4.42.85,8.81,1.31,13.21.37,3.59.83,7.18,1.09,10.79.31,4.17.78,8.32,1.18,12.48s.76,8.16,1.22,12.24c.31,2.79.39,5.59.5,8.4a42.87,42.87,0,0,1-8.67,27.85c-7.08,9.59-14.08,19.24-20.91,29a405.59,405.59,0,0,0-25,40.08,225.92,225.92,0,0,0-14.6,33.38,9.16,9.16,0,0,0-.26,1.91" style="fill:none;stroke:#000;stroke-linecap:round;stroke-linejoin:round;stroke-width:2px"/><path d="M699.64,467a142.86,142.86,0,0,0-15.13-14.39,155.23,155.23,0,0,0-26.86-18.51,101.65,101.65,0,0,0-24.74-9.55,59,59,0,0,0-20.14-1.65,17.79,17.79,0,0,0-9.86,4.73c-6,5.41-9.29,12-8.1,20.16.75,5.19,4.13,8.65,8.32,11.57a48.8,48.8,0,0,0,12,5.7c7.87,2.79,16,4.81,23.75,7.93,8.75,3.52,15.58,9.05,19.73,17.74,1.79,3.74,4.14,7.2,6,10.95" style="fill:none;stroke:#000;stroke-linecap:round;stroke-linejoin:round;stroke-width:2px"/><path d="M632.92,513.76c-.63-3.42-2.7-6.19-4.36-9.1a108.45,108.45,0,0,0-22.3-28.08,38.8,38.8,0,0,0-12-7.25c-9.48-3.59-17.92.19-21.75,8.47-4.62,10-5.52,20.36-.79,30.67,2.88,6.28,7.33,11.51,12,16.57s9.56,10.23,13.45,16.08c1.12,1.68,1.65,3.75,3.36,5" style="fill:none;stroke:#000;stroke-linecap:round;stroke-linejoin:round;stroke-width:2px"/><path d="M816.28,426.88c0,1.46-1.08,2.42-1.67,3.6-1.63,3.27-3.2,6.56-4.83,9.83-.11.23-.19.4-.24.48-1.43,2.46,0,5.61-2.31,8s-2.13,5.71-3.13,8.6a75.64,75.64,0,0,0-2,8.38A43.17,43.17,0,0,1,792.54,485c-4.73,5.51-10.09,10.39-15.15,15.57a87.06,87.06,0,0,0-20.91,35.76A139.76,139.76,0,0,0,751,568.24c-.39,5.67-.67,11.35-.7,17,0,1.44.15,2.88.23,4.32" style="fill:none;stroke:#000;stroke-linecap:round;stroke-linejoin:round;stroke-width:2px"/><path d="M758.92,400.72c-3.06,2.92-6.67,5.12-9.89,7.86a116.27,116.27,0,0,0-18.68,20.22c-7.2,9.87-13.15,20.52-19.41,31-8.6,14.34-20.62,25.27-34.1,34.79-2.54,1.79-5,3.88-7.72,5.2-5.52,2.64-10.28,6.45-15.49,9.56-10.73,6.42-21.58,12.68-31.79,20a176.36,176.36,0,0,0-18.44,14.93,87.8,87.8,0,0,0-18.46,25.21,77,77,0,0,0-7.46,25.19" style="fill:none;stroke:#000;stroke-linecap:round;stroke-linejoin:round;stroke-width:2px"/><path d="M818.2,392.8c-2.83-7.41-8.83-9.45-16.08-9.88-16-.95-25.73,7.8-32.3,21-3.18,6.39-.65,12.32,3.74,17.47,4.89,5.73,11,10.08,17.05,14.38a21.41,21.41,0,0,1,3.1,2.66,7.11,7.11,0,0,0,4.33-2.16c8.55-8.68,15.23-18.52,19-30.23a29.14,29.14,0,0,0,1.17-13" style="fill:none;stroke:#000;stroke-linecap:round;stroke-linejoin:round;stroke-width:2px"/><path d="M772.12,474.4c-4.25-4.31-8.25-8.87-13-12.73A45.88,45.88,0,0,0,746.7,454c-3.23-1.24-6.52-1.35-9.86-1.39" style="fill:none;stroke:#000;stroke-linecap:round;stroke-linejoin:round;stroke-width:2px"/><path d="M846.76,464.08c-11.2-4.76-22.82-7.26-35-6.48" style="fill:none;stroke:#000;stroke-linecap:round;stroke-linejoin:round;stroke-width:2px"/><path d="M808.84,448.24a4.53,4.53,0,0,1,1.66,3.36,53.21,53.21,0,0,1,.32,12.49A17,17,0,0,1,806,474.88c-.45.43-1,.81-1.44,1.2a3.88,3.88,0,0,1-5.28,0" style="fill:none;stroke:#000;stroke-linecap:round;stroke-linejoin:round;stroke-width:2px"/><path d="M728.68,393.28c-.69,3.37,1.4,5.78,2.88,8.4,1.84,3.25,4,6.33,4.85,10.07a19.19,19.19,0,0,1,.67,4.57" style="fill:none;stroke:#000;stroke-linecap:round;stroke-linejoin:round;stroke-width:2px"/><path d="M654.76,442c-.42,7.58-4.49,13.67-8.14,19.93-.33.58-.57.89-1.22.59" style="fill:none;stroke:#000;stroke-linecap:round;stroke-linejoin:round;stroke-width:2px"/><path d="M844.12,431.68c-5.83-.07-11.5.57-16.56,3.84" style="fill:none;stroke:#000;stroke-linecap:round;stroke-linejoin:round;stroke-width:2px"/><path d="M750,444.16c.56,0,1.23-.21,1.66,0,6.9,3.78,14.4,6.68,19.46,13.17" style="fill:none;stroke:#000;stroke-linecap:round;stroke-linejoin:round;stroke-width:2px"/><path d="M781,529.12l13.2,7.44" style="fill:none;stroke:#000;stroke-linecap:round;stroke-linejoin:round;stroke-width:2px"/><path d="M803.8,499.36a31.87,31.87,0,0,1,10.8,5" style="fill:none;stroke:#000;stroke-linecap:round;stroke-linejoin:round;stroke-width:2px"/><path d="M608,505.84a16.32,16.32,0,0,0-4.56,7.2" style="fill:none;stroke:#000;stroke-linecap:round;stroke-linejoin:round;stroke-width:2px"/><path d="M678,477.76c0,.47.07.87-.47,1.22a6.85,6.85,0,0,0-3.37,5.5" style="fill:none;stroke:#000;stroke-linecap:round;stroke-linejoin:round;stroke-width:2px"/></g></svg>
