<svg xmlns="http://www.w3.org/2000/svg" viewBox="0 0 1366 768"><g id="Layer_6" data-name="Layer 6"><path d="M581.5,610.52c-1.38,2.73-3.78,3.67-6.72,3.54-1.22,0-2.42-.26-3.58-.4-1.62,1.32-1.92,3.11-2.3,4.83a3.74,3.74,0,0,0,1.66,3.92c2.79,2.15,8.2,3,12.35,1.78,0-.72,0-1.51,0-2.31a13.51,13.51,0,0,1,2.84-8,33.13,33.13,0,0,1,9.65-8.17,5.72,5.72,0,0,1,5.11-.62,4.85,4.85,0,0,1,1.41.78c1.4,1.19,2.78,5.72,1.86,7.19-2.51,4-1.24,7.92-.29,11.9.34,1.44,1.26,2.75,1,4.33-1.06,1.15-2.29,1.16-3.21.11a11,11,0,0,1-1.7-3.19c-.54-1.37-.52-3-1.84-4.28a42.12,42.12,0,0,1-9.2,4.22,27.07,27.07,0,0,1-14.95.66c-1.19-.32-2.41-.5-3.61-.77-5-1.11-6.66-5.14-6-9.25.24-1.61.73-3.18,1.14-4.91a21.36,21.36,0,0,0-7.9-3c-1.37,1.27-1.24,2.84-1.3,4.32-.13,3.56-.14,7.12-.29,10.67a3.91,3.91,0,0,1-.68,2.25,2.36,2.36,0,0,1-4-.63,8.17,8.17,0,0,1-.47-2,30,30,0,0,1-.11-11c.27-1.33.12-2.75.4-4.08a19,19,0,0,1,1.41-4.23,2.09,2.09,0,0,1,2.85-.92c2.53,1.57,5.43,1.79,8.19,2.53a14.19,14.19,0,0,1,2.35.71c2.24,1.07,4.25,1.35,6.44-.41,1.64-1.3,3.65-.64,5.49.09S581.15,608,581.5,610.52Zm17.19-.76a20.45,20.45,0,0,0-8.13,6.53c-.9,1.41-2.16,2.79-1.84,4.77a12.43,12.43,0,0,0,8.75-6.17C598.41,613.37,600,611.87,598.69,609.76Zm-20.57-1.32a7.39,7.39,0,0,0-1.64-.3c-.56,0-1,.87-.64,1.07a2.45,2.45,0,0,0,1.39.24C577.48,609.41,577.67,609,578.12,608.44Z"/><path d="M678.36,607.08a14.92,14.92,0,0,1-3.45,12.58c-2.13,2.55-4.61,4.26-8.06,4.19-.84,0-1.7,0-2.06.93a2.31,2.31,0,0,0,1.18,2.77,7.42,7.42,0,0,0,2.31.78c3.63.48,6.69-1,9.53-3.05,1.12-.8,1.2-2.09,1.24-3.34.14-4.18,1.64-8,3-11.89.79-2.2.94-2.15,3.93-2.95a3.1,3.1,0,0,1,1.32,3.59,24.26,24.26,0,0,1-1.2,3.48,21.61,21.61,0,0,0-1.76,10.43,4.91,4.91,0,0,0,.28,1.19c.09.23.34.4.53.61,1.26-.13,1.82-1.17,2.36-2.06a26.17,26.17,0,0,0,3.72-8.62,29.22,29.22,0,0,1,1.4-4.71,1.54,1.54,0,0,1,1.24-.79,2.38,2.38,0,0,1,1.53,1.06,5.79,5.79,0,0,1,.34,2.4c0,2.46-.21,4.94-.07,7.39a41.51,41.51,0,0,0,.95,6.06,5.19,5.19,0,0,0,.91,1.54c1.33,0,1.61-.85,1.94-1.54a24.8,24.8,0,0,0,2.35-9.1c.16-2.46.16-4.92.27-7.39,0-.71.35-1.47,1.16-1.39a3.47,3.47,0,0,1,1.69,1,2.07,2.07,0,0,1,.49,1.1,26.74,26.74,0,0,1-1.73,18.41c-1.2,2.54-3.34,3.52-5.89,3.85a4.22,4.22,0,0,1-4.5-2.2l-2.1-3.67a10.51,10.51,0,0,0-1.79,1.41c-1.25,1.69-3.1,2.15-5,2.68a2.93,2.93,0,0,1-3.51-1.44c-.71-1.13-1.27-2.36-2-3.75-3.67,3.83-8.17,4.54-12.9,4.33-5-.21-8-4.23-6.58-9a28,28,0,0,1,3.46-7.41,44.33,44.33,0,0,1,6-6.75,10.35,10.35,0,0,1,3.87-2.21A4.6,4.6,0,0,1,678.36,607.08Zm-11.79,12.43c3.38-1,5.11-2.26,6.15-4.48.58-1.23,1.55-2.52.63-4.19-1.73.52-2.45,1.93-3.42,3A16.32,16.32,0,0,0,666.57,619.51Z"/><path d="M583,653.24c2,1,3.32,2.29,3.33,4.68,0,4.11.4,8.26-.52,12.29-1.39,6.1-1.2,12.23-.84,18.39.07,1.23.18,2.46.23,3.69a5.52,5.52,0,0,1-.18,1.62,3,3,0,0,1-2.44,1.91,2.23,2.23,0,0,1-2-1.82,39.1,39.1,0,0,1-.73-4c-.25-1.43-.13-3-1-4.6-.87.55-1.5,1-2.18,1.38-1.68.89-3.34,1.87-5.1,2.59a5.19,5.19,0,0,1-5.13-.35c-2-1.48-4.15-1.09-6.29-.69a14.35,14.35,0,0,1-6.48-.27,8.36,8.36,0,0,1-6-9.13,9.72,9.72,0,0,1,1.56-4.62c2.57-3.74,5.61-6.73,10.45-6.88a3.42,3.42,0,0,1,.81.38c2.35,2.09,2.66,3.61.77,5.87a11.82,11.82,0,0,1-3.84,3c-.82.39-2.06-.08-3.21-.16a5.22,5.22,0,0,0-.95,5.32,4.82,4.82,0,0,0,1.77,2.16c1.83,1.42,6.1,2.07,9.15,1.48a7.52,7.52,0,0,0,.48-1.41c1.35-8.54,6-14.81,13.22-19.3a5.67,5.67,0,0,0,3-4.57c.09-1.09.14-2.19.24-3.28A4.83,4.83,0,0,1,583,653.24ZM570.84,685c5.56-2.22,8.56-6.28,8.67-11.43a25,25,0,0,0,0-2.87,5.61,5.61,0,0,0-.68-1.49c-3.66,2.7-5.63,6.24-7.37,9.95A7.77,7.77,0,0,0,570.84,685Z"/><path d="M863.59,616a17.87,17.87,0,0,0,2.95,0c1.53-.26,2.06-.91,2.05-2.57,0-2.6-.23-5.2-.22-7.8a16,16,0,0,1,.48-4,1.92,1.92,0,0,1,3.49-.65,5.68,5.68,0,0,1,1.11,2.57c.34,2.72.49,5.45.7,8.18.09,1.18.14,2.37.2,3.49,1.54.31,1.7-1,2.44-1.49a3,3,0,0,1,3.1-.29,5.93,5.93,0,0,1,3.62,4.66,43.61,43.61,0,0,1,.56,6.53,23.13,23.13,0,0,0,1.13,8.9,6,6,0,0,1,.25,1.6A1,1,0,0,1,884,636a4.87,4.87,0,0,1-1.58-1.2,12.31,12.31,0,0,1-2.16-7c-.13-2.31-.43-4.62-.79-6.91a7.1,7.1,0,0,0-1-2c-1.45.24-1.7,1.28-1.92,2.14-1.12,4.23-3,8.25-3.48,12.65a6.28,6.28,0,0,1-.22,1.21,3.39,3.39,0,0,1-3.09,2.29c-.89.07-1.59-.67-1.84-2.33a27,27,0,0,1-.3-4.49c0-2,.28-4.1.36-6.15,0-1.06-.09-2.13-.14-3.17-1.6-.75-2.83-.23-4.27.44a17.09,17.09,0,0,0-.45,2.67c-.09,3.69,0,7.39-.13,11.09-.07,3-.37,3.16-4,3a18.94,18.94,0,0,1-.62-2.65c-.28-3-.52-6-.65-9-.16-3.75-.1-3.75-2.24-6.67-.09-1.62,1.59-1.7,2.33-2.73a6.21,6.21,0,0,0,.24-1.1c.27-3.68.55-7.36.77-11.05a5.6,5.6,0,0,1,2.19-4.23,1.37,1.37,0,0,1,2.26.7,38.23,38.23,0,0,1,.28,4.9c0,2.19-.24,4.37-.28,6.56A25.19,25.19,0,0,0,863.59,616Z"/><path d="M481.58,610l-3.38-2.07c.26-1.48,1.33-1.54,2.19-1.81a3.73,3.73,0,0,0,2.8-3.62c.22-2.45.59-4.89.77-7.35a6.73,6.73,0,0,1,2-4.39,2,2,0,0,1,2.24-.55c1,.32,1.81.9,1.82,2,0,1.5-.22,3-.35,4.49-.15,1.74-.69,3.47-.31,5.55l4.14-1.45c1-1.21.78-2.45.71-3.68a28.17,28.17,0,0,1-.1-3.67,1.92,1.92,0,0,1,1.84-1.87,2,2,0,0,1,2.38,1.19,34.21,34.21,0,0,1,1.44,5.52,25.55,25.55,0,0,1,0,4.1c0,.94,0,1.88,0,3.09,1,.07,1.75.09,2.51.19a4.71,4.71,0,0,1,4.12,3,31.85,31.85,0,0,1,1.86,13.72c-.1,1-.33,1.92-1.42,2.28-.78.26-1.63-.52-2-2.15-.46-1.85-.69-3.76-1.06-5.64a16.21,16.21,0,0,0-1.11-4.61c-1.39-.1-1.54.87-1.75,1.57-.91,3.15-1.89,6.29-1.89,9.64a2.2,2.2,0,0,1-2.17,2.47A2.43,2.43,0,0,1,494,624a15.57,15.57,0,0,1-.29-3.26c0-3.7.09-7.4.14-11.1,0-.94,0-1.88,0-2.79-3.35-.47-5.66.76-5.92,3.5-.33,3.53-.2,7.1-.21,10.65,0,1,.25,1.9.3,2.86a1.87,1.87,0,0,1-1.62,2,2.07,2.07,0,0,1-2.46-1,34.43,34.43,0,0,1-1.47-5.53c-.35-2.29-.38-4.63-.57-7C481.82,611.57,481.68,610.77,481.58,610Z"/><path d="M725.68,613.85c3.29-.25,5.14,1.86,7.17,3.92.61-.57,1.13-1,1.57-1.48s1-1.32,1.56-1.91c3.62-3.75,7-2.76,9.39,1.16a14.19,14.19,0,0,1,2.18,8.23c-.23,3.42-.41,6.84-.7,10.25a2.81,2.81,0,0,1-.81,1.79,3.47,3.47,0,0,1-2.13.92c-.95,0-1.27-1-1.29-1.81,0-1.51,0-3,.09-4.51.07-1.92.25-3.83.25-5.75a10.25,10.25,0,0,0-1.81-5.8c-1.06-1.54-2.49-1.52-3.68,0-1.34,1.72-2,3.61-1.21,5.74a18.16,18.16,0,0,1,.73,6.08c.11,3.1-.9,5.34-4.3,5.86-1.51-.6-1.83-1.93-1.88-3.34a49.69,49.69,0,0,1,0-6.57c.34-3.24-1.3-5.09-3.7-6.57-1.47.6-1.35,1.81-1.4,2.86-.17,3.14-.24,6.29-.39,9.43-.08,1.88-.83,2.73-2.31,2.74a2.86,2.86,0,0,1-2.8-2.5,14.44,14.44,0,0,1-.12-2.46c0-5.21,0-10.41.08-15.62a8.24,8.24,0,0,1,.5-2.79,2.28,2.28,0,0,1,2.26-1.49,2,2,0,0,1,2.12,1.59C725.16,612.34,725.35,612.84,725.68,613.85Z"/><path d="M779.17,618.54c-1.58,0-2.67-.1-3.73,0a6.49,6.49,0,0,0-5.93,5.39,19.06,19.06,0,0,0-.14,4.07c0,1.78.27,3.56.22,5.33a3.85,3.85,0,0,1-.89,2.19,2,2,0,0,1-3.45-.08,6.29,6.29,0,0,1-1.16-2.55c-.84-4.72-1.53-9.47-2.34-14.2-.35-2,.59-3.1,2.59-3.82.42.26,1,.58,1.54.94s.86.64,1.28.95c1.3-.7,2.51-1.31,3.69-2a8.19,8.19,0,0,1,8.6,0c1.64,1,3.46.56,5.23,1.44.43-.87.84-1.7,1.23-2.54,2.2-4.7,7.15-5.79,11.2-2.47,1.48,1.2,2.43,2.62,2,4.61-.06.34-.38.64-.73,1.19-.64-.37-1.2-.68-1.74-1a19.86,19.86,0,0,0-2.42-1.51c-2.43-1-3.81-.55-5,1.9a19,19,0,0,0-1.6,4.62c-.74,3.76-1.29,7.56-1.92,11.35-.06.4-.09.82-.18,1.22-.32,1.49-.81,2-2,2.21s-2-.57-2.7-1.45a5.39,5.39,0,0,1-.79-3.53c0-2.6,0-5.21-.18-7.8C779.8,621.68,779.46,620.35,779.17,618.54Z"/><path d="M702.84,698.3c.6-7.62,1.18-15.25,1.84-22.87a5.38,5.38,0,0,1,.9-2.65c.4-.55,1.56-1.2,2-1,2.17,1,4.31.21,6.43.15a6.53,6.53,0,0,1,6.38,3.63,7.71,7.71,0,0,1,.91,3.49c.05,2.6-.19,5.15-2,7.34a24,24,0,0,0-1.66,3.28c-1.52,2.68-3.44,5-6.6,5.73-2.63.62-3.42,2.41-3.52,4.82s-.23,4.9-.36,7.36a7.32,7.32,0,0,1-.19,1.62,1.83,1.83,0,0,1-1.7,1.51,1.61,1.61,0,0,1-1.75-1.39,38.06,38.06,0,0,1-.58-4.87c-.09-2.05,0-4.1,0-6.15Zm6.25-5.68a13.49,13.49,0,0,0,2.11-1.75c1.5-2.1,2.95-4.23,4.37-6.38a7.32,7.32,0,0,0,.85-1.84c.9-3.15-.15-5-3.29-5.84-1.74-.48-2.64,0-2.89,1.77-.53,3.77-1,7.54-1.43,11.32A16.23,16.23,0,0,0,709.09,692.62Z"/><path d="M799.28,698.93a21.33,21.33,0,0,1-1.19-2.71c-.28-1.19-.35-2.44-.6-3.64a4.3,4.3,0,0,1,.57-3.53c.92-1.3,1-2.81,1.18-4.3.59-4.07,1.28-8.11,1.87-12.18.25-1.76.32-3.54.5-5.31s1.09-3,2.21-3a2.92,2.92,0,0,1,2.79,3c0,2.31-.27,4.62-.46,6.93-.14,1.73-1,3.37-.66,5.44a26.63,26.63,0,0,1,3.22-.92,3.77,3.77,0,0,1,3.7,1.27c1.25,1.5,1.37,2.55,0,3.94s-3.22,2.94-4.89,4.34c-1.13,1-2.77,1.7-2.41,3.47.29,1.44,1.76,1.95,3.06,2.44a25.78,25.78,0,0,0,8,1.71,12.56,12.56,0,0,1,2,.14c.34.07.85.47.84.71a1.83,1.83,0,0,1-.53,1.37,7.88,7.88,0,0,1-4.58,1.59c-2.47,0-5,0-7.27-1S802,697.11,799.28,698.93Z"/><path d="M967.1,724.4c-1.68-1.2-1.61-2.75-1.54-4.23.18-3.82.35-7.64.72-11.45.64-6.52,1.58-13,1.2-19.61a5.67,5.67,0,0,1,2.21-5,5.1,5.1,0,0,1,6.41-.53,9.81,9.81,0,0,1,4.69,9.79c-.42,4.87-2.1,9-6.94,11.24a3.12,3.12,0,0,0-1.92,2.47c-.18,1.22-.53,2.4-.73,3.62q-.86,5.23-1.64,10.49A3.72,3.72,0,0,1,967.1,724.4Zm5.71-25.7c2.48-1.58,3.38-2.74,3.36-4.79s-.19-4-2.65-5.26C972.51,692.05,972.87,695.3,972.81,698.7Z"/><path d="M886,679.28c4.1,3.25,4.15,3.28,2.5,6.86a25.2,25.2,0,0,0-2.47,8.64c-.3,4,.09,4.79,3.12,7.27-.07.12-.12.28-.22.35-3.93,3-5.48,2.55-7.32-1.9-.35-.85-.78-1.67-1.27-2.71-.91.53-1.58.94-2.27,1.32a35.11,35.11,0,0,1-4,2.07,2.86,2.86,0,0,1-4.11-2.13,9.24,9.24,0,0,1-.2-3.66c.92-5.11,2-10.21,3.05-15.29a4.49,4.49,0,0,1,1.33-2,2.29,2.29,0,0,1,2.61-.67,2.11,2.11,0,0,1,1.16,2.42c-.38,2.56-.82,5.12-1.34,7.67-.4,2-1,4-1.42,6a8.56,8.56,0,0,0,0,1.61,4.79,4.79,0,0,0,3.17-2.06c2-2.25,3.92-4.59,4.65-7.63C883.5,683.25,885.28,681.8,886,679.28Z"/><path d="M816.37,623c.19,2.37-1,4.64-2.15,6.74a19,19,0,0,1-6.67,7.09,15.59,15.59,0,0,1-7.87,2,4.85,4.85,0,0,1-4.86-4.64,17,17,0,0,1,.53-6.07A36.19,36.19,0,0,1,803,614.64c1.42-1.63,3.35-2.32,5.16-3.22a2.42,2.42,0,0,1,3,.53C813.62,615.2,816.56,618.24,816.37,623Zm-4.75-1.49c-.1-1.15-.14-2.11-.27-3a2.39,2.39,0,0,0-1.76-2.06c-.92-.28-1.56.29-2.13.9a27.3,27.3,0,0,0-7.14,13.15,11,11,0,0,0-.19,2.43,1.75,1.75,0,0,0,2.56,1.65C808,631.71,811.24,627.49,811.62,621.5Z"/><path d="M476.13,682.55c-4.38-1.07-5.67-4.07-6-7.68a26.47,26.47,0,0,1,.09-5.34,10.75,10.75,0,0,1,1.14-3.43,1.87,1.87,0,0,1,2.1-.94,1.83,1.83,0,0,1,1.69,1.56,34.47,34.47,0,0,1,.25,4.07c0,2.75,0,2.75.93,5,1.11-.33,1.3-1.32,1.53-2.23.37-1.46.62-3,1-4.4a9.27,9.27,0,0,1,4-5.56,4.69,4.69,0,0,1,2.22,5.56,27.12,27.12,0,0,1-1.11,3.52,36,36,0,0,0-2.36,10.79c-.24,3.14-.48,6.29-.83,9.42a44.7,44.7,0,0,1-1,5.24,7.66,7.66,0,0,1-1,2.2c-.68,1.1-1.58,1.53-2.32,1.21a2.31,2.31,0,0,1-1.38-2.32c0-1.23.13-2.46.2-3.69C475.6,691.33,475.86,687.1,476.13,682.55Z"/><path d="M922,699.27c-1.64.89-2.24,2.35-3.21,3.44s-1.93,2.25-3.39,1.84c-1.63-.47-2.11-2-2.08-3.64,0-2.46.07-4.93.3-7.38.35-3.81.86-7.6,1.33-11.4q.88-7.12,1.82-14.24a5.17,5.17,0,0,1,2.19-3.78,1.62,1.62,0,0,1,2.21.23,3.93,3.93,0,0,1,1.11,3c-.16,1.9-.3,3.81-.57,5.69-1,6.76-2,13.51-3,20.27a7.23,7.23,0,0,0,0,1.49c1.18.72,1.56-.23,2.15-.71,2.58-2.1,5.87-.91,6.3,2.46a60,60,0,0,1,.18,7.35c0,.79-1,1.36-1.84,1.13a3.35,3.35,0,0,1-2.25-2.2C922.87,701.71,922.49,700.58,922,699.27Z"/><path d="M514.36,684a12.61,12.61,0,0,0,1.35-2.12,43.83,43.83,0,0,0,2.8-10.7,25.83,25.83,0,0,1,1.09-4.8c.17-.56.76-1,1.17-1.5a4.84,4.84,0,0,1,2.84,5.55c-.23,1.62-.34,3.27-.51,4.9a18.51,18.51,0,0,0,2,11.15c.27.48.47,1,.64,1.34-.1,1.36-1,1.72-1.93,2a2.15,2.15,0,0,1-2.86-.9c-.73-1.13-1.37-2.33-2.2-3.74-.81.51-1.48.91-2.13,1.34a22.45,22.45,0,0,1-2,1.36c-2.68,1.36-4.79.54-5.87-2.32a23,23,0,0,1-1.12-8.52c0-3.29.31-6.57.52-9.85a9.86,9.86,0,0,1,.45-2.41,3.05,3.05,0,0,1,2.35-2.07,1.73,1.73,0,0,1,2.23,1.27,32.13,32.13,0,0,1,.2,4.49c-.09,3.43-.33,6.85-.38,10.27a23.21,23.21,0,0,0,.49,4.06C513.54,683.12,513.91,683.39,514.36,684Z"/><path d="M866.52,685.94c0,10.87-9,16.28-16.16,16.22-2.94,0-4.27-1.22-4.42-4.19a14.17,14.17,0,0,1,.56-4.81c1.79-5.89,5.47-10.62,9.63-15,1.26-1.32,4.58-1.78,6.12-.57,1.74,1.38,3.82,2.7,4,5.35C866.31,684.17,866.47,685.38,866.52,685.94Zm-6.27-4.52a6.31,6.31,0,0,0-3.28,2.67c-1.91,3-3.76,6-5.46,9.1a5.23,5.23,0,0,0-.09,5,9.81,9.81,0,0,0,2.67-.5,15,15,0,0,0,5.5-5.33,11.39,11.39,0,0,0,1.88-6.57C861.48,684.31,861.83,682.72,860.25,681.42Z"/><path d="M530.75,622.29c-3.35,3.67-7.61,4.58-12.25,4.17a23.49,23.49,0,0,1-4.75-1.21,4.62,4.62,0,0,1-3.48-4.12c-.42-3.55.28-6.65,3.06-9.29s5.71-5,9.5-6.15a8.65,8.65,0,0,1,5.62.08,2.61,2.61,0,0,1,1.73,2.11c.92,4.78-.86,8.19-5.27,10.32a10.61,10.61,0,0,1-9.36.37c-.13,1-.49,1.9-.23,2.45a2.93,2.93,0,0,0,1.83,1.39,11.86,11.86,0,0,0,3.25-.11c2.58-.27,5.15-.61,7.73-.89C529,621.31,529,621.34,530.75,622.29ZM526.26,609a15.1,15.1,0,0,0-6.75,3.48,1.58,1.58,0,0,0-.43,1.38,1.52,1.52,0,0,0,1.35.54,8.13,8.13,0,0,0,5.06-3.2A10.64,10.64,0,0,0,526.26,609Z"/><path d="M907.35,637.21c-2.17,1.5-3.59,1.3-4.68-.65a20.67,20.67,0,0,1-.95-2.26c-.26-.61-.54-1.21-.84-1.9-2.5,0-3.8,2.37-6,2.63-2,.24-3.9,1.31-6,.7-1.57-2.36-.86-4.71,0-6.78a31.54,31.54,0,0,1,6-9.73,15,15,0,0,1,6.84-4.32c1.86-.54,3,0,4.31,1.42,2.32,2.62,2,5.51,1.13,8.5-.4,1.44-.84,2.86-1.26,4.3a7.57,7.57,0,0,0,1.09,7A3.31,3.31,0,0,1,907.35,637.21Zm-5.21-17.47A16.38,16.38,0,0,0,894.28,630c.12,0,.26.19.35.16,4.11-1.26,6.22-4.67,8.36-8A1.61,1.61,0,0,0,902.14,619.74Z"/><path d="M637.16,631.2h-3.08a24,24,0,0,1-4.58-13.9c0-3-.31-6-.45-9a3.7,3.7,0,0,1,2.1-3.7,1.79,1.79,0,0,1,2.53.52,8.3,8.3,0,0,1,1,3c.17,2,.06,4.11.14,6.16,0,1.19-.14,2.45.79,3.78a7.48,7.48,0,0,0,1-1.21c1.53-3,3.06-6.11,4.51-9.21a3.57,3.57,0,0,1,3.54-2.28,1.86,1.86,0,0,1,1.83,1.35,4.38,4.38,0,0,1-.46,3.93c-1.08,1.91-2.19,3.79-3.23,5.72A43.82,43.82,0,0,0,638,628.53C637.83,629.32,637.51,630.08,637.16,631.2Z"/><path d="M621,690.37a4,4,0,0,1-3.84,2.06,9.29,9.29,0,0,1-2.28-6c-.06-1.78,0-3.57-.1-5.34-.12-1.6-.43-3.18-.75-5.43,1.7-3.07,2.25-7.15,2.21-11.25,0-3.24,1.41-5.77,2.88-8.41,1.18-2.12,5.41-2.32,7.08.1a1.73,1.73,0,0,1-.23,2.26,4,4,0,0,1-1.65,1.15c-1.66.45-2,1.61-2.11,3.09-.12,2.31-.3,4.6-.47,7a33.1,33.1,0,0,1,4.15.05,2.13,2.13,0,0,1,1.5,1.16c.18.51-.19,1.27-.48,1.85-.16.32-.63.49-1,.7a20.26,20.26,0,0,1-2.84,1.64c-1.8.69-2.37,2-2.6,3.8C620,682.72,619.84,686.52,621,690.37Z"/><path d="M451.91,666.39a13.49,13.49,0,0,0-1.37,2.43c-.64,2.37-1.11,4.79-1.75,7.17a7.88,7.88,0,0,1-1.14,2.56,2.17,2.17,0,0,1-2.53.9,2.26,2.26,0,0,1-1.55-2.19c0-.41,0-.82,0-1.23.1-4.79.16-9.58.32-14.37a14.58,14.58,0,0,1,.68-4c.49-1.51,2.26-1.65,3.24-.33a22.73,22.73,0,0,1,1.32,2.28,5.66,5.66,0,0,1,5,.89,8.63,8.63,0,0,1,3,4.32,13.85,13.85,0,0,1,.61,2.38c.91,4.47.69,9,.68,13.52a5,5,0,0,1-.77,2.26c-.38.68-.82,1.58-1.8,1.42s-1.12-1.1-1.2-1.91c-.13-1.36-.21-2.73-.25-4.09-.07-1.92,0-3.84-.16-5.75A9.82,9.82,0,0,0,451.91,666.39Z"/><path d="M918.5,635.47c-3.18,2.25-4.67,1.78-5.28-1.79a43.59,43.59,0,0,1-.52-5.7,85.76,85.76,0,0,1,3-25.1c.24-.91.15-1.91.38-2.83a5.8,5.8,0,0,1,1-2.17,1.82,1.82,0,0,1,2.85.06,4.07,4.07,0,0,1,1,3c-.11,2-.31,4.08-.48,6.12-.16,1.88-.34,3.77-.49,5.43,1.44,1.75,4.29.54,4.86,3.21-.94,2.46-3.1,3-5.4,2.92C918.05,622.19,918,623.41,918.5,635.47Z"/><path d="M757.52,675.61h2.89c1.45,0,2.27.48,2.54,1.53a2.3,2.3,0,0,1-1.33,2.71,25.93,25.93,0,0,1-3.63,1.87,3.62,3.62,0,0,0-2.43,3.43c-.23,2.86-.58,5.7-.9,8.55a24.15,24.15,0,0,1-.44,2.83,2.12,2.12,0,0,1-1.68,1.63,2.48,2.48,0,0,1-2.38-1.29,6.72,6.72,0,0,1-.55-2.36c0-2.46.06-4.91.1-7.37,0-1.08,0-2.16,0-3.39l-2.77-1.63c.17-.48.2-1.07.45-1.17,3.39-1.52,4.06-4.46,4.24-7.75.14-2.45.43-4.9.71-7.35a11.88,11.88,0,0,1,.6-2.78,2.73,2.73,0,0,1,3-1.6,2.35,2.35,0,0,1,2,2.28,57.12,57.12,0,0,1-.25,6.13C757.57,671.76,757,673.62,757.52,675.61Z"/><path d="M441.27,672.22a12.19,12.19,0,0,1-9.44,11.14c-3.37.66-5.92-.78-6.88-4.13a14.27,14.27,0,0,1-.14-8.86c1.23-3.44,2.13-7,4.84-9.78a16.51,16.51,0,0,0,1.28-2.08,2.6,2.6,0,0,1,3.9-.59,4.26,4.26,0,0,1,1.06,1.22,80.33,80.33,0,0,1,3.84,7.21A38,38,0,0,1,441.27,672.22Zm-8.08-8.8c-2.11,1.76-2.95,4.13-3.46,6.72s-.76,5.41.33,8.05c.56,1.36,1.69,1.49,3,.54C437.39,675.52,437.4,667.9,433.19,663.42Z"/><path d="M965.71,704.83a12.8,12.8,0,0,1-1.85,1.43c-1.27.66-2.07.52-2.88-.55s-1.53-2.24-2.41-3.54c-1.33.38-2.62.71-3.89,1.12a4.15,4.15,0,0,1-4.47-1.22,8,8,0,0,1-2.47-4.6c-.62-4-.12-7.91.15-11.85a2.93,2.93,0,0,1,2.26-2.64,2.24,2.24,0,0,1,3.07,2.22c-.13,2.86-.47,5.72-.55,8.58a15.67,15.67,0,0,0,.52,4c.13.57.73,1,1.24,1.7,2.31-1.64,2.77-3.83,3.07-6.15.29-2.16.61-4.31,1-6.45.26-1.31,1.22-1.69,2.49-1.23a3.15,3.15,0,0,1,2.41,3,54.58,54.58,0,0,1-.21,5.72C962.9,698,963.15,701.44,965.71,704.83Z"/><path d="M728.18,693.11c6.05,1.85,7.61,1.59,9.61-1.77a43.21,43.21,0,0,0-5.69-4.51,17.54,17.54,0,0,1-3.84-3.6c-2-2.71-1.81-4.53.51-6.92a16,16,0,0,1,3.86-3,38.33,38.33,0,0,1,6.06-2.43,4.7,4.7,0,0,1,4.32.57,2.27,2.27,0,0,1,1,1.62c0,.48-.74,1.1-1.29,1.31a11.12,11.12,0,0,1-2.41.37,12.83,12.83,0,0,0-6.67,2.89,2.52,2.52,0,0,0,0,4.2c.62.53,1.37.91,2,1.41,1.94,1.51,3.95,3,5.74,4.62a10,10,0,0,1,2.23,3.35,3,3,0,0,1-.95,3.7c-3,2.33-6.18,4-10.14,3.59a6.69,6.69,0,0,1-4.67-2.24C727,695.37,727.11,694.82,728.18,693.11Z"/><path d="M645.1,678.38c.07,5-1.32,9.38-5.48,12.6a13.11,13.11,0,0,1-8,2.67,3.54,3.54,0,0,1-3.34-1.95,7.74,7.74,0,0,1-1.11-5.9c1.17-4.47,2.23-9,5.52-12.6a21.9,21.9,0,0,1,2.37-2.25,1.77,1.77,0,0,1,2.28-.19,5.88,5.88,0,0,0,3.35,1.17c3.28.43,4.13,1.47,4.4,4.81C645.14,677.28,645.1,677.83,645.1,678.38Zm-11.77,11.17a9,9,0,0,0,5-3.17c1.94-2.23,3.13-4.82,2.58-7.93a2.05,2.05,0,0,0-2.29-1.86,28.77,28.77,0,0,0-3.34.74C631.83,684.49,631.53,686.29,633.33,689.55Z"/><path d="M794.24,693.92a7.4,7.4,0,0,1-4.37,3.07,62.93,62.93,0,0,1-6.85,1.06,25.27,25.27,0,0,1-4.08,0,7.59,7.59,0,0,1-7.48-8.82c1-6.23,7-14.36,15.57-15.39a4,4,0,0,1,4.22,1.87c1.13,1.77,2.12,3.59,1,5.72a4.79,4.79,0,0,1-1.37,1.47,1.5,1.5,0,0,1-2.49-.93c0-.13,0-.28-.07-.41-.83-3-1.7-3.39-4.22-1.93a17.84,17.84,0,0,0-7.08,8.28c-1.39,3-.49,4.87,2.67,6.12a15.9,15.9,0,0,0,10.06.48c1.05-.27,2.07-.69,3.13-1C793.22,693.46,793.61,693.72,794.24,693.92Z"/><path d="M459.11,605.28v3.57c-.4-.16-.63-.25-.87-.33.4,6.9-6.28,13.24-13.08,14a3.29,3.29,0,0,1-3-1,7.42,7.42,0,0,1-2.18-5.6,21.82,21.82,0,0,1,4.52-13c2.17-2.79,5.11-3.62,8.3-3.77a4.17,4.17,0,0,1,4.09,2.89c.35.88.44,1.88.83,2.73C457.91,605.1,458.64,605.13,459.11,605.28Zm-13.44,13.09c4.57-1.29,6.77-4.55,8.13-8.55a7.58,7.58,0,0,0,.15-4.45c-.55-2.06-2-3-4-2.22a5.45,5.45,0,0,0-2.48,2c-2.15,3.44-3.42,7.15-2.71,11.29A8.33,8.33,0,0,0,445.67,618.37Z"/><path d="M843,678.82c2.08.51,3.23-.45,4.52-.79a2.32,2.32,0,0,1,2.94,1.54,2.19,2.19,0,0,1-1.29,3,26.94,26.94,0,0,1-4.74,1.26,3.38,3.38,0,0,0-3.11,3.25c-.34,2.59-.63,5.18-1,7.75a50.94,50.94,0,0,1-1,5.23,2.13,2.13,0,0,1-2.56,1.54c-1.21-.13-1.86-.81-1.92-2.23a22.88,22.88,0,0,1,.18-2.86c.38-4,.76-7.91,1.19-11.86.17-1.49.52-3,.73-4.45.39-2.71.73-5.43,1.09-8.15,0-.41.09-.82.17-1.22.39-2,1.21-3,2.38-2.89a3.57,3.57,0,0,1,2.92,3,26.65,26.65,0,0,1-.1,4.09C843.24,676.27,843.1,677.46,843,678.82Z"/><path d="M435.89,596c-.14,4.18-.24,8-.4,11.79-.19,4.64-.43,9.27-.67,13.91a4,4,0,0,1-.3,1.17,1.58,1.58,0,0,1-2.45.39,6.44,6.44,0,0,1-1.58-4.53c-.14-4.37-.19-8.73-.23-13.1,0-1.78.2-3.55.14-5.33a16.13,16.13,0,0,0-.57-2.91c-1.76-.67-2.95.36-4.27.45-.45,0-1.19-.21-1.32-.53a2.2,2.2,0,0,1,.31-1.49,2.73,2.73,0,0,1,.88-.84c4.51-3.2,9.66-4.3,15.07-4.48a3.83,3.83,0,0,1,.82.1c1.35.21,2.21.79,2.16,1.48a2.42,2.42,0,0,1-1.76,2.07C440,594.78,438.11,595.26,435.89,596Z"/><path d="M911.54,697.19a7.61,7.61,0,0,1-.59,2,13.92,13.92,0,0,1-7,4.75,23.79,23.79,0,0,1-5.25.94,6.65,6.65,0,0,1-7.32-5.73,12.64,12.64,0,0,1,2.75-10.36,34.41,34.41,0,0,1,8-7.57c2.18-1.5,4.78-2.75,7.66-1.24a3,3,0,0,1,1.84,2.52c.13,2-1.61,3.18-2.82,2.36s-2.32-.49-3.42.13a26.09,26.09,0,0,0-8.29,7.84c-1.2,1.68-1.07,3.66-.77,5.57a3.14,3.14,0,0,0,2.2,2.26,7,7,0,0,0,5.6,0C906.38,699.6,908.58,698.55,911.54,697.19Z"/><path d="M943,635.63a24.42,24.42,0,0,0-1.92-2.33c-3.11-2.89-3-6.54-1.23-9.75A16.64,16.64,0,0,1,951.33,615c2.23-.45,4,.43,5.41,2.41a20.09,20.09,0,0,1-1.47,2.37,1.58,1.58,0,0,1-2.2.4c-2.16-1.62-3.85-.51-5.52.8a10.75,10.75,0,0,0-3.36,5,4.1,4.1,0,0,0,1.23,4.49c.87.85,1.94,1.51,2.87,2.3a10.25,10.25,0,0,1,1.71,1.71,1.88,1.88,0,0,1-.4,2.58c-3.12,2.24-6.33,4.29-10.36,4.43-2.14.08-4.08-.3-5.51-2.07a1.2,1.2,0,0,1,.69-1.92c1-.08,1.91,0,2.86-.06a20,20,0,0,0,3.63-.45A8.28,8.28,0,0,0,943,635.63Z"/><path d="M821.78,641.36a3.61,3.61,0,0,1-2.34-3.9c.13-2.33.19-4.66.34-7a37.2,37.2,0,0,0-.07-9,9.2,9.2,0,0,1,.57-4.84c.61-1.65,1.48-1.92,3.21-1a9.64,9.64,0,0,1,1.07.82c.47-.16,1-.31,1.47-.53a7.86,7.86,0,0,1,9.54,2.15,2.46,2.46,0,0,1,.42,1.85c-.23.91-1.12,1.13-2,1-1.23-.16-2.43-.45-3.65-.56a2.09,2.09,0,0,0-2.52,1.61,19,19,0,0,0-.77,3.17c-.71,4.19-1.46,8.36-2,12.56A3.75,3.75,0,0,1,821.78,641.36Z"/><path d="M991.2,700.63a26.59,26.59,0,0,1-2.43-2.11c-3.13-3.42-3.38-6.4-.68-10.4a15.83,15.83,0,0,1,8-6.15,7.23,7.23,0,0,1,3.2-.3,1.85,1.85,0,0,1,1,3.15,9.28,9.28,0,0,1-2.42,1.42,11.19,11.19,0,0,0-5.5,5.29c-.89,1.79-.72,2.67.8,4a36.2,36.2,0,0,0,3.67,2.59c1.61,1,3.32,1.92,4.14,3.64a3.57,3.57,0,0,1-2.14,3,12.19,12.19,0,0,1-13.13-.94c-.86-.68-1.09-1.53-.21-2.69,1.78-.72,3.79,1.35,5.69,0C991.26,701.05,991.2,700.83,991.2,700.63Z"/><path d="M542.16,668.4l-2.08-1.23c-1.75,1-1.84,2.69-2,4.29a6.91,6.91,0,0,0,1.24,5.07,21.57,21.57,0,0,0,1.94,2.12c.68.67,1.46,1.25,2.11,2,2.54,2.72,2.07,5.4-1.36,6.75a12.79,12.79,0,0,1-7.67.52,2.48,2.48,0,0,1-1.88-2,1.35,1.35,0,0,1,1.52-1.8c1.32.17,2.65.87,4.16-.27a6.19,6.19,0,0,0-.64-1.67c-.66-.87-1.49-1.6-2.21-2.42-3.15-3.6-3.89-9.33-.49-13.18.91-1,1.74-2.12,2.7-3.08A6.11,6.11,0,0,1,542,661.9a2.63,2.63,0,0,1,2.42,3.44,5.55,5.55,0,0,1-.79,1.43C543.25,667.3,542.76,667.76,542.16,668.4Z"/><path d="M650.27,674a8.43,8.43,0,0,0,5.88-1c1.86-1.13,4-.56,5.88.26a1.48,1.48,0,0,1,.54,2.11,3.08,3.08,0,0,1-2.25,1.58c-3.36.56-4.83,2.91-5.34,5.93-.54,3.22-.84,6.48-1.21,9.73-.11.94,0,1.92-.19,2.85a3.49,3.49,0,0,1-.85,1.77c-.77.77-1.75,1.43-2.92.93a2.38,2.38,0,0,1-1.31-2.36c0-1.09-.1-2.18-.07-3.27q.2-7.15.43-14.31A5.6,5.6,0,0,1,650.27,674Z"/><path d="M689.37,695.15a10.61,10.61,0,0,1-2.07,1A1.84,1.84,0,0,1,685,695a16.11,16.11,0,0,1-.93-4.35,40.1,40.1,0,0,1,.85-11,89.62,89.62,0,0,0,1.53-10.09,7,7,0,0,1,2.1-4.73,2.05,2.05,0,0,1,3.41.51,4.89,4.89,0,0,1,.48,3.56c-.46,3-1,5.89-1.54,8.84C689.9,683.44,688.6,689,689.37,695.15Z"/><path d="M466.19,680.73a10.48,10.48,0,0,1-1.51,1,1.81,1.81,0,0,1-2.5-.6,7.86,7.86,0,0,1-1.24-3.83,67.34,67.34,0,0,1,.41-16.3c.37-3,.49-6,2.06-8.69a9.84,9.84,0,0,1,.6-1,1.71,1.71,0,0,1,2.52.1,6.4,6.4,0,0,1,.88,2.65,46.9,46.9,0,0,1-.4,5.28c-.39,3.93-1,7.85-1.17,11.79C465.69,674.15,466.05,677.28,466.19,680.73Z"/><path d="M613.66,611.38c1.08-.4,2.09-.78,3.11-1.14a8.44,8.44,0,0,1,5.63.22,2,2,0,0,1,1.06,1.12c.23.76-.33,1.29-1,1.57a25.34,25.34,0,0,1-2.69,1,3.9,3.9,0,0,0-2.86,3.18c-.42,2.15-.77,4.31-1.15,6.47a21.44,21.44,0,0,1-.41,2.42,2.81,2.81,0,0,1-3.15,2,2.5,2.5,0,0,1-2.15-2.59A66.36,66.36,0,0,0,608.41,611a1.76,1.76,0,0,1,1-2.05,1.84,1.84,0,0,1,2.27.3C612.36,609.87,613,610.6,613.66,611.38Z"/><path d="M751.32,628.92a23.24,23.24,0,0,1,1.32-8,11.42,11.42,0,0,0,.35-3.63c0-.81-.15-1.63-.08-2.43a2.11,2.11,0,0,1,2.77-1.65,2.9,2.9,0,0,1,2.09,2.3,8.47,8.47,0,0,1,0,2.84,77.73,77.73,0,0,0-.86,15.08c0,.55,0,1.1,0,1.64-.08,1.69-.64,2.37-2,2.54-1.6.2-2.55-.38-2.87-2.16C751.68,633.27,751.55,631.08,751.32,628.92Z"/><path d="M645.81,623.52q.91-7.34,1.85-14.66a3.39,3.39,0,0,1,.39-1.16,2.41,2.41,0,0,1,2.27-1.47,2.23,2.23,0,0,1,2.21,1.55,11,11,0,0,1,.36,3.61c-.15,1.91-.61,3.78-.83,5.69-.4,3.39-.72,6.8-1.08,10.2a2.82,2.82,0,0,1-1.16,2.49,2.28,2.28,0,0,1-3.64-1.72,7.12,7.12,0,0,1-.14-1.22c0-1.09,0-2.19,0-3.29Z"/><path d="M770.12,680c-.57,2.5-1.13,5-1.71,7.5-.45,2-.93,4-1.39,5.95a13.46,13.46,0,0,1-.37,1.58,3.18,3.18,0,0,1-3.39,1.68,2.24,2.24,0,0,1-1.29-2.34,21.12,21.12,0,0,1,.22-3.65c.79-4.55,1.66-9.09,2.5-13.63,0-.27.11-.54.18-.8.45-1.48,1.39-2.2,2.62-2a2.56,2.56,0,0,1,2.34,2.44,26.93,26.93,0,0,1,0,3.24Z"/><path d="M700.53,681.88c-.28,2.9-.62,6.7-1,10.48a4.22,4.22,0,0,1-.77,2.26,3,3,0,0,1-2.08.89,2.09,2.09,0,0,1-1.46-1.17,9,9,0,0,1-.66-3.15c0-2.58.07-5.17.22-7.74.13-2,.42-4.05.63-6.08a8.14,8.14,0,0,1,.13-1.21,2.45,2.45,0,0,1,1.68-2.1,2.53,2.53,0,0,1,2.72,1.36,5,5,0,0,1,.6,1.91C700.6,678.54,700.53,679.77,700.53,681.88Z"/><path d="M939.46,690.32c1.49,0,3-.06,4.47,0a2.31,2.31,0,0,1,2.42,1.76c.2,1-.35,1.88-1.61,2.55a3.86,3.86,0,0,1-1.48.64c-3,.13-6,.31-8.91.22-1.47,0-2.23-1.43-2.07-3a2.36,2.36,0,0,1,2.29-2.39c1.63-.08,3.26,0,4.89,0Z"/><path d="M933.48,612.84c.39-2.1.78-4.37,1.25-6.62a4.38,4.38,0,0,1,2.35-3.16,2,2,0,0,1,2.85,1.34,5.46,5.46,0,0,1,.05,2.41c-.92,3.12-2,6.2-3,9.29a1.21,1.21,0,0,1-.42.68,3.94,3.94,0,0,1-1.79.56c-.37,0-.91-.65-1-1.08A28,28,0,0,1,933.48,612.84Z"/><path d="M650.09,599.42a3.11,3.11,0,0,1-1.55-2.86,2.62,2.62,0,0,1,.7-1.73,1.79,1.79,0,0,1,2.25-.11,3.44,3.44,0,0,1,1.68,2.61,1.39,1.39,0,0,1-.9,1.61A17.74,17.74,0,0,1,650.09,599.42Z"/><path d="M1012.76,703c.17,1-1,2.24-2.24,2.56a2.14,2.14,0,0,1-2.55-1.44,3.11,3.11,0,0,1,2.09-3.15C1011,700.73,1012.58,701.94,1012.76,703Z"/><path d="M702,667.16a13.23,13.23,0,0,1-1,1.14c-.71.64-1.5,1.35-2.49.69-.83-.56-.89-2.33-.28-3.38a1.51,1.51,0,0,1,2.1-.51A14.33,14.33,0,0,1,702,667.16Z"/><path d="M758.25,608.56a1.8,1.8,0,0,1-1.94-1.61,2.12,2.12,0,0,1,1.92-2.17,2.4,2.4,0,0,1,2.17,2.43C760.35,608,759.41,608.59,758.25,608.56Z"/><path d="M770.32,668.29a2,2,0,0,1-1.83,1.88,2.21,2.21,0,0,1-2.3-2.31,2.07,2.07,0,0,1,2-1.68A2.25,2.25,0,0,1,770.32,668.29Z"/><path d="M598.69,609.76c1.27,2.11-.28,3.61-1.22,5.13a12.43,12.43,0,0,1-8.75,6.17c-.32-2,.94-3.36,1.84-4.77A20.45,20.45,0,0,1,598.69,609.76Z" style="fill:#fff"/><path d="M578.12,608.44c-.45.53-.64,1-.89,1a2.45,2.45,0,0,1-1.39-.24c-.36-.2.08-1,.64-1.07A7.39,7.39,0,0,1,578.12,608.44Z" style="fill:#fff"/><path d="M666.57,619.51a16.32,16.32,0,0,1,3.36-5.67c1-1.07,1.69-2.48,3.42-3,.92,1.67-.05,3-.63,4.19C671.68,617.25,670,618.48,666.57,619.51Z" style="fill:#fff"/><path d="M570.84,685a7.77,7.77,0,0,1,.59-5.84c1.74-3.71,3.71-7.25,7.37-9.95a5.61,5.61,0,0,1,.68,1.49,25,25,0,0,1,0,2.87C579.4,678.72,576.4,682.78,570.84,685Z" style="fill:#fff"/><path d="M709.09,692.62a16.23,16.23,0,0,1-.28-2.72c.44-3.78.9-7.55,1.43-11.32.25-1.77,1.15-2.25,2.89-1.77,3.14.86,4.19,2.69,3.29,5.84a7.32,7.32,0,0,1-.85,1.84c-1.42,2.15-2.87,4.28-4.37,6.38A13.49,13.49,0,0,1,709.09,692.62Z" style="fill:#fff"/><path d="M972.81,698.7c.06-3.4-.3-6.65.71-10.05,2.46,1.23,2.63,3.27,2.65,5.26S975.29,697.12,972.81,698.7Z" style="fill:#fff"/><path d="M811.62,621.5c-.38,6-3.62,10.21-8.93,13a1.75,1.75,0,0,1-2.56-1.65,11,11,0,0,1,.19-2.43,27.3,27.3,0,0,1,7.14-13.15c.57-.61,1.21-1.18,2.13-.9a2.39,2.39,0,0,1,1.76,2.06C811.48,619.39,811.52,620.35,811.62,621.5Z" style="fill:#fff"/><path d="M860.25,681.42c1.58,1.3,1.23,2.89,1.22,4.34a11.39,11.39,0,0,1-1.88,6.57,15,15,0,0,1-5.5,5.33,9.81,9.81,0,0,1-2.67.5,5.23,5.23,0,0,1,.09-5c1.7-3.1,3.55-6.12,5.46-9.1A6.31,6.31,0,0,1,860.25,681.42Z" style="fill:#fff"/><path d="M526.26,609a10.64,10.64,0,0,1-.77,2.2,8.13,8.13,0,0,1-5.06,3.2,1.52,1.52,0,0,1-1.35-.54,1.58,1.58,0,0,1,.43-1.38A15.1,15.1,0,0,1,526.26,609Z" style="fill:#fff"/><path d="M902.14,619.74a1.61,1.61,0,0,1,.85,2.39c-2.14,3.32-4.25,6.73-8.36,8-.09,0-.23-.11-.35-.16A16.38,16.38,0,0,1,902.14,619.74Z" style="fill:#fff"/><path d="M433.19,663.42c4.21,4.48,4.2,12.1-.15,15.31-1.29.95-2.42.82-3-.54-1.09-2.64-.87-5.33-.33-8.05S431.08,665.18,433.19,663.42Z" style="fill:#fff"/><path d="M633.33,689.55c-1.8-3.26-1.5-5.06,2-12.22a28.77,28.77,0,0,1,3.34-.74,2.05,2.05,0,0,1,2.29,1.86c.55,3.11-.64,5.7-2.58,7.93A9,9,0,0,1,633.33,689.55Z" style="fill:#fff"/><path d="M445.67,618.37a8.33,8.33,0,0,1-.89-2c-.71-4.14.56-7.85,2.71-11.29a5.45,5.45,0,0,1,2.48-2c2-.78,3.43.16,4,2.22a7.58,7.58,0,0,1-.15,4.45C452.44,613.82,450.24,617.08,445.67,618.37Z" style="fill:#fff"/></g></svg>
