<svg xmlns="http://www.w3.org/2000/svg" viewBox="0 0 1366 768"><g id="Layer_16" data-name="Layer 16"><path d="M1227.36,77.24c-1.35-.1-2.21.83-3.11,1.57a220.94,220.94,0,0,0-21.84,20.88c-5.81,6.35-11.66,12.68-17.26,19.22-7.6,8.86-15.65,17.29-24.06,25.38-7.54,7.26-15,14.59-22.25,22.15-14,14.6-27.72,29.39-42.06,43.62-7.67,7.61-15.4,15.17-23.28,22.56-12.07,11.31-23.88,22.88-34.5,35.57-6.29,7.51-12.28,15.27-18.26,23q-8.13,10.54-16.8,20.64c-14.79,17.32-29.41,34.78-41.78,54a217.38,217.38,0,0,0-14.61,25.94A170.26,170.26,0,0,0,935,428.7a253.66,253.66,0,0,0-4.72,32.18c-.68,8.63-1,17.27-1.24,25.92-.35,10.56-.18,21.12-.12,31.68,0,2.91-.6,5.25-2.72,7.2" style="fill:none;stroke:#000;stroke-linecap:round;stroke-linejoin:round;stroke-width:2px"/><path d="M978.24,66.8c-.66,2.6-2.39,4.65-3.65,6.93a278.83,278.83,0,0,0-15.79,34.83c-6.72,17.62-12.18,35.67-18.24,53.52-4.86,14.35-10,28.6-16.06,42.49-4.63,10.57-10.26,20.63-15.46,30.91-5.81,11.47-11.22,23.12-16.51,34.83-6.09,13.46-11.67,27.13-17.22,40.82-5.26,13-10.19,26.1-15.41,39.1-5.74,14.27-11.06,28.72-18,42.49a47.14,47.14,0,0,1-20.88,21.14c-9.91,5.16-20.47,8.1-31.45,9.84a206.71,206.71,0,0,1-26.88,2.45c-5.68.16-11.36.42-17,.41" style="fill:none;stroke:#000;stroke-linecap:round;stroke-linejoin:round;stroke-width:2px"/><path d="M1227,159.68c.64,1.12-.36,1.77-.87,2.37-4.8,5.59-9.61,11.17-14.6,16.6-9.46,10.31-19.5,20-29.81,29.47-8.36,7.66-17,15.06-25.59,22.42-13.87,11.84-28.06,23.28-42.05,35-10,8.38-20.12,16.66-30,25.25-6.47,5.66-13,11.25-19,17.49-10.31,10.8-18.79,22.83-24,36.94a87.89,87.89,0,0,0-3.31,12,9.7,9.7,0,0,1-1,2.63,13.84,13.84,0,0,0-1.25,8.65c.57,4.37.79,8.8,1.26,13.19s.83,9,1.24,13.43c.3,3.28.6,6.57.94,9.85.71,6.71,1.3,13.43,1.89,20.16.49,5.52,1.09,11,1.68,16.56q.79,7.44,1.68,14.88c.53,4.56,1.06,9.13,1.68,13.68.67,4.89,1.45,9.76,2.15,14.64.58,4.08,1.21,8.14,1.74,12.23.77,6,.1,12,.44,18,.41,7.24.64,14.52,3.56,21.37a37.19,37.19,0,0,0,3.58,6,1.9,1.9,0,0,0,2.44.81" style="fill:none;stroke:#000;stroke-linecap:round;stroke-linejoin:round;stroke-width:2px"/><path d="M428.88,417.44a171.83,171.83,0,0,0-25.43,2.2q-11.44,1.64-22.8,3.84c-7.81,1.52-15.65,2.78-23.53,3.83a112,112,0,0,1-12.24,1.13c-5.84.13-11.69.39-17.51.65-6.49.29-13,.88-19.46,1.69-5.09.63-10.22,1.15-15.35,1.57-5.84.49-11.66,1.09-17.51,1.51s-11.53.41-17.29.36c-3.68,0-7.35,0-11-.36-5.46-.52-10.88-1.23-16.32-2-8.16-1.11-16.22-2.77-24.22-4.64-16.75-3.91-33.28-8.65-49.94-12.88-10.14-2.57-20.38-4.86-30.72-6.48a229.67,229.67,0,0,0-27.35-2.74c-2.64-.09-5.28-.13-7.92-.19" style="fill:none;stroke:#000;stroke-linecap:round;stroke-linejoin:round;stroke-width:2px"/><path d="M1229.28,380.24A144.07,144.07,0,0,0,1201.2,379c-5.69.31-11.39.5-17,1.24-8.42,1.11-16.89,2.21-24.7,5.8-7.28,3.34-11.39,9.56-14.47,16.73a93.66,93.66,0,0,0-5.87,20.91c-2,11.68-5.19,23.07-8,34.55a96.21,96.21,0,0,0-3.16,23.52c0,4.34,1.66,7.53,5.54,9.62a107.37,107.37,0,0,0,27.85,10.08,141,141,0,0,0,34.56,3.28,147.83,147.83,0,0,0,19.21-1.78q7.62-1.23,15.11-2.94c.74-.18,1.59-.06,1.44-1.22" style="fill:none;stroke:#000;stroke-linecap:round;stroke-linejoin:round;stroke-width:2px"/><path d="M1212.48,691c-8.07-4.41-16.9-6.67-25.67-9.16a149.22,149.22,0,0,1-23.29-8.59c-10-4.74-20.27-8.77-30.5-12.93-10.43-4.24-20.76-8.67-31-13.45-10.38-4.87-20.53-10.15-30.71-15.39q-16.6-8.53-33.24-17" style="fill:none;stroke:#000;stroke-linecap:round;stroke-linejoin:round;stroke-width:2px"/><path d="M1228.32,359.36v1.82c-4.81.51-9.6,1-14.4,1.54-4.32.45-8.66.73-13,1.28-5.28.68-10.58,1.19-15.86,1.76-9.14,1-18.26,2.11-27.34,3.48s-17.84,3.12-26.66,5.21a212.7,212.7,0,0,0-36.69,12.08,221.9,221.9,0,0,0-26.66,14.11c-2.33,1.43-4.64,2.88-7,4.32-.08.05-.16.08-.24.12l.12.12" style="fill:none;stroke:#000;stroke-linecap:round;stroke-linejoin:round;stroke-width:2px"/><path d="M1069.68,552.56c1.15-.95,2.64-1.31,3.68-2.58a2.35,2.35,0,0,1,3.46,0c2.83,3.46,6.76,5.32,10.39,7.61,19,12,38.65,23.11,57.6,35.28,12,7.69,24,15.33,36.22,22.59,7.56,4.48,15.5,8.21,23.28,12.25A89.39,89.39,0,0,1,1224,641.34a12.65,12.65,0,0,0,7.42,3.62" style="fill:none;stroke:#000;stroke-linecap:round;stroke-linejoin:round;stroke-width:2px"/><path d="M1237.44,522.08c-5.77.13-11.26,1.77-16.79,3.14-8.92,2.22-17.84,4-27.13,4.17-7.61.12-15.2-.14-22.8-.11-6.49,0-13,.2-19.43.81-7.3.68-14.59,1.67-21.86,2.7a187.13,187.13,0,0,0-34.78,8,157.41,157.41,0,0,0-14.89,6.21,5.2,5.2,0,0,0-2.88,2.65" style="fill:none;stroke:#000;stroke-linecap:round;stroke-linejoin:round;stroke-width:2px"/><path d="M858,456.8c-.24,0-.68.05-.69,0-1.22-5.23-5.54-6.61-9.87-7.89-5.31-1.57-10.67-.86-15.82.54-6.52,1.77-12.88,4.1-18.53,8a6.66,6.66,0,0,0-2.85,3.4" style="fill:none;stroke:#000;stroke-linecap:round;stroke-linejoin:round;stroke-width:2px"/><path d="M698.4,237c-2.62,1.47-3.44,4.21-4,6.74-.68,3.24-1.65,6.72.82,9.84a10.45,10.45,0,0,0,2,2.1,2.88,2.88,0,0,0,4.07-.18c3.45-3.16,4.56-7.58,2.13-12-.75-1.38-1.3-3.07-2.45-4-2.62-2.15-2.66-4.66-1.86-7.51" style="fill:none;stroke:#000;stroke-linecap:round;stroke-linejoin:round;stroke-width:2px"/><path d="M159.36,134.48a9.16,9.16,0,0,0,.26,1.91,3.88,3.88,0,0,1-1,4.11c-2.32,2.81-1.94,6.26-1.9,9.58,0,.25.15.63.19,1,.41,3.08,1.42,4,4.08,3.87,2.05-.07,4.46-2.45,4.09-4.59-.73-4.18-1.31-8.42-5.29-11" style="fill:none;stroke:#000;stroke-linecap:round;stroke-linejoin:round;stroke-width:2px"/><path d="M568.08,158.72a6.87,6.87,0,0,0-2.87,4.56c-.38,2.31-1.08,4.57-1,7,.12,2.9,1.95,4.1,4.58,2.88a4.55,4.55,0,0,0,2.91-4.56c-.06-3.55-.06-7.06-3.14-9.61-.34-.28-.26-.77-.26-1.19a9.64,9.64,0,0,0-.23-3.12" style="fill:none;stroke:#000;stroke-linecap:round;stroke-linejoin:round;stroke-width:2px"/><path d="M676.08,129.44c2.18-.25,4.35-.83,6,1.42,1.53,2.06,2.31,4.21,1.64,6.74a6.16,6.16,0,0,1-4.55,4.55c-1.71.49-3-.58-3.09-2.87a26.85,26.85,0,0,1,.93-9.6" style="fill:none;stroke:#000;stroke-linecap:round;stroke-linejoin:round;stroke-width:2px"/><path d="M578.4,333.68c-.81,1.18-2.49,1.56-2.88,3.12-.71,2.88-1.12,5.73.71,8.4.83,1.2,1.83,1.35,2.88.47a9.18,9.18,0,0,0,3.1-8.15c-.16-2.24-1.79-3-3.81-3.12" style="fill:none;stroke:#000;stroke-linecap:round;stroke-linejoin:round;stroke-width:2px"/><path d="M286.32,313c5.43,4.49,8,10.2,7.44,17.28-.42,5.08-5.72,7.3-8.88,5.77-2.46-1.19-3.87-5.54-3.7-8.66.28-5.18,2.95-8.62,6.82-11.51" style="fill:none;stroke:#000;stroke-linecap:round;stroke-linejoin:round;stroke-width:2px"/><path d="M379.92,353.12c-.27,0-.56.05-.72-.24-1.5-2.73-3.73-3.88-5.75-2.87-1.78.9-2.68,4-1.44,6.7,1.08,2.35,2.66,2.64,4.55,1a6.84,6.84,0,0,0,2.64-4.56" style="fill:none;stroke:#000;stroke-linecap:round;stroke-linejoin:round;stroke-width:2px"/><path d="M155,343c2.41,0,3.77,2,2.83,4.78a8,8,0,0,1-5.71,5.54,3,3,0,0,1-3.87-1.91,11.6,11.6,0,0,1-.93-5.05" style="fill:none;stroke:#000;stroke-linecap:round;stroke-linejoin:round;stroke-width:2px"/><path d="M796,158.72a13.45,13.45,0,0,1,.19,3.13,6.45,6.45,0,0,0,1.5,5.36c2.43,3,3,6.85,2.73,10.71a6.44,6.44,0,0,1-3.33,5.05c-2.28,1.48-4.06.67-4.82-2.17-.61-2.25-.06-4.52.17-6.7a24.71,24.71,0,0,1,.69-3.89,9,9,0,0,1,2.75-4.53" style="fill:none;stroke:#000;stroke-linecap:round;stroke-linejoin:round;stroke-width:2px"/><path d="M303.84,208.16a6.55,6.55,0,0,1-.71,2.88c-.61,2-.8,4,1.18,5.53s3.89,1.16,5.75.42c2.85-1.15,4.67-4.66,4.46-7.87" style="fill:none;stroke:#000;stroke-linecap:round;stroke-linejoin:round;stroke-width:2px"/><path d="M866.64,93c2,1.57,4.62,2.48,4.86,5.76.3,4.19-1.93,7.06-6.06,7.21-1.13,0-2.18.73-3.36.47" style="fill:none;stroke:#000;stroke-linecap:round;stroke-linejoin:round;stroke-width:2px"/><path d="M768,360.08c-4.89,1.73-7,5.73-5.52,10.56.72,2.38,1.9,3.48,3.6,3.36a4.35,4.35,0,0,0,3.8-3.84c.18-3.09.16-6.21-1.17-9.12-.85-1.84-.3-3.9-1-5.76" style="fill:none;stroke:#000;stroke-linecap:round;stroke-linejoin:round;stroke-width:2px"/><path d="M498.48,279.68c.57-.09.88.17.71.72A13.46,13.46,0,0,0,499,285a2.57,2.57,0,0,0,4,2.15,7.37,7.37,0,0,0,3.58-6c.19-2-2.33-3.66-4.52-3.1a5.28,5.28,0,0,0-2.89,1.66" style="fill:none;stroke:#000;stroke-linecap:round;stroke-linejoin:round;stroke-width:2px"/><path d="M346.56,107.36a2.49,2.49,0,0,1,3.1,1.93c1.25,3.83,1.11,7.57-1.19,11-1,1.52-2.19,1.66-3.58.48-2.49-2.11-2.52-5-2.34-7.91a7.42,7.42,0,0,1,.17-1.44" style="fill:none;stroke:#000;stroke-linecap:round;stroke-linejoin:round;stroke-width:2px"/><path d="M1074,549.44a5.55,5.55,0,0,0-2.18-2.61,68.51,68.51,0,0,1-7.38-6.32,4.17,4.17,0,0,0-3.64-1.39" style="fill:none;stroke:#000;stroke-linecap:round;stroke-linejoin:round;stroke-width:2px"/><path d="M829.44,264.56a1.69,1.69,0,0,1,1.66.5c2.16,1.78,2.29,8-.94,9.82a3.5,3.5,0,0,1-4.8-1.68c-1-2.29.53-7.38,2.65-8.62.24-.14.63,0,1,0" style="fill:none;stroke:#000;stroke-linecap:round;stroke-linejoin:round;stroke-width:2px"/><path d="M412.8,189.92c-.09,2,.51,3.85.65,5.77.26,3.3-.23,6.51-3.22,8.65-4-1.45-4.29-4.71-4.15-8.18" style="fill:none;stroke:#000;stroke-linecap:round;stroke-linejoin:round;stroke-width:2px"/><path d="M868.08,94.88c-3,2.93-3.43,6.64-3.12,10.56" style="fill:none;stroke:#000;stroke-linecap:round;stroke-linejoin:round;stroke-width:2px"/></g></svg>
