<svg xmlns="http://www.w3.org/2000/svg" viewBox="0 0 1366 768"> <g id="Layer_16" data-name="Layer 16"><path d="M950.88,710.24c-.94-.12-1.66.1-2.5-1.14-5.12-7.54-8.82-15.83-13.11-23.81a88.79,88.79,0,0,0-12.91-18.76c-9.13-9.85-19.87-17.81-30.31-26.09-18.6-14.74-36.83-29.93-55.43-44.65-15-11.86-29.78-23.93-45.83-34.34A244.88,244.88,0,0,0,756,542.92a347.35,347.35,0,0,0-47.31-16.71q-16.86-4.68-34.06-8c-9.81-1.92-19.64-3.74-29.53-5.22-6.24-.93-12.46-2.13-18.73-2.8q-7.18-.78-14.38-1.6c-6-.68-12-1.16-18-1.73-4.37-.42-8.79-.66-13.19-.81-6.64-.24-13.28-.36-19.92-.24a344.26,344.26,0,0,0-46.56,4.09,381.28,381.28,0,0,0-41.75,8.91q-20.22,5.51-39.86,12.88-20.23,7.54-39.84,16.58A427.83,427.83,0,0,0,337.92,578a365,365,0,0,0-42.27,32.37c-15.14,13.33-29.28,27.67-43.19,42.25-3.9,4.1-7.88,8.12-11.77,12.23-8.42,8.91-16.63,18-24.26,27.59-2.53,3.2-5.39,6.14-7.87,9.4-1.35,1.79-2.78,3.53-1.48,6,.26.5,0,1.26,0,1.9" style="fill:none;stroke:#000;stroke-linecap:round;stroke-linejoin:round;stroke-width:2px"/><path d="M1058.4,716.48c.29-11.47-2.71-22.17-7.14-32.67-8-18.95-18.82-36.32-29.62-53.71A318.17,318.17,0,0,0,995,593.17a379,379,0,0,0-34.21-36.35c-5.35-4.89-10.65-9.84-16.16-14.55s-11.09-9.09-16.72-13.53C916.69,519.91,905,511.79,893,504.1a459.94,459.94,0,0,0-54-29.59c-8.3-3.87-16.86-7.1-25.17-10.88-3.1-1.41-6.25-2.39-9.4-3.51-13.38-4.77-26.61-9.94-40.11-14.33-6.22-2-12.73-3-18.94-5.1-3.21-1.07-6.36-2.28-8.92-4.74-3.18-3-7.55-3.64-11.5-5.05A166.9,166.9,0,0,0,698.38,424a274.86,274.86,0,0,0-29.5-3.72c-10.31-.74-20.63-1.15-31-1.5-12.64-.44-25.28-.51-37.92-.3-7.92.13-15.84.21-23.76.43-12,.33-24,.84-36,1.44-4.72.24-9.46.53-14.15,1-7.53.75-15.07,1.28-22.58,2.22-5.67.71-11.35,1.37-17,2.06-5.22.63-10.42,1.44-15.59,2.39-7.3,1.33-14.63,2.6-21.83,4.36-8,1.94-15.9,3.94-23.8,6.08-15.86,4.29-31.41,9.46-46.78,15.2A521.41,521.41,0,0,0,319,480.31a515.75,515.75,0,0,0-62.41,38.4c-11.16,8-21.92,16.55-32.41,25.42-13.58,11.48-27.39,22.69-41,34.13-14.58,12.24-28.29,25.37-39.59,40.79A159.49,159.49,0,0,0,133,635.83c-6.88,12.41-12.52,25.42-18.71,38.17-3.23,6.66-7.24,12.87-11,19.19a63.67,63.67,0,0,0-3.35,7" style="fill:none;stroke:#000;stroke-linecap:round;stroke-linejoin:round;stroke-width:2px"/><path d="M230.88,519h-2.64c-.73-3.85.3-7.55,1-11.28s1.62-7.57,1.74-11.52a25.75,25.75,0,0,0-5.66-17,88.55,88.55,0,0,0-36.16-27.91c-10.82-4.48-22-8-32.91-12.16-11.13-4.26-22.19-8.75-33.58-12.29a130.88,130.88,0,0,0-19.2-4.81" style="fill:none;stroke:#000;stroke-linecap:round;stroke-linejoin:round;stroke-width:2px"/><path d="M857.28,457a8.18,8.18,0,0,1-2.85,4.36c-3.91,3.49-8.61,5.41-13.49,6.84-2.49.73-4.07,1.85-4.54,4.4" style="fill:none;stroke:#000;stroke-linecap:round;stroke-linejoin:round;stroke-width:2px"/></g></svg>
