<svg xmlns="http://www.w3.org/2000/svg" viewBox="0 0 1366 768"><g id="Layer_22" data-name="Layer 22"><path d="M729.17,308.7c.25-1.45.42-2.22.53-3a240,240,0,0,1,4.15-24.28c.25-1.07.51-2.14.69-3.22.92-5.4,1.8-10.8,2.7-16.2.15-.92.47-1.87-.48-2.81l-5,1.45c-1.76.51-3.28-.08-3.76-2.64a4.65,4.65,0,0,1,.11-2,26.52,26.52,0,0,1,1.81-5.87c2-3.71,4.14-7.41,7.25-10.4a5.92,5.92,0,0,1,3.2-1.71,3.25,3.25,0,0,1,3.8,1.74c1.53,3.15,2.47,6.41,1.09,9.9A43.39,43.39,0,0,0,742.44,262a31.1,31.1,0,0,1-1,4.82c-1.18,4.92-2.4,9.84-3.59,14.76-.52,2.12-1.09,4.24-1.51,6.38-.69,3.49-1.4,7-1.85,10.5-.65,5-1.07,10.07-1.61,15.11-.17,1.51-.53,2.95-2,3.77-1.65-.17-2.41-1.41-3.26-2.43a48.25,48.25,0,0,1-6.95-11.12c-1.73-3.87-3.29-7.82-4.83-11.77a28.31,28.31,0,0,1-1.68-11.31,9.1,9.1,0,0,1,1.19-3.41c.17-.36.84-.48,1.61-.89a9.48,9.48,0,0,1,.2,2.23,16.4,16.4,0,0,0,.62,7.72,88.72,88.72,0,0,0,7.69,18.09A14.63,14.63,0,0,0,729.17,308.7ZM741,242.87a21.68,21.68,0,0,0-3.7,4.73c-.85,1.53-1.62,3.12-2.38,4.7-.08.16.13.47.28.92,2-.44,3.06-2.11,4-3.64C740.36,247.81,741.66,246,741,242.87Z"/><path d="M276.13,263.54,278,265a3.58,3.58,0,0,0,3.52.32,1.48,1.48,0,0,0,.89-2.28c-1.09-1.58-2.27-3.09-3.37-4.66-4.21-5.95-2.48-14.76,4.33-18.91,1.07-.66,2.57-.62,3.57-.83,2.69,1.71,3.46,4.28,4.66,6.72.77-.14,1.41-.3,2.06-.35,4.51-.36,7.94,1.56,10.5,5.15a4.44,4.44,0,0,1,.4,4.67,15.24,15.24,0,0,0-1,3.1,11.74,11.74,0,0,1-4.69,7c-1.53,1.15-3.14,2.19-4.94,3.43-.17,1.72-.38,3.62-.53,5.52a3.68,3.68,0,0,1-1.39,2.84c-1.34,1-2.84.66-3.13-1s-.21-3-.33-4.48c-.11-1.32.33-2.78-1.06-4.05-1.27.53-2.62,1.1-4,1.65a7.07,7.07,0,0,1-6.69-.4C275.06,267.4,274.84,266.43,276.13,263.54Zm9.46-19.92c-4.61,4.17-5.13,8.45-1.82,12.84,1.06,1.41,2.18,2.79,3.34,4.11.28.32.84.38,1.43.62.18-3,.33-5.73.48-8.43a1.93,1.93,0,0,0,0-.41c-.08-.53,0-1.28-.31-1.55-1.73-1.49-1.65-3.62-2.16-5.55A8.27,8.27,0,0,0,285.59,243.62Zm9,19.66a12.18,12.18,0,0,0,2.07-1.66,38.74,38.74,0,0,0,2.62-4.08c1.78-3.27.87-5.68-2.6-7.13a1.42,1.42,0,0,0-2.07,1.22C294.52,255.25,294.57,258.88,294.57,263.28Z"/><path d="M501.79,184.48c1.08-.23,1.73-.39,2.4-.5a3,3,0,0,1,2.64.81c2,1.81,3.49,3.88,3.63,6.67.06,1.37,0,2.74,0,4.11,0,2.05,0,4.1,0,6.16a7.34,7.34,0,0,1-.32,2.39,1.75,1.75,0,0,1-1.27.85,1.55,1.55,0,0,1-1.25-.76,22.72,22.72,0,0,1-.84-3.58c-.4-2.29-.69-4.61-1.12-6.89a16.86,16.86,0,0,0-.9-2.57c-1.1-.16-1.38.51-1.58,1.14-1,3.26-2,6.54-3,9.8a6.65,6.65,0,0,1-1,2.18,2.85,2.85,0,0,1-2.88,1.24c-1.28-.35-1.42-1.61-1.39-2.7.05-2.6.19-5.2.34-7.8.1-1.77.32-3.54.4-5.32a10.22,10.22,0,0,0-.32-2c-1.72-.26-2.69.89-3.95,1.3a26.65,26.65,0,0,0-.84,8.62c.09,2.71.31,5.42.48,8.21a9.29,9.29,0,0,1-2.09.7,2.18,2.18,0,0,1-2.54-1.61,13.42,13.42,0,0,1-.48-2.82c-.16-2.33-.22-4.66-.38-7-.08-1.06-.3-2.11-.44-3-1.65-1.1-3.21-.26-4.64-.61a1.31,1.31,0,0,1-.81-.78,1.2,1.2,0,0,1,.26-1.08,9.3,9.3,0,0,1,2.54-1.27c2.73-.72,3.69-2.45,3.47-5.18-.17-2-.05-4.11,0-6.17a2.82,2.82,0,0,1,1.22-2.46,2.34,2.34,0,0,1,3.64,1.26,12.69,12.69,0,0,1,.38,2.83c.11,1.48.14,3,.2,4.49a5.23,5.23,0,0,0,1.47.11c3.55-1,3.69-1.19,3.73-4.74,0-1.09-.11-2.19-.09-3.28a4.29,4.29,0,0,1,2-3.4,1.94,1.94,0,0,1,2.94,1.13,27.85,27.85,0,0,1,.33,4.09C501.83,179.4,501.79,181.71,501.79,184.48Z"/><path d="M739.41,210.07a16.15,16.15,0,0,1-2.53.76,1.61,1.61,0,0,1-2-1.59c-.1-1.09,0-2.19-.13-3.28a15.28,15.28,0,0,0-.52-2.15c-.75.05-1.39.07-2,.15-1.89.25-3.77.59-5.67.76a5.83,5.83,0,0,1-2.4-.39,3.88,3.88,0,0,1-2.79-4.49,19.63,19.63,0,0,1,2.17-7c2.81-5,6.86-8.85,11-12.66a12,12,0,0,1,3.53-2,4,4,0,0,0,2.39-3.06c.59-2.52,1.33-5,2-7.51a5.63,5.63,0,0,1,2.42-3.2,1.38,1.38,0,0,1,2.08.51,10.72,10.72,0,0,1,.75,3.15c.06,3.7.13,7.4-.09,11.09a33.53,33.53,0,0,1-4.93,15.9,18,18,0,0,0-2.61,8.5C739.91,205.72,739.64,207.87,739.41,210.07Zm-2.12-26c-4.33,2.85-6.87,6.66-9.23,10.63-1,1.79-2,3.58-1.53,5.72a3.24,3.24,0,0,0,3.87.53,33.93,33.93,0,0,0,3.57-2,4.24,4.24,0,0,0,2.16-3.28c.42-3.12,1-6.21,1.51-9.32A9.07,9.07,0,0,0,737.29,184Z"/><path d="M352.21,266.69c-1.48,1-2,3.06-4.29,3.38a6.58,6.58,0,0,1-1.22-1.83,15,15,0,0,1-.59-4c.09-5.19.3-10.38.49-15.57.06-1.78.15-3.56.31-5.33a13.2,13.2,0,0,1,.59-3.2,4.83,4.83,0,0,1,1.43-1.93,1.86,1.86,0,0,1,3.12,1.14,17.84,17.84,0,0,1,.17,3.27c-.14,3.41-.36,6.82-.54,10.24,0,.8,0,1.61,0,2.3.84.73,1.4.22,1.91-.17.76-.58,1.4-1.33,2.21-1.83a5,5,0,0,1,5.43-.26,1.67,1.67,0,0,1,.49,2.73,22.81,22.81,0,0,1-2.56,2c-1.21.89-2.49,1.69-3.67,2.61a1.28,1.28,0,0,0,.39,2.29,28.29,28.29,0,0,0,5.93,1.48,39.47,39.47,0,0,0,6.95-.27c1.82-.17,2.44-.87,2.41-2.67-.05-3.14-.25-6.28-.37-9.43-.09-2.59-.11-5.19-.24-7.79a7.57,7.57,0,0,1,1.71-4.93,1.46,1.46,0,0,1,2.63.23,12.34,12.34,0,0,1,1,3.51c.22,2,.21,4.09.3,6.14.24,5.87.46,11.75.73,17.62a4.19,4.19,0,0,1-3.26,4.74l-2.52-4.22c-3.28.67-6.39,1.92-9.72,1.32C358.35,267.71,355.27,267.2,352.21,266.69Z"/><path d="M415.21,248.45c-.82,1.61-1.42,2.83-2.06,4a4.44,4.44,0,0,0,.22,5,21.32,21.32,0,0,1,2.27,4.37c1.17,3-1.19,7.35-4.39,8.1a2.2,2.2,0,0,1-1.53-.31,5.3,5.3,0,0,1-1.43-1.44c-1.34-1.84-1-2.87,1.31-4a4.9,4.9,0,0,0,.56-.46c-.32-.84-.68-1.77-1-2.63-.52,0-.87,0-1,.09-1.76,1.52-3.45,3.1-5.21,4.62a20,20,0,0,1-12.43,4.69,6.64,6.64,0,0,1-6.93-4.09,10.57,10.57,0,0,1-.33-9.12c.45-1,.91-2,1.26-3,1-3,3.36-4.94,5.64-6.9a6.12,6.12,0,0,1,2.21-1.06c2.63-.78,4.24.22,4.77,2.91a9.28,9.28,0,0,1-1,6.36A23,23,0,0,1,391,262c-.8.71-1.59,1.43-2.34,2.12,1.28,2.36,2.45,3,4.59,2.33a35.23,35.23,0,0,0,5.64-2.45,18.73,18.73,0,0,0,6.18-4.66c1-1.3,1.6-2.48.66-4.08-1.73-2.93-1.25-6.12-.74-9.22a6.35,6.35,0,0,1,1.9-3.06,3.31,3.31,0,0,1,5.32.45C413.32,245,414.17,246.69,415.21,248.45Zm-26.69,10.07a14.16,14.16,0,0,0,5-6.43,1.25,1.25,0,0,0-.23-1.08,1,1,0,0,0-1,0A12.1,12.1,0,0,0,388.52,258.52ZM411,250.65l-.56-.35c-.1.24-.3.49-.27.71s.36.24.55.36C410.85,251.13,410.94,250.89,411,250.65Z"/><path d="M630.91,202.07c-1.86.76-3.64,1.4-5.35,2.2-2.87,1.36-5.61.63-8.32-.42a2.72,2.72,0,0,1-1.61-2.23,12.12,12.12,0,0,1,1.25-8c2.43-4.82,6.34-8.14,11-10.72a9.14,9.14,0,0,1,1.48-.71c1.64-.58,2.2-1.78,2.42-3.44.41-3,1-5.92,1.55-8.88a5.75,5.75,0,0,1,.18-.8c.87-2.6,2.85-4.94,3.73-4.34,1.65,1.13,1.52,3.09,1.74,4.8.29,2.29.37,4.57,1.37,6.77a6.88,6.88,0,0,1,.11,4,84.22,84.22,0,0,1-3,11.9c-1.37,3.67-1.84,7.09-.15,10.68a4.32,4.32,0,0,1,.25.77,1.67,1.67,0,0,1-1.32,2.15,3.3,3.3,0,0,1-3.85-1.6C632,203.59,631.49,203,630.91,202.07Zm-9.65-1.41a9.59,9.59,0,0,0,7-3.21c.81-.9,1.9-1.82,2.15-2.9a12.8,12.8,0,0,0-.08-6.62,2.85,2.85,0,0,0-3.17,1,59.4,59.4,0,0,0-5.13,6.31,10.78,10.78,0,0,0-1.14,3.86C620.75,199.55,621.09,200.08,621.26,200.66Z"/><path d="M494.43,265.67c-1,.64-1.86,1.27-2.79,1.77a17.17,17.17,0,0,1-3,1.31,14.59,14.59,0,0,1-3.56.76,4.16,4.16,0,0,1-4.65-3.63,14.5,14.5,0,0,1,.8-8.85,37.2,37.2,0,0,1,3.42-6.49c1.88-2.76,4.33-4.9,7.88-5.3a6.06,6.06,0,0,0,1.33-.58A55.15,55.15,0,0,0,495,235.5a9.13,9.13,0,0,1,1.54-5,2.12,2.12,0,0,1,3.66.33,7.16,7.16,0,0,1,.53,2.37c.35,6.69.59,13.38-.65,20-.27,1.48-.49,3-.67,4.45-.31,2.73-.42,5.45.85,8a1.68,1.68,0,0,1-.26,2.23,2.84,2.84,0,0,1-3.4.33,8.35,8.35,0,0,1-1.07-1.22Zm-.33-9.74c-.18-2-.28-3.21-.41-4.43a3.69,3.69,0,0,0-.24-.78,1.39,1.39,0,0,0-2-.73,9.43,9.43,0,0,0-2.38,2.19c-2,3.12-3.8,6.34-4.24,10.12a9.88,9.88,0,0,0-.07,1.63,1.57,1.57,0,0,0,2,1.47c2.07-.35,3.18-2,4.57-3.28C493.35,260.25,494.44,258,494.1,255.93Z"/><path d="M668.17,184.44c3-1.34,3.7-1.37,5.33-.48a5.19,5.19,0,0,1,2.73,4.32,18.82,18.82,0,0,1,0,6.13c-.65,3.07-1.08,6.13.08,9.3.69,1.91-1,2.83-2.79,3.65-.4-.66-1-1.17-1-1.75-.26-1.75-.4-3.52-.49-5.29-.13-2.45-.14-4.92-.29-7.37a6.82,6.82,0,0,0-.67-1.87c-1.46.8-1.55,2.13-2,3.24-.89,2.44-1.61,5-2.6,7.35a10.77,10.77,0,0,1-2.09,3,1.71,1.71,0,0,1-2.53-.34,5,5,0,0,1-.93-3.49c.08-1.92.13-3.84.3-5.75.72-7.91,1.43-15.82,2.27-23.72a42.26,42.26,0,0,1,1.37-6,2.46,2.46,0,0,1,2.38-1.91,2.27,2.27,0,0,1,2.69,2.33,8.16,8.16,0,0,1-.26,1.62A67,67,0,0,0,668,182.45C668,183,668.11,183.52,668.17,184.44Z"/><path d="M560.53,196.74a15.76,15.76,0,0,0,.9-2.51c.43-2.43.7-4.88,1.13-7.31a9.46,9.46,0,0,1,.89-2.69,1.81,1.81,0,0,1,3.07,0,11.76,11.76,0,0,1,.93,3.13c.32,2,.47,4.08.76,6.11a17.39,17.39,0,0,0,1.86,6.44,9.26,9.26,0,0,0,3.73-5.88c1-4.52,2.21-9.09.6-13.76a1.54,1.54,0,0,1,1-2,1.9,1.9,0,0,1,2.24.5,4.12,4.12,0,0,1,.82,1.82,34.9,34.9,0,0,1-2.37,18.1,15.68,15.68,0,0,1-2.2,3.46,3.77,3.77,0,0,1-1.53,1.31c-3,1.1-4.21,1.22-5.9-1.57l-1.66-2.73c-.7,1-1.23,1.66-1.75,2.38a5.41,5.41,0,0,1-3.22,2.37,2.39,2.39,0,0,1-3.07-1.33,15.67,15.67,0,0,1-2.2-6.56c-.14-3.42-.26-6.85-.36-10.27a3.35,3.35,0,0,1,1.6-3.13,2,2,0,0,1,3.24,1.18,15.82,15.82,0,0,1,.24,2.85c.07,2.6.09,5.2.17,7.8C559.44,195.28,559.31,196.17,560.53,196.74Z"/><path d="M453,227.58c-1-1.24-.85-2.47-.67-3.69,1-6.5,1.95-13,2.88-19.5a23.73,23.73,0,0,0,0-3.07l-3,.14a2.88,2.88,0,0,1-3.11-2.17,22,22,0,0,1-.34-11.77,2.73,2.73,0,0,1,2.06-2.32c.88-.16,1.66.84,2,2.71.22,1.49.23,3,.38,4.5.14,1.33-.17,2.73.58,3.92a1.46,1.46,0,0,0,1.88-.46,9.83,9.83,0,0,0,2.65-5.47c.39-2.74,2.31-4.6,3.65-6.79.4-.67,1.65-.41,2.08.31a5.22,5.22,0,0,1,.52,4,45.65,45.65,0,0,1-1.39,5.16,67.44,67.44,0,0,0-2.4,11.23c-1,6.21-2.23,12.39-3.38,18.58a12.61,12.61,0,0,1-.62,2.38A3.41,3.41,0,0,1,453,227.58Z"/><path d="M404.53,203.09a14.55,14.55,0,0,0-1.65,1.45c-1.18,1.45-2.73,1.68-4.44,1.58a2.9,2.9,0,0,1-2.42-1.33,6.4,6.4,0,0,1-1-1.8,33.74,33.74,0,0,1-1.26-12.2,3.33,3.33,0,0,1,1.56-2.74,3.79,3.79,0,0,1,2.26-.54,1.79,1.79,0,0,1,1.27,1.9c0,.82-.08,1.64-.07,2.46,0,2.47.07,4.94.19,7.4a10.71,10.71,0,0,0,.73,2.27c.73-.82,1.34-1.21,1.52-1.76.91-2.86,1.73-5.75,2.54-8.64a37.65,37.65,0,0,1,1.06-3.95c.18-.45,1-.77,1.65-.88a1.29,1.29,0,0,1,1.49,1.1,23.7,23.7,0,0,1,.34,3.26c.13,2.73.17,5.48.35,8.21.09,1.34.12,2.76,1.33,4a6.77,6.77,0,0,0,3.48-4.21c.41-1.15.67-2.37,1-3.56,1.28-4.73,1.27-4.84-.29-9.08a2.25,2.25,0,0,1,2.85-.88,2.38,2.38,0,0,1,1.6,2.19,25,25,0,0,1-3.46,16.16,8.63,8.63,0,0,1-3.19,3.13c-2.44,1.35-4.36.93-6-1.38C405.59,204.56,405.12,203.92,404.53,203.09Z"/><path d="M345.06,190.93c-1.92,2.18-2.34,4.88-2.8,7.54-.23,1.35-.23,2.73-.37,4.09a3.44,3.44,0,0,1-2,2.88c-1.55.76-2.7.24-3-1.48a10.68,10.68,0,0,1-.18-2c.06-6.15.19-12.31.22-18.47,0-2.87-.15-5.74-.18-8.62a2.34,2.34,0,0,1,3.4-2.2,3.09,3.09,0,0,1,1.43,1.83,54.23,54.23,0,0,1,.7,6.1c.1,1.35,0,2.7,0,4.29,1.81-.17,3.45-.71,4.84.55,2,1.85,4.12,3.66,4.84,6.47a17.93,17.93,0,0,1,.57,3.23c.15,2.19.21,4.38.24,6.56a4.59,4.59,0,0,1-.33,2,1.73,1.73,0,0,1-1.22.87,1.57,1.57,0,0,1-1.28-.74c-.56-1.68-1-3.41-1.42-5.13s-.84-3.45-1.36-5.15A3.56,3.56,0,0,0,345.06,190.93Z"/><path d="M583.67,251.26a4.87,4.87,0,0,0-1.94,3.27c-.85,3.3-1.61,6.62-2.5,9.91a5.71,5.71,0,0,1-1.28,2.45,2,2,0,0,1-3.44-1.08,13.22,13.22,0,0,1-.07-2.44q.06-13.92.11-27.85c0-.41,0-.82,0-1.22a2.27,2.27,0,0,1,4.38-.43c.41,2.13.65,4.3.9,6.47.23,2-.16,4,.41,6.33,1-.43,1.67-.78,2.4-1s1.3-.37,2-.57a8.77,8.77,0,0,1,4.36,6.57,25.94,25.94,0,0,1-.09,9.38,3.6,3.6,0,0,1-2.14,3.08c-.44-.52-1.18-1-1.35-1.67a22.39,22.39,0,0,1-.58-4c-.15-1.76-.17-3.54-.36-5.3A6.94,6.94,0,0,0,583.67,251.26Z"/><path d="M313.36,322c-.15,2-1.35,2.48-2.83,2.58a2.83,2.83,0,0,1-3.1-1.49c-.48-1-1-1.91-1.63-3.07-.85.37-1.56.67-2.27,1-1,.46-1.95,1-3,1.39-3.41,1.33-5.68.12-6.28-3.41a19.31,19.31,0,0,1,1.45-11.25c1.19-2.68,3.45-4.56,5.68-6.37a3,3,0,0,1,1.94-.5,33,33,0,0,1,4.87.56,3.14,3.14,0,0,1,2.7,2.75c.22,3.39,1,6.76,0,10.19C310,317.43,310.16,320.35,313.36,322Zm-13.91-3.62a15.39,15.39,0,0,0,6.25-11.24,1.52,1.52,0,0,0-.74-1.24,1.74,1.74,0,0,0-1.43.39C300.1,309.29,299.3,313.26,299.45,318.36Z"/><path d="M320.74,264.62c-1.36,1.12-2.43,1.95-3.45,2.85a9,9,0,0,1-6.47,2.08,2.78,2.78,0,0,1-3.11-2.61A18,18,0,0,1,308,258c1.56-4.7,3.77-9.08,7.85-12.19a25.86,25.86,0,0,1,2.43-1.49c4.4,1.32,6.63,4.19,6.77,8.7a36.66,36.66,0,0,1,.1,4.91,11.06,11.06,0,0,0,1.3,6.71c.13.24.28.47.41.71a2,2,0,0,1-.24,2.61,2.61,2.61,0,0,1-3.37-.14A14.36,14.36,0,0,1,322,266.2C321.68,265.78,321.34,265.37,320.74,264.62Zm-8,.84a9.22,9.22,0,0,0,2.22-1,16.79,16.79,0,0,0,5.19-7.22,9.89,9.89,0,0,0,.24-5.65,6,6,0,0,0-1.07-1.58c-2.56,2-4.29,4.52-5.84,8.86C312.76,260.84,312,262.91,312.74,265.46Z"/><path d="M698.57,244a16.17,16.17,0,0,1,1.32-1c1.55-.92,2.57-.53,3,1.2a13.08,13.08,0,0,1,.37,2.43c.42,4.81-.32,9.56-.84,14.31-.21,1.9-1.09,2.54-3.64,3.16-1.26-1.3-1.24-2.93-1.14-4.58.18-2.87.38-5.74.53-8.61a22.91,22.91,0,0,0-.05-2.87,5.44,5.44,0,0,0-.47-1.29,9.64,9.64,0,0,0-5.94-.22,3.77,3.77,0,0,0-2.8,2.75,32.5,32.5,0,0,0-1.26,5.57c-.23,2-.08,4.1-.14,6.15a10.87,10.87,0,0,1-.26,2.42,2.79,2.79,0,0,1-2.58,1.7,2,2,0,0,1-1.76-1.52,12.63,12.63,0,0,1-.54-2.79A76.54,76.54,0,0,0,680.63,247a4.47,4.47,0,0,1-.15-2,2.52,2.52,0,0,1,1.08-1.61,2.42,2.42,0,0,1,1.86.36,19.41,19.41,0,0,1,2.33,2c1.62-1.55,3.43-3.11,6-3.35A13.3,13.3,0,0,1,698.57,244Z"/><path d="M629,273.61a18.56,18.56,0,0,1-2,1.09,1.55,1.55,0,0,1-2.24-1,23.25,23.25,0,0,1-.45-4.06c0-2.87.05-5.73.12-8.6a25,25,0,0,1,.29-2.85c.64-4.31,1.31-8.62,2-12.94a16.94,16.94,0,0,1,.29-2,2.79,2.79,0,0,1,2.77-2c.94,0,1.89.16,2.84.26a6.78,6.78,0,0,1,6.27,6.83c0,3-.72,5.71-3.07,7.76a30.45,30.45,0,0,1-4.08,3.39,3.75,3.75,0,0,0-2,3.3q-.21,4.31-.46,8.59C629.19,272,629.1,272.65,629,273.61Zm2.11-19.54c2.2-1.63,2.24-1.62,2.51-2.82s.57-2.16-.18-3.11c-.26-.33-.8-.42-1.29-.65A12.53,12.53,0,0,0,631.11,254.07Z"/><path d="M442.67,264.49c3.3-2.3,4.27-5.33,5.18-8.28a44.69,44.69,0,0,0,1.12-6.44c.17-1.15.11-1.16,1.48-3l3.34,2.17c0,1.14.07,2.21,0,3.28a24.43,24.43,0,0,1-.54,2.81,21,21,0,0,0,.39,11.72,1.72,1.72,0,0,1-.47,2.2,2.82,2.82,0,0,1-3.41-.14,7.94,7.94,0,0,1-.92-1.34c-.28-.45-.53-.93-.91-1.59-1.22.79-2.31,1.53-3.44,2.22a9.85,9.85,0,0,1-2.14,1.15c-1.89.6-3.25.06-3.92-1.86a27.3,27.3,0,0,1-1.52-6.33,45.65,45.65,0,0,1,1.19-13.42,7.63,7.63,0,0,1,1.16-2.57,2.08,2.08,0,0,1,2.48-.95,1.91,1.91,0,0,1,1.37,2.24c-.23,2.44-.68,4.87-.89,7.31-.22,2.71-.33,5.44-.36,8.16A10.46,10.46,0,0,0,442.67,264.49Z"/><path d="M436.68,201.19c-1.64.89-3.13,1.57-4.46,2.47a9,9,0,0,1-6.31,1.16,3.06,3.06,0,0,1-2.69-2.2,8.49,8.49,0,0,1-.23-4.86,20.74,20.74,0,0,1,8.39-12.71,9.46,9.46,0,0,1,3.78-1.41c2.46-.41,3.83.45,4.88,2.76.5,1.12.91,2.28,1.35,3.43a6.33,6.33,0,0,1,.13,5.12,6.59,6.59,0,0,0,1.06,7.31,7.43,7.43,0,0,1,.91,1.35,1.34,1.34,0,0,1-.81,1.65,3,3,0,0,1-3.4-.71C438.45,203.66,437.78,202.62,436.68,201.19Zm-8.05-.52a19.18,19.18,0,0,0,7.06-5.62,6.62,6.62,0,0,0,1.23-5.39,1.56,1.56,0,0,0-2.66-1.13,15.87,15.87,0,0,0-5.65,8.22C428.31,197.85,427.66,199,428.63,200.67Z"/><path d="M461.39,247.9a9.3,9.3,0,0,0,1.48-.9c2.77-2.48,7.48-1.13,9.51,1.46,3.52,4.47,4.42,9.6,3.4,15.07a14.51,14.51,0,0,1-1.89,4,1.22,1.22,0,0,1-1.06.31c-.32-.08-.79-.48-.81-.77a27.65,27.65,0,0,1,0-4.07,18.32,18.32,0,0,0-.95-7.66,6.49,6.49,0,0,0-3.92-3.9,2.67,2.67,0,0,0-2.72.33,4.69,4.69,0,0,0-2.31,4.1c.07,2.32.2,4.64.37,6.95.14,1.78.46,3.54.51,5.31a4.12,4.12,0,0,1-.71,2.24c-.54.8-1.44,1.52-2.43,1.06a3.75,3.75,0,0,1-1.48-1.76,5.54,5.54,0,0,1-.36-2c-.27-4.21-1.61-8.33-1-12.63a13.53,13.53,0,0,0-.44-2.81,29.29,29.29,0,0,1-.23-4.08A2.34,2.34,0,0,1,458,246c.91-.35,1.54.13,2.13.78A12.45,12.45,0,0,0,461.39,247.9Z"/><path d="M673.87,239.93c2.17,1.69,2.4,3.49,1.73,5.94a22.12,22.12,0,0,0-.13,12.75l1.8.5c.72,1.17,0,2.17-.6,3a8.73,8.73,0,0,1-2.41,2.12,2,2,0,0,1-2.71-1.13c-.56-1.21-1-2.49-1.55-3.93-3,1.36-5.31,3.86-9.15,3.53-1.27-.61-1.9-2.07-2.12-3.76a23.92,23.92,0,0,1,.44-9.38c.45-1.72,1-3.43,1.37-5.16a5.34,5.34,0,0,1,2.37-3.23,1.79,1.79,0,0,1,2.75,1.33,12.17,12.17,0,0,1-.32,3.24c-.39,1.74-1,3.42-1.38,5.16a34.63,34.63,0,0,0-.59,4.87,1.6,1.6,0,0,0,.72,1.31,1.55,1.55,0,0,0,1.39-.44,19.66,19.66,0,0,0,4-6.61c.75-2.34,1.47-4.7,2.19-7.06C672.08,241.8,672.29,240.56,673.87,239.93Z"/><path d="M522,198.37c-.14,3.1.26,3.93,2.5,4.47a16.09,16.09,0,0,0,4,.37c2.05-.06,4.09-.34,6.13-.47.93-.07,1.86,0,3.24,0-.42.75-.55,1.27-.88,1.53a13,13,0,0,1-6.4,2.54,25.9,25.9,0,0,1-9.36-.49,5.82,5.82,0,0,1-4.38-3.88c-.92-2.38-.58-4.86-.68-7.29a2.9,2.9,0,0,1,.67-1.45c.76-1.13,1.64-2.19,2.35-3.35,2.1-3.44,5.47-4.8,9.17-5.5a4.63,4.63,0,0,1,4.86,2.33,19.16,19.16,0,0,1,1.16,2.61c1.16,2.5,1.11,3.25-1,4.83a15,15,0,0,1-4.32,2.21C526.84,197.5,524.54,197.83,522,198.37Zm2.44-6c2,1.31,3.51.32,4.91-.8a1.39,1.39,0,0,0,.42-1.83,1.63,1.63,0,0,0-1.74-.8C525.88,189.06,525,190.49,524.42,192.35Z"/><path d="M690.94,192.9c1.47-1.92,2.64-3.4,3.77-4.92,1-1.31,1.83-2.73,2.88-4a11.74,11.74,0,0,1,7-4c2.08-.41,2.88,0,3.94,2,.33.59.65,1.19,1,1.77,1.12,1.79,1.22,3-.08,4.39-1.68,1.79-3.45,3.55-5.88,4.35-1.56.51-3.13,1-4.7,1.45a3.85,3.85,0,0,0-2.54,5.12,2.83,2.83,0,0,0,2,1.2,12.16,12.16,0,0,0,7.13-1.42c1.45-.76,2.84-1.62,4.31-2.35a1.19,1.19,0,0,1,1.08.24c.19.21.07.72.05,1.1a.61.61,0,0,1-.23.33c-4.23,3.56-9,5.67-14.64,5.31-3.93-.25-5.51-2.45-5.28-5.83C690.82,196,690.87,194.36,690.94,192.9Zm14.14-8.63a4.76,4.76,0,0,0-3.54,2.66.78.78,0,0,0,.22.68.83.83,0,0,0,.74.15A3.79,3.79,0,0,0,705.08,184.27Z"/><path d="M329.32,304.43l5.46-.93c1.19,1,2.2,2,3.26,2.82a8.52,8.52,0,0,1,3.07,5.2c.64,3.5,1.06,7,.11,10.57-.34,1.3-.53,2.64-.87,4.33-.65-.45-1.19-.62-1.39-1a15.56,15.56,0,0,1-1.78-6.67,50.74,50.74,0,0,0-1-6.46,3.08,3.08,0,0,0-.93-1.79,4.1,4.1,0,0,0-2.21-.75,1.59,1.59,0,0,0-1.59,1.58,26.41,26.41,0,0,0-.18,4.07c.06,1.36.41,2.71.53,4.07a9,9,0,0,1-.11,2.43c-.25,1.36-1.12,2.24-2.06,2.24a2.67,2.67,0,0,1-2.49-1.83,16.92,16.92,0,0,1-.75-3.18c-1-5.09-1.34-10.31-3.11-15.25-.64-1.81-.11-2.73,1.34-3.32a2,2,0,0,1,2.54.67A20.33,20.33,0,0,1,328.2,303C328.5,303.44,328.86,303.84,329.32,304.43Z"/><path d="M596.51,184c2.93-.09,4-2.84,6.43-4.09a30.57,30.57,0,0,1,3.13,1.45,5.66,5.66,0,0,1,3,5,29.67,29.67,0,0,1-.56,8.13,39.66,39.66,0,0,0-.64,6.09c-.09.95-.08,1.91-.25,2.84s-1.12,1.78-1.64,1.5a2.53,2.53,0,0,1-1.31-1.37,46.39,46.39,0,0,1-.57-5.27c-.19-3-.29-6-.47-9a14.64,14.64,0,0,0-.34-1.88c-1.14-.38-1.38.41-1.57,1-.88,2.59-1.67,5.2-2.52,7.79a34.33,34.33,0,0,1-1.49,4.24,6.07,6.07,0,0,1-1.82,2.15,2.17,2.17,0,0,1-1.86.27,2.49,2.49,0,0,1-1-1.6,5,5,0,0,1,.1-2q1.23-6.44,2.54-12.85A21,21,0,0,1,596.51,184Z"/><path d="M271.93,180.64c.17-.71.13-1.39.43-1.65,1.13-1,2.38-1.84,3.58-2.74a16.63,16.63,0,0,0,2.55-2,2.71,2.71,0,0,1,3.69-.64,5,5,0,0,0,4.26.48,4.85,4.85,0,0,1,2.75.4,2.12,2.12,0,0,1,.5,3.44,6.19,6.19,0,0,1-3.75,1.41c-2.32.15-2.74.5-3.06,2.49-.8,5-1.78,10-1.7,15.07,0,2.58.4,5.17.66,7.75.14,1.33-.13,2-1.06,2.34a2.25,2.25,0,0,1-2.89-.83,12.54,12.54,0,0,1-1.28-3,10.12,10.12,0,0,1-.34-2.85c.06-3.41.13-6.83.32-10.24.12-2.18.49-4.35.67-6.53a17.53,17.53,0,0,0-.17-2.57Z"/><path d="M294.08,179.75a4.22,4.22,0,0,1,1,0c2.46.73,2.53.92,1.54,3.41-.15.37-.23.77-.42,1.44,1.06.69,2.14,1.43,3.26,2.11a5.19,5.19,0,0,1,2.69,5.13c-.09,1.36,0,2.73-.14,4.08a10,10,0,0,1-10.94,8.7c-.55,0-1.09-.08-1.63-.17a5.63,5.63,0,0,1-5-5.17,18.36,18.36,0,0,1,2.16-10.66A25.6,25.6,0,0,1,294.08,179.75Zm-5.31,17c0,.4,0,.82.06,1.22.31,2.52,2,3.52,4.37,2.61a9.71,9.71,0,0,0,4.17-3.2,5.73,5.73,0,0,0-2.27-8.61,2.73,2.73,0,0,0-3.38.51C290.17,191.56,288.67,193.86,288.77,196.78Z"/><path d="M325,191.84a21.33,21.33,0,0,1-3,0,1.18,1.18,0,0,1-.56-2.23,12.94,12.94,0,0,1,2.5-1.38,2.89,2.89,0,0,0,1.85-2.5c.21-1.9.4-3.81.63-5.71.27-2.31.52-4.63.9-6.92a3,3,0,0,1,2.4-2.53,2.1,2.1,0,0,1,2.7,1.79c.1,1.77,0,3.56,0,5.34,0,1.23-.15,2.46-.26,3.69-.15,1.61.06,3,1.82,3.7a2.6,2.6,0,0,1,.93.76c.66.73.56,2.19-.35,2.48-3.5,1.13-3.82,3.8-3.73,6.86.08,2.6-.08,5.18.66,7.74a1.86,1.86,0,0,1-1.43,2.53,2.17,2.17,0,0,1-2.73-1.23,16.48,16.48,0,0,1-1.7-7.14C325.52,195.43,325.81,193.77,325,191.84Z"/><path d="M509.91,259.29c-1.32,2-.93,3.86-.56,5.62a5.11,5.11,0,0,0,5.7,1.51c1.31-.37,2.56-.95,3.86-1.37.86-.29,1.76-.48,3.2-.87a7.75,7.75,0,0,1-1,1.79,14.29,14.29,0,0,1-12.41,3.93,4.57,4.57,0,0,1-4-3.56,12.19,12.19,0,0,1,.45-8.44c1.72-3.73,3.79-7.26,7.47-9.53a9.1,9.1,0,0,1,5.09-1.19c1.73,0,3.44,2,3.53,3.94a5.61,5.61,0,0,1-1.31,4.2c-2.18,2.38-4.64,4.27-8.15,4C511.27,259.25,510.73,259.29,509.91,259.29Zm6-8.25c-.5.29-1.07.57-1.58.92a2.12,2.12,0,0,0-.8.86,1.51,1.51,0,0,0,.17,1,.74.74,0,0,0,.7.19,8,8,0,0,0,1.61-1.14C516.55,252.41,516.71,251.79,515.93,251Z"/><path d="M640.44,257.45c0-4.27,1.93-7.92,3.82-11.56.56-1.07,1.48-1.95,2.11-3,1.47-2.43,3.75-2.46,6.12-2.14a5.62,5.62,0,0,1,4.34,4.39c.62,3.42-.07,6.78-.82,10.11a2.55,2.55,0,0,1-.56,1.08c-3.14,3.56-6.57,6.59-11.73,6.54-1.86,0-2.76-.69-3.06-2.57C640.51,259.37,640.51,258.4,640.44,257.45Zm10.88-13.2c-.57.29-1.05.38-1.25.66A24,24,0,0,0,645.42,257a1.22,1.22,0,0,0,.57,1,1.36,1.36,0,0,0,1.15,0c3.8-2.33,6.22-7.87,5.26-12.08A5.33,5.33,0,0,0,651.32,244.25Z"/><path d="M713.2,243.76a4.53,4.53,0,0,1,5.48-.45,7,7,0,0,1,3.54,5.25c.17,1.5.18,3,.25,4.52.14,3,.26,6,2.31,8.24-.18,1.5-1.2,1.67-2.11,1.93a2,2,0,0,1-2.71-1.09,13,13,0,0,1-1.35-5.54c0-1.51,0-3-.16-4.52a8.56,8.56,0,0,0-.69-2.75c-.24-.52-.94-.82-1.62-1.38a14.4,14.4,0,0,0-1.31,2.31,46,46,0,0,0-2.32,10c-.16,1.71-1,2.63-2.44,2.8a2.08,2.08,0,0,1-1.67-.79,5.37,5.37,0,0,1-.65-2.33,37.46,37.46,0,0,1-.15-4.1c0-3.56.14-7.11.22-10.67A8.42,8.42,0,0,1,708,244a1.94,1.94,0,0,1,2.76-1.56A17.45,17.45,0,0,1,713.2,243.76Z"/><path d="M374.28,192.31a10.3,10.3,0,0,1-8,5.92c-.54.08-1.07.2-1.6.32-.81.19-1.78.43-1.75,1.39a3.26,3.26,0,0,0,.93,2.15c1.62,1.45,3.69,1.6,5.77,1.45,1.6-.12,3.19-.6,5.25-.26-.52.79-.74,1.54-1.21,1.75a17.25,17.25,0,0,1-12.74.87c-1.82-.58-2.65-2.23-3.22-4-1.35-4.07-.15-7.59,2.52-10.61a12.09,12.09,0,0,1,9.84-4.13,2.48,2.48,0,0,1,2.52,1.68C373,190,373.61,191,374.28,192.31Zm-5.9-.61a1.49,1.49,0,0,0-2.24.4.81.81,0,0,0-.15.69c.09.16.52.34.63.27C367.2,192.67,367.73,192.21,368.38,191.7Z"/><path d="M608.48,261.8a5.81,5.81,0,0,1-4.87,3.2,20.64,20.64,0,0,1-5.25-.32c-.55-.08-1.08-.79-1.47-1.32-1.58-2.2-1.63-4.86-2.09-7.39a.74.74,0,0,1,.06-.41c1.85-4.54,3.58-9.16,8-12a5.83,5.83,0,0,1,5.3-.71c.43.61.93,1.41,1.52,2.14,1.62,2,1.43,4,.26,6.09a8.89,8.89,0,0,1-4.65,4.38c-1.14.41-2.22,1-3.36,1.45a2,2,0,0,0-1.58,2.08c.07,1.37.89,2.64,2,2.77a27.64,27.64,0,0,0,3.64,0Zm-6.15-10c3.14-1.4,3.19-1.37,3.8-2.6a7.12,7.12,0,0,0,.15-2.08A8.56,8.56,0,0,0,602.33,251.84Z"/><path d="M559.56,251.25a8.21,8.21,0,0,0,3-6.95c0-1.63,0-3.28.21-4.9a15.42,15.42,0,0,1,.79-3.56,2,2,0,0,1,2.19-1.49,2.23,2.23,0,0,1,2.16,2.08,15,15,0,0,1,.12,2.84c-.05,1.64-.21,3.27-.26,4.91a8.13,8.13,0,0,0,.35,1.73,11.82,11.82,0,0,1,2.48-.44,2.68,2.68,0,0,1,1.76.73,1.63,1.63,0,0,1-.08,2.25,7.82,7.82,0,0,1-2.62,1.83,3.29,3.29,0,0,0-2.35,3.43c0,3.68-.22,7.37.87,11,.47,1.54.14,2.39-.79,2.82a2.55,2.55,0,0,1-3.55-1,10.65,10.65,0,0,1-1.26-3.4,37.57,37.57,0,0,1-.47-5.7C562,255.2,561.88,253.07,559.56,251.25Z"/><path d="M654.17,183.19c-1.47,1.47-2.92,2.72-4.13,4.17-1.38,1.66-1.26,2.73.35,4.28a27.49,27.49,0,0,0,3,2.15,20.71,20.71,0,0,1,2.9,2.24,2.58,2.58,0,0,1-.22,4c-3.41,2.79-7.29,4.2-11.75,3.42a3.22,3.22,0,0,1-1.46-.68,1.93,1.93,0,0,1-.71-1.33c0-.37.68-.85,1.12-.92,1.2-.2,2.44-.2,3.66-.32a3.34,3.34,0,0,0,3-2.17,25.25,25.25,0,0,0-1.74-2c-.79-.74-1.74-1.32-2.53-2.06a5.2,5.2,0,0,1-1.29-6.38c2.25-4.67,5.88-7.79,11.18-8.61a4.42,4.42,0,0,1,1.62.05,2.8,2.8,0,0,1,1.93,3.53c-.49,1.34-1.62,1.74-3.29,1.16C655.41,183.58,655,183.47,654.17,183.19Z"/><path d="M529.79,252c3-2,5.9-.87,8.72-.87a1.91,1.91,0,0,1,1.85,1.86,2.14,2.14,0,0,1-1.59,2.13c-.79.2-1.62.23-2.42.41a25.45,25.45,0,0,0-3.54,1,3.45,3.45,0,0,0-2.38,3.06c-.13,1.63-.31,3.26-.41,4.9-.11,1.91-.09,3.83-.24,5.74a2.54,2.54,0,0,1-2.34,2.43,2.21,2.21,0,0,1-2.36-1.23,4,4,0,0,1-.35-1.17,77,77,0,0,1-.09-18.83,8.88,8.88,0,0,1,1.17-3,1.53,1.53,0,0,1,2.46.07A8.65,8.65,0,0,1,529,250C529.22,250.45,529.39,251,529.79,252Z"/><path d="M711.84,193c.58-4.19,1.17-8.38,1.74-12.57q.58-4.26,1.14-8.52c.22-1.69.66-3.21,2.46-3.93,1.58-.62,3,0,2.89,1.68a69.73,69.73,0,0,1-.86,9.35c-1,5.66-2.07,11.29-1.72,17.08.09,1.49.3,3,.39,4.48a1.83,1.83,0,0,1-1.06,2,2.41,2.41,0,0,1-3-.52,5.85,5.85,0,0,1-.92-1.79,20.28,20.28,0,0,1-.86-3.58,32.06,32.06,0,0,1,0-3.67Z"/><path d="M282,323.33c-2.24-1.82-2.45-4.49-3-6.95a17,17,0,0,1-.16-2.87q-.29-4.1-.61-8.18c-.12-1.53-.17-3.08,1-4.25.54-.55,1.39-1.22,2-1.15,1.61.2,2.94-.53,4.39-.82,2.17-.43,4.34-.61,6.42.47a3.93,3.93,0,0,1,2.14,2.36,1.91,1.91,0,0,1-2.13,2.59c-.53-.09-1-.42-1.55-.51a11.25,11.25,0,0,0-2.45-.19c-2.63.15-4.37,1.83-4.05,4.56.39,3.26.52,6.56,1.06,9.8C285.45,320.84,284.41,322.33,282,323.33Z"/><path d="M336.13,252.42c-.72,2.56-.18,4.84.21,7.12s.74,4.31,1.07,6.47a2.73,2.73,0,0,1-.67,2.67,4.89,4.89,0,0,1-2.35,1.41c-1.15.1-1.39-1.12-1.63-2-.37-1.46-.7-2.92-1-4.4a37.6,37.6,0,0,0-2.93-9.79,7.23,7.23,0,0,1-.64-1.92,2.22,2.22,0,0,1,1.52-2.57,11.37,11.37,0,0,0,2.55-1.16c2.48-2,5.13-1.45,7.77-.63a2,2,0,0,1,1.08,1.49,2.25,2.25,0,0,1-1,1.61A41.11,41.11,0,0,1,336.13,252.42Z"/><path d="M680,206.31a11,11,0,0,1-.72-3c.2-2.85.59-5.69.92-8.54.24-2,.42-4.07.76-6.08a29.51,29.51,0,0,1,1.15-4.74,1.69,1.69,0,0,1,3-.16,5.45,5.45,0,0,1,.81,2.28,33.22,33.22,0,0,1,0,5.73c-.4,3.39-1,6.76-1.59,10.12C683.76,204.75,683.71,204.74,680,206.31Z"/><path d="M315.69,311c0-2.19,0-4.38,0-6.58a11.77,11.77,0,0,1,.2-2.44,2,2,0,0,1,1.8-1.46,1.7,1.7,0,0,1,2,1,15.09,15.09,0,0,1,1,4.35c.17,4.24.15,8.49.15,12.74a8.22,8.22,0,0,1-.41,2.4,2.31,2.31,0,0,1-4.38-.21,6.25,6.25,0,0,1-.29-2c0-2.6,0-5.21,0-7.81Z"/><path d="M589.68,187.94c-.75,3.8-1.54,7.94-2.41,12.07a3.75,3.75,0,0,1-1,1.75,2.48,2.48,0,0,1-2.62.73,2,2,0,0,1-1.2-2,15.35,15.35,0,0,1,.19-3.25,65.93,65.93,0,0,0,1.55-10.09,5.08,5.08,0,0,1,2.42-4.48,1.51,1.51,0,0,1,2.31.81C589.27,184.82,589.4,186.18,589.68,187.94Z"/><path d="M350.45,319.07a2.42,2.42,0,0,1,1.43-2.61,2,2,0,0,1,2.26.37,1.85,1.85,0,0,1,.43,2.56,8.14,8.14,0,0,1-1.83,1.58,1.43,1.43,0,0,1-2.17-1.06C350.49,319.52,350.46,319.11,350.45,319.07Z"/><path d="M320.1,292.81a2.14,2.14,0,0,1-2.52,1.95,2,2,0,0,1-1.49-2.06,2,2,0,0,1,4,.11Z"/><path d="M702.66,235.18a1.83,1.83,0,1,1,.06,3.64,1.79,1.79,0,0,1-1.56-1.63A1.71,1.71,0,0,1,702.66,235.18Z"/><path d="M686.84,174.83a1.94,1.94,0,0,1-2.31,2,1.42,1.42,0,0,1-1.39-1.58,1.84,1.84,0,0,1,2.28-1.61C686,173.77,686.48,174.51,686.84,174.83Z"/><path d="M589.85,177.1a1.59,1.59,0,0,1-1.62,1.75,1.24,1.24,0,0,1-1.29-1.2c0-1,1-2,1.79-1.64C589.25,176.21,589.59,176.83,589.85,177.1Z"/><path d="M741,242.87c.62,3.12-.68,4.94-1.78,6.71-1,1.53-2,3.2-4,3.64-.15-.45-.36-.76-.28-.92.76-1.58,1.53-3.17,2.38-4.7A21.68,21.68,0,0,1,741,242.87Z" style="fill:#fff"/><path d="M285.59,243.62a8.27,8.27,0,0,1,1,1.63c.51,1.93.43,4.06,2.16,5.55.32.27.23,1,.31,1.55a1.93,1.93,0,0,1,0,.41c-.15,2.7-.3,5.41-.48,8.43-.59-.24-1.15-.3-1.43-.62-1.16-1.32-2.28-2.7-3.34-4.11C280.46,252.07,281,247.79,285.59,243.62Z" style="fill:#fff"/><path d="M294.57,263.28c0-4.4-.05-8,0-11.65a1.42,1.42,0,0,1,2.07-1.22c3.47,1.45,4.38,3.86,2.6,7.13a38.74,38.74,0,0,1-2.62,4.08A12.18,12.18,0,0,1,294.57,263.28Z" style="fill:#fff"/><path d="M737.29,184a9.07,9.07,0,0,1,.35,2.27c-.47,3.11-1.09,6.2-1.51,9.32a4.24,4.24,0,0,1-2.16,3.28,33.93,33.93,0,0,1-3.57,2,3.24,3.24,0,0,1-3.87-.53c-.48-2.14.48-3.93,1.53-5.72C730.42,190.7,733,186.89,737.29,184Z" style="fill:#fff"/><path d="M388.52,258.52a12.1,12.1,0,0,1,3.72-7.48,1,1,0,0,1,1,0,1.25,1.25,0,0,1,.23,1.08A14.16,14.16,0,0,1,388.52,258.52Z" style="fill:#fff"/><path d="M411,250.65c-.09.24-.18.48-.28.72-.19-.12-.54-.22-.55-.36s.17-.47.27-.71Z" style="fill:#fff"/><path d="M621.26,200.66c-.17-.58-.51-1.11-.42-1.56a10.78,10.78,0,0,1,1.14-3.86,59.4,59.4,0,0,1,5.13-6.31,2.85,2.85,0,0,1,3.17-1,12.8,12.8,0,0,1,.08,6.62c-.25,1.08-1.34,2-2.15,2.9A9.59,9.59,0,0,1,621.26,200.66Z" style="fill:#fff"/><path d="M494.1,255.93c.34,2.08-.75,4.32-2.79,6.19-1.39,1.27-2.5,2.93-4.57,3.28a1.57,1.57,0,0,1-2-1.47,9.88,9.88,0,0,1,.07-1.63c.44-3.78,2.26-7,4.24-10.12a9.43,9.43,0,0,1,2.38-2.19,1.39,1.39,0,0,1,2,.73,3.69,3.69,0,0,1,.24.78C493.82,252.72,493.92,254,494.1,255.93Z" style="fill:#fff"/><path d="M299.45,318.36c-.15-5.1.65-9.07,4.08-12.09a1.74,1.74,0,0,1,1.43-.39,1.52,1.52,0,0,1,.74,1.24A15.39,15.39,0,0,1,299.45,318.36Z" style="fill:#fff"/><path d="M312.74,265.46c-.76-2.55,0-4.62.74-6.63,1.55-4.34,3.28-6.9,5.84-8.86a6,6,0,0,1,1.07,1.58,9.89,9.89,0,0,1-.24,5.65,16.79,16.79,0,0,1-5.19,7.22A9.22,9.22,0,0,1,312.74,265.46Z" style="fill:#fff"/><path d="M631.11,254.07a12.53,12.53,0,0,1,1-6.58c.49.23,1,.32,1.29.65.75,1,.41,2.06.18,3.11S633.31,252.44,631.11,254.07Z" style="fill:#fff"/><path d="M428.63,200.67c-1-1.63-.32-2.82,0-3.92a15.87,15.87,0,0,1,5.65-8.22,1.56,1.56,0,0,1,2.66,1.13,6.62,6.62,0,0,1-1.23,5.39A19.18,19.18,0,0,1,428.63,200.67Z" style="fill:#fff"/><path d="M524.42,192.35c.62-1.86,1.46-3.29,3.59-3.43a1.63,1.63,0,0,1,1.74.8,1.39,1.39,0,0,1-.42,1.83C527.93,192.67,526.45,193.66,524.42,192.35Z" style="fill:#fff"/><path d="M705.08,184.27a3.79,3.79,0,0,1-2.58,3.49.83.83,0,0,1-.74-.15.78.78,0,0,1-.22-.68A4.76,4.76,0,0,1,705.08,184.27Z" style="fill:#fff"/><path d="M288.77,196.78c-.1-2.92,1.4-5.22,3-7.47a2.73,2.73,0,0,1,3.38-.51,5.73,5.73,0,0,1,2.27,8.61,9.71,9.71,0,0,1-4.17,3.2c-2.36.91-4.06-.09-4.37-2.61C288.78,197.6,288.79,197.18,288.77,196.78Z" style="fill:#fff"/><path d="M515.93,251c.78.75.62,1.37.1,1.87a8,8,0,0,1-1.61,1.14.74.74,0,0,1-.7-.19,1.51,1.51,0,0,1-.17-1,2.12,2.12,0,0,1,.8-.86C514.86,251.61,515.43,251.33,515.93,251Z" style="fill:#fff"/><path d="M651.32,244.25a5.33,5.33,0,0,1,1.08,1.62c1,4.21-1.46,9.75-5.26,12.08a1.36,1.36,0,0,1-1.15,0,1.22,1.22,0,0,1-.57-1,24,24,0,0,1,4.65-12.09C650.27,244.63,650.75,244.54,651.32,244.25Z" style="fill:#fff"/><path d="M368.38,191.7c-.65.51-1.18,1-1.76,1.36-.11.07-.54-.11-.63-.27a.81.81,0,0,1,.15-.69A1.49,1.49,0,0,1,368.38,191.7Z" style="fill:#fff"/><path d="M602.33,251.84a8.56,8.56,0,0,1,3.95-4.68,7.12,7.12,0,0,1-.15,2.08C605.52,250.47,605.47,250.44,602.33,251.84Z" style="fill:#fff"/></g></svg>
