<svg xmlns="http://www.w3.org/2000/svg" viewBox="0 0 1366 768"><g id="Layer_18" data-name="Layer 18"><path d="M507.12,73.4c-3.92,1.14-8,1.21-12,1.5a229.63,229.63,0,0,1-31.69-.33c-11.75-.79-23.38-2.39-35-4-9.8-1.35-19.53-3.14-29.29-4.75-8.61-1.43-17.23-2.75-25.92-3.63-5.35-.55-10.7-1.08-16.08-1.47-5.12-.38-10.24-.64-15.36-1-9.75-.62-19.51-.72-29.28-1-10.24-.26-20.48-.61-30.72-.36-12.64.31-25.29.08-37.91.56-8.25.32-16.49.16-24.73.54-15.67.72-31.36.37-47,.19-7.37-.08-14.73-.08-22.08.18a56.5,56.5,0,0,0-18.95,3.55,21.45,21.45,0,0,0-4.3,2.42c-.46.32-.74.49-1.23.31" style="fill:none;stroke:#000;stroke-linecap:round;stroke-linejoin:round;stroke-width:2px"/><path d="M1182.72,24.32c-.45,4.92-1.35,9.77-2.08,14.65-1.22,8.17-3.12,16.19-4.93,24.22-2.18,9.65-4.81,19.19-7.13,28.81-2.89,12-5.44,24-7.16,36.25-.75,5.32-1.17,10.69-1.56,16.07-.73,10-1.36,20-2,30-.7,11.37-.84,22.72-.85,34.09,0,8.11.6,16.17,1.38,24.25a186.5,186.5,0,0,0,4.6,26.87,195,195,0,0,0,16.58,43,265.25,265.25,0,0,0,21.36,33.6q5.64,7.76,11.74,15.14A80.24,80.24,0,0,0,1231.92,368a13.74,13.74,0,0,1,5.71,7,1.58,1.58,0,0,0,2,1.18" style="fill:none;stroke:#000;stroke-linecap:round;stroke-linejoin:round;stroke-width:2px"/><path d="M769.92,303.68a137.63,137.63,0,0,1-.19-15.6c.14-4.33.76-8.64,1.15-13a110.38,110.38,0,0,0,.33-20.65,76.12,76.12,0,0,0-5.46-21.55,157.25,157.25,0,0,0-21-36.77A187.39,187.39,0,0,0,728.85,178a139.42,139.42,0,0,0-58.78-35.28A248.94,248.94,0,0,0,633.6,135c-9.37-1.38-18.74-2.7-28.09-4.22q-10.86-1.77-21.82-3.06a205.12,205.12,0,0,0-21.85-1.53,120.7,120.7,0,0,0-27.59,2.64,13.61,13.61,0,0,1-2.17.18" style="fill:none;stroke:#000;stroke-linecap:round;stroke-linejoin:round;stroke-width:2px"/><path d="M364.32,120.08c-5,3.48-10.38,6.29-15.62,9.32-16.44,9.48-32.87,19-49.9,27.39-18,8.89-36.51,16.56-55.93,21.81a195.54,195.54,0,0,1-24.94,5.12c-7.18,1-14.39,1.42-21.6,2-7.66.65-15.22-.1-22.81-.28-6.07-.14-12.16-.81-18.24-1.36-5.91-.54-11.85-.92-17.75-1.52-4-.41-8.05.13-12-.72" style="fill:none;stroke:#000;stroke-linecap:round;stroke-linejoin:round;stroke-width:2px"/><path d="M127.44,87.68c3.94.2,7.66,1.6,11.52,2.13,3,.42,6.07.91,9.12,1.27,16.6,2,33.27,1.34,49.92,1.7,5.44.12,10.88.12,16.32.16,7.2.06,14.4.42,21.6.61q12.84.35,25.68.88c12.16.51,24.32.85,36.48,1.26,7.28.25,14.56.27,21.84.4,5.12.1,10.24.32,15.36.46a4.91,4.91,0,0,0,2.4-.23" style="fill:none;stroke:#000;stroke-linecap:round;stroke-linejoin:round;stroke-width:2px"/><path d="M1030.2,44.24c.28,8.73-.06,17.44-.3,26.16-.19,7-.69,14.08-1.06,21.12s-1,14.24-1.65,21.36c-.6,7.28-1.1,14.58-2,21.83-.51,4.24-.81,8.5-1.27,12.74-.44,4-.73,8-1.07,12-.43,5.12-.78,10.25-1.35,15.37-.34,3.08-.35,6.23-.55,9.35-.71,11.19-1.18,22.38-1.25,33.6-.06,9.53-.09,19.05.52,28.56" style="fill:none;stroke:#000;stroke-linecap:round;stroke-linejoin:round;stroke-width:2px"/><path d="M1083.36,40.88c-.73,4.77-.8,9.6-1.27,14.39-.54,5.6-.7,11.22-1.31,16.82-.66,6-.77,12.16-1.29,18.23-.42,5-.59,10.11-1.36,15.13-.31,2-.28,4-.45,6-.55,6.49-1.27,13-2,19.44-.73,7-1.58,13.92-2.42,20.87-1.14,9.49-2.7,18.92-4.4,28.31-3,16.47-6.49,32.83-8.6,49.45-.37,2.87-1.12,5.71-1,8.64" style="fill:none;stroke:#000;stroke-linecap:round;stroke-linejoin:round;stroke-width:2px"/><path d="M108.72,228.44c7.88.81,15.74,1.8,23.51,3.28,16.6,3.18,33,6.95,48.53,14a93.5,93.5,0,0,1,25,16.37c11.28,10.4,20.16,22.69,28.24,35.58a311.46,311.46,0,0,1,16.37,30c.33.68.84,1.32.6,2.16" style="fill:none;stroke:#000;stroke-linecap:round;stroke-linejoin:round;stroke-width:2px"/><path d="M1025,34.88c-1.72-.44-2.74.92-3.81,1.73a523.18,523.18,0,0,0-40.38,33.51C970.71,79.45,960.7,88.9,950,97.61c-6,4.93-11.6,10.58-15,17.91a48,48,0,0,0-3.65,14.39,133.6,133.6,0,0,0-.6,19.69c.09,3.68.05,7.36.05,11" style="fill:none;stroke:#000;stroke-linecap:round;stroke-linejoin:round;stroke-width:2px"/><path d="M413.28,144.32c.35,1.43-.41,1.85-1.67,2.19-17.44,4.6-33.15,12.94-48.24,22.55a325.48,325.48,0,0,0-27.57,19c-8.15,6.42-13.66,14.61-15.17,25.15a41.62,41.62,0,0,0,3,22.32" style="fill:none;stroke:#000;stroke-linecap:round;stroke-linejoin:round;stroke-width:2px"/><path d="M913.44,296c-1.06,2.33-3.45,2.17-5.29,2.28-2.4.16-4.77.57-7.19.64-3.93.13-7.85.58-11.75,1-4.72.53-9.46.94-14.18,1.51-7.48.9-14.93,1.93-22.31,3.46-8.82,1.83-17.42,4.35-25.46,8.57-2.71,1.42-5.11,3.23-7.65,4.86a1.27,1.27,0,0,0-.73,1.43" style="fill:none;stroke:#000;stroke-linecap:round;stroke-linejoin:round;stroke-width:2px"/><path d="M1087.44,273c12,5.75,24.27,10.69,36.49,15.82,13.38,5.62,26.44,11.84,38.39,20.18" style="fill:none;stroke:#000;stroke-linecap:round;stroke-linejoin:round;stroke-width:2px"/><path d="M864,27c-5.65,7.89-10.89,16-16,24.28s-10.57,16.56-17.08,24c-2.21,2.52-4.7,4.74-7,7.18" style="fill:none;stroke:#000;stroke-linecap:round;stroke-linejoin:round;stroke-width:2px"/><path d="M913.32,295c2.31,1.28,4.77,2.38,6.57,4.35s3.72,3.83,4.59,6.45" style="fill:none;stroke:#000;stroke-linecap:round;stroke-linejoin:round;stroke-width:2px"/></g></svg>
