<svg xmlns="http://www.w3.org/2000/svg" viewBox="0 0 1366 768"><g id="Layer_18" data-name="Layer 18"><path d="M825.6,756.32c-.08-6.72.15-13.46-.33-20.15-.5-7-.83-14.11-1.73-21.14-.57-4.46-1-9-1.6-13.42-.56-4.25-1.24-8.5-1.76-12.74-.59-4.86-1.06-9.75-1.6-14.62-.5-4.64-.84-9.3-1.3-13.94s-.59-9.3-1.31-13.91c-.39-2.56-.06-5.17-.34-7.67-.62-5.43-.7-10.9-1.18-16.34-.45-5-1-10.06-1.09-15.11-.07-3.64-.92-7.19-1.23-10.8-.18-2-.47-4-.45-6a74.74,74.74,0,0,0-1.09-11.54c-.46-3.16-.69-6.39-1.08-9.58-.52-4.33-1.17-8.66-1.81-13-.51-3.43-1.09-6.86-1.51-10.3-.79-6.39-2.24-12.65-3.47-18.94-1.14-5.84-2.92-11.55-4.5-17.29a23.78,23.78,0,0,0-2.59-6c-2-3.26-2.49-7.12-4.12-10.54a103.16,103.16,0,0,0-24.71-33.12c-2.72-2.42-6.09-3.82-9.11-5.78-.65-.43-1.16-.06-1.69,0-2.34.44-4.76.45-7,1.61-1.29.67-2.87.36-4.3.27a196.35,196.35,0,0,0-27.12.32,115.08,115.08,0,0,0-29,6.42c-6.37,2.24-9.91,7.15-11.95,13.22a87.47,87.47,0,0,0-3.47,17c-.91,7.19-1,14.43-1.85,21.61a4.64,4.64,0,0,0,0,1.44,12.05,12.05,0,0,1-.43,6.26c-1,3.16-1,6.54-1.48,9.82-.62,4.55-1.14,9.12-1.7,13.68-.41,3.36-.8,6.72-1.2,10.08l-1.2,10.32c-.4,3.52-.78,7-1.2,10.56-.63,5.28-1.09,10.58-1.81,15.86-.46,3.4-.8,6.86-1.13,10.29s-.86,6.74-1.27,10.1c-.38,3.11-.66,6.24-1.09,9.35-.61,4.32-1.15,8.66-1.79,13-.55,3.66-1,7.34-1.56,11s-1.11,7-1.67,10.56-1.09,7-1.69,10.56c-.67,3.91-1.19,7.85-1.81,11.78-.44,2.76-.77,5.58-1.06,8.38-.56,5.37-1.3,10.72-1.84,16.09-.36,3.51-.7,7-1,10.55-.42,4.17-.8,8.33-1.35,12.49-.4,3-.66,6.08-1,9.11a118.36,118.36,0,0,0-1,18.24c.08,2.24.85,4.32,1.24,6.48.11.6.67.61,1.18.36" style="fill:none;stroke:#000;stroke-linecap:round;stroke-linejoin:round;stroke-width:2px"/><path d="M629.76,405c-2.72-4-5.43-8-8.17-12-.45-.65-.59-1.61-1.67-1.69-2.44-.18-3.76-2-5.27-3.6-4.29-4.38-8.72-8.61-14.19-11.47-2.83-1.48-6-2.37-9.07-.94-4.19,2-5.25,6.23-4.35,10.74,1.36,6.8,4.85,12.64,8.69,18.21a190.15,190.15,0,0,0,16.9,20.51c4.69,5.11,9.79,9.75,14.79,14.49q9.75,9.24,20.07,17.87c5.83,4.86,11.4,10,17.07,15.08,2,1.81,4.05,3.62,6.05,5.46,1.15,1.06,3,1,4.51,1.5" style="fill:none;stroke:#000;stroke-linecap:round;stroke-linejoin:round;stroke-width:2px"/><path d="M757.44,454.16c.88-4.08,1.95-8.13,2.56-12.25a65.21,65.21,0,0,0,.5-6.71c.26-5.35.18-10.72.31-16.08.1-4.32,0-8.67.53-12.95a181.46,181.46,0,0,0,1.3-28.81c-.23-5.75-.59-11.57-2.8-17a11,11,0,0,0-1.19-2.4c-1.74-2.43-3.77-2.81-6.25-1.21-3.86,2.49-5.9,6.48-8.41,10.09-1.52,2.19-2.29,4.81-3.87,6.93-1.13,1.53-2.64,2.79-2.83,4.83-.08.87,0,1.76,0,2.64" style="fill:none;stroke:#000;stroke-linecap:round;stroke-linejoin:round;stroke-width:2px"/><path d="M700.2,378.56c-1.06-9.86-3.11-19.55-5-29.27-.11-.56-.06-1.35-.7-1.68-2.64-1.37-3.07-4-3.83-6.49a222,222,0,0,0-15.86-39.35c-4.59-8.61-10.08-16.59-17.51-23-6-5.23-12.87-8.68-21.11-8.66-3.29,0-2.73-.27-4.29,3.14-2.14,4.68-2.16,9.85-1.33,14.61,3.45,19.68,10.2,38.4,17.56,56.92,3.48,8.75,7.25,17.4,10.14,26.38.43,1.33,1.14,2.67.46,4.07s-.31,2.73.46,4.11c1.57,2.82,2.35,6,3.82,8.89.39.76.06,1.89.06,2.85" style="fill:none;stroke:#000;stroke-linecap:round;stroke-linejoin:round;stroke-width:2px"/><path d="M597.12,306.56c-2.73,2-3.47,5.08-4.07,8.16-1.41,7.21,1,13.82,3.37,20.39,3,8.41,7.57,16.14,11.32,24.22,4.16,9,8.14,18,12.41,26.91a6.71,6.71,0,0,1,.25,5" style="fill:none;stroke:#000;stroke-linecap:round;stroke-linejoin:round;stroke-width:2px"/><path d="M597.36,305.84c.1.15-.21.4.24.5,6,1.34,10.08,5.4,13.92,9.82,6.5,7.47,11.24,16.21,17.29,24,8.7,11.2,17.41,22.39,25.41,34.1a7.68,7.68,0,0,0,3.86,2.87" style="fill:none;stroke:#000;stroke-linecap:round;stroke-linejoin:round;stroke-width:2px"/><path d="M695,347.36c2.19-3.18.84-6.53.49-9.84-.53-5-1.34-10-1.71-15.12-.51-7-.71-14.07-1-21.12-.19-4.65-.76-9.27,0-13.92,1.13-6.51,5.37-7.89,10.34-5.79,4.11,1.74,6.55,5,8.64,8.67a32.74,32.74,0,0,1,3.37,7.43,2.34,2.34,0,0,0,.24.48c4.5,9.79,5.85,20.46,8.57,30.74,2.24,8.51,5.35,16.73,7.77,25.18a134.81,134.81,0,0,1,4.08,16.8c.26,1.74.53,3.6,2.12,4.81" style="fill:none;stroke:#000;stroke-linecap:round;stroke-linejoin:round;stroke-width:2px"/></g></svg>
