<svg xmlns="http://www.w3.org/2000/svg" viewBox="0 0 1366 768"><g id="Layer_18" data-name="Layer 18"><path d="M991.44,315.68c.85-.05,1.27.09,1.49,1.19a64.49,64.49,0,0,1,.73,23.3,31.68,31.68,0,0,1-4.35,12c-3,4.8-9.2,6.68-14.92,5.78-9.31-1.48-14-7.75-17-15.88-.1-.26-.5-.55-.44-.71,1.78-5-1-9.21-2.73-13.42a335.67,335.67,0,0,0-32.82-60.75c-8.65-12.64-18-24.75-27.81-36.51a660.39,660.39,0,0,0-46.62-49.62c-19.6-19.08-40.28-36.9-63.1-52.1a261.88,261.88,0,0,0-38.42-21.31,196.17,196.17,0,0,0-33.34-11.53c-6.79-1.67-13.61-3.34-20.63-3.9-2-.16-3.74-1.34-5.74-1.77a33.24,33.24,0,0,0-7.7-.34c-7.2.13-14.41.28-21.6.73-5.76.36-11.53.71-17.29,1.28q-5.75.57-11.51,1.12c-4.73.44-9.47,1-14.15,1.91-7.56,1.4-15.13,2.8-22.57,4.77a241.38,241.38,0,0,0-40.12,14.31,214.55,214.55,0,0,0-46,29.19,216.93,216.93,0,0,0-29.87,30.12A284.75,284.75,0,0,0,457,197.84c-10.47,16-19.18,32.89-25.24,51.11-3.85,11.59-7.32,23.32-11.46,34.82a5.76,5.76,0,0,0-.74,2.39" style="fill:none;stroke:#000;stroke-linecap:round;stroke-linejoin:round;stroke-width:2px"/><path d="M994.08,302.72c-2.84-.71-4.12-3.09-5.51-5.29-3.23-5.15-5.17-10.91-7.1-16.59a196.79,196.79,0,0,0-8.76-20.6A274.44,274.44,0,0,0,936,202.91q-9.84-11.94-20.82-22.86c-8.49-8.49-17-16.88-26-24.9-13.27-11.93-26.88-23.46-41-34.36a451.56,451.56,0,0,0-44.94-30.63,330.9,330.9,0,0,0-32.34-16.91,358.69,358.69,0,0,0-43.2-16.55c-8.25-2.53-16.59-4.7-25-6.7-.32-.08-.78-.34-.94-.21-2.54,2-4.45-.22-6.49-1-4.88-1.93-10-2.7-15.12-3.37-10.78-1.4-21.6-1.18-32.41-1.12-5.36,0-10.75.17-16.07.73a200.53,200.53,0,0,0-49.46,11.68c-13.18,4.93-26,10.67-38.62,16.84-9.55,4.67-19.15,9.24-28.55,14.19-19.37,10.19-38.12,21.35-55,35.45a282.6,282.6,0,0,0-31,30.73c-15.7,17.87-29.51,37.15-42.67,56.91-5.79,8.69-11.51,17.47-15.54,27.14-1.51,3.65-3,7.43-1.68,11.78.51,1.66-.55,3.94-.88,5.94a112.16,112.16,0,0,0-1.17,24,51.46,51.46,0,0,0,2.93,15.12c5.14,14.4,15.39,22.31,30.47,24.28a23.19,23.19,0,0,0,11.54-1,9.57,9.57,0,0,0,6.41-7c.29-1.2.82-1.29,1.74-1.19" style="fill:none;stroke:#000;stroke-linecap:round;stroke-linejoin:round;stroke-width:2px"/><path d="M620,655.52c-3-8.37-6.73-16.42-10.46-24.47-7.69-16.65-15.87-33.07-22.5-50.19-3.21-8.3-5.85-16.82-8.94-25.17-4.89-13.2-9.43-26.52-14.54-39.64-2.84-7.3-5-14.86-8.74-21.8-2.71-5.05-5.69-9.94-8.15-15.13-2.16-4.56-3.77-9.24-3.61-14.4a4,4,0,0,0-3.82-4.09c-5-.51-9.93.48-14.89,1.15-9.92,1.35-19.62,3.85-29.51,5.37a76.53,76.53,0,0,1-17.05.31c-5.41-.37-10.85-1.15-16.31-.58" style="fill:none;stroke:#000;stroke-linecap:round;stroke-linejoin:round;stroke-width:2px"/><path d="M291.12,497.24c-3.36,5.64-6.79,11.24-10.07,16.93q-9.58,16.64-19.4,33.14c-7.09,12-13.9,24.08-20.67,36.22-11,19.79-21.72,39.76-31.47,60.23-5.08,10.66-10.37,21.21-15.31,31.94-4.5,9.79-8.91,19.62-12.09,30a208.59,208.59,0,0,0-5.76,24,180.61,180.61,0,0,1-5.5,22.8,6.1,6.1,0,0,0-.45,2.17" style="fill:none;stroke:#000;stroke-linecap:round;stroke-linejoin:round;stroke-width:2px"/><path d="M416.64,506.48a69.89,69.89,0,0,0-2.38,14.64,105.61,105.61,0,0,0-.43,15.6c.34,4.9,0,9.9,1.81,14.65a4.32,4.32,0,0,1-.2,4.31,4.2,4.2,0,0,0-.47,2.88,323.91,323.91,0,0,1,.06,34.56c-.35,6.64-.63,13.29-1.1,19.92-.84,12.07-.41,24.19-1.44,36.23C412,655,411,660.67,410,666.33c-2.58,14-6.28,27.67-9.34,41.53-2.19,9.93-3.46,20.07-5.84,30-2,8.23-4.62,16.18-9.8,23.06-.5.65-.83,1.17-1.71.82" style="fill:none;stroke:#000;stroke-linecap:round;stroke-linejoin:round;stroke-width:2px"/><path d="M429.36,484.16c5.28-12.24,10.61-24.46,15.83-36.73a295.27,295.27,0,0,0,14.45-41.26c3.9-15,5-30.21,4.5-45.61-.38-10.71-1-21.4-3.33-31.92-1.79-8.21-4.46-16.07-9.65-22.77S439.38,295.33,430.8,295c-1.76-.07-3.52-.17-5.28-.2" style="fill:none;stroke:#000;stroke-linecap:round;stroke-linejoin:round;stroke-width:2px"/><path d="M1240.56,480.56c-4.07-.29-7.9,1-11.75,2a238.38,238.38,0,0,0-42,14.74,400.25,400.25,0,0,0-42.42,22.7c-19.49,11.82-38.26,24.76-57.38,37.16-14.28,9.27-28.72,18.27-43.71,26.34-6.55,3.53-12.92,7.43-19.65,10.62s-13.25,6.31-19.93,9.34-13.37,5.77-20.14,8.44a355.12,355.12,0,0,1-43.24,13.8c-6.53,1.65-13.18,3-19.87,4-5.85.94-11.69,2-17.55,2.68-7.57.87-15.17,1.58-22.79,2.07-8.79.57-17.6.9-26.4,1.37-4.07.21-8.16.18-12.24.26" style="fill:none;stroke:#000;stroke-linecap:round;stroke-linejoin:round;stroke-width:2px"/><path d="M554.16,327.68c.88-.08,1.25.11,1.49,1.19,3,13.38,6,26.78,9.36,40.08s6.73,26.32,10.47,39.38c3.88,13.53,8,27,12.54,40.3,3.94,11.57,8.25,23,14.86,33.37,8.77,13.77,21,23.4,36,29.51,2,.8,4,1.43,6,2.18a4.12,4.12,0,0,0,3.84-.25" style="fill:none;stroke:#000;stroke-linecap:round;stroke-linejoin:round;stroke-width:2px"/><path d="M927.12,311.84c0,1.47-1,2.24-1.92,3.12-4.62,4.61-9.42,9.07-13,14.64a28.78,28.78,0,0,0-4.06,10.56,4.46,4.46,0,0,0,0,2.38c1.48,3.5-.18,6.57-.86,9.89-1,4.74.6,9.23,3.46,13.17,3.37,4.62,7.73,8.27,12,12,4.55,3.94,9.05,7.93,11.73,13.46a55.46,55.46,0,0,1,4.57,15.59,198.09,198.09,0,0,1,2.07,19.91c.23,4,.41,8,.73,12,1.31,16.42,6.14,31.34,16.85,44.19,6,7.24,12.76,13.87,18.47,21.36,3.37,4.42,6.76,8.85,9.71,13.6,3.76,6.07,7.6,12.15,12.91,17.07,3.64,3.39,7.69,5.82,12.95,5.57,1.76-.09,3.25-1.24,5-1" style="fill:none;stroke:#000;stroke-linecap:round;stroke-linejoin:round;stroke-width:2px"/><path d="M438.48,484.64c2.94,19.05,11.38,35.61,22.78,50.9a244.74,244.74,0,0,0,23.33,26.59q14,14,28.73,27.2c9.23,8.25,18.6,16.33,28.37,23.94a271.55,271.55,0,0,0,47.79,30.17A65.84,65.84,0,0,0,600,647.88a1.88,1.88,0,0,0,1.21.08" style="fill:none;stroke:#000;stroke-linecap:round;stroke-linejoin:round;stroke-width:2px"/><path d="M624.24,672.32c-2.56-1.49-5-.85-7.69,0-10.13,3.14-20.32,6.08-30.47,9.17-17.23,5.25-34.5,10.38-51.37,16.77A319.55,319.55,0,0,0,497,715c-16,8.55-31,18.52-44.13,31-6.54,6.2-12.23,13.16-15.87,21.56a8.26,8.26,0,0,0-1,4.08" style="fill:none;stroke:#000;stroke-linecap:round;stroke-linejoin:round;stroke-width:2px"/><path d="M1000.08,295c-.38,1.75.89,2.64,1.93,3.59,9,8.25,19,15.2,29,22.09,8,5.52,16,11.22,22.76,18.28,7.3,7.62,12.94,16.22,15.24,26.82,1.23,5.67,2.14,11.38,3.26,17.06,1,4.86,1.65,9.76,2.33,14.65.58,4.14,1.14,8.3,1.56,12.47,1.19,11.62,2.58,23.22,5.52,34.55,2.15,8.27,3.9,16.63,5.65,25,.51,2.46.42,5,1.44,7.45.58,1.4-.48,2.87-1.38,4a151.36,151.36,0,0,1-10.31,11.76c-8,8.5-16.09,16.89-23.75,25.69-7.95,9.14-15.41,18.62-20.89,29.52a38.57,38.57,0,0,0-4.47,15.84,19.48,19.48,0,0,0,5.17,13.95c2.11,2.39,5.17,3.79,6.75,6.69" style="fill:none;stroke:#000;stroke-linecap:round;stroke-linejoin:round;stroke-width:2px"/><path d="M734.16,301.76c.89-.09.82.78,1.21,1.19a8,8,0,0,0,4.31,2.17,484.15,484.15,0,0,1,76.56,22.81c9.72,3.78,19.13,8.31,28.81,12.2,7.28,2.93,14.86,5,22.31,7.48,9.61,3.16,19.07,6.64,27.38,12.68a57.93,57.93,0,0,1,8.82,8.46,2.7,2.7,0,0,1,1,2.61" style="fill:none;stroke:#000;stroke-linecap:round;stroke-linejoin:round;stroke-width:2px"/><path d="M930,467.84c-8.52,1.26-17.11,1.11-25.68.9-5.76-.14-11.53-.33-17.28-.12-6.79.24-13.61.85-20.15,2.86-8.5,2.62-14.23,8.48-18.28,16.26-3.69,7.1-5.9,14.71-7.8,22.36-2.65,10.66-6.43,20.91-10.2,31.17-3,8.13-6.27,16.15-9.28,24.27-.66,1.78-2.2,2.65-3.17,4.06" style="fill:none;stroke:#000;stroke-linecap:round;stroke-linejoin:round;stroke-width:2px"/><path d="M355.92,248.12a4.17,4.17,0,0,1-1.43.1c-9.62-3-17.91-.41-25.46,5.77s-12.71,14-17.56,22.3c-6.62,11.29-11.14,23.5-16,35.55a20.67,20.67,0,0,1-2.37,4.57c-2.17,3-5.49,3.27-8.66,3.81C274,322,266,329,264.92,340.88a97,97,0,0,0-.43,10.08c0,1.89-.32,3.17-2.64,3.43a32.81,32.81,0,0,0-5.53,1.61c-2.88.86-3.88,3-3.84,5.76,0,1,.08,2.08.12,3.12" style="fill:none;stroke:#000;stroke-linecap:round;stroke-linejoin:round;stroke-width:2px"/><path d="M416.4,554.24c2.83,1.24,3.31,4.1,4.28,6.5a215.17,215.17,0,0,0,22.87,42.2,194.77,194.77,0,0,0,20.82,25.25,381.79,381.79,0,0,0,38.44,34,110.4,110.4,0,0,0,21.86,13.39,54.15,54.15,0,0,0,18.69,5" style="fill:none;stroke:#000;stroke-linecap:round;stroke-linejoin:round;stroke-width:2px"/><path d="M942.72,472.88c-1.87,6-4.34,11.84-6.57,17.73q-4.64,12.21-9.72,24.28c-8.06,19.15-17.83,37.29-31.25,53.25-13.17,15.66-26.4,31.26-41.27,45.37-1.93,1.83-4,3.51-6,5.31-.55.5-1.38.9-1.21,1.9" style="fill:none;stroke:#000;stroke-linecap:round;stroke-linejoin:round;stroke-width:2px"/><path d="M613,295.64a69.15,69.15,0,0,0-11.51.66c-2.4.25-4.83.34-7.22.54-5.6.49-11.21,1-16.78,1.66s-11.38,1.47-17.06,2.21c-7.36.94-14.73,1.93-22.06,3.05-5,.76-10,1.8-14.91,2.67-6.8,1.18-13.5,2.72-20.12,4.52-12.42,3.38-24.51,7.66-34.82,15.77-.23.18-.48.32-.72.48" style="fill:none;stroke:#000;stroke-linecap:round;stroke-linejoin:round;stroke-width:2px"/><path d="M253,373.52c-.74,4.18-.06,8.35.3,12.48,1.5,17.27,6.43,33.68,12.89,49.68,5.86,14.49,12.89,28.43,19.7,42.48,1.87,3.86,3.81,7.69,5.77,11.51a6.76,6.76,0,0,1,.46,3.13" style="fill:none;stroke:#000;stroke-linecap:round;stroke-linejoin:round;stroke-width:2px"/><path d="M424.08,481.52c-2.25.84-4-.66-5.74-1.48-7.2-3.3-14-7.43-20.9-11.25-10.54-5.8-21.57-10-33.84-9.06a75,75,0,0,0-29.75,8.6c-8,4.22-14.91,9.67-19.68,17.52a4.29,4.29,0,0,0-1,3.11" style="fill:none;stroke:#000;stroke-linecap:round;stroke-linejoin:round;stroke-width:2px"/><path d="M829.08,369.44c-1.17,8.63-3,17.14-4.72,25.67-1.82,9.06-3.81,18.09-5.81,27.11-1.51,6.81-3.08,13.63-4.63,20.44A311,311,0,0,1,805,475.53c-.31.9-.48,1.77-1.47,2.15" style="fill:none;stroke:#000;stroke-linecap:round;stroke-linejoin:round;stroke-width:2px"/><path d="M979.92,509.12c-2.11,1.77-1.91,4.42-2.35,6.73a124.62,124.62,0,0,1-8.68,26.88C963,556.17,955,568.4,947,580.62c-6.79,10.36-14,20.47-20.13,31.22" style="fill:none;stroke:#000;stroke-linecap:round;stroke-linejoin:round;stroke-width:2px"/><path d="M1157.52,507.2a2.31,2.31,0,0,0-1-2.39c-5.85-4-10.78-9.07-16.29-13.48-7.87-6.31-16.91-9.76-26.66-11.73-7.23-1.47-14.56-2.25-21.83-3.43-1-.17-1.76.32-2.65.31" style="fill:none;stroke:#000;stroke-linecap:round;stroke-linejoin:round;stroke-width:2px"/><path d="M956.64,341.36a5.31,5.31,0,0,1-2.62-1c-3.29-3.2-7.48-4.15-11.78-4.5A76,76,0,0,0,921.12,337c-1.8.36-3.31,1.42-5,2-.24.08-.34.57-.25.93" style="fill:none;stroke:#000;stroke-linecap:round;stroke-linejoin:round;stroke-width:2px"/></g></svg>
