<svg xmlns="http://www.w3.org/2000/svg" viewBox="0 0 1366 768"><g id="Layer_16" data-name="Layer 16"><path d="M866,526.5c2.45-1.37,3.06-3.88,5.24-4.72,3.62.87,5.49,3.17,6.36,6.73.5,2.07.41,4.38,1.81,6.2,1.44-.15,1.75-1.38,2.31-2.24a56.1,56.1,0,0,1,8.33-10.12,25.81,25.81,0,0,1,6.46-4.3,6.62,6.62,0,0,1,7.6,1.28,18.11,18.11,0,0,1,3.77,6.72,4.21,4.21,0,0,1-.26,2.37c-.68,2.23-1.5,4.41-2.17,6.64-1,3.27-1.25,6.47,1.23,9.3.15.16.07.52.1.78-2.63,1.9-4.31,1.61-5.51-1-.23-.49-.34-1-.53-1.55s-.4-1-.69-1.67c-.75.25-1.38.42-2,.68a23.87,23.87,0,0,0-2.19,1.13c-4.86,2.76-9.92,2.61-15.33,1-.54.28-1.23.68-2,1-1.82.83-3,.49-3.61-1.29a18.67,18.67,0,0,1-.75-3.58c-.35-2.3-.59-4.62-1-6.91a5.29,5.29,0,0,0-1-2.21c-.22-.29-1-.25-1.44-.24-.2,0-.48.3-.59.53-1.59,3.33-4.45,5.93-5.49,9.58a3.91,3.91,0,0,1-.55,1.1,2.42,2.42,0,0,1-4.12-.1,4.37,4.37,0,0,1-.66-1.9c-.12-2.19-.21-4.38-.14-6.56.37-11.65,2-23.18,3.25-34.76a12.59,12.59,0,0,1,1.11-3.88,2.45,2.45,0,0,1,2.72-1.4,2.38,2.38,0,0,1,1.76,2.08,13.23,13.23,0,0,1,.14,3.66c-.77,6.25-.7,12.58-2,18.78A24,24,0,0,0,866,526.5Zm36.6.32c-.19-1-.27-1.68-.46-2.33a2.66,2.66,0,0,0-3.49-1.93,7.41,7.41,0,0,0-1.8,1,31.22,31.22,0,0,0-7.51,6.9,20,20,0,0,0-3.72,6.78c-.69,2.5.32,3.71,2.92,3.2a12.82,12.82,0,0,0,4.22-1.46,24.55,24.55,0,0,0,8.86-8.9A15.09,15.09,0,0,0,902.63,526.82Z"/><path d="M934.09,650.9a33.12,33.12,0,0,0-8.57,13.21,11,11,0,0,0-.6,3.59,3.73,3.73,0,0,0,3.5,3.85,7.25,7.25,0,0,0,5.1-1.1c3.17-2,5.7-4.71,8.27-7.36a3.82,3.82,0,0,0,.85-2.62c-.45-6.77,1.13-13.36,1.73-20,.18-1.94.5-3.85,1.89-5.32a2.27,2.27,0,0,1,1.7-.77,2.23,2.23,0,0,1,1.37,1.29,12.29,12.29,0,0,1,.54,6.06c-.69,5.16-1.19,10.34-1.71,15.52-.09.9-.38,1.94.69,2.64,1.4-.33,1.62-1.68,2.25-2.66,1.19-1.83,2.31-3.71,3.55-5.51a3.44,3.44,0,0,1,1.58-1.21,2.3,2.3,0,0,1,2.66.53c.75,1,1.42,2.14.74,3.41-1.53,2.89-2.19,6.22-4.49,8.71a6.55,6.55,0,0,0-.77,1.41c.65,1.24,1.76,1.37,2.81,1.54,2.17.36,4.34.67,6.5,1a5.84,5.84,0,0,1,3.77,1.69,3.65,3.65,0,0,1-3.43,1.66,75.22,75.22,0,0,1-8.63-.11c-4.48-.47-5.72-.31-6.77,4.81a4.64,4.64,0,0,1-2.61,3.42,1.5,1.5,0,0,1-2.26-1,24.85,24.85,0,0,1-.58-3.64c-.17-1.63-.22-3.28-.38-4.91a5.62,5.62,0,0,0-.43-1.33c-1.22-.51-1.71.27-2.3.79-1.84,1.64-3.57,3.41-5.51,4.91a11.15,11.15,0,0,1-8.08,2.29c-4.51-.42-6.26-3.76-6.63-7.14a14.32,14.32,0,0,1,.56-5.67,33.19,33.19,0,0,1,7.37-12.68,28,28,0,0,1,5.21-4c1.51-1,2.76-1,3.78-.13a3.81,3.81,0,0,1,1.07,4.46,2.27,2.27,0,0,1-1.64.91A6.58,6.58,0,0,1,934.09,650.9Z"/><path d="M969.83,579c-2.59.24-4.74,1.66-6.78,3.25a3.12,3.12,0,0,0-.95,1.74,22.38,22.38,0,0,0-.41,4.07c0,2.74.21,5.47.3,8.21a19.32,19.32,0,0,0,1.77,8,8.19,8.19,0,0,1,.42,1.5c-2.8,2-4.8,1.59-5.93-1.11a31.84,31.84,0,0,1-2-10.84c-.08-1.64,0-3.29-.07-4.93-.09-3.09-.12-3.11-3.14-4.87a6.72,6.72,0,0,1,.83-1.65,23.37,23.37,0,0,1,2.27-2c.15-2.52.26-5.1.46-7.68.15-1.9.48-3.8.62-5.71s1.27-3,2.58-4a1.76,1.76,0,0,1,2.74.75,9.81,9.81,0,0,1,.62,3.17c.05,2.18-.11,4.37-.11,6.56a18.41,18.41,0,0,0,.43,2.66l5.6-2.61c1.07-1.53.39-3.05.38-4.51a3,3,0,0,1,1-2.54c1.29-1,2.89-.86,3.36.67.94,3,1.68,6,2.35,9.11.35,1.59.37,3.26.59,4.89a15.68,15.68,0,0,0,.47,1.91,4.11,4.11,0,0,0,1.12.7c3.38.73,5.07,3.28,6,6.18,1.25,3.9,2.07,7.94,3,11.94a5.91,5.91,0,0,1,0,2.44,2,2,0,0,1-3.26.9,6.69,6.69,0,0,1-1.36-2.46c-.63-2.1-1.13-4.23-1.59-6.37-.36-1.62-.81-3.12-2.39-3.9-1.26.58-1.11,1.63-1.16,2.54-.12,2.18-.06,4.39-.29,6.56a6.12,6.12,0,0,1-1.19,3,3.16,3.16,0,0,1-2.13.87c-.84.06-1.73-1-1.81-1.93-.14-1.63-.16-3.28-.24-4.92-.25-5.19-.49-10.39-.79-15.58C971,581.6,971.17,580.15,969.83,579Z"/><path d="M800.14,649.67c-3.42,1-5.76,2.64-8.23,4a3.4,3.4,0,0,0-1.43,3.25c.07,3.56.25,7.11.41,10.67a5.58,5.58,0,0,0,.29,1.19c.27,1,.23,1.94-.81,2.49A2.69,2.69,0,0,1,787,671a4.67,4.67,0,0,1-1.18-2.09,53.31,53.31,0,0,1-1-7.72c-.06-2.26-.32-4.33-2-6.06a7.73,7.73,0,0,1,1-1.48,5.09,5.09,0,0,0,1.73-4c0-2.47.2-4.93.35-7.39a18.61,18.61,0,0,1,.38-3.26,6.84,6.84,0,0,1,1.1-2.17,2.26,2.26,0,0,1,2.5-1,2,2,0,0,1,1.5,2.18c0,2.33,0,4.65,0,7,0,.94.11,1.87.18,3a6.85,6.85,0,0,0,2.46-.28c1.84-1.05,3.69-1.7,5.91-.85a10.59,10.59,0,0,0,.5-2.2c0-2-.05-4.1-.11-6.16,0-1.23-.17-2.46-.12-3.69,0-1.64,1-3,2.11-3.18a3.13,3.13,0,0,1,3,2.39,21.47,21.47,0,0,1,.75,4.44c.17,2.32.12,4.66.25,7a17.36,17.36,0,0,0,.59,2.65,19.24,19.24,0,0,0,2.09-1.84,3.52,3.52,0,0,1,5.15,0,19.19,19.19,0,0,1,3.74,5.31c2.18,5.72,1.74,11.58,0,17.35-.16.54-.85,1-1.39,1.34a1.17,1.17,0,0,1-1.66-.67c-.15-1.49-.19-3-.27-4.49-.14-2.59-.1-5.21-.46-7.77-.29-2.08-.5-4.4-2.88-5.46-2.17.91-2.56,3-3.3,4.9a31.4,31.4,0,0,0-2.59,12.38,2.58,2.58,0,0,1-1,2.54,4.93,4.93,0,0,1-2.6.89c-1-.12-1.31-1.29-1.39-2.26s-.08-2.2-.07-3.29c.05-4.39.13-8.77.16-13.16C800.34,652.62,800.22,651.42,800.14,649.67Z"/><path d="M838.4,584.51c-1.74,2.66-1.89,5.52-2.27,8.38-1.52,11.69-3.58,23.29-6,34.83-.22,1.07-.64,2.1-.86,3.17-.72,3.44-3.44,5.15-6,7a3.14,3.14,0,0,1-3.15,0,14.05,14.05,0,0,1-5.81-4.48c-2.6-3.46-4.19-7.38-3.73-11.87a2,2,0,0,1,.16-.8c.27-.44.57-1.07,1-1.17s1,.39,1.21.78A21.55,21.55,0,0,1,814,623c.49,1.27.92,2.58,1.51,3.82a11.4,11.4,0,0,0,6,6,4,4,0,0,0,2.87-3.19c.56-2.11,1.07-4.25,1.54-6.39,1.85-8.58,3.21-17.24,4.3-25.94a10.7,10.7,0,0,0,0-2c0-.23-.27-.45-.59-.92a15.25,15.25,0,0,0-2.93.86c-2,1.05-4.22,1.14-6.36,1.55a2.51,2.51,0,0,1-3-1.64,10.1,10.1,0,0,1-.81-3.14,7.17,7.17,0,0,1,.42-2.82,35,35,0,0,1,11.53-15.68,6.22,6.22,0,0,1,1-.63,3.65,3.65,0,0,1,5.45,2.41,43.92,43.92,0,0,1,1,4.82C836.34,582.23,836.3,582.24,838.4,584.51Zm-7.77-4.37c-2.36.94-4.13,2.88-6.22,7-.57,1.13-1.63,2.28-.67,3.72C829.27,589.52,832.16,585,830.63,580.14Z"/><path d="M740.25,520.37c-.27,1.31-.64,2.61-.81,3.93-.48,3.93-.89,7.88-1.32,11.82,0,.27,0,.54,0,.82a2.51,2.51,0,0,1-1.89,2.39c-1,.26-1.87-.3-2.56-1.58a6.88,6.88,0,0,1-.72-4c.37-4.49.77-9,1.15-13.47.28-3.41.54-6.81.82-10.22a9.11,9.11,0,0,1,.34-2.41,3.76,3.76,0,0,1,3.28-2.73c1.76-.12,3.31.3,4,2.11a85.55,85.55,0,0,1,3.52,9.16c1.34,4.77,3.43,9.23,5.21,13.81a1.94,1.94,0,0,0,1.45,1.41c1-1.22.83-2.61.86-3.93.13-6.29.22-12.58.32-18.88a7.9,7.9,0,0,1,.1-2.44,5.6,5.6,0,0,1,1.54-2.29,2.08,2.08,0,0,1,3.17.66,6.3,6.3,0,0,1,.83,2.69c0,4.23.12,8.48-.19,12.7a90,90,0,0,0-.06,17.6c.22,1.73-.62,2.57-2.42,2.3a46.21,46.21,0,0,1-5.2-1.1,3.21,3.21,0,0,1-1.68-1.08,34.91,34.91,0,0,1-3.39-5.09c-1.71-3.42-3.16-7-4.72-10.47-.28-.6-.59-1.19-.88-1.79Z"/><path d="M688.51,629.31a15.9,15.9,0,0,0-1.31,2.52c-1.35,4.77-1.57,9.71-2.1,14.61a3.25,3.25,0,0,0,.07.82,1.36,1.36,0,0,0,2.07,1.15c.83-.47,1.56-1.13,2.4-1.56a16.89,16.89,0,0,1,2.34-.79l5.84,4.82c.54-.27,1.27-.58,2-1,3.43-1.95,6.62-.77,9.71.85.4.21.44,1.12.65,1.71-1.61.92-3.16.69-4.63.82-3.82.35-5,1.49-5.4,5.3-.1,1.09-.11,2.19-.15,3.28a3.48,3.48,0,0,1-1.5,2.79c-1.65,1.24-3.81.45-3.93-1.6a45.15,45.15,0,0,0-2-10.45,14,14,0,0,0-.58-1.42c-2.24.41-5.68,2-6.54,3.21a3.17,3.17,0,0,0-.63,1.87q.39,6.76,1,13.5c.09,1.07.66,2.11-.08,3.42a8.31,8.31,0,0,1-1.72.47c-1.39.12-2.17-.32-2.51-1.58a33.18,33.18,0,0,1-1.43-6.38,127.1,127.1,0,0,1,1.91-34.76c.64-3.1,2.4-5.13,4.6-7a2.27,2.27,0,0,1,3-.09,12,12,0,0,1,3.16,3.14,33.1,33.1,0,0,1,2.34,6.11,2.59,2.59,0,0,1-.28,1.92,2.62,2.62,0,0,1-1.63,1c-.33,0-1-.54-1.15-1C691.14,633.18,690.58,631.19,688.51,629.31Z"/><path d="M999.05,530.17c1.32.26,1.93-.79,2.68-1.51,1.68-1.61,3.26-3.33,5-4.86a4.17,4.17,0,0,1,5.29-.49c4.63,2.51,6.67,9.5,3.24,13.85a24.17,24.17,0,0,1-6.58,6.13,11.79,11.79,0,0,1-3.82,1.36,24.19,24.19,0,0,1-4.51.27c-3.18,0-3.68-.44-4.31-3.66a4.21,4.21,0,0,0-1.48-2.81,5.31,5.31,0,0,1-1.89-4.35,59.61,59.61,0,0,1,1.86-17.5c1.26-5,2.82-10,4.33-15a13.38,13.38,0,0,1,1.55-3.29,2.11,2.11,0,0,1,2.54-.86,2,2,0,0,1,1.23,2,21.57,21.57,0,0,1-1.52,10.07c-1.7,4.37-2.39,9-3.56,13.48A11.76,11.76,0,0,0,999.05,530.17Zm3.13,10.44a8.94,8.94,0,0,0,4.69-2.08c1.16-.95,2.18-2.07,3.31-3.06,1.61-1.4,1.61-3,.82-4.82-.66-1.5-2-2-3.31-.95a79.42,79.42,0,0,0-6.58,6.13,6.19,6.19,0,0,0-1.17,3C999.72,539.83,1000.62,540.67,1002.18,540.61Z"/><path d="M1069.56,576.74c1.17-1.34,1-2.75,1.08-4.1.1-2.6.09-5.2.23-7.79a11.12,11.12,0,0,1,.6-3.19c.2-.55.92-1.31,1.36-1.28a2.93,2.93,0,0,1,2,1.08,5.18,5.18,0,0,1,.7,2.72c0,7.78.29,15.58-.83,23.32a29.49,29.49,0,0,0,1.65,15.69c.5,1.22.25,2.18-.54,2.5-1.45.57-3.09.29-3.7-.78a16.21,16.21,0,0,1-1.09-2.65c-.41-1.13-.51-2.41-1.75-3.24-1.51.13-2.18,1.5-3,2.44-3,3.24-6.69,4-10.82,3.67a8.53,8.53,0,0,1-1.55-.44,10.79,10.79,0,0,1-1-7.63c.94-4.57,2.2-9,5.53-12.58.93-1,1.58-2.24,2.5-3.23C1063.55,578.43,1065.33,577.54,1069.56,576.74Zm-11.07,23.64a3.75,3.75,0,0,0,1,.22,2.62,2.62,0,0,0,1.16-.34c4.09-3,7.13-6.71,8.15-11.76a15.42,15.42,0,0,0-.18-4.43c-.06-.65-1.09-1-1.65-.73a4.27,4.27,0,0,0-1,.67,26.82,26.82,0,0,0-7.69,14.55A6.09,6.09,0,0,0,1058.49,600.38Z"/><path d="M803.23,520.91c1.08-.92,1.85-1.66,2.71-2.29a30.05,30.05,0,0,1,3.38-2.25,2.38,2.38,0,0,1,3,.55,14.7,14.7,0,0,1,2.63,3.61,32.21,32.21,0,0,1,2.33,15.29c-.17,2.32-.49,4.63-.82,6.93-.36,2.5-1.23,3.08-4.27,3-.82-1.14-.32-2.37-.26-3.58.17-3.55.44-7.11.43-10.67a31.56,31.56,0,0,0-.84-5.67,4.12,4.12,0,0,0-.79-1.87,2.76,2.76,0,0,0-1.65-.91c-.36,0-1,.55-1.14,1a15.35,15.35,0,0,0-1.47,6.36c0,2.33,0,4.66-.1,7a21.46,21.46,0,0,1-.73,4.43,3.22,3.22,0,0,1-2.23,2.24,1.63,1.63,0,0,1-2.14-.67,10.92,10.92,0,0,1-1.16-3.88,26.07,26.07,0,0,1,.46-6.11,11.94,11.94,0,0,0-.79-6.83,4.64,4.64,0,0,0-1.23-1.58,1.22,1.22,0,0,0-2,.61,20.73,20.73,0,0,0-.4,2.83c-.24,3.14-.44,6.29-.69,9.43a12.24,12.24,0,0,1-.41,2.42,2.73,2.73,0,0,1-2.83,1.92,2.88,2.88,0,0,1-2.19-2.19,9.32,9.32,0,0,1-.17-2q.17-7.82.38-15.62c.08-2.79,1.21-3.75,3.89-4.35C797.62,517.24,800.36,518.38,803.23,520.91Z"/><path d="M1209.26,538.25c2.27-.13,3.06-1.48,3.93-2.65a30.52,30.52,0,0,0,4.73-10.41,14.11,14.11,0,0,1,.72-2.34,1.73,1.73,0,0,1,2.76-.53c1.5,1.32,2.45,2.75,2,5-.63,3.34-.18,6.57,2.26,9.22a2.82,2.82,0,0,0,.76.4c1.41-.23,1.84-1.41,2.28-2.55a24.4,24.4,0,0,0,1.32-14.9,11.81,11.81,0,0,1-.45-3.22,2.28,2.28,0,0,1,1.09-1.51c.26-.16,1.14.2,1.37.56a19.1,19.1,0,0,1,3.32,7.86,28.43,28.43,0,0,1-2.19,14.84,7.63,7.63,0,0,1-6.51,5,3.41,3.41,0,0,1-3.55-1.49c-.84-1.25-1.74-2.46-2.6-3.7a12.18,12.18,0,0,1-.65-1.11c-2.35.13-3.05,1.65-4.08,2.66a12.39,12.39,0,0,1-6.73,3.67,4,4,0,0,1-4.27-1.75,5.2,5.2,0,0,1-.8-2.27c-.76-6.5.25-12.83,2-19.07a6.18,6.18,0,0,1,2.36-3.27,1.8,1.8,0,0,1,2.91,1,7,7,0,0,1,0,2.42c-.57,3.52-1.16,7-1.84,10.52A23.09,23.09,0,0,0,1209.26,538.25Z"/><path d="M890,602.76l2.25.67a2.12,2.12,0,0,1-.53,2.94,24.23,24.23,0,0,1-3.13,2.19c-2.1-.41-2.61-1.82-3.11-3.28-.62-1.78-.7-3.78-1.95-5.3a5.71,5.71,0,0,0-5.53.67,18.57,18.57,0,0,1-6.89,2.54c-4.41.69-5.68-.45-5-4.8a31.07,31.07,0,0,1,3-10.2c.58-1.08,1-2.25,1.5-3.38,1.55-3.62,4.21-6.38,7.08-8.93a3.14,3.14,0,0,1,4.67.69,8.13,8.13,0,0,1,.88,1.39,11,11,0,0,0,3,3.81,6.37,6.37,0,0,1,2.67,5.7c-.09,1.09.21,2.21.07,3.28C888.44,594.78,889.44,598.64,890,602.76Zm-10.68-19.83c-2.63,2.35-3.82,4.43-6.33,10.61-.51,1.27-1.07,2.5-.49,4.1,3.2-.4,5.2-2.3,6.61-4.85C880.86,589.72,881.82,586.52,879.36,582.93Z"/><path d="M739.48,646.34c2.55.24,4.55.1,6.29.7s3.22,2,4.9,3c1-.63,1.85-1.28,2.8-1.78,2.39-1.29,4-1.07,5.91.87a12.43,12.43,0,0,1,3.79,7.55c.34,4.09.6,8.19.81,12.29a4.64,4.64,0,0,1-.48,2.36,2.16,2.16,0,0,1-1.6,1,2,2,0,0,1-1.48-1.08,13,13,0,0,1-.71-3.18c-.46-3.39-.86-6.79-1.33-10.18-.16-1.2-.21-2.54-1.67-3-.92-.31-1.89.69-2.32,2.87-.5,2.55-.69,5.15-1,7.72a13.62,13.62,0,0,1-.53,2.79c-.68,2-1.08,2.19-4.14,2.64-.67-2-.28-4-.19-6.06a52.35,52.35,0,0,0,.12-5.31,10,10,0,0,0-2.66-5.89,2.31,2.31,0,0,0-2.59-.8,1.94,1.94,0,0,0-1.43,1.8c-.12,1.36-.25,2.72-.27,4.08,0,2.87,0,5.74,0,8.61a2.92,2.92,0,0,1-1.86,2.93,2.31,2.31,0,0,1-3.22-1.57,7.42,7.42,0,0,1-.13-1.63A93.3,93.3,0,0,0,735,649.5a9.41,9.41,0,0,1,.26-4c.42-1.58,2-1.79,3.18-.53A12.08,12.08,0,0,1,739.48,646.34Z"/><path d="M1277.72,521.55c1.8,1,3.25,1.7,4.65,2.51a4.59,4.59,0,0,1,2.26,3.28c.86,4.7,1.73,9.41,2.56,14.11a5.31,5.31,0,0,1,0,1.64,3.37,3.37,0,0,1-2.67,2.73c-.79,0-1.64-1-1.92-2.39-.17-.8-.13-1.64-.28-2.45-.52-2.68-1-5.36-1.66-8a8.3,8.3,0,0,0-1.17-1.93,11.29,11.29,0,0,0-1.41,1.71c-.58,1.09-1,2.26-1.53,3.36a8.31,8.31,0,0,1-1.28,2.08c-.74.8-1.66,1.59-2.85,1.25a2.47,2.47,0,0,1-1.59-2.63,87.1,87.1,0,0,1,.24-9c.65-6.67,1.46-13.32,2.27-20a41.07,41.07,0,0,0-.29-14.29,3.42,3.42,0,0,1,1-3.72,2.14,2.14,0,0,1,3.25.22,7,7,0,0,1,1,1.77,20.5,20.5,0,0,1,1.28,9.66c-.51,5.86-.76,11.74-1.91,17.53A13.55,13.55,0,0,0,1277.72,521.55Z"/><path d="M868.09,668.81l-3.22-.38c-.29-.55-.85-1.13-.85-1.72a74.53,74.53,0,0,1,.28-7.77,29.44,29.44,0,0,1,1.16-5.21c1.37-4.88,2.75-9.75,4.28-14.58a11.44,11.44,0,0,1,2.09-3.46,2.11,2.11,0,0,1,2.94-.51,2.38,2.38,0,0,1,1.27,2.75c-.73,2.5-1.61,5-2.35,7.45-1.28,4.32-2.53,8.66-3.71,13a9.82,9.82,0,0,0,0,2.44c1.83,0,2.54-1.33,3.51-2.2,2.13-1.92,4.2-3.91,6.39-5.77,1.71-1.44,2.23-1.41,4-.3a9.91,9.91,0,0,1,4.88,8.11,12.77,12.77,0,0,1-4,10,8.11,8.11,0,0,1-4.35,2.19c-1.47.31-3,.52-4.43.9a7.48,7.48,0,0,1-4.8-.6c-1.62-.64-2-2.11-2.48-3.55C868.65,669.39,868.4,669.2,868.09,668.81Zm8.07.67c1.9.28,3.62-.9,5.24-2.17,2.85-2.25,3.59-4.82.63-8.49a1.89,1.89,0,0,0-2.9-.22c-2,1.86-3.87,3.84-5.8,5.77-1,1-1.83,2.1-1.08,3.62S874.43,669.43,876.16,669.48Z"/><path d="M756.7,579.17l1.41-1c1.81-1.26,3.22-1.36,4.81-.12s2.51,2.62,1.93,4.6a12.48,12.48,0,0,1-1.41,2.92c-1.05,1.75-2.18,3.45-3.2,5,.56,1.51,1.77,1.52,2.79,1.7,3,.53,6,.95,8.92,1.43.66.11,1.3.3,1.83.42a1.43,1.43,0,0,1-.59,2.21,10,10,0,0,1-3.49,1c-3.83.3-7.66.39-11.4-.8a9.38,9.38,0,0,0-2-.24c-1.26,1.37-2.36,2.73-3.65,3.9a1.69,1.69,0,0,1-2.85-1,12.5,12.5,0,0,1-.29-3.23c.26-8.49.4-17-.17-25.45-.1-1.49-.37-3-.48-4.48a4,4,0,0,1,1-3.42,1.73,1.73,0,0,1,2.24-.11,7,7,0,0,1,2.05,3.95c.49,2.82.87,5.67,1.3,8.51.18,1.2.35,2.41.54,3.62C756.06,578.78,756.24,578.84,756.7,579.17Z"/><path d="M1163.3,521l2.59-2.07a17.86,17.86,0,0,1,2.23-1.77,4.52,4.52,0,0,1,6,.91,7.94,7.94,0,0,1,2.43,4.2c.47,3,1,5.93,1.26,8.91.18,2.45-.09,4.93-.15,7.39-.08,3.14-.2,6.28-.2,9.42a4.88,4.88,0,0,1-.8,3.1,2.25,2.25,0,0,1-2.11,1,1.67,1.67,0,0,1-1.52-1.67,69.56,69.56,0,0,1-.47-7.35c0-3.55.43-7.1.43-10.66a33,33,0,0,0-.73-6.08,5.24,5.24,0,0,0-1.16-2.11,1.46,1.46,0,0,0-2.63.29,18.09,18.09,0,0,0-1,2.24c-2,5.09-4.12,10.13-4.79,15.63-.24,2-1,2.7-2.38,2.84a2.38,2.38,0,0,1-2.79-1.84,14.22,14.22,0,0,1-.12-3.26c.18-2.73.56-5.45.63-8.18a64.93,64.93,0,0,0-.28-7.76,12,12,0,0,1,.84-5.6c.66-1.7,2.07-1.89,3.08-.45C1162.12,518.9,1162.55,519.74,1163.3,521Z"/><path d="M693.26,580a20.28,20.28,0,0,0-8.07,12.25c-.29,1.34-.49,2.7-.76,4-.51,2.53-.52,2.52-3.62,3.82-1.29-.61-1.52-1.81-1.52-3.07,0-3.69-.1-7.4.15-11.07.39-5.73,1.16-11.43.63-17.2a15.91,15.91,0,0,1,.62-4.86,4.69,4.69,0,0,1,1.34-2,1.42,1.42,0,0,1,2.13.36,10.81,10.81,0,0,1,.86,2.28,38.8,38.8,0,0,1,.64,11.43c-.06,1-.51,2.17.66,3.26a6.54,6.54,0,0,0,1.19-.77c1-1,1.77-2.1,2.79-3a5.21,5.21,0,0,1,7.53,1.07,11.94,11.94,0,0,1,2,7c0,3.42-.25,6.83-.52,10.24a44.62,44.62,0,0,1-.92,6.08c-.43,2-1,2.2-3.85,2a12,12,0,0,1-.16-1.92c.24-2.72.64-5.44.8-8.16a72.48,72.48,0,0,0,.06-7.37C695.14,582.57,695,582.57,693.26,580Z"/><path d="M1066.88,652.75c.16-1.28.37-2.35.4-3.43a105.3,105.3,0,0,1,1.43-14.28,74.66,74.66,0,0,0,.86-7.75,7.91,7.91,0,0,1,2-4.83,2.24,2.24,0,0,1,2.56-.81,1.91,1.91,0,0,1,1.28,1.92,41.19,41.19,0,0,1,0,5.33c-.49,4.21-1.21,8.39-1.7,12.6-.32,2.85-.44,5.72-.58,8.59-.06,1.39.66,2,2,1.88,1-.09,1.9-.33,2.85-.38a6.79,6.79,0,0,1,2.43.16,2.27,2.27,0,0,1,1.41,1.25,2.11,2.11,0,0,1-.68,1.71,7.76,7.76,0,0,1-4.11,1.71c-1.31.19-2.6.6-3.9.91-1.14,4.16-.83,8.13-.55,12.06.18,2.58.7,5.14,1.06,7.71.19,1.29-.4,2.16-1.87,2.77-1.08.45-2,.14-2.68-1.17a9.08,9.08,0,0,1-1.06-3.05c-.4-3.67-.66-7.35-.94-11-.08-1.09,0-2.2,0-3.29-.12-2.43-.22-2.53-2.69-3.37-.26-.08-.62-.05-.78-.22-.44-.46-1.06-1-1.11-1.52a2.22,2.22,0,0,1,.78-1.73A27.78,27.78,0,0,1,1066.88,652.75Z"/><path d="M773.12,536.84c-5.39-1-5.4-1.05-7-6a33.38,33.38,0,0,1-1.63-9.27,3.78,3.78,0,0,1,.92-3,2.14,2.14,0,0,1,3.68.59,32.49,32.49,0,0,1,.87,4c.47,2.27.89,4.56,1.43,6.82a8.09,8.09,0,0,0,1,1.83,3.63,3.63,0,0,0,2.92-3.18c.4-2.43.84-4.86,1.3-7.28a13.71,13.71,0,0,1,3.85-7.77c.73.44,1.42.81,2.07,1.24a2.66,2.66,0,0,1,1.14,2.87,8.94,8.94,0,0,1-.39,2c-1.24,3-1.31,6.14-1.84,9.23-.46,2.7-1,5.37-1.6,8q-1.86,8.63-3.79,17.24a21.42,21.42,0,0,1-1,3.13,2.24,2.24,0,0,1-2.64,1.43,2.21,2.21,0,0,1-2-2.27,23.84,23.84,0,0,1,.41-3.66c.75-4.32,1.56-8.63,2.29-13A19.37,19.37,0,0,0,773.12,536.84Z"/><path d="M989.38,526.83c.06,5.78-2.34,10.69-6.47,14.83a7.77,7.77,0,0,1-5.34,2.73c-1.22,0-2.42.45-3.64.51-3.24.17-4.55-.83-5.19-4a22.92,22.92,0,0,1,2.6-16.27,66.85,66.85,0,0,1,5.06-7.45,14.51,14.51,0,0,1,3.28-3,4.68,4.68,0,0,1,6.77,1.55C988.23,519.14,990,522.61,989.38,526.83Zm-6.06-6.26a4.88,4.88,0,0,0-4.65,2.33,27.68,27.68,0,0,0-4.88,12,7.29,7.29,0,0,0,.34,4.78c2.28.26,2.26.23,3.41-.67,5.43-4.29,7.38-10,6.58-16.69A6.85,6.85,0,0,0,983.32,520.57Z"/><path d="M1264,510.75c1.69-.35,3-.67,4.31-.88a1.75,1.75,0,0,1,2.07.93,1.8,1.8,0,0,1-.72,2.49,15.55,15.55,0,0,1-4.3,2.29,4.53,4.53,0,0,0-3.72,4.31c-.45,3.52-.86,7.05-1.1,10.59-.28,4.07-.37,8.15-.54,12.29a7.17,7.17,0,0,1-1.64.59c-1.26.12-1.94-.27-2.14-1.38a43.78,43.78,0,0,1-.9-6.89c0-4.24.27-8.47.41-12.7,0-1.22,0-2.44,0-3.77a11.1,11.1,0,0,0-1.4-.75c-.72-.28-1.79-.08-2-1.1-.26-1.31,1-1.51,1.77-1.85,2.31-.92,3.23-2.64,3.55-5,.46-3.37,1.28-6.7,1.8-10.06.32-2,.32-4.08.55-6.12a10,10,0,0,1,.73-3.13,2.47,2.47,0,0,1,4.81.33,7.59,7.59,0,0,1,.42,2.41,33.43,33.43,0,0,1-1.33,10.94A11.3,11.3,0,0,0,1264,510.75Z"/><path d="M1059.38,652c-.2,3.14-.3,5.86-.57,8.57a18,18,0,0,1-.9,3.14c-.76,2.67-1.08,5.31.43,8l3.45-1a6.35,6.35,0,0,1-.27,1.85,7.86,7.86,0,0,1-4.56,3.27,2.72,2.72,0,0,1-3.41-1.47,29.75,29.75,0,0,1-1.21-3.39c-1.43-.38-2.21.46-3.08,1.08a17.12,17.12,0,0,1-6.6,3.2c-3.08.6-5.2-.88-5.29-4a20.89,20.89,0,0,1,2.42-11.06c2-3.55,4.64-6.41,7.22-9.41a4.53,4.53,0,0,1,2.41-1.38A11.4,11.4,0,0,1,1059.38,652Zm-16.6,18.91a3.46,3.46,0,0,0,3.43-1,21.58,21.58,0,0,0,6.84-10,5.26,5.26,0,0,0-.42-4,2.16,2.16,0,0,0-2.82-.95,4.27,4.27,0,0,0-1.33.94c-2.51,3.09-4.9,6.27-5.89,10.23C1042.19,667.68,1041.86,669.31,1042.78,670.87Z"/><path d="M668.08,504.12a7.39,7.39,0,0,1,.19-2.09,5.91,5.91,0,0,1,4-3.21c3.18-.85,6.35-1.69,9.57-2.35,2.27-.47,4.61-.63,6.92-.93.54-.07,1.08-.16,1.63-.18a2.82,2.82,0,0,1,3,1.62c.36,1-.16,2.21-1.55,3a15.57,15.57,0,0,1-4.41,2.12c-2.6.57-3.64,2.22-4,4.57-.47,3.25-1,6.51-1.27,9.78-.32,3.54-.56,7.1-.55,10.65,0,3.28.39,6.55.61,9.83.05.81.2,1.63.17,2.44a2.08,2.08,0,0,1-1.84,1.9,1.9,1.9,0,0,1-2.25-1.29,41.87,41.87,0,0,1-2.25-14.93c.12-5.9.77-11.75,1.4-17.61.06-.54.19-1.08.21-1.62.1-1.87-.73-2.83-2.66-2.84a23.79,23.79,0,0,0-3.65.45C670.5,503.62,669.59,503.83,668.08,504.12Z"/><path d="M704.17,508.61a41.3,41.3,0,0,1,4.38,5.19,12.43,12.43,0,0,1,1.47,5,50.69,50.69,0,0,1,.19,8.17A13.8,13.8,0,0,1,700,539.49c-4.58,1.27-7.52,0-9.55-5.15-1.51-3.79-1.2-7.81-.2-11.69a26.75,26.75,0,0,1,2.32-5.66A15.14,15.14,0,0,1,704.17,508.61Zm1,13.55a27.41,27.41,0,0,0-.55-4.11,7.27,7.27,0,0,0-1.69-2.7,1.75,1.75,0,0,0-2.57-.16,11.32,11.32,0,0,0-1.7,1.76,24.21,24.21,0,0,0-4.28,9.23,10.53,10.53,0,0,0,1.13,7.55c1,1.92,2.62,2.28,4.43,1a14.22,14.22,0,0,0,2.37-2.22C704.78,529.79,705,526.35,705.16,522.16Z"/><path d="M1123.65,595.7c.73-3,1.48-6,2.2-9.07.62-2.66,1.24-5.32,1.8-8a6.28,6.28,0,0,1,1.85-3.57,2.12,2.12,0,0,1,3.38.84,7.5,7.5,0,0,1,.1,4.82c-1,3.28-1.86,6.58-2.77,9.87a25,25,0,0,0-1.17,8.5,3.19,3.19,0,0,1-1.81,3.36c-1,.51-1.77,1.26-2.7,1.81a16.72,16.72,0,0,1-2.88,1.49,1.92,1.92,0,0,1-2.73-1.06,24,24,0,0,1-1.56-5.05c-.46-2.83-.63-5.71-1-8.56q-.69-5.9-1.44-11.8a5,5,0,0,1,.66-3.91c1.26-1.65,3.17-1.58,3.85.32a34.6,34.6,0,0,1,1.66,6.32c.57,3.65.88,7.33,1.33,11,.11.92.31,1.83.48,2.74Z"/><path d="M916.52,671.19c-1.3,1.73-2.54,2.08-3.75,1.79a8,8,0,0,1-2.8-1.52,22.5,22.5,0,0,1-2.33-2.41c-.93.64-1.73,1.12-2.46,1.69a14.34,14.34,0,0,1-6.7,2.87c-2.94.46-4.76-.77-5.38-3.65a6.91,6.91,0,0,1-.1-2.44,37.76,37.76,0,0,1,4.28-13.58,25.73,25.73,0,0,1,6-6.69,5.42,5.42,0,0,1,4.23-1.13,2.72,2.72,0,0,1,1.51.53c2.5,2.45,4.52,5.13,3.94,9-.26,1.75-.43,3.52-.61,5.28C911.92,665,911.9,668.94,916.52,671.19Zm-9.8-19.74a8.08,8.08,0,0,0-3.59,3.65,29.49,29.49,0,0,0-4.59,11.34c-.16,1-.47,2.18.55,3.22,1.62.27,2.79-.81,3.79-1.86,2.39-2.51,4.33-5.31,4.78-8.89C908,656.48,908.48,654,906.72,651.45Z"/><path d="M902.3,580.5c1.69-.3,2.86-.55,4.05-.72a2.12,2.12,0,0,1,2.33,1.29,1.86,1.86,0,0,1-.72,2.5,19.14,19.14,0,0,1-2.86,1.6c-3.05,1.36-4.14,3.76-3.91,7,.36,5.17.4,10.38,2.34,15-.31,1.45-1.28,1.68-2.22,1.88-1.82.4-2.55,0-3.22-1.62a35.35,35.35,0,0,1-2.3-9.55c-.35-3.26-.72-6.53-.86-9.81a43.62,43.62,0,0,1,.45-5.69,50.51,50.51,0,0,0,.51-6.11A33.73,33.73,0,0,1,898,562.62c.69-1.78,1.59-2.63,2.82-2.52,1.44.12,2.19,1.53,2.06,3.46-.29,4.36-.52,8.74-.73,13.11C902.13,577.74,902.24,578.82,902.3,580.5Z"/><path d="M1152.88,530.43a20.18,20.18,0,0,1-4.59,12.08c-2.59,3.23-6.19,3.8-10,3.73a3.25,3.25,0,0,1-2-1.23c-2.31-2.66-2.72-5.91-2.57-9.26a22.28,22.28,0,0,1,3-9.75,63.19,63.19,0,0,1,7.13-10,6.66,6.66,0,0,1,1.59-1.29c2.69-1.69,3.57-1.19,4.81,1.68,1.72,4,1.91,8.23,2.51,12.41C1152.87,529.33,1152.85,529.88,1152.88,530.43Zm-5.89-8.31c-1.89.58-2.62,2.16-3.57,3.41a22.27,22.27,0,0,0-4.39,11.31c-.21,1.94-.1,3.86,1.93,4.95,2.58-1,3.66-1.66,4.71-3.63a20.93,20.93,0,0,0,2.2-14.67A5.48,5.48,0,0,0,1147,522.12Z"/><path d="M947.65,593.09a15.47,15.47,0,0,0,.11,1.79c1.34,7.34-6.86,13.38-14,11.73a6.8,6.8,0,0,1-5.34-5.17c-.1-.4-.17-.81-.23-1.21a21.77,21.77,0,0,1,3.17-14.51,30.81,30.81,0,0,1,7-8,4.35,4.35,0,0,1,6.53.45,7.58,7.58,0,0,1,1.79,3.63C947.53,585.6,948.21,589.37,947.65,593.09ZM941.31,583c-5.08,3.2-8.43,9.82-7.83,15.35a8.38,8.38,0,0,0,.61,2.36,3,3,0,0,0,4.4,1.52,7.63,7.63,0,0,0,3.81-4.11,20.52,20.52,0,0,0-.18-14.4C942,583.52,941.73,583.39,941.31,583Z"/><path d="M1057.81,535.44a4.69,4.69,0,0,0,3.77,4.28,40.87,40.87,0,0,0,5.7.71c-.42.6-.58,1-.87,1.19a11.45,11.45,0,0,1-7.51,1.4,6.08,6.08,0,0,1-4.84-2.74c-1.5-2.54-2.87-5.1-2.44-8.4a54.29,54.29,0,0,1,2.74-12.77,20.4,20.4,0,0,1,5.3-7.19c1.67-1.62,4.73-1.37,6.75.43a10.12,10.12,0,0,1,3.52,6.31c.19,1.36.23,2.74.52,4.07a6.76,6.76,0,0,1-2.23,6.66,19.85,19.85,0,0,1-7.84,5.08C1059.61,534.71,1058.87,535,1057.81,535.44Zm8.61-12.87a11.19,11.19,0,0,0-1.44-5.71,1.46,1.46,0,0,0-2.41-.36c-3.47,3.5-4.72,7.87-4.83,12.66,0,.82.88,1.28,1.85,1,3.15-.84,5-3.12,6.48-5.84A5.65,5.65,0,0,0,1066.42,522.57Z"/><path d="M738.28,600.47c-1-1.06-.61-2.29-.36-3.47a29,29,0,0,0,.41-9.82,35.44,35.44,0,0,0-1.51-5.94A1.6,1.6,0,0,0,735,580a3.16,3.16,0,0,0-1.82,1.41,10.17,10.17,0,0,0-.77,3.16c-.55,4.49-1.09,9-1.52,13.48a3.74,3.74,0,0,1-2.26,3.16,2,2,0,0,1-2.82-.83,7,7,0,0,1-.65-2.73c-.05-2.47,0-4.94.13-7.4q.19-6,.45-11.91a16.71,16.71,0,0,1,.28-2.45c.36-1.76,1-2.19,2.91-1.63.84.25,1.6.5,2.32,0a4.06,4.06,0,0,1,3.86-.64c1.75.47,3.39,1,4.6,2.47a10.69,10.69,0,0,1,2.5,5.1c.63,4.06,1.43,8.09.29,12.22a34,34,0,0,0-.31,4.08,6.22,6.22,0,0,1-.87,2.23C740.88,600.27,740.57,600.26,738.28,600.47Z"/><path d="M799.52,578.48c-2.77,2.07-3.27,4.89-3.46,7.79s-.24,5.74-.34,8.62a5.21,5.21,0,0,1-2.15,4.23c-1.25,1-2.38.75-3-.7a7.51,7.51,0,0,1-.6-2.75c.06-5.07.21-10.14.34-15.2,0-.82.11-1.64.17-2.46.14-1.85.86-3.16,3-3.23a4.14,4.14,0,0,0,2.82-1.48,34.25,34.25,0,0,1,3.09-2.43c4.72,1.82,7.1,5.13,7.33,9.77.27,5.47.51,11-.91,16.35a31.8,31.8,0,0,0-.48,3.25,1.54,1.54,0,0,1-1.68,1.44,1.69,1.69,0,0,1-1.85-1.3,7.64,7.64,0,0,1,0-2.82c1.05-5,.7-10.09,0-15.13C801.58,580.94,801.31,579.43,799.52,578.48Z"/><path d="M842.91,643.31c2.46,2.8,3.11,5.21,1.41,8.23-2.48,4.42-6.31,7.09-10.76,9.09-.62.28-1.31.41-1.95.65a3,3,0,0,0-1.86,2.51,1.88,1.88,0,0,0,.89,2.12c2.09,1.11,4.28,1.93,6.7,1.1,2.2-.76,4.38-1.56,6.58-2.32a11.42,11.42,0,0,1,2.34-.63c.27,0,.67.37.89.66s0,.51,0,.77a.55.55,0,0,1-.23.32c-5.46,4.27-11.47,6.37-18.39,4.36-3.37-1-4.38-2.72-4-6.16a20.42,20.42,0,0,1,3.88-9.41,27.89,27.89,0,0,1,7.8-7.81C838.24,645.5,840.5,644.54,842.91,643.31Zm-6.66,10.22a3,3,0,0,0,2.46-2.53A2.76,2.76,0,0,0,836.25,653.53Z"/><path d="M710.17,576.57c-.18-.93-.39-1.72-.47-2.52a1.41,1.41,0,0,1,2.19-1.4,3.12,3.12,0,0,1,1,.65c1.94,2.41,4.31,4.41,5.25,7.64,1.42,4.9,1.8,9.63,0,14.5a10.88,10.88,0,0,1-6.74,6.7c-1.27.48-2.6.78-3.92,1.18a6.36,6.36,0,0,1-2.69-5.8c.09-2.73.36-5.46.63-8.19.14-1.36.49-2.7.67-4.05C706.59,582,707.45,578.83,710.17,576.57Zm-.11,20.3c2.61-1.36,2.91-3.34,3.45-5.09a12.46,12.46,0,0,0,.15-8.39c-.2-.53-.77-.91-1.52-1.76a88.35,88.35,0,0,0-2.32,11.57A23.42,23.42,0,0,0,710.06,596.87Z"/><path d="M732.41,652.94c-.09,7-4,11.75-9.25,15.64a9.66,9.66,0,0,1-5.86,1.6,4.45,4.45,0,0,1-4.83-4.48,20.61,20.61,0,0,1,.22-3.68,40.68,40.68,0,0,1,6.37-17.16,5,5,0,0,1,.75-1c3.58-3.29,4.85-3.06,7.91,0,.94,1,1.43,2.31,3,2.68a2.18,2.18,0,0,1,1.14,1.51C732.14,649.67,732.23,651.31,732.41,652.94Zm-5-1.18c-.09-.61-.19-1.83-.45-3a2.66,2.66,0,0,0-2.11-2.24,2.45,2.45,0,0,0-2.66,1.45c-.21.35-.43.7-.61,1.06-2.29,4.42-3.32,9.2-4.17,14a5.52,5.52,0,0,0,0,1.22,1.76,1.76,0,0,0,1.95,1.63,5.54,5.54,0,0,0,3.43-2C725.73,660.62,727.18,656.76,727.39,651.76Z"/><path d="M1100,537.73c1,1,.48,2.33.71,3.5.47,2.43,1.94,3.64,4.35,3.3,3.51-.5,4.34-2.41,3.27-5.15-1.13-2.93-2.57-5.75-3.95-8.57a13.25,13.25,0,0,1-1.66-6.3,7.4,7.4,0,0,1,1.8-4.91c2.82-3.09,6-5.62,10.19-6.63a12.56,12.56,0,0,1,3.24-.32,2.55,2.55,0,0,1,2.35,2,1.3,1.3,0,0,1-.7,1.71,1.82,1.82,0,0,1-.77.27c-3.63.09-5.89,2.69-8.49,4.64a4.36,4.36,0,0,0-1.67,4.41,20.86,20.86,0,0,0,1.44,4.67c1.08,2.52,2.26,5,3.57,7.4a6.55,6.55,0,0,1-4.24,9.72,31.36,31.36,0,0,1-5.23,1,5.81,5.81,0,0,1-6.22-5.24,20.31,20.31,0,0,1,.47-4.44,1.89,1.89,0,0,1,.75-.93C1099.41,537.71,1099.74,537.77,1100,537.73Z"/><path d="M1001,644.16a4.08,4.08,0,0,1,4.07,2,2.31,2.31,0,0,1-.07,2.69,2.17,2.17,0,0,1-2.48,1c-1.29-.34-2.58-1.21-3.89-.19-1.79,1.39-3.19,3.16-3.23,5.48a18.26,18.26,0,0,0,.68,6.05,21.54,21.54,0,0,0,6.95,10.43,11.9,11.9,0,0,1,.94.79c1.78,1.64,2.12,4.38-.9,5.5-1.41.52-2.8,1.11-4.22,1.6-4.18,1.43-7.77.17-11.05-2.46-.21-.17-.48-.4-.51-.62a5.27,5.27,0,0,1,0-1.94,1.32,1.32,0,0,1,1.66-.84c1.06.24,2.07.74,3.13.91a27.56,27.56,0,0,0,4.44.32,1.18,1.18,0,0,0,.8-1.88c-.64-.88-1.39-1.68-2.07-2.54a21.63,21.63,0,0,1-5-14.37,12.22,12.22,0,0,1,4.51-9.26c.61-.54,1.32-1,2-1.49A5.56,5.56,0,0,1,1001,644.16Z"/><path d="M1031.47,670.09c-.42.74-.57,1.31-.94,1.61a17.21,17.21,0,0,1-13.83,3.78c-3.09-.47-4.45-2.06-4.81-5.25a20,20,0,0,1,.5-6.94c.46-2,.4-2-1.22-3.82.06-.12.08-.31.17-.36,3.28-1.56,5.73-4.07,8.14-6.72a17.36,17.36,0,0,1,8.57-5.42,4.05,4.05,0,0,1,3.18.19,4.17,4.17,0,0,1,.62,6.9,9.43,9.43,0,0,1-2.77,1.71c-2.16.88-4.37,1.61-6.57,2.38a5.68,5.68,0,0,0-3.35,2.2,14.82,14.82,0,0,0-2.18,8.22c0,1.65.82,2.43,2.49,2.81a16.05,16.05,0,0,0,7.32-.41C1028.21,670.63,1029.57,669.94,1031.47,670.09Z"/><path d="M1015.93,600.63a6.23,6.23,0,0,1-4.46,2.86,79.21,79.21,0,0,1-8.53,1,9.86,9.86,0,0,1-9.55-6.39,11.31,11.31,0,0,1,.51-8,36.88,36.88,0,0,1,4-6.62,11.44,11.44,0,0,1,6.43-4.14,5.41,5.41,0,0,1,5.9,8.59,20.08,20.08,0,0,1-7,5.57c-1,.48-2,.85-3,1.38a2.08,2.08,0,0,0-.74,3.14,6.79,6.79,0,0,0,4.67,3c2.83.53,5.67.9,8.51,0A18.54,18.54,0,0,1,1015.93,600.63Zm-14.32-12.12a8.17,8.17,0,0,0,4.57-3c.2-.28.33-.9.17-1.09-.29-.36-.89-.78-1.26-.7a5,5,0,0,0-4,4C1001.07,587.9,1001.38,588.16,1001.61,588.51Z"/><path d="M1187,597.13c-1.55-2.29-2.78-4.41-4.3-6.3a6.14,6.14,0,0,1-1.05-5.42c.81-4.27,3.37-7.42,6.79-9.89a31.42,31.42,0,0,1,4.66-2.57,8.88,8.88,0,0,1,5.18-.86,2.53,2.53,0,0,1,1.84,4,36.63,36.63,0,0,1-2.64,3c-1.13-.33-2.37-1.12-3-.79-1.8.88-3.84,1.53-5.11,3.29a6.92,6.92,0,0,0,0,8.72c.86,1.06,1.9,2,2.8,3,2.12,2.44,2,4.12-.22,6.34-2.48,2.51-5.8,3.52-8.79,5.11a26.59,26.59,0,0,1-5,1.82,2.92,2.92,0,0,1-2-.08A2.26,2.26,0,0,1,1175,605a2.44,2.44,0,0,1,.94-1.61,3.17,3.17,0,0,1,1.55-.44c3.23-.53,5.74-2.47,8.29-4.3A9.15,9.15,0,0,0,1187,597.13Z"/><path d="M1155,599.19a16.3,16.3,0,0,1-11.4,6c-3.71.3-7.08-.82-7.35-6.25a6.44,6.44,0,0,0-1.85-4.08c2.13-1.88,3.15-4.21,4.15-6.63,1.58-3.84,3.85-7.25,7.69-9.33a6.39,6.39,0,0,1,9,3.48,2.81,2.81,0,0,1-.5,3.08,35.87,35.87,0,0,1-4.6,4c-2,1.39-4.26,2.48-6.41,3.68a3.28,3.28,0,0,0-2,2.83c-.07,1.65-.3,3.37.93,4.69a4,4,0,0,0,2.17,1,9.54,9.54,0,0,0,6-1.08A10.18,10.18,0,0,1,1155,599.19Zm-10-11.79c2.51-.09,3.39-1.77,4.58-3a.83.83,0,0,0-.1-1.38c-.43-.24-1.18-.43-1.49-.22A5.94,5.94,0,0,0,1145,587.4Z"/><path d="M930.6,537.65c1.14.9,2.06,1.68,3,2.38a4.44,4.44,0,0,0,3.87.83,1.44,1.44,0,0,0,.94-2.22c-1.42-1.84-2.85-3.67-4.4-5.4a8.82,8.82,0,0,1-2.06-4.81,6.9,6.9,0,0,1,2.32-6.65c2.6-2.2,5.31-4.28,8.1-6.23a7.69,7.69,0,0,1,3.46-1.08c2-.22,2.77.66,3,3.47-3.59,1-6.33,3.46-9,5.92-2.24,2-2.45,3.5-.93,6.15.68,1.17,1.68,2.15,2.43,3.28a60,60,0,0,1,3.41,5.56,3.57,3.57,0,0,1-.81,4.16c-3,3.36-9.14,4-12.76,1.34a4.6,4.6,0,0,1-1.84-5.05C929.43,538.75,930.07,538.31,930.6,537.65Z"/><path d="M1030.15,540.3c.09-1.86-.88-3.08-1.75-4.26-3.4-4.6-2.89-9.24-.08-13.77a21.34,21.34,0,0,1,9.47-8.2,7.1,7.1,0,0,1,1.55-.53,4.08,4.08,0,0,1,5,4.72,1.58,1.58,0,0,1-2,1.4c-.53-.11-1-.35-1.56-.5s-.79-.18-1.38-.3c-1.93,1.3-4,2.53-5.5,4.58a8.55,8.55,0,0,0-1,9.27c.58,1.22,1.38,2.34,2.07,3.52.95,1.65,2,3.25,2.81,5a2.23,2.23,0,0,1-1.37,3.32,18.57,18.57,0,0,1-13.6-.23c-.66-.26-1.12-1.13-1.55-1.79a1.18,1.18,0,0,1,.77-1.61,14.07,14.07,0,0,1,2.43,0c1.36.06,2.73.26,4.08.22C1029.05,541.05,1029.62,540.55,1030.15,540.3Z"/><path d="M1080.37,544.32a8,8,0,0,1-4.41-1.23c-.38-.28-.83-1-.71-1.31a2.56,2.56,0,0,1,1.27-1.38,7.84,7.84,0,0,1,2-.09,21.77,21.77,0,0,0,3.24-.44,1.53,1.53,0,0,0,.93-2.54,21.62,21.62,0,0,0-2-2.07c-1-1-2.06-1.82-3-2.82a7.46,7.46,0,0,1-1-9.1,14.18,14.18,0,0,1,2.23-2.93,46.31,46.31,0,0,1,8.92-7.23,9.52,9.52,0,0,1,2.24-1,2.13,2.13,0,0,1,2.54.79,2.49,2.49,0,0,1-.36,3.36,18.53,18.53,0,0,1-2.39,1.56,32.26,32.26,0,0,0-7.9,6.51c-1.53,1.83-1.28,3.37.07,4.7s3.08,2.72,4.52,4.19a22.21,22.21,0,0,1,3.4,4.06c1.23,2.09.63,3.59-1.5,4.74A18.33,18.33,0,0,1,1080.37,544.32Z"/><path d="M854.28,520.64v-4.39a1.94,1.94,0,0,0-2.76,0c-4.15,3.39-6.16,9.94-4.08,14.39.69,1.48,1.25,3,1.85,4.55a11.3,11.3,0,0,1,.69,1.92,3.22,3.22,0,0,1-3.27,4.15,36.42,36.42,0,0,1-6.48-.86c-1.61-.32-2.4-1.68-2.94-3.13a1.27,1.27,0,0,1,1.3-1.62c.93.15,1.84.47,2.78.63a1.21,1.21,0,0,0,1.41-1.49c-.21-.79-.59-1.54-.76-2.33a40.07,40.07,0,0,1-1-5.6,12.47,12.47,0,0,1,2.91-9.11c2.09-2.54,3.91-5.28,7-6.68a9.83,9.83,0,0,1,1.88-.78c3.19-.7,5,.75,5.1,4C858,516.87,857.5,519.16,854.28,520.64Z"/><path d="M1084.72,581.53c1.26-.67,2.2-1.2,3.17-1.68,2.94-1.44,5.87-1,8.73.2a6.51,6.51,0,0,1,1.94,1.47c.58.56,1.17,1.27.76,2.15s-1.3.58-2.11.48a46.45,46.45,0,0,0-4.86-.31,3.19,3.19,0,0,0-3.42,2.89,56.57,56.57,0,0,0-.61,6.09c-.19,3.27-.19,6.55-.47,9.81-.17,1.89-1.08,2.6-2.91,2.89a2,2,0,0,1-2.32-1.23,9.56,9.56,0,0,1-.49-2c-.81-5.67-1.63-11.35-2.36-17a11.53,11.53,0,0,1,.13-3.66c.32-1.75,1.86-2.28,3.41-1.29A15,15,0,0,1,1084.72,581.53Z"/><path d="M1174.43,580.33c-.32.3-.41.46-.53.48-4.59.84-4.82,1-5.69,5.51-.75,3.89-1.26,7.84-1.9,11.75-.22,1.35-.47,2.69-.73,4a5.46,5.46,0,0,1-3.64,4.3,2.58,2.58,0,0,1-2.1-2.5,22.44,22.44,0,0,1,0-2.46,96.46,96.46,0,0,1,1.19-14.3,39.54,39.54,0,0,0,.29-4.5,27.21,27.21,0,0,1,.22-3.27c.44-2.36,1.72-3.26,4.32-3.28.67,0,1.35-.15,2-.15a8.14,8.14,0,0,1,6.18,2.76C1174.39,579.09,1174.33,579.88,1174.43,580.33Z"/><path d="M1022.18,585.55c2.34-2.08,4.51-3.48,7.13-3.94a19.9,19.9,0,0,1,4.07-.38,4.8,4.8,0,0,1,2.17.92,1.11,1.11,0,0,1-.11,1.75,20.69,20.69,0,0,1-3,1.28c-4.41,1.42-6.56,4.6-7.29,9a29.65,29.65,0,0,0,0,7.76,2.72,2.72,0,0,1-2.39,3.25,2.25,2.25,0,0,1-2.91-1.56c-.39-1.3-.67-2.65-1-4-.79-3.74-1.59-7.48-2.31-11.24a14,14,0,0,1-.24-3.65,4.94,4.94,0,0,1,.88-2.23c.94-1.43,2.3-1.36,3.28.11C1021,583.43,1021.46,584.28,1022.18,585.55Z"/><path d="M1121.39,542.59c0-7.18,2.24-14,3.15-21a11.21,11.21,0,0,1,1.17-3.47,2.34,2.34,0,0,1,4.57,1,12.62,12.62,0,0,1-.08,2c-.18,1.35-.38,2.71-.66,4a157.4,157.4,0,0,0-2.81,21.08,13.35,13.35,0,0,1-.28,2.84,4.23,4.23,0,0,1-1.24,2c-1.78,1.41-3.63.67-3.79-1.58S1121.39,544.9,1121.39,542.59Z"/><path d="M776.69,587.94c.12-2.45.16-4.91.38-7.35a27.47,27.47,0,0,1,.81-4.4,4.59,4.59,0,0,1,1.06-1.69,1.5,1.5,0,0,1,2.18,0,6.05,6.05,0,0,1,1.69,3.64,22.35,22.35,0,0,1,.07,2.45c-.24,5.31-.51,10.62-.75,15.93a3.44,3.44,0,0,1-1.58,3.12,2.31,2.31,0,0,1-3.64-1.16,10.3,10.3,0,0,1-.37-2.82c0-2.58,0-5.17,0-7.76Z"/><path d="M1248,529.87q-.29,5.11-.58,10.23a2.77,2.77,0,0,1-2.1,2.71c-2,.63-3.21-.08-3.29-2.24s0-4.38.09-6.56c.09-2.73.36-5.47.31-8.19,0-2.41,1-4.52,1.43-6.78a1.79,1.79,0,0,1,.42-.69,1.86,1.86,0,0,1,2.13-.82,2.51,2.51,0,0,1,1.39,1.32,12.06,12.06,0,0,1,.39,3.23c0,2.59,0,5.19,0,7.79Z"/><path d="M828.18,525.86c-.39,3.8-.76,7.6-1.16,11.4-.19,1.75-.39,3.51-.66,5.26a2.72,2.72,0,0,1-1.93,2.4c-1.68.54-2.81-.13-2.71-1.86q.33-5.71.85-11.41c.28-3.24,1-6.45-.16-9.7-.52-1.42.37-2.63,1.51-3.54a1.68,1.68,0,0,1,2.24.2c1,1.28,2.06,2.55,1.9,4.37-.08.95,0,1.91,0,2.87Z"/><path d="M1106.57,601.57c-1.33.67-2.54,1.29-4,.75-.88-2.05-.72-4.26-.68-6.41.05-3.13.2-6.27.51-9.39a26.21,26.21,0,0,1,1.18-5.14,4.92,4.92,0,0,1,1.37-2,1.91,1.91,0,0,1,3.13,1.15,11.78,11.78,0,0,1,.08,2.45q-.55,8.76-1.16,17.52A5,5,0,0,1,1106.57,601.57Z"/><path d="M916.94,518.68a17.22,17.22,0,0,1,1-6.44c.56-1.68,1-3.41,1.43-5.13a7.74,7.74,0,0,1,2.51-4.13,2.31,2.31,0,0,1,1.83-.41,2.46,2.46,0,0,1,1.25,1.44,4,4,0,0,1,0,2,39,39,0,0,1-2.3,8.67c-1,2.33-1.43,5-2.18,7.45a9.81,9.81,0,0,1-1.2,2.56c-.14.21-1.07.16-1.38-.09a2.26,2.26,0,0,1-.64-1.44C917.09,521.68,917,520.18,916.94,518.68Z"/><path d="M972.46,661.75a30.43,30.43,0,0,1-3.27-.3,1.79,1.79,0,0,1-1.54-1.69,1.77,1.77,0,0,1,1.2-1.93,18.45,18.45,0,0,1,2.76-.76c2.81-.54,5.64-1,8.47-1.5a3.65,3.65,0,0,1,2,.12,2.6,2.6,0,0,1,1.22,1.44,1.61,1.61,0,0,1-.55,1.39c-1.63,1.22-3.26,2.49-5.43,2.67C975.83,661.31,974.34,661.53,972.46,661.75Z"/><path d="M830.48,509.76c0,1.46-.44,2.26-1.36,2.74-.74.39-1.52.7-2.25,0a2,2,0,0,1-.39-2.25,4.46,4.46,0,0,1,.82-1.37c.54-.63,1.28-1.27,2.08-.71A4.75,4.75,0,0,1,830.48,509.76Z"/><path d="M782.75,579.27a2.14,2.14,0,0,1-1.46,2.17,2.72,2.72,0,0,1-1.87.3c-.88-.31-.87-1.27-.82-2.08a2.22,2.22,0,0,1,2.17-2,3.53,3.53,0,0,1,1.67.86C782.62,578.66,782.65,579,782.75,579.27Z"/><path d="M1108,585a2.24,2.24,0,0,1-2-2.18,2.18,2.18,0,0,1,2.41-2.15c1,.13,1.54,1.19,1.42,2.57A1.8,1.8,0,0,1,1108,585Z"/><path d="M1129.68,507.27a5.67,5.67,0,0,1,1.33,1.41c.33.67-.23,1.23-.83,1.59a1.52,1.52,0,0,1-.36.18c-.77.26-1.6.53-2.2-.2a1.92,1.92,0,0,1-.32-1.42C1127.52,507.8,1128.29,507.32,1129.68,507.27Z"/><path d="M1248.5,500.86A18.42,18.42,0,0,1,1247,503a1.17,1.17,0,0,1-1.11.09,1.32,1.32,0,0,1-.43-1c0-.86.38-1.66,1.36-1.77C1247.27,500.28,1247.73,500.6,1248.5,500.86Z"/><path d="M902.63,526.82a15.09,15.09,0,0,1-1,3.21,24.55,24.55,0,0,1-8.86,8.9,12.82,12.82,0,0,1-4.22,1.46c-2.6.51-3.61-.7-2.92-3.2a20,20,0,0,1,3.72-6.78,31.22,31.22,0,0,1,7.51-6.9,7.41,7.41,0,0,1,1.8-1,2.66,2.66,0,0,1,3.49,1.93C902.36,525.14,902.44,525.83,902.63,526.82Z" style="fill:#fff"/><path d="M830.63,580.14c1.53,4.82-1.36,9.38-6.89,10.76-1-1.44.1-2.59.67-3.72C826.5,583,828.27,581.08,830.63,580.14Z" style="fill:#fff"/><path d="M1002.18,540.61c-1.56.06-2.46-.78-2.24-1.82a6.19,6.19,0,0,1,1.17-3,79.42,79.42,0,0,1,6.58-6.13c1.27-1.07,2.65-.55,3.31.95.79,1.79.79,3.42-.82,4.82-1.13,1-2.15,2.11-3.31,3.06A8.94,8.94,0,0,1,1002.18,540.61Z" style="fill:#fff"/><path d="M1058.49,600.38a6.09,6.09,0,0,1-.2-1.82A26.82,26.82,0,0,1,1066,584a4.27,4.27,0,0,1,1-.67c.56-.31,1.59.08,1.65.73a15.42,15.42,0,0,1,.18,4.43c-1,5-4.06,8.79-8.15,11.76a2.62,2.62,0,0,1-1.16.34A3.75,3.75,0,0,1,1058.49,600.38Z" style="fill:#fff"/><path d="M879.36,582.93c2.46,3.59,1.5,6.79-.21,9.86-1.41,2.55-3.41,4.45-6.61,4.85-.58-1.6,0-2.83.49-4.1C875.54,587.36,876.73,585.28,879.36,582.93Z" style="fill:#fff"/><path d="M876.16,669.48c-1.73-.05-3.16,0-3.91-1.49s.06-2.61,1.08-3.62c1.93-1.93,3.81-3.91,5.8-5.77a1.89,1.89,0,0,1,2.9.22c3,3.67,2.22,6.24-.63,8.49C879.78,668.58,878.06,669.76,876.16,669.48Z" style="fill:#fff"/><path d="M983.32,520.57a6.85,6.85,0,0,1,.8,1.77c.8,6.73-1.15,12.4-6.58,16.69-1.15.9-1.13.93-3.41.67a7.29,7.29,0,0,1-.34-4.78,27.68,27.68,0,0,1,4.88-12A4.88,4.88,0,0,1,983.32,520.57Z" style="fill:#fff"/><path d="M1042.78,670.87c-.92-1.56-.59-3.19-.19-4.76,1-4,3.38-7.14,5.89-10.23a4.27,4.27,0,0,1,1.33-.94,2.16,2.16,0,0,1,2.82.95,5.26,5.26,0,0,1,.42,4,21.58,21.58,0,0,1-6.84,10A3.46,3.46,0,0,1,1042.78,670.87Z" style="fill:#fff"/><path d="M705.16,522.16c-.19,4.19-.38,7.63-2.86,10.37a14.22,14.22,0,0,1-2.37,2.22c-1.81,1.26-3.45.9-4.43-1a10.53,10.53,0,0,1-1.13-7.55,24.21,24.21,0,0,1,4.28-9.23,11.32,11.32,0,0,1,1.7-1.76,1.75,1.75,0,0,1,2.57.16,7.27,7.27,0,0,1,1.69,2.7A27.41,27.41,0,0,1,705.16,522.16Z" style="fill:#fff"/><path d="M906.72,651.45c1.76,2.59,1.24,5,.94,7.46-.45,3.58-2.39,6.38-4.78,8.89-1,1.05-2.17,2.13-3.79,1.86-1-1-.71-2.17-.55-3.22a29.49,29.49,0,0,1,4.59-11.34A8.08,8.08,0,0,1,906.72,651.45Z" style="fill:#fff"/><path d="M1147,522.12a5.48,5.48,0,0,1,.88,1.37,20.93,20.93,0,0,1-2.2,14.67c-1.05,2-2.13,2.66-4.71,3.63-2-1.09-2.14-3-1.93-4.95a22.27,22.27,0,0,1,4.39-11.31C1144.37,524.28,1145.1,522.7,1147,522.12Z" style="fill:#fff"/><path d="M941.31,583c.42.37.73.5.81.72a20.52,20.52,0,0,1,.18,14.4,7.63,7.63,0,0,1-3.81,4.11,3,3,0,0,1-4.4-1.52,8.38,8.38,0,0,1-.61-2.36C932.88,592.84,936.23,586.22,941.31,583Z" style="fill:#fff"/><path d="M1066.42,522.57a5.65,5.65,0,0,1-.35,1.77c-1.44,2.72-3.33,5-6.48,5.84-1,.26-1.87-.2-1.85-1,.11-4.79,1.36-9.16,4.83-12.66a1.46,1.46,0,0,1,2.41.36A11.19,11.19,0,0,1,1066.42,522.57Z" style="fill:#fff"/><path d="M836.25,653.53a2.76,2.76,0,0,1,2.46-2.53A3,3,0,0,1,836.25,653.53Z" style="fill:#fff"/><path d="M710.06,596.87a23.42,23.42,0,0,1-.24-3.67,88.35,88.35,0,0,1,2.32-11.57c.75.85,1.32,1.23,1.52,1.76a12.46,12.46,0,0,1-.15,8.39C713,593.53,712.67,595.51,710.06,596.87Z" style="fill:#fff"/><path d="M727.39,651.76c-.21,5-1.66,8.86-4.66,12.11a5.54,5.54,0,0,1-3.43,2,1.76,1.76,0,0,1-1.95-1.63,5.52,5.52,0,0,1,0-1.22c.85-4.84,1.88-9.62,4.17-14,.18-.36.4-.71.61-1.06a2.45,2.45,0,0,1,2.66-1.45,2.66,2.66,0,0,1,2.11,2.24C727.2,649.93,727.3,651.15,727.39,651.76Z" style="fill:#fff"/><path d="M1001.61,588.51c-.23-.35-.54-.61-.5-.78a5,5,0,0,1,4-4c.37-.08,1,.34,1.26.7.16.19,0,.81-.17,1.09A8.17,8.17,0,0,1,1001.61,588.51Z" style="fill:#fff"/><path d="M1145,587.4a5.94,5.94,0,0,1,3-4.56c.31-.21,1.06,0,1.49.22a.83.83,0,0,1,.1,1.38C1148.39,585.63,1147.51,587.31,1145,587.4Z" style="fill:#fff"/></g></svg>
