<svg xmlns="http://www.w3.org/2000/svg" viewBox="0 0 1366 768"><g id="Layer_15" data-name="Layer 15"><path d="M853.52,403.52c-2.13-3.58-1.31-7.55-1-11.26.15-1.95.45-4.08.62-6,.66-7.25,1.3-14.5.75-21.84-.38-5.19-.64-10.41-1.15-15.58a157.69,157.69,0,0,0-5.23-28.57A187.64,187.64,0,0,0,817.26,260a239.15,239.15,0,0,0-28-31.5,265.34,265.34,0,0,0-34.85-27.79C739.78,191,723.73,184.79,706.65,181c-7-1.55-13.93-3.34-20.91-4.94a199.44,199.44,0,0,0-23-4.1c-5-.54-9.48.81-14.17,1.43a23.73,23.73,0,0,1-5.76.15,132.05,132.05,0,0,0-25.46-.25c-6.73.55-13.44,1.17-20.15,2a140.7,140.7,0,0,0-37.2,9.63,183.88,183.88,0,0,0-48.27,29.72,275.24,275.24,0,0,0-32.17,32.16c-8.77,10.24-17,20.84-23.95,32.44a114,114,0,0,0-14.1,36c-1.33,6.67-2.36,13.43-3.54,20.13a236.05,236.05,0,0,1-5.63,23.79c-2.65,9.33-4.92,18.78-6.65,28.33-1,5.29-1.51,10.68-2.11,16.05a204.27,204.27,0,0,0-.8,26.17,136.61,136.61,0,0,0,1.78,18,131,131,0,0,0,6.34,25.42,101,101,0,0,0,16.53,29.53c8.16,10.07,17.88,18.61,26.93,27.8,6,6.12,10.95,13.07,16.26,19.74a105.52,105.52,0,0,0,25.69,23.28c13.61,8.73,28.44,14.59,43.93,18.94a171.32,171.32,0,0,0,22.57,4.7,162.24,162.24,0,0,0,18.47,1.64c4.15.11,8.33.58,12.48.33,6.4-.39,12.81-.58,19.21-1.3,5.13-.57,10.28-1.15,15.34-2.08,7.8-1.45,15.58-3.05,23.3-4.93,10.76-2.63,21.54-5.25,32.41-7.39,7.16-1.42,14.47-2.14,21.58-3.91,3-.75,5.81-2.6,9.12-2.18" style="fill:none;stroke:#000;stroke-linecap:round;stroke-linejoin:round;stroke-width:2px"/><path d="M835,423.2c-1.23-2.44-.68-4.89-.3-7.45.62-4.13.94-8.3,1.34-12.46.66-7.12,1.21-14.26,1.73-21.38.78-10.84,1.4-21.69.7-32.64-1.48-23-10.49-43-23.65-61.41C807.11,277,798.71,266.67,790,256.6a223.08,223.08,0,0,0-21.19-21.52C757.33,225,745.13,216,731.34,209.4c-12.74-6.09-25.48-12.23-38.87-16.82a92.32,92.32,0,0,0-21.34-4.93c-6.09-.58-12,.33-18,.5-5.59.15-11.27.79-16.8-.86-2.92-.87-5.82.12-8.63.55a214.52,214.52,0,0,0-40.07,10.29c-9.32,3.33-18.43,7.24-27.38,11.47-14.7,7-29,14.74-43,23.05A84.49,84.49,0,0,0,488,261.41c-6.85,11.13-14.07,22-20.13,33.62a158.9,158.9,0,0,0-14.39,38.89,250.27,250.27,0,0,0-4.59,27.36q-1.14,10.43-1.9,20.88c-.48,6.47-.72,13-.62,19.44a198.13,198.13,0,0,0,1.74,23c2.09,15.85,7.86,30.29,15.45,44.16,4.05,7.41,7.89,14.94,12,22.3,7.81,13.86,15.77,27.61,26.07,39.9,8.71,10.37,18.64,19.08,30.79,25.14,9.58,4.77,19.81,7.61,30.23,9.85,6.54,1.4,13.11,2.63,19.69,3.76,11.47,2,22.83,4.48,34.32,6.26,4.6.71,9.24,1.21,13.9,1.61,5.2.44,10.42.84,15.61.78a244.25,244.25,0,0,0,38.16-3.51,183.26,183.26,0,0,0,40.08-11.54,121.18,121.18,0,0,0,17.52-8.63,7.74,7.74,0,0,1,5.28-1.21" style="fill:none;stroke:#000;stroke-linecap:round;stroke-linejoin:round;stroke-width:2px"/><path d="M324.44,236.24a2.57,2.57,0,0,0,1.05,1.72,175.31,175.31,0,0,1,15.61,14.61A153.94,153.94,0,0,1,372.76,302c5.1,12.89,8.49,26.31,11.61,39.81a160.71,160.71,0,0,1,3.24,17.06,81,81,0,0,1-.64,24.47c-1.07,5.76-2,11.55-3.16,17.27-1.3,6.16-2.48,12.34-3.7,18.51-1.49,7.47-3.06,14.92-4.94,22.29A247.12,247.12,0,0,1,363.47,477c-4.74,11.16-11,21.51-17.11,31.89-2.15,3.61-3.66,7.54-5.93,11.08-1.83,2.85-4.09,5-7.47,5.74" style="fill:none;stroke:#000;stroke-linecap:round;stroke-linejoin:round;stroke-width:2px"/><path d="M336.44,264.56a4.94,4.94,0,0,0,1.07,2.4,182.48,182.48,0,0,1,19.92,44.16,207.84,207.84,0,0,1,7.18,35.52c1.46,12.12,1.33,24.33.86,36.47a194.66,194.66,0,0,1-3.13,25.47A241.57,241.57,0,0,1,350.5,452c-5.68,15.21-13.27,29.31-23.8,41.74-1,1.13-1.92,2.54-3.82,1.81" style="fill:none;stroke:#000;stroke-linecap:round;stroke-linejoin:round;stroke-width:2px"/><path d="M861.44,172.76c-5.94,2.93-12.06,5.58-16.8,10.44-3.39,3.47-4.67,7.79-5,12.48-.88,11.17,3.76,20.56,9.62,29.5,4,6.09,8.4,11.91,12,18.27A77,77,0,0,1,867.93,261c2.81,10.18,4.81,20.61,10,30,4.72,8.51,11.34,14.21,21.16,15.55,7.67,1.05,14.47-1.77,20.85-5.53,8.12-4.79,14.8-11.33,20.89-18.46.58-.69,1.51-1.44.86-2.62" style="fill:none;stroke:#000;stroke-linecap:round;stroke-linejoin:round;stroke-width:2px"/><path d="M610.64,301.52c-.27,1.84.13,3.09,2.14,3.89,7.47,3,8.9,9.5,9.11,16.51.16,5.36.23,10.73,0,16.08a45,45,0,0,1-2.1,12.48c-1.09,3.17-2.76,4.66-4.8,4.32-2.25-.37-4.44-3.32-4.57-6-.23-4.74.46-9.44.48-14.16a24.69,24.69,0,0,0-.25-3.84c-.6-4-2.64-5.48-6.7-5.31a9.54,9.54,0,0,1-4.08-.21" style="fill:none;stroke:#000;stroke-linecap:round;stroke-linejoin:round;stroke-width:2px"/><path d="M584,306.56c-4.2,0-8.43-.19-12.47,1.22-3.88,1.34-4.86,1.67-4.8,6.46.1,8.41-.15,16.81-.52,25.2-.24,5.53-.76,11-1.18,16.56a4,4,0,0,1-3.59,3.85c-2.45.49-3.55,1.95-3.36,4.31.13,1.7,1.55,2.47,3.83,2.93,6.63,1.34,13.14-.21,19.69-.57,2.43-.13,4.79.29,7.2.32a44.82,44.82,0,0,0,10.81-1.46c1.9-.44,2.72-1.55,2.36-3.37-.33-1.64-.88-3.13-3.09-3.16-2.68,0-3.71-1.26-4.09-4.05-.71-5.24.39-10.29,1.45-15.36.72-3.43,1-7,2.06-10.28,1.58-4.81,1-9.62,1.33-14.44a16.45,16.45,0,0,0-.6-4.06,4.28,4.28,0,0,0-4.47-3.35c-3.47.06-6.87-.65-10.32-.75" style="fill:none;stroke:#000;stroke-linecap:round;stroke-linejoin:round;stroke-width:2px"/><path d="M683.36,220.4a80.66,80.66,0,0,1,0,12.24,48.26,48.26,0,0,0,.21,6.24c.26,4.58-.29,9.14-.6,13.67-.44,6.55-1.09,13.15-3.25,19.45" style="fill:none;stroke:#000;stroke-linecap:round;stroke-linejoin:round;stroke-width:2px"/><path d="M502.16,434.72c-1.43,3.62.14,7.38-.44,11,0,.26.27.53,0,1-2.59,3.92-2.51,8.54-3.08,12.95-.48,3.73,1.75,6,5.46,6.5,7.05,1,14.08.17,21.12,0" style="fill:none;stroke:#000;stroke-linecap:round;stroke-linejoin:round;stroke-width:2px"/><path d="M507.68,396.08c-3.33,0-6.56-.89-9.85-1.13a86.58,86.58,0,0,0-12.47.17c-4.48.34-8.92,1.15-13.44,1" style="fill:none;stroke:#000;stroke-linecap:round;stroke-linejoin:round;stroke-width:2px"/><path d="M730.64,260.36c-4.72.43-9.43-.35-14.16-.15-3.21.14-4,.54-4,3.63s-.44,5.94.4,8.89c.42,1.44-.54,2.8-.51,4.31.15,5.52.06,11,.06,16.56" style="fill:none;stroke:#000;stroke-linecap:round;stroke-linejoin:round;stroke-width:2px"/><path d="M634.76,315.68c1.47,1.33,0,2.59-.18,3.83a73.38,73.38,0,0,0-.33,7.69c-.1,4.33-1.73,8.54-.67,13,.41,1.73.45,3.51,1.59,5.06,3.34-.21,5.64-2.51,8.09-4.39a117,117,0,0,0,11.28-10.31,5.31,5.31,0,0,0,.74-1.42" style="fill:none;stroke:#000;stroke-linecap:round;stroke-linejoin:round;stroke-width:2px"/><path d="M537.44,253.52c-.64,2.78,1.41,4.52,2.69,6.45,3.12,4.72,6.89,9,10.06,13.69a32,32,0,0,1,4.89,9.86" style="fill:none;stroke:#000;stroke-linecap:round;stroke-linejoin:round;stroke-width:2px"/><path d="M603,219.92c2.64,4.32,3.7,9.27,5.52,13.92a19.74,19.74,0,0,0,3.33,6,1.2,1.2,0,0,0,1.47.34" style="fill:none;stroke:#000;stroke-linecap:round;stroke-linejoin:round;stroke-width:2px"/><path d="M656.72,328.88a2.13,2.13,0,0,1-1.73-.67c-4.58-4.71-10.35-7.74-16.06-10.8a6,6,0,0,0-3.33-.53" style="fill:none;stroke:#000;stroke-linecap:round;stroke-linejoin:round;stroke-width:2px"/><path d="M520.16,450.56c-4.06-1.74-8.45-2.06-12.72-2.87a43,43,0,0,1-5.28-1.21" style="fill:none;stroke:#000;stroke-linecap:round;stroke-linejoin:round;stroke-width:2px"/><path d="M728.24,273.68a40.48,40.48,0,0,0-14.88-.48" style="fill:none;stroke:#000;stroke-linecap:round;stroke-linejoin:round;stroke-width:2px"/><path d="M505.76,326.24c-1.78-2.45-4.47-3.35-7.21-4.05-2-.51-4-1-6-1.71" style="fill:none;stroke:#000;stroke-linecap:round;stroke-linejoin:round;stroke-width:2px"/><path d="M585.92,317.84a36.55,36.55,0,0,1-8.16.48c-2.84,0-3.36.52-3.35,3.36,0,1.76-.49,3.68.29,5.25,1.21,2.41,3.53,3.34,6.18,3.38,1.52,0,3-.11,4.56,0a3.22,3.22,0,0,0,3.83-2.43,11.56,11.56,0,0,0-.25-8.15,2.8,2.8,0,0,0-2.86-1.93" style="fill:none;stroke:#000;stroke-linecap:round;stroke-linejoin:round;stroke-width:2px"/></g></svg>
