<svg xmlns="http://www.w3.org/2000/svg" viewBox="0 0 1366 768"><g id="Layer_15" data-name="Layer 15"><path d="M625.28,417.2c-7.38,0-14.73.62-22.08,1.16-3.6.27-7.2.55-10.8.72-12.87.59-25.75,1.66-38.64,1.15-6.15-.24-12.34-.42-18.49-1.24-2.35-.32-4.79-.46-7.19-.62-6.4-.44-12.78-1-19.2-1.25-4.65-.16-9.22-.21-13.68,1.29-3.77,1.26-5.59,3.45-5.78,6.47-.29,4.34,2.14,7.21,8.4,8.49,4.1.84,8.19.25,12.27.82,6.08.85,12.16,1.73,18.23,2.7,5.66.9,11.34,1.59,17,2.14s11.53.87,17.29,1.37c12.06,1.07,24.06,3.16,36.23,2.7q11.05-.42,22.08-1.38c2.7-.24,5.44,0,8.16,0" style="fill:none;stroke:#000;stroke-linecap:round;stroke-linejoin:round;stroke-width:2px"/><path d="M631.28,450.08c-.94,5.32,1.5,9.84,3.92,14.11,4.33,7.62,11.12,12.87,18.66,17.05a81.47,81.47,0,0,0,24,8.67c16.42,3.18,31.73,1,44.84-10.12a68.52,68.52,0,0,0,14.94-18.18A106.57,106.57,0,0,0,750,429.19c1.1-5.58,2-11.31,1.46-17-.75-8.66-1.9-17.27-8.33-24-.39-.42-.61-1-1.22-1.17-4.53-1.18-7.7-4.7-11.7-6.83a85.81,85.81,0,0,0-26-8.59,61.36,61.36,0,0,0-12-.91,56.28,56.28,0,0,0-21.84,5,61.55,61.55,0,0,0-29.67,27.17c-4.67,8.5-8.31,17.51-9.8,27.29-.58,3.76-.2,7.66-1.57,11.3,1.33,2.64-.09,5.91,1.92,8.4" style="fill:none;stroke:#000;stroke-linecap:round;stroke-linejoin:round;stroke-width:2px"/><path d="M639.92,406.16a11.13,11.13,0,0,0,6.48,1.47c24.8-.05,49.6.09,74.4-.1,8-.06,16-.08,24-.16,1.9,0,3.66-.79,5.52-1" style="fill:none;stroke:#000;stroke-linecap:round;stroke-linejoin:round;stroke-width:2px"/><path d="M741.68,452.24a9,9,0,0,0-4.56-1c-8.48,0-17,.12-25.44-.27-10.56-.5-21.12-.58-31.68-.92-14-.45-28-.1-42-.19-2.16,0-4.32-1-6.48,0" style="fill:none;stroke:#000;stroke-linecap:round;stroke-linejoin:round;stroke-width:2px"/><path d="M751,631a125.42,125.42,0,0,1,3.8-19c4.69-16.35,11.95-31.66,19.06-47,8.5-18.35,19.1-35.52,30.64-52.12,13-18.63,26-37.15,40.09-55,8.31-10.53,18-19.75,27.64-29,4.7-4.5,9.52-8.88,14.13-13.47,12.8-12.77,26.87-24,41.51-34.57,9.15-6.59,18.27-13.21,27.83-19.23a239.5,239.5,0,0,1,22.38-11.88,260.24,260.24,0,0,0,24.67-14.26c8.68-5.5,17.51-10.67,27.61-13.19a17.09,17.09,0,0,1,3.84-.23" style="fill:none;stroke:#000;stroke-linecap:round;stroke-linejoin:round;stroke-width:2px"/><path d="M1022.24,303.44c-10.25,5.42-20.61,10.62-31.19,15.39-11.65,5.24-23.21,10.68-34.81,16.05a325.17,325.17,0,0,0-62.65,37.66c-9.74,7.53-19.77,14.67-29.06,22.79-2.47,2.16-5,4.31-7.41,6.51a3.64,3.64,0,0,1-1.21.93,4.14,4.14,0,0,0-3.36,4.11.84.84,0,0,1-.46.73c-5.18,3.24-8.22,8.58-12.46,12.74-.7.68-1.19,1.53-2.19,1.9-2.14.79-3.2,2.47-4.14,4.52-2.2,4.8-5.92,8.56-9.33,12.48-12,13.81-23.55,28-33.32,43.48-5.72,9.07-11.22,18.29-16.6,27.57-6.35,10.95-12.39,22.07-18.81,33-1.83,3.11-4.24,5.56-6.4,8.3-.88,1.13-1.6,2.13-1.41,3.63.35,2.91-1.87,4.85-3,7.14s-2.4,4.32-3.45,6.55c-1.32,2.83-3.83,4.75-5.32,7.42-.23.41-.8.65-.7,1.21.68,4-1.84,7-3.17,10.3-4,10-7.69,20.16-10.69,30.52a25.59,25.59,0,0,0-1,11.74" style="fill:none;stroke:#000;stroke-linecap:round;stroke-linejoin:round;stroke-width:2px"/><path d="M957.68,459.68a15.5,15.5,0,0,0,4.6,3.05c6.26,3.19,10.29,8.12,11.38,15a36.63,36.63,0,0,1-.82,15.11c-1.65,6.27-4.33,11.94-9,16.51a10.76,10.76,0,0,1-8.84,3.43c-5.14-.48-8.47-3.42-10.08-9.15-1.92-6.82-1.66-13.69-.77-20.65s2.85-13.14,7-18.73c1.6-2.17,3.2-4.2,6-4.78" style="fill:none;stroke:#000;stroke-linecap:round;stroke-linejoin:round;stroke-width:2px"/><path d="M928.64,460.88c-8.88,8-14.8,18-18.77,29.11a36.12,36.12,0,0,0-2,8.82c-.39,4.54,1.38,8.13,7.32,8.16,4.37,0,8.49-.78,12-3.61,2.4-1.93,3.64-4.54,2.78-7.41s-3.64-3.93-6.38-4.58c-3.42-.8-6.57.25-9.59,1.7a6.63,6.63,0,0,1-4.09.69" style="fill:none;stroke:#000;stroke-linecap:round;stroke-linejoin:round;stroke-width:2px"/><path d="M1015,383.6c-1-2.21-.72-4.66-1.09-7-1.15-7-3.45-13.75-5.2-20.61-.27-1-.7-2.06-.91-3.13-.15-.81-.53-1.35-1.44-1.32" style="fill:none;stroke:#000;stroke-linecap:round;stroke-linejoin:round;stroke-width:2px"/><path d="M835.76,548c0-1.94-1.73-2.56-2.89-3.59-4.11-3.67-9.19-5.58-14.16-7.68a35.4,35.4,0,0,1-8.59-4.62,5.56,5.56,0,0,0-4.36-1.39" style="fill:none;stroke:#000;stroke-linecap:round;stroke-linejoin:round;stroke-width:2px"/><path d="M949.52,390.56c2.13,4,3.48,8.27,5,12.48a56.44,56.44,0,0,0,6.72,13.2" style="fill:none;stroke:#000;stroke-linecap:round;stroke-linejoin:round;stroke-width:2px"/><path d="M849,469a2.1,2.1,0,0,0,1.17,2.2c6.58,4.44,12.29,9.78,15.8,17,.6,1.25,1.18.41,1.75.57" style="fill:none;stroke:#000;stroke-linecap:round;stroke-linejoin:round;stroke-width:2px"/><path d="M896.6,421.52c3.38,8.12,7.89,15.44,15,20.88" style="fill:none;stroke:#000;stroke-linecap:round;stroke-linejoin:round;stroke-width:2px"/><path d="M784.88,594.08a53.63,53.63,0,0,0,11,5c2.17.79,4.39,1.43,6.48,2.41" style="fill:none;stroke:#000;stroke-linecap:round;stroke-linejoin:round;stroke-width:2px"/><path d="M801.92,570.92c3.26,1.08,6.07,3.15,9.33,4.29a13.69,13.69,0,0,1,3.87,1.59" style="fill:none;stroke:#000;stroke-linecap:round;stroke-linejoin:round;stroke-width:2px"/><path d="M887.84,465.44c-2.18-3.46-5.36-5.74-8.84-7.75-.61-.34-1.21-.2-1.72-.53" style="fill:none;stroke:#000;stroke-linecap:round;stroke-linejoin:round;stroke-width:2px"/><path d="M839.48,509.36a4.77,4.77,0,0,0,2.26,4.11c2,1.41,3.86,3,5.78,4.53" style="fill:none;stroke:#000;stroke-linecap:round;stroke-linejoin:round;stroke-width:2px"/><path d="M934.88,414.32c3.26,2.22,5.6,5.31,7.88,8.43a1.72,1.72,0,0,0,2.2.81" style="fill:none;stroke:#000;stroke-linecap:round;stroke-linejoin:round;stroke-width:2px"/><path d="M985.52,384.08c1.31,2.89,3.31,5.37,4.86,8.13a5.68,5.68,0,0,1,.66,2.91" style="fill:none;stroke:#000;stroke-linecap:round;stroke-linejoin:round;stroke-width:2px"/></g></svg>
