<?xml version="1.0" encoding="utf-8"?>
<!-- Generator: Adobe Illustrator 24.0.1, SVG Export Plug-In . SVG Version: 6.00 Build 0)  -->
<svg version="1.1" id="Layer_1" xmlns="http://www.w3.org/2000/svg" xmlns:xlink="http://www.w3.org/1999/xlink" x="0px" y="0px"
	 viewBox="0 0 1366 768" style="enable-background:new 0 0 1366 768;" xml:space="preserve">
<style type="text/css">
	.st0{fill:#FFFFFF;}
</style>
<g id="Layer_3">
	<path d="M961.8,308.2c0.2-2.2,0.2-3.4,0.4-4.6c0.3-2.3,1.6-3.2,3.7-2.5c1.6,0.5,3.2,0.8,4.8,0.8c2.6,0,4.8,1.7,5.7,4.1
		c1,2.4,1.7,4.9,2.2,7.5c0.6,3.5,0.9,7.1,1.3,10.6c0.1,0.7,0,1.5-0.8,1.7c-0.6,0.2-1.3,0.1-1.9-0.2c-2-1.3-3-3.7-2.5-6.1
		c0.5-2.8-0.2-5.4-1-8.1c-0.2-0.8-0.6-1.5-1.1-2.2c-0.6-0.7-1.7-0.8-2.5-0.2c-0.1,0.1-0.2,0.2-0.3,0.4c-0.3,0.6-0.6,1.3-0.6,1.9
		c-0.2,1.6-0.3,3.3-0.3,4.9c0,1.9,0.2,3.8,0.1,5.8c0,1-0.1,1.9-0.4,2.8c-0.3,1.2-1.4,2.1-2.7,2.3c-1,0.1-2-1-2.2-2.6
		c-0.2-1.4-0.1-2.7-0.2-4.1c0-1.1-0.2-2.2-0.3-3.2c0-0.3-0.5-0.5-0.9-0.6c-0.3,0-0.5,0.1-0.7,0.3c-0.5,0.8-1,1.6-1.4,2.5
		c-1.7,4-5,6.5-8.7,8.3c-3,1.5-4.7,1.1-7-1.3c-0.2-0.2-0.4-0.4-0.5-0.6c-2.3-2.5-2.3-2.5-5.6-1.1c-0.7,0.4-1.5,0.7-2.3,0.9
		c-3.2,0.7-6.3,0.8-8.7-2c-0.4-0.5-1-0.9-1.4-1.3c-1.6-0.4-2.5,0.7-3.5,1.2c-2.4,1.3-4.8,2.5-7.7,2.7c-2.6,0.2-4.9-0.2-6.7-2.2
		c-0.5-0.5-1.1-0.9-1.7-1.3c-0.7,0.4-1.4,0.8-2,1.3c-4.4,3.5-12.6,3.3-16.8-0.5c-0.3-0.3-0.5-0.6-0.7-1c-0.1-0.2-0.1-0.5,0-0.8
		c0.2-0.3,0.7-0.7,0.9-0.6c0.8,0.2,1.6,0.4,2.3,0.7c2,0.8,4.2,1,6.2,0.3c0.5-0.8,0.3-1.8-0.5-2.3c0,0,0,0-0.1,0
		c-1.8-1.5-3.5-3.1-5.4-4.4c-3.6-2.6-5.2-6.3-5.8-10.5c-0.6-5,2.2-8.9,7.2-9.9c1.9-0.4,3.9,0.1,5.3,1.4c0.7,0.5,0.9,1.4,0.6,2.2
		c-0.3,0.8-1.1,1.3-1.9,1.2c-0.5-0.1-1.1-0.3-1.6-0.4c-2.3-0.3-3.6,0.5-4.5,2.6c-1.1,2.7-0.4,5.1,1.3,7.3c0.9,1.2,2,2.3,3.2,3.2
		c2.8,2.2,5.6,4.4,8.4,6.6c0.3,0.2,0.6,0.4,1,0.5c1.2-0.1,1.5-0.9,1.5-1.7c0.1-1.2,0-2.5,0-3.7c0-4.4,1.8-8.7,5-11.8
		c2.2-2.3,4.8-2.3,7.5-0.7c1.7,1.1,2.2,3.4,1.1,5.1c-0.1,0.2-0.3,0.4-0.5,0.6c-0.8,0.7-1.8,1.3-2.8,1.7c-0.7,0.3-1.6,0.3-2.4,0.5
		c-1.4,0.3-2.4,1.5-2.5,2.9c-0.2,2,0,4.1,0.5,6.1c0.6,2.2,2.5,3.8,4.8,3.9c2.8,0.3,5.4-0.8,8-1.7c0.9-0.4,1.5-1.3,1.4-2.3
		c-0.2-3.1,1-5.9,1.7-8.8c1.1-4.5,4.3-7.5,7.9-10.1c1.3-1.1,3.2-0.9,4.2,0.4c0.1,0.1,0.1,0.1,0.2,0.2c1.4,1.8,0.9,4.1-1.3,4.5
		c-2.7,0.6-4,2.3-4.9,4.5c-0.8,1.9-1.4,3.8-1.9,5.8c-0.2,1.3-0.1,2.7,0.2,4c0.6,2.4,2.1,3.4,4.5,3.3c0.4,0,0.8,0,1.2,0
		c3.5-0.6,4.5-1.6,4.7-5.1c0.2-4,1.3-7.9,3-11.4c0.7-1.6,1.9-3.1,3.3-4.2c2-1.9,5.1-1.8,7.1,0.1c1.2,1,2.3,2,3.4,3
		S960.2,306.5,961.8,308.2z M947,316c0,1.5,0.2,3,0.4,4.5c0.7,2.9,2.9,3.6,5.2,1.7c2-1.7,3.3-4,3.9-6.6c0.8-3.4,0.1-6.9-1.9-9.7
		c-0.6-1.1-2-1.6-3.1-1c-0.3,0.1-0.5,0.3-0.7,0.6c-0.5,0.5-0.9,1-1.2,1.6C947.9,309.7,947,312.8,947,316L947,316z"/>
	<path d="M1158.6,184.3c-0.2-3.2-0.2-6.2-0.6-9.2c-0.6-5.3,1.6-5.9,5.2-6.6c1.6-0.4,3.3-0.2,4.8,0.6c0.7,0.4,1.5,0.7,2.2,1
		c0.8,0.3,1.7,0,2.1-0.8c0.4-0.7,0.7-1.5,1.2-2.1c0.6-0.9,1.3-1.7,2.2-2.4c1.9-1.4,3.2-1.2,5.2,0.3c2,1.5,3.2,3.9,3.3,6.4
		c0.4,4.4,0.4,8.8,0,13.1c-0.1,2.2-0.3,4.4-0.6,6.5c0,0.7-0.2,1.3-0.6,1.9c-0.5,0.9-1.7,1.2-2.6,0.7c-0.3-0.2-0.5-0.4-0.7-0.7
		c-0.3-0.6-0.5-1.3-0.5-1.9c0-3.8-0.3-7.7,0.9-11.4c0.9-2.6,0.2-5.2-0.3-7.7c-0.2-0.6-0.7-1.1-1.3-1.4c-0.9-0.3-1.6,0.3-2,1.1
		c-1.6,2.6-2.2,5.7-1.7,8.7c0.8,3.6,0.3,7.1,0.2,10.6c0,0.7-0.2,1.4-0.4,2c-0.5,0.9-1.4,1.3-2.4,1.2c-0.9,0-1.6-0.7-1.7-1.6
		c-0.2-2.9-0.4-5.7-0.4-8.6c0.1-2.5-0.5-4.9-1.6-7.1c-0.3-0.6-0.7-1.1-1.2-1.6c-0.8-0.7-2-0.9-3-0.3c-0.9,0.5-1.3,1.5-1.1,2.4
		c0.2,1.9,0.6,3.8,0.8,5.7s0.2,4.1,0.2,6.2c0.1,1.1-0.6,2.2-1.6,2.6c-0.9,0.5-1.9,0.2-2.5-0.6c-0.3-0.4-0.4-1-0.7-1.5
		c-0.2-0.3-0.4-0.6-0.6-0.9c-1.2-0.6-1.9,0-2.7,0.6c-1.8,1.5-3.6,2.9-5.5,4.2c-1.9,1.1-3.9,2.1-5.9,2.7c-4,1.2-6.9-0.1-8.9-3.7
		c-0.4-0.7-0.8-1.4-1-2c-1.2-0.7-2-0.1-2.9,0.3c-2.2,1.1-4.4,2.1-6.7,3c-1,0.4-2.1,0.6-3.2,0.6c-2.6,0.1-4.8-1.7-5.3-4.2
		c-0.4-1.6-0.7-3.2-1-5c-2.5-0.4-5,0-7.3,1.1c0.1,1.9,1.4,2.4,2.2,3.2c0.8,0.6,0.9,1.6,0.4,2.4c-0.2,0.3-0.5,0.5-0.9,0.6
		c-0.4,0.2-0.7,0.3-1.2,0.4c-3.3,0-6.3-0.9-7.8-4.2c-0.3-0.6-0.4-1.3-0.3-2c0-1.5,0.2-3,0.3-4.5c0.2-6,2.9-11.6,7.4-15.5
		c0.6-0.6,1.5-0.8,2.3-0.4c0.8,0.3,1.3,1.1,1.3,1.9c0.1,1.9-0.7,3.8-2.3,5c-3.1,2.2-3.8,5.5-3.8,9.1c0,0.2,0.3,0.4,0.5,0.9
		c0.6,0,1.3-0.1,1.9-0.2c1.8-0.5,3.7-1.1,5.5-1.6c3.2-0.8,6-2.9,7.6-5.8c1-1.6,2.2-3.1,3.7-4.4c2.5-2.1,6.3-1.8,8.4,0.8
		c0.1,0.1,0.2,0.2,0.3,0.3c0.6,0.8,0.6,1.9-0.1,2.6c-1.6,2.1-3.7,3.8-6,4.9c-1.3,0.5-2.5,1.2-3.7,1.8c-2.3,1.3-3.5,4.1-2.9,6.7
		c0.2,1,1,1.7,2,1.8c4.2,0.7,8.3-1,10.8-4.4c0.8-1,1-2.3,0.5-3.5c-0.3-0.6-0.5-1.3-0.7-1.9c-0.2-0.9,0.1-1.9,1-2
		c2.7-0.5,4.2-2.4,5.9-4.2c1.4-1.4,3.1-2.3,5-2.6c2.2-0.5,4.7,0.3,5.5,1.8c1.1,1.8,1,4.1-0.3,5.8c-2,2.9-4.4,5.2-8.2,5.6
		c-2.3,0.3-3,1.2-2.9,3.2c0,2.5,0.9,3.8,3.1,4.1c1.1,0.2,2.2,0.2,3.2-0.1c3.3-1,6.6-2,9-4.7C1156.1,186.5,1157.4,185.4,1158.6,184.3
		z M1147.3,176.8c-1-1.2-1.8-0.7-2.6-0.2c-1.7,1.1-2,1.7-2.1,3.4C1144.9,179.7,1146.2,178.4,1147.3,176.8L1147.3,176.8z"/>
	<path d="M1298.1,244.9c-0.5,3.9,0.5,5.6,3.7,6.4c2.6,0.5,5.2,0.5,7.8,0c1-0.2,2.1-0.7,3,0.3c0.2,0.8-0.4,1-0.8,1.3
		c-4.2,2.1-8.7,2.4-13.2,1.7c-1.6-0.3-3.1-1.2-4.2-2.5c-0.9-1-1.7-2.1-2.4-3.1c-1.3,0.1-1.3,1.1-1.5,1.8c-0.2,1.1-1.2,1.9-2.3,1.9
		c-1.2,0.3-2.4-0.4-2.6-1.6c0-0.1,0-0.2,0-0.3c-0.3-2.7-0.6-5.5,0.7-8.1c0.7-1.4,0.8-2.9,0.5-4.4c-0.1-0.5-0.4-1-0.7-1.4
		c-0.4-0.5-1.1-0.6-1.6-0.2c-0.1,0-0.1,0.1-0.2,0.2c-0.6,0.9-1.1,1.9-1.4,2.9c-1.1,3.5-2.2,7.1-3.2,10.6c-0.2,1.1-1.1,1.9-2.3,2.1
		c-1.3,0.1-2.5-0.7-2.8-2c-0.2-0.8-0.3-1.6-0.3-2.4c0-2.5,0.2-4.9,0.3-7.4c0.1-1.4,0.1-2.7,0-4.1c-0.1-0.9-0.9-1.6-1.8-1.5
		c-0.2,0-0.4,0.1-0.6,0.2c-1.1,0.3-1.9,1.3-2,2.4c-0.1,1.9,0,3.8,0.1,5.7c0.2,3.3,0.5,6.5,0.8,9.8c0,0.3,0,0.5,0,0.8
		c0,0.9-0.5,1.6-1.3,1.9c-0.9,0.4-2,0.2-2.6-0.6c-0.6-0.8-0.9-1.6-1.1-2.6c-0.5-2.8-0.8-5.7-1.2-8.5c-0.1-0.7-0.1-1.4-0.2-2
		c-0.3-2.7-0.8-3.1-3.3-3.1h-2.8c-0.5-0.9,0-1.4,0.6-1.8c1.7-1.3,4-2,5-3.6c0.5-5.2,0.9-10.1,1.4-15c0.2-1.4,0.5-2.7,0.9-4
		c0.6-1.8,1.7-2.6,2.8-2.5s2,1.4,1.9,3.2c-0.1,2.9-0.3,5.7-0.5,8.6c-0.1,1.2-0.1,2.4,0,3.7c0.1,0.8,0.9,1.4,1.8,1.3
		c0.3,0,0.6-0.2,0.8-0.4c0.8-0.5,1.4-1.4,1.4-2.4c0-1.8,0-3.5-0.1-5.3c0-1-0.2-1.9-0.2-2.9c0.1-1.1,1-2,2.2-2.1c1-0.3,2,0.3,2.3,1.3
		c0.5,1.2,0.9,2.6,1.1,3.9c0.3,2.9,0.4,5.7,0.6,8.6c0,0.7,0.2,1.3,0.4,2.3c0.8-0.1,1.6-0.4,2.4-0.8c1.2-0.9,2.4-1.4,3.8-0.7
		s2.9,1.7,3.2,3.5s0.4,3.8,0.6,5.7c0,0.8,0.1,1.6,0.3,2.4c0,0.2,0.9,0.4,1,0.3c0.5-0.4,0.9-1,1.2-1.6c1.3-4.8,4.7-7.9,8.8-10.4
		c2-1.2,4.4-1.7,6.7-1.3c3.2,0.5,4.9,2.8,4.5,6.1c-0.5,4.8-4.2,8.6-9,9.3C1302.2,244.8,1300.3,244.8,1298.1,244.9z M1299,238.9
		c1.9,1.4,3.6,1.4,5,0.5c1.4-0.8,2.7-1.8,3.8-3c1.2-1.2,1.4-2.6,0.6-3.2c-1.1-0.9-2.3-0.7-3.4-0.2c-0.3,0.1-0.5,0.2-0.7,0.4
		C1302.2,234.9,1300.4,236.8,1299,238.9L1299,238.9z"/>
	<path d="M840.1,232.9c0.6-0.3,1.3-0.5,1.9-0.9c5-2.6,9.9-1.4,12.8,3.3c1.9,2.7,2.5,6.2,1.7,9.4c-0.2,0.9-0.3,1.9-0.6,2.8
		c-0.3,1-0.7,2-1.2,3c-0.2,0.7-0.9,1-1.6,0.8c0,0-0.1,0-0.1,0c-0.5-0.3-0.8-0.7-0.8-1.3c0-1,0-1.9,0.1-2.9c0-1.4,0.1-2.7,0.1-4.1
		c-0.1-1.8-0.7-3.5-1.7-5c-0.6-1.1-1.8-1.8-3.1-1.8c-2.8,0-4.8,0.9-3.3,4.2s1.4,6.7,1.6,10.1c0.2,1.5-0.4,3.1-1.6,4
		c-1.3,1.1-2.8,0.8-3.3-0.7c-0.5-1.4-0.8-2.9-1-4.4c-0.3-2.4-0.5-4.9-0.8-7.4c-0.2-2.1-1.3-4-3-5.2c-0.5-0.4-1.2-0.6-1.9-0.5
		c-0.8,0.2-1.3,1.1-1.1,1.9c0.2,2.2,0.6,4.3,0.8,6.5c0.1,1.5,0.2,3,0.1,4.5c-0.1,1-0.7,1.8-1.7,2.2c-1.2,0.6-2.6,0.1-3.1-1.1
		c-0.3-0.6-0.3-1.3-0.6-2c-0.2-0.5-0.4-1-0.6-1.4c-1.7-0.5-2.8,0.4-3.9,1.1c-2.4,1.4-5,2.3-7.7,2.8c-4.2,0.9-7.8-1.5-8.4-5.7
		c-0.2-1.9-0.3-3.8-0.2-5.7c-0.1-1.6-0.6-2.2-2.1-2.6c-1.3-0.3-2.7-0.4-4.1-0.5c-2,0-2.8,0.8-2.7,2.8c0.1,3.4,0.3,6.8,0.6,10.2
		c0.1,1.3,0.2,2.5-0.7,3.5c-0.5,0.6-1.2,1.3-2.1,1c-0.6-0.2-1.1-0.7-1.4-1.3c-0.5-1.3-0.9-2.6-1.1-3.9c-0.2-1.8-0.3-3.5-0.4-5.3
		c-0.1-2.7-0.2-5.5-0.2-8.2c0-1.5-0.2-3-0.1-4.5c0.1-0.8,0.4-1.6,0.8-2.3c0.6-0.9,1.9-1.1,2.8-0.5c0.1,0.1,0.3,0.2,0.4,0.3
		c0.5,0.7,1,1.5,1.5,2.2c2.3,0.6,4.4,1.1,6.6,1.6c2.6,0.6,4.9,0.3,6.6-2.1c0.6-0.9,1.4-1.7,2.3-2.3c0.8-0.5,1.7-0.9,2.6-1
		c2-0.3,3.9,1.2,4.2,3.2c0.1,0.5,0,1-0.1,1.5c-0.7,2.5-1.8,5-4.5,6c-3.2,1.1-3.9,3-3.2,7c0.1,1.6,1.4,2.8,3,2.8c0,0,0,0,0,0
		c1.5,0,3-0.1,4.5-0.4c0.5-0.1,1-0.4,1.5-0.6c6.2-3.4,5.5-2.6,5.3-9.1c-0.1-1.9-0.4-3.8-0.5-5.7c-0.2-1.4,0.3-2.8,1.1-3.8
		c0.8-1,2.2-1.1,2.8-0.1c1.1,1.9,3.1,3.2,5.3,3.3C837.7,231.3,838.8,232.2,840.1,232.9z"/>
	<path d="M1165.3,43.9l3.5-2.9c3.2-2.7,6.3-1.9,7.7,2c0.9,2.6,1.2,5.3,1.1,8.1c-0.1,2.5,0,4.9-0.2,7.4c-0.2,2.3,0.6,4.3,1.5,6.6
		c-0.8,0.2-1.4,0.7-2,0.5c-0.8-0.2-1.5-0.6-2-1.2c-0.9-1.4-1.5-3-1.4-4.6c-0.1-3-0.2-6-0.4-9c0-0.8-0.1-1.6-0.3-2.4
		c-0.1-0.6-0.3-1.2-0.5-1.8c-1.1-0.6-2.4-0.2-3.1,0.9c-1.7,1.8-3.2,3.8-4.5,5.8c-1.3,2.3-3.1,4.5-3.6,7.3c-0.1,0.4-0.3,0.8-0.5,1.1
		c-0.5,1-1.6,1.8-2.2,1.4c-0.7-0.4-1.3-0.9-1.7-1.7c-0.3-0.9-0.4-1.8-0.2-2.8c0.7-4.7,1.4-9.5,2.1-14.2c0-0.6-0.1-1.2-0.2-1.7
		c-2.6-0.1-5.2,0.7-7.3,2.3c-0.8,0.8-1.2,1.8-1.3,2.9c-0.7,4.7-1.3,9.5-2,14.2c0,0.4,0,0.8-0.1,1.2c-0.3,1.6-1,2.4-2.3,2.4
		s-2.3-0.8-2.4-2.7c-0.2-2-0.2-4.1,0-6.1c0.2-2.7,0.6-5.4,1.1-8.1c0.3-2,0.3-3.8-1.4-5.2c-0.2-0.1-0.1-0.5-0.1-0.8
		c3.1-3.9,3-4,4.4-9.8c0.5-1.7,1.1-3.4,1.9-4.9c0.6-1.1,2-1.6,3.1-1c0,0,0,0,0.1,0c0.9,0.3,1.5,1.3,1.3,2.3
		c-0.3,1.6-0.8,3.2-1.1,4.8c-0.2,1.1-0.5,2.2,0.6,3.3c1.8-0.3,3.8-0.6,5.8-1.1c0.9-0.3,1.6-1.2,1.6-2.2c0.3-2.3,0.7-4.6,1-6.9
		c0.2-1.4,0.2-2.7,0.4-4.1c0.1-0.5,0.2-1.1,0.4-1.6c0.4-0.9,1.3-1.5,2.3-1.3c0.9,0,1.6,0.6,1.8,1.4c0.4,1.7,0.6,3.5,0.5,5.3
		c-0.4,4-1,7.9-1.6,11.8C1165,40.3,1164.3,41.7,1165.3,43.9z"/>
	<path d="M857.9,30.7c2.3,0.3,4.6-0.4,6.4-1.9c0.6-0.5,0.8-1.7,0.9-2.6c0.2-3.3,0.3-6.6,0.3-9.8c-0.1-1.3,0.7-2.4,1.8-2.9
		c1-0.6,2.2-0.2,2.7,0.7c0,0.1,0.1,0.1,0.1,0.2c0.5,1.1,0.7,2.3,0.8,3.5c-0.2,4.5-0.6,9-0.8,13.5c0,0.9,0,1.8,0,2.6
		c1.3,0.7,2-0.1,2.7-0.7s1.6-1.6,2.9-1.2c1.5,0.5,3.3,0.7,4.1,2.4c0.8,1.7,1.4,3.5,2,5.4c0.6,2.8,0.7,5.7,0.2,8.6
		c-0.2,2.1-1.7,3.8-3.8,4.2c-0.3-0.6-0.5-1.2-0.6-1.9c0-1.6,0.1-3.3,0.2-4.9c0.1-2.6-0.5-5.1-1.6-7.4c-1.6-0.1-3.2,0.8-3.8,2.3
		c-1.1,2.5-2.3,5-3.3,7.5c-0.3,1.1-1,2-1.9,2.6c-1,0.6-2.3,0.3-3-0.7c-0.1-0.2-0.2-0.4-0.3-0.7c-0.2-1.1-0.3-2.2-0.3-3.3
		c0.1-2.5,0.3-4.9,0.4-7.4c0-0.9-0.1-1.9-0.2-3c-2.2-0.4-4.5,0.1-6.3,1.4c-0.9,0.7-1.4,1.7-1.5,2.8c-0.7,5.3-0.5,10.7,0.7,15.9
		c0.1,0.4,0.1,0.8,0.2,1.2c-2.1,1-3.3,0.8-4-0.9c-1.1-2.2-1.8-4.6-1.9-7.1c-0.1-2.5-0.2-4.9-0.2-7.4c0-2.1,0.1-4.1-1.6-5.9
		c2.2-2,2.7-4.5,3-7.1c0.5-3.5,1.1-7,1.4-10.6c0.1-1.8,0.9-3.5,2.3-4.7c1.1-1,2.3-0.9,3.1,0.4c0.4,0.7,0.6,1.5,0.6,2.3
		c-0.2,2.4-0.5,4.9-0.9,7.3S858.2,28.3,857.9,30.7z"/>
	<path d="M1203.4,115.8c1.7-0.1,2.5-0.1,3.4-0.1c3.1,0,6-1.3,8-3.6c1.2-1.2,1.7-2.9,1.2-4.6c-0.9-3.5-3.8-4.3-6.4-1.8
		c-1.3,1.4-2.6,2.8-3.9,4.2c-0.7,0.7-1.4,1.3-2.2,1.7c-0.8,0.5-2,0.3-2.5-0.5c-0.2-0.3-0.3-0.6-0.3-0.9c-0.4-2.6-0.6-5.2-0.7-7.8
		c0-2.6,0.4-5.2,0.6-7.8c0.2-3,0.5-6,0.7-9c0-1.2,0.5-2.4,1.4-3.3c0.7-0.7,1.8-0.7,2.5,0c0.2,0.2,0.4,0.5,0.5,0.8
		c0.4,1.3,0.7,2.6,0.7,4c0,2.6-0.3,5.2-0.5,7.8s-0.5,5.2-0.7,7.8c0,0.3,0.3,0.9,0.5,1c0.5,0.2,1,0.1,1.5-0.1
		c0.8-0.7,1.6-1.5,2.3-2.4c2.8-2.9,6-3,8.9,0c0.9,0.9,1.6,1.8,2.4,2.7c0.7,0.1,1.2,0.2,1.8,0.2c6.1,0.2,6.1,0.2,10.4-4.1
		c2.1-2.2,4.6-3.9,7.4-5c1.1-0.6,2.5-0.3,3.3,0.7c1,1.1,1.6,2.3,0.9,3.7c-0.4,0.9-0.9,1.7-1.6,2.4c-2.1,2.2-4.3,4.2-7.2,5.2
		c-0.8,0.3-1.5,0.6-2.3,1c-1.1,0.6-1.9,1.6-2.1,2.9c-0.3,1,0.1,2,1.1,2.4c1.4,0.6,2.8,1,4.3,1.1c2.7,0.2,5.5-0.2,8.1-1.1
		c0.9-0.3,1.8-0.5,2.7-0.6c-0.4,0.8-0.5,1.1-0.8,1.4c-4,3.5-9.3,5-14.6,4.2c-0.9-0.1-1.9-0.4-2.8-0.8c-2.3-0.8-3.8-3-3.6-5.4
		c0-1.1,0.2-2.2,0.3-3.1c-0.6-1.4-1.7-1.4-2.8-1.4c-0.9,0-1.6,0.6-1.8,1.4c-0.2,0.7-0.3,1.3-0.5,2c-1,3.5-3.8,6.2-7.4,7
		c-2.3,0.6-4.6,0.7-6.9,0.3C1205.7,118.1,1205.6,118,1203.4,115.8z"/>
	<path d="M816.2,161.7c0.5-0.5,1.2-1.2,1.9-1.8c0.8-0.9,2.1-0.9,2.9-0.2c0.2,0.2,0.4,0.4,0.5,0.7c0.4,0.6,0.6,1.2,0.7,1.9
		c0.3,2.2,0.6,4.3,0.9,6.5c0.2,1.8,0.3,3.5,0.5,5.6c1.1-0.3,1.8-0.4,2.5-0.6c3.2-1.1,4.8-0.8,6.8,1.9c0.7,1,1.3,2.1,1.6,3.3
		c1.3,5.2,1.9,10.5,1.7,15.9c0,0.7-0.3,1.3-0.7,1.8c-0.5,0.7-1.6,0.9-2.3,0.4c-0.3-0.2-0.5-0.5-0.6-0.9c-0.3-1-0.5-2.1-0.6-3.2
		c-0.3-2.9-0.4-5.7-0.7-8.6c-0.1-1.4-0.4-2.7-0.7-4c-0.3-0.9-1.3-1.5-2.2-1.2c-0.2,0-0.3,0.1-0.5,0.2c-2.1,1.2-3.5,3.2-3.8,5.6
		c-0.2,1.2-0.2,2.5-0.3,3.7c0,0.8,0,1.6-0.3,2.4c-0.3,0.7-0.9,1.3-1.6,1.7c-0.7,0.4-2-0.2-2.4-1.1c-0.3-0.6-0.5-1.3-0.6-1.9
		c-0.1-1.6-0.1-3.3-0.2-4.9c-0.2-5.1-0.3-10.1-0.5-15.2c-0.1-1.4-0.1-3-1.7-4.2c-1.5,1.4-1.5,4-3.8,4.6c-0.2,0-0.5-0.1-1-0.3
		c0-0.9,0-1.8,0.1-2.7c0.1-1.4-0.5-2.8-1.7-3.5c-2.3-1.8-5.5-2.1-8.2-0.8c-2.7,1.3-3.7,3.9-4,6.8c-0.5,3.8,1,7.5,4,9.8
		c3,2.4,5.9,4.9,8,8.2c0.3,0.5,0.7,0.9,0.9,1.3c0.8,1.4,0.3,3.1-1.1,3.9c-0.9,0.6-1.9,1-3,1.1c-1.6,0-3.3-0.1-4.9-0.3
		c-0.6-0.1-0.8-0.4-1.2-1.9c1.3-0.6,2.6-1.3,3.9-2c0.2-0.1,0.2-0.5,0.3-0.8c-0.6-1.2-1.5-2.3-2.6-3c-3-2.2-5.4-5.1-7.1-8.4
		c-2.5-4.8-1.9-9.8,1.1-14.4c2.2-3.6,6.2-5.7,10.5-5.3c1.9,0,3.8,0.7,5.3,1.9C813.3,160.4,814.3,161.6,816.2,161.7z"/>
	<path d="M1266.6,100.5c-0.9-1-1.3-1.6-1.8-2c-0.9-0.8-1.7-0.9-2.5-0.1c-0.9,0.8-1.7,1.8-2.4,2.8c-1.4,2.5-2.6,5.1-3.9,7.7
		c-0.4,0.9-0.6,1.8-0.8,2.8c-0.5,2.2,0.8,4.3,3,4.8c0.1,0,0.2,0,0.3,0.1c3.1,0.5,6.3,0.2,9.3-0.9c1.1-0.3,1.9-1.3,2-2.4
		c0.8-6,4.5-10.5,8.1-15c1.6-1.9,3.5-3.5,5.8-4.5c1.7-0.8,2.8-0.5,4,0.9c1.6,1.8,2.2,4.2,1.9,6.5c-0.4,2.4-0.7,4.9-1,7.3
		c-0.1,0.5-0.2,1.1-0.3,1.6c-0.6,4.7-0.2,5.8,3.1,9.1c-0.7,1.2-1.9,2-3.3,2c-1.4,0.4-2.8-0.4-3.3-1.8c-0.6-1.2-0.8-2.6-1.9-3.6
		c-1.5-0.5-2.6,0.5-3.7,1.2c-2.4,1.8-5.5,2.1-8.2,1c-1-0.4-2.2-0.4-3.2-0.1c-2.1,0.5-4.2,1.1-6.4,1.4c-1.8,0.2-3.5,0.3-5.3,0.2
		c-2,0-3.7-1.2-4.5-3c-1.4-2.9-1.5-6.2-0.2-9.1c0.8-2.2,1.8-4.3,2.9-6.4c1.6-3.6,4.4-6.7,7.9-8.6c2.8-1.5,4.9-0.6,5.5,2.4
		c0.2,1.2,0.3,2.4,0.2,3.7C1267.7,98.9,1267.2,99.4,1266.6,100.5z M1284.3,99.9c-5,2.6-8.9,8.7-8.9,13.6c2.5-0.1,3.8-0.8,5.9-3.5
		S1285.4,104.1,1284.3,99.9z"/>
	<path d="M1004,327.9c-0.8-1.2-1.5-2.4-2.1-3.7c-0.3-1.1-0.6-2.2-0.7-3.4c-1.2-0.9-2-0.2-2.9,0.2c-1.8,0.9-3.6,1.9-5.6,2.6
		c-2.8,1-4.8,0.1-6-2.7c-0.6-1.4-0.9-2.9-0.9-4.4c0.1-3.7,1.1-7.3,2.9-10.5c1.1-2.2,2.5-4.2,4.2-6c1.8-1.7,3.7-2.9,6.2-2.1
		c0.5,0.1,0.9,0,1.4,0c0.4-0.7,0.7-1.4,0.8-2.2c0.3-2.2,0.6-4.3,0.7-6.5c0.1-1.8,0.6-3.5,1.4-5.1c0.4-0.8,1.3-1.1,2.1-0.8
		c0.1,0.1,0.2,0.1,0.3,0.2c1.6,0.9,2.6,2.6,2.7,4.4c0.2,7.1,0.9,14.3-1.3,21.2c-1.4,4.2-0.8,8.4-0.5,12.6c0.1,0.5,0.2,1.1,0.4,1.6
		C1008.1,326.5,1008,326.7,1004,327.9z M1000.9,309.3c0.1-0.7,0.1-1.4,0-2.1c-0.2-1.1-0.5-2.1-1-3.1c-0.5-1.2-1.9-1.7-3.1-1.2
		c-0.3,0.1-0.5,0.3-0.7,0.5c-0.3,0.2-0.6,0.5-0.9,0.9c-2.6,3.6-4,7.8-4.1,12.2c0,1.7,1.3,2.6,2.8,1.7c1.6-1,3.2-2.1,4.7-3.3
		C1000.2,313.5,1001.3,311.7,1000.9,309.3L1000.9,309.3z"/>
	<path d="M1067.2,178.5c2,0,2.9-1,4-1.9c1.9-1.6,4.3-2.5,6.8-2.7c1.2-0.3,2.4,0.4,2.7,1.6c0,0.1,0,0.1,0,0.2
		c-0.7,1.4-2.1,2.2-3.2,3.1c-0.8,0.6-1.6,1.1-2.4,1.6c-2.4,1.6-4,4.3-4.2,7.2c-0.2,2.6-0.4,5.2-0.5,7.8c0.1,1.4-1,2.7-2.5,2.8
		c-0.8,0.2-1.7-0.2-2.1-0.9c-0.4-0.8-0.8-1.7-1.1-2.4c-1.7-0.3-2.5,0.7-3.6,1.3c-1.8,1.2-3.8,2.2-5.8,3.1c-4.2,1.5-8.8-0.6-10.4-4.8
		c-0.1-0.4-0.2-0.8-0.3-1.2c-0.7-3.2-0.5-6.6,0.8-9.7c1.1-2.6,2.4-5.2,3.8-7.7c0.9-1.6,2.3-2.8,3.9-3.5c2.5-1,5.4,0.2,6.4,2.7
		c0.3,0.7,0.4,1.4,0.4,2.1c-0.1,2.5-1.1,4.9-2.8,6.7c-1.9,2.3-4.2,4.4-6.6,6.1c-1.6,1.1-1.7,2.3-0.5,3.8c1.1,1.5,2.9,2.2,4.7,1.9
		c3.6-0.4,6.3-2.5,8.6-5.1c0.7-1,0.9-2.3,0.6-3.5c-0.4-2.2-0.7-4.3-1-6.5c-0.1-0.9,0-1.9,0.2-2.8c0.2-0.9,1-1.5,1.9-1.3
		c0.4,0.1,0.7,0.3,1,0.5C1066.4,177.3,1066.8,177.9,1067.2,178.5z M1051.2,182.8c2.4-1.3,4.4-2.8,4.3-6.3
		C1052.2,177.6,1051.5,180,1051.2,182.8z"/>
	<path d="M910.2,250.4c0,1.4,0,2.7,0,4.1c0,0.6,0,1.1-0.1,1.7c-0.1,1-0.8,1.8-1.7,2.1c-0.7,0.2-1.6-0.7-1.8-1.9
		c-0.2-0.9-0.2-1.9-0.3-2.8c-0.3-2.5-0.6-4.9-1-7.3c-0.2-1.1-0.4-2.1-0.8-3.2c-0.5-1.5-1.3-2.1-2.3-2s-1.7,1.3-1.4,3
		c0.2,1.1,0.4,2.1,0.7,3.2c0.6,2.3,0.8,4.6,0.5,6.9c-0.1,1.1-0.3,2.2-0.6,3.2c-0.2,0.7-0.5,1.3-0.9,1.8c-0.4,0.8-1.3,1.1-2.1,0.9
		c-0.6-0.3-1-0.9-1.2-1.5c-0.6-2.7-0.7-5.4-0.4-8.2c0.4-3.8-1.2-6.9-3.6-9.7c-0.3-0.3-0.6-0.7-0.9-0.8c-0.8-0.2-1.6-0.2-2.3-0.1
		c-0.8,0.2-1.4,1-1.2,1.9c0.3,2.4,0.7,4.9,1.1,7.3c0.3,1.8,0.6,3.5,0.8,5.3c0,0.7-0.1,1.4-0.4,2c-0.5,1.1-1.7,1.5-2.8,1
		c-0.2-0.1-0.5-0.3-0.6-0.4c-0.6-0.6-1-1.3-1.2-2.1c-1.1-5.9-2.9-11.7-2.7-17.8c0-1.2,0.2-2.4,0.6-3.6c0.6-1.5,1.9-1.9,3.4-1.3
		c1.2,0.5,2.5,1,3.8,1.4c1.9,0.3,3.7,1.1,5.2,2.3c1.2,1.1,2.4,0.9,3.7,0c3.4-2.1,4.4-2,6.9,1.1c2.3,2.8,4,5.9,3.8,9.7
		C910.1,247.9,910.1,249.2,910.2,250.4L910.2,250.4z"/>
	<path d="M956.8,254.1c-1.2-0.2-2.4,0.2-3.2,1.1c-1.5,1.2-3.3,2-5.1,2.5c-5.4,1.6-9.8-0.6-10.9-6.1c-1.3-6.5,0.1-13.5,6-18.1
		c1.3-1.1,3-1.5,4.6-1.1c2.4,0.6,3.9,3.1,3.3,5.5c-0.2,0.8-0.6,1.5-1.1,2c-1.2,1.1-2.5,2.1-3.9,2.9c-0.7,0.3-1.5,0.6-2.3,0.9
		c-0.9,0.4-1.5,1.3-1.5,2.2c0,1.1-0.1,2.2-0.1,3.3c0.1,3.1,1.9,5.1,5,5.4c1.2,0,2.5-0.1,3.6-0.5c1.7-0.5,3.3-1.2,4.9-1.8
		c1-0.9,0.8-2,0.7-3.1c-0.2-3.3-0.5-6.5-0.6-9.8c0-1.2,0.1-2.4,0.5-3.6c0.2-0.9,1.2-1.4,2.1-1.2c0.2,0.1,0.4,0.2,0.6,0.3
		c1.9,1.7,3.7,1.2,5.6,0.2c1.4-0.6,2.8-1.1,4.3-1.4c0.7-0.1,1.4,0,2,0.3c0.6,0.2,0.9,0.9,0.6,1.5c0,0.1-0.1,0.1-0.1,0.2
		c-0.5,0.5-1,0.9-1.5,1.3c-1,0.7-2,1.4-3,2.1c-2.1,1.6-3.4,4-3.7,6.6c-0.3,2.7-0.7,5.4-1,8.1c0,1.2-0.6,2.4-1.5,3.2
		c-1.2,1-2.3,0.8-3.1-0.5C957.5,255.8,957.1,254.9,956.8,254.1z"/>
	<path d="M1098.9,46.7c2.1-0.5,2.7-1.8,3.7-2.7c1.3-1.2,2.7-2.3,4.2-3.3c1.3-0.8,3-0.8,4.3,0.2c2.3,1.4,2.8,3.8,1,5.9
		c-1,1.1-2.1,2.2-3.2,3.1c-1,0.9-2.1,1.8-3.3,2.8c1.4,1.7,3.3,3,5.3,3.9c1.5,0.7,3,1.2,4.5,1.9c0.6,0.3,0.8,1.1,0.5,1.6
		c-0.1,0.1-0.2,0.3-0.3,0.4c-2.1,1.6-5,1.9-7.4,0.8c-2.2-1-4.6-1.9-6.3-3.8c-1.6-1.7-2.8-1.5-4.7-0.2c-0.4,0.3-0.8,0.7-1.3,1
		c-1.5,0.9-2.6,0.3-2.8-1.6c-0.1-1.2-0.1-2.5,0-3.7c1.1-7.4,1.2-15,3.4-22.3c0.4-1.2,0.2-2.5,0.5-3.7c0.4-1.3,0.9-2.6,1.5-3.8
		c0.6-1,1.9-1.3,2.9-0.9c0.8,0.3,1.3,1.1,1.2,2c-0.1,1.6-0.2,3.3-0.5,4.9c-0.9,4.4-1.9,8.8-2.8,13.3
		C1099.1,43.8,1099.1,45,1098.9,46.7z"/>
	<path d="M1076.7,104.4c3.3,0.8,5.1,2.7,5.6,5.7c0.2,1.1,0.6,2.1,0.8,3.2c0.9,4.7,1.4,9.5,3,14c0.4,0.8,0.2,1.7-0.5,2.2
		c-0.9,0.7-2.2,0.6-2.9-0.3c-0.9-1.2-1.6-2.6-2-4c-0.6-2.2-0.8-4.6-1.1-6.9c-0.3-1.8-0.6-3.5-1-5.2c-0.2-0.9-0.6-1.7-1.6-1.6
		c-0.7,0.1-1.3,0.5-1.7,1c-1.8,2.6-2.9,5.6-3.2,8.8c0,1.1,0,2.2-0.2,3.3c-0.2,0.9-0.6,1.8-1.2,2.5c-0.6,0.5-1.4,0.8-2.2,0.8
		c-0.9,0-1.2-1-1.2-1.9c-0.1-1.4,0-2.8-0.2-4.1c-0.3-1.9-0.7-3.7-1.2-5.6c-0.2-0.5-0.4-1-0.8-1.4c-0.6-0.8-1.8-1-2.6-0.4
		c-0.3,0.2-0.5,0.5-0.7,0.9c-0.3,1.3-0.5,2.7-0.6,4c-0.2,1.5-0.3,3-0.5,4.5c-0.1,0.7-0.4,1.3-0.7,1.9c-0.5,0.9-1.5,1.3-2.5,1.1
		c-0.8-0.1-1.5-0.8-1.6-1.6c-0.1-0.8-0.2-1.6-0.2-2.4c0.2-4.9,0.4-9.8,0.5-14.7c-0.1-1.2,0.3-2.5,1.1-3.4c0.6-0.8,1.6-0.9,2.4-0.3
		c0.2,0.1,0.3,0.3,0.4,0.5c0.8,1.8,2.4,3,4.4,3.2c1.3,0.3,2.5,1,3.5,2c1,1,1.8,0.8,2.8-0.2c0.8-0.8,1.4-1.6,2.2-2.5
		C1074.1,106.2,1075.3,105.2,1076.7,104.4z"/>
	<path d="M1169,121.8c-0.8,0.2-1.6,0.4-2.4,0.6c-1.2,0.5-2.6,0.1-3.3-0.9c-0.6-0.7-1.1-1.6-1.3-2.5c-0.8-4.2-1-8.4-0.5-12.6
		c0.2-0.9,0.6-1.8,1.2-2.5c0.5-0.7,1.6-0.9,2.3-0.4c0.3,0.2,0.5,0.5,0.6,0.9c0.3,0.9,0.5,1.8,0.5,2.8c0.1,1.8,0.1,3.6,0.2,5.3
		c-0.1,1.3,0.3,2.6,1.1,3.6c0.6-0.1,1.2-0.2,1.8-0.5c2-1.3,3.2-3.5,3.5-5.8c0.3-1.8,1-3.4,2.1-4.9c0.3-0.4,0.7-0.8,1.1-1.2
		c0.8-0.5,1.9-0.3,2.4,0.5c0,0,0.1,0.1,0.1,0.1c1.1,1.8,0.8,3.7,0.2,5.6c-0.7,2.4-1.6,4.7-2.2,7c-0.5,1.8-0.9,3.7-1.2,5.6
		c-0.9,6-1.9,11.9-2.7,17.9c-0.4,3.2-0.5,6.5-0.8,9.8c-0.1,1.1-0.2,2.2-0.4,3.2c-0.2,1.1-1.2,1.9-2.3,1.9c-1.1,0.2-2.2-0.6-2.4-1.8
		c-0.1-0.7-0.1-1.3,0-2c0.8-8.2,1.8-16.3,2.6-24.5C1169.3,125.4,1170.1,123.7,1169,121.8z"/>
	<path d="M1204,62.3h3.3c-0.1,0.4,0,0.8-0.2,0.9c-0.8,0.7-1.7,1.4-2.6,2c-2.7,1.7-4.2,1.3-5.5-1.6c-0.3-0.7-0.6-1.5-0.9-2.1
		c-1.1-0.8-2-0.4-2.8,0c-1.7,0.9-3.5,1.6-5.3,2.2c-5.4,1.4-7.2-0.2-6.5-5.7c0.3-1.6,0.7-3.2,1.3-4.7c1.9-5.4,5-10.4,9.2-14.4
		c0.7-0.7,1.4-1.3,2.2-1.8c1.9-1.4,4.7-1,6.1,1c0.3,0.4,0.5,0.8,0.6,1.2c0.6,1.7,1.2,3.3,2.6,4.6c0.8,0.8,1,2,0.6,3
		c-0.6,1.8-1.4,3.6-2,5.4C1203,55.5,1202.9,59,1204,62.3z M1188.8,59.3c0.8,0,1.5-0.1,2.3-0.3c2.9-1.2,4.8-3.4,6.6-5.9
		c0.1-0.2,0.2-0.5,0.3-0.8c0.4-1.6,0.9-3.1,1.3-4.7c0.4-1.3,0.3-2.7-0.3-4c-0.3-0.7-1.2-1-1.9-0.7c-0.1,0-0.1,0.1-0.2,0.1
		c-0.4,0.3-0.8,0.7-1.1,1.1c-1.8,2.9-3.6,5.8-5.3,8.7C1189.3,54.9,1188.8,57.1,1188.8,59.3L1188.8,59.3z"/>
	<path d="M936.5,193.1c0.1-4.7,1.3-9.3,3.4-13.4c1.1-2.2,2.8-4.1,4.8-5.6c1.7-1.3,4.1-1.1,5.6,0.5c1,1,1.6,2.3,1.8,3.6
		c0.1,1.6,0.6,3.2,1.4,4.7c0.3,0.8,0.5,1.6,0.4,2.4c0.1,0.8,0,1.6,0,2.4c0.2,4.6,1.2,5.7,5.7,6.2c0.3,0,0.5,0,0.8,0.1
		c0.5,0.2,1.2,0.5,1.2,0.9c0.1,0.6,0,1.3-0.4,1.8c-2,2.4-5,2.7-7.7,0.7c-0.5-0.5-1-0.9-1.4-1.5c-1.3-1.3-2.2-1.3-3.5,0
		c-1.5,1.9-3.4,3.5-5.6,4.7c-2.6,1.2-3.7,0.9-5.2-1.4C936.7,197.5,936.1,195.3,936.5,193.1z M941.7,191.8c0,0.7,0.1,1.4,0.2,2.1
		c0.1,0.3,0.5,0.5,0.9,0.6c0.2,0.1,0.5-0.2,0.6-0.4c0.2-0.3,0.3-0.7,0.3-1.1c-0.2-2.1,0.5-4.1,2-5.6c1.6-1.7,1.7-3.9,1.9-6.1
		c0-0.5-0.3-1-0.8-1.2c-0.5-0.1-1,0.1-1.4,0.5c-0.5,0.5-0.9,1-1.2,1.6C942.3,184.9,942,188.1,941.7,191.8L941.7,191.8z"/>
	<path d="M939,34.8c1.1-0.1,2.3-0.3,3.5-0.3c0.9,0,1.7,0.5,2,1.3c0.4,0.7,0.3,1.7-0.2,2.3c-0.3,0.4-0.7,0.8-1.2,1.1
		c-0.6,0.4-1.2,0.7-1.8,1c-4.8,2.4-4.4,1.9-4.8,7.5c-0.2,2.9-0.4,5.7-0.6,8.6c0,0.5-0.1,1.1-0.2,1.6c-0.1,1-0.9,1.8-1.9,1.8
		c-1.1,0.1-2.2-0.6-2.5-1.7c-0.3-1.1-0.4-2.2-0.4-3.2c0.1-4.4,0.2-8.7,0.4-13.1c0.3-6.6,1.7-13,3-19.4c0.6-3.1,2.1-6,4.2-8.3
		c1.9-2,4.1-2.1,6.1-0.3c1.5,1.3,2.5,3,2.9,4.8c0.2,0.9-0.3,1.7-1.2,2c-0.1,0-0.2,0-0.4,0c-0.7,0-1.3-0.1-2-0.3
		c-1.2-0.3-2.5,0.3-3.1,1.4c-0.1,0.1-0.2,0.2-0.2,0.4c-0.9,4-2.7,7.8-2.3,12C938.5,34.1,938.8,34.4,939,34.8z"/>
	<path d="M920.1,242.4c0.6-0.2,1.2-0.4,1.7-0.7c0.8-0.6,1.5-1.2,2.1-1.9c2.6-3.1,7.6-2.7,9.8,2.5c0.6,1.6,0.4,3.3-0.6,4.7
		c-3.1,5-7.3,8.5-13.2,9.6c-1.2,0.3-2.4,0.4-3.7,0.4c-0.5-0.1-1-0.4-1.2-0.9c0-0.5,0.2-1,0.7-1.4c0.7-0.4,1.5-0.7,2.2-1
		c3.5-1.7,7-3.3,9.4-6.4c0.2-0.3,0.6-0.6,0.8-0.9c0.7-0.9,0.8-1.7,0.2-2.2c-0.7-0.5-1.6-0.6-2.3-0.1c-0.7,0.4-1.3,1-1.8,1.6
		c-1,1.2-1.8,2.4-2.7,3.6c-0.4,0.7-1,1.3-1.6,1.9c-1.1,1-2.8,1-3.8,0c-0.3-0.3-0.5-0.6-0.6-1c-0.6-1.4-1-2.9-1.1-4.4
		c-0.8-5.3-1-10.7-0.9-16c0.3-2.4,0.6-4.9,1.2-7.3c0.1-0.4,0.3-0.8,0.5-1.1c0.4-0.8,1.3-1.1,2.1-0.9c0.6,0.3,1.1,0.8,1.2,1.4
		c0.2,2.9,0.3,5.7,0.2,8.6C918.8,233.4,919.2,239.7,920.1,242.4z"/>
	<path d="M1070.7,50.8c0.1-3.1,0.2-6.3,0.3-9.4c0.1-2.7,1-3.6,3.8-3.5c1.1,0.1,2.2-0.4,2.8-1.3c0.2-0.3,0.4-0.7,0.6-1
		c0.6-1.3,2-2,3.4-1.7c1.7,0.3,3.2,0.9,3.7,2.7c0.4,1.2,0.6,2.4,0.7,3.6c0.2,3.5,0.2,7.1,0,10.6c-0.5,3.2-0.6,6.5-0.3,9.8
		c0.2,1.8-0.4,2.7-1.6,2.8c-1.2,0.1-2.2-0.6-2.7-2c-0.7-2.2-0.8-4.6-0.4-6.9c0.2-2.7,0.3-5.4,0.4-8.2c0-0.5-0.1-1.1-0.3-1.6
		c-0.3-0.4-0.8-0.6-1.3-0.3c0,0-0.1,0.1-0.1,0.1c-0.4,0.4-0.6,0.9-0.8,1.4c-1.2,4.9-2.4,9.8-3.6,14.7c0,0.3-0.1,0.5-0.2,0.8
		c-0.5,1.2-1.6,1.9-2.9,1.8c-1-0.2-1.6-1.1-1.7-2.1c-0.1-0.8-0.1-1.6-0.1-2.5c0-2.6,0-5.2,0-7.8L1070.7,50.8z"/>
	<path d="M1112.7,110.2c-0.1,1.1-0.1,1.8-0.2,2.4c-0.8,4.3-0.5,8.8,0.9,12.9c0.4,0.8,0.2,1.7-0.5,2.2c-1,0.6-2.3,0.3-2.9-0.7
		c0,0,0,0,0,0c-0.9-1.4-1.4-3-1.7-4.6c-0.1-0.8-0.8-1.3-1.6-1.3c-0.4,0-0.7,0.2-1,0.5c-1.4,1.1-2.7,2.4-4.1,3.4
		c-1.9,1.4-4.1,2.2-6.4,2.6c-1.9,0.4-3.7-0.7-4.2-2.6c-0.1-0.5-0.1-1,0-1.5c0.7-2.8,1.6-5.5,2.7-8.2c0.6-1.5,1.5-2.9,2.2-4.4
		c1.4-3.1,3.8-5.3,6.2-7.6c1.8-1.8,3.8-1.4,5.7,0.4c0.9,1,2,1.8,3.1,2.7C1112.1,107.5,1112.8,108.8,1112.7,110.2z M1097,123
		c0.5-0.1,1.1-0.3,1.6-0.5c2.6-1.7,4.8-4,6.3-6.8c0.5-0.9,0.8-2,0.9-3.1c0.2-1.7-0.3-3.1-1.2-3.1c-1.3-0.1-1.8,1.1-2.5,1.9
		c-0.3,0.3-0.5,0.6-0.7,1c-1.2,2-2.4,3.9-3.4,6C1097.1,119.7,1096.7,121.4,1097,123L1097,123z"/>
	<path d="M837.2,323.4c-1.2,2-3.3,3.4-5.6,3.6c-1,0.2-2-0.3-2.5-1.1c-1-1.6-2-3.2-3.2-5.2c-0.8,0.1-1.7,0.3-2.5,0.5
		c-1.5,0.6-3,1.4-4.5,1.9s-2.5,0.3-3.5-1.2c-0.6-0.9-1.1-1.9-1.3-3c-0.3-1.2-0.3-2.5-0.1-3.7c0.9-5.6,3.2-10.8,6.8-15.2
		c1.8-2.2,3.5-2.3,5.6-0.4c2.4,2.1,3.9,5.1,4,8.2c0.1,2.6,0,5.2,0.2,7.8c0.2,1.8,0.5,3.5,1,5.2c0.6,2.1,1.2,2.4,3.6,2.3
		C835.8,323.3,836.3,323.4,837.2,323.4z M820.2,315.4c1.6-0.1,3-1,3.6-2.5c1.1-2,1.2-4.4,0.5-6.6c-0.8,0.4-1.9,0.5-2.1,1
		c-1,2.1-2.3,4-2.3,6.4C820,314.4,820.1,314.9,820.2,315.4L820.2,315.4z"/>
	<path d="M1054.7,262.8c-0.6,1.3-2,2.1-3.4,2c-1,0.2-2-0.5-2.2-1.4c-0.6-1.8-1.1-3.7-1.4-5.5s-1.3-3.3-1.8-4.9s0.6-3.4,0.6-5.2
		c0.1-2.5-0.2-4.9-0.2-7.4c-0.1-4.5,0.6-9,2.1-13.3c0.4-1,0.9-2,1.5-2.9c1-1.4,2.8-1.7,4.2-0.7c0.3,0.2,0.5,0.4,0.7,0.7
		c0.3,0.3,0.5,0.6,0.7,1c0.8,2.6,1.6,5.2,2.3,7.8c0.2,1-0.5,1.9-1.5,2.1c0,0,0,0,0,0l-0.4,0.1c-3.1,0.7-3.4,0.9-3.7,3.8
		c-0.1,1.5-0.1,3,0,4.5c0,0.8,0.7,1.4,1.4,1.4c0.2,0,0.4-0.1,0.6-0.2c0.8-0.5,1.7-0.8,2.6-1.2c0.8-0.2,1.6-0.1,2.4,0.1
		c0.9,0.3,1.3,1.3,1,2.2c-0.1,0.2-0.2,0.4-0.3,0.6c-0.6,0.6-1.2,1.1-1.9,1.5c-1.1,0.8-2.2,1.6-3.3,2.4c-1.3,0.9-2,2.3-1.8,3.9
		C1052.9,257.1,1052.6,260.2,1054.7,262.8z"/>
	<path d="M909.1,197.3c-0.4,0.6-0.9,1.2-1.5,1.8c-0.7,0.7-1.9,0.7-2.6,0c-1-1.1-1.9-2.3-3-3.7c-0.7,0.3-1.4,0.6-2,0.9
		c-0.8,0.5-1.5,1.3-2.2,1.8c-0.8,0.6-1.6,1-2.5,1.3c-3.4,1.1-5.6-0.1-6.3-3.6c-0.4-2.3-0.3-4.7,0.4-6.9c0.9-3.2,1.9-6.3,3.2-9.3
		c0.9-1.9,2-3.6,3.3-5.2c0.8-0.9,1.9-1.6,3-2.1c1.3-0.7,2.8-0.4,3.8,0.7c1.3,1.5,2.6,3.2,3.7,4.9c0.3,0.7,0.5,1.6,0.4,2.4
		c0.1,1.8,0.1,3.6,0,5.4C906.2,189.6,907.1,193.7,909.1,197.3z M893.4,195.1c0.9,0,1.7-0.2,2.6-0.6c2.6-1.6,4.4-4.2,5.1-7.1
		c0.4-1.6,0.6-3.2,0.7-4.9c0-1.2-0.2-2.4-0.6-3.6c-0.3-0.6-0.9-0.9-1.5-1c-0.7,0.1-1.2,0.5-1.7,1c-0.3,0.4-0.5,0.9-0.7,1.5
		c-0.9,2.1-1.6,4.4-2.6,6.4C893.5,189.4,893.5,192.1,893.4,195.1z"/>
	<path d="M862.7,175.2c0-1.8-0.1-4.5,0-7.2c0.1-1.2,0.4-2.4,0.9-3.5c0.4-0.8,1.4-1,2.1-0.6c0.2,0.1,0.4,0.3,0.6,0.5
		c0.5,0.8,0.8,1.7,0.9,2.7c0.2,2.6,0.2,5.2,0.4,7.8c0.1,1.3,0.2,2.7,0.5,4c0.2,0.6,0.8,0.9,1.4,0.7c0.1,0,0.2-0.1,0.2-0.1
		c0.9-0.6,1.7-1.4,2.6-2c1.4-0.9,3.2-0.9,4.7,0c1.8,0.9,3,2.6,3.3,4.5c0.5,4.5,1.2,9,0.4,13.5c-0.1,1.5-0.9,2.9-2.2,3.8
		c-0.6,0.4-1.4,0.3-1.8-0.3c-0.1-0.1-0.2-0.3-0.2-0.4c-0.2-1.1-0.3-2.1-0.3-3.2c0-2.9,0.1-5.7,0.1-8.6c0-0.8-0.1-1.6-0.3-2.4
		c-0.2-0.7-1-1.1-1.7-0.8c-0.1,0-0.2,0.1-0.3,0.2c-0.7,0.6-1.3,1.4-1.8,2.2c-1.1,2.2-2,4.5-3,6.7c-0.2,0.4-0.2,0.8-0.4,1.2
		c-0.8,1.7-1.9,2.5-3,2.2c-1.5-0.5-1.5-1.8-1.7-3C863.7,187.4,863.2,181.8,862.7,175.2z"/>
	<path d="M806.5,97.3c1.1,0.2,2.2,0.3,3.2,0.5c3.4,0.4,6,3.1,6.4,6.5c0.5,3.2,0.8,6.5,1.1,9.8c0.2,2.9-0.2,5.8-1.2,8.5
		c-0.4,1.6-1.6,2.9-3.1,3.6c-0.6,0.3-1.3,0.1-1.7-0.5c-0.1-0.2-0.1-0.3-0.1-0.5c-0.1-0.8,0-1.6,0.3-2.4c1.6-4,1.8-8.2,1.7-12.5
		c-0.1-2.1-0.6-4.1-1.7-5.8c-0.6-1.3-2.1-1.9-3.4-1.4c0,0,0,0-0.1,0c-1.7,0.4-2.8,1.9-2.8,3.6c-0.2,3.8-0.3,7.6-0.4,11.5
		c0,1.2,0.1,2.5,0,3.7c0,0.8-0.3,1.6-0.7,2.3c-0.5,0.6-1.2,1.1-2,1.2c-0.9,0.1-1.4-0.8-1.6-1.6c-0.7-4.2-1.7-8.3-1.2-12.6
		c0.3-2.8,0.8-5.7,1.5-8.4c0.5-1.9,0.3-4.1,0.4-6.1c0-0.9,0.1-1.9,0.2-2.8c0.2-0.9,1-1.4,1.9-1.3c0.7,0.1,1.2,0.4,1.6,0.9
		C805.6,94.6,806.1,95.9,806.5,97.3z"/>
	<path d="M936.2,110.3c1.3,1,2.3,0.4,3.3,0c1.1-0.4,2.3-0.8,3.5-1c0.7,0,1.3,0.4,1.7,0.9c0.5,0.7,0.5,1.7-0.2,2.2
		c-0.3,0.4-0.8,0.7-1.2,1c-1.3,0.8-2.6,1.5-4,2c-3.7,1-3.7,2.6-3.5,5.4c0.2,3.4,0.8,6.7,2,9.9c-2.4,1.9-4.2,1.6-5.1-1
		c-0.8-2.6-1.4-5.3-1.9-8c-0.8-3.6-0.8-7.3,0.1-10.9c0.4-1.7,0.5-3.5,0.5-5.3c0.2-5.7,1.9-11,4-16.2c0.3-0.6,0.6-1.2,1-1.8
		c1.4-1.8,3.7-1.8,4.8,0.1c0.9,1.4,1.5,3,1.9,4.6c0.5,2-0.2,3.2-2.4,3.9c-1.8,0.5-3,2-3.2,3.8C936.8,103.3,936.1,106.7,936.2,110.3z
		"/>
	<path d="M967.3,129.9c-0.6,0.4-1.2,0.8-1.9,1.1c-1.2,0.5-2.6,0-3.1-1.2c0,0,0,0,0-0.1c-0.7-1.1-0.7-2.7-2.2-3.4
		c-1.5-0.1-2,1.2-2.9,2c-1.1,1-2.3,1.9-3.5,2.8c-1.7,1-3.2,0.4-4.1-1.4c-0.4-0.7-0.7-1.5-0.8-2.3c-0.7-3.5-0.8-7.1-0.5-10.6
		c0.4-3.1,0.9-6.2,1.3-9.3c0.2-1.1,0.3-2.2,1.2-2.9c0.5-0.4,1.2-0.6,1.9-0.5c0.6,0.2,1.1,0.7,1.3,1.3c0.2,0.9,0.3,1.9,0.2,2.8
		c-0.3,2.9-0.6,5.7-0.9,8.6c-0.4,2.4-0.4,4.8,0,7.2c1.5,0.9,2.3-0.1,2.7-1.1c1.2-2.6,2.2-5.3,3.1-8c0.6-1.8,0.8-3.8,1.2-5.6
		c0.2-0.9,0.6-1.8,1-2.7c0.6-1,1.9-1.3,2.9-0.7c0.4,0.3,0.8,0.7,0.9,1.2c0.2,1.1,0.3,2.2,0.2,3.2c-0.1,3-0.5,6-0.5,9
		C964.8,124.7,964.9,124.9,967.3,129.9z"/>
	<path d="M1218.1,43.5c1.4,0,2.2,0,3,0c0.8-0.1,1.6-0.1,2.5-0.1c1.3,0,2.3,1.1,2.2,2.4c0,0.5-0.2,0.9-0.4,1.3
		c-0.4,0.7-1.1,1.2-1.8,1.5c-1.2,0.4-2.4,0.6-3.6,0.7c-3.1,0.5-3.3,0.6-3.9,3.7c-0.6,3.4-0.7,6.8-0.4,10.2c0,0.5,0.2,1.1,0.2,1.6
		c0.2,1.1-0.5,2.1-1.6,2.3c-0.1,0-0.1,0-0.2,0c-1.1,0.3-2.3-0.3-2.6-1.4c-0.5-2.1-0.8-4.3-0.9-6.5c0.1-5.9,0.8-11.7,2.1-17.5
		c0.3-1.6,0.9-3.2,1.1-4.8c0.7-5.2,2.7-10,4.4-14.9c0.2-0.6,0.5-1.2,1-1.7c1.4-1.4,3.2-0.8,3.7,1.1c0.3,1.8,0.1,3.6-0.5,5.2
		c-1.4,4.3-2.7,8.6-3.9,12.9C1218.4,41,1218.2,42.2,1218.1,43.5z"/>
	<path d="M966.4,54.7c-1.2,1.2-2.5,1.7-3.8,0.7c-2.2-1.7-4-1.2-5.8,0.5c-1.7,1.5-4,2.1-6.2,1.7c-1.9-2.2-2.9-5-2.9-7.9
		c-0.2-5.4,1-10.6,2.7-15.7c0.2-0.5,0.4-1,0.7-1.5c0.7-1.1,2.1-1.5,3.2-1.1c1,0.4,1.5,1.2,1.3,2.7c-0.2,1.1-0.4,2.2-0.6,3.2
		c-0.6,2.5-1.2,5.1-1.8,7.6c-0.7,2.6-0.5,5.3,0.5,7.7c1.4-0.2,2.5-1.1,2.9-2.4c2-4.1,3.5-8.3,4.6-12.7c0.2-1.1,0.5-2.1,0.8-3.2
		c0.3-1,1.2-1.3,2.4-1.1c1.5,0.2,2.4,0.8,2.3,1.9c0,1.4-0.2,2.7-0.6,4C964.1,44.2,964.1,49.8,966.4,54.7z"/>
	<path d="M824.8,26c0,0.5-0.1,0.9-0.3,1.3c-0.8,1.2-0.6,2.9,0.6,3.8c4.2,3.8,3.8,8.9,3.3,13.7c-0.4,3.6-3,6-6.5,7.2
		c-1.6,0.5-3.2,0.8-4.8,1c-3.2,0.5-5.1-1.3-5.6-4.1c-0.4-2-0.5-4.1-0.3-6.1c0.8-6.1,3.5-11.9,7.7-16.4c1.1-1.2,2.3-2.1,3.9-1.6
		C823.5,25.1,824.2,25.5,824.8,26z M817.3,48.4c3.5-1.1,5.3-3.2,5.6-6.5c0.2-2.4,0-4.9-0.8-7.2c-0.2-0.5-0.6-0.9-0.9-1.3
		c-2.7,1-3.2,3.5-3.8,5.6C816.5,41.8,815.5,44.9,817.3,48.4z"/>
	<path d="M1067.2,42.3c-1.4,4.3-2.2,8.9-2.3,13.4c0,0.5-0.1,1.1-0.3,1.6c-0.3,0.8-1.1,1.3-1.9,1.2c-0.6-0.2-1.2-0.5-1.6-1
		c-0.4-0.5-0.6-1.1-0.8-1.7c-1.8-0.5-2.8,0.7-3.8,1.4c-1.9,1.3-4.2,2.1-6.5,2.3c-0.7,0.1-1.3,0.1-2,0c-1.3,0-2.4-1-2.5-2.3
		c-0.2-1.1-0.2-2.2-0.2-3.3c0-0.8,0.2-1.6,0.5-2.4c2.1-5.9,5-11.2,10.1-15.1c0.5-0.5,1.1-0.9,1.6-1.3c1.4-1,3.4-0.6,4.4,0.7
		c0.7,0.8,1.4,1.7,2,2.6c0.5,0.7,0.8,1.5,1.3,2.1C1065.8,41.2,1066.4,41.7,1067.2,42.3z M1059.5,41.5c-1.2-0.1-2.4,0.4-3.1,1.4
		c-1.8,2.4-3.5,4.8-5.1,7.4c-0.6,1.2-1,2.6-1.1,3.9c-0.3,1.6,0.8,2.4,2.2,1.8c2.3-1,4.3-2.5,5.8-4.4c1-1.3,1.8-2.7,1.2-4.5
		c-0.3-0.9,0.2-2.1,0.3-3.2C1059.7,43.1,1059.6,42.3,1059.5,41.5L1059.5,41.5z"/>
	<path d="M1134.1,259.8c-2.5,0.7-3.3,0.5-4-1c-0.3-0.8-0.5-1.6-0.6-2.4c-0.2-3-0.4-6-0.5-9c-0.1-1.4,0.1-2.7,0-4.1
		c-0.1-0.8-0.4-1.6-0.8-2.2c-1.3-2.1-1.4-2.2,0.1-3.8c1-1,1.5-2.3,1.5-3.7c0.1-4,0.2-7.9,0.3-11.9c-0.1-1-0.1-1.9,0-2.9
		c0.2-0.9,0.6-1.8,1.2-2.5c0.8-0.9,2.2-1,3.1-0.1c0.3,0.2,0.5,0.6,0.6,0.9c0.4,1.2,0.6,2.4,0.6,3.6c0,3.4-0.1,6.8-0.2,10.2
		c0,0.7,0,1.3,0,1.9c1.4,1,2.5,0,3.6-0.2c0.9-0.3,2,0,2.6,0.8c0.8,1,0.8,2.4,0,3.4c-0.9,1.2-2.2,2.1-3.7,2.5
		c-2.3,0.6-3.3,2.2-3.4,4.5c-0.1,4.2-0.3,8.5-0.4,12.7C1134.1,257.7,1134.1,258.6,1134.1,259.8z"/>
	<path d="M1184.3,235.7c0.3-0.2,0.7-0.4,1.2-0.8c2.6-2,3.1-2,5.5,0.2c0.8,0.7,1.5,1.6,2.1,2.5c2.6,4.6,4.3,9.7,5,15
		c0.2,1.4,0.5,2.7,0.7,4c0.2,0.8-0.2,1.7-1.1,2c-0.7,0.4-1.6,0.2-2-0.5c0-0.1-0.1-0.1-0.1-0.2c-0.6-1.3-1.2-2.7-1.6-4.2
		c-0.8-2.8-1.3-5.6-2.1-8.4c-0.3-0.9-0.7-1.8-1.2-2.5c-0.5-0.6-1.3-0.7-1.9-0.2c-0.3,0.2-0.4,0.5-0.5,0.8c-0.6,2.4-1,4.8-1.6,7.2
		c-0.5,1.7-1.1,3.4-1.8,5c-0.2,0.5-0.5,1-0.8,1.4c-0.7,1-2.1,1.3-3.1,0.6c-0.4-0.3-0.7-0.7-0.9-1.1c-0.2-0.6-0.4-1.3-0.4-2
		c-0.1-1.2-0.2-2.5-0.1-3.7c0.2-3.4,0-6.8-0.6-10.2c0-0.3,0-0.5-0.1-0.8c-0.2-4.1,0.6-4.7,4.7-4
		C1183.8,235.8,1183.9,235.8,1184.3,235.7z"/>
	<path d="M1338.6,117.7c3.9,1.6,6.7-1.8,10.5-1.4c-0.2,0.6-0.5,1.1-0.9,1.6c-2.4,2.2-5.4,3.8-8.6,4.6c-0.5,0.1-1.1,0.2-1.6,0.2
		c-3,0.1-5.2-1.8-4.8-4.8c0.4-3.2,0.8-6.5,2.5-9.5c1-1.7,1.9-3.3,2.9-5c2.1-3.4,5.2-6.1,9-7.5c1.5-0.5,3.2-0.8,4.8-0.8
		c1.7,0,3.2,1,3.9,2.6c0.8,1.3,0.7,3-0.3,4.2c-2.8,3.6-6.7,6.2-11.2,7.1c-0.7,0.1-1.4,0.1-2,0.3c-1.3,0.2-2.3,1-2.7,2.2
		C1339.1,113.5,1338.6,115.6,1338.6,117.7z M1351.1,100.6c0.1-1-0.5-1-1-0.9c-2.5,0.5-3.2,1.1-3.9,3.3
		C1348.3,102.9,1349.6,101.5,1351.1,100.6z"/>
	<path d="M1313.1,121.4c-0.7,1.5-2,1.8-3.4,1.9c-1.1,0.1-2.2-0.5-2.7-1.5c-0.2-0.3-0.4-0.7-0.7-1c-1.3-1.7-1.9-1.9-3.8-1
		c-4.4,2-5.3,1.5-6.5-3.2c-0.9-3.6-0.3-7.1,0-10.6c0.2-2.7,0.5-5.4,0.8-8.1c0.1-0.9,0.2-1.9,0.5-2.8c0.2-0.8,1-1.4,1.9-1.3
		c0.8,0.1,1.5,0.6,1.9,1.3c0.4,1.2,0.6,2.4,0.5,3.6c-0.2,3.4-0.6,6.8-1,10.2c-0.2,1.9-0.6,3.8,0.2,5.9c0.8-0.1,1.5-0.2,2.2-0.5
		c1.2-0.9,2-2.3,2.2-3.8c0.5-2.1,0.8-4.3,1.4-6.4c0.4-1.4,1-2.8,1.7-4.1c0.5-0.6,1.2-1.1,2-1.3c0.8-0.2,1.7,0.2,1.9,1.1
		c0,0,0,0,0,0.1c0.2,0.7,0.2,1.3,0.2,2c-0.5,2.5-1.1,5.1-1.6,7.6c-0.4,1.9-0.6,3.7-0.8,5.6c-0.3,2.1,0.6,4.2,2.3,5.4
		C1312.6,120.6,1312.8,121,1313.1,121.4z"/>
	<path d="M791.5,26.9c-0.1-1.7,0.7-2.3,1.7-2.5c3.9-0.7,7.5-2.7,11.5-2.6c1.2-0.1,2.4-0.3,3.6-0.7c1.1-0.2,2.1-0.4,3.2-0.5
		c1,0,1.9,0.5,2.3,1.5c0.5,0.9,0.2,2-0.6,2.6c-1.2,0.8-2.5,1.6-3.8,2.2c-0.7,0.4-1.6,0.4-2.3,0.8c-1.3,0.5-2.3,1.6-2.7,2.9
		c-0.4,1.6-1,3.1-1.3,4.7c-0.8,4.7-1.6,9.4-2.1,14.1c0,1.9,0.1,3.8,0.4,5.7c0.2,0.8-0.2,1.7-1,2.1c-0.9,0.4-1.9,0.2-2.6-0.5
		c-0.9-1-1.5-2.3-1.6-3.7c-0.5-3.9-0.4-7.9,0.2-11.8c0.5-3,0.8-5.9,1.2-8.9c0.1-0.5,0.1-1.1,0-1.6c0.1-1.3-0.7-2.4-2-2.7
		C794.2,27.6,792.9,27.3,791.5,26.9z"/>
	<path d="M839.7,192c0-0.6,0.1-1.1,0.1-1.7c1.4-5.7,3-11.4,7.3-15.8c0.4-0.5,0.9-1,1.5-1.4c2.9-1.8,3.8-1.6,6.2,0.3
		c3.5,2.9,4.5,6.4,3.2,10.6c-0.3,0.9-0.5,1.9-0.7,2.8c-0.6,2-0.4,4.1,0.4,6c0.3,0.6,0.5,1.3,0.6,1.9c0.1,0.9-0.5,1.7-1.4,1.8
		c-0.1,0-0.2,0-0.3,0c-0.4,0-0.8-0.1-1.2-0.3c-2-2-4-1.2-6-0.1c-1.3,0.8-2.7,1.3-4.2,1.4c-2.7,0.2-4.1-0.7-5-3.2
		C840,193.6,839.8,192.8,839.7,192z M844.7,192.6c0.4,0.1,0.9,0.2,1.3,0.2c2.7-0.8,4.8-2.8,5.8-5.4c0.7-2.4,1.2-4.8,1.5-7.2
		c0.2-1.1-0.5-2-1.6-2.2c-0.6-0.1-1.3,0.1-1.7,0.6c-0.3,0.3-0.6,0.6-0.9,0.9c-2.7,3.3-4,7.1-4.6,11.2
		C844.4,191.3,844.5,192,844.7,192.6L844.7,192.6z"/>
	<path d="M916.7,176.3c1.3-0.2,2.4-0.4,3.5-0.5c1.7-0.3,3.4,0.4,4.3,1.8c1.8,2.6,3.5,5.2,3.8,8.5c0.3,2.9,0.7,5.7,1,8.6
		c0.1,0.5,0.1,1.1,0,1.6c-0.2,0.9-1,1.6-2,1.8c-0.9,0-1.6-0.5-1.8-1.4c-0.2-0.8-0.4-1.6-0.5-2.4c-0.3-2.2-0.5-4.4-0.8-6.5
		c-0.2-1.3-0.6-2.7-1.1-3.9c-0.3-1-1.2-1.6-2.2-1.5c-1,0.2-1.7,1.1-1.7,2.1c-0.1,1.1,0,2.2-0.1,3.3c-0.4,3.4-0.8,6.8-1.2,10.2
		c-0.1,0.4-0.2,0.8-0.5,1.1c-0.5,0.8-1.5,1.3-2.5,1.1c-0.8-0.1-1.5-0.7-1.7-1.6c-0.2-0.9-0.3-1.9-0.4-2.8c-0.2-4-0.3-7.9-0.4-11.9
		c0.1-2.1-0.2-4.1-0.9-6.1c-0.1-0.3-0.2-0.5-0.2-0.8c-0.3-1.2-0.5-2.4,0.7-3.4c0.6-0.5,2.2-0.3,3.2,1.1
		C915.5,175.1,916.1,175.6,916.7,176.3z"/>
	<path d="M1210.2,232.1c1.6,1.1,2.9,0.1,4.2,0c0.8,0,1.7,0,2,1c0.2,0.8-0.2,1.7-0.9,2.1c-1,0.7-2.1,1.3-3.2,1.7
		c-2.5,0.8-3.2,2.5-3.3,5c0,5.2,0.3,10.4,0.9,15.5c0.2,0.9,0.5,1.8,0.8,2.7c0.4,0.9,0.1,2-0.8,2.4c-0.1,0.1-0.3,0.1-0.4,0.1
		c-1.3,0.5-2.3,0.3-2.8-0.8c-0.6-1.2-1.1-2.5-1.3-3.8c-0.5-3.9-0.9-7.9-1.2-11.8c-0.2-2.2,0.1-4.3-1.3-6.3c-0.3-0.7-0.3-1.6,0.1-2.3
		c1.3-2,1.2-4.1,1.3-6.3c0.2-3.8,0.4-7.6,1.8-11.3c0.2-0.6,0.5-1.3,0.8-1.9c0.7-0.9,1.9-1.1,2.8-0.4c0.2,0.2,0.4,0.4,0.6,0.7
		c0.3,0.9,0.5,1.8,0.5,2.8c-0.1,2.9-0.3,5.7-0.5,8.6C1210.2,230.6,1210.2,231.4,1210.2,232.1z"/>
	<path d="M848.2,113c0.4-0.3,0.8-0.4,0.8-0.6c1.7-4,3.9-7.8,4.2-12.3c0-0.4,0.1-0.8,0.2-1.2c0.3-1.1,1.1-1.9,1.9-1.9
		c1,0,1.9,0.6,2.3,1.4c0.9,1.7,1.1,3.7,0.4,5.6c-1.4,4-3,7.9-4.5,11.9c-0.6,1.6-1.3,3.3-2,4.9c-0.5,1.1-1.1,2.2-1.9,3.1
		c-1.2,1.4-3.3,1.5-4.7,0.3c-0.5-0.4-0.8-0.9-1-1.5c-0.9-2.3-1.6-4.7-2-7.1c-0.7-4.9-0.9-9.8-0.4-14.7c0-1,0.5-1.9,1.3-2.4
		c0.8-0.6,2-0.4,2.6,0.4c0.1,0.1,0.1,0.2,0.2,0.3c0.3,0.8,0.4,1.6,0.5,2.4c0.2,2.6,0.3,5.2,0.5,7.8c0,1,0.2,1.9,0.4,2.8
		C847.2,112.5,847.9,112.7,848.2,113z"/>
	<path d="M1027.7,45.8c3.4-5.1,3.4-5.1,4.3-11c0.5-3.8,1.1-7.6,1.7-11.3c0.1-0.4,0.1-0.8,0.3-1.2c0.4-1,1.3-1.8,2.5-1.9
		c1.2,0,2.1,1,2.1,2.1c0.2,2.4,0.2,4.9,0,7.3c-0.2,1.9-0.7,3.8-1,5.6c-0.2,0.9-0.2,1.9-0.3,3.1c0.8,0.2,1.6,0.3,2.4,0.3
		c1.5,0,3-0.2,4.5-0.2c0.9,0.1,1.5,0.9,1.4,1.7c0,0.3-0.1,0.5-0.3,0.8c-0.8,0.9-1.7,1.7-2.8,2.2c-1.1,0.5-2.3,0.8-3.6,0.9
		c-1.8,0.1-3.3,1.5-3.6,3.3c-0.8,2.9-1.3,5.9-1.5,8.9c0,1.2-0.2,2.5-0.4,3.7c-0.2,0.8-0.9,1.5-1.7,1.6c-1,0.1-1.9-0.4-2.3-1.4
		c-0.3-0.8-0.4-1.6-0.4-2.4c0.1-2.6,0.3-5.2,0.5-7.8C1029.5,48.5,1029.5,47,1027.7,45.8z"/>
	<path d="M1175.2,258.5c-2,1.1-2.7,1.1-3.8-0.2c-0.4-0.6-0.8-1.1-1.1-1.7c-0.3-0.5-0.6-0.9-1-1.5c-0.8,0.3-1.6,0.6-2.3,0.9
		c-1.4,0.6-2.7,1.3-4.1,1.9c-1.1,0.4-2.3,0-2.9-0.9c-0.5-0.6-1-1.3-1.2-2.1c-0.8-2.6-1.4-5.3-1.8-8c-0.3-3.8-0.2-7.7-0.2-11.5
		c-0.1-1.1,0.6-2.2,1.7-2.5c1.1-0.5,2.4,0,2.9,1.1c0,0.1,0.1,0.2,0.1,0.3c0.3,1.6,0.5,3.2,0.6,4.9c0.1,2.7,0,5.5,0.2,8.2
		c0.1,1.9,0.2,3.8,1.3,5.6c1.4,0,2.7-0.8,3.3-2.1c1.4-2.3,2.3-5,2.5-7.8c0-1.1,0.1-2.2,0.3-3.3c0.2-1.4,1-2.6,2-3.5
		c0.7-0.7,1.7-0.7,2.4,0c0.1,0.1,0.3,0.3,0.4,0.5c0.3,0.7,0.4,1.5,0.4,2.3c-0.1,4.5-0.4,9-0.4,13.5
		C1174.5,254.5,1174.8,256.5,1175.2,258.5z"/>
	<path d="M1260.1,175.9c0.5,6.6-4.4,13-11,14.5c-1.2,0.3-2.4,0.4-3.7,0.3c-2.1-0.2-3.9-1.6-4.5-3.6c-0.8-1.9-1-4-0.6-6.1
		c1.4-5.8,3.5-11.3,7.6-15.7c0.5-0.6,1.1-1.2,1.8-1.7c1.5-1.2,2.5-1.2,4,0c0.5,0.4,0.9,1.1,1.5,1.4c3.5,1.6,4.1,4.8,4.6,8.1
		C1260.1,174,1260.1,174.9,1260.1,175.9z M1256.6,175.6c-0.1-2.3-1-4.5-2.5-6.2c-0.7-1-2.1-1.3-3.1-0.6c-0.3,0.2-0.5,0.5-0.7,0.8
		c-2.4,3.2-4.1,6.9-4.9,10.8c-0.3,1.3-0.3,2.7,0,4.1c0.2,1.3,1.3,2.2,2.6,2c0.2,0,0.3-0.1,0.5-0.1
		C1252.7,185.1,1256.5,180.2,1256.6,175.6z"/>
	<path d="M861.3,301.5c0.8,0.1,1.8,0.2,2.7,0.5c0.8,0.1,1.4,0.9,1.3,1.7c0,0.2-0.1,0.3-0.2,0.5c-0.5,1-1.2,1.8-2,2.5
		c-2.1,1.4-2.5,3.3-2.3,5.7c0.3,4.2,0.3,8.5,1.9,12.6c-0.5,0.5-1,1-1.5,1.4c-0.7,0.5-1.6,0.4-2.3-0.2c-1.2-1-1.9-2.4-2.1-3.9
		c-0.4-2.4-0.7-4.9-1.1-7.3c-0.2-1.2,0-2.5-1-3.7l-3.1-0.7c-0.6-1.2-0.4-2.2,0.5-2.8c3-1.9,3.3-4.5,3.2-7.8
		c-0.2-4.6,0.3-9.3,0.6-13.9c0-0.4,0.1-0.8,0.2-1.2c0.4-1.1,1.4-1.8,2.5-1.8c1.1,0.1,2.1,0.9,2.3,2c0.2,1.1,0.3,2.2,0.3,3.2
		c-0.1,3-0.2,6-0.3,9C860.6,298.7,860.7,300.2,861.3,301.5z"/>
	<path d="M1031,201.3c-2.6-1.8-4.5-4.4-5.3-7.5c-0.9-3-1.6-6.1-2.2-9.1c-0.4-1.7-0.8-3.5-1-5.2c-0.2-1.8-0.2-3.5-0.1-5.3
		c0.2-0.6,0.7-1.1,1.3-1.3c0.7-0.1,1.3,0.1,1.8,0.6c0.5,0.5,0.8,1.1,1,1.7c0.5,2,0.9,4,1.3,6c0.4,2,0.6,3.8,1,5.6
		c0.2,0.5,0.6,0.9,1.1,1c0.5-0.1,1-0.4,1.2-0.9c1-2.8,1.9-5.7,2.7-8.6c0.3-1.5,0.9-2.8,1.8-4c0.4-0.5,1-0.8,1.7-0.9
		c0.6,0.2,1.1,0.7,1.4,1.3c0.8,1.8,0.9,3.8,0.4,5.6c-0.5,2.1-1.2,4.2-2,6.2c-1.7,3.7-2.8,7.7-3.3,11.8
		C1033.7,199.9,1032.5,201.2,1031,201.3z"/>
	<path d="M1025.4,248.1c-0.5,3.6-2,6.9-4.3,9.7c-1.8,2.4-4.5,2.9-7.1,3.8c-1.2,0.5-2.6,0-3.2-1.2c-0.8-1.2-1.5-2.6-1.8-4.1
		c-0.7-3.4-0.4-6.9,0.7-10.1c0.9-2.1,1.8-4.3,2.8-6.4c0.4-0.7,0.8-1.4,1.4-2c2.6-2.9,5.4-3.2,7.7,0.3c0.5,0.8,1,1.6,1.6,2.4
		C1024.7,242.8,1025.5,245.4,1025.4,248.1z M1020.6,246.7c-0.1-0.8-0.2-1.6-0.4-2.4c-0.2-1-1-1.7-2-1.7c-1-0.1-1.9,0.5-2.2,1.4
		c-0.7,1.3-1.2,2.7-1.5,4.2c-0.3,2.3-0.4,4.6-0.4,6.9c0.1,0.8,0.7,1.3,1.5,1.3c0.3,0,0.5-0.1,0.7-0.3c0.6-0.4,1.1-0.8,1.5-1.4
		C1019.3,252.3,1020.6,249.8,1020.6,246.7z"/>
	<path d="M992.2,55.8c-0.8,1.5-2.1,2.7-3.8,3.4c-3.2,1.7-6.8,2.4-10.3,2.2c-3.7-0.3-5.8-2.1-6.4-5.7c-0.3-1.9-0.4-3.8-0.2-5.7
		c0.1-1.6,0.4-3.3,0.7-4.9c1.8-1.8,3.6-3.7,5.5-5.5c1.8-2,4.4-3,7-2.8c2.6,0.1,4.6,2.4,4.4,4.9c0,0.1,0,0.3,0,0.4
		c-0.2,2.7-1.8,5-4.2,6.1c-1.7,0.8-3.6,1.4-5.5,1.6c-1.9,0.2-2.4,0.8-2.7,2.5c-0.7,3.4,0.6,5.3,4,5.8c2.5,0.4,5,0.1,7.2-0.9
		C989.1,56.5,990.3,55.6,992.2,55.8z M979.7,44.5c2.4,0,3.7-0.6,4.6-1.9c0.2-0.3,0.2-0.8,0-1.1c-0.3-0.3-0.7-0.4-1.1-0.3
		C981.6,41.5,980.7,42.6,979.7,44.5L979.7,44.5z"/>
	<path d="M909.6,50.8c-0.9,1.3-2.3,2.3-3.9,2.6c-3.8,1.3-7.6,0.9-11.4,0.4c-2.4-0.3-4.3-2.2-4.6-4.7c-0.5-2.3-0.3-4.7,0.7-6.8
		c2.6-5.2,6.1-9.7,11.9-11.8c0.8-0.3,1.5-0.5,2.4-0.6c1.8-0.2,3.5,1.1,3.7,3c0,0.1,0,0.3,0,0.4c0.1,4.6-2.5,7.3-6.2,9.3
		c-1.4,0.6-2.8,1.1-4.2,1.5c-0.8,0.2-1.5,0.6-2.2,1.1c-1.3,1.1-1.5,3-0.4,4.3c0.3,0.3,0.6,0.6,1,0.8c1.3,0.5,2.6,0.8,4,0.8
		c1.8-0.1,3.5-0.2,5.3-0.5C906.8,50.6,908,50,909.6,50.8z M903.5,35.2c-1.9,0.6-3.4,1.9-4.4,3.6C902.1,37.8,902.1,37.8,903.5,35.2z"
		/>
	<path d="M860.4,113.4c1.6-2.6,3.1-5.1,4.6-7.5c1.5-2.5,3.9-4.3,6.7-5.1c2.3-0.7,4.7,0.5,5.4,2.8c0.1,0.2,0.1,0.4,0.2,0.6
		c0.6,2.2,0,4.5-1.5,6.1c-1.6,1.9-3.6,3.4-5.9,4.2l-1.2,0.4c-1.4,0.4-2.7,1-2.8,2.6c-0.3,1.8,0.6,3.6,2.2,4.6
		c1.4,0.8,3.1,1.2,4.7,0.9c2-0.2,4-1.1,5.6-2.3c0.7-0.6,1.5-1.1,2.1-1.6c0.5,0.2,0.7,0.8,0.5,1.3c0,0.1-0.1,0.2-0.2,0.3
		c-2.5,4-8.7,6.7-13.2,5.6c-2.6-0.5-4.7-2.4-5.7-4.9c-0.5-1.4-0.8-2.9-1-4.4C860.8,115.9,860.6,114.7,860.4,113.4z M869.1,108.9
		c1.4,0,2.7-0.5,3.6-1.5c0.3-0.3,0.2-0.9,0.3-1.4c-0.5,0-1.1-0.2-1.5,0C870.3,106.5,869.4,107.6,869.1,108.9z"/>
	<path d="M1002.3,61.1c-0.5,0.4-1,0.8-1.6,1.1c-1.6,0.6-2.8,0.1-3.3-1.4c-0.5-1.6-0.8-3.2-0.9-4.8c-0.2-5.9,0.2-11.8,1.2-17.6
		c0.2-0.8,0.3-1.6,0.4-2.4c0.5-5.5,2.3-10.7,3.4-16c0.2-1.1,0.8-2.1,1.6-2.7c0.7-0.7,1.7-0.9,2.7-0.6c0.9,0.4,1.4,1.4,1.4,2.3
		c0,1.4-0.1,2.7-0.4,4.1c-1,4.1-2,8.2-3,12.3c-1.5,6.4-2.3,12.9-2.2,19.5C1001.6,57,1001.9,59,1002.3,61.1z"/>
	<path d="M835.4,122.1c-2.7,3.6-7.3,5.2-10.6,3.8c-2-0.8-3.3-2.6-3.6-4.7c-0.3-2.6-0.6-5.2-0.6-7.8c0.1-0.8,0.4-1.5,0.9-2.2
		c0.7-1.1,1.4-2.3,2-3.5c1.3-2.9,3.3-5.4,5.9-7.3c1.5-1.4,3.8-1.3,5.1,0.2c0.1,0.1,0.2,0.2,0.3,0.3c2.4,2.8,2.5,6.9,0.3,9.8
		c-1.1,1.6-2.6,2.8-4.4,3.6c-0.6,0.3-1.3,0.5-1.9,0.7c-2.5,0.8-3,2.8-2.4,5.3c0.6,2.1,2.8,3.3,4.9,2.8
		C832.7,122.9,834.1,122.5,835.4,122.1z M832.9,105.8c-1,0.3-1.5,0.3-1.7,0.5c-0.6,0.6-1.1,1.2-1.5,1.9c-0.1,0.1,0.1,0.5,0.2,0.9
		C831.4,108.7,832.2,107.8,832.9,105.8z"/>
	<path d="M999.4,240.6c1.9-0.2,3.1-1.4,4.6-2c0.7-0.3,1.5-0.5,2.3-0.5c1,0,1.7,0.9,1.7,1.8c0,0.4-0.2,0.8-0.5,1.2
		c-1.8,1.7-3.8,3.1-6.1,4c-2.2,1-3,2.5-2.8,4.9c0.3,3.8,0.4,7.6,0.6,11.5c0.2,1.1-0.5,2.1-1.6,2.4c0,0-0.1,0-0.1,0
		c-1.1,0.3-2.3-0.3-2.7-1.4c-0.5-1.4-0.8-2.9-1-4.4c-0.5-3.2-0.8-6.5-1.2-9.7c-0.1-0.5-0.1-1.1,0-1.6c1-5,0.7-10.1,0.4-15.1
		c-0.2-1.2,0.1-2.5,0.8-3.5c0.3-0.4,0.7-0.8,1.2-1c1-0.6,2.3-0.2,2.9,0.8c0.1,0.2,0.2,0.5,0.3,0.8c0.3,2.3,0.5,4.6,0.6,6.9
		c0.1,1.1-0.2,2.2-0.2,3.3C998.8,239.4,999,240,999.4,240.6z"/>
	<path d="M1229.1,176.7l-3.1-1.1c0.2-0.8,0.6-1.5,1-2.2c1.4-1.6,2.1-3.6,1.9-5.7c0-4.1,0.2-8.2,0.2-12.3c-0.1-1.4,0.5-2.7,1.6-3.6
		c1-0.8,2.5-0.7,3.4,0.3c0.2,0.3,0.4,0.6,0.5,1c0.1,1,0.1,1.9,0.1,2.9c0,3,0,6,0,9c0,1.4,0.8,1.9,2.1,1.6c0.7-0.3,1.5-0.4,2.3-0.5
		c0.7,0.1,1.2,0.4,1.6,1c0.2,0.6,0.2,1.3-0.2,1.9c-0.3,0.6-0.9,1.1-1.5,1.3c-3.8,1.7-5.2,4.6-4.7,8.6c0.3,2.3,0.4,4.6,0.5,6.9
		c0.1,0.9,0.2,1.9,0.2,2.9c-0.1,0.9-0.7,1.5-1.6,1.7c-0.8,0.2-1.7-0.1-2.1-0.9c-0.5-0.8-0.8-1.7-1-2.6c-0.4-2.6-0.7-5.1-1-7.7
		C1229.2,178.4,1229.2,177.8,1229.1,176.7z"/>
	<path d="M1024.1,194.1c-2.5,2.8-5.9,4.8-9.5,5.7c-1.1,0.2-2.2,0.3-3.2,0.5c-5,1.3-10.5-4-9.8-9.3c0.5-4.5,2.4-8.8,5.6-12.1
		c2.6-2.6,5.2-3,7.8-1.5c0.5,0.2,0.9,0.6,1.2,1.1c1,2,1.5,4.1,1.4,6.3c-0.1,0.5-0.3,1-0.7,1.4c-0.7,0.8-1.5,1.6-2.3,2.4
		c-1.2,1.5-3.1,2.3-5,2.3c-2,0-3.2,0.8-3.3,1.7c0.1,1.5,1.1,2.9,2.6,3.4c0.8,0.3,1.6,0.4,2.4,0.4c3.3,0.2,6.6-0.4,9.6-1.9
		C1021.8,194,1023,193.8,1024.1,194.1z M1008.4,185.6c2.1,0.2,4.1-1,5-2.9c0.1-0.4,0-0.8-0.1-1.1c-0.2-0.2-0.4-0.3-0.7-0.3
		C1010.5,181.8,1008.9,182.9,1008.4,185.6L1008.4,185.6z"/>
	<path d="M879.3,249.3c-0.5,0.7-0.6,1.3-1,1.5c-3.2,1.9-6.8,3.1-10.5,3.3c-2.4,0.3-5-2.2-5.5-5.2c-0.7-3-0.4-6.1,0.8-8.9
		c1.4-3.1,3.4-6,5.9-8.3c0.9-0.8,1.9-1.5,3.1-2c2.7-1.3,6-0.3,7.6,2.3c0.9,1.3,0.8,3-0.1,4.2c-1.9,2.5-4.1,4.8-7.1,6
		c-1.3,0.5-2.5,1.1-3.7,1.7c-1.2,0.5-1.8,1.8-1.4,3.1c0.4,1.5,1.2,2.5,2.8,2.6c1.2,0.1,2.5,0,3.7-0.1c1.1-0.1,2.2-0.4,3.2-0.5
		C877.8,249.2,878.5,249.2,879.3,249.3z M870.3,237.8c2.3-0.2,3.9-1,4.8-2.7c0.1-0.2,0-0.7-0.2-1c-0.2-0.2-0.5-0.3-0.7-0.2
		C872.3,234.3,871.1,235.5,870.3,237.8L870.3,237.8z"/>
	<path d="M844.2,318c-0.1-0.4-0.2-0.9-0.4-1.3c-0.6-0.9-1.4-1.7-2.2-2.4c-5.6-4.1-4.2-12.9,0.3-17.1c0.9-0.9,1.9-1.6,2.9-2.3
		c1.1-0.7,2.5-0.6,3.5,0.2c1.8,1.3,2.6,4.8,1.5,6.7c-0.6,1-1.3,1.9-2.1,2.8c-2-0.2-1.1-2.3-2.5-3c-0.3,0.3-1,0.7-1.2,1.2
		c-1.5,3.1-0.8,5.9,1.7,8.2c1.6,1.5,3.2,3,4.8,4.5c0.6,0.5,1.2,1.1,1.7,1.8c1,1.2,0.9,3-0.3,4c0,0,0,0,0,0c-0.7,0.7-1.5,1.2-2.4,1.5
		c-1.7,0.4-3.5,0.6-5.3,0.5c-2.2-0.1-3.7-1.6-4.8-3.5c-0.4-0.7-0.1-1.6,0.6-2c0.2-0.1,0.4-0.1,0.6-0.2
		C841.7,317.7,842.9,317.9,844.2,318z"/>
	<path d="M1232.6,245.7c0.2-7,0-12.3,1.3-17.6c0.2-1.4,0.2-2.7,0.1-4.1c0-1.2,0.1-2.5,0.3-3.7c0.2-0.9,0.7-1.8,1.3-2.4
		c0.8-0.8,2.1-0.9,3-0.1c0.3,0.3,0.5,0.6,0.6,1c0.2,0.8,0.3,1.6,0.3,2.4c0,2,0,4.1-0.1,6.1c-0.4,5.3-1.2,10.6-1.4,15.9
		c-0.2,4.6,0,9.3,0.1,13.9c0.1,1.1,0.2,2.2,0.1,3.3c-0.2,0.8-0.5,1.5-1,2.2c-0.6,0.7-1.6,0.7-2.2,0.2c-0.1-0.1-0.2-0.2-0.3-0.3
		c-0.5-0.8-0.8-1.7-0.9-2.6C1232.8,255.3,1232.5,250.5,1232.6,245.7z"/>
	<path d="M1206.2,169.4c-0.5-1.4-0.9-2.5-1.3-3.9c-1,0.1-1.9,0.4-2.8,0.8c-2.9,2-5.2,4.9-6.7,8.1c-1.1,2.2-0.4,4.8,1.7,6.1
		c1.8,1.2,3.8,2.1,5.7,3.2c1.1,0.6,2.1,1.3,3.1,2c0.7,0.5,0.9,1.4,0.4,2.1c-0.1,0.2-0.2,0.3-0.4,0.4c-0.7,0.6-1.5,1.1-2.4,1.4
		c-2,0.4-4,0.5-6.1,0.5c-2.9-0.2-4.5-2.1-4.9-5c-0.2-1.1-0.5-2.1-1-3.1c-1.9-3.9-1.4-7.6,0.8-11.3c1.6-2.7,3.7-5.1,6.1-7.1
		c1.3-1,2.7-1.8,4.2-2.4c1.3-0.5,2.8-0.4,4,0.3c1,0.3,1.6,1.2,1.6,2.2c-0.2,1.7-0.4,3.5-0.8,5.2
		C1207.3,169,1206.9,169.1,1206.2,169.4z"/>
	<path d="M800.7,296.3c0-1.9,0-3.8,0-5.8c-0.1-1.4,0.5-2.7,1.6-3.6c0.9-0.9,2.3-0.8,3.1,0c0.2,0.2,0.4,0.6,0.5,0.9
		c0.3,1.2,0.5,2.4,0.6,3.6c0.3,6.8,0.4,13.7,0.9,20.5c0.4,3.4,1,6.8,1.9,10.1c0.2,1,1.2,1.8,1.8,2.7c0.7,0.9,0.6,2.1-0.3,2.8
		c-0.1,0.1-0.3,0.2-0.5,0.3c-1.7,0.9-3.3,0.7-4.2-1c-1.1-2.1-1.9-4.2-2.4-6.5c-0.7-3.2-1.2-6.4-1.8-9.6c-0.5-3.8-0.9-7.6-1-11.4
		c-0.1-1,0-1.9,0-2.9L800.7,296.3z"/>
	<path d="M1139.1,109c-2.5,0.1-3.7,1.3-3.8,3.3c-0.1,1.6,0.1,3.3,0.1,4.9c0,1.5-0.1,3-0.3,4.5c-0.3,1.4-1.5,2.4-2.9,2.5
		c-1.1,0.2-2.2-0.6-2.5-1.7c-0.3-1.1-0.3-2.2-0.2-3.2c0.6-3.2,0.6-6.6,0.1-9.8c-0.4-2.6,0-3.1,2.2-4.2c1.3-0.7,2.6-1.4,3.9-2.2
		c2.2-1.4,5.1-0.8,6.5,1.3c1.4,1.9,2.3,4.1,2.6,6.4c0.5,3.8,0.4,7.7-0.3,11.5c-0.3,1.8-1.2,2.8-2.1,2.5c-1.3-0.4-1.5-1.5-1.6-2.6
		c-0.1-1.9,0-3.8,0-5.8C1140.8,113.8,1140.3,111.3,1139.1,109z"/>
	<path d="M987.5,177.3c1-0.5,2-1.1,3.1-1.5c1.6-0.6,2.5-0.2,3.5,1.2c1.4,1.9,2.2,4.1,2.4,6.5c0.4,4.1,0.5,8.2,0.7,12.3
		c0.1,1.1-0.2,2.2-1,3c-0.6,0.6-1.8,0.5-2.1-0.2c-0.4-0.7-0.7-1.5-0.8-2.3c-0.2-2-0.2-4.1-0.3-6.1s-0.1-4.1-0.2-6.1
		c0-1-0.8-1.9-1.8-1.9c-1-0.1-1.9,0.5-2.2,1.5c-0.5,1.1-0.8,2.3-1,3.5c-0.2,2.2-0.2,4.4-0.3,6.6c0,0.9,0.1,1.9,0.1,2.9
		c0,0.5-0.1,1.1-0.3,1.6c-0.3,0.9-1.2,1.6-2.2,1.6c-1,0-1.8-0.8-1.9-1.8c-0.2-2.3-0.5-4.6-0.6-6.9c-0.2-3-0.2-6-0.3-9
		c0-0.8,0-1.6,0-2.5c0.1-1.1,0.1-2.2,1.1-3c1.2-0.9,2,0.3,2.9,0.7C986.8,177.2,987.2,177.2,987.5,177.3z"/>
	<path d="M1259.2,58.1c-0.8-2.1-2.3-3.3-3.7-4.5c-2.4-2.1-3.8-5.1-4-8.3c-0.1-0.7,0-1.3,0.1-2c1.5-4.5,4.9-8.1,9.3-9.9
		c1.1-0.5,2.4-0.6,3.6-0.1c1.3,0.3,2.1,1.7,1.7,3c-0.2,1-1.1,1.7-2,1.8c-0.5,0.1-1.1,0.1-1.6,0.1c-3.7,0.2-6.5,3.4-6.3,7.1
		c0.1,1.2,0.5,2.4,1.2,3.5c1.4,2,3.1,3.8,4.7,5.7c0.9,1,1.8,2.1,2.6,3.2c1.6,2.5,0.7,4.6-2.1,5.3c-4.5,1.3-9.3-0.3-12.1-4.1
		c-0.5-0.5-0.5-1.3,0-1.8c0.5-0.7,1.4-0.9,2.2-0.5c0.9,0.6,1.8,1.3,2.7,1.8C1256.6,59,1258.1,58.9,1259.2,58.1z"/>
	<path d="M1077.9,251c0.2-2.9,0.5-5.7,0.7-8.6c0.4-4.7,0.3-9.3-0.2-14c-0.1-0.9-0.1-1.9,0-2.8c0.2-1,1-1.7,2-1.8
		c0.8-0.1,1.7,0.3,2.1,1c0.6,1.2,1.1,2.5,1.5,3.8c1,3.9,0.7,7.9,0.3,11.9c-0.5,5.4-1.4,10.9-0.9,16.4c0,1-0.2,1.9-0.6,2.8
		c-0.4,1.1-1.5,1.7-2.6,1.6c-1-0.2-1.7-1-1.8-2c-0.2-1.4-0.4-2.7-0.4-4.1C1077.9,253.7,1077.9,252.4,1077.9,251L1077.9,251z"/>
	<path d="M973.2,107.8c0-3.9,0-7.9,0-11.9c0-0.5,0-1.1,0.2-1.6c0.2-0.8,0.9-1.4,1.8-1.4c0.7,0,1.3,0.3,1.8,0.8
		c1.2,1.5,1.7,3.4,1.7,5.4c0.1,2.3,0,4.6,0,7c-0.1,4.5-0.2,9-0.2,13.5c0.1,1.8,0.3,3.5,0.6,5.3c0.1,0.8,0.4,1.6,0.4,2.4
		c0.1,1.3-0.9,2.5-2.2,2.6c-1.1,0.1-2.1-0.6-2.5-1.7c-0.4-1-0.7-2.1-0.8-3.2c-0.3-3.1-0.7-6.2-0.8-9.4c-0.1-2.6,0-5.2,0-7.8
		L973.2,107.8z"/>
	<path d="M987.4,94.1c2.3,7,1.8,14,2.3,20.9c0.3,4.1,0.3,8.2,0.4,12.3c0.1,1-0.2,1.9-0.9,2.6c-1,0.9-2.2,0.8-2.7-0.3
		c-0.7-1.5-1.1-3.1-1.3-4.7c-0.5-4.6-0.7-9.2-1-13.9c-0.3-3.7-0.6-7.3-0.9-11c-0.2-1.5-0.1-3,0.4-4.4
		C984.3,94.1,984.9,93.8,987.4,94.1z"/>
	<path d="M1095.1,260.4c-1,0.4-2.2-0.1-2.6-1.1c0-0.1-0.1-0.2-0.1-0.3c-0.8-2.2-1.4-4.4-1.8-6.7c-0.6-5.8-1.2-11.7-0.4-17.6
		c0.1-1.8,0.2-3.5,0.1-5.3c0-0.8,0-1.6,0.1-2.5c0.2-1.1,1-2,2.1-2.2c1.3,0,2.4,0.8,2.7,2c0.1,0.4,0.2,0.8,0.2,1.2
		c0.2,2.4,0.3,4.9,0.2,7.4c-0.5,6.1-0.4,12.3,0.1,18.4C1096.1,256,1096.2,258.4,1095.1,260.4z"/>
	<path d="M887.8,107.3c2.1,0.1,3.2-1.1,4.5-1.8c1.3-0.8,2.8-1.2,4.3-1.2c0.8-0.1,1.6,0.4,2,1.2c0.4,0.9,0,2-0.8,2.5
		c-0.9,0.6-1.8,1.2-2.8,1.8c-3.5,2.1-5.6,5.9-5.5,9.9c0,0.8,0,1.6-0.1,2.4c-0.1,1.3-1.1,2.3-2.4,2.4c-1.1,0.1-1.9-0.5-2.3-1.9
		c-0.3-1.2-0.6-2.4-0.7-3.6c-0.5-4.2-1.1-8.4-1.5-12.6c-0.1-1.2,0.1-2.4,0.5-3.6c0.2-0.8,1-1.4,1.9-1.2c0.6,0.2,1.1,0.7,1.4,1.2
		C886.8,104.3,887.2,105.7,887.8,107.3z"/>
	<path d="M1149.5,103.9c0-2.9,0-6.2,0-9.5c-0.1-1.5,0.5-3,1.6-4.1c1.1-1.1,2.3-0.9,2.8,0.6c0.7,1.8,0.9,3.8,0.7,5.7
		c-0.4,3.1-0.5,6.3-0.2,9.4c0.1,1,0,1.9-0.1,2.9c-0.4,4.6-0.2,9.3,0.7,13.9c0.1,0.3,0.1,0.5,0.2,0.8c0.3,1-0.3,2-1.3,2.2
		c-1.2,0.3-2.6,0.1-2.9-0.8c-0.6-1.4-1-2.8-1.2-4.3C1148.8,115.1,1148.7,109.4,1149.5,103.9z"/>
	<path d="M1319.1,119.9l3.7-3.4c-0.3-0.9-0.7-1.7-1.1-2.5c-2-3.2-1.8-6.5-1-9.9c0.4-1.6,1-3.1,1.4-4.7c0.8-3.3,3-5.5,5.5-7.4
		c0.3-0.2,0.7-0.4,1.1-0.4c0.8-0.2,1.5,0.3,1.7,1.1c0,0.2,0,0.4,0,0.6c-0.3,0.9-0.7,1.7-1.3,2.5c-2.4,3-3.4,6.6-3.9,10.2
		c-0.4,2.8,0.6,5.6,2.8,7.3c2.2,1.9,2.4,3.8,0.8,6C1326.3,122.3,1323.1,122.7,1319.1,119.9z"/>
	<path d="M1064.2,250.5c0-2.9-0.1-5.8,0-8.6c0.1-2.5,1.2-3.6,3.1-3.6c1.5,0,2.5,1.2,2.5,3.6c0.1,2.9-0.1,5.8-0.2,8.6s-0.4,6-0.6,9
		c0,1-0.2,1.9-0.5,2.8c-0.4,0.9-1.3,1.5-2.3,1.4c-0.8,0-1.6-0.6-1.9-1.4c-0.7-1.8-1-3.7-0.8-5.6c0.1-2.1,0.2-4.1,0.4-6.2
		L1064.2,250.5z"/>
	<path d="M1224.7,240.1c-0.1,1.5-0.1,2.3-0.2,3.1c-0.7,4.1-0.8,8.2-0.1,12.3c0,0.3,0,0.5,0,0.8c-0.1,1.3-1.1,2.3-2.3,2.4
		c-1,0.1-1.9-0.5-2.2-1.4c-0.4-1.2-0.7-2.4-0.9-3.6c-0.1-1.1-0.2-2.2-0.1-3.3c0.2-4.1,0.4-8.2,0.7-12.3c0-1.3,0.8-2.4,2-2.8
		c0.9-0.4,2,0.1,2.4,1c0,0,0,0,0,0C1224.4,237.8,1224.6,239.2,1224.7,240.1z"/>
	<path d="M1118.9,248.7c0,2,0.1,4.1,0,6.1c0,0.9-0.2,1.9-0.6,2.8c-0.4,0.9-1.3,1.4-2.3,1.3c-1-0.1-1.4-0.8-1.6-1.6
		c-0.8-2.8-1.1-5.6-0.8-8.5c0.3-2,0.2-4.1-0.1-6.1c-0.1-0.9-0.1-1.9,0.2-2.8c0.3-1.2,1.5-2.1,2.7-2c1.1,0.1,2.1,0.8,2.4,1.9
		c0.2,0.9,0.4,1.9,0.4,2.8c0.1,2,0,4.1,0,6.1L1118.9,248.7z"/>
	<path d="M1024.1,111.5h-5.7c-1,0.1-1.9-0.4-2.3-1.3c-0.5-1.2,0-2.5,1-3.3c0.7-0.5,1.4-0.8,2.2-1c4.5-0.6,9-0.6,13.4,0
		c1.4,0.1,2,0.8,2.3,2.5c0.2,1.1-0.4,2.2-1.5,2.5c-1.1,0.5-2.3,0.7-3.5,0.8c-1.9,0.1-3.8,0-5.7,0L1024.1,111.5z"/>
	<path d="M1118.2,126.5c-0.2-0.7-0.4-1.5-0.5-2.3c0-2.2,0-4.4,0.2-6.6c0.5-3.1,0.6-6.3,0.3-9.4c-0.3-1.2,0.5-2.4,1.7-2.7
		c0,0,0.1,0,0.1,0c1.3-0.2,2.5,0.6,2.8,1.9c0.4,1.5,0.6,3,0.5,4.5c-0.2,4-0.6,7.9-1.1,11.9C1122,126.2,1121.2,126.6,1118.2,126.5z"
		/>
	<path d="M1234.8,49.2c-0.9-1.8-0.4-3.3,0-4.7c0.7-2.2,1.4-4.4,2.2-6.6c0.6-1.7,1.1-3.4,1.6-5.1c0.3-1.2,1.1-2.2,2.2-2.8
		c1.1-0.6,2.5,0,2.4,1.2c0,2-0.4,4.1-1,6c-1.2,3.2-2.7,6.3-4.2,9.3C1237.5,47.9,1236.2,48.9,1234.8,49.2z"/>
	<path d="M1117.1,224.9c0-1.7,1-2.8,2.4-2.6c0.6,0.1,1.2,0.5,1.6,1c0.7,1.5,0.4,3.3-0.8,4.4c-0.6,0.6-1.6,0.6-2.2,0
		C1117.4,227,1117,226,1117.1,224.9z"/>
	<path d="M1224.1,224.7c1.1,0,2,1,1.9,2.1c0,0,0,0.1,0,0.1c-0.2,1.4-1.5,2.4-2.9,2.2c-1.1-0.2-1.8-1.3-1.6-2.4
		C1221.8,225.4,1222.9,224.6,1224.1,224.7z"/>
	<path d="M1018.6,321c0.1,1.3-0.9,2.5-2.2,2.5c0,0-0.1,0-0.1,0c-0.5-0.1-0.9-0.4-1.2-0.8c-0.5-1-0.2-2.2,0.7-2.8
		c0.6-0.3,1.2-0.4,1.8-0.2C1018.1,320,1018.3,320.7,1018.6,321z"/>
	<path d="M1071.2,227.8c-0.3,1.1-1.3,1.8-2.4,1.6c-1-0.3-1.7-1.3-1.6-2.4c0.3-0.9,1.2-1.5,2.2-1.4
		C1070.4,225.8,1071.3,226.7,1071.2,227.8z"/>
	<path d="M1001.3,125.7c0.2,1.4-0.8,2.6-2.1,2.8c-0.3,0-0.5,0-0.8,0c-0.1,0-0.2-0.1-0.3-0.2c-0.5-0.6-0.6-1.6-0.1-2.2
		c0.5-1,1.5-1.8,2.2-1.4C1000.6,124.9,1001,125.2,1001.3,125.7z"/>
	<path d="M1123.6,95.8c-0.7,2-1.6,2.6-2.9,2.6c-0.6-0.6-0.6-1.6,0-2.2c0.1-0.1,0.2-0.2,0.4-0.3C1121.6,95.6,1122.5,95.8,1123.6,95.8
		z"/>
	<path class="st0" d="M947,316c0-3.2,0.9-6.3,2.5-9c0.3-0.6,0.8-1.1,1.2-1.6c0.8-1,2.3-1.1,3.3-0.3c0.2,0.2,0.4,0.4,0.6,0.7
		c2.1,2.8,2.8,6.3,1.9,9.7c-0.6,2.6-1.9,4.9-3.9,6.6c-2.2,1.9-4.5,1.2-5.2-1.7C947.2,318.9,947.1,317.4,947,316z"/>
	<path class="st0" d="M1147.3,176.8c-1.2,1.6-2.5,3-4.7,3.2c0-1.7,0.4-2.3,2.1-3.4C1145.5,176,1146.4,175.6,1147.3,176.8z"/>
	<path class="st0" d="M1299,238.9c1.4-2.1,3.2-4,5.3-5.4c0.2-0.2,0.5-0.3,0.7-0.4c1.2-0.5,2.3-0.8,3.4,0.2c0.7,0.6,0.6,2-0.6,3.2
		c-1.1,1.2-2.4,2.2-3.8,3C1302.6,240.3,1300.9,240.3,1299,238.9z"/>
	<path class="st0" d="M1284.3,99.9c1.1,4.3-0.9,7.2-3,10.1s-3.4,3.5-5.9,3.5C1275.4,108.6,1279.3,102.5,1284.3,99.9z"/>
	<path class="st0" d="M1000.9,309.3c0.5,2.4-0.7,4.2-2.5,5.7c-1.5,1.2-3,2.3-4.7,3.3c-1.4,0.9-2.8,0-2.8-1.7
		c0.1-4.4,1.5-8.7,4.1-12.2c0.3-0.3,0.6-0.6,0.9-0.9c0.9-0.9,2.4-0.9,3.3,0c0.2,0.2,0.4,0.4,0.5,0.7c0.5,1,0.8,2,1,3.1
		C1000.9,307.9,1000.9,308.6,1000.9,309.3z"/>
	<path class="st0" d="M1051.2,182.8c0.2-2.8,1-5.2,4.3-6.3C1055.7,179.9,1053.6,181.5,1051.2,182.8z"/>
	<path class="st0" d="M1188.8,59.4c0-2.2,0.5-4.4,1.7-6.4c1.8-2.9,3.5-5.8,5.3-8.7c0.3-0.4,0.7-0.8,1.1-1.1c0.6-0.4,1.5-0.3,1.9,0.4
		c0,0.1,0.1,0.1,0.1,0.2c0.5,1.3,0.6,2.7,0.3,4c-0.4,1.6-0.8,3.1-1.3,4.7c0,0.3-0.1,0.5-0.3,0.8c-1.8,2.4-3.7,4.7-6.6,5.9
		C1190.4,59.3,1189.6,59.4,1188.8,59.4z"/>
	<path class="st0" d="M941.7,191.8c0.3-3.6,0.6-6.9,2.5-9.7c0.3-0.6,0.8-1.1,1.2-1.6c0.4-0.4,0.9-0.5,1.4-0.5
		c0.5,0.2,0.8,0.7,0.8,1.2c-0.2,2.2-0.2,4.5-1.9,6.1c-1.5,1.5-2.2,3.5-2,5.6c0,0.4-0.1,0.8-0.3,1.1c-0.1,0.2-0.5,0.5-0.6,0.4
		c-0.3-0.1-0.8-0.3-0.9-0.6C941.8,193.2,941.7,192.5,941.7,191.8z"/>
	<path class="st0" d="M1097,123c-0.2-1.6,0.1-3.2,1-4.6c1-2,2.3-4,3.4-6c0.2-0.4,0.4-0.7,0.7-1c0.7-0.8,1.1-1.9,2.5-1.9
		c0.8,0.1,1.4,1.4,1.2,3.1c-0.1,1.1-0.4,2.1-0.9,3.1c-1.6,2.7-3.7,5-6.3,6.8C1098,122.7,1097.5,122.8,1097,123z"/>
	<path class="st0" d="M820.2,315.4c-0.2-0.5-0.3-1.1-0.3-1.6c0-2.4,1.3-4.4,2.3-6.4c0.2-0.5,1.3-0.6,2.1-1c0.8,2.2,0.6,4.5-0.5,6.6
		C823.2,314.4,821.8,315.3,820.2,315.4z"/>
	<path class="st0" d="M893.4,195.1c0.1-3,0.1-5.7,1.3-8.3c1-2.1,1.8-4.3,2.6-6.4c0.1-0.5,0.4-1,0.7-1.5c0.4-0.5,1-0.9,1.7-1
		c0.6,0.1,1.2,0.4,1.5,1c0.4,1.1,0.6,2.4,0.6,3.6c-0.1,1.6-0.3,3.3-0.7,4.9c-0.7,3-2.6,5.5-5.1,7.1
		C895.2,194.9,894.3,195.1,893.4,195.1z"/>
	<path class="st0" d="M817.3,48.4c-1.8-3.5-0.8-6.5,0-9.5c0.6-2.1,1.2-4.5,3.8-5.6c0.4,0.4,0.7,0.8,0.9,1.3c0.8,2.3,1,4.8,0.8,7.2
		C822.6,45.2,820.7,47.2,817.3,48.4z"/>
	<path class="st0" d="M1059.5,41.5c0.1,0.8,0.2,1.6,0.2,2.4c0,1.1-0.6,2.3-0.3,3.2c0.6,1.9-0.2,3.2-1.2,4.5c-1.5,2-3.5,3.5-5.8,4.4
		c-1.4,0.7-2.5-0.2-2.2-1.8c0.1-1.4,0.5-2.7,1.1-3.9c1.5-2.6,3.3-5,5.1-7.4C1057.1,42,1058.3,41.4,1059.5,41.5z"/>
	<path class="st0" d="M1351.1,100.6c-1.5,0.9-2.8,2.3-4.9,2.3c0.7-2.2,1.4-2.8,3.9-3.3C1350.6,99.5,1351.2,99.6,1351.1,100.6z"/>
	<path class="st0" d="M844.7,192.6c-0.2-0.7-0.2-1.3-0.2-2c0.7-4.1,1.9-8,4.6-11.2c0.3-0.3,0.5-0.6,0.9-0.9c0.7-0.8,2-0.8,2.7-0.1
		c0.5,0.4,0.7,1.1,0.6,1.7c-0.3,2.4-0.8,4.9-1.5,7.2c-1,2.6-3.1,4.6-5.8,5.4C845.6,192.8,845.1,192.7,844.7,192.6z"/>
	<path class="st0" d="M1256.6,175.6c-0.1,4.6-3.9,9.5-8.1,10.6c-1.2,0.4-2.5-0.2-3-1.4c-0.1-0.2-0.1-0.3-0.1-0.5
		c-0.3-1.3-0.3-2.7,0-4.1c0.8-3.9,2.5-7.6,4.9-10.8c0.6-1.1,2-1.5,3-0.8c0.3,0.2,0.6,0.4,0.8,0.7
		C1255.7,171.2,1256.5,173.4,1256.6,175.6z"/>
	<path class="st0" d="M1020.6,246.7c0,3-1.3,5.5-2.9,8c-0.4,0.5-0.9,1-1.5,1.4c-0.6,0.4-1.5,0.3-1.9-0.3c-0.1-0.2-0.2-0.4-0.3-0.7
		c-0.1-2.3,0.1-4.6,0.3-6.9c0.4-1.5,0.9-2.9,1.5-4.2c0.3-0.9,1.2-1.5,2.2-1.4c1,0.1,1.8,0.8,2,1.7
		C1020.4,245.1,1020.5,245.9,1020.6,246.7z"/>
	<path class="st0" d="M979.7,44.5c1.1-1.9,2-3,3.6-3.3c0.4-0.1,0.8,0.1,1.1,0.3c0.2,0.3,0.2,0.8,0,1.1C983.4,44,982,44.5,979.7,44.5
		z"/>
	<path class="st0" d="M903.5,35.2c-1.4,2.5-1.4,2.5-4.4,3.6C900,37.1,901.6,35.8,903.5,35.2z"/>
	<path class="st0" d="M869.1,108.9c0.3-1.3,1.2-2.4,2.4-2.9c0.4-0.2,1,0,1.5,0c-0.1,0.5,0,1.1-0.3,1.4
		C871.8,108.4,870.5,109,869.1,108.9z"/>
	<path class="st0" d="M832.9,105.8c-0.7,2-1.6,2.9-3,3.2c-0.1-0.4-0.3-0.7-0.2-0.9c0.4-0.7,0.9-1.3,1.5-1.9
		C831.5,106.1,831.9,106.1,832.9,105.8z"/>
	<path class="st0" d="M1008.4,185.6c0.4-2.7,2.1-3.8,4.2-4.3c0.3,0,0.5,0.1,0.7,0.3c0.2,0.3,0.2,0.7,0.1,1.1
		C1012.5,184.6,1010.5,185.8,1008.4,185.6z"/>
	<path class="st0" d="M870.3,237.8c0.8-2.3,2-3.5,3.9-4c0.3,0,0.5,0,0.7,0.2c0.2,0.3,0.3,0.8,0.2,1
		C874.1,236.8,872.6,237.6,870.3,237.8z"/>
</g>
</svg>
