<svg xmlns="http://www.w3.org/2000/svg" viewBox="0 0 1366 768"><g id="Layer_19" data-name="Layer 19"><path d="M112.12,2.24c13.07,8.42,22.68,20,30.73,33.11,9,14.55,14.66,30.61,21.51,46.13,4.59,10.42,9.77,20.57,14.09,31.12,4.4,10.77,8.86,21.42,10.09,33.15a16.82,16.82,0,0,1-.1,6.25c-5.16,1.8-10.61,1.2-15.84,1.28-16.16.23-32.36.94-48.48-.84-11.76-1.3-23.57-2.54-34.8-6.68" style="fill:none;stroke:#000;stroke-linecap:round;stroke-linejoin:round;stroke-width:2px"/><path d="M1213.72,285.44a697.74,697.74,0,0,1,33.61,85.44c7.5,23.82,14.53,47.77,20.76,72,2.9,11.22,6.84,22.26,8.75,33.67,1.28,7.58,5.53,10.9,11.69,14,8.56,4.32,18,7,25.57,13.24,1,.8,1.8,1.74,2.82,2.47" style="fill:none;stroke:#000;stroke-linecap:round;stroke-linejoin:round;stroke-width:2px"/><path d="M239.32,193.76c-6.4-.64-12.8-1.33-19.2-1.91-7.72-.69-15.37-1.92-23.06-2.73-10.43-1.1-20.76-2.87-31.17-4.07-9.64-1.11-19.17-3.22-28.82-4.17-21.87-2.14-43.36-7.06-65.28-8.62-9.05-.64-18.19-.12-26.87,3.26" style="fill:none;stroke:#000;stroke-linecap:round;stroke-linejoin:round;stroke-width:2px"/><path d="M1288.6,10.4c-9.12,16-18.11,32.08-27.39,48-14.51,24.88-27.64,50.51-40.1,76.43a525.77,525.77,0,0,0-22,53.19" style="fill:none;stroke:#000;stroke-linecap:round;stroke-linejoin:round;stroke-width:2px"/><path d="M213.4,240.8c-11.37.8-22.74,1.66-34.1,2.69-9.09.82-18.22,1.41-27.34,2.09-24.45,1.83-49,2-73.44,2.88a197.15,197.15,0,0,0-31.69,3.32c-4,.81-7.58,3.71-12,2.94" style="fill:none;stroke:#000;stroke-linecap:round;stroke-linejoin:round;stroke-width:2px"/><path d="M71.32,17.6c-5.69,11.47-9.38,23.68-12.37,36a290.91,290.91,0,0,0-6.49,38.84,514.39,514.39,0,0,0-2.59,62.41c.12,6.06-.29,12.2.81,18.24" style="fill:none;stroke:#000;stroke-linecap:round;stroke-linejoin:round;stroke-width:2px"/><path d="M106.36.8C102.1,21.33,95,41.09,89.59,61.29a176.59,176.59,0,0,0-5.81,38.87c-.44,10.56-.79,21.13-.36,31.68.32,7.7.34,15.36-.1,23" style="fill:none;stroke:#000;stroke-linecap:round;stroke-linejoin:round;stroke-width:2px"/><path d="M1299.64,32c-7.12,15.87-15.33,31.23-22.46,47.08-9.45,21-19.23,41.8-27.66,63.24-4.08,10.38-8.4,20.65-11.8,31.28-1.06,3.3-.8,6.91-2.4,10.08" style="fill:none;stroke:#000;stroke-linecap:round;stroke-linejoin:round;stroke-width:2px"/><path d="M1311.64,235.52c-9.65,4.19-19.73,6.28-30.23,7.33-16.84,1.68-33.59.88-50.42,0-14.7-.77-29.39-2.34-44.15-2" style="fill:none;stroke:#000;stroke-linecap:round;stroke-linejoin:round;stroke-width:2px"/><path d="M1066.84-1.6a263.85,263.85,0,0,0-27.42,36.93c-1.11,1.84-1.24,3.08,0,4.86,5.09,7.16,6.44,15.47,6.71,24,.23,7.19.24,14.41,0,21.6-.21,6.08-1,12.12-1,18.24,0,8.11.27,16.14,2.48,24" style="fill:none;stroke:#000;stroke-linecap:round;stroke-linejoin:round;stroke-width:2px"/><path d="M130.36,486.08c-25.61,22.54-55.82,36.49-87.84,47" style="fill:none;stroke:#000;stroke-linecap:round;stroke-linejoin:round;stroke-width:2px"/><path d="M1225.24,178.88c1.83-1,2.85.93,3.75,1.57,8.41,5.94,17.77,8.48,27.91,9.64a137.93,137.93,0,0,0,23,.65,299.4,299.4,0,0,0,30.73-3.22c2.88-.46,5.76-1,8.64-1.44" style="fill:none;stroke:#000;stroke-linecap:round;stroke-linejoin:round;stroke-width:2px"/><path d="M118.84,461.12c-.22,2.8-2.77,2.15-4.33,2.85-14.74,6.53-28.95,14.19-44.12,19.79-8.48,3.13-17,5.87-25.95,7.12" style="fill:none;stroke:#000;stroke-linecap:round;stroke-linejoin:round;stroke-width:2px"/><path d="M1096.12,158.72c13.69,9.4,21,23.52,27.79,37.94,1,2.05-1.07,4.91,1.49,6.7" style="fill:none;stroke:#000;stroke-linecap:round;stroke-linejoin:round;stroke-width:2px"/><path d="M377.56,38.72c-.87-9.3-6-16.54-11.61-23.45A104.68,104.68,0,0,1,358.9,6c-.75-1.18-1.59-.79-2.46-.92" style="fill:none;stroke:#000;stroke-linecap:round;stroke-linejoin:round;stroke-width:2px"/></g></svg>
