<svg xmlns="http://www.w3.org/2000/svg" viewBox="0 0 1366 768"><g id="Layer_19" data-name="Layer 19"><path d="M1081.24,176c-1.78,27.65-3.13,55.34-2.28,83,.7,22.88,1.29,45.77,2.6,68.65.8,13.9,1.59,27.82,2.15,41.75.64,15.85,2,31.67,2.73,47.52.35,7.84.73,15.68,1,23.52q1.23,36.94.37,73.92c-.34,14.88-1.35,29.78-2.64,44.65-1.33,15.48-2,31-3,46.55l-1,15.84" style="fill:none;stroke:#000;stroke-linecap:round;stroke-linejoin:round;stroke-width:2px"/><path d="M1095.64,153c-19.41,3.38-39.1,3.45-58.54,2.14-37.45-2.52-74.89-1.78-112.34-2.21-13.44-.16-26.89-.66-40.32-.32-10.39.26-20.78,1.31-30.71,4.74-6.53,2.26-12.5,5.65-15.75,12-2.35,4.59-3.16,9.82-4.42,14.83-4.79,19-4.85,38.3-4.18,57.6.46,13.44,1.7,26.89,2.85,40.31,2,23.66,3.53,47.34,4.75,71.05q1.39,27.12,2.89,54.24c1.22,22.57,2.39,45.14,4.16,67.69,1.25,15.8,1.54,31.68,2.54,47.51.73,11.68.58,23.37.35,35-.38,19.1-2.37,38-7,56.66-1.07,4.25-4.06,4.62-7.28,4.73-5.12.18-10.24,0-15.36,0" style="fill:none;stroke:#000;stroke-linecap:round;stroke-linejoin:round;stroke-width:2px"/><path d="M766.36,212.48c-20-.32-40-.75-60-.92a262.79,262.79,0,0,0-41.75,2.88c-5.75.87-11.53.93-17.29,1.33-14,1-21.76,7.57-24.93,21.2a67.08,67.08,0,0,0-1.94,17.75c1,26.43-2.79,52.54-5.4,78.71-2.1,21-4,41.93-6.13,62.89-1.54,15.51-3.19,31-4.39,46.55-.73,9.44-1.64,18.89-1.74,28.33-.14,12.41-1.72,24.66-2.92,37-.42,4.28-.75,8.77.08,12.92,1.57,7.87,5.46,12.43,15.21,13.48,8.37.9,16.64-.72,25-1.05,11.69-.47,23.36-1.54,35-2.31,14.88-1,29.75-2.21,44.64-2.8,11.35-.44,22.7-1.09,34.08-1.15,5.45,0,10.83-.7,15.91-3.62,5.74-3.29,7.85-8.24,7-14-2.41-16.43-2.39-32.93-2.88-49.46s-.44-33-.26-49.44c.23-20.16.47-40.33,1-60.48.42-15.52-.4-31.07.85-46.56,1.18-14.54,2.63-29.08,2.3-43.68-.23-9.86-.23-19.84-3.81-29.26-2-5.41-4.23-10.94-11.48-11.06" style="fill:none;stroke:#000;stroke-linecap:round;stroke-linejoin:round;stroke-width:2px"/><path d="M524.44,128c5.6-1,11.22-1.81,16.79-2.91,7-1.38,9.2-4.29,8.11-11.48a95.41,95.41,0,0,0-5.71-20.17,155.54,155.54,0,0,0-20-37.09c-11.23-15.11-26.26-19.63-43.85-18.52-9.6.61-19.18,1.51-28.8,1.86-14.76.54-29.52,1.05-44.17,3.28-9.25,1.41-15.2,7.21-19.57,14.53-9.49,15.91-13.63,33.3-11,51.77,2,14.33,9.72,17.82,21.5,19.22,8.83,1,17.6-.25,26.4-.42,12.35-.23,24.67.89,36.95,2,5.44.48,10.94.78,16.34,1.08,18.86,1,37.71,2.77,56.63,2.09,1.62-.05,3.2,1.38,4.8.07" style="fill:none;stroke:#000;stroke-linecap:round;stroke-linejoin:round;stroke-width:2px"/><path d="M1126.36,203.12c-2.41,1.36-1.17,2.66,0,4.09q7.73,9.57,15.37,19.19C1170,261.86,1194,299.75,1210,342.51q17.74,47.31,32.39,95.6c9.09,30.08,15.73,60.79,21.8,91.63,6.2,31.5,12,63.07,18.28,94.55,1.92,9.63,4.29,19.17,6.11,28.83" style="fill:none;stroke:#000;stroke-linecap:round;stroke-linejoin:round;stroke-width:2px"/><path d="M333.4,142.4c2,20.75,2.58,41.58,2.8,62.4.13,13.12-.31,26.25-.95,39.36s-1.69,25.93-2.84,38.88c-2.79,31.3-6.85,62.45-10.91,93.61-3.72,28.56-7.1,57.16-9.32,85.9-1.64,21.28-3.4,42.55-4.76,63.85-1.21,18.88-2.89,37.73-3.78,56.64" style="fill:none;stroke:#000;stroke-linecap:round;stroke-linejoin:round;stroke-width:2px"/><path d="M595.48,153c-21.21,4.5-32.44,13.8-36.89,36-4.19,20.9-5.86,42.15-7.76,63.35-1.73,19.36-3.77,38.7-5.2,58.09s-3.08,38.73-4.93,58.06q-3,31.25-6.71,62.4c-2.49,20.77-4.63,41.55-6.23,62.41-1.32,17.1-2.38,34.2-2.4,51.36,0,3.2-.91,6.4,0,9.6" style="fill:none;stroke:#000;stroke-linecap:round;stroke-linejoin:round;stroke-width:2px"/><path d="M295.48,178.4a507.92,507.92,0,0,0-61.5,82,496.53,496.53,0,0,0-34.91,70.62A545.5,545.5,0,0,0,175.48,405c-8.94,36.7-15.61,73.87-23.22,110.84-4.56,22.14-9.45,44.28-16.67,65.78-.43,1.29,0,2.74-.91,3.86" style="fill:none;stroke:#000;stroke-linecap:round;stroke-linejoin:round;stroke-width:2px"/><path d="M771.64,207.2c-1-6.24-1.72-12.52-2.93-18.71-1.29-6.56-1.05-13.42-3.71-20.18,8-7.13,8.35-17.36,9-27.35.46-7.54.69-15.26-1.48-22.53-3.52-11.72-12.11-18.29-23.9-20.64-13.84-2.76-27.77-2.43-41.76-1.06-8.6.85-17.27,1.17-25.91,1.47-9.44.33-18.92-.14-28.31.65-10.53.89-20.68,3.11-26.49,13.74a33.06,33.06,0,0,0-3.61,13,25.5,25.5,0,0,1-2.6,9.08c-3.62,7.24-3,14,2,20.21,7.15,9,17.5,12.12,27.88,14.78,17.28,4.43,35,6.12,52.78,6.28,15.88.15,31.77.45,47.53-2.3a50.94,50.94,0,0,0,14.39-4.86" style="fill:none;stroke:#000;stroke-linecap:round;stroke-linejoin:round;stroke-width:2px"/><path d="M1038,36.32c-3.14-1-4.56-4.09-7.16-5.81-7.47-4.93-15.81-6.82-24.52-7.63-16.54-1.54-33,1.56-49.44,1.36-10.4-.14-20.79-.77-31.2.06-12.36,1-22.84,5.8-30.17,15.91-10.86,15-20.68,30.6-27.43,47.95-2.54,6.5-4.48,13.21-4.71,20.16-.37,10.91,3.76,19.82,18.19,23.85,10.09,2.83,20.6,3.78,31.16,4,22.3.55,44.46-2.16,66.72-2.61,2.2,0,3,.16,3.34,2.08.7,4.47,1.3,9,1.94,13.44" style="fill:none;stroke:#000;stroke-linecap:round;stroke-linejoin:round;stroke-width:2px"/><path d="M299.8,592.64c-5.82,13.74-14.25,25.75-24,37C252,657.07,222.14,677,192.2,696.68c-16.23,10.69-32.57,21.23-48.87,31.82-17.54,11.4-35.33,22.35-55.24,29.16-5.7,2-11.59,3.69-17.73,3.94" style="fill:none;stroke:#000;stroke-linecap:round;stroke-linejoin:round;stroke-width:2px"/><path d="M1056.28,622.88c-6.4.8-12.78,2.09-19.2,2.29-12.31.39-24.55,2.88-37,.71-6.12-1.06-12.44-.27-18.72-.85-10.4-1-20.78-2.16-31.19-3s-20.46-2.17-30.69-3.18c-11.68-1.16-23.36-2.24-35.06-2.09-13.44.18-26.91.56-40.32,1.81a9.38,9.38,0,0,1-5.28-1" style="fill:none;stroke:#000;stroke-linecap:round;stroke-linejoin:round;stroke-width:2px"/><path d="M796.12,609.92c-10.57.51-21.14,1.4-31.68-.46a13.73,13.73,0,0,0-2.4,0c-17.49-.06-34.89-1.79-52.32-2.81-24.13-1.41-48.31-2.15-72.48-1.4-15.37.48-30.72.2-46.08.28-3.33,0-6.71-.36-10.08-.39" style="fill:none;stroke:#000;stroke-linecap:round;stroke-linejoin:round;stroke-width:2px"/><path d="M557.08,154.88c-11.27-2-22.66-2.67-34.07-3.46-24-1.67-48-1.65-72-2.83-19-.93-37.78-3.92-56.63-6.24-16.45-2-32.95-1.87-49.45-1.87" style="fill:none;stroke:#000;stroke-linecap:round;stroke-linejoin:round;stroke-width:2px"/><path d="M477.4,599.84c-9.34-.66-18.6-1.93-27.84-3.34-6.89-1.06-13.78-2.13-20.66-3.27q-14.62-2.43-29.27-4.82c-13.06-2.13-26.21-3.77-39.36-5.33a289.6,289.6,0,0,0-40.79-2.44" style="fill:none;stroke:#000;stroke-linecap:round;stroke-linejoin:round;stroke-width:2px"/><path d="M514.84,624.32c-5.1,13.35-9.91,26.83-15.88,39.82-5.26,11.45-10.33,23-16.4,34a524.71,524.71,0,0,1-32.08,51.87c-6.17,8.65-12.75,17-19.17,25.46-1.45,1.92-3,3.75-3.35,6.25" style="fill:none;stroke:#000;stroke-linecap:round;stroke-linejoin:round;stroke-width:2px"/><path d="M837.88,618.56c0,9.93,3,19.28,5.27,28.8,6,25.65,14.89,50.39,23,75.37,3.84,11.79,7.39,23.67,11.07,35.51" style="fill:none;stroke:#000;stroke-linecap:round;stroke-linejoin:round;stroke-width:2px"/><path d="M278.68,594.56c-.4.6.9,1.76-.95,2-15.15,1.7-30.1,4.69-45.13,7.18-10.74,1.78-21.38,4.33-32.18,5.6-13.68,1.61-27.38,3.63-41.26,3.05-5.91-.25-11.84,0-17.76,0" style="fill:none;stroke:#000;stroke-linecap:round;stroke-linejoin:round;stroke-width:2px"/><path d="M116.44,609c-12,6.36-22.86,14.4-33.53,22.65a261.81,261.81,0,0,1-33.7,21.93c-3.71,2.05-7.14,4.22-9.57,7.74" style="fill:none;stroke:#000;stroke-linecap:round;stroke-linejoin:round;stroke-width:2px"/><path d="M776.92,591.68c4-20.23,1.68-39.62-7.7-58.07-.58-1.14-.69-3.06-2.86-2.41" style="fill:none;stroke:#000;stroke-linecap:round;stroke-linejoin:round;stroke-width:2px"/><path d="M607.48,533.6a73.4,73.4,0,0,0-8.87,29.74c-.7,9.26.93,17.82,3.59,26.42" style="fill:none;stroke:#000;stroke-linecap:round;stroke-linejoin:round;stroke-width:2px"/><path d="M836.44,165c-7,.14-13.59-2.14-20.11-4-11.55-3.32-23-4.11-34.61-1.27" style="fill:none;stroke:#000;stroke-linecap:round;stroke-linejoin:round;stroke-width:2px"/><path d="M1032.28,122.24c-2.34,7.47-7.22,10.71-15.83,11.6-9.48,1-18.89-.47-28.33-.09-1.77.07-3.57-.19-5.28.49" style="fill:none;stroke:#000;stroke-linecap:round;stroke-linejoin:round;stroke-width:2px"/><path d="M623.8,165.44a117.63,117.63,0,0,0,3.69,29.32c.71,2.91.76,6.1,1.59,9.08" style="fill:none;stroke:#000;stroke-linecap:round;stroke-linejoin:round;stroke-width:2px"/><path d="M1123.48,201.44c-2.49,0-4-1.72-5.24-3.39-6.84-8.94-15.24-16.51-22.12-25.41-.67-.88-1.6-.32-2.4-.48" style="fill:none;stroke:#000;stroke-linecap:round;stroke-linejoin:round;stroke-width:2px"/></g></svg>
