<svg xmlns="http://www.w3.org/2000/svg" viewBox="0 0 1366 768"><g id="Layer_15" data-name="Layer 15"><path d="M502.81,459.63c-2.59,1.35-4.59,2.53-6.7,3.47a4,4,0,0,0-2.65,4.16c0,4.67,0,9.33,0,14,0,.82.07,1.64,0,2.46a3,3,0,0,1-1.44,2.37,1.47,1.47,0,0,1-2.16-.3,6.47,6.47,0,0,1-1.11-2.58c-.32-3-.49-6-.65-9-.09-1.64,0-3.29,0-4.94a5,5,0,0,0-1.41-4.09,1.43,1.43,0,0,1,.25-2.45c1.86-1.12,2-2.8,2.09-4.61.38-5.05.79-10.1,1.2-15.15a7.14,7.14,0,0,1,.15-1.22,3.19,3.19,0,0,1,3-2.38,3.16,3.16,0,0,1,2.53,2.39,11.4,11.4,0,0,1,.06,2.86c-.3,3.28-.67,6.54-1,9.82-.09.93,0,1.88,0,2.69a1.47,1.47,0,0,0,2,.21c2-.93,3.9-1.93,5.94-3,.72-2.42.33-4.87,0-7.3-.16-1.22-.53-2.42-.62-3.64a4.85,4.85,0,0,1,.35-2.36,2.13,2.13,0,0,1,3.71-.39,8.67,8.67,0,0,1,1.94,4.91c.16,4,.21,7.93.27,11.9,0,1.07-.09,2.15-.14,3.2,1.5.35,1.68-.91,2.32-1.5,1.91-1.78,3.85-1.87,5.86-.26a10.37,10.37,0,0,1,3.54,7.21c.53,4.48.5,9,.6,13.55a5.33,5.33,0,0,1-2.43,4.53,1.35,1.35,0,0,1-2.18-.94c-.08-2.6-.18-5.21,0-7.8a29.59,29.59,0,0,0-.86-9.38,11.64,11.64,0,0,0-1.09-2c-.69.6-1.31.92-1.6,1.43a28.57,28.57,0,0,0-3.36,12.6,8.35,8.35,0,0,1-2.56,5.92,4.09,4.09,0,0,1-2.82-4c-.22-4.65-.41-9.31-.61-14A35,35,0,0,0,502.81,459.63Z"/><path d="M547.39,397.75l-3.12-1a46.77,46.77,0,0,0,5.11-3.93,29.63,29.63,0,0,0,3.36-4.65c2.28-3.44,5.73-4.44,9.56-4.79,2.31-.21,4,.42,4.84,2.8a9.05,9.05,0,0,0,.88,1.5,12.41,12.41,0,0,1-6.13,6.31,66.72,66.72,0,0,1-7.95,3.15,9.52,9.52,0,0,0,6.8,12.72c4,1,7.22-.07,10.61-1.94a11.79,11.79,0,0,0-.15-1.69c-1.69-6.79.11-12.7,4.56-17.91a20.82,20.82,0,0,1,5.88-5.08,12.25,12.25,0,0,1,6.73-1.45c3.6.25,5.84,2.66,5.61,6.22a49,49,0,0,0,1.21,15.5,19.43,19.43,0,0,0,3.39,7.53,10.24,10.24,0,0,1-2.05,1.54,2.84,2.84,0,0,1-3.91-1.19,27.41,27.41,0,0,1-1.49-3.36c-.38-.83-.81-1.63-1.24-2.48-1.74.17-2.65,1.26-3.6,2.18-2.66,2.61-6.15,2.87-9.51,3.24-1.07.12-2.25-.8-3.6-1.34-1.09.47-2.31,1.12-3.59,1.54a55,55,0,0,1-7.48,2.17,11.37,11.37,0,0,1-13.47-8.59C548,402.54,547.81,400.21,547.39,397.75Zm41.87-6.46c0-1.21,0-1.76,0-2.3-.07-1.73-.87-2.44-2.63-2.26a5.73,5.73,0,0,0-1.59.35c-5.32,2.16-9.42,8.71-8.95,14.47a13.61,13.61,0,0,0,1,3.54,2.38,2.38,0,0,0,2.65,1.52A5.51,5.51,0,0,0,582,406a12.46,12.46,0,0,0,4.91-5.41C588.35,397.42,589.4,394.15,589.26,391.29ZM557,391c2.65-.39,3.35-.84,4.88-3.13C559.28,387.54,558.35,388.13,557,391Z"/><path d="M401.69,317.74c3.37.22,4-.26,4-3.05,0-1.78-.35-3.56-.29-5.33a7.49,7.49,0,0,1,.92-3.06,3.09,3.09,0,0,1,2.78-1.53c1.59.71,1.95,2.2,2.11,3.71.29,2.72.43,5.46.65,8.19.1,1.2-.2,2.48.87,3.71a10.31,10.31,0,0,0,1.81.2,6.88,6.88,0,0,1,5.95,3.06,17.27,17.27,0,0,1,4,8.88c.24,2.45.48,4.9.7,7.36a2.68,2.68,0,0,1-1.41,2.75,1.26,1.26,0,0,1-2-.62c-.39-1.31-.65-2.66-1-4-.54-2.26-1-4.55-1.68-6.77-.61-2-1.57-3.78-3.57-4.57-1.34.43-1.39,1.43-1.43,2.38-.11,2.6-.17,5.21-.29,7.81-.07,1.78-.24,3.55-.3,5.33-.09,2.9-1.5,4.57-4.42,5-1.78-.81-2.13-2.37-2.22-4.08q-.4-7.59-.82-15.17c-.07-1.1-.12-2.19-.25-3.28a1.24,1.24,0,0,0-1.34-1.24,1.88,1.88,0,0,0-1.89,1.3,4.2,4.2,0,0,0-.06,1.62c.42,3.39.88,6.78,1.31,10.17a35.09,35.09,0,0,1,.37,3.67,6.8,6.8,0,0,1-.44,2.4,2.17,2.17,0,0,1-2.14,1.62,2.92,2.92,0,0,1-1.84-1.38,9.53,9.53,0,0,1-1-3.11c-.69-4.05-1.3-8.11-1.92-12.16-.33-2.11-.85-2.58-2.93-2.55-1.5,0-3,0-4.51,0-.32,0-.87-.42-.88-.66a1.92,1.92,0,0,1,.47-1.38,11.73,11.73,0,0,1,2.16-1.15c1-.48,2-.93,3-1.43a9.92,9.92,0,0,0,1.2-.87c0-.95,0-2,0-3.11-.08-3.42-.15-6.85-.27-10.27a5,5,0,0,1,1.61-4,2.06,2.06,0,0,1,3.43.47c.86,1.37.72,2.86.72,4.37,0,2.87.14,5.74.31,8.6A10.61,10.61,0,0,0,401.69,317.74Z"/><path d="M625.48,269.18c-2.51.94-3.4.85-4.56-.82a10,10,0,0,1-1.34-3,35.94,35.94,0,0,1-1.22-11.4c.11-2.15-.09-4.14-2.1-5.24,0-.48-.08-.84.06-1a10.45,10.45,0,0,0,2.36-7.21c0-3,.12-6,.25-9a19.48,19.48,0,0,1,.45-3.65,2.39,2.39,0,0,1,2.39-1.89,2.65,2.65,0,0,1,2.8,1.95,9,9,0,0,1,.36,2.42c0,2.06,0,4.11-.07,6.17,0,1.23-.13,2.47-.09,3.7.06,1.94.58,2.47,2.43,2.55,1.22.05,2.45,0,3.93,0a8.33,8.33,0,0,0,.39-2.29c-.23-2.31-.6-4.61-.95-6.91-.1-.68-.37-1.33-.47-2a2.5,2.5,0,0,1,1.6-3,2.68,2.68,0,0,1,3.4,1.51,18.38,18.38,0,0,1,1.91,7.1c.12,2.72.38,5.44.55,7.87a2.2,2.2,0,0,0,2.91.36,4.43,4.43,0,0,1,4.65.69,9.1,9.1,0,0,1,3.86,4.66,65,65,0,0,1,2.87,10.7,11.58,11.58,0,0,1-.19,5.3,2.84,2.84,0,0,1-2.54,2.32c-1.21-.84-1-2.15-1.07-3.34a26.46,26.46,0,0,0-3.78-12.87c-.46-.81-1.11-1.71-2.21-1.59s-1.37,1.19-1.63,2.11a9.07,9.07,0,0,0-.38,1.6c-.3,3.13-.59,6.27-.84,9.41-.08,1.07.18,2.27-.85,3a3.84,3.84,0,0,1-3.64.54,8.05,8.05,0,0,1-1.51-4.48c-.39-4.23-.68-8.47-1.06-12.7-.12-1.32.18-2.78-1-4-2.28.07-4.28,1.36-6.5,1.77a37.53,37.53,0,0,0-.41,10.47C624.44,262.45,625,265.8,625.48,269.18Z"/><path d="M842.87,312.74c.46.24.7.48.93.46a6.51,6.51,0,0,1,6.38,3.61c1.44,2.44,2.41,4.82,1.61,7.73a18.91,18.91,0,0,0,.15,8.94c.16.79.43,1.56.65,2.34-.32.38-.52.8-.86,1-1.61.8-2.33.7-3.06-.68a10.24,10.24,0,0,1-1.16-3.43c-.34-2.72-.42-5.47-.7-8.19-.14-1.32-.14-2.75-1.63-3.91a10.89,10.89,0,0,0-1,2.18c-.68,3.22-1.37,6.44-1.86,9.69a4.29,4.29,0,0,1-2.92,3.6,1.82,1.82,0,0,1-2.57-1.25,28.7,28.7,0,0,1-.43-4.9c0-3.83.11-7.67.13-11.51a27.68,27.68,0,0,0-.29-2.89c-2,.11-3.64.94-5.32,1.4a2,2,0,0,0-1.34,1.89c-.11,1.23-.24,2.46-.26,3.69q-.1,6.78-.12,13.57c0,3-.32,3.27-3.7,3.21a7.93,7.93,0,0,1-1.55-5c-.2-3.42-.32-6.84-.48-10.26,0-.14,0-.28,0-.41,0-3.76,0-3.76-2.29-6.5C824,313,824,313,824.25,307.31c.08-1.92.19-3.83.22-5.75a5.29,5.29,0,0,1,1.87-4c.62-.57,1.25-1.18,2.16-.79a2.5,2.5,0,0,1,1.8,2.06,38.45,38.45,0,0,1,0,5.68,27.74,27.74,0,0,0,0,6.69c2.27.86,4.29.06,6.39-.5,1.11-2.75.74-5.48.24-8.15a4.17,4.17,0,0,1,1.46-4,2.26,2.26,0,0,1,3.54.38,7.6,7.6,0,0,1,1.41,4.23c0,2.86.4,5.75-.57,8.55C842.66,312,842.8,312.26,842.87,312.74Z"/><path d="M590.76,324.72c1.77-.77,2.85-1.29,4-1.71a2.37,2.37,0,0,1,3.19,1,2.59,2.59,0,0,1-1.13,3.2A28.45,28.45,0,0,1,593.1,329a4.81,4.81,0,0,0-3.25,5.1c.08,4.66-.09,9.32,1.24,13.81a4.83,4.83,0,0,1-3.6,2.05c-3.45-2.61-2.06-6.83-3.39-10.46a5.52,5.52,0,0,0-1.76.56c-1.7,1.37-3.32,2.85-5,4.27-3,2.53-6.56,3.34-10.3,3.55-4.92.29-7.74-2-8.63-6.84-.27-1.47-.57-2.93-.88-4.53a18.41,18.41,0,0,0,1.93-3.87c1-4,3.87-6.57,6.69-9.14a7.23,7.23,0,0,1,8-1.41,4.05,4.05,0,0,1,2.78,4.1,8.52,8.52,0,0,1-2.41,5.94,23.53,23.53,0,0,1-8.13,6.15c-1.65.71-2.19,1.62-2,2.72a3.46,3.46,0,0,0,3,2.9,9.11,9.11,0,0,0,5.93-1.1,32.13,32.13,0,0,0,10.17-10,5.64,5.64,0,0,0,.8-2.69c.44-7,.8-13.95,1.2-20.92a22.82,22.82,0,0,1,.39-4.07,8.81,8.81,0,0,1,1.46-2.88,1.67,1.67,0,0,1,2.76.35,13.17,13.17,0,0,1,1.09,3.5,22.65,22.65,0,0,1,.19,4.51c-.19,3.55-.51,7.1-.74,10.65C590.7,322.14,590.76,323.07,590.76,324.72ZM565.63,333c3.25-.75,4.43-2.85,5.93-4.51.8-.89.8-1.78.2-2.13a1.45,1.45,0,0,0-1.84.3c-1.21,1.26-2.38,2.56-3.47,3.93A9.78,9.78,0,0,0,565.63,333Z"/><path d="M581.68,259.93c-1,.13-1.8.22-2.58.34-1.08.16-2.15.46-3.23.51-3,.15-4.45-1-4.65-3.93a10.59,10.59,0,0,1,.54-4,34.16,34.16,0,0,1,7.34-12.22A65.52,65.52,0,0,1,584,235.7c2.77-2.44,6.41-1.28,7.33,2.31.37,1.45.32,3,.64,4.46a12.33,12.33,0,0,1-1.71,10.08c-1.47,2.21-1.9,5.07-2.14,7.85-.53,6.26-1.25,12.5-1.89,18.76-.24,2.45-.57,4.89-.67,7.35a8.05,8.05,0,0,1-2.58,6.11,7.25,7.25,0,0,1-2.54-.35c-4.33-2.35-8.76-4.64-11.83-8.65a24.63,24.63,0,0,1-2.57-5.07c-.17-.38.14-1,.21-1.36,1.39-.42,2,.51,2.71,1.05,2.43,1.75,4.83,3.56,7.29,5.29.89.63,1.87,1.19,3,.65C581.17,279.72,582.69,265.09,581.68,259.93Zm4.75-18c-.61.05-.95,0-1.12.1a26.84,26.84,0,0,0-7.62,10c-.5,1-1,2.33.18,3.59a8.64,8.64,0,0,0,6.44-4.36C586,248.57,587.85,245.67,586.43,241.94Z"/><path d="M627.81,455.37a20.89,20.89,0,0,1,3.26-1.26,2.06,2.06,0,0,1,1.76.57,2,2,0,0,1-.09,1.83,12.52,12.52,0,0,1-2.3,2.3c-.83.72-1.73,1.35-2.61,2a5.34,5.34,0,0,0-2.36,4.14c-.32,5.32-1,10.65,1,15.84a1.85,1.85,0,0,1-1.06,2.68,2.08,2.08,0,0,1-2.91-.61,27.55,27.55,0,0,1-1.83-4.5,17,17,0,0,1-.44-2.58c-1.31-.43-1.77.41-2.22,1a23.44,23.44,0,0,1-6.84,5.81,12.87,12.87,0,0,1-5,1.65c-4.5.7-8.78-3.72-8.54-7.43a26.78,26.78,0,0,1,.9-6.47,45.76,45.76,0,0,1,9-15.56,10.17,10.17,0,0,1,.83-.91,4.74,4.74,0,0,1,4.88-1.29c1.22.37,2,2.82,1.56,4.74a3.61,3.61,0,0,1-1.27,2c-.41.3-1.26,0-1.91,0h-1a13.92,13.92,0,0,0-3.51,4.3,35.57,35.57,0,0,0-3.8,8.61c-.72,2.29-.95,4.71,1,6.53s4.11,1.26,6.19.37a12.55,12.55,0,0,0,3.83-2.26,39.87,39.87,0,0,0,4.76-5.62,8.32,8.32,0,0,0,1-3.47c.2-1.33-1.3-1.63-1.84-2.53a4.35,4.35,0,0,1-.22-.68,5.17,5.17,0,0,1,1-1.9c1.71-1.47,2.08-3.48,2.53-5.47,1.27-5.61,2.47-11.23,3.77-16.82.34-1.44.51-3,1.65-4.15a1.74,1.74,0,0,1,3,.48,8.38,8.38,0,0,1,.13,5.24c-.8,3.47-1.58,6.94-2.29,10.43A16.69,16.69,0,0,0,627.81,455.37Z"/><path d="M408.86,489.91c-1.64-.56-2.06-1.87-2.15-3.27-.2-2.73-.36-5.47-.4-8.21s.1-5.19.16-7.78c0-.28.08-.62-.05-.81A5,5,0,0,0,405,468c-.35-.19-1.35.27-1.7.71a12.7,12.7,0,0,0-2.94,7.51,53.57,53.57,0,0,0,.14,7.39,7.6,7.6,0,0,1-1.62,6.1c-2.8-.29-3-.4-3.26-2.53-.81-5.82-1.64-11.65-2.42-17.48-.19-1.36-.3-2.72-1.79-3.8a7.05,7.05,0,0,0-1.4,1.73c-2.05,5.55-3.72,11.18-3.2,17.21a4,4,0,0,1-1.07,3,1.8,1.8,0,0,1-2.82-.22,3.89,3.89,0,0,1-.58-1.51,26.78,26.78,0,0,1-.22-3.69c.16-5.47.38-10.94.55-16.41,0-1.23-.06-2.46-.06-3.69a12.46,12.46,0,0,1,.13-2.45,2.35,2.35,0,0,1,3.8-1.4,10.79,10.79,0,0,1,1.3,1.16c.49-.37.92-.68,1.33-1,2-1.63,2.8-1.59,4.57,0,1.21,1.06,1.6,2.47,2.17,3.87s.36,3.26,1.82,4.71c.57-.53,1.08-.94,1.5-1.42.71-.83,1.34-1.73,2.05-2.56,2.31-2.72,6.42-1.79,8,1.06a10.35,10.35,0,0,1,1.12,3.49c.59,4.6,1.38,9.2.9,13.89a23.44,23.44,0,0,0,0,4.51A3.34,3.34,0,0,1,408.86,489.91Z"/><path d="M402.67,402.31c-3.2,1.66-3.46,4.23-3.33,6.88.11,2.32.42,4.63.62,6.95.08.82.09,1.64.17,2.46a2.86,2.86,0,0,1-1.29,2.83c-.87.61-1.65,1.61-2.9,1s-1.28-1.68-1.38-2.8c-.27-3-.53-6-.86-9a3.15,3.15,0,0,0-1.54-2.72c-.92.11-.93.86-1,1.51-.47,3.24-.92,6.48-1.33,9.39a7.88,7.88,0,0,1-.95.8c-3.32,1.77-4.17,1.38-4.89-2.39a44.76,44.76,0,0,1-.69-5.29c-.34-4.78-.61-9.57-.88-14.35a27.76,27.76,0,0,1,0-3.29,5.53,5.53,0,0,1,.48-2,3.17,3.17,0,0,1,2.94-1.87,2.71,2.71,0,0,1,2,2.38c.31,1.45.53,2.92.82,4.52a15.81,15.81,0,0,1,7.67,4c1.14-1.33,2.06-2.49,3.07-3.56,1.94-2,3.89-2.29,6.23-.72a8.78,8.78,0,0,1,4.13,6.35c.58,5.17.94,10.36,1.38,15.55a2.68,2.68,0,0,1-1,2.54c-.64.47-1.14,1.24-2.11.95a2,2,0,0,1-1.36-1.86c-.19-2.05-.3-4.1-.43-6.15-.21-3.26,0-6.6-1.67-9.61C404,404.07,403.4,403.35,402.67,402.31Z"/><path d="M445.25,374.74a3,3,0,0,1,3.39,2.84,52.51,52.51,0,0,1,.84,5.27c.39,4.9,1.1,9.75.67,14.72-.48,5.58,1.19,10.83,3.72,15.8.42.82.83,1.65,1.27,2.52a4.13,4.13,0,0,1-4.31,1.05,3.69,3.69,0,0,1-2.21-2.29c-.57-1.22-1.2-2.42-1.75-3.51-1.41-.23-1.95.69-2.51,1.4a28.15,28.15,0,0,1-5.58,4.81c-2.73,2.06-5.84,2.17-9,2.06a3.2,3.2,0,0,1-3.15-2.77,19.44,19.44,0,0,1-.58-5.69,28.29,28.29,0,0,1,8.52-17.77,10.39,10.39,0,0,1,5.53-2.48c3-.56,3-.59,3.27-3.66.23-2.86.36-5.73.56-8.59C444,377.1,443.92,375.66,445.25,374.74Zm-12.82,41.19c5.65-1.26,8.66-5.21,11.23-9.64a3.63,3.63,0,0,0,.4-2c-.12-2-.3-4.07-.56-6.09-.34-2.56-2.26-3.36-4.45-1.91a9.52,9.52,0,0,0-1.24,1.06,15.82,15.82,0,0,0-4.82,7.91c-.73,2.76-1.81,5.47-1.37,8.4A12,12,0,0,0,432.43,415.93Z"/><path d="M631.86,332.5c-.78,1.37-1.33,2.27-1.81,3.21-1.89,3.75-2.71,4.36-7.43,5.23a12.87,12.87,0,0,1-1.35-2.26,14.31,14.31,0,0,1-1-4c-.33-5.87-.52-11.76-.75-17.64a3.11,3.11,0,0,1,1.46-2.77c1.61-1.14,3.38-.62,3.8,1.32a24.8,24.8,0,0,1,.51,5.3,60,60,0,0,0,.79,10.14c1.05.32,1.33-.37,1.48-1,.31-1.33.53-2.68.75-4a4.4,4.4,0,0,1,2.88-3.85c4.07,1.62,6.13,4.59,5.81,9.11a7.72,7.72,0,0,0,2.12,5.62c1,1.16,2,1.1,3.1-.11a10.44,10.44,0,0,0,2.56-6.79A29.54,29.54,0,0,0,642,315.63c-.25-.48-.52-1-.74-1.46a1.43,1.43,0,0,1,.38-1.84,1.77,1.77,0,0,1,2.26.16c.37.4.64.89,1,1.3a7,7,0,0,0,1.66,1.76c1.81.93,2.36,2.54,2.77,4.32a29.21,29.21,0,0,1-.25,15.41c-1.4,4.61-4.68,6.85-9,8.08a2.72,2.72,0,0,1-2.67-.68,8.93,8.93,0,0,1-3-4.33A18.12,18.12,0,0,0,631.86,332.5Z"/><path d="M885.2,401.5c-1.34,1.7-2.24,2.9-3.21,4a13.56,13.56,0,0,1-8.7,5,5.23,5.23,0,0,1-5.82-4.43,11.16,11.16,0,0,1,.17-3.26,38.7,38.7,0,0,1,6.69-15.34c2.27-3.17,5.08-6.15,9.44-7a22.17,22.17,0,0,0,.58-3.26c.08-2.67,1.15-5.06,1.93-7.53a5.61,5.61,0,0,1,.54-1.1,2.24,2.24,0,0,1,2.31-1.37,2.11,2.11,0,0,1,2,1.84,75.14,75.14,0,0,1,.6,8.59,44.64,44.64,0,0,1-1.74,12.58c-1.43,4.64-.44,8.93,1.56,13.12.41.86,1,1.61,1.42,2.48a1.67,1.67,0,0,1-.13,1.47,1.93,1.93,0,0,1-1.46.47,4.51,4.51,0,0,1-3.31-2.2C887.17,404.38,886.35,403.15,885.2,401.5ZM884,392.86c-.13-2.3-.15-3.66-.31-5a1.27,1.27,0,0,0-1.93-.75,7.07,7.07,0,0,0-.88.85c-3.78,4.11-5.9,9.1-7.53,14.34a9.9,9.9,0,0,0-.28,2.83,1.58,1.58,0,0,0,2.56,1.41,10.61,10.61,0,0,0,2.5-2.07c1.22-1.45,2.22-3.1,3.42-4.57C883.52,397.54,884.42,394.94,884,392.86Z"/><path d="M471,390.71c0-2.35,0-4.39,0-6.43,0-2.46,0-4.92.17-7.37.16-1.94.41-2.11,2.65-4.17l2.9,1.37c.09,1,.22,1.92.26,2.85.31,7.92.47,15.86,1,23.77.28,4.35,1.16,8.66,1.77,13l.28,2.06a5.4,5.4,0,0,1-3.8,2.26c-2.74-2.22-1.93-5.88-3.5-8.67-1.79.57-2.76,1.95-3.9,3a14.83,14.83,0,0,1-8,3.81c-2.43.41-3.58-.48-4.06-2.84a8.41,8.41,0,0,1,.29-4.05,38.11,38.11,0,0,1,8-14.65A15.68,15.68,0,0,1,471,390.71Zm-8.45,22.09c4.25-1.37,6.29-4.62,7.87-8.09a7,7,0,0,0-.25-7c-2.36,1.38-2.46,1.53-4.34,4.35a25,25,0,0,0-3.74,9.05C462,411.54,462.37,412.07,462.58,412.8Z"/><path d="M667.65,324.67c-1.66.23-1.78,1.42-2,2.46-.88,4-1.7,8-2.55,12a16,16,0,0,1-.57,2.39,3,3,0,0,1-3,1.78,2.68,2.68,0,0,1-2.31-2,6.67,6.67,0,0,1-.31-1.6c-.28-5.19-.62-10.38-.79-15.58-.2-6-.27-12-.35-18.06a42.26,42.26,0,0,1,.14-4.91,6,6,0,0,1,.86-2.28,1.58,1.58,0,0,1,2.72,0,6.55,6.55,0,0,1,.77,1.89c.43,2.28.9,4.57,1.11,6.87.26,2.86.24,5.75.39,8.62a15.05,15.05,0,0,0,.51,2.24l3.64-2.74c4.19.4,6.11,3.06,7.41,6.44,1.65,4.31,1.89,8.85,1.8,13.35,0,1.45-.9,3-1.33,4.53-.31,1.06-2.12,1.13-2.71.17a5.27,5.27,0,0,1-.76-1.86c-.35-2.3-.56-4.61-.87-6.92-.23-1.75-.47-3.51-.84-5.23A5.37,5.37,0,0,0,667.65,324.67Z"/><path d="M809.84,401.38c-2.12,4.91-3.64,10.15-9.77,11.31-1.4-.35-1.75-1.59-2.17-2.72a33.41,33.41,0,0,1-1.67-11.31c0-3.14.06-6.29-.05-9.43a5.88,5.88,0,0,1,2-4.74,2.47,2.47,0,0,1,2.6-.8,2.1,2.1,0,0,1,1.33,2.31c-.1,3.41-.25,6.83-.32,10.25q-.07,3.69,0,7.38a6.78,6.78,0,0,0,.46,1.76c1.4.25,1.67-.67,1.87-1.4q1.44-5.34,2.74-10.72c.23-.92.28-1.89.43-2.84a2.82,2.82,0,0,1,2.62-2.48l3.54,2.59c-1.43,4.88.94,9,2.46,13.36a2.33,2.33,0,0,0,.63,1.05c.5.4,1.15,1,1.67.9a2.24,2.24,0,0,0,1.44-1.23,14.46,14.46,0,0,0,.8-7.67c-.47-3.48-.44-7.11-2.42-10.27-.47-.74.24-1.84,1.24-2.27a1.76,1.76,0,0,1,2.42.83,15.05,15.05,0,0,1,.59,1.53,39.89,39.89,0,0,1,2.13,14.54,13.35,13.35,0,0,1-2,6.6,8,8,0,0,1-1.54,1.89c-2.06,1.84-3.74,1.76-5.77-.07a11.9,11.9,0,0,1-2.86-4.45C811.7,403.93,811.34,402.44,809.84,401.38Z"/><path d="M478.58,343.11c-1.11,1.32-.85,2.59-.84,3.8,0,4.24.11,8.47.12,12.71,0,1.21-.14,2.42-.22,3.65a13,13,0,0,1-2.09.76c-1.53.26-2.41-.33-2.65-1.8a22.64,22.64,0,0,1-.18-2.86c-.15-4.23-.31-8.46-.42-12.69-.1-3.82-.11-7.65-.2-11.47-.07-2.73-.18-5.46-.3-8.18-.11-2.32-.26-4.64-.39-7a2.79,2.79,0,0,1,1.7-3,2.36,2.36,0,0,1,3.23.86,3.54,3.54,0,0,0,2.72,1.56c5.65.87,9.25,4.55,11.91,9.19a8,8,0,0,1-.72,9.54,11.6,11.6,0,0,1-8.72,4.66Zm.29-17.58c-.36.41-.82.69-.86,1a23.41,23.41,0,0,0-.36,4.48c.18,2.81-.44,5.7.61,8.87,3.07-.79,5.84-1.78,8.11-3.81a3.32,3.32,0,0,0,.76-2.22,6.52,6.52,0,0,0-1.7-4.52A11.43,11.43,0,0,0,478.87,325.53Z"/><path d="M708.58,412.63c-4.28.63-6.11-1.95-7.06-5.09-1.14-3.79-1.81-7.72-2.64-11.6a5,5,0,0,1,0-1.63,2.84,2.84,0,0,1,2.26-2.59c1.12-.25,2.23.41,2.83,1.85a28.75,28.75,0,0,1,1.9,8.37,10.38,10.38,0,0,0,1.71,5.3c1.77.11,2.33-1,2.61-2.23a20.67,20.67,0,0,0,.76-4.85c0-3.18,1.88-5.65,2.78-8.47a1.51,1.51,0,0,1,2.13-.58,3.13,3.13,0,0,1,1.74,3,30.29,30.29,0,0,1-.32,3.68c-.55,3.65-1.19,7.28-1.73,10.93-.88,5.81-1.71,11.62-2.54,17.43q-1,7.31-2,14.6a3,3,0,0,1-1.6,2.67,1.24,1.24,0,0,1-1.72-.55,6.94,6.94,0,0,1-.42-2c0-2.59,0-5.2.17-7.78.42-6.14,1-12.27,1.43-18.4A12.94,12.94,0,0,0,708.58,412.63Z"/><path d="M531,348.09c-1.36.21-2.38.7-3.1.41a5.52,5.52,0,0,1-2.38-2.07c-.72-1.1-.6-2.71-2.22-3.58-.56.36-1.23.77-1.87,1.21a15.55,15.55,0,0,1-6.76,2.82c-3.29.45-5.45-1.13-6.25-4.44a10.71,10.71,0,0,1,.45-6.47c1.29-3.31,2.83-6.52,4.3-9.76,1.35-2.95,3.68-5.09,6.06-7.16s4.46-2.08,7-.19c.66.49,1.29,1,2,1.5a4.59,4.59,0,0,1,1.93,4.27c-.16,2.19-.2,4.39-.41,6.57C529.21,336.67,528.93,342.13,531,348.09Zm-6.57-19.83c-.17-1.21-.25-2.43-.53-3.61a1.4,1.4,0,0,0-2.51-.64,11.68,11.68,0,0,0-1.59,1.86,39.9,39.9,0,0,0-5.71,12.56,10.71,10.71,0,0,0-.18,2.83,1.72,1.72,0,0,0,2.52,1.67,10.81,10.81,0,0,0,4.4-3.55C523.55,336.16,524.09,332.27,524.45,328.26Z"/><path d="M491.08,259.32c4.83,1.56,7.8-1.18,10.71-3.93a3.9,3.9,0,0,0,.71-2.27c.14-1.16-.06-1.47-1.28-3.29-1.73-.11-2.69,1.08-3.69,2.21a24.66,24.66,0,0,1-5.32,4.49c-1.85,1.16-3.18.9-4.34-1.26a9.38,9.38,0,0,1-.9-3.14,47.24,47.24,0,0,1-.39-5.32,106.24,106.24,0,0,1,1.52-20.46c.34-1.89.52-3.8.77-5.7a3,3,0,0,1,1.75-2.58c1.65-.75,3.16,0,3.34,1.71a16,16,0,0,1-.13,3.66c-.5,3.8-1.26,7.57-1.57,11.38-.34,4.23-.35,8.48-.41,12.72a14.47,14.47,0,0,0,.68,3,13.66,13.66,0,0,0,1.86-1.34c1.5-1.6,2.87-3.32,4.42-4.86,2.07-2,4.51-1.84,6.45.32a10.7,10.7,0,0,1,.39,12.94,14.31,14.31,0,0,1-11,5.51,7.61,7.61,0,0,1-2.78-.48C490.72,262.28,490.57,261.56,491.08,259.32Z"/><path d="M760,293.84c-1-2-.63-3.56-.46-5,.62-5.44,1.37-10.87,2.07-16.3.29-2.18.63-4.35.84-6.53a11.4,11.4,0,0,0-.27-2.45c-1,0-1.78,0-2.59,0a4.21,4.21,0,0,1-4-2.36,13.09,13.09,0,0,1-1.72-7.51c.16-2.05.4-4.09.7-6.12a4.36,4.36,0,0,1,.84-2.25,3,3,0,0,1,2.13-.82c.49,0,1.17.73,1.37,1.28a8.34,8.34,0,0,1,.43,2.81c0,1.78-.15,3.56-.13,5.35a17.13,17.13,0,0,0,.37,3.65,1.82,1.82,0,0,0,3.19.84,7.16,7.16,0,0,0,1.61-2.77,55.56,55.56,0,0,0,1.35-6,11.26,11.26,0,0,1,3-5.31,1.6,1.6,0,0,1,2.74.29,4.71,4.71,0,0,1,.7,3.9q-1.07,4-1.88,8c-1.17,5.77-2.23,11.57-3.4,17.34-.57,2.82-1.29,5.6-1.91,8.41s-.79,5.4-1.85,8a8.87,8.87,0,0,1-1,2.24A9.16,9.16,0,0,1,760,293.84Z"/><path d="M587.56,477.07c-1,1.07-1.71,1.71-2.31,2.41a18.33,18.33,0,0,1-6.77,4.52,3.38,3.38,0,0,1-4.09-.92,6.43,6.43,0,0,1-2.07-4.33c-.12-3.56-.27-7.11,1.14-10.52.62-1.51.94-3.15,1.46-4.7a18.58,18.58,0,0,1,4.72-7.59c3.12-3,7.78-3,10.53.24,1.66,1.95,3.4,3.9,3.65,6.72a9.72,9.72,0,0,1-.52,4.83c-1.22,2.77-.83,5.65-.64,8.5a8.32,8.32,0,0,0,1.05,3.06c.67,1.33,1.53,2.57,2.29,3.83-1.29,1.71-2.38,2.18-3.59,1.18a19,19,0,0,1-3.23-3.64A22.51,22.51,0,0,1,587.56,477.07Zm-10.15-1.57c.07.52.12,1.61.34,2.67a1.64,1.64,0,0,0,2.28,1.06,5.33,5.33,0,0,0,1.67-1.12A26.41,26.41,0,0,0,587.6,468a11.87,11.87,0,0,0-.08-6.86c-.75-2.66-3.51-3.2-5.38-1.11a11.32,11.32,0,0,0-1.58,2.36A30.53,30.53,0,0,0,577.41,475.5Z"/><path d="M895.29,267.22c-4.17.08-5.42-.86-6.91-4.15-2.55-5.62-2-11.17.14-16.72,1-2.66,3.1-4.49,5.09-6.37a7.44,7.44,0,0,1,1.85-.83c1.1-.53,2.21-1,3.27-1.64,2.86-1.61,5.77-.9,7.38,2a19.24,19.24,0,0,1,1.28,3.45,19.06,19.06,0,0,0,.91,3.15c1.78,3.34,1,6.66.12,10A16,16,0,0,1,902.8,265,12.21,12.21,0,0,1,895.29,267.22Zm9.25-20.8c-2.19.05-4.14-.07-5.82-1.62-1.17-1.08-2.11-.78-3.11.53-3.39,4.44-4,9.45-2.82,14.75a5.52,5.52,0,0,0,1.14,2.13,3.07,3.07,0,0,0,4.07.68,12.06,12.06,0,0,0,4.56-4.6,23.25,23.25,0,0,0,2.47-9.43A11.46,11.46,0,0,0,904.54,246.42Z"/><path d="M439.46,233.71l3.5,2.72a44.2,44.2,0,0,1-1.5,14.39c-.75,2.5-.37,4.88,0,7.29a7.54,7.54,0,0,0,1.34,2.48c.39.67.84,1.3,1.27,2-2.86,1.65-4.16,1.38-5.48-1-.39-.69-.79-1.37-1.31-2.28-.86.53-1.51,1-2.18,1.35a17,17,0,0,1-2.9,1.5c-2.36.77-3.47.36-5-1.64a12.77,12.77,0,0,1-2.91-7.52c-.1-6.43-.27-12.87-.3-19.3a12.23,12.23,0,0,1,.81-3.56,2.11,2.11,0,0,1,2.16-1.56,1.91,1.91,0,0,1,1.93,1.78,28,28,0,0,1,.48,4.47c.05,3.15-.15,6.3,0,9.44.14,3.55.48,7.09.84,10.62.11,1.08.46,2.33,1.69,2.59s1.89-.91,2.36-1.88a24.52,24.52,0,0,0,3-10.15c.08-2.73.43-5.45.69-8.18A4.75,4.75,0,0,1,439.46,233.71Z"/><path d="M919.4,240.51c.77-.37,1.38-.69,2-1,3-1.31,5.27-.82,7.24,1.72a18.36,18.36,0,0,1,3.54,7.79,38.21,38.21,0,0,1,.51,6.94c0,2.73-.23,5.46-.38,8.19A14.78,14.78,0,0,1,932,267a1.64,1.64,0,0,1-1.07,1.05,2.25,2.25,0,0,1-1.79-.57,5.91,5.91,0,0,1-.88-2.66c-.22-2.32-.34-4.65-.39-7a28.12,28.12,0,0,0-1.53-8.87,13,13,0,0,0-1.52-2.87,1.15,1.15,0,0,0-2,.22,43.58,43.58,0,0,0-1.27,4.32c-1,4.12-1.9,8.26-2.86,12.39a3.17,3.17,0,0,1-2.66,2.76,1.82,1.82,0,0,1-2.26-1.25,10.23,10.23,0,0,1-.37-2.81c.16-6,.39-12,.58-18.06a6.62,6.62,0,0,1,1-3.92c1.08-1.5,2.13-1.55,3.62-.11Z"/><path d="M770,454.8c1.79.47,3-.63,4.35-1.18,1.76-.71,2.76-.61,3.21.41s0,1.85-1.26,2.72a44,44,0,0,1-4.25,2.48,4.59,4.59,0,0,0-2.74,4.6,55.33,55.33,0,0,0,2.09,15.4,3.54,3.54,0,0,1-3.52,2,10.94,10.94,0,0,1-2.95-5.63c-2.1-10.33-2.48-20.68.3-30.92a100.28,100.28,0,0,1,4.26-11.1,4.52,4.52,0,0,1,3.31-2.8c1.81-.45,2.75-.08,3.67,1.64a2.38,2.38,0,0,1,.06,2.35,4.77,4.77,0,0,1-.68,1c-3.69,3.72-4.65,8.59-5.48,13.44C770.08,451,769.34,452.91,770,454.8Z"/><path d="M726.73,458.41c1.26-1.24,2.28-2.32,3.39-3.3a11.19,11.19,0,0,1,2.61-1.92,4.64,4.64,0,0,1,5.67.91,13.11,13.11,0,0,1,3.88,9.18c0,2.72.09,5.45,0,8.18a52.11,52.11,0,0,1-.39,6.12,7.06,7.06,0,0,1-4.12,5.59c-1.4-.45-1.24-1.56-1.18-2.43.21-3,.42-6,.86-9a29.26,29.26,0,0,0-.1-8.15,8.76,8.76,0,0,0-1.39-3.33,2,2,0,0,0-2.89-.54c-2.66,1.8-4.25,4.22-4.07,7.56.06,1.22.35,2.44.34,3.66,0,1.91-.14,3.81-.33,5.71a4.26,4.26,0,0,1-1.9,3,2.16,2.16,0,0,1-2.27.45,2.43,2.43,0,0,1-1.7-2.11,3.14,3.14,0,0,1,0-.81c.65-3,.18-6-.23-9a19.93,19.93,0,0,0-1.91-6.66,3.24,3.24,0,0,1,.51-3.8c1.14-1.45,2-1.54,3.81-.38Z"/><path d="M608.05,412.66c-3,2.6-4.9,2.3-6.25-1.33a23.8,23.8,0,0,1-1.53-6.37,105.2,105.2,0,0,1-.12-20.92,54.74,54.74,0,0,0,0-8.2c-.09-2.62-.15-5.2,1.32-7.55a2,2,0,0,1,2-1.15,2.33,2.33,0,0,1,2.32,1.94,53.19,53.19,0,0,1,.15,14.75c-.22,2-.43,4.08-.54,6.13a3.78,3.78,0,0,0,1.14,3.47c1.33.49,2.54-.41,3.86-.62a28.48,28.48,0,0,1,4.86-.48,3,3,0,0,1,3,2.33c.13,1-1.12,2.36-2.65,2.73a9.69,9.69,0,0,1-1.62.19c-.69.05-1.38,0-2.06.13-5.9.91-6.7,2-5.66,7.81C606.69,407.9,607.43,410.23,608.05,412.66Z"/><path d="M813.69,241.32c1.65.31,2.57-.6,3.59-1.25a2.71,2.71,0,0,1,3.07,0,8.51,8.51,0,0,1,3.65,4.27,23.66,23.66,0,0,1,1.8,7.13q.39,5.1.92,10.2c.14,1.36.48,2.69.67,4a2.06,2.06,0,0,1-1.67,2.42,1.23,1.23,0,0,1-1.7-.67A42.73,42.73,0,0,1,822.6,262c-.47-2.69-.64-5.44-1.13-8.12a49.26,49.26,0,0,0-1.67-6.31,1.3,1.3,0,0,0-2.32-.1,8.68,8.68,0,0,0-.83,2.28,39.86,39.86,0,0,0-.92,11c0,.55,0,1.1.06,1.64.14,3.49.11,3.53-3.61,4.72-1.46-.6-1.82-1.89-2-3.29-.29-2.58-.62-5.16-.84-7.75-.35-4.08-.64-8.17-.92-12.26a27.62,27.62,0,0,1-.05-3.28,3.68,3.68,0,0,1,.47-1.54,2.09,2.09,0,0,1,3.68,0C813,239.77,813.36,240.62,813.69,241.32Z"/><path d="M674.21,396.75c-.43.57-.8.87-.88,1.23-.8,3.74-1.67,7.47-1.49,11.36.09,1.91-.1,3.83-.05,5.74.08,2.77-1.23,4.35-4.06,5a4.72,4.72,0,0,1-1.62-3.88c0-1.37,0-2.74-.05-4.11a42.38,42.38,0,0,0-1.3-10.57,17.42,17.42,0,0,1-.43-3.24,3.42,3.42,0,0,1,1.34-2.86c.87-.82,1.75-.48,2.68-.2a4.32,4.32,0,0,0,1,0,14.76,14.76,0,0,1,1.42-2.23,14.37,14.37,0,0,1,2.66-2.45,2.32,2.32,0,0,1,1.94-.18c2.27,1,4.39,2.26,5.39,4.76a33.6,33.6,0,0,1,2.61,12.38,3.88,3.88,0,0,1-.24,2c-1.35,2.08-1.22,4.42-1.42,6.72a9,9,0,0,1-.73,2.73,1.28,1.28,0,0,1-1.61.89,1.77,1.77,0,0,1-.94-1.18c-.26-1.89-.41-3.8-.53-5.71-.13-2.19,0-4.41-.32-6.56a68.24,68.24,0,0,0-1.82-8C675.64,397.78,674.8,397.34,674.21,396.75Z"/><path d="M407.1,251.94c0,.41,0,.82,0,1.23-.8,8.5-3.18,10.76-11,14a3.49,3.49,0,0,1-3.5-.48c-1.85-1.3-3.35-2.92-3.67-5.2a27.8,27.8,0,0,1-.41-7.32c.51-3.9,1.51-7.75,2.4-11.6.75-3.29,2.92-5.83,4.75-8.53a3.66,3.66,0,0,1,1.24-1A2,2,0,0,1,400,234.4a6.74,6.74,0,0,0,1.62,4.5c.35.4.73,1,1.16,1.09,2,.34,2.43,2,3,3.51A20.58,20.58,0,0,1,407.1,251.94Zm-9.55-12.3a6.22,6.22,0,0,0-.9,1.14A43,43,0,0,0,393.27,258a5.94,5.94,0,0,0,.24,1.62,7.67,7.67,0,0,0,.82,1.85,2.28,2.28,0,0,0,3.81.46A6.78,6.78,0,0,0,399.6,260c.66-1.35,1.22-2.75,1.76-4.15a10.34,10.34,0,0,0,.39-6.47c-.73-2.77-1.76-5.46-2.76-8.15C398.78,240.63,398.13,240.25,397.55,239.64Z"/><path d="M816.32,460.42c-.76,6.91-3.31,13-10.11,16.49a14.33,14.33,0,0,1-5.88,1.62c-3.25.17-5.36-1.6-6-4.87a17.46,17.46,0,0,1,.65-8.85A38.27,38.27,0,0,1,802,452c2.29-2.77,5.41-3.84,8.35-2.83a3.64,3.64,0,0,1,1.74,1C814.3,453.13,816.24,456.26,816.32,460.42Zm-8.82-6.66a18.09,18.09,0,0,0-2,1.77,33.53,33.53,0,0,0-5,9.35,15.38,15.38,0,0,0-.84,6.46,2.18,2.18,0,0,0,2.47,2.15,6.77,6.77,0,0,0,5-2.39,21.25,21.25,0,0,0,4.28-8.32c.63-2.52.88-5.19-2.09-6.8C808.62,455.62,808.26,454.74,807.5,453.76Z"/><path d="M661.19,258c-.9,1.59-.31,2.82.39,4s1.76,1.18,2.83,1.42a14.4,14.4,0,0,0,6.49-.38c1.72-.38,3.48-.66,5.23-.93a4.13,4.13,0,0,1,1.27.23c-.1,1.53-1.21,2.08-2.3,2.58a30.72,30.72,0,0,1-10.71,2.52,30.13,30.13,0,0,1-3.68,0,4.85,4.85,0,0,1-4.24-2.78,11.94,11.94,0,0,1-1.26-8.34A27.86,27.86,0,0,1,660,245.62a17.44,17.44,0,0,1,7.9-5.64c2.32-.92,4.14,0,5.51,2.14a7.05,7.05,0,0,1-.08,8.09,19.67,19.67,0,0,1-7.92,6.94C664.12,257.79,662.52,257.77,661.19,258Zm2.1-6.74c2.13.56,3.43-.57,4.7-1.47a4.67,4.67,0,0,0,2.22-3.74,1.44,1.44,0,0,0-1.21-1.65A11.73,11.73,0,0,0,663.29,251.29Z"/><path d="M427.31,334.9c1.49-2.68,2.9-5.17,4.25-7.69,2.17-4,5.65-6.58,9.52-8.73,2-1.09,3.66-.62,5.26.76,4.07,3.53,3,7.82-.19,10.14a36.1,36.1,0,0,1-5.75,3.1c-1.23.59-2.58.91-3.83,1.45-1.93.83-2.73,2.14-2.43,3.78s1.56,2.5,3.67,2.63a16.53,16.53,0,0,0,6.4-1.23c2.54-.87,5.1-1.67,8-2.62-.3.72-.34,1.16-.58,1.34a28.71,28.71,0,0,1-4.95,3.59,24.64,24.64,0,0,1-13.54,2.43c-2.16-.25-3.61-1.13-4.23-3.23S427.82,336.7,427.31,334.9Zm16.11-11.27A9.51,9.51,0,0,0,439,327c-.32.41-.63.94,0,1.39C443.31,326.91,444.14,326.06,443.42,323.63Z"/><path d="M798.08,334.18a8.87,8.87,0,0,1-4.23,3,37.71,37.71,0,0,1-12,2.22A10.2,10.2,0,0,1,779,339a6.49,6.49,0,0,1-5.4-6.34c-.1-1.62,0-3.25,0-5a27.84,27.84,0,0,0,1.71-2.63,32.62,32.62,0,0,1,7.18-8.88,10.15,10.15,0,0,1,7.38-3.05c1.66.05,2.88.52,3.47,2.24.48,1.41,1.19,2.74,1.9,4.34-4,5-9.59,7.84-15.22,10.72a8,8,0,0,0-.38,1.57c-.07,2.08.34,2.65,2.33,3.24a13.23,13.23,0,0,0,6.49.4c2.14-.44,4.26-1,6.4-1.41A21.11,21.11,0,0,1,798.08,334.18Zm-14.29-11.46a5.71,5.71,0,0,0,4-2.77c.28-.44.41-1-.43-1.35A6.7,6.7,0,0,0,783.79,322.72Z"/><path d="M734.19,268.37a14.84,14.84,0,0,1-.37-5.36c.1-4.3-1-8.4-1.9-12.53a6.92,6.92,0,0,0-.78-1.89c-1.15-2.06-3.42-2.07-4.52,0a9.85,9.85,0,0,0-.81,2.74,78.61,78.61,0,0,0-1.18,14.29,11.74,11.74,0,0,1-.06,2.45,3.56,3.56,0,0,1-1,1.74,2.23,2.23,0,0,1-3.74-.68,15.33,15.33,0,0,1-1-4.36c-.18-2.58-.1-5.18-.11-7.78s0-5.47,0-8.2c0-1,0-1.92,0-2.87.12-2,.9-2.61,3-2.3a16.56,16.56,0,0,1,2.16.6c1.14-.85,2.3-1.77,3.52-2.62,1.65-1.15,2.91-1.21,4.51,0a12.94,12.94,0,0,1,2.76,3,12.44,12.44,0,0,1,1.66,3.72,44.5,44.5,0,0,1,1.44,16.24,7.81,7.81,0,0,1-.85,2.7A2.13,2.13,0,0,1,734.19,268.37Z"/><path d="M541.74,347l-3,1.53a4.47,4.47,0,0,1-2.31-3.85c-.16-2.31-.25-4.63-.41-6.95s-.38-4.89-.6-7.33-.52-4.89-.73-7.34a2,2,0,0,1,1.09-2,2.19,2.19,0,0,1,2.67.15c.61.5,1.2,1,1.71,1.49a5.25,5.25,0,0,0,1-.31c1.26-.71,2.11-2.42,3.87-1.87a8.77,8.77,0,0,1,4.79,3,15.79,15.79,0,0,1,2.43,4.24,34.78,34.78,0,0,1,1.43,15.76,3.94,3.94,0,0,1-1.38,2.87c-.57.41-1.56.25-1.7-.41a20.7,20.7,0,0,1-.41-3.22,40,40,0,0,0-2-10.86,30.67,30.67,0,0,0-1.23-3c-.39-.85-.74-1.94-2-1.7-1.05.2-1.48,1.15-1.7,2.12a22.09,22.09,0,0,0-.54,3.22c-.27,4.37-.47,8.73-.72,13.1A13.09,13.09,0,0,1,541.74,347Z"/><path d="M641.75,412.67c0-3.5,1.41-6.69,2.49-9.91a25.36,25.36,0,0,1,6.43-10.38c3-2.89,5.9-2.91,9,0a12.79,12.79,0,0,1,4.06,10.72,21.51,21.51,0,0,1-3.32,10.43,17.1,17.1,0,0,1-12.29,8,4.24,4.24,0,0,1-4-1.59C642.47,418.13,641.75,415.86,641.75,412.67ZM655.17,395c-5.28,5.56-8.5,11.6-8.11,19.19.15,2.93,2.18,4.07,4.75,2.59A11.88,11.88,0,0,0,655,414.2a20,20,0,0,0,4.74-11.09C660.05,399.59,658.62,397.11,655.17,395Z"/><path d="M764.65,338.75a5.16,5.16,0,0,1-3.86,1.1c-1.35-.09-2.71-.14-4.07-.11a2.54,2.54,0,0,1-2.8-1.91,32.69,32.69,0,0,1-1.15-6c-.27-4.09-.32-8.19-.4-12.29,0-1.77,0-3.55.14-5.31a4.38,4.38,0,0,1,2.23-3.27,1.51,1.51,0,0,1,2.37.67,11,11,0,0,1,.87,4.79c.08,5,.25,10.11.4,15.16,0,.67.14,1.34.21,2,.84.28,1.06-.2,1.26-.73,1.37-3.57,2.79-7.11,4.1-10.7a24.37,24.37,0,0,0,1.26-4.74c.28-1.87,1.51-2.83,2.94-3.67a1.75,1.75,0,0,1,2.53,1.25,9,9,0,0,1-.36,6c-1.16,2.47-2.12,5-3.22,7.53A24.6,24.6,0,0,0,765,337.6,5.73,5.73,0,0,1,764.65,338.75Z"/><path d="M695.61,258.13a20.94,20.94,0,0,1,5.56-15.39,18.5,18.5,0,0,1,3.74-3.15c4.24-2.69,8.26.11,9.44,3.77a19.45,19.45,0,0,1,1,8.46,19.83,19.83,0,0,1-5.19,11.35c-3,3-7,3.6-11,3.16a3.26,3.26,0,0,1-3-2.92C695.83,261.67,695.76,259.89,695.61,258.13Zm5.46,1.45c0,.3,0,.71.06,1.12a1.64,1.64,0,0,0,2.35,1.46,8.12,8.12,0,0,0,2.69-1.75,19.88,19.88,0,0,0,5.19-11.79,4.27,4.27,0,0,0-.74-3.11,2.12,2.12,0,0,0-2.88-.74,10.6,10.6,0,0,0-4.39,4.74A35,35,0,0,0,701.07,259.58Z"/><path d="M677.51,455.79c.92-.34,1.8-.73,2.71-1a5,5,0,0,1,5.78,2.05,15.8,15.8,0,0,1,3.19,7.9c.07.82.12,1.64.11,2.46-.06,4.23-.55,8.46,0,12.7a3.27,3.27,0,0,1-1.73,3.44,1.43,1.43,0,0,1-2.24-.89,21.46,21.46,0,0,1-.33-5.69c.46-3.18,0-6.29-.14-9.42A10.36,10.36,0,0,0,683,462a1.8,1.8,0,0,0-3.29.09,11.4,11.4,0,0,0-1,2.67,44.06,44.06,0,0,0-1.54,11.36,4,4,0,0,1-1.59,3.59,2.1,2.1,0,0,1-3.34-.9,8.25,8.25,0,0,1-.36-2.42c0-2.32.12-4.65.15-7,0-3,0-6,0-9a19.32,19.32,0,0,1,.39-4.44c.54-2,1.93-2.3,3.65-1,.22.17.39.39.6.56A6.42,6.42,0,0,0,677.51,455.79Z"/><path d="M878.19,317.56A26.38,26.38,0,0,1,863.77,327a3.9,3.9,0,0,0,2.81,4.56,10.64,10.64,0,0,0,5.67.41c2.68-.53,5.34-1.17,8-1.7a16.79,16.79,0,0,1,2.28-.12c-.07.56,0,.93-.16,1.06a15.86,15.86,0,0,1-10.28,4.5c-1.37,0-2.73.15-4.09.29-7.4.73-10.41-4.87-10.31-10.34.07-4.13,2.42-7.15,5.14-9.94C866,312.56,870,312,874.19,312a2.53,2.53,0,0,1,2.66,2.08C877.14,315.07,877.61,316.06,878.19,317.56ZM866,320.31c2.62.08,4.47-.78,5.65-3.13C869.09,316.38,867.35,317.33,866,320.31Z"/><path d="M746.16,322.54c.27,4.86-1.45,9.18-3.7,13.3-1.94,3.53-5.26,5.06-9.11,5.52a3,3,0,0,1-1.89-.62,7.17,7.17,0,0,1-3-4.72c-1.18-6.11.35-11.7,3.37-16.93a31.15,31.15,0,0,1,3.82-4.81,9,9,0,0,1,2.26-1.74,2.19,2.19,0,0,1,3.24.57c1.14,1.36,2.07,2.86,3.83,3.61.48.21.82,1.11.91,1.73C746.08,319.8,746.08,321.18,746.16,322.54Zm-6.2-4.63c-.45,0-.61-.11-.71-.05a3.53,3.53,0,0,0-1,.68,22.2,22.2,0,0,0-5,13.16,9.83,9.83,0,0,0,.41,3.22c.15.57.67,1.34,1.15,1.45s1.19-.43,1.77-.74a1.74,1.74,0,0,0,.54-.6,21.45,21.45,0,0,0,3.56-15.57A6,6,0,0,0,740,317.91Z"/><path d="M760.11,403.54c-.23-4.3,1.85-8,3.41-11.72.67-1.62,1.77-3,2.17-4.83a4.57,4.57,0,0,1,1.46-1.92,2.32,2.32,0,0,1,3-.36c3.82,2,6.58,4.8,7.51,9.17.34,1.59.75,3.21,2.45,4.07a2.26,2.26,0,0,1,1.06,2.48c-.36,3.38-1.46,6.36-4.35,8.48a27.11,27.11,0,0,1-7.13,3.93,7,7,0,0,1-9.57-6.43C760.07,405.46,760.11,404.5,760.11,403.54Zm15-3.87c.24-2.9-1.16-5.52-3.14-7.89a1.63,1.63,0,0,0-3,.31,40.57,40.57,0,0,0-3.78,10.37,12.79,12.79,0,0,0-.13,3.27c.1,1.25.46,2.49,1.84,2.94s3.09.72,4.27-.45C773.52,406,775.47,403.49,775.16,399.67Z"/><path d="M836.87,468.59l2.28-1.19c.13.4.33.68.28.89a8.6,8.6,0,0,1-3.23,5.1,2,2,0,0,1-3.16-.62,15.38,15.38,0,0,1-1.12-3.48c-.61-2.81-1.09-5.64-1.67-8.46a6.17,6.17,0,0,0-1.82-3.6,1.85,1.85,0,0,0-2.25-.41,2.33,2.33,0,0,0-1,1.61c0,3.56.14,7.12.19,10.68,0,2.74.08,5.48,0,8.22a2.41,2.41,0,0,1-2.5,2.23,2.43,2.43,0,0,1-2.43-1.83,18,18,0,0,1-.24-2.45c-.42-6.42-.85-12.84-1.24-19.27a16.22,16.22,0,0,1,.08-3.27,2,2,0,0,1,2.61-1.88,5.44,5.44,0,0,0,3.93-.41,4.63,4.63,0,0,1,5,.85,10.1,10.1,0,0,1,3.59,5.37,35.75,35.75,0,0,1,1.13,8.54C835.3,466.47,835.41,467.68,836.87,468.59Z"/><path d="M695.07,318.53c1.67,6.05.61,11.45-1.9,16.63-1.39,2.86-4.15,4.27-6.82,5.67a13,13,0,0,1-1.94.66c-2.9,1-3.95.61-5-2.21a10.79,10.79,0,0,1-.65-4,33.77,33.77,0,0,1,.89-6.89c.91-3.43,2.11-6.78,3.3-10.13,1.54-4.33,4.46-5.28,8.42-1.66A7.93,7.93,0,0,0,695.07,318.53ZM689,319c-.47.3-.81.39-.89.59a41.63,41.63,0,0,0-3.61,14.55c0,.41.39.84.63,1.33a7,7,0,0,0,3.63-4.51A20,20,0,0,0,690,320.5,5.46,5.46,0,0,0,689,319Z"/><path d="M514.82,408.16c-.27.58-.35,1.1-.62,1.25-4.46,2.42-9,4.73-14.28,4.4a6.88,6.88,0,0,1-2.4-.47,5.38,5.38,0,0,1-3.43-4.26,15.1,15.1,0,0,1,3-11.23,22.6,22.6,0,0,1,9.24-7.93c1-.44,2.06-.75,3.08-1.13,2.12-.8,3.78.15,5.18,1.54a4.14,4.14,0,0,1,.57,5c-2.75,5.45-6.66,9.66-13,10.84a9.87,9.87,0,0,0-1.2.26,1.49,1.49,0,0,0-.69,2.34,3.39,3.39,0,0,0,2.85,1.38,21.74,21.74,0,0,0,7.28-1C511.72,408.63,513.08,407.85,514.82,408.16Zm-13.13-6a18.13,18.13,0,0,0,7.52-5.13,13.56,13.56,0,0,0,1.64-2.78c.15-.3.07-1-.13-1.1a1.84,1.84,0,0,0-1.46-.31c-3.63,1.85-6.52,4.42-7.84,8.44C501.39,401.35,501.49,401.49,501.69,402.13Z"/><path d="M848.69,454.94c1.46.68,2.71-.24,4-.36s2.72-.32,4.08-.32a1.62,1.62,0,0,1,1.2.9,1.64,1.64,0,0,1-.36,1.44,11.2,11.2,0,0,1-5.4,3.55,24.66,24.66,0,0,0-3,1.06,53.15,53.15,0,0,0,.64,12.33,8.84,8.84,0,0,1,.42,2,2.42,2.42,0,0,1-1.66,2.15,2,2,0,0,1-2.28-.37,4.71,4.71,0,0,1-1.72-3.17c-.33-2.44-.71-4.88-.89-7.34-.16-2.11-.72-3.75-3.06-4.23a1.63,1.63,0,0,1-1-.65,2.51,2.51,0,0,1-.25-1.47,1.44,1.44,0,0,1,.7-1c2.76-1.3,2.8-3.74,2.83-6.28,0-3.7.23-7.39.26-11.09a13.6,13.6,0,0,1,1.43-5.51,3.83,3.83,0,0,1,.67-1c.56-.62,2.09-1,2.65-.53a3.19,3.19,0,0,1,1.2,2c-.08,3.69-.35,7.37-.56,11.06-.11,1.91-.26,3.82-.33,5.73A3.16,3.16,0,0,0,848.69,454.94Z"/><path d="M667.13,466.39a18.43,18.43,0,0,1-7.07,12,10.06,10.06,0,0,1-3.7,1.69c-4.36,1.12-9.05-2.95-8.84-7.78a24.7,24.7,0,0,1,5.5-14.71c1.2-1.48,2.59-2.82,3.83-4.27a4.83,4.83,0,0,1,4.82-1.58,3.09,3.09,0,0,1,2,1.26A25.4,25.4,0,0,1,667.13,466.39Zm-6.56-8.95a20.53,20.53,0,0,0-7.16,10.74,10.5,10.5,0,0,0-.17,4.47,3.23,3.23,0,0,0,5.06,2.19,5.62,5.62,0,0,0,1.92-2.08,30.52,30.52,0,0,0,2.39-6.1A10.1,10.1,0,0,0,660.57,457.44Z"/><path d="M930.21,395.55a11.93,11.93,0,0,0-1.41,2.31c-.85,2.74-1.57,5.51-2.34,8.27a9.19,9.19,0,0,1-.67,2.34c-.63,1-1.51,2.17-2.86,2s-1.81-1.55-2-2.78-.2-2.72-.26-4.09c-.21-5.18-.45-10.37-.58-15.56a16.57,16.57,0,0,1,.49-4,1.49,1.49,0,0,1,2.36-.66,7.57,7.57,0,0,1,1.64,2.26,34,34,0,0,1,1.26,3.77c1.58.27,1.9-1.14,2.78-1.66s1.77-.88,2.67-.21a11.28,11.28,0,0,1,4.25,4.87,4.24,4.24,0,0,1,.2,3.53,7.28,7.28,0,0,0-.08,3.2c.17,2.58.42,5.17.62,7.76a3.05,3.05,0,0,1-1.21,2.87,1.26,1.26,0,0,1-2-.55c-.39-2.14-.67-4.31-1-6.47-.28-1.89-.52-3.78-.87-5.65C931.12,396.6,930.68,396.23,930.21,395.55Z"/><path d="M962.37,387.16a35.22,35.22,0,0,1,3.81,1.17,1.68,1.68,0,0,1,.52,3c-1.39,1.05-3,1.85-4.69,2.89a16.28,16.28,0,0,0-.75,6.64c.18,2.45.18,4.93.33,7.39a5.14,5.14,0,0,1-2.22,4.83,1.46,1.46,0,0,1-1.54-1.27,20.6,20.6,0,0,1-.78-4c-.17-3-.17-6-.25-9-.07-2.47-.09-4.9-2.17-6.81-1-.89-.81-2,.45-2.71,1.48-.86,1.54-2.11,1.67-3.47.49-5.19,1-10.37,1.46-15.55a6.27,6.27,0,0,1,1.32-3.82,2.44,2.44,0,0,1,2.56-.9,2.27,2.27,0,0,1,1.81,2,10.88,10.88,0,0,1,0,2.85c-.46,3.25-1.08,6.48-1.5,9.74C962.11,382.34,961.56,384.65,962.37,387.16Z"/><path d="M546.49,477.27c-.22.51-.3,1.09-.64,1.4a14.22,14.22,0,0,1-10.46,3.93c-4.7-.2-7.8-3.24-8.48-7.92-1.07-7.44,3.19-13.32,8.63-16.91a10.78,10.78,0,0,1,4.27-1.32c1.84-.28,4.68,1.72,5.1,3.46a3.68,3.68,0,0,1-.11,2c-.39,1.16-1,2.26-1.47,3.38a7.08,7.08,0,0,1-6.36,4.43c-1,.06-1.92.1-2.86.23a2.24,2.24,0,0,0-2.11,2.53,5.08,5.08,0,0,0,3.82,5.2,12.39,12.39,0,0,0,6.48,0C543.6,477.39,544.84,476.57,546.49,477.27Zm-6.8-15.37c-2.66-.74-4.06.18-4.32,2.93C536.89,463.84,538.74,463.68,539.69,461.9Z"/><path d="M369.17,236a5,5,0,0,1,2.32-5.46,9.61,9.61,0,0,1,4.48-1.86,27.64,27.64,0,0,1,10.59.67,8.25,8.25,0,0,1,1.52.59,1.55,1.55,0,0,1,.38,2.69c-1.12,1-2.4,1.72-4,2.89-1.84,9.33-2.67,19.17-.24,29.05-2,1.7-3,1.66-4.27-.16a13.11,13.11,0,0,1-2.07-6.16c-.58-5.59-1-11.17,0-16.78a22.42,22.42,0,0,0,.09-5.31c-.14-2.18-1.16-2.85-3.31-2.26a31.94,31.94,0,0,0-3.4,1.39C370.61,235.51,370,235.7,369.17,236Z"/><path d="M795.62,265.06a8.58,8.58,0,0,1-8.38-5.61c-2-6.47,0-11.81,4.68-16.36a26.62,26.62,0,0,1,2.45-2.19,5.29,5.29,0,0,1,6.8.42,7.08,7.08,0,0,1,.83.9,21.62,21.62,0,0,1,3.66,9.48c.57,3.16-.63,6.21-2.09,9.06a7,7,0,0,1-5.77,4.08ZM801,251.54a34.25,34.25,0,0,0-.94-3.91c-.55-1.57-1.76-1.85-3.28-1a10.37,10.37,0,0,0-4.74,10.88c.4,2.24,1.52,3.6,3.19,3.72,1.94.15,3-1.14,3.77-2.63A18.23,18.23,0,0,0,801,251.54Z"/><path d="M848.45,262.4a4.4,4.4,0,0,1-3.78,2.4,41.33,41.33,0,0,1-7.38,0c-3.66-.43-5.32-2.2-5.72-5.9a11.83,11.83,0,0,1,.3-4.86c2-6.07,5.64-10.92,11.55-13.78a10.27,10.27,0,0,1,2.29-.87,3.88,3.88,0,0,1,3.74,1.15c2.56,2.63,3.06,5,1.24,8.17-2.34,4.15-5.74,6.92-10.69,7.4-.8.08-1.58.29-2.24.42a2.85,2.85,0,0,0-.09,3.61,5.34,5.34,0,0,0,2.66,1.73,27.32,27.32,0,0,0,4.89.55C846.29,262.46,847.37,262.4,848.45,262.4Zm-8.31-11.72a4.63,4.63,0,0,0,4.29-.76,7,7,0,0,0,2.74-3.85,2,2,0,0,0-.54-1.39,1.22,1.22,0,0,0-1.12,0A14.54,14.54,0,0,0,840.14,250.68Z"/><path d="M550.65,242.61c.8-1.28,1.42-2.32,2.09-3.33a17.51,17.51,0,0,1,1.91-2.65,3.78,3.78,0,0,1,6.19.94,18.25,18.25,0,0,1,1.78,8.36c0,5.61,0,11.23,0,17.11a8.2,8.2,0,0,1-1.67.74c-2.28.43-3.17-.12-3.2-2.45q-.09-6.15.31-12.31a17.58,17.58,0,0,0-.33-6.51c-.21-.67-.57-1.36-1.38-1.23a2,2,0,0,0-1.26.9,25.22,25.22,0,0,0-3,10.59c0,1.65,0,3.3-.14,4.93s-1,2.32-2.77,2.28a2.15,2.15,0,0,1-2.42-2.21c-.13-1.78-.18-3.56-.17-5.35a24,24,0,0,0-1-7.7,7.93,7.93,0,0,1-.26-3.22,1.9,1.9,0,0,1,3.17-1.09C549.16,241,549.77,241.71,550.65,242.61Z"/><path d="M518.36,251.27a8.15,8.15,0,0,0-.76,5.49c.4,2.08,1.58,3.21,3.68,3.17a20.9,20.9,0,0,0,4.81-.83,41.56,41.56,0,0,0,4-1.45c.84.75.48,1.29.07,1.58-3.35,2.44-6.8,4.55-11.25,4.19-3.33-.27-5.36-1.61-6.2-4.87a28.94,28.94,0,0,1-.59-5.28c-.06-.94.27-1.93.14-2.86a14.9,14.9,0,0,0-1-2.79,14.13,14.13,0,0,0,5.23-5.65,12.5,12.5,0,0,1,4.89-4.89,12,12,0,0,1,1.84-.89c3.66-1.18,6.14.34,7,4.1a7.14,7.14,0,0,1-2.3,7.41c-2.08,1.87-4.34,3.35-7.3,3.3A17.26,17.26,0,0,0,518.36,251.27Zm7.82-9.68a3.89,3.89,0,0,0-1-1.25,1.46,1.46,0,0,0-1.42.26,51.25,51.25,0,0,0-3,4.67c-.08.13.59,1,.88,1A5,5,0,0,0,526.18,241.59Z"/><path d="M916.6,394a19.74,19.74,0,0,1-5.93,14.41,10.29,10.29,0,0,1-8.11,3.24,6.83,6.83,0,0,1-6.76-5.48,16.63,16.63,0,0,1,.36-8.52,39.06,39.06,0,0,1,5.74-10.82c2-2.86,5.15-3.48,8.22-4.1a4.83,4.83,0,0,1,5,2.87C916.38,388.2,916.48,391.08,916.6,394Zm-6.24-7.87c-.76.49-1.42,1-2.1,1.37-5,3-6.75,8-8,13.27a10.88,10.88,0,0,0,.32,4.44c.33,1.67,1.49,2.43,3.23,2.62a4.16,4.16,0,0,0,3.63-1.52c4.22-4.55,6.28-9.86,5.27-16.1C912.51,388.76,912.31,387.14,910.36,386.08Z"/><path d="M544.07,386.14c-.9-1.16-1.42-1.77-1.86-2.44-1.43-2.14-3.61-2.21-4.59.4-.29.77-.67,1.5-1,2.25-2.3,5.49-1.39,9.74,3,13.72,2.32,2.12,4.69,4.18,7,6.25.84.73,1.78,1.43,1.31,2.72a3,3,0,0,1-3.12,2.22c-3.12-.56-6.63-.32-9.07-3.48l.92-1.06c.26-.29.53-.57,1-1-.71-.71-1.32-1.42-2-2a18.6,18.6,0,0,1-4-4.66,11.19,11.19,0,0,1-1.73-8.22A43.15,43.15,0,0,1,531,385.6a11.78,11.78,0,0,1,6.85-7.7c1.81-.74,3.68-1,5.35.6,1.83,1.77,2.71,3.75,1.84,6.26A7.44,7.44,0,0,1,544.07,386.14Z"/><path d="M742.45,411c1.92-.4,3.55.79,5.11-.21.24-1.23-.79-1.67-1.43-2.3a20.38,20.38,0,0,1-5.82-12,8.51,8.51,0,0,1,0-3.26c1.32-5,3.59-9.47,7.75-12.77a8.67,8.67,0,0,1,7.76-1.55,4.08,4.08,0,0,1,1.76,1,1.71,1.71,0,0,1,.53,1.41,2.28,2.28,0,0,1-1.26,1.41,8.38,8.38,0,0,1-2.82-.07,4.06,4.06,0,0,0-3.93,1.66c-3.18,3.86-5.05,8-4.12,13.21.6,3.32,2.43,5.75,4.69,8,1.07,1.06,2.26,2,3.25,3.13,2,2.24,1.74,3.55-.76,5.35a4.24,4.24,0,0,1-3,.94c-1.77-.22-3.55-.35-5.31-.63S742.8,413.42,742.45,411Z"/><path d="M848.86,406.65c-.11.43-.1.64-.19.69-4,2.46-8.25,2.5-12.6,1.23a5,5,0,0,1-3.13-3.08,10.71,10.71,0,0,1-.7-7.15,42.85,42.85,0,0,1,4.35-10.13,16.2,16.2,0,0,1,5.53-5.36,3.59,3.59,0,0,1,1.92-.51,2.49,2.49,0,0,1,2.41,1.27c.85,1.78,3.64,2.09,3.42,4.73-.28,3.31-1.33,6.16-4.27,8-2.44,1.51-4.92,2.95-7.46,4.26a2.22,2.22,0,0,0-.83,3.44,8.31,8.31,0,0,0,2.74,2.33,9.85,9.85,0,0,0,6,.72C847,406.94,847.86,406.8,848.86,406.65Zm-9.79-12.82c1.67.19,2.52-.22,3.9-2,1.06-1.38,1.89-2.86.89-5.06A15.76,15.76,0,0,0,839.07,393.83Z"/><path d="M721,301.54l2.31,1.62c-.17,2.88-.3,5.46-.48,8-.3,4.1-.74,8.19-.94,12.29s-.27,7.95-.16,11.92a51.07,51.07,0,0,0,.93,6.48,4.59,4.59,0,0,1-1,.65c-3,1-4,.53-4.74-2.56a35.63,35.63,0,0,1-1-6.9c-.12-3.55,0-7.12.13-10.68.09-3.15.33-6.29.42-9.44a31.27,31.27,0,0,1,1.45-8.9A3.26,3.26,0,0,1,721,301.54Z"/><path d="M859.33,266.67c-.37-.07-1-.17-1.71-.32-1.17-.25-1.72-.8-1.57-1.51.2-.95.93-1.26,1.76-1.45,1.73-.39,3.47-.71,5.15-1.24,1.06-.33,1.19-1.5.41-2.33a5.41,5.41,0,0,0-.89-.84c-3.69-2.52-4.41-6.37-4.69-10.4a4.77,4.77,0,0,1,.28-2c2.34-5.78,6.2-9.89,12.59-11.1a3.05,3.05,0,0,1,3.29,1.08,2.07,2.07,0,0,1-1.08,3.27,1.21,1.21,0,0,1-.4.09c-4.31-.27-6.24,3-8.15,5.87s-.82,7,1.93,9.13c1.41,1.08,3,2,4.31,3.13a2.74,2.74,0,0,1,.29,4.29C868.55,264.72,863,266.88,859.33,266.67Z"/><path d="M503.71,348.11c-.88,1.66-2.3,1.54-3.65,1.5a3.26,3.26,0,0,1-2.56-1.84,5,5,0,0,1-.79-1.86,52,52,0,0,1-1.09-7.68,73.83,73.83,0,0,1,1.86-18.31c.54-2.26.88-4.56,1.26-6.85a4.85,4.85,0,0,1,1.4-2.89,3.05,3.05,0,0,1,3.4-.74,2.3,2.3,0,0,1,1.22,2.77c-.48,3.11-.91,6.23-1.65,9.28a76.88,76.88,0,0,0-1.69,21.17A6.41,6.41,0,0,0,503,346.8,7.22,7.22,0,0,1,503.71,348.11Z"/><path d="M741.2,250.51c.52-5.49,1-11.2,1.66-16.9a12.9,12.9,0,0,1,1.53-4.2,3.81,3.81,0,0,1,1.84-1.43,1.64,1.64,0,0,1,2.19,1.23,3.67,3.67,0,0,1,.11.8c-.19,3.68-.21,7.37-.61,11-.9,8.19-1.19,16.34.57,24.47,0,.26.1.53.13.8a1.92,1.92,0,0,1-1.31,2.26,2.1,2.1,0,0,1-2.55-.76,14.64,14.64,0,0,1-2.46-6.44C741.86,257.84,741.58,254.3,741.2,250.51Z"/><path d="M692.36,394.21a75.25,75.25,0,0,0,.93,20.13c0,.14.05.27.07.41.12,1,.17,1.94-.91,2.48a2.28,2.28,0,0,1-3.07-1.26,19,19,0,0,1-2.62-8.55c-.07-3.83-.13-7.66-.25-11.49-.1-3-.33-6-.4-9-.06-2.73,0-5.46.06-8.19,0-1.31.61-1.93,1.56-2.09a2.18,2.18,0,0,1,2.62,1.47,37,37,0,0,1,1.4,6.39C692.11,387.88,692.19,391.31,692.36,394.21Z"/><path d="M437.72,451.38c.64.32,1.2.43,1.3.7a1.86,1.86,0,0,1,0,1.49c-.87,1-1.93,1.91-2.86,2.91a46.06,46.06,0,0,0-4.29,4.89c-1.54,2.25-1.41,3.95.4,6,1.26,1.41,2.9,2.46,4.3,3.76a21.42,21.42,0,0,1,3.38,3.49c1.3,1.92,1.13,3.5-.46,5.23a20.55,20.55,0,0,1-3.74,3.15,3.61,3.61,0,0,1-4.24-.21,9.25,9.25,0,0,1-3.79-5.2c-.56-1.92-1.53-3.83-.27-5.91a2.65,2.65,0,0,0,0-1.92c-1.67-4.8-.24-8.88,2.83-12.57a26.58,26.58,0,0,1,3.66-3.83A20.85,20.85,0,0,1,437.72,451.38Zm-7.06,22.28c-.25.4-.53.64-.51.84a5.44,5.44,0,0,0,3.2,4.27,2.41,2.41,0,0,0,1.18.12,1.06,1.06,0,0,0,.91-1.45A7.14,7.14,0,0,0,430.66,473.66Z"/><path d="M457.23,263.47a4.22,4.22,0,0,1-1.46-.52,6.85,6.85,0,0,1-3.2-5.88,2.39,2.39,0,0,1,1-1.58c.66-.46,1.3,0,1.75.58a14.35,14.35,0,0,0,1.49,1.95,6,6,0,0,0,2.08,1.2,1.78,1.78,0,0,0,2.18-.68,2.52,2.52,0,0,0,.15-1.92,12.17,12.17,0,0,0-1.66-2.79c-.74-1-1.64-1.84-2.44-2.77a21.84,21.84,0,0,1-2.1-2.53c-1.59-2.48-2.74-4.94-1.16-8s3.86-5.26,7.43-5.75c1.31-.18,1.93.27,2.44,1.65s.32,2.16-.79,2.83c-.82.5-1.73.83-2.57,1.28-1.67.87-2.23,2-1.5,3.68a16,16,0,0,0,2.19,3.43c1.19,1.5,2.56,2.86,3.74,4.36a9.51,9.51,0,0,1,1.66,2.8c1,3.06.32,4.73-1.66,6.17A10.71,10.71,0,0,1,457.23,263.47Z"/><path d="M458.13,483.49a4.32,4.32,0,0,1-4.17-.91c-1.6-1.18-3.61-2-4.17-4.54.6-.31,1.14-.65,1.72-.89a14.5,14.5,0,0,1,1.59-.44,4.42,4.42,0,0,0-.09-1.27c-.67-1.64-1.52-3.21-2.06-4.89a15.79,15.79,0,0,1-.79-4.41c-.12-5.66,3-9.41,7.54-12.26a4.64,4.64,0,0,1,.75-.34,4,4,0,0,1,4.49,1c1.07,1.27.58,2.53-.2,3.7a2.66,2.66,0,0,1-.81.29c-4.05,0-5,.63-6.53,4.18a4,4,0,0,0-.12,3.17c.69,1.78,1.38,3.56,2.13,5.31a19.57,19.57,0,0,0,1.47,2.93C461,477.44,460.71,480.53,458.13,483.49Z"/><path d="M484,391.91c0-2.74.07-5.48,0-8.22a5.63,5.63,0,0,1,2.11-4.67,1.94,1.94,0,0,1,3.09.68,4.47,4.47,0,0,1,.31,1.18,27,27,0,0,1,.28,3.69,185.36,185.36,0,0,0,1,23c.13,1.5.15,3,.25,4.51a3,3,0,0,1-1.76,3,1.87,1.87,0,0,1-2.78-.74,11.61,11.61,0,0,1-.77-2.75A148.5,148.5,0,0,1,484,391.91Z"/><path d="M797.25,453.36c-.38.44-.58.86-.89,1-.87.38-1.82.6-2.69,1-6.25,2.7-9.1,7.54-8.48,14.35.11,1.23.32,2.45.32,3.68a3.15,3.15,0,0,1-2.93,2.87A2.92,2.92,0,0,1,780,474a4.48,4.48,0,0,1-.1-.81,46.19,46.19,0,0,0-1.68-10.5c-.58-2.14.1-3.75,2.12-4.16,2.23-.45,3.6-1.8,5-3.34a10.78,10.78,0,0,1,7-3.83,5.7,5.7,0,0,1,3.94.78A5.31,5.31,0,0,1,797.25,453.36Z"/><path d="M541.26,253.74c0,1.92,0,3.83,0,5.74a11,11,0,0,1-.31,2.43,2.46,2.46,0,0,1-2.39,1.89,2.13,2.13,0,0,1-2.16-2c-.16-.94-.21-1.9-.28-2.85q-.48-6.54-.92-13.09c-.13-1.9-.28-3.81-.31-5.72a4.41,4.41,0,0,1,.46-2.36,3.06,3.06,0,0,1,2-1.19,2,2,0,0,1,1.51,1.09,29.07,29.07,0,0,1,1.71,5.86c.49,3.38.64,6.8.94,10.2Z"/><path d="M720.22,465.8c-.43,3.91-.84,7.83-1.29,11.75-.25,2.18-1.78,3.26-3.65,4a1.6,1.6,0,0,1-2.12-1.31,16.84,16.84,0,0,1,.06-2.84c.26-3.39.66-6.77.79-10.17a52.26,52.26,0,0,0-.34-6.49,3.86,3.86,0,0,1,.63-3.09c1.7-2.06,3.63-1.89,4.69.55a15.47,15.47,0,0,1,.82,3.11,13.8,13.8,0,0,1,.11,2c0,.82,0,1.63,0,2.45Z"/><path d="M419.3,487a9.47,9.47,0,0,1-1.2-2.53q-.75-5.69-1.21-11.42c-.21-2.58-.23-5.19-.3-7.79a7.59,7.59,0,0,1,.16-2,2.2,2.2,0,0,1,1.87-1.92,2.33,2.33,0,0,1,2.53,1,9.59,9.59,0,0,1,1.24,3.82c.19,5.34.16,10.68.23,16A4.59,4.59,0,0,1,419.3,487Z"/><path d="M627.33,411.25c-.48.27-1,.54-1.45.83a3.32,3.32,0,0,0-1.62,3.11c0,3.9-1.49,7.5-2.26,11.25a6.59,6.59,0,0,1-3.31,4.5,8.2,8.2,0,0,1-1.79.47,11.26,11.26,0,0,1-.4-2.89c.85-5.69,1.73-11.38,2.78-17,.43-2.33,3.91-4.06,6.18-3.29C626.46,408.53,626.91,409.38,627.33,411.25Z"/><path d="M637.3,469.35c0-2.86,0-5.73,0-8.59a6.31,6.31,0,0,1,.29-2,3.07,3.07,0,0,1,2.5-1.85c1.1.16,1.55,1.07,1.86,2a9.55,9.55,0,0,1,.47,2.39,21,21,0,0,1,0,2.86q-.37,6.54-.82,13.07a4.91,4.91,0,0,1-2.67,4.32,1.51,1.51,0,0,1-2-.77,9.45,9.45,0,0,1-.31-2.42c.07-3,.21-6,.33-9Z"/><path d="M420.79,401q-.32,8.14-.65,16.31a1.31,1.31,0,0,1-.18.78c-.34.37-.76.87-1.2.92a1.59,1.59,0,0,1-1.37-.58,13,13,0,0,1-1.2-3.83c-.29-3-.38-6-.43-9a24.88,24.88,0,0,0-.53-6.49,6,6,0,0,1,.06-2.8,2.18,2.18,0,0,1,3.26-1.32,4.09,4.09,0,0,1,2.41,3.53c0,.82,0,1.64,0,2.45Z"/><path d="M942.53,381.05c0-2.05,0-4.09,0-6.14a6.54,6.54,0,0,1,1.63-4.09,2.08,2.08,0,0,1,2.47-.95,1.85,1.85,0,0,1,1.2,1.94c0,1.36.1,2.73,0,4.09-.26,3.4-.62,6.79-.92,10.18-.14,1.63-.16,3.27-.35,4.89a1.45,1.45,0,0,1-2.26.85,3.69,3.69,0,0,1-1.84-3c-.16-2.58-.24-5.16-.35-7.74Z"/><path d="M417.1,385.81a3.13,3.13,0,0,1-2.17-2.68c-.11-1.17.5-2.48,1.44-2.66a3.41,3.41,0,0,1,1.91.36,2.08,2.08,0,0,1,1,2.44,2.74,2.74,0,0,1-1.81,2.48A2.63,2.63,0,0,1,417.1,385.81Z"/><path d="M536.85,229.78a7,7,0,0,1,.88-1.89,1.6,1.6,0,0,1,2.87.57c.65,1.92.13,3.32-1.51,4.11a1.31,1.31,0,0,1-1.9-.89C537.06,231.16,537,230.62,536.85,229.78Z"/><path d="M865.1,476.35a9,9,0,0,1-1.45-1.63c-.69-1.4-.52-2.34.37-2.93,1.06-.69,2-.47,3.17.78.16.18.17.51.31,1Z"/><path d="M418,455.45a3.85,3.85,0,0,1-1-4.56,1.59,1.59,0,0,1,2-.87,1.55,1.55,0,0,1,1.08,1.92A8.27,8.27,0,0,1,418,455.45Z"/><path d="M715.91,446.62c.09-1.76.62-2.48,1.76-2.7a1.64,1.64,0,0,1,1.79,1.67c-.21,1.07-1.51,2.32-2.57,2.16C716.45,447.69,716.12,446.89,715.91,446.62Z"/><path d="M642,450.67a2.75,2.75,0,0,1-.72-.31,1.94,1.94,0,0,1-.21-2.57,1.77,1.77,0,0,1,2.41-.79,1.61,1.61,0,0,1,.73.88A2.44,2.44,0,0,1,642,450.67Z"/><path d="M589.26,391.29c.14,2.86-.91,6.13-2.33,9.26A12.46,12.46,0,0,1,582,406a5.51,5.51,0,0,1-2.32.65,2.38,2.38,0,0,1-2.65-1.52,13.61,13.61,0,0,1-1-3.54c-.47-5.76,3.63-12.31,8.95-14.47a5.73,5.73,0,0,1,1.59-.35c1.76-.18,2.56.53,2.63,2.26C589.27,389.53,589.26,390.08,589.26,391.29Z" style="fill:#fff"/><path d="M557,391c1.37-2.86,2.3-3.45,4.88-3.13C560.33,390.15,559.63,390.6,557,391Z" style="fill:#fff"/><path d="M565.63,333a9.78,9.78,0,0,1,.82-2.41c1.09-1.37,2.26-2.67,3.47-3.93a1.45,1.45,0,0,1,1.84-.3c.6.35.6,1.24-.2,2.13C570.06,330.12,568.88,332.22,565.63,333Z" style="fill:#fff"/><path d="M586.43,241.94c1.42,3.73-.45,6.63-2.12,9.28a8.64,8.64,0,0,1-6.44,4.36c-1.13-1.26-.68-2.56-.18-3.59a26.84,26.84,0,0,1,7.62-10C585.48,241.91,585.82,242,586.43,241.94Z" style="fill:#fff"/><path d="M432.43,415.93a12,12,0,0,1-.81-2.22c-.44-2.93.64-5.64,1.37-8.4a15.82,15.82,0,0,1,4.82-7.91,9.52,9.52,0,0,1,1.24-1.06c2.19-1.45,4.11-.65,4.45,1.91.26,2,.44,4.05.56,6.09a3.63,3.63,0,0,1-.4,2C441.09,410.72,438.08,414.67,432.43,415.93Z" style="fill:#fff"/><path d="M884,392.86c.38,2.08-.52,4.68-2.45,7-1.2,1.47-2.2,3.12-3.42,4.57a10.61,10.61,0,0,1-2.5,2.07,1.58,1.58,0,0,1-2.56-1.41,9.9,9.9,0,0,1,.28-2.83c1.63-5.24,3.75-10.23,7.53-14.34a7.07,7.07,0,0,1,.88-.85,1.27,1.27,0,0,1,1.93.75C883.89,389.2,883.91,390.56,884,392.86Z" style="fill:#fff"/><path d="M462.58,412.8c-.21-.73-.54-1.26-.46-1.7a25,25,0,0,1,3.74-9.05c1.88-2.82,2-3,4.34-4.35a7,7,0,0,1,.25,7C468.87,408.18,466.83,411.43,462.58,412.8Z" style="fill:#fff"/><path d="M478.87,325.53a11.43,11.43,0,0,1,6.56,3.82,6.52,6.52,0,0,1,1.7,4.52,3.32,3.32,0,0,1-.76,2.22c-2.27,2-5,3-8.11,3.81-1.05-3.17-.43-6.06-.61-8.87a23.41,23.41,0,0,1,.36-4.48C478.05,326.22,478.51,325.94,478.87,325.53Z" style="fill:#fff"/><path d="M524.45,328.26c-.36,4-.9,7.9-3.6,11.12a10.81,10.81,0,0,1-4.4,3.55,1.72,1.72,0,0,1-2.52-1.67,10.71,10.71,0,0,1,.18-2.83,39.9,39.9,0,0,1,5.71-12.56,11.68,11.68,0,0,1,1.59-1.86,1.4,1.4,0,0,1,2.51.64C524.2,325.83,524.28,327.05,524.45,328.26Z" style="fill:#fff"/><path d="M577.41,475.5a30.53,30.53,0,0,1,3.15-13.15,11.32,11.32,0,0,1,1.58-2.36c1.87-2.09,4.63-1.55,5.38,1.11a11.87,11.87,0,0,1,.08,6.86,26.41,26.41,0,0,1-5.9,10.15,5.33,5.33,0,0,1-1.67,1.12,1.64,1.64,0,0,1-2.28-1.06C577.53,477.11,577.48,476,577.41,475.5Z" style="fill:#fff"/><path d="M904.54,246.42a11.46,11.46,0,0,1,.49,2.44,23.25,23.25,0,0,1-2.47,9.43,12.06,12.06,0,0,1-4.56,4.6,3.07,3.07,0,0,1-4.07-.68,5.52,5.52,0,0,1-1.14-2.13c-1.13-5.3-.57-10.31,2.82-14.75,1-1.31,1.94-1.61,3.11-.53C900.4,246.35,902.35,246.47,904.54,246.42Z" style="fill:#fff"/><path d="M397.55,239.64c.58.61,1.23,1,1.44,1.54,1,2.69,2,5.38,2.76,8.15a10.34,10.34,0,0,1-.39,6.47c-.54,1.4-1.1,2.8-1.76,4.15a6.78,6.78,0,0,1-1.46,1.95,2.28,2.28,0,0,1-3.81-.46,7.67,7.67,0,0,1-.82-1.85,5.94,5.94,0,0,1-.24-1.62,43,43,0,0,1,3.38-17.19A6.22,6.22,0,0,1,397.55,239.64Z" style="fill:#fff"/><path d="M807.5,453.76c.76,1,1.12,1.86,1.77,2.22,3,1.61,2.72,4.28,2.09,6.8a21.25,21.25,0,0,1-4.28,8.32,6.77,6.77,0,0,1-5,2.39,2.18,2.18,0,0,1-2.47-2.15,15.38,15.38,0,0,1,.84-6.46,33.53,33.53,0,0,1,5-9.35A18.09,18.09,0,0,1,807.5,453.76Z" style="fill:#fff"/><path d="M663.29,251.29a11.73,11.73,0,0,1,5.71-6.86,1.44,1.44,0,0,1,1.21,1.65,4.67,4.67,0,0,1-2.22,3.74C666.72,250.72,665.42,251.85,663.29,251.29Z" style="fill:#fff"/><path d="M443.42,323.63c.72,2.43-.11,3.28-4.45,4.72-.64-.45-.33-1,0-1.39A9.51,9.51,0,0,1,443.42,323.63Z" style="fill:#fff"/><path d="M783.79,322.72a6.7,6.7,0,0,1,3.58-4.12c.84.38.71.91.43,1.35A5.71,5.71,0,0,1,783.79,322.72Z" style="fill:#fff"/><path d="M655.17,395c3.45,2.12,4.88,4.6,4.53,8.12A20,20,0,0,1,655,414.2a11.88,11.88,0,0,1-3.15,2.57c-2.57,1.48-4.6.34-4.75-2.59C646.67,406.59,649.89,400.55,655.17,395Z" style="fill:#fff"/><path d="M701.07,259.58a35,35,0,0,1,2.28-10.07,10.6,10.6,0,0,1,4.39-4.74,2.12,2.12,0,0,1,2.88.74,4.27,4.27,0,0,1,.74,3.11,19.88,19.88,0,0,1-5.19,11.79,8.12,8.12,0,0,1-2.69,1.75,1.64,1.64,0,0,1-2.35-1.46C701.08,260.29,701.08,259.88,701.07,259.58Z" style="fill:#fff"/><path d="M866,320.31c1.36-3,3.1-3.93,5.65-3.13C870.46,319.53,868.61,320.39,866,320.31Z" style="fill:#fff"/><path d="M740,317.91a6,6,0,0,1,.73,1.55A21.45,21.45,0,0,1,737.13,335a1.74,1.74,0,0,1-.54.6c-.58.31-1.25.85-1.77.74s-1-.88-1.15-1.45a9.83,9.83,0,0,1-.41-3.22,22.2,22.2,0,0,1,5-13.16,3.53,3.53,0,0,1,1-.68C739.35,317.8,739.51,317.87,740,317.91Z" style="fill:#fff"/><path d="M775.16,399.67c.31,3.82-1.64,6.3-3.9,8.55-1.18,1.17-2.8.94-4.27.45s-1.74-1.69-1.84-2.94a12.79,12.79,0,0,1,.13-3.27,40.57,40.57,0,0,1,3.78-10.37,1.63,1.63,0,0,1,3-.31C774,394.15,775.4,396.77,775.16,399.67Z" style="fill:#fff"/><path d="M689,319a5.46,5.46,0,0,1,.94,1.54,20,20,0,0,1-1.18,10.42,7,7,0,0,1-3.63,4.51c-.24-.49-.65-.92-.63-1.33a41.63,41.63,0,0,1,3.61-14.55C688.2,319.35,688.54,319.26,689,319Z" style="fill:#fff"/><path d="M501.69,402.13c-.2-.64-.3-.78-.27-.88,1.32-4,4.21-6.59,7.84-8.44a1.84,1.84,0,0,1,1.46.31c.2.12.28.8.13,1.1a13.56,13.56,0,0,1-1.64,2.78A18.13,18.13,0,0,1,501.69,402.13Z" style="fill:#fff"/><path d="M660.57,457.44a10.1,10.1,0,0,1,2,9.22,30.52,30.52,0,0,1-2.39,6.1,5.62,5.62,0,0,1-1.92,2.08,3.23,3.23,0,0,1-5.06-2.19,10.5,10.5,0,0,1,.17-4.47A20.53,20.53,0,0,1,660.57,457.44Z" style="fill:#fff"/><path d="M539.69,461.9c-1,1.78-2.8,1.94-4.32,2.93C535.63,462.08,537,461.16,539.69,461.9Z" style="fill:#fff"/><path d="M801,251.54a18.23,18.23,0,0,1-2,7.1c-.78,1.49-1.83,2.78-3.77,2.63-1.67-.12-2.79-1.48-3.19-3.72a10.37,10.37,0,0,1,4.74-10.88c1.52-.89,2.73-.61,3.28,1A34.25,34.25,0,0,1,801,251.54Z" style="fill:#fff"/><path d="M840.14,250.68a14.54,14.54,0,0,1,5.37-6,1.22,1.22,0,0,1,1.12,0,2,2,0,0,1,.54,1.39,7,7,0,0,1-2.74,3.85A4.63,4.63,0,0,1,840.14,250.68Z" style="fill:#fff"/><path d="M526.18,241.59a5,5,0,0,1-4.56,4.68c-.29,0-1-.87-.88-1a51.25,51.25,0,0,1,3-4.67,1.46,1.46,0,0,1,1.42-.26A3.89,3.89,0,0,1,526.18,241.59Z" style="fill:#fff"/><path d="M910.36,386.08c1.95,1.06,2.15,2.68,2.37,4.08,1,6.24-1.05,11.55-5.27,16.1a4.16,4.16,0,0,1-3.63,1.52c-1.74-.19-2.9-.95-3.23-2.62a10.88,10.88,0,0,1-.32-4.44c1.23-5.24,3-10.25,8-13.27C908.94,387,909.6,386.57,910.36,386.08Z" style="fill:#fff"/><path d="M839.07,393.83a15.76,15.76,0,0,1,4.79-7.07c1,2.2.17,3.68-.89,5.06C841.59,393.61,840.74,394,839.07,393.83Z" style="fill:#fff"/><path d="M430.66,473.66a7.14,7.14,0,0,1,4.78,3.78,1.06,1.06,0,0,1-.91,1.45,2.41,2.41,0,0,1-1.18-.12,5.44,5.44,0,0,1-3.2-4.27C430.13,474.3,430.41,474.06,430.66,473.66Z" style="fill:#fff"/></g></svg>
