<svg id="Layer_21" data-name="Layer 21" xmlns="http://www.w3.org/2000/svg" viewBox="0 0 1366 768"><path d="M1012.6,174.56c-5.44.88-10.9,1.67-16.32,2.66-11.19,2-22.16,4.54-32,10.93-9.21,6-14,14.59-16.74,24.81a108.11,108.11,0,0,0-2.39,11.32c-.46,3.09-.78,6.36-1,9.56-.4,6.08-1,12.14-1.23,18.24-.31,8.16-.62,16.31-.22,24.48.27,5.44.29,10.88.71,16.32.45,5.93.95,11.84,1.41,17.77.6,7.69,1.61,15.34,2.2,23a105.79,105.79,0,0,0,1,11c1.36,7.35,1.77,14.77,2.87,22.12s2,14.72,2.85,22.09c2.59,22.34,5.84,44.61,8.47,66.95,1.32,11.21,3,22.39,4.27,33.6,1.34,11.75,2.48,23.51,3.61,35.28,1,10,1.87,20,2.63,30s1.27,19.84,2,29.76c.58,8.32,1.38,16.63,1.88,25,.47,7.77,1.06,15.53,1.72,23.28.45,5.36.74,10.74,1.41,16.08a4.49,4.49,0,0,1-.21,2.4,11.43,11.43,0,0,0-.52,6.24c.21,1.72.11,3.25,1.35,4.89,1.7,2.23,1.24,5.34,1.51,8.07,1.2,11.89,2.82,23.72,4.67,35.51a385,385,0,0,0,8.14,38.88A112.43,112.43,0,0,0,1009,777c2.57,4,5.11,8,7.29,12.19a5.76,5.76,0,0,1,.66,2.67" style="fill:none;stroke:#000;stroke-linecap:round;stroke-linejoin:round;stroke-width:2px"/><path d="M701.32,232.64c1.12-2.56.72-4.86-.4-7.47-4.64-10.84-10.09-21.32-14.23-32.37-1.76-4.72-3.33-9.51-5.29-14.16-4.14-9.8-9.32-19-16.85-26.59a41.87,41.87,0,0,0-20.33-11.18c-8.93-2.16-17.91-2.13-26.89-1.51-9.55.67-19,2.09-28.57,3-3.9.37-7.84.11-11.76.22-12,.34-24,1.12-36,.76q-8.67-.27-17.29-1.38c-2.21-.28-4.49-.35-6.71-.43-7.61-.29-15.2-.81-22.79-1.17-8.57-.41-17.13-.16-25.69-.37-3.28-.08-6.54-.74-9.84-.35" style="fill:none;stroke:#000;stroke-linecap:round;stroke-linejoin:round;stroke-width:2px"/><path d="M625.72,169.52c-3-.09-5.67,1.24-8.39,2.19-8.57,3-16.72,6.81-23.77,12.69A55.81,55.81,0,0,0,575,213.9a203.77,203.77,0,0,0-4.31,21.85c-1.22,8-2,16-3.36,24-2,12-4.86,23.82-10.32,34.79-3.25,6.53-7,12.8-10.5,19.23-2.75,5.13-5,10.53-5.69,16.32-1.21,10.77,3.32,18.26,14.55,21.63,5,1.5,10.24,2,15.16,4a34,34,0,0,1,12.23,8.7c4.44,4.76,8.47,9.87,14.09,13.54,9,5.86,17.51,4.45,24.53-2,.91-.84,1.76-1.75,2.64-2.63" style="fill:none;stroke:#000;stroke-linecap:round;stroke-linejoin:round;stroke-width:2px"/><path d="M1013.56,5.12h-7.68c-15.28.08-30.57-.06-45.84.31-12,.3-24,.69-36,1.57-10.58.79-21.14,1.66-31.69,2.86A404.71,404.71,0,0,0,840.28,19a127.33,127.33,0,0,0-31.17,12.53c-14.23,7.88-28.29,16-41.32,25.86a56.26,56.26,0,0,0-10.55,10.81c-.5.63-.62,1.84-1.92,1.32" style="fill:none;stroke:#000;stroke-linecap:round;stroke-linejoin:round;stroke-width:2px"/><path d="M944.68,224.24c-8.62-1.93-17.21-4-25.92-5.5-4.87-.82-9.76-1.49-14.63-2.23-6.15-.95-12.33-1.6-18.5-2.26s-12.14-1.11-18.23-1.53c-8-.55-16-1.07-24-1.69-7.36-.58-14.72-1.32-22.08-1.9-8.35-.66-16.64-1.79-25-2.69-5.59-.61-11.19-1-16.8-1.12-10.32-.14-20.64.08-31-.08-6.72-.1-13.45-.47-20.16-1l-13-1c-6.63-.49-13.26-.95-19.92-.89" style="fill:none;stroke:#000;stroke-linecap:round;stroke-linejoin:round;stroke-width:2px"/><path d="M825.88,357.56A201.16,201.16,0,0,0,789,404.5a220.63,220.63,0,0,0-20,45.81c-1.31,4.23-2.61,8.46-3.78,12.74-.48,1.78.66,3.08,1.92,4a31,31,0,0,0,12.46,5.54c3.24.69,6.54.91,9.83,1.29,8.83,1,17.61-.08,26.41-.12,6.16,0,12.35-.17,18.47-.74,8.69-.82,17.34-2,25.94-3.51,9.17-1.65,18.42-2.93,27.58-4.63A233.17,233.17,0,0,0,913.73,458a73,73,0,0,1,26.39-3.13,36.08,36.08,0,0,1,6.24,1.16c2,.5,2.46,1.93,2.13,3.61-.87,4.49-1.71,9-2.67,13.44q-2.27,10.51-4,21.13a198.13,198.13,0,0,0-2.34,37.92c.22,8.58.91,17.14,1.79,25.69.65,6.32,1.41,12.63,2.08,18.94.71,6.72,1.64,13.42,2.1,20.17.28,4.08.72,8.16.93,12.24.38,7.35.49,14.73.21,22.08a266.15,266.15,0,0,1-3.47,34.81c-1.48,8.58-3.71,17-5.57,25.44-.55,2.51-2.65,2.43-4.35,3.11" style="fill:none;stroke:#000;stroke-linecap:round;stroke-linejoin:round;stroke-width:2px"/><path d="M768.76,178.16c.24-1.3,1.3-.75,1.92-.68,6.38.69,12.8.88,19.2,1.41q6.84.56,13.68,1.19c8.4.79,16.8,1.57,25.2,2.41,9,.89,17.93,1.81,26.88,2.83,7.18.82,14.41,1.26,21.6,2,5.43.55,10.88,1,16.31,1.49,10.71,1,21.43,1.76,32.17,2.37,7.44.42,14.88.54,22.32.79,2.93.1,6.12-.8,8.88,1.09" style="fill:none;stroke:#000;stroke-linecap:round;stroke-linejoin:round;stroke-width:2px"/><path d="M1012.48,26c-1.55,4.2-3.87,8-5.87,12-5.2,10.33-10.16,20.77-14.69,31.42a247.06,247.06,0,0,0-12.86,38.19,131.86,131.86,0,0,0-3.23,18.22c-.54,5.36-1.32,10.67-1,16.09.44,6.5,4,11,9.21,14.08,8,4.69,17,5.43,26.11,5.1,4.2-.16,8.27-1.51,12.48-1.66" style="fill:none;stroke:#000;stroke-linecap:round;stroke-linejoin:round;stroke-width:2px"/><path d="M697.48,231.44c-1.25-1.7-3.18-2.07-5-2.37-6.77-1.09-13.48-2.72-20.4-2.41-2.43.1-5.12,0-6.21,2.87-.75,2,1,5.53,3.84,6.64,6.48,2.53,11.92,6.52,17.31,10.79,4.19,3.33,9.5,4.56,14.57,6.1,6.93,2.1,14.06,3.19,21.14,4.51,8.26,1.55,15.2,5.55,21.34,11.08,7.88,7.1,14.26,15.48,20.16,24.24,5.15,7.63,9.87,15.56,15.61,22.79,5.41,6.81,11.88,12.19,20.41,14.61a35.53,35.53,0,0,0,9.35,1.49c.65,0,1.78-.54,1.68.94" style="fill:none;stroke:#000;stroke-linecap:round;stroke-linejoin:round;stroke-width:2px"/><path d="M698,232c3,.32,5,2,6.76,4.41,1.36,1.93,3.77,2.49,5.73,3.61,10.91,6.24,22.7,10.49,34.32,15.12a203.77,203.77,0,0,1,43.9,24.27c11,7.93,21.11,16.76,29,27.86,3.19,4.49,5.8,9.31,6.08,15.09.21,4.39-2.81,7.87-7.24,8.86-1.66.37-3.36.5-5,.74" style="fill:none;stroke:#000;stroke-linecap:round;stroke-linejoin:round;stroke-width:2px"/><path d="M493.72,150.08c.46,3.41,2.28,6.29,3.61,9.36,7.45,17.19,16.85,33.41,25.2,50.16,5.39,10.81,9.76,22.08,14.65,33.11,3.64,8.19,7.55,16.24,10.64,24.69a86.74,86.74,0,0,1,4.94,23.32" style="fill:none;stroke:#000;stroke-linecap:round;stroke-linejoin:round;stroke-width:2px"/><path d="M939.88,234.32c-6.54,4.69-11.79,10.64-16.55,17.05a185.63,185.63,0,0,0-14.44,23.73C902.53,287,896.72,299.25,889,310.41c-6,8.7-13.36,16.18-21.15,23.25a132.41,132.41,0,0,1-15.57,12.76c-3.32,2.2-7,3.57-10.6,5.2-3.23,1.48-6.46,2.88-9.08,5.35a2.92,2.92,0,0,1-2.41.71" style="fill:none;stroke:#000;stroke-linecap:round;stroke-linejoin:round;stroke-width:2px"/><path d="M925,691c-6,5-10.09,11.18-11.52,19-1.28,7-.11,13.75,2.15,20.4,3.4,10,8.94,18.88,15.43,27.07,9.27,11.67,18.05,23.74,28,34.85,5,5.51,10.16,10.76,16.56,14.65a27.6,27.6,0,0,0,8.89,3.52,23.17,23.17,0,0,1,3.94,1.42,5.67,5.67,0,0,1,2.29-1.09c9-1.9,14.62-8,19.23-15.36.42-.68,1-1.62,2.13-1.22" style="fill:none;stroke:#000;stroke-linecap:round;stroke-linejoin:round;stroke-width:2px"/><path d="M794.8,339.2c.3.81,0,1-.83,1.24-8.79,2.19-16,7.21-22.82,12.91s-12.69,11.95-19,18c-7,6.74-14.52,13-21.25,20s-13.76,13.78-20.3,21a90.45,90.45,0,0,1-11.24,10.35c-6.56,5.16-10.94,3.75-17,.66a116.8,116.8,0,0,1-12.14-7.58A122.13,122.13,0,0,1,660,407.63c-10.35-8.75-19.69-18.54-29.22-28.14a129.52,129.52,0,0,1-21.16-27.08c-3.1-5.44-5.9-11.09-6.62-17.3-1.23-10.73,2.63-18.19,14.56-21.54,4.19-1.17,8.6-1.25,12.95-1.52,5.82-.37,11.51-1.24,16.83-4,3-1.53,3.77-2.91,2.34-6.3a37.05,37.05,0,0,1-2.71-8.39c-.25-1.44.67-2.39.58-3.62" style="fill:none;stroke:#000;stroke-linecap:round;stroke-linejoin:round;stroke-width:2px"/><path d="M639.64,467.48a71.93,71.93,0,0,1-10.07-.92c-9-1.17-18-2.4-26.89-4-7.81-1.39-15.55-3.09-23.27-4.84-1-.23-1.77-1.18-2.68-1.58a6.06,6.06,0,0,0-5.92,1c-5.2,3.73-11.18,5.83-16.87,8.51-12,5.68-23.94,11.49-35.51,18-17.94,10.16-35.21,21.41-52.79,32.18-3.06,1.87-6.06,3.87-9.14,5.71-.57.34-.62.84-.94,1.24" style="fill:none;stroke:#000;stroke-linecap:round;stroke-linejoin:round;stroke-width:2px"/><path d="M947.56,344.72c-2.73,1-5.61.42-8.41.65a129.51,129.51,0,0,0-27.83,5.82c-11.2,3.44-22.08,7.85-33.36,11.06-10.75,3.06-21.63,5.12-32.88,4.55" style="fill:none;stroke:#000;stroke-linecap:round;stroke-linejoin:round;stroke-width:2px"/><path d="M840.28,4.16c.22,1-.44,1.31-1.19,1.7a180.7,180.7,0,0,1-18.25,7.9c-12.51,4.76-25.24,9-37,15.59a103.65,103.65,0,0,0-20.15,15.38q-10.12,9.56-20.16,19.2c-.63.6-1.16,1.3-2.17.83" style="fill:none;stroke:#000;stroke-linecap:round;stroke-linejoin:round;stroke-width:2px"/><path d="M669.88,416.24a7.46,7.46,0,0,1-4.08,1.92,162.79,162.79,0,0,0-27.13,9.33c-9.95,4.28-20,8.32-30,12.52-5,2.1-9.92,4.32-14.88,6.47-4.64,2-9,4.62-13.67,6.5a6.85,6.85,0,0,0-3.61,2.86" style="fill:none;stroke:#000;stroke-linecap:round;stroke-linejoin:round;stroke-width:2px"/><path d="M734,82.64c3.62,11.52,7.54,22.93,11.49,34.33,6.31,18.16,12.92,36.2,20.18,54,.72,1.76,1.67,3.49,1.21,5.52" style="fill:none;stroke:#000;stroke-linecap:round;stroke-linejoin:round;stroke-width:2px"/><path d="M779.32,325.76c-4.83,1.11-9.08,3.57-13.43,5.77-14,7.07-27.06,15.77-40.81,23.28-10,5.44-20.09,10.41-30.93,14-8.66,2.87-16.11,1.11-22.79-4.47-5.56-4.64-10.69-9.79-16.14-14.57-7.8-6.84-15.42-13.94-24.46-19.22a37.08,37.08,0,0,0-10.57-4.5c-.92-.21-.88-.71-1.07-1.26" style="fill:none;stroke:#000;stroke-linecap:round;stroke-linejoin:round;stroke-width:2px"/><path d="M752,80c-.3,2.6,1,4.82,1.67,7.2,4.58,16.67,10.91,32.75,16.85,48.94,4.17,11.36,8.71,22.58,12.44,34.1.34,1.07,1,1.7,2.16,1.44" style="fill:none;stroke:#000;stroke-linecap:round;stroke-linejoin:round;stroke-width:2px"/><path d="M643.72,179.6c-4.17,2.15-8.55,3.8-12.52,6.42-7.51,5-10.67,12.11-11.49,20.7-.72,7.51-.62,15-.74,22.56-.08,5-.21,9.95-.75,14.87-.64,5.91-1.31,11.86-3.3,17.53" style="fill:none;stroke:#000;stroke-linecap:round;stroke-linejoin:round;stroke-width:2px"/><path d="M458.2,47c2,.12,3.77-1.2,5.76-1.07,4.57.32,7.49,3,9.86,6.69,2.84,4.37,4.41,9.26,5.69,14.19,3,11.69,5.72,23.46,9.17,35A196.47,196.47,0,0,0,496,122.76c.55,1.29,1.14,1.13,2,1.16" style="fill:none;stroke:#000;stroke-linecap:round;stroke-linejoin:round;stroke-width:2px"/><path d="M533.08,59.36a5.73,5.73,0,0,1,3.36-1c9.36,0,18.72-.32,28.08-.16A182.28,182.28,0,0,1,588.29,60,125.17,125.17,0,0,1,602.9,62.8a35.15,35.15,0,0,1,18,10.94,131.48,131.48,0,0,1,19.41,30c3.32,7.11,6,14.47,6.92,22.32a16.43,16.43,0,0,1-1.39,9.11" style="fill:none;stroke:#000;stroke-linecap:round;stroke-linejoin:round;stroke-width:2px"/><path d="M938.2,716.48c-.62,3.66.17,7.3.84,10.78a90.44,90.44,0,0,0,9.25,26.18c4.62,8.55,10.23,16.26,19,21.09a23.79,23.79,0,0,0,15.35,3.16c.77-.11,1.8.2,1.32-1.21" style="fill:none;stroke:#000;stroke-linecap:round;stroke-linejoin:round;stroke-width:2px"/><path d="M721.72,95.12c-2.72,6.4-5.26,12.88-8.2,19.18-4.93,10.58-9,21.42-11.24,32.9-1.25,6.35-2.58,12.69-5.06,18.71a10.75,10.75,0,0,0-.46,4.09" style="fill:none;stroke:#000;stroke-linecap:round;stroke-linejoin:round;stroke-width:2px"/><path d="M530.92,58.28A4.92,4.92,0,0,1,533.44,61c1.34,3,3.89,5.32,5.9,7.95,5,6.55,9.39,13.37,11.78,21.37a83.58,83.58,0,0,1,2.9,15.12c.55,5.29.63,10.56.67,15.85a110.13,110.13,0,0,1-1.09,13" style="fill:none;stroke:#000;stroke-linecap:round;stroke-linejoin:round;stroke-width:2px"/><path d="M687.16,172.28c2.25,0,4.33-.93,6.45-1.44a21.66,21.66,0,0,1,7.7,0c4.56.54,9.15.69,13.69,1.33,3.59.5,7.2.84,10.8,1.22,5.52.57,11.06,1,16.55,1.72s11.23,1,16.82,1.83a23.3,23.3,0,0,0,6.46,0,3.41,3.41,0,0,1,3.13.8" style="fill:none;stroke:#000;stroke-linecap:round;stroke-linejoin:round;stroke-width:2px"/><path d="M526.36,57.44c.11,1-.52,1.64-1,2.4C520.05,69.27,517,79.44,515,90.07a99.78,99.78,0,0,0-1.55,17.29,50.55,50.55,0,0,0,3.28,19.44,2.55,2.55,0,0,1,.24,1.44" style="fill:none;stroke:#000;stroke-linecap:round;stroke-linejoin:round;stroke-width:2px"/><path d="M686.2,256.16c7.08,10.88,2.2,21.64-7,28.06-5.74,4-12.34,5.58-19.19,6a45.57,45.57,0,0,1-31.89-10.09,51.79,51.79,0,0,1-9.64-10c-.71-1-1.24-2.29-2.87-1.93" style="fill:none;stroke:#000;stroke-linecap:round;stroke-linejoin:round;stroke-width:2px"/><path d="M650.2,14.48c-2.07-.4-2.84,1.23-4.15,2.32A86.3,86.3,0,0,0,637.73,25q-7.23,7.91-14.41,15.84c-2.13,2.36-4.65,4.31-7,6.48-4.05,3.79-7.52,8.16-11.75,11.77a5.16,5.16,0,0,0-1.45,3.35" style="fill:none;stroke:#000;stroke-linecap:round;stroke-linejoin:round;stroke-width:2px"/><path d="M932.68,693.2a29.45,29.45,0,0,0,5.26,14.42c3.53,4.86,8.41,6.76,14.18,6.94,5.45.17,10.63-1.31,15.84-2.64.68-.17.9-.55.6-1.2" style="fill:none;stroke:#000;stroke-linecap:round;stroke-linejoin:round;stroke-width:2px"/><path d="M690,282.56a17.54,17.54,0,0,1-2.22,14.12,21.75,21.75,0,0,1-12.89,9.91c-6.46,1.78-11.4-1.61-12.73-7.23" style="fill:none;stroke:#000;stroke-linecap:round;stroke-linejoin:round;stroke-width:2px"/><path d="M747.64,455.24c-7.6-2-13.89-6.47-20.14-10.94-5.54-4-11.09-7.9-17.3-10.78-.91-.42-2-.36-2.76-1.2" style="fill:none;stroke:#000;stroke-linecap:round;stroke-linejoin:round;stroke-width:2px"/><path d="M685.24,209.6c-1.41.27-1.94-.77-2.66-1.67-4.62-5.81-9.17-11.7-14.84-16.59a46.4,46.4,0,0,0-13.2-7.94,8.16,8.16,0,0,0-2.9-.44" style="fill:none;stroke:#000;stroke-linecap:round;stroke-linejoin:round;stroke-width:2px"/><path d="M978.76,661.28a5,5,0,0,0-1.69,4.32c.09,2.4.24,4.82.17,7.2-.15,5.37-.11,10.78-1.32,16.09a16.53,16.53,0,0,0,0,3.59" style="fill:none;stroke:#000;stroke-linecap:round;stroke-linejoin:round;stroke-width:2px"/><path d="M724.12,266.12c-5.15,1.29-10.4,2.22-15.36,4.2-4,1.6-7.6,3.81-10,7.47-.61.92-1.27.59-2,.69" style="fill:none;stroke:#000;stroke-linecap:round;stroke-linejoin:round;stroke-width:2px"/><path d="M624.52-.4a27.6,27.6,0,0,1,10,5.34c4.19,3.32,8.6,6.37,12.53,10" style="fill:none;stroke:#000;stroke-linecap:round;stroke-linejoin:round;stroke-width:2px"/><path d="M804.28,347.36c3.23,0,6.36,1,9.6,1" style="fill:none;stroke:#000;stroke-linecap:round;stroke-linejoin:round;stroke-width:2px"/></svg>
