<svg id="Layer_21" data-name="Layer 21" xmlns="http://www.w3.org/2000/svg" viewBox="0 0 1366 768"><path d="M803.2,497.06a14.33,14.33,0,0,0-4.67,1.53,79.06,79.06,0,0,0-17.9,11.72c-7.64,6.45-14.7,13.54-22,20.39-6.86,6.47-13.82,12.83-21,19-10,8.62-20.31,16.75-30.6,24.95-5.34,4.25-10.5,8.7-15.74,13.06-4.76,4-9.46,8-14.17,12q-11.93,10.17-24,20.17c-9,7.45-18.26,14.55-27.47,21.74-6.16,4.81-12.23,9.74-18.26,14.73-8.2,6.8-16.33,13.68-24.56,20.45-8,6.59-16.14,13-24.5,19.17-6.69,4.91-13.63,9.44-20.77,13.67-8.28,4.9-16.38,10.11-24.6,15.12-5,3-10.06,5.85-14.86,9.15a53.62,53.62,0,0,0-10,8.36,3.55,3.55,0,0,0-1.18,3" style="fill:none;stroke:#000;stroke-linecap:round;stroke-linejoin:round;stroke-width:2px"/><path d="M848.2,532c-1,.16-1.66,1-2.39,1.58-7.38,6-14.71,12.09-22.1,18.09-5.27,4.28-10.49,8.63-15.72,12.95q-12.13,10.05-23.85,20.56c-4.91,4.4-9.74,8.89-14.42,13.54-5.33,5.31-10.73,10.56-15.94,16a237.48,237.48,0,0,1-44.17,36.11c-6.64,4.2-13.19,8.53-19.71,12.93a231,231,0,0,0-25.53,20c-3.92,3.52-7.74,7.15-11.66,10.66-5.57,5-11.37,9.7-17.25,14.31-4.81,3.77-9.49,7.7-14.17,11.63-5,4.16-9.89,8.34-14.76,12.6-5.09,4.46-10.08,9-15.13,13.55-6.08,5.41-11.82,11.2-18.37,16.07-3,2.25-6.09,4.38-9.1,6.62-1.34,1-2.53,2.21-3.86,3.21A2.62,2.62,0,0,0,559,775" style="fill:none;stroke:#000;stroke-linecap:round;stroke-linejoin:round;stroke-width:2px"/><path d="M910.3,546.68c0,.42.17.7-.39,1.12q-8.76,6.54-17.18,13.54c-3.39,2.82-6.65,5.82-10,8.74-8,7-15.68,14.48-23.39,21.85-2.81,2.67-5.52,5.44-8.29,8.15-6.76,6.6-13.48,13.24-20.29,19.79-6.42,6.16-13,12.19-19.93,17.74C805,642.3,799,646.77,793,651.32a253.77,253.77,0,0,0-20.76,17.28c-4.51,4.25-9,8.54-13.32,13-4,4.12-8,8.3-12.13,12.35-6.26,6.14-12.52,12.29-19.06,18.14-4.64,4.15-9.18,8.43-13.82,12.58-4.44,4-9,7.83-13.43,11.78s-9.05,8.06-13.56,12.11-9.13,8.23-13.68,12.36c-2.66,2.42-5.31,4.85-7.91,7.33-3.28,3.12-6.53,6.27-9.7,9.5a2.68,2.68,0,0,1-2.67.87" style="fill:none;stroke:#000;stroke-linecap:round;stroke-linejoin:round;stroke-width:2px"/><path d="M906.4,719.06a3.5,3.5,0,0,1-1.92-.17,242.24,242.24,0,0,0-25.2-7.09c-7-1.6-14-3.08-21-4.33-5-.89-9.9-2-14.88-2.85-6.06-1-12.1-2.19-18.11-3.4-6.67-1.35-13.29-3-20-3.83a51.25,51.25,0,0,0-7.32-.6c-1.48,0-3,0-4.44,0a43.53,43.53,0,0,0-16.67,3.55c-7.36,3.1-13.75,7.77-19.68,13.06-4.33,3.86-8.47,7.92-12.51,12.09s-7.89,8.12-12.11,11.88c-4.83,4.3-9.65,8.62-14.62,12.76-2.83,2.35-5.51,4.89-8.3,7.29-3.15,2.73-6.21,5.55-9.23,8.41a1.55,1.55,0,0,1-1.32.6" style="fill:none;stroke:#000;stroke-linecap:round;stroke-linejoin:round;stroke-width:2px"/><path d="M635.44,492.08a6.28,6.28,0,0,0-2.88.35.38.38,0,0,1-.48,0c-1.52-1.32-3.41-.9-5.16-1.06-3.55-.32-7.12-.39-10.68-.38a51.21,51.21,0,0,0-28.82,8.61,160.23,160.23,0,0,0-14.86,11.31,42.24,42.24,0,0,0-7.55,7.8,12.71,12.71,0,0,0-2.76,6.72c-.16,3.12,1.54,5.28,3.83,7.07a27.1,27.1,0,0,0,7,3.59,55.23,55.23,0,0,0,11.52,3.34,35.49,35.49,0,0,0,9.72.33,25.77,25.77,0,0,0,12.93-5,26.14,26.14,0,0,0,8.66-10.53" style="fill:none;stroke:#000;stroke-linecap:round;stroke-linejoin:round;stroke-width:2px"/><path d="M914.92,568a.89.89,0,0,0-.62.22c-2.25,2.15-4.54,4.26-6.82,6.38q-7.08,6.54-14.16,13.08c-5.15,4.8-10.25,9.67-15,14.87a130.64,130.64,0,0,0-13.06,16.34,32,32,0,0,0-4.34,8c-.63,2-.15,3.51,1.7,4.55a49.62,49.62,0,0,0,11.63,4.32,89,89,0,0,0,11.4,2.25c3.79.51,7.59.89,11.4,1.28,5.4.55,10.81,1,16.2,1.61a128.17,128.17,0,0,1,13.8,2.17,7.25,7.25,0,0,0,1.68,0" style="fill:none;stroke:#000;stroke-linecap:round;stroke-linejoin:round;stroke-width:2px"/><path d="M687.64,474.56c3.88.68,7.74,1.48,11.64,2,3.64.49,7.26,1,10.92,1.39,3.29.31,6.56.87,9.84,1.29,3.64.46,7.3.78,10.92,1.34,5.51.86,11,1.76,16.45,3.06a67,67,0,0,1,12.71,4,17.48,17.48,0,0,1,7.09,5.39,8.72,8.72,0,0,1,1.43,7.09" style="fill:none;stroke:#000;stroke-linecap:round;stroke-linejoin:round;stroke-width:2px"/><path d="M693,518.66c.8.18,1.84-.26,2.18,1,.22.84,1.3,1.33,1.06,2.4-.1.47.28.73.46,1.09a11,11,0,0,1,.56,9.8c-1.5,3.35-4.65,4.6-8.1,5.06-5.73.77-11.26-.68-16.79-1.72a58.1,58.1,0,0,1-11.91-3.38,8.31,8.31,0,0,1-5-9.29,5.76,5.76,0,0,1,1.81-3,15.39,15.39,0,0,1,7.31-3.83,62.8,62.8,0,0,1,12.12-2c4.8-.38,9.59-.49,14.4-.44,3,0,5.92.15,8.88.23" style="fill:none;stroke:#000;stroke-linecap:round;stroke-linejoin:round;stroke-width:2px"/><path d="M563,505.28c-4.48-1-9-2.13-13.44-3.11a107.11,107.11,0,0,0-13.8-2.19,68,68,0,0,0-7.68-.44,39.08,39.08,0,0,0-13.91,2.51,2.94,2.94,0,0,1-1.09.11" style="fill:none;stroke:#000;stroke-linecap:round;stroke-linejoin:round;stroke-width:2px"/><path d="M742.72,508.64c.38-1.56-.41-2.74-1.33-3.83A8.15,8.15,0,0,0,736.6,502c-3.17-.64-6.17.13-9.11,1.11-6.27,2.08-11.91,5.4-17.41,9-3.81,2.47-7.48,5.14-11.15,7.81-.8.58-1.73.88-2.53,1.43" style="fill:none;stroke:#000;stroke-linecap:round;stroke-linejoin:round;stroke-width:2px"/><path d="M680.14,503.72a2.79,2.79,0,0,0-1.14-2.16,10.6,10.6,0,0,0-5.88-2.62c-4.3-.8-8.63-.5-13-.4-2.29.06-4.56.32-6.84.53-3.09.28-6.16.75-9.24,1.17s-6.08.92-9.12,1.3c-.9.11-2-.33-2.73,0a11.46,11.46,0,0,1-2.79.77c-1.64.2-3.28.43-4.92.59a6.15,6.15,0,0,0-4.31,2.29c1.22,1.54,3,1.88,4.79,2.16,3,.47,6,1.07,9,1.79a85.88,85.88,0,0,1,8.77,2.21c1.12.4,2.31-.19,3.47,0" style="fill:none;stroke:#000;stroke-linecap:round;stroke-linejoin:round;stroke-width:2px"/><path d="M643,511.52a23.9,23.9,0,0,0-.6,5.4c0,.64-.47,1.1-.6,1.68-1.09,5-4.74,6.83-9.36,7.31a37.29,37.29,0,0,1-13.2-1.42,9,9,0,0,0-2.88-.36,1.12,1.12,0,0,1-1-.37c-1-1-2.39-1.31-3.61-1.9-4.14-2-7.45-4.81-9.37-9.13-1.44-3.23-.18-5.2,2.42-6a8.68,8.68,0,0,1,2.76-.59,1.7,1.7,0,0,0,1-.24c1.72-1.05,3.64-.93,5.52-.81s4,0,6,.09" style="fill:none;stroke:#000;stroke-linecap:round;stroke-linejoin:round;stroke-width:2px"/><path d="M661.84,456a19,19,0,0,0-15.59,7.69,9.55,9.55,0,0,0-2.06,6.59c.06,1,0,2,0,3" style="fill:none;stroke:#000;stroke-linecap:round;stroke-linejoin:round;stroke-width:2px"/><path d="M665.44,450c2.95-.38,5.39,1.1,7.92,2.23a48.27,48.27,0,0,1,10.44,5.86,9.67,9.67,0,0,1,2,2.06,1.61,1.61,0,0,1-.72,2.5c-.85.42-1.77.68-2.62,1.12a.53.53,0,0,1-.59-.05c-.51-.47-1.12-.31-1.7-.34" style="fill:none;stroke:#000;stroke-linecap:round;stroke-linejoin:round;stroke-width:2px"/><path d="M663,466.64a25.58,25.58,0,0,0-6.71,4.81q-5.26,4.82-10.44,9.72c-.72.69-1.52.38-2.29.47" style="fill:none;stroke:#000;stroke-linecap:round;stroke-linejoin:round;stroke-width:2px"/><path d="M666.4,472a4.94,4.94,0,0,0-3.37,1.19c-3.34,2.38-6.86,4.52-10.07,7.09a11.89,11.89,0,0,0-1.9,1.7,2,2,0,0,1-2.18.64" style="fill:none;stroke:#000;stroke-linecap:round;stroke-linejoin:round;stroke-width:2px"/><path d="M682.24,464c.33,1.95.93,3.84.64,5.89a14.86,14.86,0,0,1-1.4,4.17,32.24,32.24,0,0,1-2.11,3.38,2.67,2.67,0,0,1-1.34,1.28c-1.88.5-1.91,1.91-1.91,3.4" style="fill:none;stroke:#000;stroke-linecap:round;stroke-linejoin:round;stroke-width:2px"/><path d="M723,535.16a2.88,2.88,0,0,1-2.79-1.06c-1.76-2.07-4.3-2.8-6.82-3.35a40.57,40.57,0,0,0-7.79-.75" style="fill:none;stroke:#000;stroke-linecap:round;stroke-linejoin:round;stroke-width:2px"/><path d="M669.4,456a7.07,7.07,0,0,0-6.5,8.64c.17.84-.16,1.8.74,2.4" style="fill:none;stroke:#000;stroke-linecap:round;stroke-linejoin:round;stroke-width:2px"/><path d="M674.2,473.36a5.88,5.88,0,0,0-2.78,2c-1,1.15-1.62,2.87-3.23,3.35-2.28.67-3.4,2.59-4.89,4.13a1.51,1.51,0,0,1-1.22.58" style="fill:none;stroke:#000;stroke-linecap:round;stroke-linejoin:round;stroke-width:2px"/><path d="M668.92,469.58a3.56,3.56,0,0,0-2.28,3.54,4.22,4.22,0,0,1-.35,2.16,4.9,4.9,0,0,0-.13,4.2" style="fill:none;stroke:#000;stroke-linecap:round;stroke-linejoin:round;stroke-width:2px"/><path d="M642.64,517.16c3.52.29,6.16,2.55,9.1,4.11,1.23.66,2.49,1.19,3.74,1.77" style="fill:none;stroke:#000;stroke-linecap:round;stroke-linejoin:round;stroke-width:2px"/><path d="M675.16,470.12a.87.87,0,0,1,0,.36,5.69,5.69,0,0,0,.08,5.07c.56,1.11.4,2.57,1.37,3.57" style="fill:none;stroke:#000;stroke-linecap:round;stroke-linejoin:round;stroke-width:2px"/><path d="M905.32,719.36c.41.47.18,1,.24,1.56" style="fill:none;stroke:#000;stroke-linecap:round;stroke-linejoin:round;stroke-width:2px"/></svg>
