<?xml version="1.0" encoding="utf-8"?>
<!-- Generator: Adobe Illustrator 24.0.1, SVG Export Plug-In . SVG Version: 6.00 Build 0)  -->
<svg version="1.1" id="Layer_1" xmlns="http://www.w3.org/2000/svg" xmlns:xlink="http://www.w3.org/1999/xlink" x="0px" y="0px"
	 viewBox="0 0 1366 768" style="enable-background:new 0 0 1366 768;" xml:space="preserve">
<style type="text/css">
	.st0{fill:#FFFFFF;}
</style>

<g id="Layer_19">
	<path d="M293.6,78.8c-1.1,0.3-2.3,0.6-3.4,1.1c-2.9,1-5.9,1.3-8.9,1c-5.7-0.4-8.6-3.1-9.8-8.7c-0.1-0.7-0.3-1.3-0.6-2.2
		c-1.7-0.4-3.4-1-5.1-1.3c-0.8-0.2-1.7,0.3-1.9,1.1c0,0.1-0.1,0.3-0.1,0.4c0,1.5,0.1,3,0.3,4.5c0.2,1.6,0.6,3.2,0.8,4.9
		c0.2,1.1-0.5,2.1-1.6,2.4c-0.1,0-0.1,0-0.2,0c-1.1,0.3-2.3-0.2-2.8-1.2c-0.4-0.7-0.7-1.5-0.9-2.3c-2-8.3-3.3-16.7-2.1-25.2
		c0.2-1.2,0.5-2.4,0.9-3.6c0.4-1.3,0.9-2.6,1.3-3.9c1-3,2.7-5.7,4.8-8c1.8-2.1,4.9-2.5,7.1-0.9c2.7,1.8,4.2,4.8,4.1,8.1
		c0.1,1.2-0.6,2.4-1.8,2.7c-0.5-0.5-1-1.1-1.5-1.7c-0.6-0.9-0.9-2-1.5-2.9c-0.7-1-2-1.3-3-0.6c-0.2,0.1-0.4,0.3-0.5,0.5
		c-0.4,0.5-0.8,1.1-1.1,1.7c-1.8,4.3-3.2,8.7-3.2,13.5c0,1.2,0.5,2.4,1.4,3.3c1.3,1.6,3,2.8,5,3.4c1.7,0.6,3.7,0,4.8-1.4
		c1.2-1.4,2.6-2.8,4-4.1c1.6-1.5,3.8-2.3,6-2.4c1.3-0.1,2.5,0.7,2.7,2c0.5,1.8,0.1,3.7-1,5.1c-1.6,2.3-3.8,4-6.3,5
		c-2.8,1.2-3.3,4-1,6.1c0.3,0.3,0.6,0.5,1,0.7c3.3,2,9.2,2,13,0c-0.4-6.5,2.1-11.9,6.8-16.3c0.6-0.6,1.2-1.1,1.9-1.6
		c2.1-1.3,3.7-1.1,5.5,0.6s2.6,4.4,1.6,6.3c-0.5,0.9-1.6,1.2-2.5,0.8c-0.2-0.2-0.4-0.3-0.6-0.5c-2.1-1.6-2.9-1.6-4.2,0.4
		c-1.7,2.2-2.6,4.9-2.5,7.7c0,2.4,1.8,4.5,4.2,4.8c2.1,0.4,4.2,0,6-1c1.2-0.7,2.3-1.5,3.4-2.3c3.2-2.1,4.9-5.8,4.4-9.5
		c-0.3-3.6,0.2-7.4,0.4-11s0.6-7.6,0.8-11.5c0-1.8,0.5-3.5,1.4-5c0.4-0.7,1.2-1.2,2-1.1c1,0,1.9,0.8,2,1.8c0.6,3.5,0.7,7.1,0.2,10.6
		c-0.5,3.2-0.8,6.5-1,9.8c-0.1,1.8,0.7,2.5,2.5,2.4c1.2-0.1,2.5-0.3,3.7-0.4c1.1-0.1,2.2-0.1,3.3,0c0.8,0.1,1.7,0.5,1.8,1.4
		c0,0.7-0.2,1.3-0.6,1.8c-0.8,1.1-2.1,1.9-3.4,2.1c-1.5,0.3-3,0.4-4.5,0.7c-2.5,0.4-3,0.8-3,3.5s0.3,5.5,0.5,8.2
		c0.2,0.9,0.2,1.9,0.2,2.8c-0.2,0.8-0.5,1.5-1.1,2.1c-0.7,0.7-1.8,0.8-2.5,0.1c-0.1-0.1-0.2-0.2-0.3-0.4c-0.6-1.1-1.1-2.2-1.6-3.3
		c-0.4-1-0.8-1.9-1.4-3.2c-0.9,0.4-1.8,0.9-2.6,1.5c-3.4,3.3-7.8,3.9-12.1,4.4c-2.4,0.4-4.7-0.5-6.3-2.3
		C294.6,79.5,294.1,79.1,293.6,78.8z"/>
	<path d="M257.5,144c-0.6,0.1-1.1,0.3-1.6,0.6c-2.5,2.3-5.7,3.1-8.8,4.2c-2.7,1-4.3-0.1-4.3-3c0-1.9,0.2-3.8,0.8-5.7
		c1.6-5.4,4.3-10.4,8-14.6c0.6-0.6,1.2-1.1,1.8-1.7c2.6-2.3,6.6-2,8.8,0.7c0.2,0.2,0.3,0.4,0.5,0.6c0.6,0.9,1.3,1.7,2.2,2.3
		c2.2,1.4,2.6,2.8,1.4,5.2c-1.6,3.3-1.9,6.8-2.3,10.4c-0.7,5.1-1.2,10.3-2.1,15.4c-0.8,4.1-2.1,8.2-3.2,12.3
		c-0.4,1.6-0.9,3.1-1.5,4.7c-0.6,1.7-1.3,3.3-2.2,4.8c-2.1,3.3-5.8,3.5-8.8,1c-2.8-2.4-5.1-5.4-6.8-8.7c-1.4-2.7-1.6-5.8-1.8-8.8
		c0.1-0.4,0.3-0.7,0.7-0.9c0.4-0.1,0.8,0,1.1,0.2c0.8,1.1,1.5,2.3,2,3.6c1.1,2.8,2.8,5.4,4.8,7.6c0.6,0.7,1.3,1.4,2.1,1.9
		c1.9,1.4,3.2,1,4.2-1.1c1.7-3.4,2.4-7,3.1-10.6c1.2-5.6,2.5-11.2,2.7-17C258.4,146.3,258.7,145.2,257.5,144z M249,142.8
		c1.9-0.7,3-0.9,3.8-1.5c1.6-1.2,3.2-2.6,4.6-4.1c2.1-2.2,2.3-4.9,1.7-7.6c-0.4-1.7-2.1-2.1-3.5-0.8c-0.4,0.4-0.7,0.8-1,1.3
		c-1.5,2.9-3.1,5.8-4.5,8.7C249.6,140.1,249.2,141.4,249,142.8z"/>
	<path d="M128.8,58.1c1.3,0.5,2.3,0.4,2.9-0.4c0.5-0.8,0.8-1.7,0.8-2.6c-0.1-1-0.2-1.9-0.4-2.8c-0.2-1.3,0.4-2.5,1.4-3.2
		c0.7-0.6,1.9-0.5,2.5,0.2c0.1,0.1,0.2,0.3,0.3,0.4c0.4,1,0.8,2,1,3.1c0.3,1.6,0.5,3.3,0.8,4.9c0.2,1,0.5,2.1,0.9,3.3
		c0.9-0.1,1.5-0.1,2.1-0.2c4.4-0.8,6.7,1,8,4c0.9,2,1.8,4,1.9,6.2c0.1,3.7,0.2,7.4,0.2,11.1c0,0.5-0.1,1.1-0.3,1.6
		c-0.2,0.7-0.8,1.2-1.6,1.1c-0.6-0.1-1.4-0.5-1.6-1c-0.4-1.3-0.7-2.6-0.8-4c-0.3-2.6-0.5-5.2-0.8-7.8c-0.1-0.7-0.2-1.3-0.4-2
		c-0.5-1.9-1.5-3.1-2.5-2.8c-1.4,0.5-1.5,1.8-1.7,3c-0.6,3.7-1.2,7.3-0.6,11c0.1,0.7,0.1,1.3,0.1,2c0,1-0.6,1.9-1.4,2.3
		c-1.4,0.9-2.8,0.5-3.2-1.1c-0.6-2.1-1.1-4.2-1.4-6.4c-0.6-3.9-1.1-7.9-1.6-11.8c-0.1-1.1-0.1-2.2-1.3-2.9c-1.4-0.1-2.2,0.8-3.1,1.7
		c-0.8,0.9-0.7,2-0.6,3.1c0.1,4.2,0.6,8.3,1.5,12.4c0.4,1.8-0.1,2.6-1.8,3.1c-0.9,0.4-2,0-2.5-0.9c-1.5-2.6-2.4-5.5-2.7-8.6
		c-0.1-1.2-0.3-2.4-0.5-3.7c-0.1-0.4-0.3-0.8-0.6-1.2h-2.8c-0.7,0-1.3,0-2-0.1c-0.7-0.2-1.2-0.9-1-1.7c0.1-0.2,0.2-0.4,0.3-0.6
		c1-0.9,2.1-1.7,3.3-2.5c1.7-1,2.7-2.9,2.4-4.8c-0.2-2.3-0.2-4.7-0.3-7c-0.2-1.7,0.3-3.3,1.3-4.7c1.2-1.5,3.3-1.4,3.9,0.4
		c0.5,1.6,0.8,3.2,1,4.8C128.4,54.7,128,56.4,128.8,58.1z"/>
	<path d="M218.2,70.7c0.3,1.7,1.6,2.6,3.3,3.1c1.6,0.4,3.3,0.4,4.9,0c1.2-0.4,2.5-0.7,3.8-0.8c-0.3,0.6-0.4,1.1-0.6,1.2
		c-2.5,1.7-5.4,2.8-8.3,3.3c-2.6,0.6-5.4-0.4-6.9-2.6c-0.9-1.2-1.7-2.4-2.7-3.8c-2.8-0.5-5.7,0.2-8,1.9c-1.9,1.5-4.1,2.7-6.4,4.1
		c0,1.5-0.1,3-0.1,4.4c0.1,2.6,0.4,5.2,0.4,7.8c0.1,0.9,0,1.9-0.3,2.8c-0.2,0.8-0.7,0.9-3.3,1.5c-1-1.1-1.2-2.6-1.4-4.1
		c-1.2-8.5-1.9-17.1-2.1-25.8c0-0.5,0-1.1,0-1.6c0.2-2.3,1.1-3.6,3.4-4c2.7-0.5,5.4-0.7,8.2-0.7c2.5,0.1,4.8,1,6.1,3.5
		c0.8,1.3,1,2.9,0.6,4.4c-0.3,1.2-0.7,2.3-1.1,3.5c2,0.8,3.9,0.2,4.8-1.5c0.2-0.4,0.3-0.8,0.4-1.2c0.7-2.7,2.3-4.9,4-7.1
		c2-2.5,4.9-4.1,8-4.5c2.3-0.3,4.4,1.3,4.7,3.6c0.1,0.4,0,0.8,0,1.2c-0.4,2.3-1.4,4.5-3,6.2c-1.5,1.7-3.4,2.8-5.5,3.4
		C220,69.2,218.8,69.3,218.2,70.7z M196.4,68L196.4,68c0,0.7,0,1.3,0,2c0.2,1.7,1.5,2.4,2.9,1.4c1.5-1.2,2.9-2.5,4.1-4
		c0.5-0.7,0.7-1.5,0.7-2.3c0-0.5-0.2-1-0.6-1.4c-1.8-1.1-4-1.2-5.9-0.2c-1.6,0.6-1.2,2.3-1.3,3.6C196.3,67.4,196.4,67.7,196.4,68z
		 M219.5,65c2.5-1.2,4.4-1.8,5.2-4c0.1-0.4,0-0.8-0.2-1.1c-0.3-0.3-0.6-0.4-1-0.4C221.5,60.5,219.8,61.7,219.5,65L219.5,65z"/>
	<path d="M205.3,141.8c-1.4,0.9-2.4,1.4-3.2,2c-3.5,2.8-8.3,3.4-12.4,1.4c-0.3-0.1-0.5-0.2-0.8-0.3c-1.9-0.6-2.3-0.5-3.6,1
		c-0.7,0.8-1.3,1.8-2.1,2.5c-0.7,0.8-1.8,0.8-2.6,0.1c-0.2-0.2-0.4-0.4-0.5-0.7c-0.5-1-0.7-2.1-0.9-3.1c-0.4-5.6-0.9-11.2-0.3-16.8
		c0.3-3.7,0.3-7.4,0.2-11.1c0-1.5,0-3,0.9-4.3s2.6-1.4,3.3,0.1c1.2,2.6,1.7,5.5,1.4,8.4c-0.2,3-0.5,6-0.6,9
		c-0.1,1.2-0.3,2.4,0.5,3.5c0.9,0.4,1.3-0.2,1.7-0.7c0.9-1.1,1.6-2.2,2.4-3.3c1.4-1.8,3.5-2.8,5.8-2.6c1.3,0,2.4,1,2.4,2.3
		c0,0.3,0,0.6-0.1,0.9c-0.3,1-0.9,2-1.6,2.7c-1.6,1.5-3.4,2.8-5.1,4.1s-1.6,2.2,0.4,3.3c3.2,1.9,7.2,2.2,10.7,1
		c4.6-1.6,4.7-1.5,4.9-6.1c0-1.5,0-3-0.2-4.5c-0.1-0.7-0.2-1.4-0.3-2c0-1,0.6-1.9,1.5-2.2c0.9-0.4,2,0,2.5,0.9
		c1.2,1.8,1.9,4,1.9,6.2c0,3.7-0.2,7.4-0.3,11.1c0.1,1.4-0.8,2.7-2.1,3.2c-0.9,0.5-2,0.3-2.5-0.6c-0.1-0.1-0.1-0.3-0.2-0.4
		c-0.2-0.6-0.3-1.3-0.5-2S205.7,143.2,205.3,141.8z"/>
	<path d="M108.1,142.8c0-1.2,0.1-2.5,0-3.7c-0.1-0.8-0.2-1.6-0.5-2.4c-0.2-0.7-0.8-1.1-1.5-1c-0.3,0.1-0.5,0.2-0.7,0.5
		c-0.4,0.4-0.7,0.8-1,1.3c-1.7,2.9-3.9,5.6-6.5,7.9c-2.6,2.7-6.2,4.2-9.9,4.4c-3.3,0.1-5.1-1.5-5.3-4.8c-0.1-1.9,0.2-3.8,1-5.6
		c2.1-5.1,5.5-9.5,9.8-12.9c0.5-0.4,1.1-0.8,1.7-1.1c2.3-1.4,5.2-1.3,7.4,0.2c1.5,1,3.1,1.7,4.8,2.1c1.8,0.7,3.9,0.3,5.3-0.9
		c2.5-2,5.6-2,8.6-1.7c0.8,0.1,1.6,0.4,2.2,0.9c0.5,0.4,0.8,1,0.9,1.7c0,1-0.8,1.3-1.7,1.5s-1.9,0.2-2.8,0.3c-2.9,0-5.3,2.2-5.7,5
		c-0.3,1.7-0.5,3.5-0.6,5.3c-0.1,2.5,0,4.9-0.1,7.4c0,0.8-0.1,1.6-0.5,2.4c-0.5,1.2-1.6,2-2.8,2.1c-1,0-1.9-1-2.1-2.7
		c-0.3-2-0.3-4.1-0.4-6.1L108.1,142.8z M88.1,145.3c1.7,0.9,3.8,0.7,5.3-0.4c3.9-2.6,6.2-6.5,8.2-10.6c0.6-1.2,0-2.4-0.7-3.5
		c-0.5-0.9-1.5-1.3-2.4-1.1c-0.8,0.2-1.5,0.5-2.2,0.9c-3.1,1.6-4.8,4.4-6.5,7.2C88.4,140.1,87.8,142.7,88.1,145.3L88.1,145.3z"/>
	<path d="M332.9,141.6c0.2-4.4,0.4-8.8,0.5-13.1c0.1-1.8,1-3.4,2.5-4.4c2.2-1.6,4.4-2,6.9-0.5c1.3,0.8,2.6,1.6,3.8,2.4
		c4.2,2.8,5.8,7,4.7,12.1c-0.1,0.5-0.2,1.1-0.3,1.6c-0.9,4.6-3.6,7.2-8.1,8c-0.4,0.1-0.8,0.1-1.2,0.2c-3.5,0.6-4.2,1.5-3.6,5
		c0.5,2.4,0.6,4.9,0.5,7.3c0,1.4-0.7,2.7-1.9,3.4c-0.6,0.5-1.4,0.4-1.9-0.2c-0.1-0.1-0.1-0.2-0.2-0.3c-0.4-1-0.7-2.1-0.8-3.1
		c-0.8-5.7-1.1-11.5-0.8-17.2C332.9,142.4,332.9,142,332.9,141.6z M338.6,144.8c3-0.1,5.8-1.7,7.4-4.3c1.1-1.6,1.5-3.6,1-5.5
		c-0.9-2.8-3.1-5-5.9-6c-0.9-0.4-1.9,0.1-2.3,1c0,0,0,0.1,0,0.1c-0.2,0.5-0.3,1.1-0.4,1.6c-0.2,3.7-0.4,7.4-0.5,11.1
		C338.1,143.5,338.3,144.2,338.6,144.8z"/>
	<path d="M332.1,148.6c-3.6,3-5.4,2.9-7.5-0.2c-0.6-0.9-1-1.9-1.5-2.9c-0.4-0.7-0.9-1.3-1.2-1.9c-1.5-0.3-2.2,0.7-3.1,1.3
		c-1.6,1.3-3.5,2.2-5.5,2.7c-2.4,0.5-3.8-0.2-4.3-2.6c-0.4-1.5-0.5-3-0.3-4.4c0.7-4.9,2.1-9.6,4.3-14.1c1.1-1.9,2.7-3.5,4.6-4.6
		c0.8-0.6,1.9-0.5,2.7,0.2c0.5,0.4,1.1,0.8,1.6,1.2c0.9,0.9,1.9,1.5,3.1,1.8c1.9,0.4,2.7,1.7,2.6,3.6c-0.1,1.2-0.3,2.5-0.6,3.6
		c-1.2,4.1-0.3,8.1,0.8,12.1C328.4,146.6,330,147.6,332.1,148.6z M314.2,142.4c2.2,0,2.6-0.2,2.6-1.6c-0.1-1.1,0.3-2.2,1-3
		c0.6-0.8,1.2-1.5,1.8-2.2c0.8-1.3,1.1-2.8,0.9-4.3c0.1-1.3-0.4-2.5-1.4-3.2c-1.9,0.8-2.3,2.6-3.1,4.1
		C314.4,135.4,313.5,138.8,314.2,142.4L314.2,142.4z"/>
	<path d="M369,94.2c-0.9-1.2-0.8-2.6-0.7-3.9c0.2-6.7-0.6-13.4-0.1-20.1c0.2-2.3,0-4.7-0.7-6.9c-1.1-3.1,0.6-5.3,2.6-7.2
		c0.8-0.6,1.7-0.9,2.6-0.8c4.5,0.1,8.6,2.3,11.1,6c1,1.5,1.4,3.3,1,5.1c-0.4,2.4-1.6,4.7-3.4,6.4c-1.3,1.3-2.7,2.4-4.2,3.3
		c-2.7,1.5-3.7,3.8-3.6,6.8c0,2.7-0.1,5.5-0.3,8.2C373,93.5,371.9,94.2,369,94.2z M373.5,62.6c0.2,2.8,0.3,5.7,0.6,8.7
		c0,0.3,0.5,0.6,0.8,1c2-0.6,3.6-2,4.7-3.8c1-1.4,0.8-3.3-0.4-4.6c-1.2-1.5-2.5-3-4.8-2.1C374.1,62,374,62.2,373.5,62.6L373.5,62.6z
		"/>
	<path d="M77.8,128.6c1.3-0.3,2-0.5,2.8-0.7c1.4-0.5,2.8-1.1,4.2-1.5c1-0.3,2,0.2,2.4,1.2c0.3,0.9,0.1,2-0.6,2.7
		c-0.5,0.4-1.1,0.8-1.7,1c-1.5,0.6-3,1.2-4.6,1.7c-1.9,0.6-3.1,1.7-3.1,3.8c0,4.6-0.5,9.3,1.3,13.8c-0.4,1.3-1.7,1.3-2.7,1.6
		c-1.5,0.4-2.5,0-2.9-1.5c-0.6-2-1-4-1.2-6c-0.3-2.7-0.6-5.5-0.7-8.2c-0.2-2.2-0.1-4.4,0.1-6.6c1-7.5,2.8-14.8,7.1-21.2
		c0.5-1,1.3-1.8,2.3-2.3c1.2-0.5,2.5-0.2,3.4,0.7c0.7,0.7,0.8,1.8,0.3,2.7c-0.7,1.6-1.5,3.2-2.3,4.8c-1.8,3.6-3,7.4-3.8,11.3
		C77.9,126.5,77.9,127.2,77.8,128.6z"/>
	<path d="M421.3,58.9c1.1,0.2,1.8,0.3,2.5,0.3c1-0.1,1.9,0.4,2.3,1.3c0.3,0.8-0.4,1.7-1.8,2.4c-0.2,0.1-0.5,0.2-0.8,0.3
		c-2.3,0.6-3,2.2-3,4.3s-0.1,4.4-0.1,6.6c0,1.7,0,3.3-0.1,4.9c0.1,1.1-0.4,2.2-1.3,2.8c-0.7,0.4-1.4,0.7-2.2,0.7
		c-0.9-0.1-1.2-1-1.3-1.8c-0.1-1.5-0.2-3-0.3-4.5c-0.1-1.9,0-3.8-0.2-5.7c-0.2-2.4-0.2-4.9-2.2-6.8c-0.6-0.5-0.6-1.5-0.1-2.1
		c0.1-0.1,0.1-0.1,0.2-0.2c2.2-1.6,2.2-3.9,2.2-6.3c0.3-6.4,1.2-12.8,2.5-19.1c0.1-0.8,0.3-1.6,0.6-2.4c0.5-1,1.2-1.8,2-2.5
		c0.9-0.7,2.1-0.5,2.8,0.4c0.2,0.3,0.3,0.6,0.4,0.9c0.2,0.9,0.2,1.9,0.2,2.8c-0.4,3.5-0.8,7-1.2,10.6c-0.4,3.1-0.7,6.2-1,9.4
		C421.1,56.5,421.2,57.7,421.3,58.9z"/>
	<path d="M172,130.4c-0.5,5.9-1.8,11.5,0.9,16.7c-0.3,1-1.2,1.7-2.3,1.7c-1,0-1.9-0.6-2.4-1.4c-0.6-0.9-1.1-1.8-1.6-2.6
		c-1.6-0.5-2.2,0.5-3,1.3c-2.1,2-4.6,3.5-7.5,4.1c-3.7,0.9-6.2-0.8-6.6-4.6c-0.2-1.2-0.2-2.5,0-3.7c1.6-5.2,3.2-10.5,7.5-14.4
		c3.4-3.1,7.2-3.4,10.8-0.6C169.1,128,170.4,129.1,172,130.4z M166.3,134.5c0.2-1.6-0.7-3.1-2.1-3.8c-1.3-0.5-2.8-0.1-3.7,0.9
		c-0.4,0.4-0.7,0.8-1.1,1.2c-1.9,2.5-3.4,5.3-4.2,8.3c-0.2,1.1-0.2,2.2,0,3.2c0.2,1.1,1.3,1.8,2.4,1.6c0.2,0,0.3-0.1,0.5-0.2
		c0.3-0.1,0.5-0.2,0.7-0.4c3.8-2.3,5.9-5.9,7.4-9.9C166.3,135.2,166.3,134.8,166.3,134.5L166.3,134.5z"/>
	<path d="M409.3,65.1c-0.5,7-3.4,12.9-10.7,16.1c-0.9,0.4-1.7,0.9-2.6,1.3c-2,0.9-4.3,1-6.4,0.3c-2.3-0.6-4-2.6-4.2-5
		c-0.3-2.3-0.1-4.7,0.7-6.9c2.5-6.4,6.5-12.1,11.8-16.5c1.7-1.5,3.7-2.3,6-1.4c1.3,0.4,2.4,1.4,3,2.6
		C408.5,58.5,409.3,61.8,409.3,65.1z M404.3,64.1c0-1.5,0.1-3.5-1.2-5.1c-1.1-1.3-2.2-1.6-3.4-0.4c-4,3.6-7,8.2-8.7,13.3
		c-0.6,1.7-0.7,3.5-0.2,5.2c0.2,1.1,1.2,1.9,2.3,1.9c2.3,0.3,4.7-0.6,6.3-2.3C402.8,73.4,404.6,68.8,404.3,64.1L404.3,64.1z"/>
	<path d="M292.4,123.8c0.4-0.1,0.8-0.2,1.2-0.3c3.3-1.1,4.1-0.8,5.6,2c1,1.8,1.7,3.8,1.9,5.8c0.3,3.8,0.5,7.6,0.9,11.5
		c0.2,2,0.4,4.1,0.7,6.1c0.2,1.5-0.3,2.4-1.7,2.8s-2.2-0.3-2.6-1.9c-0.3-0.9-0.5-1.9-0.6-2.8c-0.4-3.7-0.9-7.3-0.7-11.1
		c0-1.8-0.1-3.5-0.5-5.3c-0.2-0.5-0.6-0.9-1.1-1c-0.5,0-1,0.2-1.4,0.6c-1.5,1.8-2.2,4.2-2.1,6.5c0,3.4-0.1,6.9-0.1,10.3
		c0.1,1.3-0.7,2.5-1.8,2.9c-1.3,0.6-2.7,0.1-2.9-1.3c-0.3-1.6-0.4-3.3-0.3-4.9c0.3-6.3,0.1-12.6-0.6-18.9c-0.1-1.1-0.2-2.2-0.1-3.3
		c0-0.4,0.1-0.8,0.3-1.2c0.3-0.8,1.1-1.3,2-1.2c0.6,0.1,1.2,0.5,1.6,1C290.8,121.3,290.6,122.9,292.4,123.8z"/>
	<path d="M104.2,69c-0.2,2.7-0.9,5.4-1.9,8c-0.1,0.3-0.2,0.5-0.3,0.7c-2.7,3.5-6.6,5.8-11,6.4c-0.9,0-1.9-0.4-2.6-1
		c-0.9-0.8-1.7-1.8-2.2-2.9c-2.1-5.3-2.4-10.6,0.8-15.7c0.9-1.5,1.8-3,2.8-4.5c0.7-1,1.5-2,2.4-2.8c2-1.8,4.1-1.8,6.2,0
		c0.5,0.5,1,1,1.5,1.4C103.6,60.9,104.3,64.4,104.2,69z M90.3,73.2c0.2,1.2,0.4,2.8,0.8,4.4c0.3,1.1,1.4,1.7,2.4,1.4
		c0.2,0,0.4-0.1,0.5-0.2c1.4-0.7,2.5-1.8,3.1-3.1c1.5-2.8,2.1-6,1.7-9.1c-0.4-1.7-0.9-3.4-1.7-5c-0.3-0.7-1.2-1.1-1.9-0.8
		c-0.2,0.1-0.3,0.2-0.5,0.3c-0.2,0.2-0.4,0.3-0.6,0.6C92,65.1,90.6,69.1,90.3,73.2z"/>
	<path d="M138.2,150.5c0-2,0-3.8,0-5.5c0.1-2.5,0.2-4.9,0.2-7.4c0.2-1.4-0.4-2.8-1.7-3.4c-0.7-0.3-1-1.2-0.7-1.9
		c0.1-0.2,0.3-0.4,0.5-0.6c2.1-1.6,2.4-3.8,2.4-6.2c-0.1-3.6-0.1-7.1,0-10.7c0-1.6,0.1-3.3,0.3-4.9c0.1-1.1,0.8-2.1,1.8-2.6
		c0.9-0.6,2.2-0.4,2.8,0.5c0.1,0.1,0.2,0.3,0.2,0.5c0.5,1.6,0.7,3.2,0.8,4.8c0.1,3.4,0,6.8,0.1,10.3c0,1,0.2,2.1,0.3,3.4
		c1.4-0.2,2.4-0.3,3.4-0.4c1-0.2,1.9,0.4,2.1,1.4c0.1,0.4,0,0.9-0.2,1.3c-0.3,0.7-0.8,1.4-1.4,1.9c-0.7,0.5-1.4,0.9-2.2,1.1
		c-2.1,0.7-2.9,2.2-3,4.4c-0.1,2.6-0.5,5.2-0.8,7.8c-0.1,1.4-0.3,2.7-0.6,4.1C142.2,150.3,141.5,150.7,138.2,150.5z"/>
	<path d="M224.7,128.2c1.1-0.4,2.2-0.8,3.3-1.3c1.8-0.9,3.9-0.6,5.3,0.8c1.6,1.2,2.6,2.9,2.9,4.8c0.6,3.5,1,7,1.1,10.6
		c0,2.3,0.3,4.3,1.9,6c0.2,0.2,0.1,0.5,0.2,0.8c-0.6,1-1.9,1.3-2.9,0.7c-1.1-0.5-2.3-1.1-2.5-2.5c-0.4-2.6-0.8-5.1-1.2-7.7
		c-0.2-1.9-0.6-3.8-1.1-5.6c-0.8-2.6-2.8-3-4.5-0.9c-0.6,0.7-1.1,1.6-1.4,2.5c-0.4,1.9-0.7,3.8-0.8,5.6c-0.2,1.9-0.2,3.8-0.4,5.7
		c-0.1,1-0.7,1.8-1.6,2.2c-1.1,0.6-2.4,0.2-3-0.8c-0.1-0.2-0.2-0.4-0.2-0.6c-0.1-0.4-0.2-0.8-0.2-1.2c-0.3-5.7-0.6-11.5-0.8-17.2
		c-0.1-1.6,0-3,1.5-4c0.7-0.7,1.9-0.6,2.5,0.1c0,0,0,0,0,0c0.3,0.3,0.5,0.7,0.7,1C224,127.6,224.3,127.9,224.7,128.2z"/>
	<path d="M175.6,78.2c-0.5,0.4-1,0.8-1.6,1.1c-4,1.9-8.3,2.9-12.7,2.9c-4.5,0-7.6-3.1-7.1-7.6c0.6-5.5,2.9-10.3,7.6-13.5
		c2.6-1.7,5.6-2.3,8.6-1.9c2.1,0.1,3.7,1.9,3.6,4c0,0.1,0,0.2,0,0.2c0,1.2-0.3,2.4-0.8,3.5c-2.3,4-5.3,7-10.4,6.7
		c-0.4-0.1-0.8-0.1-1.2,0c-0.6,0.2-1.4,0.6-1.5,1.1c-0.1,0.7,0,1.3,0.4,1.9c0.5,0.8,1.4,1.3,2.4,1.3c3.3,0.4,6.6,0.3,9.8-0.3
		c0.9-0.2,1.8-0.3,2.7-0.3L175.6,78.2z M162.3,67.7c0.2,0.3,0.2,0.5,0.3,0.5c2.9,0.5,5.1-0.5,6.3-3c0.2-0.5-0.1-1.1-0.6-1.3
		c-0.1,0-0.3-0.1-0.4,0c-1,0.2-2.1,0.6-3,1.1C163.7,65.6,162.6,66.4,162.3,67.7z"/>
	<path d="M81.2,85.2c-0.8,0.9-2,1.3-3.2,1c-1-0.4-1.8-1.3-2-2.3c-1-2.6-1.5-5.3-1.6-8c-0.1-4.4-0.2-8.7-0.3-13.1
		c0.1-1.3-0.2-2.6-0.9-3.6c-0.9,0-1.8,0-2.7,0c-0.8,0-1.4-0.7-1.4-1.5c0-0.2,0.1-0.5,0.2-0.7c0.2-0.4,0.4-0.7,0.7-1
		c1.2-1.1,2.5-2.1,3.9-2.8c2.7-1,5.4-1.9,8.2-2.5c0.9-0.2,1.9-0.1,2.8,0.2c0.8,0.2,1.2,1,1,1.8c-0.1,0.2-0.2,0.4-0.3,0.6
		c-0.8,1.3-2,2.2-3.4,2.9c-1.2,0.5-1.9,1.6-1.9,2.9c-0.4,7-1.1,13.9-0.1,20.8C80.4,81.5,80.8,83.3,81.2,85.2z"/>
	<path d="M360.4,141.8c-0.6-1.1-1-1.9-1.4-2.6c-3-5.6-2.1-11,2.7-15.1c1.7-1.4,3.5-2.6,5.5-3.6c2.1-0.9,4.5-0.4,6,1.3
		c0.6,0.6,0.6,1.6,0,2.3c-1.3,1.6-2.6,3.3-5.1,2.1c-0.4-0.2-0.8-0.2-1.2-0.1c-3.4,1.7-6.1,4.9-3.6,9.3c1,1.6,2.4,3,4,4
		c1.1,0.7,2.2,1.6,3.2,2.5c1,1,0.8,2.2-0.2,3.3c-3.6,3.9-8.4,4.2-12.4,0.8c-0.4-0.4-0.7-0.8-1-1.3c-0.4-0.8-0.1-1.7,0.7-2.1
		C358.5,142.4,359.2,142.2,360.4,141.8z"/>
	<path d="M349.8,77.9c1.3,0.1,2.1,0.1,2.9,0.2c1.1,0.2,2.1,0.5,3.2,0.7c1,0.1,2-0.4,2.4-1.3c-0.6-1.8-2-2.9-3.2-4.1
		c-1.9-1.8-3.8-3.5-5.6-5.4c-2-2-2.7-4.9-1.9-7.6c0.3-1.8,1.3-3.4,2.8-4.4c1.8-1.2,3.7-2.3,5.7-3.2c1.7-0.7,3.7-0.1,4.7,1.5
		c0.6,0.7,0.6,1.7-0.1,2.4c-0.3,0.2-0.6,0.4-1,0.4c-0.9,0.2-1.9,0.1-2.8,0.3c-4.2,0.9-5.5,4.8-2.8,8.1c0.8,0.9,1.7,1.7,2.7,2.5
		c1.6,1.6,3.4,3.2,4.9,4.9c0.8,0.9,1.5,2,1.9,3.1c0.9,2.6,0.2,4-2.3,5.3c-4.4,2.3-7.6,1.7-10.6-1.8C350.1,79,349.9,78.5,349.8,77.9z
		"/>
	<path d="M235.6,56.7l3.2,2.3c0.8-0.2,1.5-0.5,2.3-0.9c2.8-1.6,5.8-1.4,8.8-1.3c0.4,0,0.8,0.1,1.2,0.3c0.8,0.3,1.5,0.9,1.3,1.8
		c-0.2,0.6-0.6,1.2-1.2,1.5c-1,0.3-2.1,0.6-3.2,0.8c-4,1.1-5.5,2.8-5.6,7c0,2.4,0.3,4.9,0.4,7.3c0.1,1.1,0.1,2.2,0.1,3.3
		c-0.1,1.3-1.2,2.3-2.5,2.3c-1.3,0.1-2.5-0.8-2.6-2.1c-1.1-4.1-2-8.2-3.1-12.3c-0.5-1.8-1-3.7-1.5-5.5
		C232.7,59.2,233.4,57.8,235.6,56.7z"/>
	<path d="M407.4,145.2c-0.2,0.6-0.2,1.1-0.4,1.4c-0.9,1-1.8,2-2.9,2.9c-0.6,0.4-1.3,0.5-1.9,0.5c-0.8,0.1-1.7-0.3-2-1.2
		c-0.1-0.6,0-1.3,0.4-1.9c1.2-1.8,2.9-2.9,5.2-2.7C406.3,144.4,406.8,144.9,407.4,145.2z"/>
	<path d="M425.2,140.9c0.1,1.6-1,2.9-2.5,3.2c-1.2,0-2.1-0.9-2.2-2c-0.1-1.9,1.1-3.4,2.7-3.4C424.3,138.7,425.2,139.7,425.2,140.9
		C425.2,140.8,425.2,140.8,425.2,140.9z"/>
	<path d="M389.9,144.8c-0.3,0.7-0.6,1.4-0.9,2c-0.5,0.8-1.5,1.3-2.4,1c-0.9-0.4-1.4-1.4-1.3-2.3c0-1.3,1.1-2.4,2.5-2.4
		c0.2,0,0.4,0,0.6,0.1C388.9,143.4,389.4,144.2,389.9,144.8z"/>
	<path d="M208.5,120.2c-0.2-0.2-0.7-0.5-0.9-1c-0.3-0.9-0.1-2,0.7-2.6c0.7-0.9,1.9-1.2,2.9-0.8c0.4,0.3,0.7,0.8,0.7,1.3
		C211.8,118.9,210.3,120.2,208.5,120.2z"/>
	<path class="st0" d="M249,142.8c0.2-1.4,0.6-2.7,1-4c1.4-2.9,3-5.8,4.5-8.7c0.3-0.5,0.6-0.9,1-1.3c1.3-1.3,3-0.9,3.5,0.8
		c0.6,2.8,0.5,5.5-1.7,7.6c-1.4,1.5-2.9,2.8-4.6,4.1C251.9,141.9,250.8,142.1,249,142.8z"/>
	<path class="st0" d="M196.4,68c0-0.3,0-0.6,0-0.8c0.1-1.3-0.3-3,1.3-3.6c1.9-0.9,4.1-0.8,5.9,0.2c0.4,0.3,0.6,0.9,0.6,1.4
		c0,0.8-0.3,1.6-0.7,2.3c-1.2,1.5-2.6,2.8-4.1,4c-1.4,1-2.7,0.3-2.9-1.4c0-0.7,0-1.3,0-2L196.4,68z"/>
	<path class="st0" d="M219.5,65c0.2-3.3,2-4.5,4-5.5c0.4,0,0.7,0.1,1,0.4c0.2,0.3,0.3,0.7,0.2,1.1C224,63.2,222,63.8,219.5,65z"/>
	<path class="st0" d="M88,145.3c-0.3-2.6,0.3-5.1,1.7-7.4c1.7-2.8,3.5-5.6,6.5-7.2c0.7-0.4,1.5-0.7,2.2-0.9c1-0.3,2,0.2,2.4,1.1
		c0.6,1.1,1.3,2.3,0.7,3.5c-2,4.1-4.3,7.9-8.2,10.6C91.8,146,89.7,146.2,88,145.3z"/>
	<path class="st0" d="M338.6,144.8c-0.3-0.6-0.5-1.3-0.6-2c0.1-3.7,0.3-7.4,0.5-11.1c0.1-0.5,0.2-1.1,0.4-1.6
		c0.3-0.9,1.3-1.4,2.2-1.1c0,0,0.1,0,0.1,0c2.8,1,4.9,3.2,5.9,6c0.5,1.9,0.1,3.9-1,5.5C344.5,143.1,341.7,144.7,338.6,144.8z"/>
	<path class="st0" d="M314.2,142.4c-0.8-3.6,0.1-7,1.7-10.2c0.7-1.6,1.2-3.4,3.1-4.1c1,0.7,1.6,2,1.5,3.2c0.2,1.5-0.1,3-0.9,4.3
		c-0.6,0.8-1.2,1.5-1.8,2.2c-0.7,0.8-1.1,1.9-1,3C316.9,142.2,316.4,142.4,314.2,142.4z"/>
	<path class="st0" d="M373.5,62.6c0.5-0.4,0.6-0.7,0.9-0.8c2.3-0.9,3.6,0.6,4.8,2.1c1.2,1.2,1.4,3.1,0.4,4.6c-1,1.8-2.7,3.1-4.7,3.8
		c-0.4-0.4-0.8-0.7-0.8-1C373.8,68.3,373.7,65.4,373.5,62.6z"/>
	<path class="st0" d="M166.3,134.5c0,0.4,0,0.7-0.1,1.1c-1.6,4-3.6,7.6-7.4,9.9c-0.2,0.1-0.5,0.3-0.7,0.4c-1,0.5-2.2,0.1-2.7-0.9
		c-0.1-0.2-0.1-0.3-0.2-0.5c-0.2-1.1-0.2-2.2,0-3.2c0.8-3,2.2-5.9,4.2-8.3c0.4-0.4,0.7-0.8,1.1-1.2c0.9-1.1,2.4-1.4,3.7-0.9
		C165.6,131.4,166.4,132.9,166.3,134.5z"/>
	<path class="st0" d="M404.3,64.1c0.3,4.7-1.5,9.3-4.9,12.6c-1.6,1.7-4,2.6-6.3,2.3c-1.1,0-2.1-0.8-2.4-1.9
		c-0.5-1.7-0.4-3.6,0.2-5.2c1.8-5.1,4.8-9.6,8.7-13.2c1.3-1.2,2.4-1,3.4,0.4C404.4,60.7,404.3,62.6,404.3,64.1z"/>
	<path class="st0" d="M90.3,73.2c0.3-4.1,1.6-8.1,3.9-11.5c0.2-0.2,0.4-0.4,0.6-0.6c0.6-0.6,1.5-0.6,2.1,0c0.1,0.1,0.2,0.3,0.3,0.5
		c0.7,1.6,1.3,3.3,1.7,5c0.4,3.1-0.1,6.3-1.7,9.1c-0.7,1.4-1.8,2.5-3.1,3.1c-1,0.6-2.2,0.2-2.7-0.7c-0.1-0.2-0.2-0.3-0.2-0.5
		C90.8,76,90.6,74.4,90.3,73.2z"/>
	<path class="st0" d="M162.3,67.7c0.3-1.3,1.4-2.1,2.6-2.8c0.9-0.5,2-0.8,3-1.1c0.5-0.1,1,0.3,1.1,0.9c0,0.1,0,0.3,0,0.4
		c-1.1,2.4-3.4,3.5-6.3,3C162.6,68.2,162.5,68,162.3,67.7z"/>
</g>
</svg>
