<svg xmlns="http://www.w3.org/2000/svg" viewBox="0 0 1366 768"><g id="Layer_12" data-name="Layer 12"><g id="behind"><path d="M1016.4,202.4c-.49-7.54,1.18-14.89,1.94-22.32.83-8.07-1.28-14.77-7.91-20-10.85-8.48-22.81-15-35.3-20.63a213.37,213.37,0,0,0-36.28-12.34,250.44,250.44,0,0,0-25.88-5c-5.6-.79-11.22-1.47-16.82-2.2-2.35-.31-4.78-.51-7.19-.63-6.56-.32-13.11-.76-19.67-1.06q-5.89-.27-11.77-.31c-10.4-.08-20.81-.24-31.2,0-11,.28-22.08.57-33.11,1-7.05.28-14.1.08-21.13.57-8.87.61-17.76.26-26.64.23-10.41,0-20.81-.54-31.2-1.36s-21-2.12-31.45-3.32c-4.94-.56-9.91-1.07-14.86-1.62a318.05,318.05,0,0,0-40.57-2.3,44.48,44.48,0,0,0-6.72.47" style="fill:none;stroke:#000;stroke-linecap:round;stroke-linejoin:round;stroke-width:2px"/><path d="M615.6,109.76c-5.69-.17-11.36.18-17,.36-.32,0-.64.13-1,.11-6.33-.33-12.64.34-19,.54-12.16.4-24.33.77-36.48,1.56-4,.26-8,.45-12,.5-4.73,0-9.43.49-14.16.63-5.59.17-11.2.59-16.8.93-7.76.47-15.53.82-23.27,1.44-10.32.83-20.66,1.47-31,2.24s-20.79,1.49-31.19,2.31c-9.68.76-19.37,1.55-29.05,2.51-8.1.8-16.21,1.58-24.22,3-16.72,3-32.79,7.81-47.05,17.47-6.22,4.21-9.6,10-10.66,17.51a109.47,109.47,0,0,0-1.26,21.37,89.37,89.37,0,0,0,3.27,20.64,14.63,14.63,0,0,1,.48,2.16c.39,2.76,1,3.26,3.61,3.36q30.94,1.18,61.92.6c6.15-.12,12.33,0,18.48-.41,7.35-.47,14.72-.58,22.08-1,5.52-.29,11-.93,16.56-.91" style="fill:none;stroke:#000;stroke-linecap:round;stroke-linejoin:round;stroke-width:2px"/><path d="M851.28,369.2c-4.31-.13-8.37,1.29-12.46,2.25-8.48,2-17,3.82-25.46,5.9-3.26.8-6.55,1.52-9.84,2.15s-6.44.58-9.35-1.19c-4.26-2.58-8.43-5.18-13.43-6.3a53.79,53.79,0,0,0-15.61-1.28c-4.08.28-8.19.37-12.25.89-4.87.62-9.78.62-14.65,1.37a53.79,53.79,0,0,1-6.47.42c-3.3.09-6.58.41-9.83.71-4.8.44-9.64.48-14.42,1.26a50,50,0,0,1-6.47.44c-5.46.2-10.87.83-16.32,1.14-6.72.39-13.45.84-20.15,1.46-13.6,1.25-27.22,1.09-40.81.71a148.85,148.85,0,0,1-27.86-3.58,153.64,153.64,0,0,1-22.53-6.62,6.66,6.66,0,0,0-2.41-.21" style="fill:none;stroke:#000;stroke-linecap:round;stroke-linejoin:round;stroke-width:2px"/><path d="M597.36,175.76c4.27-1.09,8.27.94,12.48,1.08,8.32.26,16.63.45,25,.16,5.37-.19,10.72-.43,16.08-.77,7.2-.45,14.39-1.09,21.6-1.39,5.85-.24,11.68-.67,17.52-1,7-.43,13.93-.82,20.89-1.34,3-.23,6.07-.42,9.11-.53,4.87-.19,6.64-1.78,6.89-6.5a55,55,0,0,0-1.35-17.52c-1-3.88-3.5-6.2-7.46-6.46-6.87-.45-13.75-.8-20.64-1-9.12-.28-18.24-.35-27.36-.16q-14.18.32-28.33,1.32c-8.73.62-17.43,1.56-26.14,2.29-.91.08-1.6-.32-2.41-.3" style="fill:none;stroke:#000;stroke-linecap:round;stroke-linejoin:round;stroke-width:2px"/><path d="M866.64,346.16c-9,1-17.92,1.89-26.88,2.89q-8.64,1-17.29,1.81c-4.14.42-8.3.82-12.46,1.13s-8.49.77-12.73,1.13l-19.44,1.68c-6.31.56-12.64,1-19,1.49-6.07.5-12.16.9-18.24,1.37-8.16.64-16.32,1.18-24.48,1.69-6.08.38-12.16.65-18.24,1-9.2.48-18.4,1.13-27.6,1.38-5.6.15-11.19.66-16.8.57a10.06,10.06,0,0,1-3.36-1" style="fill:none;stroke:#000;stroke-linecap:round;stroke-linejoin:round;stroke-width:2px"/><path d="M732.72,139.76c.49,2.91,2.3,5.26,3.34,7.93,3.17,8.11,6.82,16.07,8.39,24.72,1,5.61-2.13,9.05-7.89,9.38q-13.8.79-27.61,1.8c-5.82.43-11.67.79-17.51,1.07-6.16.3-12.32.77-18.48,1.18-5.6.38-11.2.81-16.8,1.2l-19.93,1.36c-5.51.37-11,.74-16.55,1s-10.9.54-16.32,1.18a6.5,6.5,0,0,1-4.55-1,2.24,2.24,0,0,1-1.17-2.61c.36-1,1.43-1,2.36-1h.72" style="fill:none;stroke:#000;stroke-linecap:round;stroke-linejoin:round;stroke-width:2px"/><path d="M104,32.72a75.51,75.51,0,0,0,8.55,9.57C126.46,55.6,142,66.85,157.18,78.58c12.67,9.81,24.72,20.29,34.84,32.84a141,141,0,0,1,20.34,34.35,139.9,139.9,0,0,1,9.7,36.22,159.76,159.76,0,0,1,1.39,22.81,8.27,8.27,0,0,1-.49,2.88" style="fill:none;stroke:#000;stroke-linecap:round;stroke-linejoin:round;stroke-width:2px"/><path d="M1194.24,33.92c-3.54,1.35-6.17,4.07-9.07,6.3-16.66,12.8-33.48,25.4-50.19,38.13-9.13,7-18.19,14-26.71,21.75-9.91,9-18,19.27-23.43,31.52a93.12,93.12,0,0,0-5.53,18c-2.24,10.24-3.58,20.66-5.59,30.94a114.54,114.54,0,0,1-4.49,17.06c-.38,1-.8,1.62-2,1.31" style="fill:none;stroke:#000;stroke-linecap:round;stroke-linejoin:round;stroke-width:2px"/><path d="M614.16,354.08c-2.4.19-4.8-.27-7.21.21-1.53.3-2.74-.8-4.09-1.37-2.38-1-4.63-2.27-7-3.35a14.43,14.43,0,0,1-6.43-6.31,16.36,16.36,0,0,0-1.21-2.15c-2.55-3.19-5.66-4.37-8.42-3.11a8.63,8.63,0,0,0-5,9.12c1.08,5.9,5.2,9.32,10.32,11.47a70.48,70.48,0,0,0,25.66,5.34,84.57,84.57,0,0,0,17.76-1.43,9.48,9.48,0,0,0,2.13-.56c3.75-1.67,4.12-3.89,1.35-7.14" style="fill:none;stroke:#000;stroke-linecap:round;stroke-linejoin:round;stroke-width:2px"/><path d="M1282.56,419.24c-4.62-.25-9-1.74-13.43-2.8q-14.82-3.54-29.29-8.37a11.49,11.49,0,0,0-3.6-.23" style="fill:none;stroke:#000;stroke-linecap:round;stroke-linejoin:round;stroke-width:2px"/><path d="M567.36,341.6a10.51,10.51,0,0,0-6.48-3.62,79.13,79.13,0,0,0-19.43-.85,84.66,84.66,0,0,0-19.19,3.81,3.38,3.38,0,0,1-1.94.3" style="fill:none;stroke:#000;stroke-linecap:round;stroke-linejoin:round;stroke-width:2px"/><path d="M633.6,352.16a12.05,12.05,0,0,0-.5-8.39c-3-6.43-9.4-8.33-15.32-2.63a54.84,54.84,0,0,1-10.1,8.26" style="fill:none;stroke:#000;stroke-linecap:round;stroke-linejoin:round;stroke-width:2px"/><path d="M678.48,135.44c-.24-3-.52-5.92-.7-8.88a2.29,2.29,0,0,0-2.19-2.1c-3.65-.59-7.38-1.28-11-.25A10.07,10.07,0,0,0,657,131.6" style="fill:none;stroke:#000;stroke-linecap:round;stroke-linejoin:round;stroke-width:2px"/><path d="M613.08,142.4c0,.32.24.76.1.94-4.87,6.15-7.26,13.51-10,20.67-1.36,3.49-2.78,7-3.15,10.79" style="fill:none;stroke:#000;stroke-linecap:round;stroke-linejoin:round;stroke-width:2px"/><path d="M647.52,356.48a6.24,6.24,0,0,1-2.87,1.37,3,3,0,0,0-2.18,4.15,3.74,3.74,0,0,0,4.58,1.7c3.84-1.4,3.52-5.62,1.47-8.21a8.14,8.14,0,0,0-4.84-3" style="fill:none;stroke:#000;stroke-linecap:round;stroke-linejoin:round;stroke-width:2px"/></g></g></svg>
