<svg xmlns="http://www.w3.org/2000/svg" viewBox="0 0 1366 768"><g id="Layer_12" data-name="Layer 12"><g id="middle"><path d="M561.84,621.56c-1.78-1.06-1.13-3.07-1.3-4.46a89.3,89.3,0,0,0-5.79-22c-1.15-2.89-3-5.59-4.4-8.46a90.29,90.29,0,0,1-8-30c-1.69-17.82-.4-35.69-1-53.52-.19-6-1-12-1.75-18-1.67-12.84-4.72-25.4-6.88-38.14-1.88-11.06-3.46-22.14-3.25-33.37.13-6.8.54-13.62,1.24-20.39.34-3.28-.21-6.44-.45-9.6a32.1,32.1,0,0,0-6.61-17.76c-3.94-5-8.86-8.37-15.35-8.86a22.18,22.18,0,0,0-12,2.92c-6.74,3.53-13.4,7.31-18.75,12.9a28.41,28.41,0,0,0-7.73,16.06,118.31,118.31,0,0,0-.7,22.57c.12,2.48,0,5,0,7.44.12,11.29.52,22.56,1,33.84.33,8.08.7,16.17,1.21,24.24.63,9.68,1.35,19.37,2.08,29,.88,11.78,2,23.53,3.24,35.27.89,8.75,1.61,17.53,3.35,26.16a32.88,32.88,0,0,0,4.59,11.48,4.85,4.85,0,0,1,.88,2.93" style="fill:none;stroke:#000;stroke-linecap:round;stroke-linejoin:round;stroke-width:2px"/><path d="M901.2,589.52c-.19-9.3.41-18.58,1-27.83.52-7.7,1.42-15.38,2.25-23.06,1.66-15.17,4.22-30.18,7.32-45.1,2.9-13.93,6.63-27.67,10.73-41.3a145.78,145.78,0,0,0,5.48-24,77.77,77.77,0,0,0-4.7-38.64,82,82,0,0,0-22.59-32.14c-4.14-3.62-8.82-6.45-13.44-9.37-1-.64-1.9,0-2.62.5a50.94,50.94,0,0,0-16.59,20.14c-4.77,10.19-6.81,21-7.71,32.16a247.26,247.26,0,0,0-.35,25.68c.15,6.08.51,12.16.36,18.24-.3,12.58-1.8,25-6.68,36.72-2.5,6-5.38,11.88-7.77,18A54,54,0,0,0,842.43,518a161.68,161.68,0,0,0,2,27.61c.71,4.91,1.26,9.88,1.66,14.86a113.28,113.28,0,0,1,.06,19.92c-.13,1.43,0,3-.9,4.33" style="fill:none;stroke:#000;stroke-linecap:round;stroke-linejoin:round;stroke-width:2px"/><path d="M469.92,323.12c.86,0,.83-.73.94-1.2a61.53,61.53,0,0,0,.3-25.21c-1.77-9.19-6.14-17.12-11.32-24.71a22.23,22.23,0,0,1-3.93-14.89c.38-4.63,1.11-9.28,1-13.91a69.16,69.16,0,0,0-2.34-16.79,44.37,44.37,0,0,0-2.61-7.69c-1.63-3.28-3.73-4.47-7.19-3.56-7.6,2-15,4.52-19.69,11.48a37.52,37.52,0,0,0-5.56,14.63,79,79,0,0,0-1.11,16.09c.15,7.06.8,14.09,1.56,21.13a246.72,246.72,0,0,0,19.74,73.2c.92,2.07,1.63,4.23,3.14,6,.46.54.1,1.14.23,1.69" style="fill:none;stroke:#000;stroke-linecap:round;stroke-linejoin:round;stroke-width:2px"/><path d="M1144.08,356.72a5.06,5.06,0,0,0-2.19.43c-6.53,4-13.81,5.39-21.33,6.08-12.25,1.14-24.48-.19-36.72-.06-13.68.14-27.37-.3-41-.61-9.76-.23-19.54.24-29.27-.4-9.46-.63-18.9.07-28.33-.46-9.68-.55-19.36-.33-29-.38-1.5,0-2.71-.42-3-1.74-.47-1.75-1.64-1.26-2.45-.9A82.6,82.6,0,0,1,937.93,363c-5.76,1.54-11.52,2.92-17.53,2.84" style="fill:none;stroke:#000;stroke-linecap:round;stroke-linejoin:round;stroke-width:2px"/><path d="M415.92,360.56c-6.48.08-13-.2-19.44.21-2.63.17-5.29.24-7.92.23-15.2-.1-30.4.45-45.6.59-6.08.06-12.16,0-18.24.19-11.44.44-22.88.22-34.32.54-10.4.28-20.8.33-31.2.42-5,0-9.92.27-14.88.48-1.13,0-2.24-.36-3.36,0" style="fill:none;stroke:#000;stroke-linecap:round;stroke-linejoin:round;stroke-width:2px"/><path d="M673.92,602.24c-12.2-.64-24.51-.88-36-5.8-8.81-3.78-15.28-10.22-20.23-18.41a107.37,107.37,0,0,1-9.05-20.44c-4.32-12.45-8.48-25-12.75-37.43-2.4-7-5.38-13.76-10.32-19.43A34.11,34.11,0,0,0,565,489.2a36.55,36.55,0,0,0-15.58.55c-.77.2-1.3-.3-1.94-.07" style="fill:none;stroke:#000;stroke-linecap:round;stroke-linejoin:round;stroke-width:2px"/><path d="M228.48,224.72c2.12,1.86,4.72,1.54,7.2,1.41,4.64-.25,9.28-.35,13.92-.48,9-.24,17.93,0,26.88-.27,8.16-.24,16.33-.31,24.48-.12,10.72.25,21.45-.2,32.16.26,10.16.43,20.32.46,30.48.89,9.68.41,19.35,1,29,1.2a10.27,10.27,0,0,1,1.44.23" style="fill:none;stroke:#000;stroke-linecap:round;stroke-linejoin:round;stroke-width:2px"/><path d="M1154.88,221.6c-3.76.32-7.54,0-11.28.28-8.87.67-17.77.81-26.64,1.42-10.64.72-21.29,1.32-31.93,2.07-7.35.51-14.72,1-22.06,1.59-6.33.53-12.66,1-19,1.74-4.21.46-8.46.84-12.71,1.09-4,.25-8,.87-12,1.15-5,.34-9.86,1.63-14.88,1.1" style="fill:none;stroke:#000;stroke-linecap:round;stroke-linejoin:round;stroke-width:2px"/><path d="M815,495.32c-2.41,0-4.19,1.48-6,2.78-4.53,3.27-7.26,8-9.33,13-3.91,9.45-7.39,19.09-11.36,28.52C782,554.66,775.76,569.83,765.8,583c-5.83,7.72-12.9,14.15-21.81,18.26-6.84,3.15-14,5.08-21.59,4.08-1.85-.25-3.51.59-5.28.73" style="fill:none;stroke:#000;stroke-linecap:round;stroke-linejoin:round;stroke-width:2px"/><path d="M226.08,343.52c-2.17-.13-3.7,1.4-5.51,2.18-7.83,3.33-15,7.66-20.38,14.41-4.88,6.13-7.51,13.42-9.59,20.86a216.39,216.39,0,0,0-6.33,31.42,231.92,231.92,0,0,0-1.54,36A115.45,115.45,0,0,0,184.2,464" style="fill:none;stroke:#000;stroke-linecap:round;stroke-linejoin:round;stroke-width:2px"/><path d="M988.08,229.28c-.43,6.48-.76,13-1.36,19.45a273.52,273.52,0,0,1-5.16,32.86,294.61,294.61,0,0,1-16.7,53.08c-2.55,6-5.3,11.83-8.06,17.69a12.42,12.42,0,0,0-.4,2" style="fill:none;stroke:#000;stroke-linecap:round;stroke-linejoin:round;stroke-width:2px"/><path d="M255.6,204.08c-3.82.63-6.81,3-10,4.86a56.83,56.83,0,0,0-13,9.57c-6.65,6.75-10.76,14.68-10.86,24.45-.13,13.13,2.65,25.8,5.84,38.39,4.18,16.52,10.33,32.4,16.53,48.24,2.09,5.34,4.49,10.56,6.66,15.87.19.47.5.56.76.82" style="fill:none;stroke:#000;stroke-linecap:round;stroke-linejoin:round;stroke-width:2px"/><path d="M1140,202a65.46,65.46,0,0,0-8.63,1c-4,.54-8,1-12,1.28a452.22,452.22,0,0,1-48,1.15c-5.36-.13-10.73-.09-16.08-.44-7-.46-13.94-.39-20.87-1-5.92-.53-11.88-.08-17.81-1.14-2.15-.39-4.75.16-7.16,0-10.8-.45-21.6-.63-32.4-.45-6.89.11-13.72.7-19.95,4.23a23.65,23.65,0,0,0-4.27,3A7,7,0,0,1,950.4,211" style="fill:none;stroke:#000;stroke-linecap:round;stroke-linejoin:round;stroke-width:2px"/><path d="M1201.2,378.32c3.17.52,4.76,3,6.47,5.29,4.77,6.33,7,13.69,8.13,21.36a341.92,341.92,0,0,1,3.48,35.75,177.14,177.14,0,0,1-1.28,33.6,2.48,2.48,0,0,0,0,.72c1.16,7-3.35,12.37-5.32,18.47-.1.32-.58.55-.88.79a9.64,9.64,0,0,0-3.43,4.49c-.35,1.08-.63,2.29-1.9,2.77" style="fill:none;stroke:#000;stroke-linecap:round;stroke-linejoin:round;stroke-width:2px"/><path d="M1147.68,354.44c1.3-.22.74-1.29,1-2,3.14-9.75,5.62-19.68,8.36-29.54,3.12-11.17,6.46-22.3,9.1-33.6a227.17,227.17,0,0,0,4.22-22.78,114.17,114.17,0,0,0,.76-20.64c-.35-6.81-1.15-13.66-4.9-19.71a3.22,3.22,0,0,0-2.44-1.9" style="fill:none;stroke:#000;stroke-linecap:round;stroke-linejoin:round;stroke-width:2px"/><path d="M853.2,410.48c-9.52.67-14.71,4.72-17.75,13.92-1.39,4.21-1.86,8.58-2.44,13-1.28,9.54-2.47,19.1-4.29,28.56q-1.82,9.48-3.6,19c-.5,2.72-1.57,5.33-1.44,8.16" style="fill:none;stroke:#000;stroke-linecap:round;stroke-linejoin:round;stroke-width:2px"/><path d="M928.08,278.12c-1.14-.1-1.34.84-1.67,1.56a172.9,172.9,0,0,0-7.44,19,130.25,130.25,0,0,0-4.82,18.24,17.58,17.58,0,0,0,1.9,11.54c1.9,3.6,4.82,6.4,7.3,9.52,3,3.73,5.93,7.49,9,11.11a22.81,22.81,0,0,0,7.93,6.47" style="fill:none;stroke:#000;stroke-linecap:round;stroke-linejoin:round;stroke-width:2px"/><path d="M961.68,217.76c-1.12-.08-2.24-.12-3.36-.25-4.57-.5-8.21,1.75-11.75,4.11a44.11,44.11,0,0,0-19.73,30.21,50.22,50.22,0,0,0-.2,14.17" style="fill:none;stroke:#000;stroke-linecap:round;stroke-linejoin:round;stroke-width:2px"/><path d="M1192.56,360.08a67.51,67.51,0,0,0-.51-16.32c-1.66-11-6-20.35-16.3-25.91a17.5,17.5,0,0,0-9.59-2.17" style="fill:none;stroke:#000;stroke-linecap:round;stroke-linejoin:round;stroke-width:2px"/><path d="M842.88,507.68c-2.32-.84-4.22-.16-6.27,1.15-7.58,4.85-15.16,9.7-21.06,16.63-4.38,5.15-7.7,10.89-8.68,17.74-.1.73-.36,1.43-.53,2.15-.48,2.12-2.28,1-3.54,1.21" style="fill:none;stroke:#000;stroke-linecap:round;stroke-linejoin:round;stroke-width:2px"/><path d="M305.28,207.2c-.5.6-1.28.66-1.93.92a4.65,4.65,0,0,1-1.67,0c-6.16-.11-12.33-.44-18.47-.83-7.68-.47-15.38-.86-23-1.57" style="fill:none;stroke:#000;stroke-linecap:round;stroke-linejoin:round;stroke-width:2px"/><path d="M517.44,353.12c-6.92-1.59-13.79-3.39-20.64-5.28-5.93-1.63-11.89-3.16-17.77-5a15.74,15.74,0,0,0-3.59-.28" style="fill:none;stroke:#000;stroke-linecap:round;stroke-linejoin:round;stroke-width:2px"/><path d="M1159.2,317.12c7.79,1.21,13.85,4.9,17.27,12.25,2.48,5.34,2.94,11,2.4,16.79a20,20,0,0,1-.95,5.52" style="fill:none;stroke:#000;stroke-linecap:round;stroke-linejoin:round;stroke-width:2px"/><path d="M1200.24,372.08a3.5,3.5,0,0,1-3.87-2.15c-3.06-5.79-8.1-9.19-14.13-11.28-4.64-1.6-9.48-2.58-14-4.75-1.64-.8-2.67-2.46-4.53-2.82" style="fill:none;stroke:#000;stroke-linecap:round;stroke-linejoin:round;stroke-width:2px"/><path d="M480,369c-.67-1.42-1.74-1.87-3.36-2-8-.52-16-1.25-24-1.7-3.59-.21-7.16-.94-10.8-.65" style="fill:none;stroke:#000;stroke-linecap:round;stroke-linejoin:round;stroke-width:2px"/><path d="M123.12,545.6c-4.24-2.64-8.42-5.39-12.73-7.89a153.43,153.43,0,0,0-20.15-9.88,4.64,4.64,0,0,0-1.68-.48c-1.44,0-2.93.64-3.93-1.39-.79-1.61-2.38-2.83-2.43-4.84" style="fill:none;stroke:#000;stroke-linecap:round;stroke-linejoin:round;stroke-width:2px"/><path d="M882,582.08c-10.37.09-20.59,1.16-30.49,4.52-3.25,1.09-6.45,2.29-9.59,3.64" style="fill:none;stroke:#000;stroke-linecap:round;stroke-linejoin:round;stroke-width:2px"/><path d="M476.88,335.12c.15.83-.26,1.25-.95,1.7q-14.91,9.92-29.75,19.93a5.88,5.88,0,0,1-2.9,1.17" style="fill:none;stroke:#000;stroke-linecap:round;stroke-linejoin:round;stroke-width:2px"/><path d="M499.68,564.44A42.43,42.43,0,0,1,516,572a40.77,40.77,0,0,1,8.48,7.86,7.22,7.22,0,0,1,1.62,4.84" style="fill:none;stroke:#000;stroke-linecap:round;stroke-linejoin:round;stroke-width:2px"/><path d="M917.52,332c-3,2.18-6.76,2.62-10.12,4-4.13,1.68-8.21,3.41-12.2,5.37-.94.46-1.92.81-2.88,1.21" style="fill:none;stroke:#000;stroke-linecap:round;stroke-linejoin:round;stroke-width:2px"/><path d="M983.76,233.6a5.1,5.1,0,0,1-3.63-1.16c-4.6-3.65-9.51-6.76-15.32-8.25A29.2,29.2,0,0,0,959,223" style="fill:none;stroke:#000;stroke-linecap:round;stroke-linejoin:round;stroke-width:2px"/><path d="M952.32,289.76c-7.27-4.07-11.71-10.3-14-18.28a5,5,0,0,0-2.1-.2" style="fill:none;stroke:#000;stroke-linecap:round;stroke-linejoin:round;stroke-width:2px"/><path d="M519.72,449.84c-.28,3-1.79,5.43-3.24,7.92a30.9,30.9,0,0,1-12,12" style="fill:none;stroke:#000;stroke-linecap:round;stroke-linejoin:round;stroke-width:2px"/><path d="M520.56,465.2a33.54,33.54,0,0,1-5,15.86,2.54,2.54,0,0,1-2.67,1.18" style="fill:none;stroke:#000;stroke-linecap:round;stroke-linejoin:round;stroke-width:2px"/><path d="M891.6,562.64a3.75,3.75,0,0,0-3.61,1.67,26.76,26.76,0,0,1-12,8.46,12.13,12.13,0,0,1-3.38.79" style="fill:none;stroke:#000;stroke-linecap:round;stroke-linejoin:round;stroke-width:2px"/><path d="M874.8,462a2.81,2.81,0,0,1,1.51,1.78,75.32,75.32,0,0,0,5.9,13.24,2,2,0,0,0,2.19,1.18" style="fill:none;stroke:#000;stroke-linecap:round;stroke-linejoin:round;stroke-width:2px"/><path d="M874,443.6c.3,2.18,2.11,3.4,3.27,5a43,43,0,0,0,6.71,6.71,3.23,3.23,0,0,0,2.14.87" style="fill:none;stroke:#000;stroke-linecap:round;stroke-linejoin:round;stroke-width:2px"/><path d="M72,520.88a3.32,3.32,0,0,1,2.65.71,8.39,8.39,0,0,0,7.67,1.69" style="fill:none;stroke:#000;stroke-linecap:round;stroke-linejoin:round;stroke-width:2px"/></g></g></svg>
