<svg xmlns="http://www.w3.org/2000/svg" viewBox="0 0 1366 768"><g id="Layer_19" data-name="Layer 19"><path d="M715.59,55.57a14.68,14.68,0,0,0-6.19,2.33,2.94,2.94,0,0,0-.95,2.14c-.13,3-.11,6-.1,9,0,1,.18,1.91.19,2.87a2.25,2.25,0,0,1-2,2.22,2,2,0,0,1-2.43-1,12.19,12.19,0,0,1-.84-3.54c-.17-3-.18-6-.25-9a5.87,5.87,0,0,0-1-.79c-3.19-1.27-3.29-1.58-.55-3.75a5.1,5.1,0,0,0,2-4.24q.24-7.19.66-14.35a13.65,13.65,0,0,1,.73-3.58,2.37,2.37,0,0,1,4.65.43,25.64,25.64,0,0,1,.16,4.47c-.14,3.83-.39,7.65-.54,11.48a8.29,8.29,0,0,0,.35,1.86c.44.15.71.33,1,.3,6-.62,5.89,0,6.15-6.1.09-2-.11-4.1-.08-6.15a7.85,7.85,0,0,1,.5-2.77,2.19,2.19,0,0,1,2.36-1.3,2.09,2.09,0,0,1,1.81,1.48,8.16,8.16,0,0,1,.5,2.38c.07,2.74.07,5.47,0,8.21,0,1.78-.15,3.56-.17,5.33a9,9,0,0,0,.44,1.77,6,6,0,0,0,1.53-.94A5,5,0,0,1,729,52.55a6.6,6.6,0,0,1,4.6,4.34,6.9,6.9,0,0,1,.28,5.22,11.73,11.73,0,0,0-.46,5.66c.12,1.64.2,3.28.22,4.92a2.33,2.33,0,0,1-1.94,2.61,2.17,2.17,0,0,1-1.66-.87,7.58,7.58,0,0,1-.7-4.38c.14-2.72.09-5.46,0-8.19a5.31,5.31,0,0,0-.58-2.36,2.3,2.3,0,0,0-1.54-1.12,2,2,0,0,0-1.56,1c-1,2.1-1.85,4.27-2.71,6.43-.7,1.78-1.32,3.6-2,5.38A8.6,8.6,0,0,1,720,73a2.43,2.43,0,0,1-2.88,1,2.25,2.25,0,0,1-1.41-2.28c0-2.06-.07-4.11,0-6.17.05-2.73.17-5.47.23-8.21A10.67,10.67,0,0,0,715.59,55.57Z"/><path d="M495.18,70.29a14.29,14.29,0,0,0,2.26,0A1.73,1.73,0,0,0,499,68.63a26.14,26.14,0,0,0,0-4.51,147.76,147.76,0,0,1-.6-16.83,57.66,57.66,0,0,0-.54-6.54,5.38,5.38,0,0,1,1.56-4.49,1.92,1.92,0,0,1,2.9.16,8.63,8.63,0,0,1,1.81,5.36c.1,2.87,0,5.75.09,8.63,0,1.61-.3,3.29.86,5,.85,0,1.77-.13,2.7-.15a13.23,13.23,0,0,1,2.44.06,1.7,1.7,0,0,1,1.06,2.83,6.27,6.27,0,0,1-3.27,2.36c-1.15.37-2.29.77-3.55,1.2-.08,2.4-.08,4.57-.23,6.73a16.94,16.94,0,0,0,.77,6.48,3,3,0,0,1-.2,2,2,2,0,0,1-2.32,1.26,3.3,3.3,0,0,1-1.84-1.4,12.21,12.21,0,0,1-.69-2.77c-.2-.76-.45-1.51-.64-2.15-1.64-.44-2.12.82-2.92,1.45-2.41,1.91-4.47,1.69-6.31-.76-.55-.75-1-1.56-1.66-2.55A13.12,13.12,0,0,0,486.24,71c-1.53,1.15-2.9,2.52-4.5,3.57a15,15,0,0,1-4.41,2.09c-3.17.82-5.33-1.08-5.26-4.4a21.81,21.81,0,0,1,2.48-9.06c1.36-2.8,2.17-6,4.47-8.26,1.16-1.17,2.19-2.46,3.41-3.55,1.83-1.65,3-1.64,5.14-.35a23.77,23.77,0,0,0,2.9,1.45c2.06.93,3.25,2.32,3.1,4.77s-.14,4.93-.07,7.39A8.89,8.89,0,0,0,495.18,70.29Zm-9.33-14.36a10.07,10.07,0,0,0-2.4,1.11c-1.91,1.7-6,10.68-6.13,13.25a1.2,1.2,0,0,0,1.73,1.08,6.67,6.67,0,0,0,1.67-1.14c1.42-1.48,2.8-3,4.14-4.56C487.26,62.89,487.41,59.81,485.85,55.93Z"/><path d="M667.86,71.71a13.14,13.14,0,0,0-2.56,1.47c-2.77,2.67-6.29,3.76-9.84,4.86-6.58,2-12.78-3-11-10.64a26.92,26.92,0,0,1,9.47-15,8.7,8.7,0,0,1,1-.73c4.13-2.54,7.7-1.38,9.4,3.17a3.56,3.56,0,0,1,0,2.76c-2.29,3.56-4.65,7.16-9.14,8.35a23.6,23.6,0,0,1-3.22.67c-2.93.33-3.13,2.67-2.54,4.53a4.65,4.65,0,0,0,4.19,3.43,13.86,13.86,0,0,0,4.06-.28,11.84,11.84,0,0,0,3.41-1.37c6.15-3.53,7.19-5.29,7.42-12.43.07-2.32,0-4.65,0-7a5,5,0,0,1,1.08-3.44,1.59,1.59,0,0,1,2.49-.1c.65.86,1.18,1.82,1.79,2.77,1.52,0,3,0,4.48,0,3.72.07,6.11,2.74,5.56,6.46a25.64,25.64,0,0,0,.27,8.56c.48,2.55.73,5.14,1.06,7.72a6.86,6.86,0,0,1,.08,1.63,3,3,0,0,1-2.49,2.38,2.23,2.23,0,0,1-2.16-1.62,15.4,15.4,0,0,1-1-8.46,20.41,20.41,0,0,0-.18-7.75,8.29,8.29,0,0,0-.68-1.92,1.43,1.43,0,0,0-2.4-.06,7.63,7.63,0,0,0-.94,2.25c-.58,2.95-1.08,5.91-1.58,8.88-.15.94-.15,1.91-.27,2.86A3.13,3.13,0,0,1,671,76.41a1.62,1.62,0,0,1-2-1C668.53,74.36,668.29,73.19,667.86,71.71ZM652.1,62.15c3.68-.9,6.22-2.61,7.73-5.73a.65.65,0,0,0,.1-.39c-.11-.51-.11-1.18-.44-1.46A1.85,1.85,0,0,0,658,54.4a3,3,0,0,0-1.31.91c-1.43,1.64-2.84,3.29-4.18,5C652.23,60.66,652.28,61.27,652.1,62.15Z"/><path d="M892.77,61.55c1.43-2.09,2.57-3.77,3.74-5.44a13.68,13.68,0,0,1,7.83-5.62c3.33-.89,5.7.31,6.71,3.61a46.9,46.9,0,0,1,1.65,7.61,8.91,8.91,0,0,1-1.63,5.84,28.85,28.85,0,0,1-7.5,8.07,13.9,13.9,0,0,1-6.43,2.55c-3.25.44-5.23-.88-6-4.1-.26-1-.38-2.13-.61-3.5a6.56,6.56,0,0,0-1.9.54c-.79.54-1.35,1.4-2.15,1.89a21,21,0,0,1-4.69,2.45c-3.41,1-6.3-.72-7.23-4.19A15.3,15.3,0,0,1,875,61.18,23.61,23.61,0,0,1,883,51c1.93-1.41,2.93-1.31,4.73.25A9,9,0,0,1,891,56.79,8.62,8.62,0,0,0,892.77,61.55ZM902.87,57c-4.76,3.64-6,8.63-6.72,13.82a4,4,0,0,0,.17,1.61,1.25,1.25,0,0,0,1.53,1,7,7,0,0,0,2.59-1.09,22.34,22.34,0,0,0,6.19-7c1.23-2.28,2.07-4.76.73-7.58Zm-16.55,1.79c-2-.91-3.67-.86-4.69.77A16,16,0,0,0,879.46,69a2.16,2.16,0,0,0,3.46,1.42,7.08,7.08,0,0,0,.9-.83C886.7,66.57,887.34,63,886.32,58.83Z"/><path d="M444.66,54.36c1.66.49,2.95.79,4.25.23,1-1.11.66-2.38.6-3.59-.11-2.18-.36-4.36-.41-6.55a10.21,10.21,0,0,1,.47-3.2,1.91,1.91,0,0,1,1.9-1.31,2,2,0,0,1,2,1.19,7.28,7.28,0,0,1,.67,2.34c.26,3.28.44,6.55.65,9.83.08,1.22.15,2.45.27,3.68,0,.23.29.43.46.68,1.17.45,1.65-.59,2.35-1.14a6.76,6.76,0,0,1,8.95.14c1.06,1,1.82,2,1.48,3.58a7.7,7.7,0,0,0,.66,4.4c1.22,3.29.55,6.49-.59,9.62a1.61,1.61,0,0,1-1.24.83,1.64,1.64,0,0,1-1.26-.8,9.3,9.3,0,0,1-.94-3.08,32.59,32.59,0,0,1,.12-5.32,5.84,5.84,0,0,0-1.4-4.55,1.93,1.93,0,0,0-2.59-.43,5.45,5.45,0,0,0-2.86,3.81c-.36,2.16-.58,4.34-.84,6.51-.13,1.08-.14,2.19-.31,3.26a2,2,0,0,1-1.58,1.7,2.24,2.24,0,0,1-2.55-.88,5.58,5.58,0,0,1-.88-2.25c-.73-4.31-1.38-8.64-2.07-13-.12-.77-.29-1.53-.51-2.69-2.88,1.82-5.25,3.35-5.12,7,.13,4-.25,7.93.3,11.88a10.15,10.15,0,0,1,0,2.86,1.88,1.88,0,0,1-.89,1.24,1.28,1.28,0,0,1-1.75-.58,14.17,14.17,0,0,1-1.57-3.74c-.42-2.27-.5-4.61-.75-6.92-.18-1.75-.41-3.49-.64-5.42-1.43-.16-2.63-.22-3.79-.47a1.74,1.74,0,0,1-1.14-1,1.81,1.81,0,0,1,.41-1.46,5.79,5.79,0,0,1,1.91-1.52c2.57-1.09,3.16-3.08,3.05-5.65-.15-3.55-.1-7.12-.1-10.68a22.35,22.35,0,0,1,.2-3.27,2.16,2.16,0,0,1,1.85-1.93,2.26,2.26,0,0,1,2.55,1.6,29.1,29.1,0,0,1,.65,5.26C444.73,47.77,444.66,50.91,444.66,54.36Z"/><path d="M919.64,77.42a4.45,4.45,0,0,1-.95.66c-3.46,1.39-4.57.65-4.52-3,0-1,.1-1.91.17-2.87q.55-7.56,1.12-15.14a11.5,11.5,0,0,1,.25-2,2.26,2.26,0,0,1,3.13-1.72,6.17,6.17,0,0,0,4,.26,4.65,4.65,0,0,1,4.8,1.56A29.4,29.4,0,0,0,930,57.05c.8-.69,1.51-1.26,2.19-1.89a31.28,31.28,0,0,1,3-2.8,4,4,0,0,1,5.78,1A8.08,8.08,0,0,1,942.57,58c.15,3.27.24,6.55.3,9.83a30.39,30.39,0,0,1-.18,3.69c-.3,2.69,0,5.19,2.2,7.19a3.29,3.29,0,0,1-6-.24,6.4,6.4,0,0,1-.62-2.35c-.11-2-.11-4.1-.11-6.15,0-2.73.13-5.47.09-8.21a17.23,17.23,0,0,0-.71-3.07c-.83.64-1.52.91-1.78,1.41-1.83,3.53-3.43,7.13-3.65,11.22A17.14,17.14,0,0,1,931,76a3.64,3.64,0,0,1-1.62,1.72,2.12,2.12,0,0,1-3.11-1.59,12.67,12.67,0,0,1,.15-3.25c.24-1.49.64-2.94,1-4.41.63-2.72-.22-5.15-1.51-7.47a1.41,1.41,0,0,0-2.39.1,10.63,10.63,0,0,0-1.08,2.64c-.54,2.25-1,4.54-1.42,6.82Z"/><path d="M609.15,48.83c1.75-1.65,2.49-1.91,3.42-1.25a8.9,8.9,0,0,1,1.82,1.64c3.57,4.4,5.12,9.51,3.85,15a13.77,13.77,0,0,1-8.54,9.86,4.84,4.84,0,0,1-6-1.36c-1-1.15-1.85-2.36-2.81-3.52a1.45,1.45,0,0,0-2.18-.08c-.74.8-1.4,1.68-2.06,2.54a11.92,11.92,0,0,1-4.77,3.79c-2,.87-3.36.39-4.58-1.41a11.5,11.5,0,0,1-1.61-5c-.86-6.09.23-12,1.78-17.84a5.55,5.55,0,0,1,1.88-2.56,2.09,2.09,0,0,1,3.52,1.62,18.77,18.77,0,0,1-.81,5.22,33.73,33.73,0,0,0-1.4,11.76c0,1.1.08,2.21,1.14,2.94,1.32.22,2-.72,2.56-1.64A39.57,39.57,0,0,0,597,62.93c1-2.7,1.73-5.47,2.57-8.22.47-1.52,1.1-2.06,2.22-1.83,2,.42,2.83,1.42,2.59,3a1.67,1.67,0,0,1-.09.4c-1.47,3.79-.15,7.26,1.25,10.71a7.4,7.4,0,0,0,.76,1.45c1.63,2.33,3.62,2.28,5.16-.15,2.27-3.6,3.38-7.31,2.17-11.69C612.85,53.64,612.13,50.82,609.15,48.83Z"/><path d="M630,53.23c1.13,0,2.08,0,3,0a5.88,5.88,0,0,1,5.92,4.16,11.53,11.53,0,0,1,.8,6.85,27.61,27.61,0,0,0-.48,9c.18,2.15-.28,2.46-3.14,2.52a12.69,12.69,0,0,1-.87-5.13c-.11-2.33-.2-4.65-.36-7a6.06,6.06,0,0,0-.48-2,1.31,1.31,0,0,0-.95-.6,1.36,1.36,0,0,0-1,.56,4.47,4.47,0,0,0-.55,1.52c-.67,3.08-1.33,6.16-1.94,9.24a5,5,0,0,1-1.58,3.24c-1.5,1.18-3.5.55-3.73-1.33a67.67,67.67,0,0,1-.55-7.79c0-7.39,0-14.79.07-22.19,0-1.92-.11-3.84,0-5.75a10,10,0,0,1,.65-3.15,1.69,1.69,0,0,1,2-1.13,2.41,2.41,0,0,1,1.52,1.16,15.82,15.82,0,0,1,1,4.35c.15,2.87,0,5.75,0,8.63C629.38,49.9,629.09,51.42,630,53.23Z"/><path d="M763,65.08c-.19.8-.15,1.31-.38,1.53-3.58,3.4-7.28,6.55-12.31,7.74-5.39,1.27-9.53-1.51-10-7.07a16.56,16.56,0,0,1,1-6.84c1.46-4.13,4.19-7.31,7.36-10.19a7.12,7.12,0,0,1,5.33-1.69,4.26,4.26,0,0,1,2.18.94,22.09,22.09,0,0,1,2.32,2.32c1.84,1.93,2,3.23.46,5.4a17.43,17.43,0,0,1-8.45,6.22c-.77.28-1.59.41-2.37.65-1.79.55-2.27,1.08-2.24,2.43,0,2.26.93,3.77,2.55,4.24a5.92,5.92,0,0,0,4.4-.38c1.94-1,3.78-2.17,5.65-3.3C759.84,66.32,760.89,65.16,763,65.08Zm-15.08-6.4c3.49-.34,5.84-1.73,6.83-3.85a2,2,0,0,0-.11-1.54,1.26,1.26,0,0,0-1.8-.37A9.57,9.57,0,0,0,747.93,58.68Z"/><path d="M786,69a12.78,12.78,0,0,0,2.45,1.61c2.85,1,5.66.42,8.41-.55.9-.32,1.76-.79,2.67-1a8.17,8.17,0,0,1,1.92,0c0,.5,0,.88-.1,1a17.35,17.35,0,0,1-14.88,4,6.65,6.65,0,0,1-5.4-9.2,25.2,25.2,0,0,1,10.21-12.95,13.2,13.2,0,0,1,6.21-1.91,4.29,4.29,0,0,1,4.53,5,8.13,8.13,0,0,1-2.5,4.6A31.46,31.46,0,0,1,790.61,66c-1.11.52-2.23,1-3.3,1.63A7.39,7.39,0,0,0,786,69Zm3.31-8.61c2.09-.28,2.94-.75,5.57-3.36.58-.58,1.69-1.05,1.11-2.27A9.66,9.66,0,0,0,789.32,60.35Z"/><path d="M824.74,70.81c-.28-1.44-1.3-1.93-2.25-2.43-1.33-.7-2.74-1.26-4-2-2.89-1.58-3.48-3.29-2.61-6.43,1.23-4.41,4-7.71,7.37-10.59a8.84,8.84,0,0,1,3.29-1.51,1.78,1.78,0,0,1,2,1,1.83,1.83,0,0,1-.36,2.26,20.18,20.18,0,0,1-2.55,2,16.85,16.85,0,0,0-4.82,6,2.15,2.15,0,0,0,.87,3.17c1.05.64,2.24,1,3.27,1.7a31.13,31.13,0,0,1,4.61,3.34,3.8,3.8,0,0,1,.54,5.21c-2.35,3.77-8.45,6.5-12.81,5.73a5.19,5.19,0,0,1-3.87-2.72,1.6,1.6,0,0,1,1.09-2.23c.81-.09,1.63,0,2.44,0a35.18,35.18,0,0,0,4.48-.15A3.93,3.93,0,0,0,824.74,70.81Z"/><path d="M860.17,54c1.92,0,3.25-1.07,4.7-1.79a8.82,8.82,0,0,1,6-.83,2.9,2.9,0,0,1,1.16.39c.4.32.92.77,1,1.21a1.83,1.83,0,0,1-.79,1.27,4.93,4.93,0,0,1-1.5.64c-.65.22-1.3.42-2,.61-5.38,1.6-7.91,5.52-8.8,10.78-.39,2.3-.69,4.61-1.21,6.88a7.67,7.67,0,0,1-1.39,2.89,2.24,2.24,0,0,1-3.91-.79,4.9,4.9,0,0,1-.19-1.62q.18-9.45.42-18.89a5.62,5.62,0,0,1,.18-1.22,2.32,2.32,0,0,1,3.5-1.59C858.35,52.59,859.29,53.39,860.17,54Z"/><path d="M544.34,64.37c-1-1-1.69-1.83-2.44-2.59-4.35-4.35-3.4-10,.61-13.32a15.65,15.65,0,0,1,7.67-3.68,8.21,8.21,0,0,1,2-.08c2.27.25,3.28,1.9,2.49,4.08a22.2,22.2,0,0,1-1,2,23.63,23.63,0,0,0-2.34-.42,7.47,7.47,0,0,0-2.41.05c-4.28,1.17-5.42,4.18-2.81,7.74a29.26,29.26,0,0,0,4.07,4c2.72,2.47,2.6,4-.55,6a8.73,8.73,0,0,1-6.72,1.11,6.15,6.15,0,0,1-1.15-.43,1.46,1.46,0,0,1-.25-2.62c.45-.31,1-.48,1.45-.77S543.62,64.94,544.34,64.37Z"/><path d="M770.84,53.35c1.13-.16,2.18-.34,3.24-.44a32.71,32.71,0,0,1,4.07-.26,2.06,2.06,0,0,1,2.09,1.64c.08,1-.57,1.48-1.31,1.88s-1.69.9-2.56,1.3a4.28,4.28,0,0,0-2.48,3.06A26.37,26.37,0,0,0,772.76,69a25.65,25.65,0,0,1,0,3.28,2.52,2.52,0,0,1-2,2.3,2.15,2.15,0,0,1-3-1.38,14,14,0,0,1-.46-2.41c-.68-5.7-1.36-11.41-2-17.11a14.8,14.8,0,0,1,0-3.26,2,2,0,0,1,1.89-1.85,2,2,0,0,1,2,1.18C769.78,50.89,770.25,52,770.84,53.35Z"/><path d="M529.19,64c0-3.12,0-6.25,0-9.38a3.57,3.57,0,0,1,2-3.71,2.31,2.31,0,0,1,3.18.91,8.26,8.26,0,0,1,.91,4.75c-.22,3.68-.46,7.35-.76,11-.18,2.17-.58,4.33-.71,6.5a4.14,4.14,0,0,1-2,3.36,1.59,1.59,0,0,1-2.6-.86,13.32,13.32,0,0,1-.51-3.6c0-3,.22-6,.34-9Z"/><path d="M570.24,66a25.1,25.1,0,0,1-3.64,10.48,8.16,8.16,0,0,1-2.37,2.19A1.39,1.39,0,0,1,562,77.33a11.11,11.11,0,0,1,.16-1.62c.56-3.35,1.12-6.71,1.7-10.06a5.15,5.15,0,0,1,1.54-3.25A2.76,2.76,0,0,1,570,63.69,15.26,15.26,0,0,1,570.24,66Z"/><path d="M809.29,47.06c.4-2.75.67-5,1.09-7.28a3,3,0,0,1,2.16-2.26,1.9,1.9,0,0,1,2.66,2,11.37,11.37,0,0,1-4.14,7.26C810.8,47,810.3,46.93,809.29,47.06Z"/><path d="M378.24,73.71a4.19,4.19,0,0,1-.51,1,3.16,3.16,0,0,1-3.35.91,3.27,3.27,0,0,1-1.77-2.6,1.35,1.35,0,0,1,.15-.78,2.81,2.81,0,0,1,2.78-1.35A3.34,3.34,0,0,1,378.24,73.71Z"/><path d="M414.46,75.21c-.11,1.4-1.87,2.89-3.14,2.64a3.12,3.12,0,0,1-2.19-2.67c0-1.26,1.32-2.27,2.93-2.2A2.26,2.26,0,0,1,414.46,75.21Z"/><path d="M394,72.28a8.46,8.46,0,0,1,1.23.37,1.82,1.82,0,0,1,.75,2.7,4.46,4.46,0,0,1-1.18,1.07,2.69,2.69,0,0,1-3.33-.36,2.09,2.09,0,0,1-.7-2.17C391.09,72.8,392.2,72.2,394,72.28Z"/><path d="M957.19,72.49a2.6,2.6,0,0,1-2.7,2.39A1.7,1.7,0,0,1,953,73.27a2.23,2.23,0,0,1,2.38-2.57A2,2,0,0,1,957.19,72.49Z"/><path d="M529,42.82a1.85,1.85,0,0,1-1.68-1.93,1.9,1.9,0,0,1,2.1-1.94,1.82,1.82,0,0,1,1.76,1.85A2.31,2.31,0,0,1,529,42.82Z"/><path d="M485.85,55.93c1.56,3.88,1.41,7-1,9.74-1.34,1.55-2.72,3.08-4.14,4.56a6.67,6.67,0,0,1-1.67,1.14,1.2,1.2,0,0,1-1.73-1.08c.14-2.57,4.22-11.55,6.13-13.25A10.07,10.07,0,0,1,485.85,55.93Z" style="fill:#fff"/><path d="M652.1,62.15c.18-.88.13-1.49.41-1.84,1.34-1.71,2.75-3.36,4.18-5A3,3,0,0,1,658,54.4a1.85,1.85,0,0,1,1.49.17c.33.28.33,1,.44,1.46a.65.65,0,0,1-.1.39C658.32,59.54,655.78,61.25,652.1,62.15Z" style="fill:#fff"/><path d="M902.87,57l4.49.78c1.34,2.82.5,5.3-.73,7.58a22.34,22.34,0,0,1-6.19,7,7,7,0,0,1-2.59,1.09,1.25,1.25,0,0,1-1.53-1,4,4,0,0,1-.17-1.61C896.91,65.67,898.11,60.68,902.87,57Z" style="fill:#fff"/><path d="M886.32,58.83c1,4.16.38,7.74-2.5,10.8a7.08,7.08,0,0,1-.9.83A2.16,2.16,0,0,1,879.46,69a16,16,0,0,1,2.17-9.44C882.65,58,884.32,57.92,886.32,58.83Z" style="fill:#fff"/><path d="M747.93,58.68a9.57,9.57,0,0,1,4.92-5.76,1.26,1.26,0,0,1,1.8.37,2,2,0,0,1,.11,1.54C753.77,57,751.42,58.34,747.93,58.68Z" style="fill:#fff"/><path d="M789.32,60.35A9.66,9.66,0,0,1,796,54.72c.58,1.22-.53,1.69-1.11,2.27C792.26,59.6,791.41,60.07,789.32,60.35Z" style="fill:#fff"/></g></svg>
