<svg xmlns="http://www.w3.org/2000/svg" viewBox="0 0 1366 768"><g id="Layer_20" data-name="Layer 20"><path d="M893.24,66.84H893c-6.24,0-12.48,0-18.72-.14-6.4-.14-12.8-.42-19.2-.71-4.84-.22-9.68-.55-14.52-.83-4.12-.24-8.24-.43-12.36-.74-2.48-.18-5-.35-7.44-.49s-5-.35-7.44-.47c-4.56-.24-9.12-.66-13.68-.93-3.72-.22-7.44-.31-11.16-.49q-9.3-.47-18.6-.61c-2.8,0-5.6-.22-8.4-.22-7.92,0-15.84-.21-23.76-.32-3.84-.06-7.69.08-11.52-.22-3.48-.27-7,.07-10.44-.23s-6.73.06-10.08-.24S699,60.26,695.6,60c-3.52-.32-7.05.06-10.56-.24-3.92-.33-7.85.06-11.76-.24-4.52-.34-9,0-13.56-.23-5.52-.34-11-.08-16.56-.21-21.84-.52-43.68-.15-65.52-.19-3.51,0-7,0-10.56.23-3.76.19-7.53.2-11.28.47-4.2.32-8.41.44-12.6.91-3.23.35-6.48.46-9.72.75-3.08.27-6.16.66-9.24.94-1.16.1-2.32.11-3.48.21-3.19.28-6.4.31-9.6.53-3.4.24-6.8.38-10.2.5-3.8.12-7.61.36-11.4.72-4.24.4-8.49.78-12.73,1.37a132.55,132.55,0,0,0-14.39,2.69c-7.05,1.8-13.79,4.34-19.68,8.76-.79.59-1.53,1.26-2.28,1.91-.28.25-.58.51-.42,1" style="fill:none;stroke:#000;stroke-linecap:round;stroke-linejoin:round;stroke-width:2px"/><path d="M570.8,240.3c-5-.2-10,0-15-.15-4.44-.15-8.88,0-13.32.2-1.64.07-3.28,0-4.92,0-5.48.11-11,.15-16.44.39-5,.21-10,.3-15,.46-5.88.19-11.76.2-17.64.41-6.4.24-12.8.15-19.2.14-3.12,0-6.25.07-9.36-.11-3.92-.23-7.84-.24-11.76-.48-3.44-.21-6.88-.3-10.32-.51a71.59,71.59,0,0,0-7.32-.15c-5.63.25-11.26.69-16.55,2.86-3.11,1.28-5.86,3-7.23,6.34a9.68,9.68,0,0,0-.78,5.88c.27,1.21-.2,2.33,0,3.49" style="fill:none;stroke:#000;stroke-linecap:round;stroke-linejoin:round;stroke-width:2px"/><path d="M915.92,241c.23-4-1.73-7.2-3.76-10.3-4.27-6.53-10.53-10.55-17.72-13.21a74.14,74.14,0,0,0-17-3.87,131,131,0,0,0-16.8-.82c-3,0-5.92-.08-8.88,0-3.36.12-6.72.36-10.08.5-2.52.1-5,.27-7.56.48-4,.34-7.93.31-11.88.68-.28,0-.56,0-.84,0H805.28a114.2,114.2,0,0,0-12.12.69,58.66,58.66,0,0,0-11.52,2.31,29.46,29.46,0,0,0-12.23,7.09,24.85,24.85,0,0,0-4.79,7.08,5.9,5.9,0,0,0-.26,2.87" style="fill:none;stroke:#000;stroke-linecap:round;stroke-linejoin:round;stroke-width:2px"/><path d="M620.24,173.28c0-3.28,0-6.56,0-9.84s.07-6.33-.16-9.48-.44-6.25-.75-9.36a109.74,109.74,0,0,0-1.74-12,47.83,47.83,0,0,0-3.94-11.77c-2.13-4.25-5.69-6.43-10.21-7.31a70.53,70.53,0,0,0-16.92-1,82.08,82.08,0,0,0-16.69,2.63c-7,1.81-11.42,6.21-13.83,13A72,72,0,0,0,552.56,143c-.89,6.88-2.56,13.62-4,20.4A61.87,61.87,0,0,0,547.13,175a8.46,8.46,0,0,0,5.06,8.29,23.3,23.3,0,0,0,8.29,2.29,54.65,54.65,0,0,0,7.56.33c3.65-.11,7.29-.35,10.92-.8a244.89,244.89,0,0,0,25.93-4.8q5.82-1.36,11.63-2.79a7.78,7.78,0,0,1,2-.12" style="fill:none;stroke:#000;stroke-linecap:round;stroke-linejoin:round;stroke-width:2px"/><path d="M860.24,124.68c0,.36,0,.72,0,1.08,0,.53,0,.8-.72.86-5.6.51-11.21.11-16.8-.07s-11.13-.26-16.68,0a44.68,44.68,0,0,0-15.73,3.15,16.74,16.74,0,0,0-9.47,10,37.84,37.84,0,0,0-2.07,9.12,113.73,113.73,0,0,0-.78,13.92c0,5.14.58,10.24,2.75,15a23.52,23.52,0,0,0,7.89,9.38c4.41,3.18,9.47,4.77,14.66,6a185.15,185.15,0,0,0,19.31,3.67c2.12.25,4.31,0,6.36.8,1.39-.64,2.88-.3,4.32-.45a28.43,28.43,0,0,0,10.69-3c4.85-2.63,7.67-6.77,9.23-11.9a50.84,50.84,0,0,0,1.69-18,42,42,0,0,0-3.14-14c-1.75-4.09-4.26-7.55-8.37-9.64-.91-.46-1.79-.17-2.66-.39" style="fill:none;stroke:#000;stroke-linecap:round;stroke-linejoin:round;stroke-width:2px"/><path d="M717.2,242.28a4.34,4.34,0,0,0-.23-2.05c2.4-1.56,5.2-1.76,7.91-2.12,3.07-.41,6.16-.61,9.24-.86,2.88-.24,5.76-.42,8.64-.61,5.28-.35,10.57-.51,15.84-1.07,1.16-.13,2.32-.17,3.48-.25.12,0,.26,0,.36,0,2.43-1.2,4.95,0,7.45-.28a48.22,48.22,0,0,1,7.31,0c2.8.11,5.6.2,8.4.4s5.52.42,8.28.66l6.36.56c2,.17,4.09.33,6.13.66,1,.15,2,.14,3,.25,3.56.37,7.12.7,10.68,1,3,.22,5.92.42,8.88.47,5.92.1,11.84.08,17.76.15q8,.08,16.08.23c5.44.11,10.88.16,16.32.38q6.6.28,13.2.5c3.68.12,7.36.33,11,.48,3.48.14,7,.32,10.44.46,4,.16,7.92.54,11.88.67,2.12.07,4.24.18,6.36.28,4.72.22,9.44.48,14.16.71l8.52.36c7,.29,14,.53,21,.61,3.28,0,6.57.12,9.84.38a124.66,124.66,0,0,1,14.4,1.75,45.25,45.25,0,0,1,15,5.33,24,24,0,0,1,11.68,16.17c.18.83-.17,1.6,0,2.4" style="fill:none;stroke:#000;stroke-linecap:round;stroke-linejoin:round;stroke-width:2px"/><path d="M952.46,89.64a39,39,0,0,0,1.54,8c1.45,6.14,3.17,12.21,5,18.25,4.13,13.72,9,27.18,13.46,40.8,2.88,8.88,5.63,17.8,7.77,26.88,1.18,5,2.18,10.05,3,15.11.94,5.48,1.74,11,2.63,16.45a193.58,193.58,0,0,0,4.67,22.32,10,10,0,0,1,.11,2" style="fill:none;stroke:#000;stroke-linecap:round;stroke-linejoin:round;stroke-width:2px"/><path d="M787,188.46c-3.56.17-7.12-.07-10.68-.18-1.52-.05-3-.07-4.56-.12-4.36-.16-8.72-.26-13.08-.5-5.4-.29-10.8-.69-16.2-1.06-3.68-.26-7.35-.54-11-.75q-3.78-.21-7.56-.48c-5.83-.43-11.67-.7-17.52-1-5.68-.24-11.36-.36-17-.47q-8.28-.18-16.56-.4c-3.49-.09-7,0-10.44.08a62.78,62.78,0,0,0-17.15,2.75c-1.35.42-2.57,1.31-4.09,1" style="fill:none;stroke:#000;stroke-linecap:round;stroke-linejoin:round;stroke-width:2px"/><path d="M878.24,99.54c-.48,0-1-.06-1.44-.06-5.25,0-10.48-.35-15.72-.68-5.9-.38-11.76-1.1-17.64-1.62-3.17-.28-6.32-.82-9.48-1.17q-6.6-.72-13.2-1.32c-3.24-.29-6.47-.6-9.72-.77-2.64-.14-5.27-.39-7.92-.44-3.2,0-6.4-.16-9.6-.1-4.17.08-8.33.35-12.48.78a99.33,99.33,0,0,0-17,3.16c-7.43,2.11-14.65,4.67-21,9.23a16.47,16.47,0,0,0-5.63,6.37" style="fill:none;stroke:#000;stroke-linecap:round;stroke-linejoin:round;stroke-width:2px"/><path d="M915.26,97.56a38.37,38.37,0,0,0,1.38,6c2.84,11.68,5.76,23.34,8.49,35.05q2.85,12.16,6.18,24.22c2.49,9.08,5.34,18.06,8.64,26.88,3.61,9.66,6.09,19.67,9.46,29.41a74.35,74.35,0,0,0,5.74,13.32,4.6,4.6,0,0,0,1.1,1.43,6.41,6.41,0,0,1,2.63,6" style="fill:none;stroke:#000;stroke-linecap:round;stroke-linejoin:round;stroke-width:2px"/><path d="M484.94,101.88c.43,1.22-.44,2.11-.94,3-4.59,8-8.77,16.3-12.76,24.64-3.83,8-7.39,16.16-10.61,24.46-2.68,6.91-5.14,13.91-7.31,21a218.06,218.06,0,0,0-5.67,22.55c-.69,3.6-1.36,7.2-1.84,10.82-.54,4-.95,8.13-1.18,12.23-.16,3-.2,5.92-.29,8.88-.06,2.2.1,4.4.16,6.6" style="fill:none;stroke:#000;stroke-linecap:round;stroke-linejoin:round;stroke-width:2px"/><path d="M644.6,95.16c-6.28-.44-12.56-.84-18.84-1.33-3.64-.29-7.28-.73-10.92-1.06-3.08-.28-6.16-.47-9.24-.74-3.4-.29-6.8-.67-10.2-.94-2.76-.22-5.52-.34-8.28-.49-7-.37-14.08-.5-21.12-.32-3.32.08-6.64.34-10,.63-3.5.3-7,.71-10.43,1.28a89.78,89.78,0,0,0-14.17,3.44,42,42,0,0,0-4.68,1.69" style="fill:none;stroke:#000;stroke-linecap:round;stroke-linejoin:round;stroke-width:2px"/><path d="M508.64,89.76c0,2.07-.91,3.93-1.45,5.88-3.07,11-5.83,22.12-8.48,33.25-2,8.25-3.73,16.54-5.54,24.83q-3.82,17.46-7.56,34.92-1.33,6.21-2.85,12.37a17.34,17.34,0,0,0-.76,5.87" style="fill:none;stroke:#000;stroke-linecap:round;stroke-linejoin:round;stroke-width:2px"/><path d="M1115.84,309a2.64,2.64,0,0,1-2.17-.71q-9.32-7.77-18.94-15.14c-5.56-4.24-11.23-8.29-17.16-12a113.57,113.57,0,0,0-24.49-11.88,71.38,71.38,0,0,0-12.48-2.85c-1.46-.21-3-.18-4.44-.26" style="fill:none;stroke:#000;stroke-linecap:round;stroke-linejoin:round;stroke-width:2px"/><path d="M587.48,226.68a18.87,18.87,0,0,0,.68-9.59c-.77-3.39-3.17-5.46-6.32-6.74a40.32,40.32,0,0,0-11.16-2.5,75.9,75.9,0,0,0-11.28-.33c-3.52.15-7,.34-10.56.63-3.28.26-6.56.59-9.84.79-2.68.16-5.36.55-8,.67-1.92.08-3.84.19-5.76.25-2.8.08-5.6,0-8.4,0a192.31,192.31,0,0,0-19.92,1.16,67,67,0,0,0-16,3.52,16.61,16.61,0,0,0-5.53,3.34c-2.3,2.13-3.05,4.93-1.55,8.29a18.55,18.55,0,0,0,4.44,6.12" style="fill:none;stroke:#000;stroke-linecap:round;stroke-linejoin:round;stroke-width:2px"/><path d="M396.08,255.72a.57.57,0,0,1-.24.6c-4.49,3.44-8.74,7.16-13,10.9-5.06,4.46-9.92,9.13-14.75,13.82-7.44,7.24-14.56,14.81-21.71,22.33-6.59,6.93-13,14-19.7,20.86-.77.79-.33,1.69-.47,2.53" style="fill:none;stroke:#000;stroke-linecap:round;stroke-linejoin:round;stroke-width:2px"/><path d="M1049.24,189.72c1.26,2.24.5,4.58.21,6.84a234.43,234.43,0,0,1-6.21,29.88c-2.73,10.36-5.67,20.66-8.16,31.08-.14.6-.24,1.2-.36,1.8" style="fill:none;stroke:#000;stroke-linecap:round;stroke-linejoin:round;stroke-width:2px"/><path d="M1050.32,186.6a7.67,7.67,0,0,1-1.09,2.76.39.39,0,0,1-.35.26c-2.22.22-3.33,1.95-4.55,3.47a69.28,69.28,0,0,0-10.09,18.47,184.53,184.53,0,0,0-7.79,26.76c-1,4.59-1.91,9.2-2.92,13.79-.1.46,0,.89-.09,1.33" style="fill:none;stroke:#000;stroke-linecap:round;stroke-linejoin:round;stroke-width:2px"/><path d="M547.64,189.66c-.48-.25-.71,0-.83.42a53.25,53.25,0,0,0-2.17,7.2c-.4,2.37-.53,4.71,1.57,6.47a1.43,1.43,0,0,0,1.31.49" style="fill:none;stroke:#000;stroke-linecap:round;stroke-linejoin:round;stroke-width:2px"/><path d="M819.56,199.2c-.22,3.92.21,7.84-.12,11.76" style="fill:none;stroke:#000;stroke-linecap:round;stroke-linejoin:round;stroke-width:2px"/><path d="M849,197.64c-.17,3.27.93,6.3,1.86,9.34.2.66,0,1.23.18,1.82" style="fill:none;stroke:#000;stroke-linecap:round;stroke-linejoin:round;stroke-width:2px"/><path d="M546.92,204.36a22.07,22.07,0,0,0,.24,3.72" style="fill:none;stroke:#000;stroke-linecap:round;stroke-linejoin:round;stroke-width:2px"/></g></svg>
