<svg xmlns="http://www.w3.org/2000/svg" viewBox="0 0 1366 768"><g id="Layer_20" data-name="Layer 20"><path d="M1111.64,661.8c-2.38-.06-4.48-1.2-6.72-1.8a155.37,155.37,0,0,0-20.39-4.13,142.83,142.83,0,0,0-20.65-1.4c-5.6.06-11.23-.33-16.79.1-6.41.49-12.82,1-19.22,1.73-9,1-17.93,2.18-26.86,3.51-6,.9-12,1.87-18,2.73-5.34.76-10.7,1.48-16.06,2.09-5,.58-10.12.94-15.14,1.8-1.88.33-3.83.29-5.76.46-10.7.94-21.42,1.86-32.15,2.4-6.8.35-13.6.74-20.4,1.1l-23.76,1.28c-7,.38-13.93.69-20.88,1.12-5.92.37-11.87.48-17.77,1.32-2.36.33-4.8.33-7.19.45-8.42.45-16.8,1.39-25.19,2.07-9,.72-17.92,1.63-26.89,2.38-8.63.73-17.26,1.41-25.92,1.93-7,.43-14.06,1-21.12.89a3.62,3.62,0,0,0-2.84,1c-1.29,1.51-2.89,1.42-4.6,1.42-11.36,0-22.72,0-34.08,0-.81,0-1.71.31-2.4-.47-1.69-1.87-4-1.83-6.24-1.89-6.56-.18-13.12.13-19.68-.25-9.83-.58-19.69,0-29.52-.3-10.56-.34-21.13-.33-31.68-.13q-20.16.38-40.32.08c-8.64-.14-17.29-.13-25.92-.46s-17.12-.54-25.68-.88c-8.88-.35-17.76-.52-26.64-.79-6.08-.19-12.16-.08-18.24-.18-28.88-.44-57.76-.2-86.64-.2-4,0-8,.34-12,0" style="fill:none;stroke:#000;stroke-linecap:round;stroke-linejoin:round;stroke-width:2px"/><path d="M408.92,65c-1.25-.26-1.79.73-2.38,1.45-4.87,6-10.18,11.58-15.36,17.29-12.28,13.53-25,26.67-35.79,41.5a285.81,285.81,0,0,0-18.21,28.57c-6.2,11.1-11.79,22.51-17,34.08-6.15,13.53-11.79,27.28-16.82,41.27q-8.13,22.62-14.47,45.82c-3.15,11.54-5.94,23.16-8.59,34.81-2,8.76-3.41,17.63-5.21,26.42-.93,4.58-1.15,9.31-2,13.9-1,5.34-1.53,10.74-2.28,16.1-1,7.16-1.6,14.38-2.2,21.59-.49,5.91-1,11.83-1.3,17.76-.37,6.72-.6,13.44-1,20.15-.25,4-.09,8-.36,12-.63,9.35-.11,18.74-.59,28.07-.32,6.18,0,12.34-.39,18.49-.46,8.23-.62,16.48-1,24.72-.62,13.19-1.56,26.39-1,39.6.28,6.64.62,13.31,1.56,19.92.27,1.9.31,3.86.41,5.77.28,5,.68,10.08,1.15,15.1.44,4.8.77,9.62,1.24,14.42.39,4,.66,8,1.14,12,.5,4.25,1.16,8.5,1.74,12.74.67,4.84,1.51,9.63,2.55,14.38,2.39,10.92,5.58,21.57,10.93,31.49.48.9.73,1,1.51.8" style="fill:none;stroke:#000;stroke-linecap:round;stroke-linejoin:round;stroke-width:2px"/><path d="M430,79.92q-6.72,7.68-13.44,15.36c-7.74,8.87-15.14,18-22.33,27.35q-9.93,12.88-18.94,26.42a376.62,376.62,0,0,0-31.44,57.11c-5.23,11.91-10,24-14.42,36.23q-5.54,15.29-10.57,30.72-10.23,31.27-17.44,63.38c-2.1,9.29-3.75,18.68-5.27,28.08-.81,5-1.45,10.06-2.05,15.1-.72,6-1.38,12-1.89,18-.78,9.19-1.1,18.39-1.52,27.6-.48,10.56-.49,21.13-.29,31.68q.31,16.68,1.27,33.37c.22,3.74.33,7.53.65,11.26.44,5.2.59,10.43,1.27,15.62.28,2.12.4,4.31.58,6.47.37,4.33.81,8.65,1.35,13,.38,3,.74,6.07,1,9.11.51,6,1.41,11.85,2.24,17.75,1.19,8.43,2.63,16.82,4.06,25.21,1.28,7.53,2.73,15,4.05,22.56,1.09,6.23,2.06,12.49,3.14,18.72,2.47,14.28,5,28.53,12,41.51a2.5,2.5,0,0,1,.21,1" style="fill:none;stroke:#000;stroke-linecap:round;stroke-linejoin:round;stroke-width:2px"/><path d="M1106.12,616.32c2.4-7.36,4.77-14.73,7.2-22.08,7.6-23,13.9-46.31,19.38-69.85,3-12.94,5.55-26,7.67-39.12,1.56-9.63,2.91-19.31,4-29,1.18-10.79,2.23-21.57,2.86-32.41.4-7,.71-13.91.66-20.88a6.7,6.7,0,0,1,.94-3.62,9.38,9.38,0,0,0,0-10,6,6,0,0,1-1-3.13c.05-7.85-.18-15.7-.76-23.52-.47-6.41-1.13-12.81-1.8-19.21a395.79,395.79,0,0,0-6.56-40.79,504.52,504.52,0,0,0-12.94-49,579.5,579.5,0,0,0-20.89-56.4q-8.1-18.57-18-36.26a295,295,0,0,0-23.86-36.4,238.23,238.23,0,0,0-28.69-31.07A203.59,203.59,0,0,0,997.63,67c-4.27-2.41-8.71-4.51-13.07-6.75" style="fill:none;stroke:#000;stroke-linecap:round;stroke-linejoin:round;stroke-width:2px"/><path d="M983.48,330.48c2.28-4.31,2.32-9,2.1-13.68-.12-2.73-2.66-4.62-5.94-5.3-4.57-.95-9.12-.15-13.68,0-2.4.11-4.81.71-7.2.66-10.52-.23-20.51,2.41-30.48,5.31-9.12,2.64-18.07,5.89-27.6,7a123.27,123.27,0,0,1-23.29.28,73.91,73.91,0,0,0-12,.14c-4.76.43-9.52.7-14.16,1.95-7.45,2-14.22,5.06-18.73,11.76-3.44,5.11-3.44,13.1-.49,17.29a8.42,8.42,0,0,0,8.42,3.62c4.83-.66,9.22-2.58,13.69-4.33,8.23-3.24,16.82-5.28,25.43-7.21,8.15-1.82,16.28-3.75,24.49-5.21,5.52-1,11-2.06,16.55-3,4.72-.77,9.42-1.74,14.17-2.35,4.13-.53,8.31-.74,12.47-1a263.78,263.78,0,0,0,29-2.93,18.11,18.11,0,0,0,7.21-2.84" style="fill:none;stroke:#000;stroke-linecap:round;stroke-linejoin:round;stroke-width:2px"/><path d="M922.76,73.92c7.62,4.26,15.78,7.25,24,10.07,11.51,4,23.21,7.35,34.56,11.78a189.09,189.09,0,0,1,39.85,21.81,225.4,225.4,0,0,1,31.21,26.4,207.16,207.16,0,0,1,31.83,42.3,287.82,287.82,0,0,1,25.55,58.51c4.44,14.36,8.85,28.73,13,43.19q3.6,12.63,6.08,25.48c.8,4.16,1.21,8.44,1.64,12.69.36,3.53.11,7.06.49,10.57" style="fill:none;stroke:#000;stroke-linecap:round;stroke-linejoin:round;stroke-width:2px"/><path d="M851.72,419.28c.26,4,1,8,1.29,12a117.48,117.48,0,0,1,0,16.57c-.28,4.15-.2,8.33-.54,12.48-.34,4-.24,8-.25,12a100.68,100.68,0,0,0,2.16,18.48q2.85,15.39,4.59,31a152.11,152.11,0,0,1,1.08,17c0,7.77-.47,15.57-3,23,0,.07,0,.17,0,.24-.87,2.18-1.78,3.57-4.79,3.75-8.42.5-16.6,2.66-24.73,4.88-8.51,2.31-17,4.6-25.67,6.31a219,219,0,0,1-25.7,3.43c-4,.31-8,.6-12,.63-19.2.13-38.4.67-57.6.44-7-.08-13.92-.43-20.88-.59-5.59-.13-11.21-.42-16.8-.9-7.12-.62-14.25-1.14-21.35-1.93-7.28-.81-14.57-1.55-21.84-2.38q-9-1-18-1.92c-5-.49-9.92-.93-14.87-1.47-10.07-1.1-20.18-1.46-30.25-2.38-6.57-.6-13.13-1.62-19.19-4.53a3.87,3.87,0,0,1-2.41-2.14" style="fill:none;stroke:#000;stroke-linecap:round;stroke-linejoin:round;stroke-width:2px"/><path d="M983.72,331c2.9,5.14,5.92,10.23,8.39,15.6a168.08,168.08,0,0,1,12.54,37.67,141.13,141.13,0,0,1,2.12,20.89c.31,6.4,1.54,12.75,1.21,19.2-.26,5-1.61,9.41-5.8,12.45a26.13,26.13,0,0,1-7.9,3.62,113.89,113.89,0,0,1-18.71,3.43c-7.69.93-15.39,1.7-23.06,2.72-12.16,1.61-24.26,3.62-36.46,4.95-8.4.92-16.74,2.26-25.21,2.38a6.4,6.4,0,0,1-5.25-2c-5.45-6.46-12-11.95-16.61-19.16a76.64,76.64,0,0,1-5.29-10.07,53.57,53.57,0,0,0-12.24-17.5c-6.68-6.22-9.31-14.19-10.21-22.85a97.72,97.72,0,0,1-.79-15.11c0-.48-.27-1,.23-1.44" style="fill:none;stroke:#000;stroke-linecap:round;stroke-linejoin:round;stroke-width:2px"/><path d="M1134.2,371.28c-.67,0-1,.09-1.26.94a233.17,233.17,0,0,0-7.11,25.95c-2,8.85-4,17.71-5.49,26.64-2.39,13.89-5.43,27.63-9,41.26-2.18,8.44-4.56,16.82-6.94,25.21-3.56,12.49-7.22,25-10.78,37.44-4.6,16.14-9.27,32.26-14.35,48.26a263.63,263.63,0,0,0-9.85,40.07,123.38,123.38,0,0,0-1.5,18.23c0,1.28-.15,2.56-.23,3.84" style="fill:none;stroke:#000;stroke-linecap:round;stroke-linejoin:round;stroke-width:2px"/><path d="M714.2,362.64c-.58-7.44-2.94-14.39-6-21.12a107.67,107.67,0,0,0-20.16-30,49.63,49.63,0,0,0-21.57-13.28c-10.72-3.33-21.84-4.8-32.66-7.59a73.43,73.43,0,0,0-18.72-2.11,116.13,116.13,0,0,0-16.33,1.07c-5.08.75-10.24,1-15.35,1.52-6.67.72-13.29,1.77-19.19,5.27-6.31,3.74-9.61,9.84-12.22,16.32-3.31,8.24-5,16.91-6.24,25.67-1,7.09-.63,14.24-.44,21.36a38.91,38.91,0,0,0,1.44,8.38,15.45,15.45,0,0,1,.41,3.14" style="fill:none;stroke:#000;stroke-linecap:round;stroke-linejoin:round;stroke-width:2px"/><path d="M540.44,389c-2.66.44-5.18-.52-7.66-1.05-6.61-1.43-13.22-2.72-19.93-3.56a78.22,78.22,0,0,0-17.76-.37c-10.71,1.09-20,5.38-27.36,13.39-6.55,7.1-10.34,15.74-13.43,24.72-3,8.73-5.39,17.68-9.16,26.14A59.65,59.65,0,0,1,433.4,465.6c-7.39,7.66-14.95,15.17-21.6,23.52-7.62,9.59-13.41,20.09-16.08,32.16A92.22,92.22,0,0,0,394,547a74.34,74.34,0,0,0,1.48,11A26.25,26.25,0,0,0,402,571" style="fill:none;stroke:#000;stroke-linecap:round;stroke-linejoin:round;stroke-width:2px"/><path d="M748.28,402.48h-7.44c-12.32-.08-24.65.1-37-.32-11.2-.38-22.4-.3-33.6-.67-12.4-.41-24.8-.48-37.2-.44-6.41,0-12.8-.27-19.2-.45a202.84,202.84,0,0,0-43,3.09c-2.47.46-5,0-7.44.35" style="fill:none;stroke:#000;stroke-linecap:round;stroke-linejoin:round;stroke-width:2px"/><path d="M1061.24,476.16c.12-1-.71-1.7-.75-2.79a135.8,135.8,0,0,0,14-17.84c7.79-12.23,13.6-25.22,16.07-39.61,2.54-14.82.84-28.87-6.93-42-5.1-8.62-12.2-15.27-20-21.33a102.27,102.27,0,0,0-21.38-12.65c-9.33-4.16-19.07-7.05-29.49-6.55a32.09,32.09,0,0,0-8.64,1.44,7.88,7.88,0,0,1-2.88.47" style="fill:none;stroke:#000;stroke-linecap:round;stroke-linejoin:round;stroke-width:2px"/><path d="M961.52,461A36.61,36.61,0,0,1,976.27,456a28.77,28.77,0,0,1,9.62,0c4.51.87,8,4.11,7.9,9.63a6.11,6.11,0,0,0,1.37,4.14c3,4,4.26,8.82,5.34,13.63,1.61,7.18,1.9,14.51,2.49,21.82.75,9.33,1.33,18.74,5.65,27.39,2.57,5.12,6.06,9.62,9.17,14.37,2.38,3.64,4.37,7.45,5,11.77,1.15,7.91-1.55,14.42-7.91,19.17-9.21,6.86-19.4,8.89-30.45,5.29-7.9-2.57-15.56-5.68-22.09-11-1.72-1.41-3.52-2.76-4.2-5" style="fill:none;stroke:#000;stroke-linecap:round;stroke-linejoin:round;stroke-width:2px"/><path d="M727.4,380.64c-5,.66-9.92-.27-14.88-.34-2.94,0-5.93-.29-8.89-.51-9.2-.68-18.39-1.5-27.59-2.21-7.2-.55-14.4-1.07-21.59-1.6-10.64-.77-21.28-1.09-31.93-1.06a169.67,169.67,0,0,0-17,.74c-14.62,1.53-29,4.15-42.74,9.77-.19.07-.47-.07-.71-.11" style="fill:none;stroke:#000;stroke-linecap:round;stroke-linejoin:round;stroke-width:2px"/><path d="M920.84,460.32c-5.7,1.78-8.77,6.2-11,11.29A68.4,68.4,0,0,0,905,491.52c-.7,6.06-1.28,12.12-1.44,18.24a97,97,0,0,1-5.44,30.49,24.24,24.24,0,0,0-1.23,7.91c0,3.84,1.63,6.7,5.29,7.35,8.89,1.61,16.55,6,24.46,9.94,5.76,2.84,11.56,5.53,18,6.47,5.13.75,10.2,1.09,14.64-2.4" style="fill:none;stroke:#000;stroke-linecap:round;stroke-linejoin:round;stroke-width:2px"/><path d="M552.92,400.56c.26,7.69,1,15.36,1.43,23s.2,15.2.25,22.8a259.41,259.41,0,0,1-1.6,27.85c-1.55,15.56-5.88,30.34-11.35,44.88a169.18,169.18,0,0,0-6.91,22.8c-.36,1.63-.58,3.34-.78,5" style="fill:none;stroke:#000;stroke-linecap:round;stroke-linejoin:round;stroke-width:2px"/><path d="M399.08,396.48c-7.31,16.58-13.65,33.5-18,51.12a184,184,0,0,0-5.56,37.2,78.37,78.37,0,0,0,.52,15.84c1.22,7.4,5.85,12.46,11.52,16.8a5.44,5.44,0,0,1,.48.48" style="fill:none;stroke:#000;stroke-linecap:round;stroke-linejoin:round;stroke-width:2px"/><path d="M525.8,559c-7.7,8.06-14.94,16.55-23,24.24a74.81,74.81,0,0,1-32.86,18.31,56.55,56.55,0,0,1-16.34,2.11,43.21,43.21,0,0,1-20.16-6c-6.88-3.91-12.88-9.22-20.16-12.48" style="fill:none;stroke:#000;stroke-linecap:round;stroke-linejoin:round;stroke-width:2px"/><path d="M743,362.64c-.47-5.21-2-10.22-2.9-15.36-1.42-8.11-2.83-16.23-4.78-24.24a104.59,104.59,0,0,0-7.92-22.32c-7.5-15-19.15-25.31-34.8-31.2-3-1.15-6.08-2.32-9.12-3.48" style="fill:none;stroke:#000;stroke-linecap:round;stroke-linejoin:round;stroke-width:2px"/><path d="M424.28,464.88c-.25-2.82.62-5.51,1.28-8.14,4.27-17.08,9.15-34,14.08-50.9a73.19,73.19,0,0,0,1.93-7.44c.9-4.86-.16-7.94-5.78-9.58-4.91-1.43-9.92-.77-14.86-.21a83.19,83.19,0,0,0-9.6,1.92,4.52,4.52,0,0,1-1.93.07" style="fill:none;stroke:#000;stroke-linecap:round;stroke-linejoin:round;stroke-width:2px"/><path d="M1049,568.32c.3-3.78,2.66-6.66,4.32-9.84,7.79-14.91,16.71-29.22,24-44.4a189.65,189.65,0,0,0,9.34-22.33c.31-.94,1-1.65,1-3-5.65-3.52-10.6-8.8-17.07-11.81-4.58-2.12-9.25-1.69-13,2.06-4.35,4.34-6.9,9.62-9,15.18-4.2,10.82-6.7,22.15-9.66,33.34-1.34,5-3,10-4,15.13-.94,4.6-1.77,9.24-.71,13.92,1.13,4.94,3.66,8.85,8.62,10.81a20.3,20.3,0,0,1,4.32,1.91" style="fill:none;stroke:#000;stroke-linecap:round;stroke-linejoin:round;stroke-width:2px"/><path d="M476.36,463.2c-1.66,6.49-4.73,12.44-7,18.7-3.91,10.66-7.36,21.45-10.26,32.42a278.08,278.08,0,0,0-5.9,28.81,55,55,0,0,0-.63,14.4c.18,1.65,1.39,3.05,1,4.79" style="fill:none;stroke:#000;stroke-linecap:round;stroke-linejoin:round;stroke-width:2px"/><path d="M660,271.68c-1.88-1.06-4-.6-6-.84-8-1-15.83-2.36-23.76-3.42-9.94-1.34-19.92-2.7-30-2.17-9.55.5-18.91,2-27.62,6.39a11.79,11.79,0,0,0-4.3,3.16" style="fill:none;stroke:#000;stroke-linecap:round;stroke-linejoin:round;stroke-width:2px"/><path d="M928.76,460.2c7,1.36,14.29,1.4,21.13,3.92,5.6,2.07,10.38,5.33,10.82,14.68.24,5.09-.87,10.06-1.05,15.12a107.61,107.61,0,0,0,.78,13.44l1.92,21.6,1.92,21.36a45,45,0,0,1,.28,9.36c-.44,3.78-1.7,7.06-4.6,9.6" style="fill:none;stroke:#000;stroke-linecap:round;stroke-linejoin:round;stroke-width:2px"/><path d="M573.56,277.68c-1.69-.63-3.42-.93-4.89-2.31-1-.91-2.54-1.18-4,.33-2.77,2.77-6.11,4.91-9.1,7.45a100.58,100.58,0,0,0-15.8,17.57,111.94,111.94,0,0,0-19.2,41.76,79.52,79.52,0,0,0-2.16,17,6.49,6.49,0,0,0,.24,2.4" style="fill:none;stroke:#000;stroke-linecap:round;stroke-linejoin:round;stroke-width:2px"/><path d="M387.32,399.6c-7.25-.19-11.67,3.88-14.89,9.83s-4.67,12.63-5.91,19.22c-1.28,6.79-3.23,13.41-4.64,20.15-1.31,6.26-2.39,12.52-1.22,19,.83,4.57,3.91,7.62,8.9,7.32" style="fill:none;stroke:#000;stroke-linecap:round;stroke-linejoin:round;stroke-width:2px"/><path d="M691.64,256.08c.28-6.64-.31-13.08-3.3-19.23a36.35,36.35,0,0,0-10-13A60.11,60.11,0,0,0,646.75,211a80.75,80.75,0,0,0-10.8-.26c-10.62.42-19.43,4.77-27.58,11-10.33,7.89-20.45,16.06-29.51,25.44-5,5.16-9.86,10.39-13.77,16.5-2.5,3.91-3,7.4.07,11.08" style="fill:none;stroke:#000;stroke-linecap:round;stroke-linejoin:round;stroke-width:2px"/><path d="M835.4,404.16c-8.09,0-16.16-.2-24.25-.87-9.53-.79-19-2-28.54-2.83-7-.65-14-.51-20.89-1.22" style="fill:none;stroke:#000;stroke-linecap:round;stroke-linejoin:round;stroke-width:2px"/><path d="M831.8,387.6c-8.31-1.9-16.54-4.12-25-5.55q-6.47-1.1-13-1.95a152.62,152.62,0,0,0-18.25-1.17c-1.29,0-2.55.56-3.84.15" style="fill:none;stroke:#000;stroke-linecap:round;stroke-linejoin:round;stroke-width:2px"/><path d="M506.6,403.44c-7.5,13.76-14.78,27.65-21.55,41.78-2.7,5.65-5.76,11.18-7.49,17.26" style="fill:none;stroke:#000;stroke-linecap:round;stroke-linejoin:round;stroke-width:2px"/><path d="M710.84,228.24a28.34,28.34,0,0,0,5-10.33,10.45,10.45,0,0,0-.12-6c-1.24-3.43-3.24-5.13-6.77-5.27a27.81,27.81,0,0,0-15.09,4.14c-5.87,3.36-11.46,7.17-15.87,12.43" style="fill:none;stroke:#000;stroke-linecap:round;stroke-linejoin:round;stroke-width:2px"/><path d="M921.08,465.12c1.23,5,4.42,8.26,8.87,10.58a33.3,33.3,0,0,0,25,2.88,20.62,20.62,0,0,1,5.27-.26" style="fill:none;stroke:#000;stroke-linecap:round;stroke-linejoin:round;stroke-width:2px"/><path d="M453.56,461.16a90.48,90.48,0,0,1,14.16.35,98.75,98.75,0,0,1,28.33,6.71,66.51,66.51,0,0,1,14.63,8.42" style="fill:none;stroke:#000;stroke-linecap:round;stroke-linejoin:round;stroke-width:2px"/><path d="M993.8,468.48c-2.47,2.3-4.53,5-7.91,6.28a48.31,48.31,0,0,1-13.69,3.13c-2.17.14-4.3.88-6.48.07" style="fill:none;stroke:#000;stroke-linecap:round;stroke-linejoin:round;stroke-width:2px"/><path d="M617.48,185.76c6.66,5.65,12,12.25,14.87,20.64a17.65,17.65,0,0,1,.73,4.08" style="fill:none;stroke:#000;stroke-linecap:round;stroke-linejoin:round;stroke-width:2px"/><path d="M1007,497.52c1.1,4,3.87,6.4,7.43,8.18,4.1,2.05,8.64,2.11,13,3.1" style="fill:none;stroke:#000;stroke-linecap:round;stroke-linejoin:round;stroke-width:2px"/><path d="M892.28,521c-2.88.4-5.75.84-8.64,1.19a57.3,57.3,0,0,1-10.8,0" style="fill:none;stroke:#000;stroke-linecap:round;stroke-linejoin:round;stroke-width:2px"/><path d="M1045.4,575.28a12.59,12.59,0,0,1,3.14-7.08,10.5,10.5,0,0,0,5.74,1.32" style="fill:none;stroke:#000;stroke-linecap:round;stroke-linejoin:round;stroke-width:2px"/></g></svg>
