<svg xmlns="http://www.w3.org/2000/svg" viewBox="0 0 1366 768"><g id="Layer_12" data-name="Layer 12"><path d="M375,680.6c-1.05.9-1.85,1.66-2.72,2.31a2,2,0,0,1-3.12-.64,12.37,12.37,0,0,1-.8-2.72c-.27-1.17.11-2.49-1.07-3.73a12.28,12.28,0,0,0-1.65.68c-1.18.7-2.31,1.49-3.48,2.2a13.85,13.85,0,0,1-7,2.23,5.79,5.79,0,0,1-6.26-4.73,14.22,14.22,0,0,1,.27-7.33c1.26-4.74,3.49-8.9,8-11.43a4.22,4.22,0,0,1,3.52-.55,2.78,2.78,0,0,1,1.37.81,5.3,5.3,0,0,1,1.07,4.26,4.65,4.65,0,0,1-2.85,3.84c-.42-1-.77-1.83-1.17-2.77-.44.09-.95,0-1.15.27a15.18,15.18,0,0,0-3.88,10.53,2.64,2.64,0,0,0,2.85,2.8,5.63,5.63,0,0,0,.82,0c5-.5,10-5.69,10.36-10.7.3-3.82.56-7.66,1.08-11.45a27.71,27.71,0,0,1,1.62-5.48,2,2,0,0,1,2.33-1.27,2.21,2.21,0,0,1,1.83,2.36c0,4.8-.73,9.55-1.17,14.32-.08,1-.24,1.91-.23,2.86a7.53,7.53,0,0,0,.68,1.83c1.38-1.66,2.48-3,3.62-4.33a14,14,0,0,1,3.85-3c1.55-.87,3-2,5.16-2.13l2.55,2.18a8.9,8.9,0,0,1-3.64,5c-2.07,1.57-4.17,3.11-6.24,4.69a15.05,15.05,0,0,0-1.81,1.67,1.44,1.44,0,0,0,.49,2.39,21.69,21.69,0,0,0,4.64,1.57c3.5.62,7,1.07,10.58,1.49,2.86.34,5.73.53,8.59.8a1.42,1.42,0,0,1,.79.18,1.72,1.72,0,0,1,.63,1c0,.35-.17,1-.41,1.07a15.71,15.71,0,0,1-3.91,1.08C391.07,683.14,383,683.28,375,680.6Z"/><path d="M198.51,462.33c-1.64-.33-2.85-.51-4-.85a1.76,1.76,0,0,1-1.11-1,1.89,1.89,0,0,1,.6-1.41,7.07,7.07,0,0,1,1.74-1c.84-.44,1.7-.85,2.76-1.36.15-1,.38-2.08.45-3.14.16-2.18.18-4.38.35-6.56a11,11,0,0,1,.65-3.18,2.32,2.32,0,0,1,2.13-1.67,2.35,2.35,0,0,1,2.38,1.87c.36,1.59.52,3.22.72,4.84.12,1,.15,2.09.25,3.47a8,8,0,0,0,1.73-.69c2.76-2.09,2.75-2.1,6-2.19-.16-.94-.26-1.85-.49-2.72a22.82,22.82,0,0,1-.89-3.15,3,3,0,0,1,.68-2.19,2.2,2.2,0,0,1,2.69,0,6.12,6.12,0,0,1,2.87,3.86,52.07,52.07,0,0,1,1,5.25c.24,1.88.33,3.78.51,5.89a6.71,6.71,0,0,0,2,.3c4.39-.95,8.36,2.81,9.27,6.37.81,3.15,1.9,6.31.49,9.64a12.23,12.23,0,0,0-.36,3.25c-.13,1-.37,1.21-2.34,1.87-1.1-1.36-1.14-3-1.18-4.65a27.1,27.1,0,0,0-2-8.35,6.26,6.26,0,0,0-.79-1.43,1.28,1.28,0,0,0-2.09.09,4.39,4.39,0,0,0-.62,1.06c-1.14,3.49-3.1,6.75-3,10.59a3.78,3.78,0,0,1-.06.82c-.29,1.4-2,2.91-3.17,2.74a3.23,3.23,0,0,1-2.1-2.78c-.12-1.63-.07-3.28,0-4.92.08-4.8.22-9.59.28-14.39a32.5,32.5,0,0,0-.39-3.49,8.37,8.37,0,0,0-1.67.93,19.51,19.51,0,0,1-4.74,3.88,4.35,4.35,0,0,0-2.38,4.43c.15,2.32.12,4.65.22,7,.08,1.78.18,3.57.41,5.33.32,2.51-1,3.77-3.16,4.58a4.61,4.61,0,0,1-2-3.51c-.5-3.11-.94-6.23-1.36-9.35C198.65,465.12,198.62,463.9,198.51,462.33Z"/><path d="M550.9,542.92c-.88,1.73-2.27,1.86-3.62,2a3.62,3.62,0,0,1-3-1.19c-.64-.68-1.25-1.4-1.79-2-2.64,1.23-5.08,2.44-7.57,3.53s-4.77,1.24-6.92-.68c-1.1-1-2.33-.64-3.47-.09a23.31,23.31,0,0,1-8.78,1.9,8.84,8.84,0,0,1-3.25-.27c-3-1-6.3-3.71-4.77-8.62,2.18-7,6.5-11.93,13.36-14.59a6.21,6.21,0,0,1,5.54.29,4.08,4.08,0,0,1,1.78,5.3,3.06,3.06,0,0,1-2.41,2c-1.2.13-1.48-1-1.89-1.84a9,9,0,0,0-.81-1.13,8.84,8.84,0,0,0-2.28.54c-4.39,2.37-6.58,6.45-8.16,10.92A2.24,2.24,0,0,0,514,541.8a5.56,5.56,0,0,0,2.25.93,63.17,63.17,0,0,0,7.78.19c2-.11,2.61-.81,2.8-2.85.7-7.44,4.64-13.1,10-17.78,1.92-1.66,4.47-2.64,6.81-3.74a3.53,3.53,0,0,1,4.43,1.18,22.58,22.58,0,0,1,2.59,3.65,3.63,3.63,0,0,1,.24,2.37,44.68,44.68,0,0,1-1.37,4.3,39.42,39.42,0,0,0-1.35,4.29C547.44,538.37,547.93,539.87,550.9,542.92ZM544,522.8a26.09,26.09,0,0,0-2.37,1.45A29.74,29.74,0,0,0,533,536.49a11.24,11.24,0,0,0-.64,3.17,1.46,1.46,0,0,0,2.11,1.6,13.14,13.14,0,0,0,3.15-1.86c2-1.65,4.24-3.19,5-5.83s1.27-5.58,1.8-8.4A8.84,8.84,0,0,0,544,522.8Z"/><path d="M607.79,523.63l2.39,2.67a3.33,3.33,0,0,1,0,1.18,45.21,45.21,0,0,1-2.34,5.66c-1,1.8-1.1,3.27.4,4.81a11.9,11.9,0,0,1,1.92,2.64,4.47,4.47,0,0,1-1.25,6.19c-2.68,2.16-5.62,3.4-9.14,2.38a2.33,2.33,0,0,1-1.11-.46,2.66,2.66,0,0,1-.62-1.4,1.23,1.23,0,0,1,.58-1c.74-.31,1.56-.4,2.32-.66a15.29,15.29,0,0,0,2.62-1.06,1.57,1.57,0,0,0,.61-2.13,1.94,1.94,0,0,0-2.73-1c-.8.52-1.5,1.18-2.26,1.77-1.51,1.16-3.06,2.28-4.55,3.48a18,18,0,0,1-9.05,3.5c-3.79.55-8-1.63-9.25-5.23a17.6,17.6,0,0,1-.92-5.2,46.91,46.91,0,0,1,.44-5.55c1.93-2.18,3.73-4.23,5.53-6.28a18.8,18.8,0,0,1,9.34-5.69,8.19,8.19,0,0,1,2.41-.32,3,3,0,0,1,2.83,2.54,6.37,6.37,0,0,1-1.26,5.42c-2.9,3.75-6.25,6.88-11.22,7.69-2.26.37-2.82,1.25-2.5,3.32.58,3.81,3.78,5.59,7.22,3.91a36.12,36.12,0,0,0,9.76-6.73,8.4,8.4,0,0,0,2.69-5.72c.27-3.83,2.43-6.6,5.76-8.45A5.7,5.7,0,0,1,607.79,523.63Zm-17.94,4.58-.6-.57c-.57.5-1.17,1-1.7,1.52-.22.23-.25.63-.6,1.54a18.9,18.9,0,0,0,2-1.32A6.12,6.12,0,0,0,589.85,528.21Z"/><path d="M257.56,678.24a16.38,16.38,0,0,1-6.93,6c-2.74,1.23-5.3,1.36-7.45-1.18a2.83,2.83,0,0,0-.64-.5,4.51,4.51,0,0,0-.69-.23c-.64.28-1.47.73-2.35,1-1.81.63-3.62,1.25-5.46,1.74a3.13,3.13,0,0,1-3.33-1.11l-3.64-4.17a22,22,0,0,0-2.38,1.5,17,17,0,0,1-6.21,3.1c-2.74.84-4.56-.11-5.5-2.8a10.57,10.57,0,0,1-.57-3.61,25,25,0,0,1,4.37-13.07c1.48-2.34,3.91-3.36,6.21-4.5a3.34,3.34,0,0,1,3.83.74c1.59,1.5,3.15,3.05,4.71,4.59,1,1,.91,2.23.81,3.47-.15,1.63-.32,3.26-.43,4.89a9.67,9.67,0,0,0,1.89,5.76,3.37,3.37,0,0,0,3.85,1.72c1.18-.27,2.31-.72,3.38-1.07.15-.65.39-1.07.32-1.42-.95-4.79,1.23-8.85,3.07-13,1.35-3,6-5.46,9.23-5.15,3.36.32,4.85,3.52,2.86,6.27A12.24,12.24,0,0,1,254.6,669l-2.1-2.23a3.08,3.08,0,0,0-3.33,1.78,14.6,14.6,0,0,0-2,9.47c.27,1.85,1.26,2.67,3.12,2.42a13.68,13.68,0,0,0,3.09-1c1.15-.45,2.25-1,3.38-1.46C256.83,677.92,257,678,257.56,678.24Zm-38.87,1.55a5.64,5.64,0,0,0,1.87-.32c3.56-2,5.11-5.5,6.05-9.25a4.23,4.23,0,0,0-.65-2.68c-1.09-2-2.74-2.07-4.28-.42C218.82,670.16,217.64,675,218.69,679.79Z"/><path d="M240.75,600.07a85.49,85.49,0,0,0,2.16-12,8.51,8.51,0,0,1,2.2-5.2,2.1,2.1,0,0,1,2.18-.79,2.05,2.05,0,0,1,1.48,2.21c-.37,3.68-.86,7.34-1.3,11-.48,4.08-1,8.15-1.4,12.24a10.75,10.75,0,0,0,.81,6,5.22,5.22,0,0,1,.39,1.59,1.9,1.9,0,0,1-1.59,2.43c-2.22.66-2.93.47-4-1.59-1.44-2.79-2.81-5.63-4-8.53-1.55-3.68-3.92-6.85-6.08-10.15-.06-.09-.25-.08-.37-.12-1.33,2-1.39,2.35-1.66,6.85-.14,2.32-.55,4.65-.5,7s.49,4.86.75,7.21c-1.9,1.73-1.93,1.68-4.09,1.83a14.49,14.49,0,0,1-1.91-7,63.93,63.93,0,0,1,.46-11.89c.54-3.38.72-6.81,1.1-10.21a5.87,5.87,0,0,1,.6-2.34,3.19,3.19,0,0,1,4.92-.74,28.41,28.41,0,0,1,6.71,8.24C238.32,597.47,238.84,598.92,240.75,600.07Z"/><path d="M278.73,594.15c5.64-4.78,6.85-4.78,12.85-.24.82-.59,1.65-1.27,2.55-1.85,2.25-1.44,3.85-1.2,5.89.65a9.78,9.78,0,0,1,3.07,6.12c.6,4.6,1.31,9.21,1,13.89-.13,2.19-.92,3.95-3,4.78a1.74,1.74,0,0,1-1.54-1.77c-.16-1.36-.18-2.73-.29-4.09-.23-2.87-.41-5.74-.76-8.58a9.62,9.62,0,0,0-2.05-5.4c-2,.59-3.08,1.81-2.87,3.86a35.51,35.51,0,0,1-.59,9,8.89,8.89,0,0,1-.34,2,7,7,0,0,1-1.55,2.79c-.76.59-2,.58-3,.82a5.55,5.55,0,0,1-1.73-5.06c.28-2.57.68-5.14,1.19-7.68a7.26,7.26,0,0,0-.8-5.53,2.22,2.22,0,0,0-3.77-.41,7.4,7.4,0,0,0-2.24,4.72c-.12,1.5-.09,3-.15,4.51s-.09,3.28-.23,4.92a4.44,4.44,0,0,1-.65,1.9,2.43,2.43,0,0,1-4.1,0,5.54,5.54,0,0,1-.72-1.87,16.76,16.76,0,0,1-.11-2.46,51.88,51.88,0,0,0-1.67-13.41,8.94,8.94,0,0,1-.33-2.42,2.53,2.53,0,0,1,2-2.35,2,2,0,0,1,2.49.88C277.73,592.52,278.13,593.21,278.73,594.15Z"/><path d="M504.65,589.44c1.08-3,1.22-6,1.75-8.9.15-.8.13-1.64.33-2.43a1.9,1.9,0,0,1,1.67-1.57,2.34,2.34,0,0,1,2.33,1.36,9.67,9.67,0,0,1,.42,2.81,105.27,105.27,0,0,1-.42,10.67c-.73,5.91-.19,11.75.27,17.62.17,2.18.49,4.35.66,6.54a2.49,2.49,0,0,1-2,2.67,2.27,2.27,0,0,1-2.67-1.4,32.4,32.4,0,0,1-1.07-4.37c-.24-1.17,0-2.5-1.52-3.43a11,11,0,0,0-1.93,1.07c-1.26,1-2.45,2.19-3.63,3.33a14.92,14.92,0,0,1-6.42,3.52,4.34,4.34,0,0,1-5.8-4,16.44,16.44,0,0,1,.57-5.68,30.2,30.2,0,0,1,12-16.16,10.78,10.78,0,0,1,3-1.14A23.39,23.39,0,0,1,504.65,589.44ZM492.4,611.85c.57,0,.88.09,1.09,0,5.65-3,8.55-8.15,10.65-13.88a2.73,2.73,0,0,0,.06-1.21,1.76,1.76,0,0,0-2.4-1.44,7.46,7.46,0,0,0-1.71,1.1,29.48,29.48,0,0,0-7.89,12.2A3.41,3.41,0,0,0,492.4,611.85Z"/><path d="M543.46,599.3c-1.36.72-1.65,2.07-2,3.38-.85,3-1.75,6.05-2.54,9.1a2.57,2.57,0,0,1-3,2.15,2.71,2.71,0,0,1-2.3-2.93c0-1.78.23-3.55.43-5.32.42-3.67.88-7.33,1.34-11a7.23,7.23,0,0,1,.27-1.61,2.45,2.45,0,0,1,3.88-1.36,4.05,4.05,0,0,0,3.41.77c1.74-.4,3.2.45,4.45,1.62,1,.92,2,1.86,3.06,2.89,1.19,0,1.52-1.2,2.11-2.08a25.92,25.92,0,0,1,2.54-3.69c1.43-1.5,2.67-1.46,4.41-.32a6,6,0,0,1,2.89,4.73c.32,4,.57,7.91.8,11.87.11,2,.08,4.08.18,6.12a2.56,2.56,0,0,1-1.49,2.67,1.82,1.82,0,0,1-2.72-.92,21.66,21.66,0,0,1-.69-4c-.31-3.54-.51-7.09-.82-10.64a20,20,0,0,0-.61-2.65,2.85,2.85,0,0,0-2.86,2.21c-.92,2.41-2.13,4.74-2.26,7.43a16.59,16.59,0,0,1-1.94,7.07,3.25,3.25,0,0,1-1.47,1.26,1.56,1.56,0,0,1-2.18-1.21,14.65,14.65,0,0,1,.28-3.23,19.58,19.58,0,0,0-.66-9.34C545.57,600.93,545.09,599.64,543.46,599.3Z"/><path d="M205.76,618.36a2.85,2.85,0,0,1-2.09-2.42c-.67-2.79-1.27-5.59-1.94-8.37A9,9,0,0,0,201,606a11.84,11.84,0,0,0-4,3.08A14.81,14.81,0,0,1,190,613c-3,.82-5.21-.86-5-4a19,19,0,0,1,2.28-8.25c.93-1.67,2-3.25,3.09-4.83a21.71,21.71,0,0,1,10.49-8.39c.85-2,.42-4.22.33-6.37,0-1.1-.29-2.18-.37-3.27s-.05-1.22,1.41-3.17l3.76,2.18c1.07,4.38.69,8.9.33,13.39a57.48,57.48,0,0,0,1,15.92c.47,2.41.67,4.87,1.07,7.3A4,4,0,0,1,205.76,618.36ZM199,594.23c-3.35,2.11-5.22,5.09-6.79,8.26-.8,1.63-2.06,3.23-1.39,5.58a8.76,8.76,0,0,0,2.3-.89,22.73,22.73,0,0,0,6-8.19A4.48,4.48,0,0,0,199,594.23Z"/><path d="M274.92,671c2.63-2.79,3.89-6.12,7.43-7.32l2.38,2.65c0,1.79-1.23,2.71-2.31,3.78-2.12,2.12-4.14,4.33-6.06,6.34a3.41,3.41,0,0,0,2.24,2.64c3.09,1.5,6.24,2.83,9.77,2.91,2.46.05,4.93.17,7.39.25a10.65,10.65,0,0,1,2,0,1.82,1.82,0,0,1,1.22.93,1.59,1.59,0,0,1-.53,1.36,10.59,10.59,0,0,1-5.62,2.31c-6.74.65-13.14-.16-18.86-4.14a5.59,5.59,0,0,0-1.37-.5c-2.14,1.22-1.5,4.68-4.53,5.08-1.06-1.9-.75-3.82-.68-5.71.09-2.32.13-4.64.26-6.95.22-3.83.51-7.65.77-11.47s.55-7.65.75-11.47a6.38,6.38,0,0,1,1.11-3.87,2,2,0,0,1,2.91-.17,6.11,6.11,0,0,1,1.81,4.46,39.15,39.15,0,0,1-.53,7.76A22.25,22.25,0,0,0,274.92,671Z"/><path d="M577.82,605.54c1.56-.87,1.79-2.29,1.91-3.61.27-2.94,1.72-5.46,2.67-8.15a3.29,3.29,0,0,1,3.82-2.41,2,2,0,0,1,2,2.17,20.93,20.93,0,0,1-.73,4c-.64,2.23-1.52,4.39-2.15,6.62-1.44,5.13-2.95,10.25-4.11,15.45-.74,3.32-.87,6.76-1.35,10.14s-2.11,6.19-3.41,9.19c-.61,1.39-2,1.75-3.32,2.2a1.2,1.2,0,0,1-1.66-1.5c.66-2.79,1.45-5.55,2-8.37.86-4.7,1.5-9.44,2.31-14.16a4.77,4.77,0,0,0-1.21-4.51,16.52,16.52,0,0,1-3.46-6c-.89-2.43-1.85-4.85-2.76-7.28a9.46,9.46,0,0,1-.47-1.57,2.63,2.63,0,0,1,1.74-3.27c1.72-.69,3-.43,4,1a14.75,14.75,0,0,1,1.39,2.95c.72,1.92,1.34,3.88,2.05,5.8A6.8,6.8,0,0,0,577.82,605.54Z"/><path d="M349.32,596.68c2-1.77,3.19-3,4.6-4.09,3.23-2.36,7-1,8,2.86a10.67,10.67,0,0,1,.31,4c-.67,4.75-1,9.51-1.28,14.3-.11,2.15-.76,2.82-2.49,3.25a1.75,1.75,0,0,1-2.37-1.54,11.93,11.93,0,0,1-.07-2.46c.18-2,.51-4.07.65-6.11.18-2.45.27-4.9.29-7.35,0-.8-.19-1.86-1.16-1.91a3,3,0,0,0-2.09,1,10.51,10.51,0,0,0-2.15,3.41c-.95,2.82-2.79,5.33-2.81,8.52,0,.86-1.13,1.8-1.89,2.54-1.23,1.18-2.7.72-3.08-1a16.77,16.77,0,0,1-.25-3.25c-.08-3.7-.13-7.39-.18-11.08-.05-4.65,0-9.3-.14-13.95-.05-2.18-.35-4.35-.47-6.53a3.86,3.86,0,0,1,.22-2,3.13,3.13,0,0,1,2.53-1.87,3.07,3.07,0,0,1,2.75,2.12,14.44,14.44,0,0,1,.55,3.63c.12,4.52.14,9,.23,13.55C349.07,593.82,349.19,594.86,349.32,596.68Z"/><path d="M383.14,610.06c-2.42,1.43-4.42,2.58-6.4,3.78a15.63,15.63,0,0,1-8.65,2.11c-2.63-.05-4-1.54-3.87-4.21a10.15,10.15,0,0,1,.62-3.19,42.88,42.88,0,0,1,10-15.34,29.23,29.23,0,0,1,4.29-3.15,5.28,5.28,0,0,1,4.31-.7,4.16,4.16,0,0,1,3.2,2.25,10.67,10.67,0,0,0,3.87,4.4,21.84,21.84,0,0,1-.53,3.08,26.17,26.17,0,0,0-.89,8.53c.06,3.54.45,4.18,3.46,6.62a5.13,5.13,0,0,1-4.71,2.54,2.26,2.26,0,0,1-1.65-.95,39,39,0,0,1-1.87-3.64C384.06,611.61,383.71,611.05,383.14,610.06Zm.12-11.64c0-.14,0-.27,0-.41-.07-1.22.05-2.6-1.4-3.09-1.21-.42-2.06.5-2.83,1.25a40.61,40.61,0,0,0-9.21,14.29,1.09,1.09,0,0,0,1.27,1.49,14,14,0,0,0,1.56-.46c2.82-.89,4.78-3,7-4.81C382.36,604.51,383.26,601.7,383.26,598.42Z"/><path d="M262.22,547.7l-2.39,2c-2.9-.81-2.88-3.92-4.78-5.69-.56.34-1.1.68-1.65,1a45.26,45.26,0,0,1-5.36,3,5.4,5.4,0,0,1-5.81-.64,4.41,4.41,0,0,1-1.77-2.66,25.7,25.7,0,0,1-.58-4,28.71,28.71,0,0,1,6.65-18.52,8.08,8.08,0,0,1,4-2.79c3.6-1.07,5.55-.45,7.87,2.54,3.47,4.46,3.47,4.46,2.89,10.11-.15,1.5-.44,3-.5,4.48C260.59,540.16,260.65,543.84,262.22,547.7Zm-16.84-9.4c.11,1.84.12,2.94.26,4a1.68,1.68,0,0,0,2.16,1.34,4.76,4.76,0,0,0,1.82-.85,21.18,21.18,0,0,0,2.3-2.34,15.11,15.11,0,0,0,3.76-11.38,7.61,7.61,0,0,0-1.31-3.83c-1.1-1.61-3-1.89-4.14-.38a17,17,0,0,0-2.86,4.93C246.42,532.79,245.92,535.91,245.38,538.3Z"/><path d="M283.6,462c2.48-2.56,4.39-4.7,6.48-6.64a5.58,5.58,0,0,1,9.41,2.58c.91,3.25.92,6.26-1.58,9.21a28.51,28.51,0,0,1-8.52,6.93,11.35,11.35,0,0,1-3.48,1.12c-3.14.5-3.89,0-5.28-3a3,3,0,0,0-.34-.74c-2.26-2.57-2.38-5.73-2.46-8.89-.07-2.59-.05-5.19,0-7.79s.09-5.2.17-7.79c0-1.23.13-2.46.23-3.69a3.46,3.46,0,0,1,1.79-2.6,1.67,1.67,0,0,1,2.64.87,19.7,19.7,0,0,1,.71,4c.11,2.18,0,4.37,0,6.56,0,2.46-.13,4.92-.14,7.38A16.81,16.81,0,0,0,283.6,462Zm2.25,8.17a5.22,5.22,0,0,0,1.58-.43c1.93-1.29,3.83-2.62,5.69-4a4.81,4.81,0,0,0,1.27-1.59,3.21,3.21,0,0,0-.94-4c-1.06-.69-2.15-.55-3.35.53a26.19,26.19,0,0,0-5,7,2.52,2.52,0,0,0-.08,1.57C285.12,469.56,285.53,469.82,285.85,470.18Z"/><path d="M594.58,451.83c1.69-.52,2.25-1.87,3.13-2.86a4.63,4.63,0,0,1,5.61-1.28,8,8,0,0,1,5.24,6.34,25.06,25.06,0,0,1,.14,3.68c0,2.2-.05,4.39-.09,6.58,0,3,0,6-1.59,8.78-.45.81-.38,1.89-.73,2.77a6.43,6.43,0,0,1-1.31,2,2,2,0,0,1-2.23.64c-.93-.37-1-1.21-1-2a12.61,12.61,0,0,1,.09-2.46c.64-3.63,1.28-7.27,2-10.88a18.88,18.88,0,0,0-.22-7.34,4.11,4.11,0,0,0-.72-1.45A1.93,1.93,0,0,0,600,454a7.49,7.49,0,0,0-1.46,1.95,29.74,29.74,0,0,0-3.15,12.65c0,1,.05,1.92,0,2.87a6.68,6.68,0,0,1-.37,2,3.07,3.07,0,0,1-2.95,1.83A2.68,2.68,0,0,1,590,473a14,14,0,0,1-.22-2q-.63-9.84-1.23-19.69a12.57,12.57,0,0,1,.11-2.45,2,2,0,0,1,1.49-1.78,2.18,2.18,0,0,1,2.55.86,16.47,16.47,0,0,1,1,2.2C594,450.67,594.3,451.24,594.58,451.83Z"/><path d="M271.52,529c.68-1,1.09-1.72,1.56-2.35a11.42,11.42,0,0,1,1.84-2.18c2.77-2.24,5.47-2,7.33.86A11.68,11.68,0,0,1,283.9,529a141.56,141.56,0,0,1,3,19.43,7.1,7.1,0,0,1,0,1.22,1.72,1.72,0,0,1-1.44,1.73,1.74,1.74,0,0,1-1.95-1.17,16.08,16.08,0,0,1-1-3.1c-.91-4.41-1.77-8.84-2.61-13.27a9.23,9.23,0,0,0-1.6-4.33c-.58.43-1.14.64-1.36,1a16.4,16.4,0,0,0-1.51,3.34,45.62,45.62,0,0,0-2.14,12.48,10,10,0,0,1-.05,1.23,2.47,2.47,0,0,1-2,2.28A2.85,2.85,0,0,1,268,548a17.36,17.36,0,0,1-.44-2.41q-1.53-9.51-3-19a16.92,16.92,0,0,1-.18-2.85,2.1,2.1,0,0,1,1.31-1.92,2,2,0,0,1,2.52.82c.82,1.24,1.46,2.6,2.17,3.92C270.67,527.22,271,527.91,271.52,529Z"/><path d="M405.42,452.93c2.07-.39,3.34-.93,4.95-.35,3.09,1.09,4.47,3.5,5.53,6.14a30.24,30.24,0,0,1,1.53,6.34c.55,3.36.91,6.76,1.35,10.14,0,.13.09.3,0,.4a4.63,4.63,0,0,1-.94,1.63,1.54,1.54,0,0,1-2.11-.66,9.8,9.8,0,0,1-.93-2.25c-.69-2.78-1.23-5.61-2-8.38a34.26,34.26,0,0,0-1.87-5.38c-.35-.78-1.24-1.32-1.79-1.87-1.54.38-1.89,1.46-2.25,2.48-1,2.83-2,5.66-2.91,8.51a6.76,6.76,0,0,1-2,3.49,2,2,0,0,1-2.88-.42,5.07,5.07,0,0,1-.74-3.53c.18-3,.28-6,.62-9a117.88,117.88,0,0,0,.19-18.41,18.24,18.24,0,0,1,0-2.45,3.17,3.17,0,0,1,1.9-2.51,1.38,1.38,0,0,1,1.86.26,7.27,7.27,0,0,1,1.56,2.77c.45,2.82.66,5.69.88,8.54C405.51,449.76,405.42,451.11,405.42,452.93Z"/><path d="M439.25,466.43a17,17,0,0,0-2.5,1.88c-2.64,2.81-6.06,4.15-9.61,5.27a2.7,2.7,0,0,1-3.47-1.35,5.53,5.53,0,0,1-.73-2.31,12.34,12.34,0,0,1,.19-4.08c1.63-5.38,3.49-10.67,7.74-14.69a20.42,20.42,0,0,1,2.2-1.84c2.51-1.75,4.93-1.47,6.8.95a62.23,62.23,0,0,1,4.35,6.45c1,1.62.66,3.5.2,5.21a13.51,13.51,0,0,0,.37,6.89c.32,1.3.81,1.52,2.43,1.33.27,0,.53-.17.8-.18a1.06,1.06,0,0,1,1,1.39,8.75,8.75,0,0,1-4.29,4.76,2,2,0,0,1-1.74-.61,14.31,14.31,0,0,1-2.48-6C440.33,468.46,440.58,467.24,439.25,466.43Zm-10.88,1.3c.91.08,1.23.22,1.43.12a13.31,13.31,0,0,0,7.65-9.91,9,9,0,0,0-.49-3.54,1.17,1.17,0,0,0-1.73-.45,5.67,5.67,0,0,0-1.41,1.44c-1.61,3-3.21,6-4.68,9A15.87,15.87,0,0,0,428.37,467.73Z"/><path d="M377.3,525.35c-.36-.61-.7-.93-.72-1.28a5.51,5.51,0,0,1,2.33-5c4.33-3.25,11.93-1.66,14.33,3.13a8.41,8.41,0,0,1-.12,7.54c-.57,1.23-1.24,2.41-2,3.82.74.53,1.35,1,2,1.42a22.39,22.39,0,0,1,3,2,6.37,6.37,0,0,1,1.09,7.58,12.93,12.93,0,0,1-4.2,4.41c-5.6,3.59-11.42,3-17.33,1a6.88,6.88,0,0,1-1.45-.75,2.68,2.68,0,0,1-1.28-3.5c.17-.6.29-.72,1.82-2,.25.08.65.09.73.25.95,2.14,2.63,2.9,4.9,2.9,2.75,0,5.5.08,8.1-1a15,15,0,0,0,2.87-1.55c1.81-1.25,1.69-2.64-.15-3.84a5.18,5.18,0,0,0-5.41-.63,10,10,0,0,1-1.68.43c-.47-.54-.95-1-1.34-1.55a2.19,2.19,0,0,1,.15-3c1.35-1.54,2.71-3.07,4.11-4.58a4.85,4.85,0,0,0,1.47-3.69c-.08-1.78-.7-2.89-2.38-3.42-2.53-.81-5.08-1.09-7.47.5C378.37,524.84,378,525,377.3,525.35Z"/><path d="M169.7,526.5c1.23-.73,1.93-1.13,2.61-1.56a3.76,3.76,0,0,1,4.57.36,7,7,0,0,1,2.88,3.87c.37,1.46.72,2.92,1,4.4.44,2.41.84,4.84,1.21,7.26a24,24,0,0,1,.33,3.67,3.44,3.44,0,0,1-.71,1.83,1.53,1.53,0,0,1-2.7-.09,19.2,19.2,0,0,1-1.72-4.54c-.39-1.72-.32-3.54-.58-5.29a26,26,0,0,0-1-4.38,1.66,1.66,0,0,0-3-.22,17.64,17.64,0,0,0-1.49,4.63,13.48,13.48,0,0,0,.08,4.48,5.06,5.06,0,0,1-2.12,5.43l-1.55-.33a3.23,3.23,0,0,1-2.67-3.19c-.2-1.9-.49-3.8-.62-5.7q-.47-6.75-.8-13.5c-.19-3.68-.31-7.35-.48-11.36a4.76,4.76,0,0,1,2.8-2.43c2.53,1,3.28,3,3.35,5.49.08,2.73.05,5.47.12,8.2A28.35,28.35,0,0,0,169.7,526.5Z"/><path d="M421.25,531.21c-.2,1.76-.38,3.52-.61,5.28-.44,3.36-2.17,6.14-4.1,8.8a5,5,0,0,1-1.86,1.53c-1.48.7-3,1.26-4.56,1.82a5.15,5.15,0,0,1-4.71-.52c-2.56-1.6-4.33-3.83-4.51-6.92a26.81,26.81,0,0,1,.21-6.52A63.66,63.66,0,0,1,405.37,521a12.42,12.42,0,0,1,1.45-2.46c1.28-1.68,2.11-1.81,4.21-1a5.51,5.51,0,0,0,2.29.61c3.71-.28,5.43,2,6.6,5A17.59,17.59,0,0,1,421.25,531.21Zm-5.6-.14a34.78,34.78,0,0,0-.27-4.38,14.89,14.89,0,0,0-1.28-3.83,2.13,2.13,0,0,0-3.48-.21,6.15,6.15,0,0,0-.65,1c-2.14,4-3.07,8.44-3.87,12.87a9.55,9.55,0,0,0,1.41,6.67,1.77,1.77,0,0,0,2.76.64c2.64-2.3,4.65-5,5.07-8.6C415.5,533.91,415.54,532.54,415.65,531.07Z"/><path d="M260.51,613c-1.45,0-2.6.26-3.56-.06a5.39,5.39,0,0,1-3.78-3.5,32.39,32.39,0,0,1-1.34-6,40.82,40.82,0,0,1,.14-6.15,4.26,4.26,0,0,1,.54-1.93c.5-.83,1.27-1.65,2.31-1.33a3.21,3.21,0,0,1,1.78,1.51,10.16,10.16,0,0,1,.7,3.17c.14,1.36.07,2.74.19,4.1a8.34,8.34,0,0,0,1.52,4.7c1.51-.06,2.12-1.15,2.53-2.27s.55-2.4.85-3.6c.63-2.51,1.22-5,2-7.5a9.1,9.1,0,0,1,1.48-2.11c1.27.78,2.39,1.47,3.52,2.18a13.07,13.07,0,0,1-.62,6.12,83.42,83.42,0,0,0-2.31,18.28c-.15,4.09-.93,8.15-1.39,12.23a4.31,4.31,0,0,1-2.19,3.28,1.89,1.89,0,0,1-2.9-1.16,19.46,19.46,0,0,1,0-3.66c.25-4.65.55-9.29.8-13.93A17.59,17.59,0,0,0,260.51,613Z"/><path d="M462.69,615.91c-3.42,1.19-3.42,1.19-6-1.83-1.59.24-2.93,1.21-4.37,1.95a16.56,16.56,0,0,1-5.43,1.67c-2.28.3-4.91-2-5.08-4.3a21.72,21.72,0,0,1,6.2-17.17,25.51,25.51,0,0,1,4.77-3.81c2.05-1.31,4.18-1,6.14.39a11.5,11.5,0,0,1,1.26,1.05c1.37,1.29,3.84,1.67,4.21,3.64.33,1.79-.32,3.76-.55,5.64,0,.27-.09.54-.14.81a52,52,0,0,0-1.22,6A45.27,45.27,0,0,0,462.69,615.91Zm-7.21-19.29c-5.36,3.48-7.62,8.52-8.48,14.37-.12.79-.14,1.67.76,2.15a2.1,2.1,0,0,0,2.27-.38,13.42,13.42,0,0,0,1.91-1.52,23.71,23.71,0,0,0,5.33-7.15C458.88,600.74,458.72,599.92,455.48,596.62Z"/><path d="M156.87,615.24c-1.66.48-2.4,0-2.84-1-.61-1.37-1.2-2.73-1.9-4.32a16.11,16.11,0,0,0-2.09,1.41c-2.12,1.93-4.77,2.61-7.42,3.28a2.42,2.42,0,0,1-2.79-1.21,13.24,13.24,0,0,1-2-6.59,27.16,27.16,0,0,1,3.71-15.74,28.61,28.61,0,0,1,3.65-4.4,2.48,2.48,0,0,1,3-.52,11.65,11.65,0,0,1,2.1,1.23c.78.56,1.4,1.5,2.24,1.75,2.47.74,2.88,2.73,3.18,4.77.33,2.3.52,4.62.69,6.94.26,3.41.51,6.82.66,10.23A39.9,39.9,0,0,1,156.87,615.24Zm-13-4.92c3.76-1.32,5.31-2.82,6.08-5.78a22.21,22.21,0,0,0,.68-3.22,13.57,13.57,0,0,0-2.68-10.13c-2.24,1.51-2.94,3.73-3.59,5.93C143.08,601.36,142.27,605.65,143.84,610.32Z"/><path d="M347.4,456.14c2.6-1.71,2.64-4.43,2.83-7.2.41-5.87,1-11.73,1.49-17.58a6.31,6.31,0,0,1,1.54-4.14c1.34-1.35,3.46-1,3.9.85a12,12,0,0,1,.12,3.65c-.38,5-.84,10.09-1.22,15.13-.09,1.2-.4,2.47.56,3.64,1.59.75,3.46-.9,5.07.33a10.54,10.54,0,0,1,1.17,1.34,9.38,9.38,0,0,1-1.22,1.62,22.34,22.34,0,0,1-3.65,2.65,4,4,0,0,0-2.22,4.05c.15,4.09-.13,8.2.66,12.27.43,2.16-.24,3.29-2.25,4.24a1.73,1.73,0,0,1-2.42-.82,11,11,0,0,1-1.61-5.45c0-1.92,0-3.83,0-5.75C350.1,460,350.1,460,347.4,456.14Z"/><path d="M196.6,669.4c1.76-1.29,3.05-2.25,4.36-3.17a3.49,3.49,0,0,1,4.21,0c4,2.47,5.16,6.11,3.56,10.59a16.53,16.53,0,0,1-8,9.44,12.46,12.46,0,0,1-2.25,1c-1.88.56-3.18-.2-3.76-2.11-.32-1.06.32-2.65,1.33-2.61,3.27.13,4.9-2.18,6.6-4.26a9.8,9.8,0,0,0,1.57-3.7,2.64,2.64,0,0,0-.64-1.82,1.53,1.53,0,0,0-2.48-.22c-1.4,1.68-2.7,3.44-4,5.21-.39.54-.57,1.25-.94,1.82a3.93,3.93,0,0,1-3.94,1.55,3.11,3.11,0,0,1-2.12-2.78,13.73,13.73,0,0,1-.16-2.86c.27-3.68.64-7.36.94-11,.16-1.91.21-3.83.35-5.74a16.71,16.71,0,0,1,.35-2.83,2.63,2.63,0,0,1,2.4-1.93,2.74,2.74,0,0,1,2.5,1.81,8,8,0,0,1,.4,2.41c0,1.5-.21,3-.24,4.51C196.56,664.7,196.6,666.75,196.6,669.4Z"/><path d="M308.2,683.89c-.09,1.28-.18,2.77-.28,4.25-.1,1.64-.29,3.27-.3,4.91,0,3.28-.91,4.46-4.67,4.28a8.64,8.64,0,0,1-.7-2.1,49.8,49.8,0,0,1-.2-5.73c.13-4,.33-7.91.57-11.86a31.75,31.75,0,0,0-.05-7.73c-.64-3.59,1.13-6.67,3.12-9.49,1.08-1.52,4.42-1.79,6-.58a10.4,10.4,0,0,1,2.51,2.66,12,12,0,0,1,1.63,10.2C313.39,680.8,315.08,678.87,308.2,683.89Zm1.47-16.34c-.43,2.66-1,5.2-.65,7.88,1.72-1.13,1.93-1.28,2-2.37C311.21,671.09,311.49,669.06,309.67,667.55Z"/><path d="M255.24,454.63a6.75,6.75,0,0,1-1.62,6.52,16.18,16.18,0,0,1-6.17,4.64c-1.76.73-3.53,1.4-5.26,2.08.15,2.55.74,3.35,3,3.52a20.18,20.18,0,0,0,8.88-1.17c1.39-.53,2.7-1.31,4-2a33.56,33.56,0,0,1,3.3-1.62c.52-.19,1.2.1,2.2.21a8.93,8.93,0,0,1-1.23,2,21.71,21.71,0,0,1-4.23,3.22,39.36,39.36,0,0,1-13.21,4.26,7.68,7.68,0,0,1-8.8-6.58,12.4,12.4,0,0,0-.56-2.37c-1.1-2.74-1.1-2.7.68-4.43a18.39,18.39,0,0,0,2.07-2.48,21.89,21.89,0,0,1,6.63-6.61,16.91,16.91,0,0,1,3.37-1.41c1.77-.55,3.46-.69,4.83,1.08C253.57,454.09,254.52,454.27,255.24,454.63Zm-6.74,3.12c-3,1.47-3.19,1.71-2.45,2.41A2.77,2.77,0,0,0,248.5,457.75Z"/><path d="M460.56,545.44a17,17,0,0,0,4.5-5.57c1.81-3.58,2.61-7.46,3.61-11.29a13.24,13.24,0,0,1,.89-2.71c.27-.53.91-.87,1.5-1.39l2.85,2.6a7.81,7.81,0,0,1-.57,4.41,21.89,21.89,0,0,0-1.06,6.86c-.11,4.52.14,5.26,3,8.43-1,1.93-1.83,2.37-3.71,2.25s-2.38-2.17-4.06-2.8c-1.49,0-2.6,1.08-3.8,2a8.1,8.1,0,0,1-2.42,1.47c-3,.92-5.68-.63-6.34-4a42.86,42.86,0,0,1-.6-8.55,50.79,50.79,0,0,1,.85-6.08c.33-2.44.6-4.88.87-7.32,0-.4,0-.82,0-1.23a2.61,2.61,0,0,1,2.52-2.27,2.32,2.32,0,0,1,2.53,1.66,9.7,9.7,0,0,1,.22,5.26c-.35,2.16-.81,4.29-1.21,6.44a26.19,26.19,0,0,0-.33,9.38C459.91,543.55,460.17,544.16,460.56,545.44Z"/><path d="M311.22,548c-2.8,3.4-3.7,3.26-5.19-.6-.2-.51-.39-1-.6-1.52-.05-.12-.18-.2-.48-.53-.46.15-1.21.17-1.62.55a24.34,24.34,0,0,1-5.83,3.74c-3.34,1.69-6.37,0-6.64-3.7a15.69,15.69,0,0,1,1.93-8.69,63.42,63.42,0,0,1,5.06-7.9,20.47,20.47,0,0,1,4.15-3.89c2-1.5,3.86-1.34,5.4.48a26.94,26.94,0,0,1,2.89,4.45,3.7,3.7,0,0,1,.24,2C310,539.23,310.11,542.65,311.22,548Zm-7.56-17.19c-.58.36-1.17.52-1.42.9a81.92,81.92,0,0,0-4.5,7.22,18.15,18.15,0,0,0-1.25,4.68,1.08,1.08,0,0,0,1.08,1.45c3.27-2,5.09-5.11,6.2-8.64C304.3,534.74,305,532.81,303.66,530.82Z"/><path d="M343.55,458.67a18.81,18.81,0,0,1-8,15.09,31,31,0,0,1-6.95,2.13c-2-.16-4.74-2.49-5.36-4.56a9.13,9.13,0,0,1-.37-2,24,24,0,0,1,6.77-18.65,6.52,6.52,0,0,1,5.09-2.23c1.69,0,3.3.11,4.24,1.83a2.27,2.27,0,0,0,.53.62c.9.77,2.39.82,2.74,2.25C342.67,455,343.1,456.83,343.55,458.67Zm-6.63-3.78a16.31,16.31,0,0,1-3.21.37,2.25,2.25,0,0,0-2.33,1.23A22.63,22.63,0,0,0,328,466.86a8.61,8.61,0,0,0,.08,2,2.13,2.13,0,0,0,3.37,1.48,22.3,22.3,0,0,0,3.62-3.24,12.54,12.54,0,0,0,2.62-6.74A7.93,7.93,0,0,0,336.92,454.89Z"/><path d="M383.24,462.67l-4.22-.83a5.62,5.62,0,0,1,.5-1.84,3.86,3.86,0,0,1,1.63-1.21c2.57-1,3.24-3,3.33-5.52.15-4.37.52-8.74.81-13.11.08-1.22.12-2.46.31-3.67.28-1.82,1.12-2.56,2.63-2.54s2.39.74,2.62,2.58a36.38,36.38,0,0,1,.16,5.72c-.11,2.86-.39,5.72-.53,8.59a12.64,12.64,0,0,0,.33,2.23c1.24-.41,2.22-.8,3.24-1a5,5,0,0,1,2-.1,1.76,1.76,0,0,1,1.17,2.58,8.79,8.79,0,0,1-1.59,1.85,28.13,28.13,0,0,1-3.87,3c-1.66,1-2.05,2.32-2.05,4.11,0,3.83-.09,7.65-.23,11.48-.1,2.75-.17,2.77-3.28,3.73-1.62-1-1.85-2.61-1.94-4.24-.13-2.59-.09-5.19-.16-7.79a22.68,22.68,0,0,0-.25-2.85A4.56,4.56,0,0,0,383.24,462.67Z"/><path d="M540.31,460.06c2.58-1.06,3.92-2.91,5.43-4.67a46.73,46.73,0,0,1,6.07-5.5,8.92,8.92,0,0,1,3.26-1.66,7.2,7.2,0,0,1,4-.29,9.33,9.33,0,0,1,3.42,2.78,3.27,3.27,0,0,1,.41,2.32,10.33,10.33,0,0,1-4.77,7.34c-2.76,1.82-5.64,3.41-9.12,3.24a3.8,3.8,0,0,0-.82.08,1.93,1.93,0,0,0-1.31,2.85,5.36,5.36,0,0,0,3.89,2.75,16.69,16.69,0,0,0,9.31-.57c.9-.32,1.76-.74,2.66-1.06a.81.81,0,0,1,.72.2c.12.33.24.88.06,1.08a13.22,13.22,0,0,1-8.27,4.14,33.62,33.62,0,0,1-7.37.08,7.28,7.28,0,0,1-6.72-7.51,27.44,27.44,0,0,0,.05-2.86A17,17,0,0,0,540.31,460.06ZM555.83,453c-1.67.41-2.61,1.78-3.74,2.85-.37.36-.6.91,0,1.36C555.65,456.12,556.49,455.21,555.83,453Z"/><path d="M346.86,677.19c-1,2.39-1.87,2.58-5.77,2.55-2.41,0-4-1.33-5.73-2.66a18.52,18.52,0,0,0-5.34,3.21c-1.86,1.47-4.06,2.28-6.08,1.33s-2.66-3.4-2.67-5.67c0-3.35,1.19-6.44,2.33-9.53.24-.64.73-1.19.91-1.83,1-3.81,4.4-5,7.39-6.63a2.72,2.72,0,0,1,3.09.48c1.75,1.53,3.44,3.13,5.13,4.74a3.32,3.32,0,0,1,.83,3.4,36.11,36.11,0,0,0-.9,5.24c-.2,3.44,1,4.73,4.4,5.1Zm-19.57.17a10,10,0,0,0,2.5-1.29,20.46,20.46,0,0,0,4.47-7.2,8.88,8.88,0,0,0,.07-4,1.47,1.47,0,0,0-2.47-.94,10,10,0,0,0-2.17,2.38,18.68,18.68,0,0,0-2.77,8.83A14.24,14.24,0,0,0,327.29,677.36Z"/><path d="M220.12,528.76l1.86-.89a5.42,5.42,0,0,1,6.43,1.11,12,12,0,0,1,4.12,8.22,44.84,44.84,0,0,1,.05,4.92c-.09,2.3-.24,2.47-3.13,4.59-.36-.52-.94-1-1-1.56-.18-1.2,0-2.46-.17-3.67a30.82,30.82,0,0,0-1.06-5.59,5.82,5.82,0,0,0-2.09-2.37,1.12,1.12,0,0,0-1.74.48,32.17,32.17,0,0,0-1.34,5.1,17.49,17.49,0,0,0,0,4.09,4.72,4.72,0,0,1-1.52,4,2.74,2.74,0,0,1-3-.67,5.93,5.93,0,0,1-.9-2.62c-.54-3-1-5.92-1.51-8.88s-1.11-6.18-1.67-9.27c-.42-2.28-.75-4.58-1.29-6.83a5.87,5.87,0,0,1,.87-4.68,1.82,1.82,0,0,1,2.84-.35,6.71,6.71,0,0,1,1.67,2.71c.63,2.52,1,5.1,1.48,7.64C219.25,525.7,219,527.27,220.12,528.76Z"/><path d="M174.88,463.36c0,.54,0,1.09,0,1.64-.24,6.25-2.11,9.35-7.57,12.64-.58.35-1.15.73-1.75,1.07-2.47,1.43-4.85.85-6.12-1.75a12.17,12.17,0,0,1-1.37-4.69c-.19-5,.21-9.87,2.67-14.37,1-1.8,1.85-3.67,2.76-5.51a8.21,8.21,0,0,1,3.4-3.48,1.91,1.91,0,0,1,2.89,1.24,2.73,2.73,0,0,1,.1.81,2.84,2.84,0,0,0,1.94,2.87,3.45,3.45,0,0,1,2.4,3c.38,2.14.62,4.31.92,6.47Zm-7.43-7.87c-3.85,5.66-4.49,11.21-3.89,17a1.68,1.68,0,0,0,.87,1.21,1.72,1.72,0,0,0,1.44-.42,10.81,10.81,0,0,0,3.07-6.09A17.48,17.48,0,0,0,167.45,455.49Z"/><path d="M207,524.24c-.17,4.79-.31,9.17.81,13.46A35.41,35.41,0,0,0,209.2,542a2.6,2.6,0,0,1-.73,3,1.57,1.57,0,0,1-2.22.25,9.75,9.75,0,0,1-2.05-2.47,26,26,0,0,1-1.36-3.26,30.57,30.57,0,0,1-7.11,5.65,13.17,13.17,0,0,1-2.61,1.16,3.28,3.28,0,0,1-4.35-3,14.45,14.45,0,0,1,.86-6.87c1.32-3.29,2.73-6.56,4.3-9.74a15.81,15.81,0,0,1,2.76-3.54,5.15,5.15,0,0,1,6.32-1.18C204.35,522.53,205.58,523.4,207,524.24Zm-12.69,17.2c3.78-1.52,5.19-4.4,6.32-7.2a8.52,8.52,0,0,0-.46-7.15c-2,.67-2.27,2.47-2.87,3.85C195.9,534.1,193.9,537.13,194.29,541.44Z"/><path d="M178.31,612.76c-1.64-1.24-1.84-2.9-2.12-4.51-.58-3.38-1.11-6.76-1.69-10.13a18.23,18.23,0,0,0-.58-2.4,3.77,3.77,0,0,0-3.62-3c-1.86,1-2.6,3-3.22,4.92a18,18,0,0,0,0,9.75c.31,1.32.87,2.62.22,4.35l-2.83,1.67c-.47-.29-1-.42-1.12-.72a16.58,16.58,0,0,1-1.56-3.73c-1-4.56-1.81-9.14-2.65-13.72a17.88,17.88,0,0,1-.25-3.27,2.41,2.41,0,0,1,1.67-2.54,2.28,2.28,0,0,1,2.53.92c.34.41.64.86,1.06,1.41a7.57,7.57,0,0,0,3-3.2,3.3,3.3,0,0,1,2.79-1.44,7.68,7.68,0,0,1,8.11,5,20.3,20.3,0,0,1,1.43,5.53,80,80,0,0,1,.4,8.2,7.85,7.85,0,0,0,.9,3.51c1,2,.66,2.49-1.49,3.23A5.17,5.17,0,0,1,178.31,612.76Z"/><path d="M500.37,524.1c1.63-.16,2.69-.29,3.76-.37a6.56,6.56,0,0,1,2,0c.46.11,1.13.55,1.18.93a2.24,2.24,0,0,1-.46,1.81,10.26,10.26,0,0,1-2.54,1.28,18.81,18.81,0,0,1-2.29.91,3.35,3.35,0,0,0-2.63,3.64c0,4.1,0,8.2,0,12.31v2.45a10.26,10.26,0,0,1-1.65.62c-1.88.3-2.91-.28-3.35-2.09a26.27,26.27,0,0,1-.56-4.06c-.13-1.5-.2-3-.23-4.51-.07-3.7-.05-3.7-1.57-6.7a11.3,11.3,0,0,1,.93-1.68,5.32,5.32,0,0,0,1.09-3c.42-5.18.89-10.36,1.35-15.54a21.93,21.93,0,0,1,.27-2.44,3.42,3.42,0,0,1,2-2.44,2.21,2.21,0,0,1,3.39,1.66,56.66,56.66,0,0,1,.11,7.37c-.13,2.46-.58,4.89-.85,7.34C500.31,522.24,500.37,522.91,500.37,524.1Z"/><path d="M458.55,449c1-.16,1.95-.32,2.88-.44a5.56,5.56,0,0,1,2-.14,2.38,2.38,0,0,1,1.49,1.15,2.07,2.07,0,0,1-.32,1.84,11.13,11.13,0,0,1-4.79,3.06c-.76.24-1.5.56-2.15.81a10.28,10.28,0,0,0-.67,5c0,3.14.1,6.29.25,9.44a3.7,3.7,0,0,1-2.33,3.93,2.1,2.1,0,0,1-1.84-.32,5.25,5.25,0,0,1-1.65-4.06c-.1-3.14-.25-6.29-.27-9.44,0-1.91.25-3.79-.51-5.67a3.26,3.26,0,0,1,.17-2.35c.92-2,.8-4,.85-6,.09-3.55.27-7.11.51-10.65.13-1.89.74-2.66,1.85-2.82s2.47.7,2.74,2.48c.46,3.11.67,6.26,1,9.39.11,1.22.11,2.45.21,3.68C458,448.05,458.18,448.28,458.55,449Z"/><path d="M155.05,658.69c-2.4,1.33-4.5,2.55-6.67,3.66a1.7,1.7,0,0,1-1.49-.12,1.64,1.64,0,0,1-.5-1.42,13.29,13.29,0,0,1,1.42-2.91,7.48,7.48,0,0,1,1.67-1.79,79.27,79.27,0,0,0,8.65-8.14c.25-.27.72-.33,1-.46.24,0,.41,0,.5.08.83.68,1.65,1.38,2.32,1.94a6.53,6.53,0,0,1,.14,1.06c-.14,2.31-.32,4.63-.45,6.94-.32,5.74-.67,11.47-.91,17.21a49,49,0,0,0,.15,7,4.79,4.79,0,0,1-2.22,5,4.11,4.11,0,0,1-3.57-4.26c-.1-2-.23-4.1-.16-6.15.16-4.5.45-9,.68-13.52A6.88,6.88,0,0,0,155.05,658.69Z"/><path d="M471.44,594.06c.73-.55,1.39-1,2-1.55a4.31,4.31,0,0,1,5.34-.25,10.35,10.35,0,0,1,5.1,6.6,39.9,39.9,0,0,1,.39,14.69,2.48,2.48,0,0,1-.28,1.18c-.39.5-.91,1.19-1.42,1.23a1.92,1.92,0,0,1-1.5-1.05,38.2,38.2,0,0,1-.8-4.42c-.48-3-.94-5.93-1.42-8.9a4.82,4.82,0,0,0-.29-1.19,3,3,0,0,0-2.3-2.09c-.86-.1-1.9.71-2.18,2.13-.69,3.48-1.21,7-1.76,10.51-.13.81,0,1.65-.19,2.45a2.2,2.2,0,0,1-2.22,2,3,3,0,0,1-3-1.77,5.44,5.44,0,0,1-.22-1.61c0-1.65-.05-3.3.1-4.93a28.89,28.89,0,0,0-.18-7.77,12.78,12.78,0,0,1-.15-3.27c.17-2,1.21-2.75,3.35-2.37C470.4,593.79,470.91,593.94,471.44,594.06Z"/><path d="M584.41,467.84c-.33,1.33-.3,1.94-.59,2.28a12,12,0,0,1-8.57,4.24,8.14,8.14,0,0,1-6.49-3,11.57,11.57,0,0,1-2.57-4.62c-.6-2-.86-4-2-5.77a1.53,1.53,0,0,1,.91-2.33c2.3-.5,3.22-2.31,4.48-3.93a41.23,41.23,0,0,1,4.73-5.07,6,6,0,0,1,2.93-1.29c3.51-.56,5.85.77,7.64,4.13a2.06,2.06,0,0,1-.24,2.31,16.84,16.84,0,0,1-6.37,5.66,34.92,34.92,0,0,1-5.37,2,2.22,2.22,0,0,0-1.64,3.15,6.21,6.21,0,0,0,4.57,4.3,8.27,8.27,0,0,0,5.22-.47C581.89,469.06,582.73,468.63,584.41,467.84Zm-4.77-15.24c-1-.06-1.63-.3-1.9-.08a11.4,11.4,0,0,0-1.76,2c-.07.09.12.58.28.65,1.09.45,1.7-.37,2.34-1A12.17,12.17,0,0,0,579.64,452.6Z"/><path d="M151.89,542.05a16.4,16.4,0,0,0-4.2-3.52,24.33,24.33,0,0,1-7.2-7.16,9.73,9.73,0,0,1,1.28-13c3.2-2.78,6.6-4.82,10.87-5.2a7.5,7.5,0,0,1,5.44,1.36,1.73,1.73,0,0,1,.53,2.19c-.35.58-.79,1.11-1.19,1.66a1.76,1.76,0,0,1-2.53.58c-3.12-2.35-6-1-8.8.48a4.94,4.94,0,0,0-2.7,5.11,8.1,8.1,0,0,0,2.12,5.22,49.35,49.35,0,0,0,5.15,4.65c2.8,2.18,5.73,4.19,8.59,6.3a4,4,0,0,1,2,3.14A4.7,4.7,0,0,1,156,546.6c-1.07-.15-2.18,0-3.27-.06a15.83,15.83,0,0,1-2.84-.32c-2.26-.54-3.25-1.33-2.92-2.23.56-1.56,2-1,3.15-1.31C150.65,542.55,151.13,542.33,151.89,542.05Z"/><path d="M321.83,461.41c-.06,8.23-6.7,13.38-14.1,12.75a5,5,0,0,1-4.76-4.34,11.59,11.59,0,0,1-.06-3.67A30,30,0,0,1,310.27,450a9.71,9.71,0,0,1,1.83-1.62,2.26,2.26,0,0,1,3.44.92,20.2,20.2,0,0,0,4.6,6.18C321.92,456.93,321.75,459.39,321.83,461.41Zm-7.95-7.66a10.88,10.88,0,0,0-2.87,4c-1.41,2.94-2.79,5.92-2.85,9.28,0,1,0,2,1.12,2.4A2.7,2.7,0,0,0,312,469c2.29-1.64,4.14-3.64,4.44-6.54A11.91,11.91,0,0,0,313.88,453.75Z"/><path d="M144.23,455.21c-1.62,0-2.82,0-4,0-.72,0-1.45-.27-1.52-1.05a2.71,2.71,0,0,1,.45-1.87,6.92,6.92,0,0,1,2.25-1.73,10.24,10.24,0,0,0,4.09-3.29,3.55,3.55,0,0,1,4-1.47,16.57,16.57,0,0,0,3.24.16c.54,0,1.09-.07,1.63,0a1.51,1.51,0,0,1,1.22,2.38,11.68,11.68,0,0,1-2.67,3.07,5.38,5.38,0,0,0-2.5,4.45c-.49,7.92-1.06,15.85.18,23.76a4.56,4.56,0,0,1,.17,2,2.37,2.37,0,0,1-1.35,1.37,2,2,0,0,1-1.78-.45,7,7,0,0,1-1.36-2.49,34.65,34.65,0,0,1-1.91-10.86c0-3.42.14-6.84.17-10.26C144.49,457.81,144.34,456.74,144.23,455.21Z"/><path d="M450.9,546c-2.5,2-4.87,1.54-7.13,1.18-3.66-.58-5.35-3.82-4-7.31.24-.63.48-1.25.76-1.95-.78-.89-1.54-1.66-2.19-2.52a28.15,28.15,0,0,1-2.29-3.37,5.91,5.91,0,0,1,.7-7.23c1.69-2,3.19-4.08,5.74-5.12a7.18,7.18,0,0,1,3.59-.54c2.47.27,3.66.92,3.8,2.4a6.65,6.65,0,0,1-.36,3.17c-.32.77-1.26,1.27-2.09,2l-2.33-2.19c-.3,0-.47,0-.56.06-4.52,3.06-4.75,4.87-1.07,8.71,1.7,1.77,3.58,3.39,5.16,5.25C450.45,540.75,451.58,543.19,450.9,546Z"/><path d="M482.09,471.14c3,.35,5.16.34,7.13-.93,1.16-.74,1.22-1.94-.05-2.52a19.51,19.51,0,0,1-5-3.48,4.74,4.74,0,0,1-1.28-5.61,23.48,23.48,0,0,1,6.63-9.7,9.28,9.28,0,0,1,5.26-2,1.86,1.86,0,0,1,2,2.67,3.64,3.64,0,0,1-2.46,2.49c-3.1.81-4.42,3.44-5.69,6a2.35,2.35,0,0,0,.67,3,22.76,22.76,0,0,0,2.38,1.57,49.22,49.22,0,0,1,4.42,2.95c1.76,1.44,1.81,2.91.27,4.53-2.76,2.91-5.75,5.38-9.89,6.21-3.23.64-5.56-.64-7.65-2.81a1.36,1.36,0,0,1,.83-2.21A19.35,19.35,0,0,1,482.09,471.14Z"/><path d="M330.85,608.68c-.13-1.47-1.3-2-2.22-2.82-1.67-1.4-3.34-2.8-5-4.26-3-2.69-3.3-7.17.35-10.47a24,24,0,0,1,6.63-3.94,5.75,5.75,0,0,1,5.49.69,3.5,3.5,0,0,1,1.67,3.49A2.68,2.68,0,0,1,335,594l-2.24-2a7.76,7.76,0,0,0-4.67,1.74,2.5,2.5,0,0,0-.66,3.63,24.3,24.3,0,0,0,3.42,3.46c1.32,1.18,2.8,2.18,4.11,3.37a8.55,8.55,0,0,1,1.76,2.24,3.62,3.62,0,0,1-.56,4.52A11.09,11.09,0,0,1,322,613c-.27-.18-.33-.68-.53-1.14,1.59-1.2,3.45-.81,5.14-1.13S329.89,610.27,330.85,608.68Z"/><path d="M528.85,467.8c.32-1.57-.52-2.57-1-3.66-.7-1.48-1.51-2.91-2.21-4.4-2.24-4.69-1.28-8.71,2.71-12.06a10.86,10.86,0,0,1,7.5-2.83,4.43,4.43,0,0,1,3,1.1,2.11,2.11,0,0,1,.84,2.17,2.64,2.64,0,0,1-2.38,1.93c-.4,0-.79-.22-1.19-.28a4.85,4.85,0,0,0-5.89,5.37,12.61,12.61,0,0,0,1.14,3.47c1.28,3,2.66,6,3.93,9a6.06,6.06,0,0,1,.42,2.39,3.37,3.37,0,0,1-2.65,3.23,9.66,9.66,0,0,1-9.46-3.65,2,2,0,0,1-.15-1.87,2.21,2.21,0,0,1,1.73-.6C526.33,467.2,527.26,468.51,528.85,467.8Z"/><path d="M345.38,526.32a6,6,0,0,0-6.18,0,6.88,6.88,0,0,0-2.79,2.89,7.93,7.93,0,0,0,1.5,9.75c.89.85,1.9,1.57,2.87,2.33a14,14,0,0,1,1.35.93c1,.93,2.43,1.77,1.78,3.36a4.63,4.63,0,0,1-3.87,3.28c-3.06.3-5.16-1.43-7.11-3.43a1.09,1.09,0,0,1-.28-.76c.29-2.36-1.16-4.14-1.94-6.16a11.1,11.1,0,0,1-.26-7.23c1.14-4.15,4-6.78,7.23-9.13,2.1-1.54,4.64-1.53,7.11-.88a2.18,2.18,0,0,1,1.78,2.76,3.62,3.62,0,0,1-.32,1.18A8.47,8.47,0,0,1,345.38,526.32Z"/><path d="M558.56,542.66c1.08,1.43,1.8,2.89,3.56,2.87a9.87,9.87,0,0,0,1.22-.08,1.12,1.12,0,0,0,.85-1.55c-.35-.58-.79-1.1-1.18-1.66-1.25-1.79-2.65-3.49-3.72-5.38-2.58-4.54-1.89-9.35,1.66-13.21a16.26,16.26,0,0,1,8.2-5.15,3.08,3.08,0,0,1,1.6-.12,2.86,2.86,0,0,1,1.45,1.22c.15.32-.19,1.09-.53,1.41a12.47,12.47,0,0,1-2.06,1.32,17.28,17.28,0,0,0-4.52,4.1c-2.18,2.72-2.18,5.53-.66,8.41a37.85,37.85,0,0,0,2.84,4,31.66,31.66,0,0,1,2.53,3.72,3.1,3.1,0,0,1-1.8,4.65,37.54,37.54,0,0,1-6,1.39,5,5,0,0,1-3.82-1.2C556.52,546.12,556.5,545.13,558.56,542.66Z"/><path d="M314.66,604.76c0,3.14,0,6.29,0,9.43a2.53,2.53,0,0,1-2,2.71,2.21,2.21,0,0,1-2.89-1.55,7.7,7.7,0,0,1-.44-2c-.26-5-1.11-10.07-.21-15.13a15,15,0,0,0,.08-2.85c0-.68-.2-1.36-.18-2a2.49,2.49,0,0,1,2.1-2.63,2.7,2.7,0,0,1,2.89,1.81,15.3,15.3,0,0,1,.44,3.64c.06,2.86,0,5.74,0,8.61Z"/><path d="M479.26,541.59c.08-1.42.14-2.77.23-4.13.14-2.17.22-4.35.47-6.51a30.25,30.25,0,0,1,.89-3.94,1.62,1.62,0,0,1,.63-1,4.49,4.49,0,0,1,2.26-.57A2,2,0,0,1,485,526.8a50.38,50.38,0,0,1,.36,6.5c0,2.18-.37,4.34-.45,6.52-.06,1.76,0,3.52.12,5.28,0,.82.22,1.62.24,2.44.05,1.53-.44,2.38-1.4,2.65a2.82,2.82,0,0,1-3.45-1.44,10.47,10.47,0,0,1-.78-2.74C479.43,544.53,479.37,543,479.26,541.59Z"/><path d="M320.29,525.14c.55-3.45,1.18-7.36,1.82-11.27a4.49,4.49,0,0,1,.24-.79c.47-1.26,1.48-2.09,2.37-1.86a2.62,2.62,0,0,1,2.13,2.22,10.48,10.48,0,0,1-.07,3.26c-.67,3.76-1.42,7.52-2.2,11.26a6.69,6.69,0,0,1-.92,2.26,2.53,2.53,0,0,1-1.5,1.15c-1,.1-1.35-.88-1.48-1.66C320.45,528.38,320.43,527,320.29,525.14Z"/><path d="M617.52,558.89c.08-.73-.06-1.4.22-1.71,1.8-2,2.4-4.55,3.23-7a32,32,0,0,1,1.08-3.08,5.78,5.78,0,0,1,1.45-1.93,2.38,2.38,0,0,1,4,1.54,9.38,9.38,0,0,1-.31,3.62c-.66,2.08-1.56,4.08-2.41,6.08a3.7,3.7,0,0,1-3.46,2.47C620.13,558.92,618.94,558.89,617.52,558.89Z"/><path d="M475.57,449.85c-1.46-.67-1.57-2.1-1.64-3.43a28.22,28.22,0,0,1,1.5-9.24,2.58,2.58,0,0,1,2.52-1.75,1.85,1.85,0,0,1,2,1.08,3.73,3.73,0,0,1,.18,3.15c-1,2.68-1.85,5.4-2.77,8.1C477.07,448.67,476.75,449.59,475.57,449.85Z"/><path d="M413.37,679.94c-.77.85-1.2,1.36-1.66,1.84s-.78.72-1.14,1.05c-1.8-.57-2.52-1.36-2.43-2.59a3,3,0,0,1,2.2-2.56,2,2,0,0,1,1.52.23A11.49,11.49,0,0,1,413.37,679.94Z"/><path d="M316.56,583.19a2.87,2.87,0,0,1-3.09,3.14,1.2,1.2,0,0,1-.81-.73,2.68,2.68,0,0,1,2.55-3.28C315.74,582.37,316.22,583,316.56,583.19Z"/><path d="M486.4,515.51c.36.3.93.54,1.11,1a2.63,2.63,0,0,1-.14,1.47c-.06.22-.32.42-.52.58a1.86,1.86,0,0,1-2.22.32,1.3,1.3,0,0,1-.48-1.75A2.43,2.43,0,0,1,486.4,515.51Z"/><path d="M544,522.8a8.84,8.84,0,0,1,.39,2.37c-.53,2.82-1,5.64-1.8,8.4s-3,4.18-5,5.83a13.14,13.14,0,0,1-3.15,1.86,1.46,1.46,0,0,1-2.11-1.6,11.24,11.24,0,0,1,.64-3.17,29.74,29.74,0,0,1,8.63-12.24A26.09,26.09,0,0,1,544,522.8Z" style="fill:#fff"/><path d="M589.85,528.21a6.12,6.12,0,0,1-.89,1.17,18.9,18.9,0,0,1-2,1.32c.35-.91.38-1.31.6-1.54.53-.55,1.13-1,1.7-1.52Z" style="fill:#fff"/><path d="M218.69,679.79c-1.05-4.8.13-9.63,3-12.67,1.54-1.65,3.19-1.54,4.28.42a4.23,4.23,0,0,1,.65,2.68c-.94,3.75-2.49,7.21-6.05,9.25A5.64,5.64,0,0,1,218.69,679.79Z" style="fill:#fff"/><path d="M492.4,611.85a3.41,3.41,0,0,1-.2-3.25,29.48,29.48,0,0,1,7.89-12.2,7.46,7.46,0,0,1,1.71-1.1,1.76,1.76,0,0,1,2.4,1.44,2.73,2.73,0,0,1-.06,1.21c-2.1,5.73-5,10.87-10.65,13.88C493.28,611.94,493,611.85,492.4,611.85Z" style="fill:#fff"/><path d="M199,594.23a4.48,4.48,0,0,1,.16,4.76,22.73,22.73,0,0,1-6,8.19,8.76,8.76,0,0,1-2.3.89c-.67-2.35.59-4,1.39-5.58C193.79,599.32,195.66,596.34,199,594.23Z" style="fill:#fff"/><path d="M383.26,598.42c0,3.28-.9,6.09-3.6,8.26-2.23,1.79-4.19,3.92-7,4.81a14,14,0,0,1-1.56.46,1.09,1.09,0,0,1-1.27-1.49A40.61,40.61,0,0,1,379,596.17c.77-.75,1.62-1.67,2.83-1.25,1.45.49,1.33,1.87,1.4,3.09C383.27,598.15,383.26,598.28,383.26,598.42Z" style="fill:#fff"/><path d="M245.38,538.3c.54-2.39,1-5.51,2-8.49a17,17,0,0,1,2.86-4.93c1.17-1.51,3-1.23,4.14.38a7.61,7.61,0,0,1,1.31,3.83,15.11,15.11,0,0,1-3.76,11.38,21.18,21.18,0,0,1-2.3,2.34,4.76,4.76,0,0,1-1.82.85,1.68,1.68,0,0,1-2.16-1.34C245.5,541.24,245.49,540.14,245.38,538.3Z" style="fill:#fff"/><path d="M285.85,470.18c-.32-.36-.73-.62-.8-.95a2.52,2.52,0,0,1,.08-1.57,26.19,26.19,0,0,1,5-7c1.2-1.08,2.29-1.22,3.35-.53a3.21,3.21,0,0,1,.94,4,4.81,4.81,0,0,1-1.27,1.59c-1.86,1.39-3.76,2.72-5.69,4A5.22,5.22,0,0,1,285.85,470.18Z" style="fill:#fff"/><path d="M428.37,467.73a15.87,15.87,0,0,1,.77-3.31c1.47-3.05,3.07-6.05,4.68-9a5.67,5.67,0,0,1,1.41-1.44,1.17,1.17,0,0,1,1.73.45,9,9,0,0,1,.49,3.54,13.31,13.31,0,0,1-7.65,9.91C429.6,468,429.28,467.81,428.37,467.73Z" style="fill:#fff"/><path d="M415.65,531.07c-.11,1.47-.15,2.84-.31,4.19-.42,3.6-2.43,6.3-5.07,8.6a1.77,1.77,0,0,1-2.76-.64,9.55,9.55,0,0,1-1.41-6.67c.8-4.43,1.73-8.84,3.87-12.87a6.15,6.15,0,0,1,.65-1,2.13,2.13,0,0,1,3.48.21,14.89,14.89,0,0,1,1.28,3.83A34.78,34.78,0,0,1,415.65,531.07Z" style="fill:#fff"/><path d="M455.48,596.62c3.24,3.3,3.4,4.12,1.79,7.47a23.71,23.71,0,0,1-5.33,7.15,13.42,13.42,0,0,1-1.91,1.52,2.1,2.1,0,0,1-2.27.38c-.9-.48-.88-1.36-.76-2.15C447.86,605.14,450.12,600.1,455.48,596.62Z" style="fill:#fff"/><path d="M143.84,610.32c-1.57-4.67-.76-9,.49-13.2.65-2.2,1.35-4.42,3.59-5.93a13.57,13.57,0,0,1,2.68,10.13,22.21,22.21,0,0,1-.68,3.22C149.15,607.5,147.6,609,143.84,610.32Z" style="fill:#fff"/><path d="M309.67,667.55c1.82,1.51,1.54,3.54,1.37,5.51-.09,1.09-.3,1.24-2,2.37C308.68,672.75,309.24,670.21,309.67,667.55Z" style="fill:#fff"/><path d="M248.5,457.75a2.77,2.77,0,0,1-2.45,2.41C245.31,459.46,245.52,459.22,248.5,457.75Z" style="fill:#fff"/><path d="M303.66,530.82c1.34,2,.64,3.92.11,5.61-1.11,3.53-2.93,6.69-6.2,8.64a1.08,1.08,0,0,1-1.08-1.45,18.15,18.15,0,0,1,1.25-4.68,81.92,81.92,0,0,1,4.5-7.22C302.49,531.34,303.08,531.18,303.66,530.82Z" style="fill:#fff"/><path d="M336.92,454.89a7.93,7.93,0,0,1,.81,5.5,12.54,12.54,0,0,1-2.62,6.74,22.3,22.3,0,0,1-3.62,3.24,2.13,2.13,0,0,1-3.37-1.48,8.61,8.61,0,0,1-.08-2,22.63,22.63,0,0,1,3.34-10.37,2.25,2.25,0,0,1,2.33-1.23A16.31,16.31,0,0,0,336.92,454.89Z" style="fill:#fff"/><path d="M555.83,453c.66,2.22-.18,3.13-3.74,4.21-.6-.45-.37-1,0-1.36C553.22,454.77,554.16,453.4,555.83,453Z" style="fill:#fff"/><path d="M327.29,677.36a14.24,14.24,0,0,1-.37-2.2,18.68,18.68,0,0,1,2.77-8.83,10,10,0,0,1,2.17-2.38,1.47,1.47,0,0,1,2.47.94,8.88,8.88,0,0,1-.07,4,20.46,20.46,0,0,1-4.47,7.2A10,10,0,0,1,327.29,677.36Z" style="fill:#fff"/><path d="M167.45,455.49a17.48,17.48,0,0,1,1.49,11.73,10.81,10.81,0,0,1-3.07,6.09,1.72,1.72,0,0,1-1.44.42,1.68,1.68,0,0,1-.87-1.21C163,466.7,163.6,461.15,167.45,455.49Z" style="fill:#fff"/><path d="M194.29,541.44c-.39-4.31,1.61-7.34,3-10.5.6-1.38.88-3.18,2.87-3.85a8.52,8.52,0,0,1,.46,7.15C199.48,537,198.07,539.92,194.29,541.44Z" style="fill:#fff"/><path d="M579.64,452.6a12.17,12.17,0,0,1-1,1.59c-.64.63-1.25,1.45-2.34,1-.16-.07-.35-.56-.28-.65a11.4,11.4,0,0,1,1.76-2C578,452.3,578.65,452.54,579.64,452.6Z" style="fill:#fff"/><path d="M313.88,453.75a11.91,11.91,0,0,1,2.53,8.75c-.3,2.9-2.15,4.9-4.44,6.54a2.7,2.7,0,0,1-2.69.36c-1.11-.44-1.14-1.44-1.12-2.4.06-3.36,1.44-6.34,2.85-9.28A10.88,10.88,0,0,1,313.88,453.75Z" style="fill:#fff"/><path d="M396.06,591.76c.56-3.46,1.18-7.37,1.82-11.28a5.53,5.53,0,0,1,.24-.79c.47-1.25,1.48-2.09,2.37-1.86a2.64,2.64,0,0,1,2.14,2.22,11.13,11.13,0,0,1-.07,3.26c-.68,3.76-1.43,7.52-2.21,11.26a6.83,6.83,0,0,1-.92,2.27,2.54,2.54,0,0,1-1.5,1.15c-1,.09-1.35-.89-1.48-1.66C396.23,595,396.21,593.62,396.06,591.76Z"/><path d="M406.58,612.55c1.08,1.43,1.8,2.89,3.56,2.87a8.24,8.24,0,0,0,1.22-.08,1.11,1.11,0,0,0,.85-1.54c-.35-.58-.79-1.11-1.18-1.67-1.26-1.79-2.65-3.49-3.72-5.38-2.58-4.53-1.89-9.35,1.66-13.2a16.12,16.12,0,0,1,8.2-5.15,2.88,2.88,0,0,1,1.6-.12,2.83,2.83,0,0,1,1.44,1.21c.16.32-.18,1.09-.52,1.41a12.47,12.47,0,0,1-2.06,1.32,17.46,17.46,0,0,0-4.52,4.1c-2.18,2.72-2.18,5.53-.66,8.42a38.91,38.91,0,0,0,2.84,4,30.74,30.74,0,0,1,2.53,3.71,3.1,3.1,0,0,1-1.8,4.65,36.47,36.47,0,0,1-5.95,1.39,5,5,0,0,1-3.82-1.2C404.54,616,404.52,615,406.58,612.55Z"/></g></svg>
