<svg xmlns="http://www.w3.org/2000/svg" viewBox="0 0 1366 768"><g id="Layer_16" data-name="Layer 16"><path d="M795.22,267.24a23.74,23.74,0,0,1-1,11.76c-1.47,4.4-3.42,8.63-4.46,13.19-1.12,4.92-1.8,9.9-2.49,14.89-.63,4.56-1.16,9.13-1.88,13.69-1,6.35-2.44,12.6-4,18.83-1.36,5.4-2.91,10.75-4.55,16.08-2.84,9.2-5.64,18.41-8.54,27.59a158,158,0,0,1-5.38,15.37A67.86,67.86,0,0,1,758,408" style="fill:none;stroke:#000;stroke-linecap:round;stroke-linejoin:round;stroke-width:2px"/><path d="M623.44,314.4c-.12,2-.12,3.94-.38,5.88a18.47,18.47,0,0,1-8.49,13.45c-2.91,1.94-6.09,3.46-8.77,5.75-4.13,3.52-6.3,8.1-7.32,13.32a48,48,0,0,0-.83,11.16,146.25,146.25,0,0,0,1.43,14.76q1.73,12,3,24.12c.52,5,.92,10,1.47,15,.35,3.23,1,6.41,1.63,9.61a61.14,61.14,0,0,1,1.34,9.71c.08,2.81-.46,2.47-2.51,3.24" style="fill:none;stroke:#000;stroke-linecap:round;stroke-linejoin:round;stroke-width:2px"/><path d="M788.5,279c-.22-4,.15-8-.27-12-.14-1.43-.14-2.88-.26-4.32-.85-10.12-3.38-19.65-10.11-27.58a43.05,43.05,0,0,0-14.63-11.16,19.64,19.64,0,0,0-6.59-1.8A16.43,16.43,0,0,0,742,228.22a34.56,34.56,0,0,0-7.52,14.55,47.52,47.52,0,0,0-1.12,8.75c-.13,2.44-.06,4.88-.11,7.32,0,.24.08.47-.1.73-1.07,1.52-.43,3.11-.12,4.67,1.19,6.12,3.3,12,5.27,17.88a97.5,97.5,0,0,1,4,14.89A52.94,52.94,0,0,1,743,310c-.15,2-.09,3.92-.14,5.88-.17,6.46-.66,12.9-1.34,19.32s-1.6,12.85-2.87,19.2a160,160,0,0,1-6.23,23c-.71,2-1.41,3.93-2.18,5.87a4.06,4.06,0,0,0-.22,1.45" style="fill:none;stroke:#000;stroke-linecap:round;stroke-linejoin:round;stroke-width:2px"/><path d="M833,417.72c-.28,0-.61-.2-.83-.1-5,2.11-10.38,2.82-15.61,4.06-3.25.77-6.55,1.31-9.85,1.75-1.9.25-3.82.45-5.75.58-2.4.17-4.8.32-7.2.3a56.62,56.62,0,0,1-10.56-.82,2.37,2.37,0,0,0-2.53.7,7.67,7.67,0,0,1-1.24,1c-3.35-1.36-7-1.34-10.51-1.84a41.38,41.38,0,0,1-6.85-1.55c-4.18-1.36-8.31-2.95-12.6-4s-8.68-2.08-13.08-2.73c-6.12-.91-12.28-1.05-18.36.64-2.08.58-4,1.73-6.11,2.07-.66,1-2.43,1-2.4,2.64" style="fill:none;stroke:#000;stroke-linecap:round;stroke-linejoin:round;stroke-width:2px"/><path d="M671.92,477.54l-3.12-.3c-.36,0-.72-.11-1.08-.12-3.48,0-7-.16-10.44-.1s-6.72.26-10.08.47c-2.56.17-5.13.38-7.68.73-3.87.53-7.77.85-11.64,1.38-4.58.64-9.2,1-13.8,1.47-3.88.39-7.76.74-11.64,1.08a36.78,36.78,0,0,1-4.32.23c-4.17-.12-8.32.4-12.48.24q-9.66-.37-19.32-.17c-2.48,0-5,.15-7.44.2a5.45,5.45,0,0,0-2.88,1.19" style="fill:none;stroke:#000;stroke-linecap:round;stroke-linejoin:round;stroke-width:2px"/><path d="M636.94,318.12c-.08,2.1.6,4.08.91,6.12.74,5,1.22,10-.35,15-1.33,4.2-4.16,7-7.82,9.24-2.64,1.59-5.42,2.95-7.92,4.78a10.18,10.18,0,0,0-4.53,9.73,24,24,0,0,0,1.27,5.29,68.25,68.25,0,0,1,2.81,12.59c.62,4.3,1.39,8.59,2.36,12.84,1.32,5.79,2.54,11.61,3.86,17.4a91.51,91.51,0,0,0,2.88,9.84,7.73,7.73,0,0,0,.47,1" style="fill:none;stroke:#000;stroke-linecap:round;stroke-linejoin:round;stroke-width:2px"/><path d="M686.14,364.68a2.72,2.72,0,0,1-.19,1.8c-2.62,7.64-5.17,15.31-7.57,23-1.89,6.07-3.62,12.17-5,18.37-.89,3.93-1.63,7.88-2.2,11.88-.77,5.46-1.09,10.93-1.38,16.44-.19,3.7.06,7.37.17,11a111.75,111.75,0,0,0,1.18,12.61c.24,1.64.76,3.3.46,5-.1.59.42,1.13,1.16,1.19l1.68.12" style="fill:none;stroke:#000;stroke-linecap:round;stroke-linejoin:round;stroke-width:2px"/><path d="M773.92,214.2c-2.41,0-4.64-.94-7-1.43-4-.85-8-1.56-12.12-.61a9.14,9.14,0,0,0-1.79.5,3.67,3.67,0,0,1-3.26.25,1.66,1.66,0,0,0-1.19.08,37.11,37.11,0,0,0-12.12,6.73c-7.6,6.32-11.86,14.61-14.44,24a102.14,102.14,0,0,0-2.67,13.82c-.29,2.17-.42,4.39-.58,6.59-.28,3.92-.33,7.84-.46,11.76-.25,7.68.29,15.36,0,23-.1,2.47.31,4.88.42,7.32s.32,4.89.59,7.32c.5,4.39.94,8.78,1.21,13.2.39,6.56.3,13.12.17,19.68-.11,6,.14,12.08.07,18.12,0,4.92-.09,9.85-.41,14.76a79.25,79.25,0,0,1-1.53,10.92c-.31,1.5-.72,3,.24,4.44" style="fill:none;stroke:#000;stroke-linecap:round;stroke-linejoin:round;stroke-width:2px"/><path d="M561.28,322.5a42.77,42.77,0,0,0-11.64,1.63,31.05,31.05,0,0,0-11.53,6.33c-5.19,4.48-9,10-12.83,15.62a85.7,85.7,0,0,0-6.59,10.81,19.38,19.38,0,0,0-2.3,8,7.88,7.88,0,0,0,3.49,6.84c3.07,2.31,6.67,3.47,10.2,4.8s6.95,2.55,10,4.8a8.51,8.51,0,0,1,1,.84,2.11,2.11,0,0,0,1.93.72" style="fill:none;stroke:#000;stroke-linecap:round;stroke-linejoin:round;stroke-width:2px"/><path d="M645.16,317.16c0-.24,0-.55-.13-.71-5-5.89-7.84-12.89-10.68-19.93-1.81-4.48-3.58-9-5.76-13.31a45,45,0,0,0-14.74-16.94,32.89,32.89,0,0,0-7.68-4.44c-1.38-.49-2.7-.94-4.09-.11a.63.63,0,0,1-.36.11c-3.57-.48-6.64,1.24-9.83,2.32a32.1,32.1,0,0,0-9.74,5.23,23.39,23.39,0,0,0-7.55,10.82,65.58,65.58,0,0,0-2.89,12.6c-1.52,10.16-1,20.39-1,30.6,0,1.2-.14,2.4,0,3.6" style="fill:none;stroke:#000;stroke-linecap:round;stroke-linejoin:round;stroke-width:2px"/><path d="M774.52,298.92c.87,1.34.61,2.87.69,4.32a32.24,32.24,0,0,1-1.05,8.4l-1.08,5.16a2.24,2.24,0,0,1-.25.83c-1.34,1.79-.9,4.08-1.75,6s-1.36,4-2.09,6-1.56,4.09-2.39,6.12a154.36,154.36,0,0,0-6.37,19.92c-1.34,5.17-2.59,10.35-3.59,15.6-.52,2.75-.91,5.51-1.35,8.28-.76,4.77-1.27,9.59-2.48,14.28,0,.07.07.16.11.24" style="fill:none;stroke:#000;stroke-linecap:round;stroke-linejoin:round;stroke-width:2px"/><path d="M514.54,372.36c.31,1.86-.5,3.54-.92,5.28a277,277,0,0,1-9.6,30.83c-1.6,4.38-3.77,8.51-5.73,12.74a49.68,49.68,0,0,0-4.08,11.15,7.35,7.35,0,0,0,0,4.21,3.14,3.14,0,0,0,3.51,2.26,25.28,25.28,0,0,1,4.32-.89" style="fill:none;stroke:#000;stroke-linecap:round;stroke-linejoin:round;stroke-width:2px"/><path d="M655.78,407.28a9.39,9.39,0,0,1-.47,4,90.85,90.85,0,0,1-3.65,13.22c-2.15,5.76-4.89,11.15-9.25,15.6a25.48,25.48,0,0,1-12.12,6.75,47.94,47.94,0,0,1-13,1.86,11.71,11.71,0,0,1-4.2-.82,4.3,4.3,0,0,1-2.94-4.08" style="fill:none;stroke:#000;stroke-linecap:round;stroke-linejoin:round;stroke-width:2px"/><path d="M636.64,346.2c1.63-.44,2.72.74,3.81,1.48,6.28,4.26,12,9.13,15.85,15.81a35,35,0,0,1,4.49,14.39,56.14,56.14,0,0,1,.17,8.4c-.27,4.72-.64,9.46-2.49,13.92a3.88,3.88,0,0,1-.6,1.07,4,4,0,0,0-.83,3.25" style="fill:none;stroke:#000;stroke-linecap:round;stroke-linejoin:round;stroke-width:2px"/><path d="M602.44,276.84c-2.24.09-4.12,1.26-6.12,2.05a45.15,45.15,0,0,0-8.16,3.95c-4.23,2.78-6.52,6.86-7.66,11.64-1.43,6-1.29,12-1.12,18.12.06,2.4,0,4.8,0,7.2-.05,1.14.47,2.28.46,3.48,0,1.43.19,2.85-.75,4.08s-.81,2.66-1.3,4c-.16.41.35.83.22,1.31" style="fill:none;stroke:#000;stroke-linecap:round;stroke-linejoin:round;stroke-width:2px"/><path d="M776.56,216.42a1.71,1.71,0,0,1,1.44.66c2.8,4.3,6.29,8.08,9.13,12.35a36.46,36.46,0,0,1,5.27,13c.25,1.21.56,2.4.84,3.6a10.78,10.78,0,0,0,1.8,3.6,36.46,36.46,0,0,1,5.26,10.8,35.84,35.84,0,0,1,1.11,7.92c.09,2.08.39,4.15.35,6.24" style="fill:none;stroke:#000;stroke-linecap:round;stroke-linejoin:round;stroke-width:2px"/><path d="M794.8,292.44A56.13,56.13,0,0,1,806,294.18q3.18.74,6.36,1.51a7.59,7.59,0,0,0,3.48.1,1.18,1.18,0,0,1,1,.26,205.75,205.75,0,0,1,19.06,13.45c6.21,5.13,12.08,10.65,16.44,17.51,2.56,4,4.9,8.23,7.34,12.35a47.91,47.91,0,0,0,4,5.86,2.6,2.6,0,0,1,.52,1.58" style="fill:none;stroke:#000;stroke-linecap:round;stroke-linejoin:round;stroke-width:2px"/><path d="M853.72,463.2a3.69,3.69,0,0,1-2.41-1.8c-1.95-3.74-5.09-6.33-8.51-8.64-1.6-1.08-3.19-2.17-4.8-3.23a3.45,3.45,0,0,0-1.2-.59c-3.78-.77-6.89-3-10.19-4.72-7.15-3.81-14.22-7.8-22-10.27A41.67,41.67,0,0,0,794,432a27.61,27.61,0,0,0-11.75,1.87A3.48,3.48,0,0,1,781,434" style="fill:none;stroke:#000;stroke-linecap:round;stroke-linejoin:round;stroke-width:2px"/><path d="M717.88,301.44c-2.49-.18-4.49,1-6.35,2.42a30,30,0,0,0-7.72,8.24c-.77,1.25-2.26,1.84-3.23,3-3.84,4.57-7.88,9-11.39,13.81a48,48,0,0,0-7.27,13.82c-.63,2-1.32,4.14-.88,6.35" style="fill:none;stroke:#000;stroke-linecap:round;stroke-linejoin:round;stroke-width:2px"/><path d="M848.2,378.6c1.25.31,1.41,1.51,1.91,2.41,2.57,4.64,4.2,9.67,6,14.63.3.81.6,1.62,1,2.4a4,4,0,0,1,0,3.59,2.41,2.41,0,0,0-.12,1.69,79.61,79.61,0,0,1,1.5,10.2,98,98,0,0,1,.3,9.84c0,3.24-.12,6.49-.37,9.72s-.38,6.4-.61,9.6a69.84,69.84,0,0,1-1,9.47c-.27,1.28-1,2.42-.73,3.86s-.4,2.64-.69,3.95a5.28,5.28,0,0,1-1.18,2.65,1.4,1.4,0,0,0-.38,1.07c.06,3.41-1.9,5.61-4.56,7.31a12.07,12.07,0,0,1-6.11,1.54c-2.85.12-5.7.26-8.52.66a14.71,14.71,0,0,0-3.35,1,3,3,0,0,1-2,.21" style="fill:none;stroke:#000;stroke-linecap:round;stroke-linejoin:round;stroke-width:2px"/><path d="M671.44,465.12c-1.52.51-3.06.07-4.56-.05a57.82,57.82,0,0,0-9.12.43,9.82,9.82,0,0,1-3.11,0,1,1,0,0,0-.86.12c-1.62,1-3.48.93-5.27,1.22-4,.67-8.08.67-12.12,1.08-.2,0-.4,0-.6,0-6,0-12,.06-18,.13-2.56,0-5.12.15-7.68.23-.73,0-1.45-.16-2.16-.19-1,0-2,.39-3,.4-1.52,0-3.08.3-4.56-.34a1,1,0,0,0-.72,0,13.58,13.58,0,0,1-7,.15.89.89,0,0,0-.61,0,14.47,14.47,0,0,1-6.35.17c-.68-.12-1.33.26-2,.23-3.08-.11-6.16-.24-9.24-.23-4.44,0-8.88.18-13.32.2-2.52,0-5-.09-7.56-.24-1.53-.1-2.94.53-4.44.56" style="fill:none;stroke:#000;stroke-linecap:round;stroke-linejoin:round;stroke-width:2px"/><path d="M711.64,417.84c-1.23-1.39-1.08-2.92-.94-4.69A59.29,59.29,0,0,0,711,406c-.06-1.71-.06-3.44-.09-5.16-.06-3.78-.48-7.53-.89-11.29-.32-2.88-.76-5.75-1.14-8.63-.3-2.29-.69-4.56-1.1-6.83,0-.21,0-.58-.43-.77a8.24,8.24,0,0,1-1.7-1.28" style="fill:none;stroke:#000;stroke-linecap:round;stroke-linejoin:round;stroke-width:2px"/><path d="M515.32,417.72a21.67,21.67,0,0,1,11.28-3.28c2.41-.07,4.79.52,7.2.19.72-.09,1.4.47,2.16.59a114,114,0,0,0,12.24,1.21c3.88.22,7.75.5,11.64.46a61.5,61.5,0,0,0,7.56-.64,36.09,36.09,0,0,1,11,.07c3.49.6,7,1.17,10,3.43a43.06,43.06,0,0,1,10.06,11.42c1.43,2.27,2.59,4.7,3.92,7a23.89,23.89,0,0,1,2,4.82A56.37,56.37,0,0,1,607,454.2a77.91,77.91,0,0,1,.53,10.8c0,.92.07,1.84.11,2.76" style="fill:none;stroke:#000;stroke-linecap:round;stroke-linejoin:round;stroke-width:2px"/><path d="M855.76,454.2c-2.41,0-3.3-1.84-4.31-3.49-1.61-2.65-2.57-5.63-4-8.39a118.94,118.94,0,0,1-9.23-23.88c-.34-1.28-.74-2.55-1.13-3.91l-1-.11" style="fill:none;stroke:#000;stroke-linecap:round;stroke-linejoin:round;stroke-width:2px"/><path d="M703.66,382c.45,1.46,0,2.91-.23,4.31-.4,2.52-.67,5.05-1,7.57-.57,4.15-1,8.32-1.52,12.48A116.27,116.27,0,0,1,698,421.68a11,11,0,0,0-.11,1.8" style="fill:none;stroke:#000;stroke-linecap:round;stroke-linejoin:round;stroke-width:2px"/><path d="M827.44,377.16c0,3.12-.08,6.25.16,9.36.3,4,.35,7.93.75,11.89a71.69,71.69,0,0,0,3.56,16.78c.27.78,0,1.56.33,2.29" style="fill:none;stroke:#000;stroke-linecap:round;stroke-linejoin:round;stroke-width:2px"/><path d="M601.84,262c.16,2.84.22,5.69.52,8.52.16,1.6.22,3.2.42,4.8.13,1-.3,2.14.61,3,.13.11.13.41.26.46,2.09.84,3.05,2.88,4.52,4.36,1.75,1.77,3.55,3.49,5.31,5.25a69.27,69.27,0,0,1,10.89,14.42,39.93,39.93,0,0,1,2.29,5.51,3.18,3.18,0,0,1,0,1.07" style="fill:none;stroke:#000;stroke-linecap:round;stroke-linejoin:round;stroke-width:2px"/><path d="M680.44,349.08a21.51,21.51,0,0,1,8.53,4.55,52.78,52.78,0,0,1,7.17,8.42c2.57,3.47,5.15,6.9,8.79,9.34.62.42.44,1,.47,1.57" style="fill:none;stroke:#000;stroke-linecap:round;stroke-linejoin:round;stroke-width:2px"/><path d="M771.64,319.44c-1.55-.83-3.25-.75-4.92-.84a46.15,46.15,0,0,1-9-1c-2.52-.64-5-1.41-6.85-3.36a7.65,7.65,0,0,1-1.49-2.53" style="fill:none;stroke:#000;stroke-linecap:round;stroke-linejoin:round;stroke-width:2px"/><path d="M538,390.72a21.5,21.5,0,0,1-.72,4.92c-.89,5.25-2.29,10.4-2.78,15.72a30.54,30.54,0,0,1-.58,3.12" style="fill:none;stroke:#000;stroke-linecap:round;stroke-linejoin:round;stroke-width:2px"/><path d="M784,282.84c.36,1.35-.63,2.16-1.34,3a44.31,44.31,0,0,1-9.94,9.14,19.52,19.52,0,0,1-11.52,3.16,21,21,0,0,1-8.15-2.09,6,6,0,0,0-2.17-.23" style="fill:none;stroke:#000;stroke-linecap:round;stroke-linejoin:round;stroke-width:2px"/><path d="M578.32,338.58c.25.19.61-.12.8.19,1.09,4.63,1.61,9.4,3.62,13.8,1.26,2.74,2.89,5.08,5.66,6.47" style="fill:none;stroke:#000;stroke-linecap:round;stroke-linejoin:round;stroke-width:2px"/><path d="M639.28,446.58a3.25,3.25,0,0,1,1.82.75,35.4,35.4,0,0,1,10,10.35,23.71,23.71,0,0,1,3,7.56" style="fill:none;stroke:#000;stroke-linecap:round;stroke-linejoin:round;stroke-width:2px"/><path d="M656.8,402.84a7.69,7.69,0,0,0-1,0,5.94,5.94,0,0,1-4-1.16c-2.6-1.63-5.57-2.13-8.61-2.49-4-.46-7.92.23-11.88-.14" style="fill:none;stroke:#000;stroke-linecap:round;stroke-linejoin:round;stroke-width:2px"/><path d="M580,326.28a5.81,5.81,0,0,1,2.17,3.12,17.5,17.5,0,0,0,7.32,9.82,5.7,5.7,0,0,0,4,1.22" style="fill:none;stroke:#000;stroke-linecap:round;stroke-linejoin:round;stroke-width:2px"/><path d="M600,467.94a66.53,66.53,0,0,0-1.86-16.62H597" style="fill:none;stroke:#000;stroke-linecap:round;stroke-linejoin:round;stroke-width:2px"/><path d="M590.74,452.4c.55,3.5.79,7,1,10.56.12,1.69.62,3.33.59,5" style="fill:none;stroke:#000;stroke-linecap:round;stroke-linejoin:round;stroke-width:2px"/><path d="M584.62,453.24c.16,2.8-.2,5.61.3,8.4a11.52,11.52,0,0,0,.26,1.79,16.93,16.93,0,0,1,.34,4.81" style="fill:none;stroke:#000;stroke-linecap:round;stroke-linejoin:round;stroke-width:2px"/><path d="M726.22,386.76a1,1,0,0,1-.28,1.09c-1.56,1.85-3.09,3.73-4.56,5.64a2.63,2.63,0,0,1-1.47,1c-.88.16-1,.73-1.32,1.37a9,9,0,0,0-.23,5.52" style="fill:none;stroke:#000;stroke-linecap:round;stroke-linejoin:round;stroke-width:2px"/><path d="M689.44,416.16c0-.41.15-.73-.59-.89-2.1-.45-4.15-1.14-6.23-1.74l-.08-1.09" style="fill:none;stroke:#000;stroke-linecap:round;stroke-linejoin:round;stroke-width:2px"/><path d="M637.84,399.36c.12.8.26,1.6.35,2.4,0,.31.1.61-.34.86a11.08,11.08,0,0,0-4,4.44c-.31.58-.63.17-.89.34" style="fill:none;stroke:#000;stroke-linecap:round;stroke-linejoin:round;stroke-width:2px"/></g></svg>
