<svg xmlns="http://www.w3.org/2000/svg" viewBox="0 0 1366 768"><g id="Layer_16" data-name="Layer 16"><path d="M356.68,716.28c0,.68,0,1.37.13,2a2.17,2.17,0,0,0,.7,1.45,14.8,14.8,0,0,0,9.13,3.46c6.22.31,11.92-1.66,17.52-4.08a3.69,3.69,0,0,0,2-1.68,3.81,3.81,0,0,1,3.62-2.11c6-.06,12.08,0,18.12.08.12,0,.27-.05.36,0,1.69,1,3.21-.08,4.8-.37.16,0,.42,0,.46-.13.7-1.6,2.37-2.42,3.13-4a3.94,3.94,0,0,0-.37-4,14.28,14.28,0,0,0-5.51-4.92,32.75,32.75,0,0,0-11.27-3.63c-3.3-.5-6.63-.66-10-.88-2.34-.16-4.64.16-7,.11s-4.64.39-7,.4c-3.8,0-7.6.17-11.4-.09-1-.06-1.92-.08-2.88-.12-8.52-.32-17-.26-25.56-.22a33.44,33.44,0,0,0-5.28.48,7.8,7.8,0,0,0-6.37,5.62,18,18,0,0,0-1.07,5.28c-.1,3.63,1.89,6.13,5.76,6.58a24.14,24.14,0,0,0,4.8.22,28.84,28.84,0,0,1,5.17.22,91,91,0,0,0,13.31-.05c1.44-.08,2.89.06,4.32,0,1.2-.08,2.39-.18,3.6-.24,5.52-.24,11-.41,16.56-.34,2,0,4.08,0,6.12,0a6.08,6.08,0,0,1,3.72,1" style="fill:none;stroke:#000;stroke-linecap:round;stroke-linejoin:round;stroke-width:2px"/><path d="M388,697.2c.6-2.39-1.06-3.57-2.65-4.66A24.1,24.1,0,0,0,369,688.36a23.63,23.63,0,0,0-12.5,5.1A1.67,1.67,0,0,0,356,695" style="fill:none;stroke:#000;stroke-linecap:round;stroke-linejoin:round;stroke-width:2px"/><path d="M337.36,702.36c0,2.87-.69,5.66-.87,8.52a25.39,25.39,0,0,1-.33,4.44" style="fill:none;stroke:#000;stroke-linecap:round;stroke-linejoin:round;stroke-width:2px"/><path d="M1143.51,652.14a184.52,184.52,0,0,0-28.89-11,116,116,0,0,0-29.23-4.23,40.89,40.89,0,0,0-15.25,2.25,1.9,1.9,0,0,0-.79,2.56,1.94,1.94,0,0,0,2.56.79,36.32,36.32,0,0,1,12.68-1.81,116.35,116.35,0,0,1,13.33.84,134.65,134.65,0,0,1,29.12,7.18c5.27,1.86,10.46,4,15.59,6.2C1144.34,655.62,1145.15,652.91,1143.51,652.14Z"/></g></svg>
