<svg xmlns="http://www.w3.org/2000/svg" viewBox="0 0 1366 768"><g id="Layer_16" data-name="Layer 16"><path d="M1324.84,694.08a2.33,2.33,0,0,0-1.2-2.4c-7.1-5.22-15.14-8.32-23.5-10.85a122.45,122.45,0,0,0-16.59-3.7c-6.81-1.08-13.73-1.92-20.62-1-4.16.57-8.34.83-12.5,1.27-3.63.38-7.35-.42-11,.08a2,2,0,0,1-1.91-1c-1.26-1.77-3.31-2.37-5.07-3.31-8.85-4.77-16.92-10.7-25.17-16.37-14.32-9.83-27.74-20.83-41.31-31.65a487.51,487.51,0,0,0-44.85-31.71c-11.56-7.25-23.21-14.34-35-21.12-14.28-8.18-28.4-16.64-42.76-24.66a342.53,342.53,0,0,0-33-15.75c-19.59-8.36-39.79-15-59.8-22.21-6.86-2.46-13.76-4.81-20.64-7.21" style="fill:none;stroke:#000;stroke-linecap:round;stroke-linejoin:round;stroke-width:2px"/><path d="M496.36,513.6A44.41,44.41,0,0,0,482.93,512,135.39,135.39,0,0,0,469,513.11c-2.88.44-5.75.94-8.64,1.18-3.48.29-6.87,1.07-10.3,1.59-3.6.54-7.22,1.18-10.82,1.78-11.43,1.9-23,3.17-34.07,6.76-4.72,1.53-9.05,4-13.47,6.18-7.43,3.74-15.18,6.77-22.79,10.1-9,3.93-17.47,8.75-26.13,13.25-11.12,5.78-22.24,11.57-32.93,18.17-9.93,6.12-18.89,13.44-27.57,21.16-3.42,3.05-6.91,6-10.08,9.36a19,19,0,0,0-1.67,1.69c-2.08,2.78-1.54,5.43,1.43,7.44A30.81,30.81,0,0,0,281.1,616c9.82,2.66,19.65,5.29,29.27,8.68a91.91,91.91,0,0,0,28.79,4.88c6.88.17,13.76.24,20.64.14,9.68-.14,19.36-.33,29-.48,8.32-.13,16.64-.56,25-1,2.09-.1,4.28-.85,6.23-.74,2.23.13,4.5.31,6.73.25a282.91,282.91,0,0,1,30,.84c19.75,1.59,39.52,1.3,59.29,1.4a49.79,49.79,0,0,1,6.47.25c3.33.47,6.26-1.35,9.49-1.35.45,0,1.16-1.07,1.8-1.58,2.13-1.69,4.78-1.42,7.2-1.62,9.82-.82,19.67-1.11,29.52-1.33,5.6-.12,11.22.21,16.79-.23,7.52-.6,15.06-.67,22.58-1.28s15-1.41,22.55-1.82c5-.27,9.92-.63,14.87-1,7.93-.6,15.84-.61,23.77-.64" style="fill:none;stroke:#000;stroke-linecap:round;stroke-linejoin:round;stroke-width:2px"/><path d="M47.8,718.08c3.39,1,6.72.06,10.08-.21,5.19-.43,10.4-.74,15.6-1,8.85-.4,16.13-3.88,21.33-11.08,8.38-11.62,20-18.94,32.41-25.47,6.23-3.28,12.46-6.56,19.23-8.55a80,80,0,0,1,15.11-2.49c6.79-.64,13.63-.51,20.4-1.41a9,9,0,0,0,4.78-1.92c2.19-1.88,2.2-5.18,0-8.37-4.7-6.86-11.3-11.22-18.95-14.18-5.63-2.18-11.38-2.35-17.29-1.48-2.28.34-4.63.21-7,.44a97.36,97.36,0,0,1-10.79.46A215.39,215.39,0,0,0,94.82,646c-5.22.87-10.56,1.28-15.81,2.06-3.05.46-6.12,1-9.11,1.72a9,9,0,0,1-6.26-.32" style="fill:none;stroke:#000;stroke-linecap:round;stroke-linejoin:round;stroke-width:2px"/><path d="M754.6,650.16c4.22,1.28,8.62,1.44,13,1.88,5.91.59,11.83,1,17.76,1.3,3.11.16,6.25.44,9.36.56,3.69.15,7.36.42,11,.64,6.48.37,13,.62,19.45,1.33,2.69.3,5.44.35,8.15.44,8.41.26,16.8.8,25.2,1.12,16.79.65,33.58,1.38,50.4,1.44,3.51,0,7,.12,10.56.16,8.72.11,17.46-.13,26.15.35,6.48.36,13,.64,19.46,1.2,3.85.33,7.81,1.47,11.76.18,1-.34,1.86.71,2.87.94,2.77.63,5.61.52,8.41.89,4.78.62,9.6,1,14.4,1.4,4.39.4,8.79.74,13.19,1,11.91.82,23.84,1,35.76,1.41,6.81.26,13.63.31,20.39,1.1,2.31.27,4.7,0,7,.8,1.49.56,2.74-.37,3.82-1.39" style="fill:none;stroke:#000;stroke-linecap:round;stroke-linejoin:round;stroke-width:2px"/><path d="M496.36,470.88c-3.63-.25-7.19.56-10.8.77-5,.28-9.91.84-14.87,1.23-7,.55-13.93.83-20.89,1.33-4.55.33-9.13.24-13.68.54-5.68.37-11.38-.18-17,.27-10.4.83-20.81,0-31.2.46-6.65.27-13.31.66-19.91,1.47-8,1-15.88,2.32-23.78,3.69-5.83,1-11.72,1.65-17.52,2.89-6.66,1.43-12.46,4.55-17.94,8.3-2.51,1.71-5,3.59-7.56,5.08-1.71,1-2.48,2.84-4.68,3.42s-3.7,3.09-5.06,5.13c-.66,1-1.51.94-2.43.94-4,0-8,0-12,0-7.22.1-14.43.48-21.59,1.25a112,112,0,0,0-25.68,5.72,24.9,24.9,0,0,0-13.46,10.78c-1.73,2.89-3.57,5.72-5.25,8.65s-1.35,4.9,1.7,6.38c1.62.79,3,1.93,4.52,2.73" style="fill:none;stroke:#000;stroke-linecap:round;stroke-linejoin:round;stroke-width:2px"/><path d="M895.72,515.52a2,2,0,0,0,1.17,2.22c11,6.22,21.92,12.64,32.92,18.88q17.07,9.71,33.79,20c11.56,7.1,23,14.49,34.13,22.24,8.77,6.09,17.23,12.6,26.12,18.54,6,4,12.23,7.51,18.49,11,3.94,2.22,7.75,4.7,11.52,7.2a42.45,42.45,0,0,0,5.78,2.85" style="fill:none;stroke:#000;stroke-linecap:round;stroke-linejoin:round;stroke-width:2px"/><path d="M977.32,660.48c.15-1.33,0-2.46-1.43-3.13-7.58-3.57-14.18-8.76-21.39-12.92-8.06-4.65-16.32-9-24.42-13.55-6.08-3.44-12.2-6.61-19-8.31a66.44,66.44,0,0,0-13.92-1.43c-10.39-.32-20.57-2-30.73-4.07a94.31,94.31,0,0,0-16.31-1.85,88.9,88.9,0,0,0-14.88,1.34c-7.26,1.07-14.46,2.59-21.84,2.64a2.86,2.86,0,0,1-1.68-.24" style="fill:none;stroke:#000;stroke-linecap:round;stroke-linejoin:round;stroke-width:2px"/><path d="M846.76,512.64c.71-.18,1.27.07,2-.87a53.16,53.16,0,0,0,6.39-10.88c2-4.09,4.21-7.93,8.36-10.37a15.15,15.15,0,0,0,7.38-12c1-10.19,3.34-20.08,5.73-30a281.7,281.7,0,0,0,6.88-38.84c.48-4.88.94-9.75,1.18-14.65.26-5.12-1.17-9.8-3.14-14.4q-5.8-13.54-11.51-27.13c-.71-1.69-1.42-3.28-3.58-3.75-6,5.32-12.38,10.57-16.11,18.17a37.94,37.94,0,0,0-2.12,5.05c-.23.73-.41.83-1,.58" style="fill:none;stroke:#000;stroke-linecap:round;stroke-linejoin:round;stroke-width:2px"/><path d="M901.72,507.84a9,9,0,0,0,2.85,2.68A351,351,0,0,0,936,529.21c6.78,3.5,13.72,6.65,20.62,9.89,9,4.24,17.27,9.87,25.49,15.51,13.54,9.29,27.44,18,41.23,27,11.44,7.39,23.41,14,34.15,22.46,2,1.55,3.86,3.21,5.93,4.65a5.94,5.94,0,0,0,2.91,1.16" style="fill:none;stroke:#000;stroke-linecap:round;stroke-linejoin:round;stroke-width:2px"/><path d="M686,542.88c-.31,2.75.77,5.32,1.31,7.9,1.49,7,1.79,13.85-1.57,20.41-2.71,5.29-1.92,10.14.93,15.16C691.1,594.24,697,600.76,705,605s19.51,1.15,24.63-6.18c2.52-3.6,2.6-7.72,1.76-12A40.71,40.71,0,0,0,725,571c-5.41-7.68-14.62-8.89-22.72-3.69a23.61,23.61,0,0,0-11,16.82" style="fill:none;stroke:#000;stroke-linecap:round;stroke-linejoin:round;stroke-width:2px"/><path d="M216.28,542.16c-2.47,3.19-6.18,4.74-9.38,6.93-16.75,11.43-33.72,22.54-50.34,34.17-16.94,11.85-34.1,23.33-51.62,34.29a297.48,297.48,0,0,0-33.39,24c-3,2.52-5.67,5.49-8.58,7.94A48.46,48.46,0,0,0,55,658.57c-2.42,3.35-4.44,7-7.21,10.07-.85,1-1.72,1.76-3.13,1.44" style="fill:none;stroke:#000;stroke-linecap:round;stroke-linejoin:round;stroke-width:2px"/><path d="M302,630.72c.17,2.39-1.35,4.12-2.42,6-2.29,4-5.21,7.56-7.88,11.31a33.25,33.25,0,0,0-5.79,11.74c-1.28,5.59-.63,11.13.78,16.55,2,7.49,4.28,14.89,6.43,22.33,4.11,14.21,8.41,28.37,11.91,42.74,1.23,5,2.07,10.21,2.94,15.34a174.85,174.85,0,0,0,4.63,20.39,10.89,10.89,0,0,1,.2,1.21" style="fill:none;stroke:#000;stroke-linecap:round;stroke-linejoin:round;stroke-width:2px"/><path d="M676.36,508.08c-3.4-.31-6.45,1.62-9.84,1.51-.48,0-1.13.17-1.68.15-11.71-.34-23.37.71-35,1.45-7.19.45-14.42-.11-21.59.33-8.8.55-17.62.7-26.42,1.25a159.48,159.48,0,0,1-19.43-.09c-3.91-.23-7.84,0-11.76,0a20.18,20.18,0,0,1-8.16-1.43" style="fill:none;stroke:#000;stroke-linecap:round;stroke-linejoin:round;stroke-width:2px"/><path d="M672.52,521.76a80.12,80.12,0,0,0-18.24-.72c-.24,0-.48,0-.72,0-12.24-.18-24.48.89-36.72.45-4.56-.17-9.12-.27-13.68-.19-11.52.19-23,.29-34.56.76-8.21.33-16.44.83-24.49,2.77a15.91,15.91,0,0,1-4.07-.07" style="fill:none;stroke:#000;stroke-linecap:round;stroke-linejoin:round;stroke-width:2px"/><path d="M711.16,647.52c.16,7.84-.08,15.71.59,23.51a268.53,268.53,0,0,1,1,26.89q-.25,16.8-.09,33.6c.1,10,.72,20,1.34,30,.33,5.35-.12,10.72.16,16.08" style="fill:none;stroke:#000;stroke-linecap:round;stroke-linejoin:round;stroke-width:2px"/><path d="M665.8,529.92c-6.72-.22-13.46.54-20.16-.47a9.59,9.59,0,0,0-1.2,0c-16.88-.27-33.77-.53-50.64-.14-10.24.24-20.47.75-30.72.94a85.14,85.14,0,0,0-20.89,3,8,8,0,0,1-3.59.18v2.25" style="fill:none;stroke:#000;stroke-linecap:round;stroke-linejoin:round;stroke-width:2px"/><path d="M419.8,627.12c-.19-9.69-.07-19.38.56-29,.51-8,1.05-16,1.74-24,.7-8.16,1.5-16.31,2.3-24.47a73.31,73.31,0,0,1,1.38-10.81c.63-2.51-1.5-4.4-4.78-4.56a31.65,31.65,0,0,0-13.68,2.66c-8.17,3.33-16.27,6.83-24.49,10-6.89,2.69-11.77,7.64-15.79,13.5a201.07,201.07,0,0,0-16.13,27.33c-3.47,7.28-5.8,15-8.43,22.56-1.53,4.42-3.27,8.82-6.7,12.23a3,3,0,0,0-.7,2.42" style="fill:none;stroke:#000;stroke-linecap:round;stroke-linejoin:round;stroke-width:2px"/><path d="M669.16,482.88v1.43c-7.4,1.26-14.8,2.41-22.32,2.94-11.77.84-23.53,2-35.28,3.09-8.3.81-16.61,1.71-25,1.37-7-.29-13.93-.77-20.89-1.27-4.75-.35-9.61-.66-14.4.33a8.24,8.24,0,0,1-2.15-.09" style="fill:none;stroke:#000;stroke-linecap:round;stroke-linejoin:round;stroke-width:2px"/><path d="M772.84,565.68c.6,3.53.81,6.93-.89,10.36a22.32,22.32,0,0,1-5.4,6.63c-5.86,5.27-11.95,10.29-17.95,15.41A40,40,0,0,0,741,606c-3.14,4.72-4.19,9,2.61,12.67a88.64,88.64,0,0,0,27.11,9.88c10.13,1.76,20.31,1.34,30.48.86a9,9,0,0,0,8.67-6.39c.7-2,1.76-3.95,1.19-6.26-.38-1.53.49-3,.49-4.55a51.05,51.05,0,0,0-3-17.74,108.89,108.89,0,0,1-5.23-21.38,20.52,20.52,0,0,0-1.91-6.24" style="fill:none;stroke:#000;stroke-linecap:round;stroke-linejoin:round;stroke-width:2px"/><path d="M819.52,454.08a3.7,3.7,0,0,1-.07,3.38c-1,2.36,0,4.83.29,7.17.55,3.84,1.12,7.7,1.76,11.54a114.77,114.77,0,0,1,1.72,19.67,103.69,103.69,0,0,1-5.06,30.47c-3.72,11.81-9.19,23-12.94,34.8a13.9,13.9,0,0,1-1.68,3.36,4.55,4.55,0,0,1-5.73,1.91c-1.48-.53-2.89-1.27-4.33-1.9-6.52-2.84-13-2.44-19.43.26-2.59,1.08-3.79.54-4.33-2.18-.94-4.67-1-9.44-1.37-14.17-.35-4.45-.36-9-.64-13.42-.92-14.4-1-28.81-.78-43.21.1-5.27.29-10.57.76-15.85.39-4.26,1-8.49,1.61-12.7a81.81,81.81,0,0,1,2.53-12.51c1.56-5.05,3.57-9.69,8.21-12.7" style="fill:none;stroke:#000;stroke-linecap:round;stroke-linejoin:round;stroke-width:2px"/><path d="M715.72,540.48c.6-5.39.68-10.91,2.45-16.06,4.82-14,8.32-28.37,12.67-42.5,1.28-4.16,2.45-8.36,3.86-12.47A70.71,70.71,0,0,0,739,442.32a17.36,17.36,0,0,0-4.28-10.81,2.69,2.69,0,0,0-2.15-1.11c-2.24.5-3.5-1-5.07-2-3.62-2.26-7.68-3.45-11.75-4.56-4.81-1.32-8.35,1.2-11.76,4.05-9.12,7.62-14.32,17.76-18.47,28.57a155.54,155.54,0,0,0-7.19,23.76A65.59,65.59,0,0,0,676.86,493c0,4,0,8,.17,12,.36,8.44,1,16.84,2.23,25.2a24.09,24.09,0,0,0,2.59,8.66c2.5,4.42,4.85,4.93,8.91,1.66a4.35,4.35,0,0,0,.48-.48c4.42-4.83,9.86-5.53,15.83-3.82,2.17.62,4.49,1,6.25,2.62" style="fill:none;stroke:#000;stroke-linecap:round;stroke-linejoin:round;stroke-width:2px"/><path d="M1156.36,645.12c-.12,1.4.91,2.2,1.68,3.12,6.28,7.43,12.4,15,17.51,23.29a20.3,20.3,0,0,1,2.89,5.75c0,.15-.07.4,0,.47,4.3,3.66,4.28,9.2,5.91,14,2.59,7.58,3.19,15.61,4.37,23.49.82,5.46,1.81,10.88,2.62,16.33.94,6.31,2,12.59,2.74,18.94,1,8.63,2,17.25,2.43,25.93.1,2,.35,4,.64,6" style="fill:none;stroke:#000;stroke-linecap:round;stroke-linejoin:round;stroke-width:2px"/><path d="M1151.8,659c.17-5.34-1.67-10.23-3.9-14.85-10.42-21.64-27.7-35.37-50.37-42.43a51,51,0,0,0-21.8-2,12.29,12.29,0,0,1-5.53,0" style="fill:none;stroke:#000;stroke-linecap:round;stroke-linejoin:round;stroke-width:2px"/><path d="M532.84,541c-.48-.88-1-1.77-1.44-2.64-.72-1.25-.72-3.08-2.41-3.57a9.35,9.35,0,0,0-6.46.46,14.79,14.79,0,0,0-6.42,5.32c-4.25,6.51-8.62,13-11.72,20.16a14.4,14.4,0,0,0,.61,13.39c.91,1.53.47,3.13-.06,4.54a25,25,0,0,0-1.12,6.26c-.17,1.52.49,2.27,2.14,2.43a116.57,116.57,0,0,0,22.8,0c4.59-.46,6.74-2.4,7.9-7a27.29,27.29,0,0,1,4.09-8.88c2.55-3.66,5.25-7.31,6.2-11.76,1.18-5.47,1.13-10.78-2-15.87-2.64-4.25-9.24-4.82-13.33-1.47-7.54,6.19-12.67,14.28-18.46,21.88-2.56,3.36-4.38,7.28-7.64,10.11" style="fill:none;stroke:#000;stroke-linecap:round;stroke-linejoin:round;stroke-width:2px"/><path d="M532.36,629c1.84,2.25,4.51,1.92,7,2.15,10.46,1,21,.75,31.43,1.13,4.88.18,9.83,0,14.64.66,10.94,1.56,21.91,1.17,32.89,1.39,5.47.11,10.89,1.1,16.32,1.84,9.24,1.24,18.46,2.54,27.61,4.31.73.14,1.42.42,2.15.51,2.26.25,4.61,1.52,6.73-.46a1.23,1.23,0,0,1,.22.23c0,.06,0,.16,0,.24" style="fill:none;stroke:#000;stroke-linecap:round;stroke-linejoin:round;stroke-width:2px"/><path d="M550.36,441.12c.13.55-.16,1.11.22,1.69,2.75,4.22,2.34,8.76,1.5,13.44-1.11,6.2-3.45,12-5.78,17.76a236.35,236.35,0,0,0-8.2,25.18c-1.8,6.52-3.79,13-5.77,19.44a6,6,0,0,1-1.89,2.89,5.14,5.14,0,0,0-2,3.35c-.45,2.51-2.36,3.19-4.46,1.65a6.36,6.36,0,0,0-4.11-.83c-4.56,0-8.94.13-12.64,4.08-2.34,2.49-3.52,4.47-3.05,7.84a22.61,22.61,0,0,1-.79,8.65c-.92,3.65,1.32,5.82,4.48,7.18" style="fill:none;stroke:#000;stroke-linecap:round;stroke-linejoin:round;stroke-width:2px"/><path d="M437.32,526.08c.74,3.36,0,6.74-.1,10.08A153.28,153.28,0,0,1,435.68,553c-.29,1.89-.28,3.84-.43,5.76-.47,5.84-1.14,11.66-1.61,17.5-.75,9.36-.66,18.73-1,28.09a105.42,105.42,0,0,1-1.79,18.73,19.73,19.73,0,0,0,0,4.07" style="fill:none;stroke:#000;stroke-linecap:round;stroke-linejoin:round;stroke-width:2px"/><path d="M674.68,531.6c.24,3.36.65,6.72.69,10.08.09,8.16.2,16.33-.24,24.48-.45,8.4-.87,16.81-1.49,25.19-.51,6.88-.87,13.77-1.43,20.64-.77,9.52-.89,19-.89,28.57" style="fill:none;stroke:#000;stroke-linecap:round;stroke-linejoin:round;stroke-width:2px"/><path d="M380.2,500.16c-2.64.16-5.29.22-7.92.5-4.56.5-9.14.88-13.67,1.5-4.32.6-8.66,1.18-13,1.74-7.77,1-15.52,2.13-23.27,3.23-5.36.76-10.7,1.9-16.09,2.29-4.29.32-8.61,1.15-12.95.34" style="fill:none;stroke:#000;stroke-linecap:round;stroke-linejoin:round;stroke-width:2px"/><path d="M491.56,489.84c-.52-2.87-2.72-4.87-3.89-7.42-.47-1-1.75-1-2.83-1-3.63,0-7.21.65-10.81.9-5.7.4-11.35,1.18-17,1.77-5.21.54-10.4,1.23-15.6,1.91-8.48,1.09-17,2.08-25.43,3.4-6.24,1-12.57,1.23-18.76,2.72-2.57.61-5.42.12-8.13.57-6,1-12.17,1.21-18.25,1.82-5.67.58-11.35,1.08-17,1.61-5.37.51-10.74,1.13-16.1,1.78-4.28.52-8.62.83-12.95,1a159.72,159.72,0,0,0-21.83,2.22,4.17,4.17,0,0,1-4.33-1.24" style="fill:none;stroke:#000;stroke-linecap:round;stroke-linejoin:round;stroke-width:2px"/><path d="M579.16,469c-.17-5.28.2-10.56-.43-15.85C577.9,446,575,440,571,434.26c-6.71,2.34-13.16,4.77-19.86,6.42-1.81.44-2.52-.38-3.4-1.7a27,27,0,0,0-11.5-9.61c-6.15-2.78-11.78-1.4-17,2.4-6.3,4.56-10.1,11.07-13.68,17.75a41,41,0,0,0-4.78,13,39.66,39.66,0,0,0-.74,6.24c0,5.76,0,11.52,0,17.28,0,6.64-.24,13.29.08,19.92.24,5,.28,9.92.61,14.88.07,1.17,1,2,1,3.12" style="fill:none;stroke:#000;stroke-linecap:round;stroke-linejoin:round;stroke-width:2px"/><path d="M346.36,558.48C339.24,571.68,332,584.84,325,598.1c-3.67,6.94-6.17,14.39-8.68,21.82-.6,1.77-1.7,3.36-1.91,5.28" style="fill:none;stroke:#000;stroke-linecap:round;stroke-linejoin:round;stroke-width:2px"/><path d="M503.56,533.28c-4.39.57-8.8.06-13.2.45-6.48.58-13,.87-19.45,1.65-2.45.3-5,.34-7.43.48-5,.27-9.77,1.22-14.65,1.89-3.62.49-7.33,1.1-11,.33" style="fill:none;stroke:#000;stroke-linecap:round;stroke-linejoin:round;stroke-width:2px"/><path d="M724.84,529.92c-.11,2.82,1.25,5.3,2,7.9,2.47,8.62,4.2,17.4,5.89,26.19,1.8,9.33,3.68,18.63,6.07,27.82a8.69,8.69,0,0,1,.45,2.41" style="fill:none;stroke:#000;stroke-linecap:round;stroke-linejoin:round;stroke-width:2px"/><path d="M529.48,521.52c-1.26-1.22-2.45-2.51-3.83-3.61a10.68,10.68,0,0,0-9.11-1.8c-4.89,1-9.72,2.7-13.18,6.64a5.24,5.24,0,0,1-5.31,1.6,32.59,32.59,0,0,0-10.57.06c-5.9.88-11.84.48-17.76.42A101.13,101.13,0,0,0,451,526.34c-3.3.59-6.57,1.39-9.84,2.16a14.9,14.9,0,0,1-3.12.22" style="fill:none;stroke:#000;stroke-linecap:round;stroke-linejoin:round;stroke-width:2px"/><path d="M1070,598.56c-.38,2.73-1.51,5.26-2.22,7.9-1.29,4.75-1.41,9.6-1.83,14.42-.47,5.43-.43,10.91-1.07,16.31a84.25,84.25,0,0,0-1.1,11.53c.09,4.53.19,5.74,5,7.14a22.68,22.68,0,0,1,13.16,9.67c1,1.57,2.68,2.45,3.86,3.83" style="fill:none;stroke:#000;stroke-linecap:round;stroke-linejoin:round;stroke-width:2px"/><path d="M1148.68,677.76c-9.71.3-19.37-.69-29-1.26-4.8-.28-9.61-.57-14.39-1-5.21-.46-10.49-.53-15.61-1.8a10.22,10.22,0,0,0-1.92-.14" style="fill:none;stroke:#000;stroke-linecap:round;stroke-linejoin:round;stroke-width:2px"/><path d="M1238,677.52c-2.71,2.54-6.29,2.47-9.6,3.1-10,1.91-20.14,1.62-30.24,1.38a73.86,73.86,0,0,1-13.43-1.88,6.42,6.42,0,0,0-3.37,0" style="fill:none;stroke:#000;stroke-linecap:round;stroke-linejoin:round;stroke-width:2px"/><path d="M76.12,724.08a153.57,153.57,0,0,0,2.81,27.13c.88,4.43,1.06,9,2,13.43a17,17,0,0,0,2,5.49,3.71,3.71,0,0,1,.67,2.19" style="fill:none;stroke:#000;stroke-linecap:round;stroke-linejoin:round;stroke-width:2px"/><path d="M499.24,488.88a61.61,61.61,0,0,0-10.31,1.5c-5.82,1.3-11.67,2.43-17.53,3.54-6.43,1.22-13,1.55-19.44,2.37a5.41,5.41,0,0,1-3.35-.23,6.21,6.21,0,0,0-5.24-.09c-3.11,1.14-6.27,1-9.41,1.3-4.64.44-9.29.75-13.92,1.22-5.68.58-11.37,1.17-17,2-2.48.34-5,.31-7.45.79" style="fill:none;stroke:#000;stroke-linecap:round;stroke-linejoin:round;stroke-width:2px"/><path d="M920.92,503.76c-5.6.88-11.29,1.39-16.77,2.75-5,1.24-10.14,1.22-15.17,2.21a146.06,146.06,0,0,1-15.1,1.81c-4.63.42-9.29.48-13.92.9-1,.08-1.92,0-2.88,0" style="fill:none;stroke:#000;stroke-linecap:round;stroke-linejoin:round;stroke-width:2px"/><path d="M920.68,499.68a147.23,147.23,0,0,0-31.2-6.43c-4.14-.37-8.32-.13-12.48-.17" style="fill:none;stroke:#000;stroke-linecap:round;stroke-linejoin:round;stroke-width:2px"/><path d="M668.92,645.84c9.89,1.38,19.84.43,29.76.73,6.64.2,13.3.22,19.92.77,10.39.86,20.78,1.18,31.2,1.14" style="fill:none;stroke:#000;stroke-linecap:round;stroke-linejoin:round;stroke-width:2px"/><path d="M763,513.36c-5.12-.08-10.24-.27-15.36-.21a69,69,0,0,0-16.07,1.69c-1.29.32-3.16.38-2.89,2.6" style="fill:none;stroke:#000;stroke-linecap:round;stroke-linejoin:round;stroke-width:2px"/><path d="M772.12,577c1.55,2,3.86,1.21,5.77,1.36,8.6.68,15.41,4.76,21.33,10.66,1.44,1.44,2.5,3.26,3.89,4.75a3.09,3.09,0,0,1,.69,2.43" style="fill:none;stroke:#000;stroke-linecap:round;stroke-linejoin:round;stroke-width:2px"/><path d="M243.16,514.08c0,5.44-.68,10.66-4.29,15.14-3.75,4.66-8.68,6.69-14.43,7.16a5,5,0,0,0-1.44.26" style="fill:none;stroke:#000;stroke-linecap:round;stroke-linejoin:round;stroke-width:2px"/><path d="M763.24,504.12c-3.1,1.2-6.41,1-9.61,1.24-7.27.62-14.56,1-21.59,3.2" style="fill:none;stroke:#000;stroke-linecap:round;stroke-linejoin:round;stroke-width:2px"/><path d="M767.08,474c-8,.38-16.1.3-24,2.17-1.43.34-2.75,1.19-4.32.95" style="fill:none;stroke:#000;stroke-linecap:round;stroke-linejoin:round;stroke-width:2px"/><path d="M760.36,486.72c-1.25-.63-2.41.13-3.6.27-4.23.5-8.48.06-12.72.39a50,50,0,0,0-8.39,1.06c-.95.24-1.77-.29-2.65,0" style="fill:none;stroke:#000;stroke-linecap:round;stroke-linejoin:round;stroke-width:2px"/><path d="M761.08,467.76c-5.12-.48-10.23-1.14-15.36-1.36-2.37-.1-4.79.38-7.19.5-.68,0-1.29-.19-1.93-.1" style="fill:none;stroke:#000;stroke-linecap:round;stroke-linejoin:round;stroke-width:2px"/><path d="M833.8,486.24c.31,2-.42,3.85-.73,5.76A104.55,104.55,0,0,1,829,509.28" style="fill:none;stroke:#000;stroke-linecap:round;stroke-linejoin:round;stroke-width:2px"/><path d="M749.32,627.84a49.7,49.7,0,0,0,2.14,13.69,43.82,43.82,0,0,0,2.34,5.79c.39.76,1.13,2.06-.16,3" style="fill:none;stroke:#000;stroke-linecap:round;stroke-linejoin:round;stroke-width:2px"/><path d="M715.24,538.56c-1.91-.31-2.29.85-2.41,2.4-.23,2.87.48,5.64,1,8.39.66,3.28,1.37,6.54,1.86,9.85" style="fill:none;stroke:#000;stroke-linecap:round;stroke-linejoin:round;stroke-width:2px"/><path d="M850.6,490.56c0,2.2-1.77,3.51-2.64,5.28A77.1,77.1,0,0,1,840,509c-.73,1-1.15,2.44-2.86,2.17" style="fill:none;stroke:#000;stroke-linecap:round;stroke-linejoin:round;stroke-width:2px"/><path d="M882,469.2c2,2.88,4.2,5.64,5.94,8.67s2.54,6.59.54,10.05" style="fill:none;stroke:#000;stroke-linecap:round;stroke-linejoin:round;stroke-width:2px"/><path d="M707.32,555.6c-6.62-.91-11.73,1.33-15.12,7.2" style="fill:none;stroke:#000;stroke-linecap:round;stroke-linejoin:round;stroke-width:2px"/><path d="M842,492a139.45,139.45,0,0,1-7,13.2c-.36.62-.65,1.28-1,1.92" style="fill:none;stroke:#000;stroke-linecap:round;stroke-linejoin:round;stroke-width:2px"/><path d="M1150.72,664.08c.7,4.7.63,9.44.84,14.16" style="fill:none;stroke:#000;stroke-linecap:round;stroke-linejoin:round;stroke-width:2px"/><path d="M499.48,480.72h-7.92a4.54,4.54,0,0,0-3.84,1.44" style="fill:none;stroke:#000;stroke-linecap:round;stroke-linejoin:round;stroke-width:2px"/><path d="M439.72,487c0,3.47,2.09,6,3.84,8.64" style="fill:none;stroke:#000;stroke-linecap:round;stroke-linejoin:round;stroke-width:2px"/><path d="M432.28,529.68a31.92,31.92,0,0,0-7.2,5.52" style="fill:none;stroke:#000;stroke-linecap:round;stroke-linejoin:round;stroke-width:2px"/><path d="M668.44,642.24a11.83,11.83,0,0,1,.23,3.36c0,.08-.14.19-.23.23s-.16-.07-.24-.11" style="fill:none;stroke:#000;stroke-linecap:round;stroke-linejoin:round;stroke-width:2px"/><path d="M731.56,430.8v3.12" style="fill:none;stroke:#000;stroke-linecap:round;stroke-linejoin:round;stroke-width:2px"/></g></svg>
