<svg xmlns="http://www.w3.org/2000/svg" viewBox="0 0 1366 768"><g id="Layer_20" data-name="Layer 20"><path d="M413.42,159.66c-2.84.37-5.41.72-8,1a25,25,0,0,1-2.87.21c-3.93,0-6-1.54-7.24-5.37-.08-.26-.11-.53-.19-.8-.76-2.57-.93-2.7-3.73-2.76-1,0-1.92,0-2.88,0-.66,0-1.32-.13-1.95-.2-.1-1.09.53-1.37,1.21-1.48a45.49,45.49,0,0,1,5.28-.8,6.9,6.9,0,0,0,5.43-3.23c1.2-1.67,2.49-3.27,3.84-4.82a11,11,0,0,1,6.24-3.71c1.71-.34,2.65,0,3.21,1.72.65,1.92,1,3.95,1.47,5.95a16.72,16.72,0,0,1-8.54,6.29c-.77.27-1.62.3-2.39.56a2.17,2.17,0,0,0-.74,3.88,6.06,6.06,0,0,0,2.11,1.19,13.45,13.45,0,0,0,7.31.13c1.83-.48,2.42-1.25,2.56-3.22.08-1.1,0-2.2,0-3.29a3.64,3.64,0,0,1,1.86-3.38,28.34,28.34,0,0,0,4.4-3.65,15.3,15.3,0,0,1,9.63-4.08,3.24,3.24,0,0,1,3.69,1.91A16.63,16.63,0,0,0,435,144.2c-.85,2.56-3,4.12-5.09,5.55a32.15,32.15,0,0,1-9.22,4.42c-1.85.52-2.32,1.71-1.66,3.47a5.08,5.08,0,0,0,5.58,3.25,16.17,16.17,0,0,0,6.54-2.3,19.66,19.66,0,0,0,1.69-1.18c3.24-2.37,5.56-5.15,5-9.6a39,39,0,0,1,.22-6.56,8.78,8.78,0,0,1,.44-2.39,1.85,1.85,0,0,1,2.67-1.07c1.72,1.17,3.15.88,4.93,0a5.9,5.9,0,0,1,8.17,3.15,18.33,18.33,0,0,1,1.52,9.22,45.24,45.24,0,0,1-.59,5.72c-.58,2.66-1.42,5.26-2.23,7.86a3.21,3.21,0,0,1-1.05,1.23,1.59,1.59,0,0,1-2.4-.63,9.66,9.66,0,0,1-.19-3.21c.32-2.45.88-4.86,1.24-7.29s.74-5.17,0-7.74c-.37-1.31-.63-2.76-2.26-3.14-1.18-.28-2.47.66-3,2.83-.91,3.71-1.52,7.5-2.14,11.28-.27,1.61-.23,3.27-.35,4.91A3.35,3.35,0,0,1,440,165.5a1.8,1.8,0,0,1-2.3-1.18,28.84,28.84,0,0,1-.54-3.22c-.14-.91-.24-1.82-.36-2.75-1.55-.29-2.23.72-2.94,1.45-3.2,3.23-7.11,4.4-11.55,4.47a9.1,9.1,0,0,1-7.65-3.22C414.32,160.64,414,160.24,413.42,159.66Zm-5.1-16.59a6.24,6.24,0,0,0-3.7,3.72c2.63-.23,2.92-.34,3.91-1.76A1.34,1.34,0,0,0,408.32,143.07ZM427.43,145c-2.77.44-3.14.71-4.84,3.47C424.47,147.38,426.23,146.82,427.43,145Z"/><path d="M769.11,89.16a12.24,12.24,0,0,1-7,7.76c-2,.88-4.06,1.65-6.07,2.52-1.34.57-1.86,1.39-1.73,2.46a2.79,2.79,0,0,0,2.08,2.31,6,6,0,0,0,4-.2c1.56-.52,3.1-1.1,4.69-1.53a2.27,2.27,0,0,1,2.81.66,7.18,7.18,0,0,1-1.19,1.4,19,19,0,0,1-11.64,3.35,6.41,6.41,0,0,1-6.33-4.35c-.41-1-.61-2.11-1.06-3.1a1.88,1.88,0,0,0-3.12-.2,16.07,16.07,0,0,0-1.44,3.39c-1,3.48-3.54,5.42-6.74,6.66-2.29.89-3.88.48-5.44-1.5a18.52,18.52,0,0,1-1.89-3.15c-.67-1.35-1.16-2.79-1.84-4.13a8.92,8.92,0,0,0-1.43-1.6c-1.3,1.93-2.31,3.7-3.59,5.25a14.38,14.38,0,0,1-3.59,3.29c-2.88,1.74-5.23.67-5.66-2.64a33.63,33.63,0,0,1-.09-7.37c.47-4.77,1.18-9.51,1.83-14.25a4,4,0,0,1,2.4-3.56c1.78-.73,3.51.31,3.31,2.2-.38,3.54-1,7-1.44,10.58-.25,1.89-.43,3.8-.56,5.7a4.32,4.32,0,0,0,.36,1.4c1.39-.06,1.38-1.1,1.58-1.79,1-3.28,1.86-6.59,2.78-9.88a32.86,32.86,0,0,1,1.11-3.53c.54-1.32,1.68-1.65,3.06-1.1A3.93,3.93,0,0,1,729.92,88c.11,2.32.29,4.65.33,7,.06,3.24,1.27,6.16,2.51,9,1,2.22,3.14,2.28,4.42.19a11.85,11.85,0,0,0,1.4-3.39,34.16,34.16,0,0,0,.81-13,25,25,0,0,1-.3-4.49,2.21,2.21,0,0,1,1-1.61c.73-.38,1.18.33,1.51,1,1.89,3.5,3.7,7,3.26,11.22A3.67,3.67,0,0,0,745,95.1a1.69,1.69,0,0,0,2.26,1.14,3.66,3.66,0,0,0,2.38-2.11c1.75-4.42,5.32-7.19,8.92-10a7.51,7.51,0,0,1,4.16-1.58c2.79-.18,3.47.28,4.45,3a13.26,13.26,0,0,0,.83,1.85C768.35,88,768.74,88.57,769.11,89.16Zm-12,3.86c4-.37,5.16-1.52,5.08-5A9.71,9.71,0,0,0,757.11,93Z"/><path d="M676.75,81c.93-.42,1.78-.77,2.6-1.17.61-.31,1.16-.74,1.79-1a2.72,2.72,0,0,1,3.29.89,2.39,2.39,0,0,1-.43,3.32,26.18,26.18,0,0,1-3.36,2.34c-1.17.71-2.39,1.33-3.62,1.93a3.38,3.38,0,0,0-2,3.27c-.08,4.11-.2,8.22.72,12.27.09.41.22.8.3,1.2.35,1.72,0,2.53-1.23,3-1.52.59-2.49.27-3.53-1.11-.57-.75-1.15-1.49-1.75-2.22-.07-.09-.25-.09-.61-.19-1.38.22-2.34,1.48-3.56,2.31-2.17,1.5-4,1-4.75-1.56-.5-1.68-.72-3.45-1-5-1.22-.84-2-.19-2.75.39-1.84,1.42-3.66,2.87-5.51,4.27-2.06,1.56-4.57,1.76-7,2.13a2,2,0,0,1-2.43-1.71,5.79,5.79,0,0,1-.07-2.8,31.32,31.32,0,0,1,2.63-6.44,61.55,61.55,0,0,1,9.1-11.62,25.48,25.48,0,0,1,3.17-2.6,1.69,1.69,0,0,1,2.27.19A28.87,28.87,0,0,1,661.28,84c.49.66.73,1.63,1.35,2,2.32,1.45,2.26,3.55,1.9,5.8a15,15,0,0,0,.53,7.7,2.39,2.39,0,0,0,1.44,1.21,2.07,2.07,0,0,0,2.38-1.17,7.1,7.1,0,0,0,.39-2c.08-1.92.17-3.84.1-5.75-.25-6.5,1.29-12.76,2.38-19.08.58-3.37,1.06-6.76,2.55-9.9.24-.49.38-1,.65-1.5a1.89,1.89,0,0,1,2.77-.84c1.78.89,2.11,1.65,1.59,3.63a23.74,23.74,0,0,0-.77,3.18,50.11,50.11,0,0,1-1.91,9.23C676.21,77.87,675.68,79.34,676.75,81ZM648.3,99.64c.79-.06,1.25,0,1.53-.14a20.71,20.71,0,0,0,6.54-6.6,10.55,10.55,0,0,0,1.1-3,1.16,1.16,0,0,0-.89-1.55A28.8,28.8,0,0,0,648.3,99.64Z"/><path d="M439.85,81.32c-2.66.19-3.39.6-3.38,2.58,0,3.28.3,6.56.58,9.83a37.17,37.17,0,0,0,.77,4,1.88,1.88,0,0,1-.9,2.11,2,2,0,0,1-2.62-.34,8.77,8.77,0,0,1-1.6-2.81c-.58-2.1-.93-4.27-1.33-6.42-.34-1.87-.62-3.74-.87-5.24-1.73-1.57-3.91-.5-5.37-2,.67-2.59,3.54-2.37,5.09-4.2.56-2.7.36-5.71.51-8.7.07-1.37,0-2.74.16-4.1a5.27,5.27,0,0,1,.79-2.29,3.16,3.16,0,0,1,3.06-1.69c1,.14,1.75,1.23,1.82,2.88.07,1.37-.05,2.74-.08,4.11,0,1.64-.08,3.29-.09,4.93,0,.86.21,1.65,1.17,1.94a2.34,2.34,0,0,0,2.83-1.06,9.73,9.73,0,0,0,.69-2.76c.15-2,.18-4.1.23-6.16A3.71,3.71,0,0,1,442.49,63a2.5,2.5,0,0,1,4.22,1.21,8.34,8.34,0,0,1,.16,2.45c-.18,3.41-.43,6.82-.61,10.23,0,.8.07,1.59.14,2.78a8.5,8.5,0,0,0,1.57-.91c.69-.66,1.22-1.49,1.95-2.1a4,4,0,0,1,5-.25c2.36,1.74,4.32,3.79,4.84,6.88a16.77,16.77,0,0,1-.29,8.11c-.62,1.91-.58,4-.87,6.06-.35,2.44-1,2.88-4.23,2.55a17.21,17.21,0,0,1-.12-2.29c.18-2.32.43-4.64.67-7a15,15,0,0,0-.91-7.26c-.63-1.58-2.17-1.84-3.21-.49a14,14,0,0,0-2,3.52c-1.21,3.2-2.28,6.46-3.32,9.72a3.59,3.59,0,0,1-2.33,2.63c-1.64.55-2.77,0-3-1.69a42.43,42.43,0,0,1-.16-11.48C440.12,84.24,440.46,82.75,439.85,81.32Z"/><path d="M858.44,155.09c.72-1.41,1.1-2.27,1.58-3.06a16.74,16.74,0,0,1,2.09-3,6.42,6.42,0,0,1,9.73.63,10.38,10.38,0,0,1,2.19,5.67,67.84,67.84,0,0,1,.12,8.19c-.13,2.59-.55,5.17-.9,7.74a6.79,6.79,0,0,1-.61,2.35,2.7,2.7,0,0,1-2.64,1.62c-.89-.06-1.61-1-1.58-2.53,0-2.46.28-4.91.42-7.37a50.59,50.59,0,0,0,.24-6.14,11.71,11.71,0,0,0-1.2-4.28,2,2,0,0,0-3.64-.09,7.09,7.09,0,0,0-.82,1.87c-.55,2-1.1,4-1.53,6s-.64,4.35-1.21,6.46a17.59,17.59,0,0,1-1.87,4,1.62,1.62,0,0,1-2.13.74,2.52,2.52,0,0,1-1.15-1.52,7,7,0,0,1-.12-2.85c.66-3.7-.94-7-1.79-10.4a5.21,5.21,0,0,0-1.36-2,1.4,1.4,0,0,0-2.52.61,19.7,19.7,0,0,0-.4,2.42A18.91,18.91,0,0,1,846,168c-2.35,3.64-5.72,4.88-9.76,5a4.72,4.72,0,0,1-5.13-4.71c-.14-7.71,2.85-13.84,9.62-17.83a13.79,13.79,0,0,1,3.49-1.09,31.62,31.62,0,0,0,3.54-.9c2.52-1,4.56-.24,6.32,1.53.95,1,1.69,2.15,2.56,3.21C857.08,153.68,857.55,154.14,858.44,155.09Zm-13.06,3.2c0-.68,0-1-.09-1.22-.36-2-2.07-2.67-3.63-1.4-3.37,2.73-4.83,6.48-5.26,10.66a3.09,3.09,0,0,0,1,2.08c.65.68,1.58.35,2.24-.14C843.09,165.69,844.61,162,845.38,158.29Z"/><path d="M703.87,167.51c-1.59,1.8-2.9,3.41-5.11,3.77a2.93,2.93,0,0,1-2.62-.68c-1.86-1.58-2.14-1.69-3.84-.39-3.55,2.72-7.56,2.84-11.72,2.54a6.71,6.71,0,0,1-6.18-6.54,25.57,25.57,0,0,1,1.2-9.31,12.23,12.23,0,0,1,5.83-6.64,7.81,7.81,0,0,1,3.13-.9,5.06,5.06,0,0,1,5.21,7.1,1.76,1.76,0,0,1-3,.58c-.76-.73-1.2-2-2.54-1.76-1.52.25-2.25,1.52-2.85,2.73a12.56,12.56,0,0,0-1.3,7.18,4.57,4.57,0,0,0,4.77,4.17,12.28,12.28,0,0,0,9-4.28,3,3,0,0,0,.71-1.85c-.24-7,1.86-13.51,3.77-20.08.87-3,1.66-6.07,2.41-9.12a4.56,4.56,0,0,1,1.86-3.06,2.06,2.06,0,0,1,3.28,1.11,7.16,7.16,0,0,1,.27,2.82,81,81,0,0,1-1.63,8c-.7,2.64-1.76,5.18-2.52,7.81a47.55,47.55,0,0,0-1.73,12.16,3.94,3.94,0,0,0,.39,2,1.54,1.54,0,0,0,1.32.63,3.67,3.67,0,0,0,3-3.42c.25-2.18.36-4.37.58-6.55a24.49,24.49,0,0,1,.57-3.63,2.62,2.62,0,0,1,2.67-2.12,2.88,2.88,0,0,1,2.66,2.18,18.1,18.1,0,0,1,.14,4.47c-.28,3-.74,6-1.13,9-.37,2.83-2.18,4-4.93,3A15.33,15.33,0,0,1,703.87,167.51Z"/><path d="M536.52,87.88c1-1.19,1.59-1.72,2-2.33,1.44-2.16,2.81-4.37,4.25-6.52a18.31,18.31,0,0,1,1.79-2.24c3.89-4.09,4.63-3.48,9-1.77a4.12,4.12,0,0,1,2.85,3.67,79.63,79.63,0,0,1,.16,8.6c-.12,2.57-1.9,4.53-3.27,6.51A41.73,41.73,0,0,1,548,99.54c-1.83,1.79-4.25,2.43-6.68,2.91a3.41,3.41,0,0,1-4-2c-.13-.24-.21-.5-.33-.75-1.42-3.09-1.81-3.31-4.83-1.52a15.78,15.78,0,0,1-7.75,2.32c-2.85.09-4.37-1-4.8-3.91a14,14,0,0,1,.88-8.43c1.29-2.7,2.13-5.63,4.19-7.93.36-.41.63-.9,1-1.3,2.56-2.87,4.55-2.81,7.11,0A11.85,11.85,0,0,1,535.88,85C536,85.63,536.17,86.28,536.52,87.88Zm4.8,7.09.28.08v.41c0,1.75,1.17,2.51,2.67,1.73a5.88,5.88,0,0,0,1.33-.93,22,22,0,0,0,7.37-15,2.58,2.58,0,0,0-1.26-2.8,2.45,2.45,0,0,0-2.88,1c-2.31,2.69-4.55,5.47-5.72,8.87C542.37,90.49,541.91,92.75,541.32,95Zm-16.58-1.5c0,.21,0,.48,0,.75a1.7,1.7,0,0,0,2.19,1.71,3.39,3.39,0,0,0,1.15-.38c4.44-2.92,5.71-6.29,3.16-11.48a1.77,1.77,0,0,0-3.25-.19A21.37,21.37,0,0,0,524.74,93.47Z"/><path d="M603,164.44c-1,1.11-1.83,2.13-2.72,3.15a7.55,7.55,0,0,1-5.32,2.75,3,3,0,0,1-3.41-2.27,4.43,4.43,0,0,1-.19-.8c-.72-5.69-1.63-11.38-1.2-17.15a15.25,15.25,0,0,1,.53-3.22,2.6,2.6,0,0,1,2.61-1.62,2.42,2.42,0,0,1,2.29,2,19.36,19.36,0,0,1,.26,2.85c.14,3.83.22,7.66.38,11.48a18.32,18.32,0,0,0,.49,2.66c1.84,0,2.35-1.27,2.76-2.35,1.16-3.06,2.17-6.18,3.2-9.29.3-.91.37-1.9.71-2.78a7.5,7.5,0,0,1,1.27-2.07,1.53,1.53,0,0,1,2.65.44,18.28,18.28,0,0,1,.72,3.59,27.72,27.72,0,0,1-.07,3.28,25.37,25.37,0,0,0,2,10c.18.47.68.81,1.17,1.37a12.71,12.71,0,0,0,2-1.32c4.57-4.37,6-9.92,6.06-16a5.8,5.8,0,0,0-1.7-4,1.71,1.71,0,0,1-.1-2.27c.72-1,1.49-2.07,2.94-1.84a2,2,0,0,1,1.31.82c1.78,3.43,3.06,6.89,2.52,11-.77,5.76-2.72,10.81-6.93,14.93a10.46,10.46,0,0,1-6.15,3c-2.8.39-4-.23-5.32-2.72-.51-1-1-1.92-1.59-2.85C604.09,164.89,603.76,164.82,603,164.44Z"/><path d="M733.3,150.53c.69-.82,1.32-1.5,1.86-2.24a38.07,38.07,0,0,1,2.37-3.35,3.84,3.84,0,0,1,5.53-.17,7,7,0,0,1,2.54,5,47.61,47.61,0,0,1,.07,5.34c-.25,3.56-.5,7.12-1,10.63a34.55,34.55,0,0,1-1.86,5.85,1.7,1.7,0,0,1-1.88,1.25,1.85,1.85,0,0,1-1.66-2,29.4,29.4,0,0,1,.18-4.09c.38-3.4.9-6.79,1.21-10.19a31,31,0,0,0-.12-4.91c0-.32-.46-.86-.73-.87-.46,0-1.2.13-1.38.46-1.69,3-3.41,6-3.76,9.47a22.83,22.83,0,0,1-1.68,6.75,3.06,3.06,0,0,1-2.41,2,2,2,0,0,1-2.47-2.39,14.26,14.26,0,0,1,.87-2.3,13.68,13.68,0,0,0,.48-8.08,4.69,4.69,0,0,0-2-3,2.26,2.26,0,0,0-3.3.22,9.4,9.4,0,0,0-3,6.58c0,1.77-.15,3.55-.34,5.32A2.89,2.89,0,0,1,719,168.3c-2.36,1-3.77.17-3.81-2.41-.05-2.74.06-5.49.18-8.22a49.06,49.06,0,0,0,.26-6.54c-.22-2.65,1.76-4,4.3-3.06a4.64,4.64,0,0,0,3.89-.09c3.77-1.7,5.37-1.27,8.3,1.79A8.6,8.6,0,0,0,733.3,150.53Z"/><path d="M498.69,133.87c.39-1.14,1.38-1.1,2.35-1a3,3,0,0,1,2.62,1.73,42.06,42.06,0,0,1,1.23,4.33,26.25,26.25,0,0,1-1.64,17.28c-1.94,4.46-5,8.12-10.17,9.39-2.54.62-4.25,0-5.62-2.11-.51-.77-1.14-1.47-1.85-2.37-.84.48-1.52.86-2.2,1.27s-1.12.79-1.72,1.1c-2.13,1.12-3.39.64-4.15-1.54-.14-.38-.2-.79-.31-1.19a29.64,29.64,0,0,1,.41-17,6,6,0,0,1,1.86-2.59,1.76,1.76,0,0,1,3,1.25c.08,2.05,0,4.1-.1,6.15-.09,1.64-.4,3.27-.47,4.91,0,.59.19,1.55.59,1.74,1,.46,1.49-.5,1.77-1.21.76-1.9,1.38-3.85,2.05-5.79a22.3,22.3,0,0,1,.89-2.69,1.73,1.73,0,0,1,2.08-.94,2.34,2.34,0,0,1,1.35,1.32,17.07,17.07,0,0,1,.67,4c.05,1.22-.26,2.45-.31,3.68a27.91,27.91,0,0,0,0,4.09c.14,1.35.25,3,1.67,3.54,1.58.63,2.45-.87,3.3-1.87a19.79,19.79,0,0,0,2.6-3.66c2.83-5.55,4-11.35,2.12-17.46A36,36,0,0,0,498.69,133.87Z"/><path d="M638.17,106.82c-2.4,1.08-3.51.78-4.16-1.27a49.4,49.4,0,0,1-2.09-10.87,30.71,30.71,0,0,0-1.08-5.61,1.75,1.75,0,0,0-3.2-.5,11.21,11.21,0,0,0-1.82,3.18c-1.08,3.24-2.05,6.52-2.94,9.81a4.54,4.54,0,0,1-1.92,3c-1.4.83-2.91.29-3.16-1.27a16.79,16.79,0,0,1-.17-3.68c.22-3.41.38-6.84.88-10.22.82-5.61.44-11.21.31-16.81a25.09,25.09,0,0,1-.09-2.87,2.44,2.44,0,0,1,2.16-2.14A2.32,2.32,0,0,1,623.56,69a19.66,19.66,0,0,1,.85,4c.23,2.59.28,5.19.47,7.78a10.48,10.48,0,0,0,.63,2.11c1-.45,1.67-.81,2.39-1.12a4.65,4.65,0,0,1,5.29,1,9.5,9.5,0,0,1,3,6.13c.48,4.36,1,8.71,1.48,13.06C637.86,103.63,638,105.24,638.17,106.82Z"/><path d="M915.44,106.07c-3.94-1.42-5.16-4.29-5.33-7.82-.09-1.77-.25-3.55-.29-5.32a2.86,2.86,0,0,1,2.11-3.12,2.37,2.37,0,0,1,3.4,1.89c.27,1.61.29,3.26.49,4.89.11.91.36,1.8.52,2.57a1.37,1.37,0,0,0,1.93-.68c.78-1.59,1.44-3.24,2.13-4.87.91-2.13,1.8-4.28,2.72-6.41a3.76,3.76,0,0,1,.71-1,2,2,0,0,1,3.13.47,5.69,5.69,0,0,1,.38,4.39c-.93,2.86-1.75,5.78-3,8.52-2.82,6.44-4.45,13.21-6.17,20a8.53,8.53,0,0,1-.94,2.68,12.53,12.53,0,0,0-1.92,6.61c-.05.81-.14,1.63-.26,2.44a4,4,0,0,1-2.08,2.89,2.57,2.57,0,0,1-2.71.28,2.07,2.07,0,0,1-1-2.47c.51-2.54,1-5.09,1.6-7.62C912.36,118.4,913.86,112.44,915.44,106.07Z"/><path d="M952.79,160.52c-.07,5.82-3.63,10.7-9.48,11.79-4.81.89-4.73,1.29-5.89,5.92-.54,2.12-1,4.26-1.55,6.38a2.54,2.54,0,0,1-1.91,1.94c-2.19.59-3.7-.44-3.39-2.63.48-3.37,1.15-6.73,1.94-10a111,111,0,0,1,6.24-17.79,21.41,21.41,0,0,1,3.54-5.46c1.9-2.19,4.3-2.06,6.46-.05A12.8,12.8,0,0,1,952.79,160.52Zm-11.32,6.9c5.27-.52,7.88-4.89,5.61-9.2a1.77,1.77,0,0,0-1.24-.84,1.59,1.59,0,0,0-1.28.73c-1.19,2.72-2.28,5.49-3.37,8.26C941.11,166.56,941.31,166.86,941.47,167.42Z"/><path d="M569,85.13c1.93,0,4,0,6,.05a12,12,0,0,1,3.22.41,2.39,2.39,0,0,1,1.17,1.49,1.78,1.78,0,0,1-.67,1.36A6.07,6.07,0,0,1,574.54,90c-1.1,0-2.19-.12-3.28-.11-1.76,0-2.55.83-2.21,2.61.76,4,1.25,8.15,4.19,11.41-.75,1.69-2.19,1.63-3.51,1.66a2.82,2.82,0,0,1-2.6-1.72,22.67,22.67,0,0,1-1.66-3.74,64.09,64.09,0,0,1-2.1-28.79,23.9,23.9,0,0,1,5.24-11.44,10.15,10.15,0,0,1,6.61-3.76,4.73,4.73,0,0,1,2,.17,1.87,1.87,0,0,1,.74,3A10.42,10.42,0,0,1,576,60.74a12.68,12.68,0,0,0-5.4,6.52c-2.18,5.28-2.51,10.87-2.3,16.51C568.35,84.14,568.67,84.49,569,85.13Z"/><path d="M759,154.93c1.37.36,2-.52,2.66-1.11a20.44,20.44,0,0,1,2.54-2.06,4.18,4.18,0,0,1,6,1.65c1.91,3.12,1.65,5.43-.68,8.24a17.69,17.69,0,0,1-9.24,5.82,11.74,11.74,0,0,1-6.49.05c-1.76-.5-2.18-1-2.33-2.89a11.48,11.48,0,0,1,0-2.87q1.25-7.48,2.62-14.95c.48-2.56,1.06-5.1,1.62-7.64a5,5,0,0,1,1.88-3.09,2.71,2.71,0,0,1,3.06-.39,2.44,2.44,0,0,1,1.17,2.46c-.15,1.22-.45,2.42-.69,3.63-.75,3.75-1.51,7.5-2.21,11.27A7.35,7.35,0,0,0,759,154.93Zm2.07,6.67c2.25-.23,3.3-1.12,3.89-2.61a.78.78,0,0,0-.27-.69.82.82,0,0,0-.72-.15C762.67,158.68,761.87,159.72,761.11,161.6Z"/><path d="M516,139.69a7,7,0,0,0,1.06.47c5.09,1.19,6,2.36,6.82,7.28s-.12,9.8-1.27,14.61a2.43,2.43,0,0,1-.75,1.4,3,3,0,0,1-1.86.5c-.36,0-.88-.71-.93-1.14a39.43,39.43,0,0,1-.12-4.48c.05-2.6.21-5.2.24-7.79a8.2,8.2,0,0,0-.39-2.4,1.1,1.1,0,0,0-1.91-.26,11.82,11.82,0,0,0-1.25,2.55c-1,3.11-2.19,6.2-2.45,9.51a3.06,3.06,0,0,1-2.23,2.67,2.18,2.18,0,0,1-3.12-1.65,13.12,13.12,0,0,1-.1-2.87q.45-5.93,1-11.85c.32-3.4.7-6.8,1.05-10.19.21-2.05.37-4.1.68-6.12a5.22,5.22,0,0,1,.9-2.24c.81-1.13,3.11-.8,3.36.53a59.48,59.48,0,0,1,.9,7.29C515.69,136.86,515.43,138.23,516,139.69Z"/><path d="M791.55,99c1.3.16,1.51-.95,1.94-1.74q2.58-4.66,5.1-9.37a8.62,8.62,0,0,1,3-3.3,3.8,3.8,0,0,1,1.1-.51c1.56-.41,3.27,1,2.81,2.52a35.21,35.21,0,0,1-2.24,5.26c-1.71,3.42-3.57,6.77-5.23,10.21-.77,1.59-1.21,3.34-1.83,5-.88,2.36-1.84,3-4.33,2.79-.82,0-1.64-.21-2.45-.2a3.12,3.12,0,0,1-3.33-2.47,14.18,14.18,0,0,1-.68-2.77,32.41,32.41,0,0,1-.21-6.14c.45-4.08,1.18-8.12,1.82-12.18a4.3,4.3,0,0,1,2.6-3.45c2.15-.93,4,.34,3.74,2.62s-.81,4.3-1.16,6.46-.65,4.33-.94,6.5C791.24,98.46,791.45,98.72,791.55,99Z"/><path d="M866.82,93.8c-.27,4.43-.88,8.74-3.28,12.58-2.73,4.36-6.53,6.93-11.84,6.73a10.84,10.84,0,0,1-3.59-.62c-4.41-1.73-6.31-6-4.4-10.79,2.56-6.35,6.95-11.06,13.66-13.21,1.93-.62,4-.75,5.21-2.84.12-.22,1.08-.23,1.48,0a4.44,4.44,0,0,1,2.21,3.29C866.55,90.53,866.65,92.17,866.82,93.8Zm-7.36-.68c-4.4.87-9.63,7.42-10.53,10.62-.07.26-.12.53-.17.8a4,4,0,0,0,2.18,4.46,3.84,3.84,0,0,0,3.55.07c3.41-1.39,5.2-4.17,6.89-7.27s1.52-5.42-.87-7.78C860.22,93.74,859.89,93.49,859.46,93.12Z"/><path d="M650.24,157.42a18.12,18.12,0,0,1-7.86,6.13,29.39,29.39,0,0,1-8.31,2c-3.85.44-5.61-1.23-6-5a9.69,9.69,0,0,1,1.88-7.23c2.18-3,4.09-6.11,6.79-8.67a10.73,10.73,0,0,1,5.78-2.87c2.31-.37,3.64.75,3.79,3.1.48,7.26-3.94,11.92-9.27,13.19a10.46,10.46,0,0,0-2.29.83,1.22,1.22,0,0,0-.47,1,1.38,1.38,0,0,0,.76.85,6.33,6.33,0,0,0,4.8-.17c1.64-.69,3.22-1.5,4.85-2.21a28.45,28.45,0,0,1,3.42-1.33C648.56,156.93,649.12,157.21,650.24,157.42Z"/><path d="M483.8,96.57c-1.06.83-1.49,1.4-2.05,1.58a30.18,30.18,0,0,1-14.18,1.14c-4.52-.69-6.06-4.2-5.44-7.69a15.1,15.1,0,0,1,1.39-4.26A24.37,24.37,0,0,1,474.61,76.2a10.59,10.59,0,0,1,4.34-1c2.59-.08,3.59.89,4.25,3.45a11.08,11.08,0,0,0,.87,2.7c1,1.75.45,3.18-.74,4.46a10.15,10.15,0,0,1-2.55,2,20.75,20.75,0,0,1-8.55,2.69,18,18,0,0,0-2.84.33,2,2,0,0,0-1,3.48,6.16,6.16,0,0,0,2.09,1.21,14.88,14.88,0,0,0,7.29.59A10.13,10.13,0,0,1,483.8,96.57ZM471.24,85.66c3.28,0,5.82-.82,7.83-3.1a1.37,1.37,0,0,0,.4-.69c0-.52.15-1.17-.11-1.52a1.56,1.56,0,0,0-1.39-.52,11.67,11.67,0,0,0-3.21,1.67C473.45,82.56,471.89,83.51,471.24,85.66Z"/><path d="M567.23,163.7a4.57,4.57,0,0,1-.85.6c-3.22,1.19-4.68.22-4.56-3.21.07-2,.58-4.07.67-6.11a59.66,59.66,0,0,0-.19-6.12,4.62,4.62,0,0,0-.54-1.52,1.14,1.14,0,0,0-1.75-.29,9.11,9.11,0,0,0-1.26,2.06,29.24,29.24,0,0,0-2,10.42,3.67,3.67,0,0,1-2.16,3.62c-1.6.76-3.12.12-3.34-1.68a31.14,31.14,0,0,1-.21-5.29c.16-3.82.43-7.64.69-11.46a10.36,10.36,0,0,1,.39-2.42,3.18,3.18,0,0,1,3.74-2.42,19.19,19.19,0,0,0,4.48.06,5.4,5.4,0,0,1,5.55,3.41,13.27,13.27,0,0,1,1.21,3.9c.37,3.09.9,6.15.23,9.34C566.86,158.8,567.23,161.18,567.23,163.7Z"/><path d="M876.75,89.18a17.07,17.07,0,0,0,1.83-1c2-1.5,4.08-1.28,6.22-.43,3.93,1.57,5.75,4.31,5.69,8.53,0,3.42-.06,6.84-.12,10.25a6.18,6.18,0,0,1-.29,2.41,2.06,2.06,0,0,1-1.57,1c-.53,0-1.45-.55-1.54-1a23.7,23.7,0,0,1-.37-4.46,25.76,25.76,0,0,0-.85-7.71,5.53,5.53,0,0,0-2.33-3.24,2.24,2.24,0,0,0-3.24.59,9.41,9.41,0,0,0-1,2.19q-1.82,5-3.55,10a4.55,4.55,0,0,1-1.87,2.59,2.3,2.3,0,0,1-3.55-1.42,5.87,5.87,0,0,1-.09-2.43,66.49,66.49,0,0,0,1-11,6.34,6.34,0,0,0-.94-4.23,1.69,1.69,0,0,1,1.37-2.66,6.86,6.86,0,0,1,2.76.46A14.36,14.36,0,0,1,876.75,89.18Z"/><path d="M408.12,85.8a20,20,0,0,1-1.76,8.14,12,12,0,0,1-8,7.14,17.27,17.27,0,0,1-6.89.71,4,4,0,0,1-3.64-2.85,13.7,13.7,0,0,1-.14-8.47c1.37-5,4.31-9.14,7.8-12.83,2.77-2.94,6.51-2.86,9.49-.13C407.58,79.85,408.15,81.32,408.12,85.8ZM404,85.2a12.45,12.45,0,0,0-.76-3c-1-2.14-3.07-2.45-4.62-.68a24.22,24.22,0,0,0-5.09,7.87,25.59,25.59,0,0,0-1.27,4.31c-.49,3.23,1.22,4.68,4.3,3.73a7.75,7.75,0,0,0,2.5-1.34C402.26,93.54,403.9,90.21,404,85.2Z"/><path d="M933.52,155.19c-.43,5.5-1.79,9.95-5.22,13.68a16.46,16.46,0,0,1-12.4,5.39,2.65,2.65,0,0,1-3-2.59,8.42,8.42,0,0,1,.89-5.17c1.42-2.49,2.89-5,4.43-7.37,1.25-2,2.57-3.87,4-5.7a13.73,13.73,0,0,1,2.7-2.45c1.57-1.16,3.44-2.3,5.29-1.24C932.33,151,934,152.87,933.52,155.19ZM928.14,157c-.49.1-1,.05-1.24.27a33.83,33.83,0,0,0-7.68,10.38,1.14,1.14,0,0,0,.19,1.08,1.21,1.21,0,0,0,1.07.23,14.42,14.42,0,0,0,7.43-7.2A5.41,5.41,0,0,0,928.14,157Z"/><path d="M805.5,105.59A14.55,14.55,0,0,1,808,97.08a34.55,34.55,0,0,1,7.88-8.3,13.41,13.41,0,0,1,6-2.47,2.31,2.31,0,0,1,2.68,1.43c1.14,2.7,1.34,5.23-1,7.59-2.45,2.52-5.11,4.57-8.65,5.18a4.36,4.36,0,0,0-3.56,2.45,3.82,3.82,0,0,0,.23,4.26,3.43,3.43,0,0,0,3.71,1.18c1.45-.36,2.86-1,4.31-1.34a23,23,0,0,1,3.19-.61c.5-.07.95.84.62,1.22a7.54,7.54,0,0,1-1.72,1.71,20.7,20.7,0,0,1-10.12,3c-3.85.07-5.82-1.74-6.13-5.59C805.47,106.42,805.5,106,805.5,105.59Z"/><path d="M375.29,146.79a14.42,14.42,0,0,1,6-11.86c1.83-1.43,3.75-2.74,6.24-2.84a3.76,3.76,0,0,1,3.71,2,8.38,8.38,0,0,1,.49,6.76,31.15,31.15,0,0,1-2.4,5.19,1.82,1.82,0,0,1-.92.76,1.55,1.55,0,0,1-1.14,0c-.3-.15-.67-.64-.62-.92.19-1.06.58-2.08.82-3.13a27.44,27.44,0,0,0,.74-4,1.63,1.63,0,0,0-2.29-1.53,4.38,4.38,0,0,0-1.38.83,14.36,14.36,0,0,0-3.45,5c-1.37,3.39-.5,6.15,1.89,8.61,1.62,1.66,3.37,3.2,5,4.88a13.4,13.4,0,0,1,2.15,2.93,2.22,2.22,0,0,1-1.18,3.08,7.33,7.33,0,0,1-9.42-3.34,1.91,1.91,0,0,1-.26-1.18c.55-2-.54-3.4-1.7-4.78A10,10,0,0,1,375.29,146.79Z"/><path d="M548.41,156.42c0,.49.27,1.1.06,1.41a9.46,9.46,0,0,1-2.13,2.44,20.65,20.65,0,0,1-12.58,4.28c-2.18-.05-3.36-.82-4-2.86a11.34,11.34,0,0,1-.43-3.62c0-1.35.5-2.69.63-4a6.66,6.66,0,0,1,2.14-4.27c1.85-1.82,3.57-3.77,5.26-5.75a13.44,13.44,0,0,1,6.21-3.8,3.39,3.39,0,0,1,4.2,3.24,7,7,0,0,1-.4,2.41c-1.81,4.7-4.73,8.24-10,9.3-2.28.47-3,1.22-3.2,3.05-.2,2.14,1.14,3.5,3.24,3a19.5,19.5,0,0,0,7.51-3.14C546,157.43,546.76,156.39,548.41,156.42Z"/><path d="M382.52,75.58c-.93,1.55-.64,3.09-.64,4.58,0,6.44.1,12.88.14,19.32a25.56,25.56,0,0,1-.15,3.28,2.29,2.29,0,0,1-2.22,2,2.24,2.24,0,0,1-2.23-2,18.12,18.12,0,0,1-.19-2.45q-.44-9.86-.86-19.72c0-.41,0-.82-.06-1.23-.26-3.3-.54-3.57-4-3.84a5.79,5.79,0,0,1-1.63-.15c-.45-.17-1-.57-1.12-1a1.9,1.9,0,0,1,.63-1.39,6,6,0,0,1,1.72-1.1,32.75,32.75,0,0,1,14.38-2.76,4.58,4.58,0,0,1,1.95.55,1.92,1.92,0,0,1,.13,3.36,34.85,34.85,0,0,1-3.73,1.69C383.92,75.1,383.15,75.35,382.52,75.58Z"/><path d="M909.68,152.73a39.31,39.31,0,0,1,4.19-.38,2.22,2.22,0,0,1,2.19,1.55,2,2,0,0,1-1,2.47,12.91,12.91,0,0,1-3.66,1.73c-3.25.81-4.74,2.88-5.09,6.08-.27,2.43-.81,4.84-1,7.28-.18,2.24-1.12,2.94-2.93,3.32a1.92,1.92,0,0,1-2.57-1.86,56.07,56.07,0,0,1,.25-7.33c.22-2,.71-4-.3-6,2.13-2.12,2.85-4.74,3.44-7.42.5-2.27,1.1-4.51,1.5-6.8a6.68,6.68,0,0,1,3.26-4.49,2.25,2.25,0,0,1,3.67,1.61,6.09,6.09,0,0,1-.22,2.39c-.4,1.59-1,3.13-1.38,4.72A25.17,25.17,0,0,0,909.68,152.73Z"/><path d="M609,106.13a9.09,9.09,0,0,1-1.66,1c-2.06.63-3.29.13-3.8-1.88a35.56,35.56,0,0,1-1.11-6.86c-.14-2.87.11-5.75.17-8.62,0-.54,0-1.09-.08-1.81l-3.09-2.42a1.73,1.73,0,0,1,1.43-2.15c2.38-.74,3.11-2.47,3.09-4.74,0-1.09,0-2.19.07-3.28a5.4,5.4,0,0,1,2-3.93,2.49,2.49,0,0,1,2.66-.58c.84.31,1.28,1.12,1.07,2.39A12.72,12.72,0,0,0,610,80c1.26-.2,2.43-.44,3.61-.55.82-.07,1.81,0,2,.95a4,4,0,0,1-.23,2.33A3.55,3.55,0,0,1,614,84.05a11,11,0,0,1-2.62,1.16c-2,.57-2.65,2-3,3.93A43.23,43.23,0,0,0,609,106.13Z"/><path d="M895.39,97.53a48.7,48.7,0,0,1,1.59-12c.82-3.45,1.56-6.93,2.53-10.34a12.11,12.11,0,0,1,2-3.5,2.22,2.22,0,0,1,2.56-.88,2,2,0,0,1,1.34,2.29,38.37,38.37,0,0,1-.92,6.06,106.38,106.38,0,0,0-2.89,13.2c-.75,5.15-1.5,10.28.1,15.42a1.69,1.69,0,0,1-.78,2.12,2.72,2.72,0,0,1-3.39-.31,7.49,7.49,0,0,1-.95-1.79C895.32,104.72,895.31,101.43,895.39,97.53Z"/><path d="M507,78.54c1.54-.46,3-1,4.42-1.31a10.8,10.8,0,0,1,8.33,1.18,5.62,5.62,0,0,1,1.81,2.11,1.5,1.5,0,0,1-1.63,2.1c-.93-.19-1.81-.64-2.75-.8a20.26,20.26,0,0,0-4.44-.48,5.06,5.06,0,0,0-4.85,3.79,26.17,26.17,0,0,0-.93,5.63c-.11,1.91.24,3.84.2,5.75a7.81,7.81,0,0,1-.74,3.12,2.47,2.47,0,0,1-2.82,1.22,2.25,2.25,0,0,1-1.9-1.93,50.44,50.44,0,0,1-.81-6.1c-.17-3.69-.16-7.4-.18-11.1a5.54,5.54,0,0,1,1-3.89,2.31,2.31,0,0,1,3.24-.59C505.62,77.64,506.28,78.1,507,78.54Z"/><path d="M777.7,87.88a9.88,9.88,0,0,1-.58-5.09c.16-2.85.49-5.69.93-8.51a5.22,5.22,0,0,1,1.34-2.44,2.61,2.61,0,0,1,3-.44,2,2,0,0,1,1.34,2.28,42.8,42.8,0,0,1-3,12.25A2.85,2.85,0,0,1,777.7,87.88Z"/><path d="M709.71,139.91a2.66,2.66,0,0,1,1.54-2.62,2.22,2.22,0,0,1,2.84.76,3.19,3.19,0,0,1-.59,4,2.48,2.48,0,0,1-2.61.64c-.88-.34-1-1.22-1.1-2A7.22,7.22,0,0,1,709.71,139.91Z"/><path d="M957.44,170.44c.32-.35.6-.85,1-1.05a3,3,0,0,1,1.56-.17c1.46.16,2.65,1,2.74,2s-.67,1.39-1.46,1.67a2.52,2.52,0,0,1-3.45-1.16A6.17,6.17,0,0,1,957.44,170.44Z"/><path d="M408.32,143.07a1.34,1.34,0,0,1,.21,2c-1,1.42-1.28,1.53-3.91,1.76A6.24,6.24,0,0,1,408.32,143.07Z" style="fill:#fff"/><path d="M427.43,145c-1.2,1.87-3,2.43-4.84,3.47C424.29,145.66,424.66,145.39,427.43,145Z" style="fill:#fff"/><path d="M757.11,93a9.71,9.71,0,0,1,5.08-5C762.27,91.5,761.11,92.65,757.11,93Z" style="fill:#fff"/><path d="M648.3,99.64a28.8,28.8,0,0,1,8.28-11.3,1.16,1.16,0,0,1,.89,1.55,10.55,10.55,0,0,1-1.1,3,20.71,20.71,0,0,1-6.54,6.6C649.55,99.68,649.09,99.58,648.3,99.64Z" style="fill:#fff"/><path d="M845.38,158.29c-.77,3.7-2.29,7.4-5.78,10-.66.49-1.59.82-2.24.14a3.09,3.09,0,0,1-1-2.08c.43-4.18,1.89-7.93,5.26-10.66,1.56-1.27,3.27-.57,3.63,1.4C845.33,157.33,845.33,157.61,845.38,158.29Z" style="fill:#fff"/><path d="M541.32,95c.59-2.22,1-4.48,1.79-6.65,1.17-3.4,3.41-6.18,5.72-8.87a2.45,2.45,0,0,1,2.88-1,2.58,2.58,0,0,1,1.26,2.8,22,22,0,0,1-7.37,15,5.88,5.88,0,0,1-1.33.93c-1.5.78-2.66,0-2.67-1.73v-.41Z" style="fill:#fff"/><path d="M524.74,93.47A21.37,21.37,0,0,1,528,83.88a1.77,1.77,0,0,1,3.25.19c2.55,5.19,1.28,8.56-3.16,11.48a3.39,3.39,0,0,1-1.15.38,1.7,1.7,0,0,1-2.19-1.71C524.73,94,524.74,93.68,524.74,93.47Z" style="fill:#fff"/><path d="M941.47,167.42c-.16-.56-.36-.86-.28-1,1.09-2.77,2.18-5.54,3.37-8.26a1.59,1.59,0,0,1,1.28-.73,1.77,1.77,0,0,1,1.24.84C949.35,162.53,946.74,166.9,941.47,167.42Z" style="fill:#fff"/><path d="M761.11,161.6c.76-1.88,1.56-2.92,2.9-3.45a.82.82,0,0,1,.72.15.78.78,0,0,1,.27.69C764.41,160.48,763.36,161.37,761.11,161.6Z" style="fill:#fff"/><path d="M859.46,93.12c.43.37.76.62,1,.9,2.39,2.36,2.49,4.8.87,7.78s-3.48,5.88-6.89,7.27a3.84,3.84,0,0,1-3.55-.07,4,4,0,0,1-2.18-4.46c0-.27.1-.54.17-.8C849.83,100.54,855.06,94,859.46,93.12Z" style="fill:#fff"/><path d="M471.24,85.66c.65-2.15,2.21-3.1,3.52-4.16A11.67,11.67,0,0,1,478,79.83a1.56,1.56,0,0,1,1.39.52c.26.35.15,1,.11,1.52a1.37,1.37,0,0,1-.4.69C477.06,84.84,474.52,85.7,471.24,85.66Z" style="fill:#fff"/><path d="M404,85.2c-.1,5-1.74,8.34-4.94,10.86a7.75,7.75,0,0,1-2.5,1.34c-3.08.95-4.79-.5-4.3-3.73a25.59,25.59,0,0,1,1.27-4.31,24.22,24.22,0,0,1,5.09-7.87c1.55-1.77,3.63-1.46,4.62.68A12.45,12.45,0,0,1,404,85.2Z" style="fill:#fff"/><path d="M928.14,157a5.41,5.41,0,0,1-.23,4.76,14.42,14.42,0,0,1-7.43,7.2,1.21,1.21,0,0,1-1.07-.23,1.14,1.14,0,0,1-.19-1.08,33.83,33.83,0,0,1,7.68-10.38C927.16,157,927.65,157.08,928.14,157Z" style="fill:#fff"/><path d="M772.68,151.11h3.79c1.38-.94,2.1-2.45,3.11-3.72a20.14,20.14,0,0,1,3.33-3.56c3.39-2.59,7.37-1.33,8.85,2.66.2.51.38,1,.62,1.52a3,3,0,0,1-.54,3.43c-2.09,2.57-4.39,4.89-7.75,5.77-.26.07-.53.12-.79.21-2.1.67-2.56,1.24-2.56,3.11,0,2.06.69,3.24,2.63,3.57a22,22,0,0,0,4.86,0c1.87-.12,3.62-1.11,6-.91-.49.67-.67,1.18-1,1.38a27.06,27.06,0,0,1-9.63,3.33,13.66,13.66,0,0,1-2.85.18,5.41,5.41,0,0,1-5.21-3.91,3.88,3.88,0,0,1-.26-.77,47,47,0,0,0-.58-6.09C774.28,155.35,772.41,153.88,772.68,151.11Zm10.56,1.75a7.19,7.19,0,0,0,4.3-3.48,1.51,1.51,0,0,0-.38-2.12,1.31,1.31,0,0,0-1.81.27,37.83,37.83,0,0,0-2.46,4.11C782.76,151.87,783.07,152.33,783.24,152.86Z"/><path d="M783.24,152.86c-.17-.53-.48-1-.35-1.22a37.83,37.83,0,0,1,2.46-4.11,1.31,1.31,0,0,1,1.81-.27,1.51,1.51,0,0,1,.38,2.12A7.19,7.19,0,0,1,783.24,152.86Z" style="fill:#fff"/><path d="M812.06,172.25a28.75,28.75,0,0,1-2.08-3.68,18.93,18.93,0,0,1-.71-3.38c-1.21-.85-2-.19-2.87.21-1.86.87-3.65,1.92-5.57,2.61-2.82,1-4.84.1-6-2.66a10.55,10.55,0,0,1-.93-4.36,22.08,22.08,0,0,1,2.89-10.59,26.73,26.73,0,0,1,4.21-6c1.8-1.72,3.67-2.86,6.26-2.09a5.33,5.33,0,0,0,1.39-.06,9.81,9.81,0,0,0,.86-2.17c.31-2.16.59-4.34.69-6.52a11.87,11.87,0,0,1,1.41-5.1,1.56,1.56,0,0,1,2.42-.58,5.6,5.6,0,0,1,2.65,4.42c.16,7.11.94,14.27-1.33,21.22-1.37,4.17-.82,8.41-.56,12.64a7.48,7.48,0,0,0,.4,1.58C816.18,170.81,816.07,171,812.06,172.25ZM809,153.62a9.73,9.73,0,0,0,0-2.1,11.89,11.89,0,0,0-1-3.06,2.35,2.35,0,0,0-3.8-.68,4.74,4.74,0,0,0-.88.85,22,22,0,0,0-4.12,12.24c0,1.7,1.32,2.57,2.76,1.73a37.91,37.91,0,0,0,4.66-3.32C808.29,157.83,809.41,156,809,153.62Z"/></g></svg>
