<svg xmlns="http://www.w3.org/2000/svg" viewBox="0 0 1366 768"><g id="Layer_9" data-name="Layer 9"><g id="behind"><path d="M809.84,153.32c-6.24.28-12.48,0-18.72.13-28.8.69-57.6.22-86.4.54-17.2.19-34.4.64-51.6.32-11.12-.2-22.25-.49-33.37-1.26-13.86-.94-27.67-2.36-41.51-3.48-10.23-.83-20.46-1.55-30.72-1.92-7.12-.26-14.24-.59-21.36-.68-35.76-.48-71.52-.16-107.28-.25a27.53,27.53,0,0,0-20.2,8.12c-4.24,4.18-8.39,8.47-13.39,11.82a47.25,47.25,0,0,1-19.93,7.15A113.41,113.41,0,0,1,343.28,175c-8.8-.46-17.62-.5-26.4-1.31-5-.46-10.1-.32-15.11-.81-5.44-.54-10.92-.53-16.34-1.34-2.2-.33-4.48-.29-6.72-.45-6.25-.46-12.47-1.2-18.72-1.68-3.91-.3-7.78-1.31-11.75-.8" style="fill:none;stroke:#000;stroke-linecap:round;stroke-linejoin:round;stroke-width:2px"/><path d="M247.76,82.28c2.16.12,4.32.32,6.48.35,15.68.18,31.36.22,47,.53l26.16.49c7.76.15,15.52.28,23.28.48,10,.26,20,.42,30,.69,9.52.25,19,.51,28.56.73,8.56.19,17.12.49,25.68.73,10.48.29,21,.63,31.44,1,9.44.29,18.88.68,28.32,1,10.4.28,20.8.78,31.2,1.17,6.48.24,13,.46,19.44.79,9.68.49,19.37.64,29,1.3,4.07.28,8.16.35,12.24.52,10,.42,20,.7,30,1.44,3.43.25,6.9.32,10.32.39,5.21.1,10.4.53,15.6.68,6.88.2,13.76.62,20.64,1,5.27.27,10.57.47,15.84.89,7.51.6,15.05.83,22.57,1.33,5.26.35,10.55.54,15.83.83,10.56.58,21.12,1.29,31.68,1.89,9,.52,18.09.89,27.12,1.48,5.44.36,10.89.63,16.31,1.07,2.63.21,5.33-.09,7.93.58" style="fill:none;stroke:#000;stroke-linecap:round;stroke-linejoin:round;stroke-width:2px"/><path d="M803.12,109a14.63,14.63,0,0,1,12.26,5.51c.32.42,0,.66-.06,1a9,9,0,0,0,1.23,4.32q7.68,15.38,14.91,30.95,12.9,27.68,24.43,55.94c5.47,13.33,10.62,26.79,15.69,40.29q10,26.68,18.87,53.79,8.25,25.26,15.46,50.85c4.82,17.06,9.4,34.17,13.58,51.39Q924,421.8,928,440.71q3.07,14.63,5.92,29.29c1.66,8.54,3.22,17.09,4.6,25.68,1,6.49,2.44,12.93,3.28,19.45.76,5.92,1.75,11.82,2.52,17.74.69,5.29,1.6,10.57,2.23,15.86.54,4.55,1.31,9.08,1.59,13.67a86,86,0,0,0,1.2,9.59c.34,1.92.4,3.88.57,5.78.5,5.76,1.25,11.49,1.65,17.26.34,4.88.93,9.76,1.35,14.65.08,1,.7,1.85.47,2.88" style="fill:none;stroke:#000;stroke-linecap:round;stroke-linejoin:round;stroke-width:2px"/><path d="M958.88,605.12c3.39.11,6.72.82,10.08,1.19q10.42,1.14,20.88,2c8.31.65,16.64.67,25,.87,6.15.15,12.32-.21,18.48-.45,2-.08,2.7-1.19,2.4-3.33-1-7.14-2.86-14.09-4.39-21.11-2-9-4.36-17.94-6.66-26.89-3.4-13.19-7.14-26.3-10.94-39.39-5.43-18.69-11.4-37.21-17.63-55.64q-7.84-23.19-16.56-46.08C970.43,392.31,961,368.51,951,344.94c-5.58-13.14-11.13-26.27-16.81-39.36Q925,284.39,915.5,263.33c-4.86-10.81-9.83-21.56-15.21-32.11a427.34,427.34,0,0,0-26.39-44.88c-10.48-15.55-21.55-30.67-32.84-45.64-5.52-7.31-10.76-14.85-17.29-21.35-1.29-1.29-2.75-2.37-4.09-3.6a4.49,4.49,0,0,0-3.84-1" style="fill:none;stroke:#000;stroke-linecap:round;stroke-linejoin:round;stroke-width:2px"/><path d="M667,36.56a168.85,168.85,0,0,0-18-.3l-66.48.68c-14.24.15-28.5-.18-42.72.44-13.85.6-27.7-.2-41.52.46-14.64.71-29.3-.18-43.92.49-14.4.65-28.81-.15-43.2.47s-28.49-.08-42.72.47c-14,.55-28,0-42,.47-14.8.47-29.61.08-44.4.51-11.6.33-23.21.07-34.8.61-.15,0-.32-.22-.48-.34" style="fill:none;stroke:#000;stroke-linecap:round;stroke-linejoin:round;stroke-width:2px"/><path d="M659.36,45.92c-4.32.24-8.64.72-13,.66-5.3-.07-10.56.44-15.84.57-12.64.31-25.29.65-37.92,1.23-5,.22-9.92.19-14.88.36-13.76.44-27.52.66-41.28.85-14.48.21-29,.56-43.44.37-11-.15-22.08-.24-33.12-.5-9.6-.24-19.2-.38-28.8-.66-10.16-.29-20.32-.52-30.48-.78-11.44-.3-22.88-.39-34.32-.69-17-.44-33.92-.16-50.88-.17-8.24,0-16.49.31-24.72.71-9.44.47-18.89.88-28.33,1.58-5,.38-10.08.69-15.1,1.17-2.38.23-4.91-.25-7.21.82" style="fill:none;stroke:#000;stroke-linecap:round;stroke-linejoin:round;stroke-width:2px"/><path d="M809.48,143.84c-.9-5.18-5-6.85-9.26-7.85-5.56-1.32-11.33-1.26-17-1.73s-11.36-.81-17-1.22c-5.28-.39-10.56-.77-15.84-1.21-5.68-.47-11.38-.65-17.05-1.39-2.37-.31-4.81-.32-7.19-.41-5.62-.22-11.19-.84-16.8-1.14-7-.38-14.07-1-21.12-1.43-4.56-.28-9.13-.55-13.67-1-5.68-.55-11.39-.52-17.06-1.29a71.53,71.53,0,0,0-8.15-.42c-4.33-.11-8.66-.41-12.95-.72-6.72-.49-13.49-.33-20.17-1.32a2.57,2.57,0,0,0-.48,0c-5.61.3-11.22-.27-16.79-.6-9.6-.56-19.23-.46-28.81-1.28-3.18-.27-6.41.1-9.6-.07-11-.58-21.92-.26-32.88-.52-6.8-.15-13.61-.3-20.4-.1-8,.22-16-.06-24,.19-12.4.39-24.81.84-37.2,1.47-5.52.28-11,.65-16.56,1-4.24.25-8.46.81-12.72.89" style="fill:none;stroke:#000;stroke-linecap:round;stroke-linejoin:round;stroke-width:2px"/><path d="M250.16,65.12c5.85.17,11.67.75,17.52,1,4.8.24,9.59.68,14.4,1,5,.28,9.92.59,14.88,1,10.15.75,20.32,1.29,30.48,1.86,12.16.68,24.32,1.48,36.48,2.13,8.88.48,17.76.77,26.64,1.23C403.28,74,416,74.55,428.72,75c7.84.26,15.68.63,23.52,1,11.92.5,23.84.93,35.76,1.21,7.12.17,14.24.5,21.36.7,9.76.27,19.52.39,29.28.78,3.52.14,7,.1,10.56.19,11.76.3,23.53.19,35.27.62,11.06.4,22.1,0,33.13.37,9,.35,17.92.08,26.88.21.64,0,1.28.08,1.92.12" style="fill:none;stroke:#000;stroke-linecap:round;stroke-linejoin:round;stroke-width:2px"/><path d="M763.28,193.52c-7.92,0-15.85-.21-23.76,0-29.12.9-58.24.06-87.36.49q-28.08.42-56.16.11c-15.76-.15-31.52.15-47.28-.21-12.72-.29-25.45.16-38.16-.25-14.48-.46-29-.26-43.44-.48-4.64-.07-9.28-.09-13.92-.18" style="fill:none;stroke:#000;stroke-linecap:round;stroke-linejoin:round;stroke-width:2px"/><path d="M399.2,119.84c-2.46,4.67-3.75,9.8-5.78,14.63-1.51,3.6-2.46,7.41-4.47,10.85-2.2,3.75-5.54,5.53-9.44,6.38-4.56,1-9.26,1.08-13.91,1.53-8.14.78-16.32,1.1-24.48,1.63-2.63.17-5.28.13-7.92.21-6.64.22-13.29.44-19.92.24-10.8-.33-21.61-.51-32.41-1.32-9.69-.73-19.38-1.47-29-2.7a17.29,17.29,0,0,0-2.16,0" style="fill:none;stroke:#000;stroke-linecap:round;stroke-linejoin:round;stroke-width:2px"/><path d="M1090.16,757.52c-2.21.49-2.51-1-2.9-2.63-2.66-11.16-5.63-22.24-8.44-33.35q-8.83-34.86-14.55-70.34c-.92-5.81-1.39-11.69-2.21-17.52-.7-4.89-1.63-9.71-4.52-13.94a15.91,15.91,0,0,0-10.81-7.23,11.93,11.93,0,0,0-4.81.31,12.37,12.37,0,0,1-3.12.7" style="fill:none;stroke:#000;stroke-linecap:round;stroke-linejoin:round;stroke-width:2px"/><path d="M1049.36,759.68c2.09.36,2.94-.62,2.88-2.64-.27-10,.35-20-.4-30-.45-5.84-.78-11.7-1.57-17.5-1.82-13.33-4.32-26.48-10.49-38.66-6.27-12.39-15.56-21.15-29-25.22a86.63,86.63,0,0,0-20.89-3.32c-3.52-.17-7-.61-10.56-.49" style="fill:none;stroke:#000;stroke-linecap:round;stroke-linejoin:round;stroke-width:2px"/><path d="M960.08,610.16c.22,10.41,1,20.79,1.32,31.2.22,8.15.43,16.32.86,24.48.45,8.56.1,17.12.42,25.68.67,17.75.21,35.52.24,53.28,0,6.72-.44,13.44-.68,20.16" style="fill:none;stroke:#000;stroke-linecap:round;stroke-linejoin:round;stroke-width:2px"/><path d="M374.48,222.8c-10.17-.21-20.32-.94-30.48-1.43-5-.23-9.92-.35-14.88-.49-11.6-.31-23.21-.47-34.8-.85s-23.2-.12-34.8-.35" style="fill:none;stroke:#000;stroke-linecap:round;stroke-linejoin:round;stroke-width:2px"/><path d="M757.28,95.84c0-2.51.71-4.91.79-7.44.4-13.28-3.34-24.84-13.52-33.82A18.83,18.83,0,0,0,731.84,50h-4.08c-.88,0-2-.21-2.09-1-.48-4-3.88-5.55-6.39-7.57-5-4.08-11.09-6.36-17.44-7.8a82.77,82.77,0,0,0-23.76-1.43c-2.08.14-4.16-.1-6.24.23-3.17.5-4.44,1.2-4.46,4.1,0,4.15-1.84,7.81-2.56,11.75-.11.61-.49,1.29-.63,1.94-.58,2.68-.81,2.92-3.63,3.11" style="fill:none;stroke:#000;stroke-linecap:round;stroke-linejoin:round;stroke-width:2px"/><path d="M1002.8,460.88a1.34,1.34,0,0,0,.93,1.51c9.11,4.54,16.44,11.08,20.86,20.35,4.65,9.74,5.2,19.64.09,29.52-1,1.92-2.09,3.09-4.36,2.62" style="fill:none;stroke:#000;stroke-linecap:round;stroke-linejoin:round;stroke-width:2px"/><path d="M429.2,202.64c-3.19-.17-6.26-1.13-9.34-1.79A31.85,31.85,0,0,0,393.91,206c-3,2-5.63,4.43-8.39,6.73a5,5,0,0,1-3.36,1.44" style="fill:none;stroke:#000;stroke-linecap:round;stroke-linejoin:round;stroke-width:2px"/><path d="M699.92,68.24l-2.62-1.32c-10.79,12.71-26,14.91-41.3,16.92" style="fill:none;stroke:#000;stroke-linecap:round;stroke-linejoin:round;stroke-width:2px"/><path d="M691.52,65.12c1.28-5.52-3-10.46-7.92-12.73s-10.24-1.5-15.34-.38a8.84,8.84,0,0,1-4.1-.09" style="fill:none;stroke:#000;stroke-linecap:round;stroke-linejoin:round;stroke-width:2px"/><path d="M725.84,49.52c-2.27,1.44-5,1.4-7.44,2.4-6.81,2.85-12.31,7.1-16.16,13.63a27.58,27.58,0,0,0-3.77,16.37c.06.88,0,1.76,0,2.64" style="fill:none;stroke:#000;stroke-linecap:round;stroke-linejoin:round;stroke-width:2px"/><path d="M800.72,163.76a7.91,7.91,0,0,0-2.67,1.41,111.71,111.71,0,0,0-18.67,22.36,4.74,4.74,0,0,1-1.46,1.43" style="fill:none;stroke:#000;stroke-linecap:round;stroke-linejoin:round;stroke-width:2px"/></g></g></svg>
