<?xml version="1.0" encoding="utf-8"?>
<!-- Generator: Adobe Illustrator 24.0.1, SVG Export Plug-In . SVG Version: 6.00 Build 0)  -->
<svg version="1.1" xmlns="http://www.w3.org/2000/svg" xmlns:xlink="http://www.w3.org/1999/xlink" x="0px" y="0px"
	 viewBox="0 0 1366 768" style="enable-background:new 0 0 1366 768;" xml:space="preserve">
<style type="text/css">
	.st0{fill:none;stroke:#000000;stroke-width:2;stroke-linecap:round;stroke-linejoin:round;}
</style>
<g id="Layer_1">
	<g id="Layer_9">
		<g id="font">
			<path class="st0" d="M755.8,634.4H741c-11.9-0.2-23.8-1.2-35.5-3.2c-16.1-2.5-32.1-5.7-48-9c-11.5-2.3-23.1-4.3-34.8-5.8
				c-8.6-1.1-17.2-1.8-25.9-2c-8.5-0.2-17-0.2-25.4,0.1c-10,0.4-20,1.2-30,1.8c-8.7,0.5-17.4,1.1-26.2,1.6
				c-10.6,0.6-21.3,1.1-31.9,1.8c-4.4,0.3-8.8,0.4-13.2,0.6c-12.3,0.4-24.6,1-37,1.4c-4.1,0.1-8.2,0.1-12.2,0.2
				c-9.9,0.3-19.9,0.2-29.8,0.6c-6.1,0.2-12.2,0-18.2,0.2c-10,0.3-20,0.4-30,0.2c-14.2-0.3-28.3-0.3-42.5-0.1
				c-10,0.1-19.8,1.6-28.8,6.4c-10.5,5.7-17.2,14.3-18.9,26.2c-0.9,5.7,0.8,11.4,4.5,15.8c3.6,4.1,7.5,5.7,14.1,0.8
				c2.4-1.8,4.5-3.8,7.2-5.3c5.5-3.3,11.7-4.3,17.8-5.5c8.5-1.5,17.1-2.8,25.7-4.2c5.8-0.9,11.6-1.8,17.5-2.5
				c4.8-0.6,9.6-1.4,14.4-2.1l11.5-1.7c5.7-0.8,11.4-1.5,17-2.3c4.1-0.6,8.1-1.2,12.2-1.5c4.7-0.3,9.4-1.1,14.1-1.6
				c4.4-0.4,8.8-1.4,13.2-1.4c3.6,0,6.8-1,10.3-1.2c7.7-0.5,15.4-1.4,23-2.1c2.7-0.2,5.5-0.2,8.1-0.7c1.5-0.3,3.1-0.1,4.3,0.8"/>
			<path class="st0" d="M533.1,770c0-0.8,0.2-1.6,0.4-2.4c4.3-9.5,2.7-18.5-2.6-27.1c-5.2-8.4-13.1-13.4-22.1-16.8
				c-7.4-2.6-15-4.4-22.8-5.3c-5.7-0.8-11.3-1.5-17-2c-4.4-0.4-8.8-0.7-13.2-1c-13-0.8-26.1-1.1-39.1-1.5
				c-7.2-0.2-14.4-0.1-21.6-0.4c-12.9-0.5-25.8-0.6-38.6-1.1c-6.2-0.2-12.3,0-18.5-0.3c-11.7-0.6-23.4-0.8-35-1
				c-8.7-0.2-17.4-0.4-26.2-0.7c-7.4-0.3-14.9-0.1-22.3-0.5c-5.8-0.3-11.5-0.2-17.3-0.4"/>
			<path class="st0" d="M794.5,651.9c-5.7,0.2-11.3-0.6-17-0.8c-5-0.1-10.1-0.8-15.1-0.9c-8.4-0.2-16.8-0.9-25.2-1.1
				c-3.6-0.1-7.2-0.1-10.8-0.4c-9-0.6-17.9-0.7-26.9-1c-9.5-0.3-19-0.7-28.6-0.9c-16.2-0.4-32.3-0.6-48.5-1
				c-22.6-0.5-45.3-0.3-67.9-0.4c-8.2,0-16.3-0.2-24.5,0.1c-6.5,0.2-13-0.2-19.4,0.4c-0.8,0.1-1.6,0-2.4,0"/>
			<path class="st0" d="M661.8,637.3c-8.7-0.2-17.3-1-25.9-1.3c-6.1-0.2-12.2-0.6-18.2-0.8c-16.1-0.5-32.2-0.8-48.2-0.5
				c-8.7,0.2-17.4,0-26.2,0.4c-8.4,0.4-16.8,0.6-25.2,1c-10.5,0.5-21,1-31.4,1.9c-5.1,0.4-10.2,0.7-15.4,1c-1.8,0.1-3.1,0.4-3.2,2.9
				c-0.2,6.2-0.7,12.3-1.1,18.5c-0.4,6-0.7,12-1.2,18c-0.4,3.5-2.3,5-5.7,5c-11.4,0-22.9,0-34.3,0c-2.6,0-3.9-1.2-4.1-3.8
				c-0.4-4.6,0.5-9.1,0.6-13.7c0.3-7,2-13.9,2.2-20.9c0-0.3,0-0.5-0.2-0.7"/>
		</g>
	</g>
</g>
<g id="Layer_2">
	<path d="M536.6,523.2c-1.8,0.5-3.6,1-5.5,0.7c-1.6-0.3-3.1-1-4.3-2c-2.7-2.2-4.2-5.5-4.8-8.9c-0.5-2.9-0.5-6-0.1-8.9
		c0.3-2.6,1.2-6.3,3.8-7.5c1.8-0.8,3.8,0.2,5.2,1.4c1.6,1.3,2.8,3,3.5,5c0.3,0.9,1.8,0.6,1.6-0.4c-0.8-3.6-4.6-7.5-8.3-8
		c-3.9-0.5-6.4,3-7.5,6.3c-1.1,3.5-1.3,7.4-1,11.1c0.4,4.1,1.8,8,4.7,11c3.5,3.6,9.3,4.9,13.7,2.1
		C538.6,524.4,537.8,522.9,536.6,523.2z"/>
	<path d="M555,516.2c-0.3-1-0.5-2-0.7-3.1c-0.2-1-0.2-2.1-0.3-3.2c0,0,0-0.1,0-0.1c0.3,0.6,1.5,0.3,1.3-0.4c-0.8-3-2.8-7.1-6.6-5.7
		c-1.4,0.5-2.5,1.6-3.3,2.7c-1,1.3-1.9,2.9-2.5,4.4c-1.1,2.7-1.9,6.7,0.2,9.1c1.1,1.3,3.2,2,4.9,1.6c1.9-0.4,3.1-1.9,3.9-3.5
		c0.1-0.3,0.2-0.6,0.4-0.8c0.3,1,0.7,2,1.5,2.7c0.6,0.5,1.8,0.3,1.8-0.6C555.8,518.3,555.3,517.2,555,516.2z M550.3,515.5
		c-0.1,0.4-0.3,0.8-0.4,1.1c-0.1,0.2-0.2,0.4-0.2,0.5c-0.1,0.2,0,0.1-0.2,0.4c-0.2,0.3-0.4,0.6-0.6,0.9c0,0-0.2,0.2-0.2,0.3
		c-0.1,0.1-0.2,0.2-0.4,0.3c-0.1,0-0.1,0.1-0.2,0.1c0,0,0,0,0,0c-0.1,0.1-0.3,0.1-0.4,0.2c0,0,0,0,0,0c-0.1,0-0.1,0-0.2,0
		c-0.1,0-0.1,0-0.2,0c0,0-0.1,0-0.1,0c-0.1,0-0.3,0-0.4,0c-0.1,0-0.3-0.1-0.4-0.1c0,0-0.2-0.1-0.2-0.1c-0.1,0-0.1,0-0.2-0.1
		c-0.2-0.1-0.4-0.2-0.6-0.3c0,0,0,0-0.1,0c0,0,0,0,0,0c-0.1-0.1-0.2-0.2-0.3-0.3c0,0,0,0-0.1,0c0,0,0,0,0-0.1
		c-0.1-0.1-0.2-0.3-0.2-0.4c0-0.1-0.1-0.1-0.1-0.2c0-0.1-0.1-0.3-0.1-0.4c-0.1-0.3-0.2-0.6-0.2-0.9c0,0,0,0,0,0c0,0,0,0,0,0
		c0-0.1,0-0.2,0-0.2c0-0.2,0-0.3,0-0.5c0-0.4,0-0.7,0-1.1c0.1-0.8,0.2-1.2,0.3-2c0.4-1.4,0.9-2.9,1.6-4.1c0.7-1.2,1.4-2.2,2.4-3
		c0.3-0.2,0.3-0.2,0.7-0.4c0.1-0.1,0.2-0.1,0.4-0.2c0,0,0.3-0.1,0.3-0.1c0.3-0.1,0.8,0,1.1,0.2c0.3,0.1,0.5,0.3,0.7,0.6
		c-0.2,0.2-0.4,0.5-0.4,0.8c-0.1,1.3-0.1,2.6-0.1,3.9C551.2,512.2,550.9,513.9,550.3,515.5z"/>
	<g>
		<path d="M568.2,505.2c-0.7-0.3-1.4-0.5-2.2-0.4c-1.3,0.2-2.3,1.2-3,2.3c-1.2,2-1.9,4.3-2.3,6.6c-0.7-2.1-1.4-4.2-2.3-6.2
			c-0.3-0.8-1.9-0.5-1.5,0.3c1.5,3.9,2.6,8,3.3,12.2c0.2,1.2,2.3,1,2.4-0.2c0-2.4,0.3-4.6,0.9-6.8c0.3-1.3,0.7-2.7,1.3-3.9
			c0.2-0.3,0.1-0.3,0.3-0.7c0.1-0.2,0.3-0.5,0.5-0.7c0.1-0.1,0.1-0.1,0.2-0.2c0,0,0.1-0.1,0.1-0.1c0.1-0.1,0.1-0.1,0.2-0.2
			c0,0,0.1,0,0.1-0.1c0,0,0.1,0,0.1-0.1c0,0,0.1,0,0.1,0c0.1,0,0.4,0.1,0.1,0c0,0-0.1,0-0.1,0c0,0,0,0,0,0c0,0,0,0,0.1,0
			c0,0,0,0,0,0c0,0,0,0,0,0c0,0,0.1,0,0,0c0.1,0,0.2,0,0.3,0.1c0.1,0,0.1,0.1,0.2,0.1c0.1,0.1,0.3,0.2,0.4,0.2
			c0.2,0.1,0.2,0.2,0.5,0.3c0.3,0.1,0.6,0.1,1,0.1c0.3,0,0.6-0.3,0.6-0.5C569.9,506.3,568.9,505.6,568.2,505.2z"/>
		<path d="M566.6,507.1C566.6,507.1,566.6,507.1,566.6,507.1C566.6,507.1,566.6,507.1,566.6,507.1
			C566.6,507.1,566.6,507.1,566.6,507.1C566.6,507.1,566.6,507.1,566.6,507.1z"/>
	</g>
	<path d="M573.8,504.6c-0.2-0.9-1.7-0.8-1.6,0.1c0.3,2.7,0.2,5.5,0,8.3c-0.1,1.4-0.2,2.8-0.3,4.2c-0.1,1-0.5,2.5,0.2,3.3
		c0.4,0.4,1.2,0.6,1.6,0.1c0.7-0.9,0.5-2.2,0.5-3.3c0-1.4,0-2.8,0-4.3C574.3,510.2,574.3,507.3,573.8,504.6z"/>
	<path d="M575,500.2c0-0.1-0.1-0.1-0.1-0.2c-0.1-0.1-0.1-0.1-0.2-0.2c-0.1-0.1-0.3-0.2-0.5-0.2c-0.1,0-0.3,0-0.4,0.1
		c-0.2,0.1-0.3,0.3-0.4,0.4c0,0.1,0,0.2-0.1,0.2c0,0.1,0,0.1,0,0.2c0,0,0,0,0,0.1c0,0.1,0,0.2,0,0.3c0,0.2,0,0.4,0,0.6
		c0,0.2,0.1,0.4,0.2,0.5c0.1,0.1,0.4,0.2,0.5,0.2c0.2,0,0.4-0.1,0.5-0.2c0.1-0.1,0.2-0.3,0.2-0.5c0-0.2,0-0.4,0-0.6
		c0-0.1,0-0.2,0-0.3c0,0,0-0.1,0-0.1C575.1,500.4,575,500.3,575,500.2z"/>
	<path d="M592.2,523.5c-1.8-1.9-1.3-5.3-1.3-7.6c0.1-2.8,0.5-6.3-1.2-8.7c-1.5-2.2-4.6-3-6.9-1.6c-1.7,1.1-2.9,2.9-3.7,4.8
		c0-0.1,0-0.2,0-0.2c0-0.7-1.1-0.6-1.1,0c-0.1,1.3-0.1,2.7-0.1,4c-0.6,2.4-0.8,5.2,0.3,7.3c0.4,0.9,2.3,0.5,2.2-0.5
		c-0.1-1.2-0.3-2.5-0.5-3.7c0-1.1,0.2-2.2,0.5-3.3c0.6-2.3,1.5-5,3.4-6.4c0.7-0.5,1.4-0.7,2.2-0.5c0.9,0.3,1.6,1,2,1.9
		c1,2.5,0.4,5.5,0.3,8c-0.1,2.8-0.2,6.4,2.6,8C591.8,525.7,593,524.4,592.2,523.5z"/>
	<path d="M608.3,527c-0.4-5.7-0.9-11.5-0.5-17.2c0.1-0.8-0.9-1.3-1.7-1.1c-0.3-1.4-0.8-2.7-1.8-3.9c-0.3-0.4-0.8-0.5-1.3-0.3
		c-2,0.8-3.8,2.5-5.3,4c-1.8,1.8-3.6,3.8-4.3,6.3c-0.7,2.3,0.3,4.4,2.5,5.2c2.6,0.9,5.1-0.7,6.8-2.5c0.5-0.5,1-1.1,1.4-1.7
		c-0.2,0.9-0.4,1.8-0.7,2.7c-0.2,0.8,1.2,1.2,1.4,0.4c0.1-0.3,0.2-0.6,0.2-0.9c0.2,6.5,0.9,13,0.8,19.5c-0.1,4.2-0.3,8.8-2,12.7
		c-0.5,1.2-1.3,2.4-2.5,2.8c-1.1,0.3-2.3-0.1-3.3-0.5c-3.2-1.5-5.7-4.4-7.7-7.3c-0.5-0.8-2.5-0.4-2,0.7c1.5,3.3,3.9,6,6.9,8
		c2.6,1.7,6.2,2.7,8.9,0.6c3.3-2.5,3.8-7.8,4.2-11.6C609,537.6,608.7,532.3,608.3,527z M602.4,514.3c-1.1,1.5-2.8,3.8-4.8,3.9
		c-1.9,0.1-2.4-1.6-1.9-3.1c0.7-2,2.1-3.7,3.5-5.2c1.2-1.2,2.5-2.6,4-3.5c0.9,1.2,1.3,2.7,1.4,4.2
		C604,511.9,603.3,513.1,602.4,514.3z"/>
	<path d="M640,507.5c-0.1-0.5-0.6-0.6-1.1-0.6c-1.6,0.3-3.2,0.5-4.8,0.7c-1,0.1-2,0.3-2.9,0.6c-0.2-0.8-0.3-1.5-0.4-2.3
		c-0.9-5.2-1.2-11.6,2-16.1c2.6,1.4,3.9,4,5.2,6.6c0.3,0.5,1.4,0.2,1.1-0.4c-1.2-3.2-2.9-6.4-6.2-8c-0.3-0.2-0.9-0.1-1.1,0.1
		c-4.5,4.4-4.5,11.4-3.7,17.3c0.4,3.3,1.2,6.6,2.1,9.8c0.4,1.5,0.9,2.9,1.4,4.4c0.4,1.3,0.8,2.8,1.6,3.9c0.6,0.8,2.4,0.6,2.3-0.6
		c-0.1-1.3-0.7-2.6-1.1-3.8c-0.5-1.3-0.9-2.7-1.3-4.1c-0.5-1.7-1-3.5-1.4-5.3c0.3-0.1,0.6-0.2,0.9-0.2c0.7-0.2,1.5-0.3,2.2-0.5
		c1.5-0.3,3.1-0.4,4.6-0.7C639.8,508.4,640.1,507.9,640,507.5z"/>
	<path d="M664.6,507.5c-0.4-1.4-2.6-1.8-3.8-1.4c-1.3,0.4-2.1,1.4-2.7,2.6c-0.5,1.1-0.9,2.2-1.1,3.4c-0.1-0.3-0.1-0.6-0.2-0.8
		c-0.4-1.5-0.9-3-1.8-4.3c-0.8-1.2-1.9-2-3.3-2.5c-0.5-0.2-0.8,0.1-1,0.4c-0.2-0.2-0.5-0.3-0.8-0.1c-0.2-0.2-0.5-0.4-0.7-0.5
		c-0.8-0.1-1.5,0-2.3,0.1c-0.8,0.1-0.8,1.2-0.2,1.6c0.4,0.2,0.8,0.2,1.2,0.2c0,0.2,0.1,0.5,0.1,0.7c-0.7,1-1.5,2-2.2,2.9
		c-1.8,2.5-3.7,5.1-4.7,8.1c-0.4,1-0.7,2.2-0.4,3.3c0.4,1.1,1.4,1.6,2.6,1.7c1.5,0.1,3-0.3,4-1.4c1.2-1.3,1.8-3,2.2-4.7
		c0.6-2.2,0.8-4.5,0.9-6.7c0-1.3,0.1-2.7-0.1-4.1c0.1-0.2,0.3-0.3,0.4-0.5c0,0,0,0,0,0c0.1,0.2,0.2,0.3,0.5,0.4
		c1.1,0.4,1.8,1.4,2.3,2.4c0.7,1.2,1.1,2.6,1.4,4c0.6,2.7,0.8,5.6,1.3,8.3c0.2,1.2,2.3,1,2.4-0.2c0.2-2.1,0.2-4.2,0.6-6.3
		c0.2-1.2,0.4-2.4,0.9-3.6c0.2-0.5,0.4-0.9,0.6-1.3c0.3-0.5,0.4-0.6,0.7-0.9c0,0,0,0,0,0c0,0,0,0,0.1-0.1c0,0,0.1,0,0.1,0
		c0,0,0.2,0,0.2,0c0,0,0.1,0,0.1,0c0.1,0,0.2,0,0.2,0c0.1,0,0.4,0.1,0.2,0.1c0.5,0.2,0.9,0.3,1.5,0.2
		C664.4,508.5,664.7,508,664.6,507.5z M647.5,514.6c-0.3,1.6-0.6,3.3-1.4,4.7c-0.3,0.5-0.6,1-1.1,1.4c0,0-0.2,0.1-0.4,0.2
		c-0.3,0.1-0.6,0.1-0.8,0.2c-0.2,0-0.5,0-0.7,0c0,0-0.1,0-0.2,0c-0.1,0-0.1,0-0.1,0c0,0,0,0-0.1,0c0,0,0,0-0.1,0c0,0-0.1,0-0.1-0.1
		c0,0-0.1-0.1-0.1-0.1c0,0,0-0.1,0-0.1c0-0.1,0-0.1,0-0.1c0-0.1,0-0.2,0-0.3c0-0.2,0-0.5,0-0.6c0-0.4,0.2-1,0.4-1.5
		c0.9-2.6,2.4-5.1,3.9-7.4c0.4-0.6,0.8-1.2,1.2-1.9c0,0.1,0,0.2,0,0.3C648,511.1,647.8,512.9,647.5,514.6z"/>
	<g>
		<path d="M682.2,521.3C682.2,521.3,682.2,521.3,682.2,521.3C682.3,521.1,682.3,521.2,682.2,521.3z"/>
		<path d="M682,520.4c-0.1-0.1-0.3-0.2-0.4-0.3c0.2,0.2,0,0,0,0c-0.1-0.1-0.2-0.2-0.3-0.3c0,0,0,0,0,0c0,0,0,0,0,0
			c-0.3-0.4-0.5-0.9-0.7-1.2c-0.4-1.1-0.7-2.2-1-3.3c-0.3-1.1-0.5-2.3-0.7-3.4c-0.2-0.9-0.5-2-1.1-2.7c-0.5-0.5-1.6-0.1-1.4,0.7
			c0.3,1.1,0.6,2.1,0.8,3.2c0.2,1.4,0.4,2.7,0.7,4.1c0.2,1.2,0.6,2.5,1.2,3.6c0.3,0.5,0.8,1,1.3,1.3c0.5,0.3,1.1,0.4,1.6,0
			c0.1-0.1,0.2-0.2,0.2-0.2c0,0,0.1-0.2,0.1-0.3C682.3,521,682.2,520.6,682,520.4z"/>
	</g>
	<path d="M683.9,509.4c-1,5.2-1.4,10.6-2.2,15.8c-0.4,2.7-1,5.4-1.8,8.1c-0.4,1.2-0.8,2.4-1.4,3.6c-0.5,1.1-1.3,2.1-1.4,3.3
		c-0.1,0.9,1.2,1.2,1.8,0.8c1-0.6,1.6-1.9,2-3c0.5-1.2,0.9-2.5,1.3-3.7c0.7-2.7,1.1-5.5,1.5-8.3c0.6-5.4,0.6-10.9,1.3-16.4
		C685.1,509,684,508.8,683.9,509.4z"/>
	<g>
		<path d="M698.6,515.5c-0.3-1.4-1.1-3-2.6-3.4c-0.7-0.2-1.5,0-2.1,0.4c-0.3,0.2-0.5,0.4-0.8,0.7c-0.4,0-0.7,0.2-1,0.6
			c-0.3,0.5-0.6,1-0.9,1.5c-0.7,1.3-1.2,2.7-1.7,4.1c-0.4,1.4-0.7,2.9-0.8,4.4c-0.1,1.1,0,2.5,0.7,3.4c2,2.8,6.4-0.4,7.8-2.2
			C699.2,522.4,699.4,518.5,698.6,515.5z M696.5,519.3c0,0.7-0.1,1.2-0.3,1.9c-0.1,0.3-0.2,0.6-0.2,0.9c-0.1,0.4-0.2,0.6-0.3,0.8
			c-0.1,0.3-0.3,0.5-0.4,0.8c-0.1,0.1-0.2,0.2-0.2,0.4c0,0,0,0,0,0c0,0,0,0,0,0c-0.1,0.1-0.1,0.1-0.2,0.2c-0.5,0.5-1.1,0.9-1.7,1.3
			c-0.2,0.1-0.5,0.3-0.7,0.4c-0.1,0-0.2,0.1-0.2,0.1c-0.1,0-0.3,0.1-0.4,0.1c0,0,0,0-0.1,0c0,0-0.1,0-0.1,0c0,0,0,0-0.1,0
			c0,0,0,0,0,0c0,0,0,0,0,0c0,0,0,0-0.1,0c0,0,0.1,0,0.1,0c0,0,0,0-0.1,0c0,0,0,0,0,0c0,0,0,0,0,0c0-0.1-0.1-0.1-0.1-0.2
			c0,0,0-0.1,0-0.1c-0.1-0.2-0.1-0.4-0.2-0.6c0,0,0-0.1,0-0.1c0,0,0,0,0-0.1c0-0.1,0-0.3,0-0.4c-0.1-1.2,0-2.2,0.2-3.3
			c0.3-2,0.9-3.9,1.6-5.7c0.3,0,0.5,0,0.7-0.2c0.3-0.2,0.6-0.5,0.9-0.7c0,0,0,0,0,0c0.5,0.3,1.2-0.2,0.8-0.6c0,0,0,0,0,0
			c0,0,0,0,0.1,0c0,0,0,0,0,0c0,0,0,0,0,0c0,0,0.1,0.1,0.1,0.1c0,0.1,0.1,0.1,0.1,0.2c0.1,0.1,0.1,0.2,0.2,0.3c0,0,0,0.1,0.1,0.1
			c0.1,0.3,0.2,0.5,0.3,0.8c0.2,0.7,0.2,0.9,0.3,1.6C696.5,517.9,696.6,518.6,696.5,519.3z"/>
		<path d="M691.6,526.2C691.6,526.2,691.6,526.2,691.6,526.2C691.6,526.2,691.6,526.2,691.6,526.2z"/>
	</g>
	<path d="M716,529.4c-0.8-0.1-1.5-0.2-2.1-0.7c-0.3-0.2-0.7-0.7-1-1.3c-0.6-1.4-0.6-3.2-0.6-4.7c0.1-3.5,1.1-7,0.9-10.5
		c-0.1-1.4-2.4-1.5-2.4-0.1c-0.1,2.6-0.6,5.2-1.5,7.6c-0.8,2-2,3.9-4.1,4.5c-1.9-3.7-0.9-8.3-1-12.2c0-0.8-1.4-0.9-1.5,0
		c-0.2,4.6-1.4,9.6,0.9,13.9c0.2,0.3,0.6,0.5,0.9,0.5c2.2-0.1,3.9-1.2,5.1-2.7c0,2.1,0.2,4.2,1.5,5.8c1.1,1.4,3,2.1,4.8,1.8
		C717,531.2,717.1,529.6,716,529.4z"/>
	<g>
		<path d="M726.4,526C726.4,526,726.4,526,726.4,526C726.4,526,726.4,526,726.4,526C726.3,526,726.4,526,726.4,526z"/>
		<path d="M726.5,525.9C726.5,525.9,726.5,525.9,726.5,525.9C726.4,526,726.4,526,726.5,525.9C726.4,526,726.5,525.9,726.5,525.9z"
			/>
		<path d="M726.7,525.2C726.7,525.2,726.6,525.1,726.7,525.2c-0.2-0.2-0.2-0.2-0.3-0.3c0,0,0,0,0,0c-0.2-0.1-0.4-0.2-0.7-0.2
			c-0.3,0-0.5,0-0.8,0.1c-0.2,0-0.3,0.1-0.5,0.2c-0.1,0.1-0.3,0.2-0.4,0.2c-0.2,0.1-0.4,0.3-0.6,0.5c-0.1,0.2-0.2,0.4-0.1,0.6
			c0.1,0.2,0.2,0.3,0.3,0.4c0.2,0.1,0.4,0.2,0.6,0.2c0.2,0,0.5,0,0.7-0.2c0.1-0.1,0.3-0.2,0.4-0.3c0.1,0,0.1-0.1,0.2-0.1
			c0.1,0,0.2,0,0.2,0c0,0,0,0,0,0c0,0,0,0,0,0c0,0,0,0,0,0c0,0,0,0,0,0c0.1,0,0.3,0,0.4-0.1c0.1-0.1,0.2-0.1,0.3-0.2
			c0.1-0.1,0.2-0.2,0.3-0.3C726.8,525.5,726.8,525.3,726.7,525.2z"/>
	</g>
	<path d="M739.7,526c-0.4,0-0.7-0.1-1.1-0.1c-0.4,0-0.8,0-1.2,0c-0.7,0-1.5,0-2.2,0c-0.4,0-0.8,0.4-0.8,0.8c0,0.5,0.4,0.7,0.9,0.7
		c0.7,0,1.4,0,2.1,0c0.3,0,0.7,0,1.1,0c0.4,0,0.7-0.1,1.1-0.1c0.3,0,0.7-0.2,0.7-0.6C740.3,526.4,740,526.1,739.7,526z"/>
	<path d="M752.7,524.9c-0.2-0.1-0.4-0.1-0.7-0.1c-0.2,0-0.4,0-0.6,0.1c-0.3,0.1-0.6,0.3-0.9,0.4c-0.1,0-0.1,0.1-0.2,0.1
		c0,0-0.2,0.1,0,0c-0.2,0.1-0.4,0.2-0.6,0.2c-0.3,0.1-0.5,0.2-0.8,0.4c-0.3,0.2-0.5,0.7-0.2,1c0.3,0.3,0.7,0.4,1.1,0.2
		c0.3-0.1,0.5-0.3,0.8-0.4c0.1,0,0.1,0,0.2-0.1c0,0,0,0,0,0c0,0,0,0,0.1,0c0.1-0.1,0.3-0.1,0.4-0.1c0.3-0.1,0.5-0.2,0.8-0.2
		c0.2-0.1,0.3-0.1,0.5-0.2c0.2-0.1,0.4-0.2,0.5-0.4C753.2,525.4,753.1,525,752.7,524.9z"/>
	<path d="M615,582.8l-0.1-0.2c-0.1-0.1-0.1-0.2-0.2-0.3c-0.1-0.1-0.2-0.1-0.3-0.2c-0.3-0.1-0.6-0.2-0.9-0.2c-0.1,0-0.3,0-0.4,0
		c-0.1,0-0.1,0-0.2,0c-0.2,0-0.3,0-0.5,0c-0.1,0-0.1,0-0.2,0c0,0-0.1,0-0.1,0c0,0,0,0,0,0c0,0-0.1,0-0.1,0.1c0,0-0.1,0-0.1,0.1
		c0,0,0,0,0,0c0,0-0.1,0-0.1,0c0,0-0.1,0.1-0.1,0.1c0,0-0.1,0.1-0.1,0.1c-0.1,0.1-0.1,0.2-0.1,0.2c0,0.1-0.1,0.2-0.1,0.3
		c0,0,0,0,0,0c0,0.1,0,0.2,0,0.2c0,0.1,0.1,0.2,0.2,0.3c0,0,0,0,0,0.1c0,0,0,0,0.1,0.1c0.1,0.1,0.2,0.1,0.2,0.2
		c0.1,0,0.2,0.1,0.3,0.1c0,0,0,0,0,0c0.1,0,0.2,0,0.3,0c0,0,0.1,0,0.1,0c0,0,0.1,0,0.2,0c0.1,0,0.1,0,0.2,0c0.1,0,0.3,0,0.4,0
		c0,0,0,0,0.1,0c0.1,0,0.1,0,0.2,0c0.1,0,0.1,0,0.2,0c0,0,0.1,0,0.1,0c0.1,0,0.1,0,0.2-0.1c0.1,0,0.2,0,0.2-0.1
		c0.1,0,0.2-0.1,0.2-0.1c0.1,0,0.2-0.1,0.3-0.2c0.1-0.1,0.1-0.1,0.1-0.2c0.1-0.1,0.1-0.2,0.1-0.3C615,583,615,582.9,615,582.8z"/>
	<path d="M625.4,582.4c-0.1,0-0.1-0.1-0.2-0.1c-0.2-0.1-0.4-0.1-0.6-0.1l-0.5,0c-0.3,0-0.6,0-1,0c-0.2,0-0.5,0.1-0.7,0.3
		c-0.1,0.1-0.3,0.4-0.2,0.6c0,0.2,0.1,0.4,0.3,0.6c0.2,0.1,0.4,0.2,0.7,0.2c0.3,0,0.6,0,1,0c0.2,0,0.3,0,0.5,0c0.2,0,0.4,0,0.6-0.1
		c0.1,0,0.1-0.1,0.2-0.1c0.2-0.1,0.4-0.4,0.4-0.6C625.9,582.7,625.7,582.5,625.4,582.4z"/>
	<path d="M632.1,582.7c-0.1-0.2-0.1-0.3-0.3-0.4c-0.1,0-0.1-0.1-0.2-0.1c-0.2-0.1-0.3-0.1-0.5-0.1c-0.2,0-0.4,0-0.6,0
		c-0.1,0-0.3,0-0.4,0.1c-0.1,0-0.2,0.1-0.3,0.2c-0.1,0.1-0.2,0.2-0.2,0.3c-0.1,0.1-0.1,0.2-0.1,0.3c0,0.1,0,0.2,0,0.2
		c0.1,0.1,0.1,0.3,0.3,0.4l0.2,0.1c0.2,0.1,0.3,0.1,0.5,0.1c0.2,0,0.4,0,0.6,0c0.1,0,0.3,0,0.4-0.1c0.1,0,0.2-0.1,0.3-0.2
		c0.1-0.1,0.2-0.2,0.2-0.3c0.1-0.1,0.1-0.2,0.1-0.3C632.2,582.9,632.2,582.8,632.1,582.7z"/>
	<path d="M654.9,585.2c-0.4-1.7-1.2-3.2-1.7-4.8c-0.5-1.6-0.7-3.3-0.5-5c0.1-1.3-2.1-1.5-2.4-0.4c-0.1,0.2-0.2,0.5-0.2,0.7
		c-0.7-0.9-1.7-1.5-3-1.3c-2.2,0.4-3.9,2.6-4.9,4.4c-0.7,1.2-1.3,2.5-1.5,3.9c-0.1,0.4-0.1,0.7,0.3,1c1.2,1,2.7,1.5,4.3,1.2
		c1.4-0.2,2.5-1.1,3.5-2.1c0.8-0.8,1.4-1.7,2-2.6c0,0.2,0.1,0.4,0.1,0.6c0.5,1.8,1.1,3.6,2.3,5.1
		C653.5,586.7,655.1,586.4,654.9,585.2z M647,581.1c-0.3,0.4-0.7,0.8-1.1,1.1c-0.2,0.2-0.4,0.3-0.5,0.3c-0.1,0.1-0.2,0.1-0.4,0.2
		c0,0-0.2,0.1-0.2,0.1c-0.2,0.1-0.4,0.1-0.6,0.1c-0.1,0-0.2,0-0.2,0c-0.1,0-0.2,0-0.2,0c0,0,0,0-0.1,0c-0.3-0.1-0.6-0.2-0.8-0.3
		c0.2-1,0.6-2.1,1.1-3c0.5-1.1,1.2-2.1,2.2-2.9c0.4-0.3,0.7-0.6,1.2-0.7c-0.1,0,0.2,0,0.2,0c0.1,0,0,0,0.2,0c0.2,0,0.2,0,0.4,0.1
		c0.5,0.2,0.9,0.7,1.2,1.3C648.7,578.7,648,580,647,581.1z"/>
	<path d="M660.2,581c-0.3-2.2-0.5-4.3-0.7-6.5c-0.1-2.1-0.2-4.2-0.3-6.3c-0.1-2,0-4.1-0.3-6.1c-0.1-0.9-1.7-0.7-1.8,0.2c0,0,0,0,0,0
		c-0.3,2.1-0.2,4.3-0.2,6.5c0,2.1,0,4.2,0.1,6.3c0.1,2,0.2,4.1,0.5,6.1c0.2,1.9,0.3,4.4,1.5,5.9c0.6,0.7,1.8,0.6,2-0.4
		C661.2,584.9,660.5,582.8,660.2,581z"/>
	<path d="M682.8,573.1c-1-0.9-2.6,0.2-1.7,1.4c1,1.2,0.9,3.3,0.7,4.7c-0.2,1.8-0.9,3.9-2.2,5.2c-1,1-2.6,1.4-3.7,0.6
		c-1.4-1-2.1-2.8-2.5-4.4c-0.6-1.9-1-4-1.2-6c-0.1-1.1-1.8-1.5-2.2-0.4c-1.2,3.1-1.1,6.8-3,9.6c-2.1-2.3-0.2-6.8-2.2-9.2
		c-0.3-0.4-1.1-0.1-1,0.5c0.7,3.7-1,8.7,2.8,11.2c0.5,0.4,1.2,0.1,1.6-0.3c1.5-1.7,2.2-3.7,2.6-5.8c0.1,0.3,0.2,0.7,0.3,1
		c0.6,2.1,1.6,4.4,3.5,5.7c1.9,1.3,4.5,1.1,6.3-0.3c1.9-1.4,2.9-3.8,3.3-6.1C684.7,578.1,684.8,574.9,682.8,573.1z"/>
	<path d="M702.9,587.2c-0.7-0.4-1.4-0.9-1.9-1.5c-0.5-0.6-0.8-1.4-1-2.2c-0.3-1.1-0.4-2.4-0.4-3.6c0.1-0.6,0.1-1.2,0.1-1.8
		c-0.1-0.6-0.5-0.9-1-1c0-0.2-0.1-0.4-0.1-0.7c-0.3-1-0.8-2.1-1.9-2.6c-2.3-0.9-4.5,1.5-5.7,3.1c-1.5,1.9-2.9,4.4-3.2,6.8
		c-0.2,1.3,0.1,2.2,1,3.2c1.3,1.4,3.3,2.2,5.2,1.5c1.7-0.6,2.9-2,3.9-3.5c0.7,2,2.2,3.7,4.5,3.8C703,588.9,703.7,587.7,702.9,587.2z
		 M696.4,582.5c-0.6,1.4-1.4,2.7-2.6,3.7c-0.1,0.1-0.4,0.3-0.7,0.4c0,0,0,0,0,0c0,0,0,0,0,0c-0.1,0-0.1,0-0.2,0.1
		c-0.1,0-0.1,0-0.2,0.1c-0.2,0.1,0,0-0.1,0c-0.1,0-0.4,0-0.3,0c0.1,0-0.3-0.1-0.4-0.1c0.2,0.1-0.2-0.1-0.3-0.1
		c-0.2-0.1-0.3-0.1-0.4-0.3c-0.3-0.2-0.6-0.5-0.8-0.8c-0.1-0.1-0.1-0.2-0.2-0.2c0,0,0,0,0,0c0,0,0-0.1,0-0.2c0,0,0,0,0-0.1
		c0-0.2,0-0.4,0-0.6c0,0,0-0.1,0-0.2c0-0.1,0-0.1,0-0.2c0-0.2,0.1-0.5,0.2-0.7c0.1-0.5,0.3-1,0.5-1.5c0.4-0.9,0.9-2,1.5-2.9
		c0.3-0.5,0.6-0.9,1-1.4c0.3-0.3,0.6-0.7,1-1c0.2-0.2,0.3-0.3,0.5-0.4c0.2-0.1,0,0,0.1-0.1c0.1-0.1,0.2-0.1,0.3-0.2
		c0.1,0,0.2-0.1,0.2-0.1c0,0,0.1,0,0.1-0.1c0.1,0,0.1,0,0.2-0.1c0,0,0,0,0.1,0c0,0,0,0,0,0c0.1,0,0.1,0,0.2,0c0,0,0.1,0,0.1,0
		c0,0,0.1,0,0.2,0.1c0,0,0.1,0.1,0.2,0.1c0.3,0.2,0.6,0.7,0.7,1.2c0.1,0.3,0.2,0.6,0.3,1c-0.1,0.1-0.1,0.3-0.2,0.5
		c0,0.6-0.1,1.1-0.1,1.7C697.1,580.8,696.8,581.6,696.4,582.5z"/>
	<path d="M714.6,573.4c-0.4,1.3-0.9,2.6-1.4,3.9c-0.4,0.9-0.8,1.8-1.3,2.6c-0.3,0.5-0.8,1.5-1.4,1.8c-2.5,1-3.4-4.5-5.8-4.7
		c-0.6,0-0.7,0.7-0.2,0.9c0.5,0.2,0.8,1.4,1,1.8c0.4,0.8,0.8,1.6,1.4,2.4c1.1,1.4,3.1,2.2,4.8,1.3c0.2-0.1,0.4-0.2,0.5-0.4
		c-0.6,3-1,6.1-1.4,9.1c-0.4,3.1-0.8,6.2-0.9,9.3c-0.1,1.4-0.1,2.9-0.1,4.3c0,1.3-0.1,2.6,0.9,3.6c0.4,0.4,1.2,0.4,1.6-0.1
		c0.8-1.1,0.5-2.4,0.5-3.7c0-1.3,0-2.7,0.1-4c0.1-3.1,0.4-6.2,0.8-9.3c0.8-6.2,2.2-12.3,3.2-18.4C717,572.7,714.9,572.4,714.6,573.4
		z"/>
	<g>
		<polygon points="727.2,589.7 727.2,589.7 727.2,589.7 727.2,589.7 		"/>
		<path d="M732.3,571.7c-1.3-0.8-2.9-0.7-4.3-0.2c-1.8,0.6-3.2,1.7-4.3,3.2c-1.2,1.7-1.2,3.6-0.3,5.4c0.9,1.8,2.3,3.2,3.2,5
			c0.2,0.4,0.4,0.9,0.5,1.3c0.1,0.4,0.3,0.9,0.3,1.1c0.1,0.3,0.1,0.6,0.1,0.9c0,0.1,0,0.3,0,0.4c0,0.1,0,0.1,0,0.1c0,0,0,0,0,0.1
			c0,0.1-0.1,0.2-0.1,0.3c0,0,0,0,0,0c0,0,0,0,0,0c0,0.1-0.1,0.1-0.1,0.2c0,0,0,0,0,0c0,0,0,0,0,0l0,0c0,0,0,0,0,0c0,0,0,0-0.1,0
			c0,0,0,0,0,0c0,0,0,0,0,0c0,0,0,0,0,0c0,0,0,0,0,0c0,0-0.1,0-0.1,0c-0.1,0-0.1,0-0.2,0.1c0,0-0.1,0-0.1,0c-0.2,0-0.4,0-0.6,0
			c0,0,0,0,0,0c0,0,0,0-0.1,0c-0.1,0-0.3,0-0.4-0.1c-0.2,0-0.5-0.1-0.7-0.2c0,0,0,0,0,0c0,0,0,0-0.1,0c-0.2-0.1-0.3-0.1-0.5-0.2
			c-0.3-0.1-0.6-0.3-0.8-0.4c-0.1-0.1-0.3-0.1-0.4-0.2c-0.1,0-0.1-0.1-0.2-0.1c0,0,0,0,0,0c0,0,0,0,0,0c-0.5-0.3-0.9-0.7-1.3-1
			c0,0,0,0,0,0c0,0,0,0-0.1-0.1c-0.1-0.1-0.2-0.2-0.2-0.3c-0.1-0.1-0.1-0.2-0.2-0.3c0,0,0-0.1-0.1-0.1c-0.1-0.1-0.1-0.3-0.1-0.4
			c0,0,0-0.1,0-0.1c0,0,0-0.1,0-0.1c0.3-1.1-1.4-1.4-1.9-0.6c-1.2,1.9,1,4,2.5,4.9c1.8,1.2,4.4,2.2,6.5,1.4c3.2-1.2,2.2-5.1,1.1-7.5
			c-0.9-1.9-2.3-3.4-3.4-5.1c-0.4-0.6-0.7-1.4-0.7-2.1c0-1,0.6-1.9,1.2-2.6c1-1.2,2.5-2,4.1-2.1c0.6,0,1.2,0.1,1.6,0.5
			c0.6,0.6,0.5,1.7,0.4,2.4c-0.1,0.7,1.1,0.9,1.2,0.2C733.7,574.3,733.7,572.6,732.3,571.7z"/>
		<path d="M727.1,589.8C727.1,589.8,727.1,589.8,727.1,589.8C727,589.8,727,589.9,727.1,589.8z"/>
		<path d="M727.1,589.8C727.1,589.8,727.1,589.8,727.1,589.8C727.1,589.8,727,589.8,727.1,589.8
			C727.1,589.8,727.1,589.8,727.1,589.8C727.1,589.8,727.1,589.8,727.1,589.8z"/>
		<path d="M727.2,589.8C727.2,589.8,727.2,589.8,727.2,589.8C727.4,589.5,727.2,589.7,727.2,589.8z"/>
		<path d="M727.1,589.8C727.1,589.8,727.2,589.8,727.1,589.8C727.1,589.8,727.1,589.8,727.1,589.8
			C727.1,589.8,727.1,589.8,727.1,589.8C727.1,589.8,727.1,589.8,727.1,589.8z"/>
	</g>
</g>
</svg>
