<svg xmlns="http://www.w3.org/2000/svg" viewBox="0 0 1366 768"><g id="Layer_16" data-name="Layer 16"><path d="M898.59,209.9a25.5,25.5,0,0,0,.59-2.77,29.8,29.8,0,0,1,6.47-15.3,10.17,10.17,0,0,1,4-3.42,3.38,3.38,0,0,1,4.81,2.34A11.58,11.58,0,0,1,913,199c-.12.18-.46.25-.71.33s-.26,0-.59-.09a29.17,29.17,0,0,0-.63-3.47c-.07-.26-1-.57-1.29-.4a3.86,3.86,0,0,0-1.33,1.5c-1,2.09-2,4.19-3,6.33a10,10,0,0,0-.62,5.65,2.18,2.18,0,0,0,2.24,2,5.82,5.82,0,0,0,4.58-1.44,73.43,73.43,0,0,0,5.71-5.86,7.63,7.63,0,0,0,1.51-4.62c.31-4.37.6-8.74,1-13.11a12.71,12.71,0,0,1,.76-3.56,2.18,2.18,0,0,1,2.3-1.4,2.28,2.28,0,0,1,2,1.84,10.82,10.82,0,0,1,.33,2.84c0,1.78-.16,3.56-.21,5.34,0,.65.11,1.31.21,2.33.86-.35,1.47-.54,2-.83a23,23,0,0,1,2.87-1.58,4.77,4.77,0,0,1,6.36,5.52,11.83,11.83,0,0,1-3.36,6c-1.34,1.37-2.76,2.65-4.12,4a17.13,17.13,0,0,0-1.3,1.6,4.09,4.09,0,0,0,3.74.27,20.92,20.92,0,0,1,10.16-.09,7.83,7.83,0,0,0,7.45-1.87,13.47,13.47,0,0,0-1.28-2c-1-1.12-2.15-2.11-3.18-3.22a5.12,5.12,0,0,1-1.28-4.57A13.23,13.23,0,0,1,951.63,186a5.44,5.44,0,0,1,4.4,0,4.6,4.6,0,0,1,1.81,1.56,1.84,1.84,0,0,1-1.38,2.77,1.08,1.08,0,0,1-.4,0c-2.63-.9-4.14.74-5.52,2.51-2,2.53-1.74,5,.44,6.93q2.44,2.21,4.68,4.62c1.39,1.51,1.22,3-.52,4.11a57.6,57.6,0,0,1-5.36,3,6.1,6.1,0,0,1-6.28-.09,5.37,5.37,0,0,0-5.42-.3c-3.57,1.55-7.44,1.76-11.25,2.19a5.56,5.56,0,0,1-4.52-1.52c-1.21-1.09-2.5-2.08-3.52-2.91-1.67-.06-2.26,1-3.07,1.67a17.49,17.49,0,0,1-8.29,4.26c-2.37.45-4.54.69-6.69-.77a4.9,4.9,0,0,0-2.74-.64,7.53,7.53,0,0,1-6.79-3.11,3.06,3.06,0,0,0-.7-.49c-1.25-.21-1.9.85-2.76,1.45-2.26,1.6-4.58,3-7.44,3.21-2.45.19-3.63-.61-3.91-3.09a10.64,10.64,0,0,1,.19-4.06c1.6-5.59,3.95-10.81,8.32-14.86a15.17,15.17,0,0,1,3.25-2.47c2.89-1.51,5.85-.21,6.91,2.88a15.19,15.19,0,0,1,.78,7.29,29.61,29.61,0,0,0-.52,4.07,14.28,14.28,0,0,0,.54,4A2.34,2.34,0,0,0,898.59,209.9Zm-8.81-14.27c-2.07.6-2.78,2.29-3.72,3.71A6.2,6.2,0,0,0,884.7,204a3.47,3.47,0,0,0,4.19-1.6C890.21,200.32,891.3,198.18,889.78,195.63Zm-7.42,12.72c.22.17.63.63.76.56a8.25,8.25,0,0,0,1.89-1.3,1.13,1.13,0,0,0,0-1.05,1.26,1.26,0,0,0-1-.37C882.89,206.41,882.41,207.15,882.36,208.35Z"/><path d="M1159,148.43c.35-4,.88-7.93,1-11.89.08-2.88,1-4.41,4-5.31,2.24-.7,4.24-1,6.35-.12a8.42,8.42,0,0,1,2.69,1.78,17.34,17.34,0,0,1,5.09,13.44c-.11,2.46-.29,4.91-.42,7.37a6.36,6.36,0,0,1-1.27,3.83,1.58,1.58,0,0,1-2.72-.22,10.13,10.13,0,0,1-.77-5.61,67.06,67.06,0,0,0,.22-6.95,10.22,10.22,0,0,0-1.83-5.39,8.9,8.9,0,0,0-2.28-2.3,1.85,1.85,0,0,0-2.9,1.16,15.38,15.38,0,0,0-.32,2.44c-.27,3.42-.53,6.83-.75,10.25a4.65,4.65,0,0,1-1.11,3c-1.54,1.69-2.6,1.69-4.32,0a13.9,13.9,0,0,0-1.37-1.1c-1,.52-2,1-2.94,1.47a52.83,52.83,0,0,1-6.8,2.84c-4.07,1.15-7.88.53-11-2.65a17.21,17.21,0,0,0-1.63-1.3c-2.27.79-4.43,1.65-6.64,2.29a12,12,0,0,1-4,.54c-4.26-.23-6.63-2.85-7.87-6.68-.41-1.27-.67-2.6-1-3.79-2.79-.41-2.79-.41-4.94.84.83,1.23,1.69,2.42,2.47,3.67,1.21,1.94,1,3-.39,4.82a5.3,5.3,0,0,1-5.39,2.22c-2.7-.49-5.4-1-7.76-2.51-3.23-2.11-3.61-4.48-1.16-7.54.85-1,1.79-2,2.74-3.1-.42-1-.76-1.91-1.12-2.78a11.05,11.05,0,0,1,.06-8.79,18.33,18.33,0,0,1,5.4-7.15,8.47,8.47,0,0,1,2.93-1.41,3,3,0,0,1,3.29,1.12,2.47,2.47,0,0,1-1.33,4.12c-3.4.45-4.33,3.1-5.28,5.61s.34,4.82,1.83,6.83a2.68,2.68,0,0,0,1.79.82c1.22.09,2.45-.08,3.69-.08,2.58,0,4.42-.95,5.39-3.55a18.7,18.7,0,0,1,2.37-3.83,10.45,10.45,0,0,1,6.88-4.11c2.74-.57,4.87.73,6.57,2.59a4.43,4.43,0,0,1-.59,6.54,13.1,13.1,0,0,1-5.4,2.88c-1.06.26-2.14.46-3.19.79-2.7.84-3.28,2-2.38,4.61a5.12,5.12,0,0,0,4.51,3.66,10.59,10.59,0,0,0,4.86-.57c2.13-.74,3.49-2.06,3.58-4.45,0-.82.27-1.62.31-2.44a7.29,7.29,0,0,1,1.88-4.45c1.53-1.76,2.94-3.62,4.47-5.37a7.16,7.16,0,0,1,5.45-2.44c2.82-.07,4.63,1.48,6.14,3.51a3,3,0,0,1,0,3.51c-2,3.2-4.45,5.94-8.56,6.4-.41,0-.82.07-1.22.15-2,.4-2.88,1.25-3,2.82a3.82,3.82,0,0,0,2.27,4,10.83,10.83,0,0,0,3.6.72A15.08,15.08,0,0,0,1159,148.43Zm-50.9,3.9c-1-2.57-1.35-3.22-2.59-4.38-1.75-1.63-4-1-4.77,1.28a1.93,1.93,0,0,0,.85,2.47A7.36,7.36,0,0,0,1108.13,152.33Zm23-15.92c-1.49-1.71-3.08-1.78-4.52-.87a9.42,9.42,0,0,0-2.24,2.73c-.13.19.18.68.28,1C1127.54,138.9,1128,138.68,1131.12,136.41Zm13.18,4c2.13-.55,3.49-1.1,4.41-2.39.13-.19.2-.62.08-.75s-.66-.61-1-.57C1146.07,136.93,1145,138,1144.3,140.36Z"/><path d="M1068.25,187.56a9.25,9.25,0,0,0-2,.28c-.76.32-1.42.86-2.17,1.15-5.28,2-4.75,3.34-5.12,7a81.52,81.52,0,0,0-.36,11.05c0,1.58.89,3.13,1.37,4.69a1.55,1.55,0,0,1-1,2c-2.32.82-3.76.28-4.62-1.89a21.51,21.51,0,0,1-1.81-8.78c.09-2.19.08-4.39,0-6.58a1.65,1.65,0,0,0-2.21-1.69c-.89.17-1.56,1-1.2,1.78,2.23,4.68.15,8.59-2.44,12.17s-6.43,4.58-10.5,4.7c-2.63.08-4.19-2-5.2-4.11a13,13,0,0,1-1-8A25.63,25.63,0,0,1,1035.7,190a11.08,11.08,0,0,1,2.54-2.06,4.44,4.44,0,0,1,5.36.06,13.73,13.73,0,0,1,4.44,4.79c3-.62,4.49-2.68,5.75-5a9.56,9.56,0,0,0,.75-2.34c.91-3.71,1.86-7.42,2.68-11.16a5.55,5.55,0,0,1,2.38-3.68,2.49,2.49,0,0,1,4,1.82,16.83,16.83,0,0,1-.25,4.07c-.26,1.62-.77,3.2-1.06,4.82a16.09,16.09,0,0,0,0,2.64h6.62c1-1.45.87-3.28,1.08-5,.13-1.08.06-2.19.19-3.28a2.35,2.35,0,0,1,1.86-2,2.53,2.53,0,0,1,2.64.69,4.28,4.28,0,0,1,1.27,3.37c-.11,2.45-.34,4.9-.55,7.35-.17,1.87-.88,3.74-.08,5.87.92.08,1.85.09,2.76.25,3.68.64,5,1.51,5.82,5.35a90.5,90.5,0,0,1,1.16,11.43,3.6,3.6,0,0,1-1.42,3.25,2,2,0,0,1-3.28-1,26.7,26.7,0,0,1-.38-3.25c-.24-2.17-.46-4.35-.74-6.52a5,5,0,0,0-.57-1.51,1.24,1.24,0,0,0-2.07-.08,7.56,7.56,0,0,0-.85,1.85c-.71,2.64-2.32,4.94-2.71,7.72-.21,1.57-2.5,2.53-4,1.84a2.53,2.53,0,0,1-1.16-1.52,22.23,22.23,0,0,1-.62-7.75c.34-3.54.68-7.08,1-10.62C1068.31,189.7,1068.25,188.9,1068.25,187.56Zm-26.78,4.94c-3.6,3.1-5.76,7.24-5.86,11.13a8.31,8.31,0,0,0,.34,2.81,2.37,2.37,0,0,0,3.91,1.26,10.67,10.67,0,0,0,4.58-7.47C1044.84,197.39,1044.59,194.46,1041.47,192.5Z"/><path d="M1010.21,176.58c-.73.62-1.14.81-1.31,1.13a64.51,64.51,0,0,0-4.73,12.22c-.31,1.16-.42,2.38-.68,3.91a17.44,17.44,0,0,0,3,0c1.47-.29,2.9-.82,4.36-1.15a3.06,3.06,0,0,1,3,.84,1.8,1.8,0,0,1-.32,3.07,15,15,0,0,1-6.55,2.24,20.26,20.26,0,0,0-2.44.28,1.94,1.94,0,0,0-1.73,2,15.38,15.38,0,0,0,1.4,8c.3.6.67,1.16,1,1.8-1.14,1.57-2.65,1.43-4.13,1.16A2.88,2.88,0,0,1,999,209.8q-.94-2.91-1.8-5.85c-.27-.9-.43-1.83-.62-2.61a1.25,1.25,0,0,0-1.87.55c-.35.59-.62,1.22-1,1.82-3.08,5.52-8,8-14.13,8.44-3,.2-4.71-1.07-5.31-4a15.33,15.33,0,0,1-.25-5.68A36.31,36.31,0,0,1,982,186c3.4-4.2,9-3.06,11,2.11.71,1.91,1.1,3.94,1.75,5.88a1.16,1.16,0,0,0,2.27.1,46.4,46.4,0,0,0,1.15-5.2,26.11,26.11,0,0,1,3.73-10.35,19.29,19.29,0,0,0,1.19-2.61,16.18,16.18,0,0,1,4.29-5.45c2.07-1.77,4.78-1.21,5.7,1.28.81,2.16,1.67,4.37,1.2,6.79-.16.8-.16,1.78-1.11,2s-1.36-.63-1.7-1.41S1010.75,177.71,1010.21,176.58ZM990,196a36.67,36.67,0,0,0-1.46-5,2,2,0,0,0-3.41-.3,7.88,7.88,0,0,0-1.41,2c-1.18,2.61-2.37,5.22-3.35,7.9a17.65,17.65,0,0,0-.84,4.41c-.19,1.9,1.08,2.76,2.87,2.08C986.3,205.58,989.63,200.58,990,196Z"/><path d="M977.9,147.42c-.38,1.1-.66,2-1,2.82-.85,2.31-1.61,4.68-3.71,6.23a6.89,6.89,0,0,1-1.77,1,1.71,1.71,0,0,1-2.16-.71,21.11,21.11,0,0,1-1.73-3.7,22.93,22.93,0,0,1-1-10.94c.38-2.43.57-4.89.86-7.34a6.36,6.36,0,0,1,1.62-4.12,2.24,2.24,0,0,1,3.06-.44,10.41,10.41,0,0,1,.33,6.33,20.39,20.39,0,0,0-.5,7.6,1,1,0,0,0,1.4-.71c.36-1,.61-2.1,1-3.13a3.31,3.31,0,0,1,5.57-1.37A8.34,8.34,0,0,1,982.6,143a5.65,5.65,0,0,0,2.23,3.61c.33-.53.81-.94.8-1.34-.07-2.72-.22-5.45-.37-8.17A39.92,39.92,0,0,1,985,133a1.56,1.56,0,0,1,2.71-1,5.08,5.08,0,0,1,1.6,2.25,38.14,38.14,0,0,1,1,5.22,5.13,5.13,0,0,0,3.19,4,2.31,2.31,0,0,0,3.32-1.37,70.23,70.23,0,0,1,2.78-6.83,15.28,15.28,0,0,1,3.32-4.11c2.05-1.82,4.44-1.41,6,.8a9.22,9.22,0,0,1,1,1.78c2.58,6.33,1.84,7.93-3.18,11.41-1.34.93-2.74,1.77-4,2.55a2.24,2.24,0,0,0,2,2.85,11.31,11.31,0,0,0,8.38-.82,17.86,17.86,0,0,1,2.89-1.54,7.73,7.73,0,0,1,2.41,0c-.26.68-.29,1.17-.55,1.38a28.87,28.87,0,0,1-10.54,5.33,9.83,9.83,0,0,1-2,.36c-5,.38-6.34-.66-8.35-4.88-.41-.86-.69-1.77-1-2.54a4.7,4.7,0,0,0-.8-.53c-3.6-1.27-4.51-.92-5,2.81a7.64,7.64,0,0,1-3.58,5.66,2.29,2.29,0,0,1-3.56-.56,32.84,32.84,0,0,1-2.23-3.91c-.51-1-.86-2-1.43-3C979.25,148,978.62,147.82,977.9,147.42Zm25.18-5.6a5.31,5.31,0,0,0,3.55-3.39,2.66,2.66,0,0,0-.1-1.57,1.38,1.38,0,0,0-.83-.79,1.34,1.34,0,0,0-1.09.33A6.27,6.27,0,0,0,1003.08,141.82Z"/><path d="M1203.17,86.21c.73-1.44,1.1-2.13,1.43-2.84.46-1,.88-2,1.33-3,1.58-3.49,6.58-3.21,8.18-.57,1.79,2.93,3.35,6,2.11,9.66a44.91,44.91,0,0,0-1.23,6c-.13.7-.28,1.35-1.09,1.55a1.79,1.79,0,0,1-1.92-1.2,8,8,0,0,1-.43-2c-.1-1.23-.09-2.46-.14-3.69s0-2.2-.15-3.28c-.2-1.73-1-2.9-1.94-2.74-1.3.23-1.59,1.38-2,2.39-1.26,3.18-2.39,6.41-3.78,9.54-1.13,2.55-1.72,2.78-5,2.89-.77-1.59-1.59-3.26-2.37-4.84-1.74-.12-2.79.87-4,1.52a15.57,15.57,0,0,1-6.68,1.83,7.13,7.13,0,0,1-7.63-5c-1.28-3.49-1.37-6.88.65-10.26,1.48-2.49,2.85-5,5.31-6.68a10.21,10.21,0,0,1,3.3-1.52c3.87-.9,6.26,1.88,6.1,5.62A1.55,1.55,0,0,1,1191,81a1.58,1.58,0,0,1-.36-.2c-.9-.63-1.78-1.31-3-1a4.6,4.6,0,0,0-2.86,2.77,11.44,11.44,0,0,0-1.27,7.15,4.1,4.1,0,0,0,3.46,3.56,7.06,7.06,0,0,0,5.47-1.19c.92-.59,1.68-1.4,2.54-2.08a3.38,3.38,0,0,0,1.22-3.28c-.2-2.18-.36-4.37-.41-6.56-.15-6.59.85-13.11,1.43-19.65a5,5,0,0,1,2.37-4.1c1.58-1,3.14-.35,3.26,1.48a52.42,52.42,0,0,1-.09,6.14c-.18,3-.46,6-.7,9A43.69,43.69,0,0,0,1203.17,86.21Z"/><path d="M935.29,74.64c-.39.2-.9.29-1.08.58-1.66,2.7-3,5.52-3,8.8,0,.82,0,1.64,0,2.47a2.89,2.89,0,0,1-2.07,2.76,2,2,0,0,1-2.91-1.33,29.62,29.62,0,0,1-.53-4.89c-.07-3,0-6,0-9,0-1.21-.09-2.42-.14-3.61-2.61,0-4.71,1.15-5.33,3.09a20.22,20.22,0,0,0-.91,4.41c-.32,3.68-.45,7.37-.72,11.06a16.73,16.73,0,0,1-.6,3.59,1.37,1.37,0,0,1-2.35.23,9.22,9.22,0,0,1-1.12-2.6,37.45,37.45,0,0,1-1-10.61c.11-1.48,0-3,0-4.59-1.17-1.16-3.4.33-4.46-1.82.39-.36.76-1,1.3-1.18,3.47-1.38,4.4-4.26,4.58-7.57.16-2.88.26-5.75.29-8.63a4.9,4.9,0,0,1,2.09-4.23c1.26-.9,2.9-.61,3.35.88a18.34,18.34,0,0,1,.73,4.83,48,48,0,0,1-.4,4.91c-.05.79,0,1.59,0,2.26.44.25.68.51.9.49,4.44-.39,4.94-.93,4.76-5.23,0-1-.22-1.9-.26-2.86a10.55,10.55,0,0,1,.11-2.45,2.4,2.4,0,0,1,1.94-1.9,2.22,2.22,0,0,1,2.53,1,9.6,9.6,0,0,1,1.27,3.81c.11,2.86-.12,5.74-.22,8.61,0,.94-.11,1.87-.16,2.73.45.16.79.4.91.31,2.43-1.62,4.53-.35,6.44.94C941,71,941.44,73,941.11,75a35.88,35.88,0,0,0,.06,9.82,13,13,0,0,1,0,2.86,2.32,2.32,0,0,1-2.26,2c-.95,0-1.43-.63-1.82-1.41a6.84,6.84,0,0,1-.45-5.19,12.21,12.21,0,0,0,.2-6.09,4.73,4.73,0,0,0-.6-1.51A3.8,3.8,0,0,0,935.29,74.64Z"/><path d="M1261.37,136.17l4-1.48c1.12-1.61.55-3.16.7-4.62a13.5,13.5,0,0,1,.56-3.18,2.45,2.45,0,0,1,4.51,0,15.6,15.6,0,0,1,.72,3.18c.27,2.16.42,4.33.62,6.54a3.64,3.64,0,0,0,1.23.34c4.88-.53,8,1.34,9.29,5.93.69,2.35,1.09,4.79,1.57,7.21.27,1.34.46,2.69.63,4.05a2.15,2.15,0,0,1-1,2.09c-1.34.95-2.81.66-3.34-.88-.9-2.57-1.65-5.21-2.4-7.83-.34-1.18-.5-2.43-1.79-3.26-1.57.2-2,1.53-2.49,2.78q-1.47,4-2.81,8.14a5.4,5.4,0,0,1-2,3c-1.79,1.24-3.73.45-3.87-1.7a35.64,35.64,0,0,1,.17-4.5c.21-3,.46-6,.68-9a9.87,9.87,0,0,0,0-1.63,1.2,1.2,0,0,0-1.45-1.08,26.12,26.12,0,0,0-2.72.88A3,3,0,0,0,1260,144c-.35,4.64-.72,9.28.2,13.89.33,1.67.11,2.34-.89,2.76-1.75.74-3.27.52-3.95-.89a12.37,12.37,0,0,1-1.31-4.24c-.23-2.44-.11-4.92-.11-7.38,0-1.09.1-2.19.09-3.28a3,3,0,0,0-1.72-3,6.19,6.19,0,0,1-1.07-.59,1.43,1.43,0,0,1,.13-2.62,4.65,4.65,0,0,1,1.12-.49,3,3,0,0,0,2.24-3.09c.19-2.45.36-4.91.42-7.36a5.4,5.4,0,0,1,1.33-3.77c1.48-1.59,3.58-1.23,4.13.83a19,19,0,0,1,.45,4.46c0,1.63-.16,3.28-.18,4.92A12.34,12.34,0,0,0,1261.37,136.17Z"/><path d="M1164.72,212.59a6,6,0,0,0,.47-1.84c-.29-4.8,1.86-8.78,4.19-12.67a29.66,29.66,0,0,1,7.19-7.84,4.49,4.49,0,0,1,3.85-1,3.28,3.28,0,0,1,2.3,1.56c1,1.66,2,3.27,2.88,5a4.08,4.08,0,0,1,.41,1.95,15.37,15.37,0,0,1-.4,3.25,32.18,32.18,0,0,0-.37,12.25c.09.65.1,1.32.14,1.93-2.16.8-3.13.57-3.78-1-.53-1.24-.85-2.57-1.35-4.12a9.14,9.14,0,0,0-2.29.64,34.08,34.08,0,0,1-20,4.95,9.82,9.82,0,0,1-7.8-4.72,15.58,15.58,0,0,1,1.08-18.36,20.28,20.28,0,0,1,2.42-2.79,8,8,0,0,1,8-1.65,2.09,2.09,0,0,1,1.43,2.92c-.87,2.61-1.91,3.19-5.5,3a20.53,20.53,0,0,0-3.19,5.1,13.78,13.78,0,0,0-.76,5.65A9,9,0,0,0,1164.72,212.59Zm6.61-3.78c.32.07.49.17.58.12,4.1-2.27,6.57-5.62,6.78-10.41,0-.42-.4-.86-.68-1.43-3.18,1.81-4.13,4.95-5.75,7.57A5.15,5.15,0,0,0,1171.33,208.81Z"/><path d="M1259.19,93.55a4.31,4.31,0,0,1-3,2.9c-3.31,1.29-6.68,2.42-10,3.58a6.24,6.24,0,0,1-1.61.27c-2.43.18-3.57-.56-4.35-2.82-.13-.39-.12-.82-.25-1.21a12.86,12.86,0,0,0-.63-1.32,18.9,18.9,0,0,0-2.19.9,29.86,29.86,0,0,1-10.45,3.48,6.13,6.13,0,0,1-5.33-1.55,5,5,0,0,1-1.71-3.17,16.83,16.83,0,0,1,12-18.33,7.67,7.67,0,0,1,7,1.5,4.21,4.21,0,0,1,1.29,4.86,8.51,8.51,0,0,1-2,3.49c-2.83,2.81-5.84,5.44-10.08,5.91a3.77,3.77,0,0,0-1.54.49,1.22,1.22,0,0,0,0,2,5.5,5.5,0,0,0,1.89.71,10,10,0,0,0,6-1q2.78-1.33,5.56-2.64a4.81,4.81,0,0,0,2.3-2.24c1.91-3.69,6-8.7,9.16-10.83a16.25,16.25,0,0,1,4.44-2c2-.61,3.78.22,5.26,1.59a3.53,3.53,0,0,1,1.2,3.33,8.89,8.89,0,0,1-2.18,4.77c-2.93,3.06-6.18,5.34-10.59,5.66-1.91.14-2.41.75-2.53,2.11-.07.9.51,1.78,1.32,1.73a23.65,23.65,0,0,0,4-.54c1.6-.38,3.14-1,4.73-1.42A15.5,15.5,0,0,1,1259.19,93.55Zm-23.91-12.34c-.24-.25-.53-.75-1-.93a3.2,3.2,0,0,0-3.45.49,37.28,37.28,0,0,0-3.8,4.13,1.25,1.25,0,0,0,0,1.82,2,2,0,0,0,1.48.4,9.12,9.12,0,0,0,6.58-4.86A3.58,3.58,0,0,0,1235.28,81.21Zm16.42,4.5c2.29-.53,4.26-1.36,5.29-3.46a1,1,0,0,0-1.21-1.43A5.78,5.78,0,0,0,1251.7,85.71Z"/><path d="M998.5,92.38a7.48,7.48,0,0,0,.51-1.62c.29-3.94,2-7.37,3.84-10.74.93-1.67,1.77-3.4,2.68-5.08,1.14-2.09,2.77-3.34,5.5-3,1.44,1.67,3,3.41,4.47,5.15.45.51.81,1.23,1.38,1.48,2.31,1,2.73,3.09,2.61,5.14-.34,6.09-2.69,11.12-8.34,14.14-.48.26-1,.43-1.49.67-3.74,1.82-6.81.75-8.71-2-1.2-1.77-2.53-2.09-4.56-1.37a15.1,15.1,0,0,1-4.86.63,7,7,0,0,1-7.22-5.44,14.13,14.13,0,0,1-.1-8.49,18.06,18.06,0,0,1,8.07-10.47c3.34-2,6.74-.34,7.41,3.5a5.34,5.34,0,0,1-.93,4.67,2.67,2.67,0,0,1-1.74.78c-.34,0-.71-.68-1-1.07a.94.94,0,0,1-.09-.4c-.14-.94-.18-2-1.26-2.39-.74-.28-1.72.4-2.47,1.78s-1.42,2.66-2.06,4a9.63,9.63,0,0,0-.22,7.59,4.57,4.57,0,0,0,4.29,3.27A7.13,7.13,0,0,0,998.5,92.38Zm15.38-7.49a23.82,23.82,0,0,0-.44-3.1,20,20,0,0,0-1.31-3.39,1.31,1.31,0,0,0-2.09-.28,12.82,12.82,0,0,0-1.23,1.6c-1.84,2.76-2.72,5.92-3.68,9a6.22,6.22,0,0,0,.39,4.77c.72,1.43,2.16,1.92,3.35.89C1011.72,91.94,1013.8,89,1013.88,84.89Z"/><path d="M928.74,145.46a10.57,10.57,0,0,0-.81-1.42c-.51-.64-1.13-1.19-1.65-1.82-3.57-4.32-3.24-7.67,1.16-11.24,3.43-2.78,7.54-3.77,11.81-4.22a5.23,5.23,0,0,1,2.35.53,2.25,2.25,0,0,1,1.39,2.29,2.77,2.77,0,0,1-2.54,2.27,1.33,1.33,0,0,1-.4,0c-3.48-1.23-6.08.88-8.74,2.44-1.87,1.09-2,2.9-.5,4.51,1.31,1.38,2.89,2.5,4.3,3.8a18.64,18.64,0,0,1,2.52,2.66,2.06,2.06,0,0,1-.32,3,10.72,10.72,0,0,1-3.86,2.17,27.37,27.37,0,0,1-6.53.24,4,4,0,0,1-2.53-1.13c-1.69-1.85-3.5-1.78-5.59-.95-2.86,1.14-5.84,1.05-8.88,1.07-4.77,0-9.08-5.6-7.63-10.45.6-2,1.12-3.87,3-5.15,2.37-1.6,4.54-3.51,6.9-5.13a7.5,7.5,0,0,1,3-1.09c2.73-.46,3.71,1.54,3.83,3.66a3.07,3.07,0,0,1-1.05,2.1c-2.07,1.78-4.24,3.43-6.41,5.09-.86.66-1.86,1.14-2.68,1.84a2.15,2.15,0,0,0-.16,3.27,5.83,5.83,0,0,0,3.87,2.13,19.88,19.88,0,0,0,4.08,0,17.64,17.64,0,0,1,7.71.37A3.85,3.85,0,0,0,928.74,145.46Z"/><path d="M1292.51,103.38c-3.58-2.78-4.28-3.9-4.73-8.31a32.3,32.3,0,0,1,0-6.14c.24-2.71.71-5.41,1.18-8.1a4.64,4.64,0,0,1,2.79-3.8c1.85-.76,3.45.11,3.45,2.09a36.72,36.72,0,0,1-.57,4.87c-.36,2.7-.8,5.4-1.06,8.11a14.31,14.31,0,0,0,.31,3c1.1.51,1.63.11,1.88-.58.91-2.43,1.67-4.93,2.67-7.32a25.73,25.73,0,0,1,2.44-4.21,2.3,2.3,0,0,1,2.58-.78,1.8,1.8,0,0,1,1.62,2,29.25,29.25,0,0,1-.93,5.22c-1,3.13-2.16,6.2-3.31,9.27q-3,8-6,16.07c-.53,1.41-1.07,2.81-1.66,4.19a4.7,4.7,0,0,1-2.59,2.5,1.67,1.67,0,0,1-2.44-1.34,10.9,10.9,0,0,1,.4-3.22c1.1-3.66,2.34-7.27,3.48-10.92A26.45,26.45,0,0,0,1292.51,103.38Z"/><path d="M857.39,202.72c1.34-1.14,2.07-1.71,2.74-2.34,1.18-1.13,2.25-2.4,3.51-3.44a5.31,5.31,0,0,1,5.75-1,5.77,5.77,0,0,1,3.81,5.36,7.14,7.14,0,0,1-1.24,5.06,9.71,9.71,0,0,0-1.11,1.72c-2.43,4.73-6.66,6.68-11.61,7.4a6.61,6.61,0,0,1-7.54-5.84,29.65,29.65,0,0,1-.07-5.73c.3-3.68.75-7.34,1.17-11,.33-2.85.67-5.7,1.07-8.54a10,10,0,0,1,.73-2.75,2.88,2.88,0,0,1,3.08-1.53,2.27,2.27,0,0,1,1.82,2.42c.07,3.27.21,6.55-.82,9.75A25.81,25.81,0,0,0,857.39,202.72Zm-.64,9.06a11.32,11.32,0,0,0,2.9-.22,15.93,15.93,0,0,0,7.49-6.74,5.53,5.53,0,0,0,.49-2.35,1.14,1.14,0,0,0-1.49-1,8,8,0,0,0-2,1.32C861.47,205.39,859.55,208.53,856.75,211.78Z"/><path d="M1220.42,134c1.37-1.19,2.46-2.22,3.64-3.15a4.22,4.22,0,0,1,5.92.23,7.13,7.13,0,0,1,2.39,4.21,78.24,78.24,0,0,1,1,9.76c.06,2.84-.71,5.68-.17,8.57a3.52,3.52,0,0,1-.41,2,2.29,2.29,0,0,1-2.25,1.49,2.09,2.09,0,0,1-1.95-1.83,19.63,19.63,0,0,1-.29-4.06,60.19,60.19,0,0,0-.54-11.46,21.36,21.36,0,0,0-1-3,8.92,8.92,0,0,0-2.08,1.44,18.3,18.3,0,0,0-3,7.54c-.37,1.74-.53,3.52-.73,5.28a5.09,5.09,0,0,1-1.61,3.23c-1.19,1.14-2.69,1-3.44-.36a7.42,7.42,0,0,1-.94-2.67c-.2-1.9-.15-3.82-.28-5.73-.16-2.31-.48-4.62-.56-6.93a21.93,21.93,0,0,1,.35-4.86,2.21,2.21,0,0,1,3.25-1.43A27.8,27.8,0,0,1,1220.42,134Z"/><path d="M1041.85,77a4.27,4.27,0,0,1,4.54-3,24.22,24.22,0,0,0,3.23-.48c4.55-.49,7.09.29,9.47,5.25A21.5,21.5,0,0,1,1060.87,90c-.23,2.86-.65,5.7-1.09,8.53-.07.41-.73,1-1.09,1a2.48,2.48,0,0,1-1.66-.82,3.94,3.94,0,0,1-.67-1.9,39.87,39.87,0,0,1-.36-4.08c-.09-2.46-.1-4.92-.15-7.38a6.17,6.17,0,0,0-2.12-4.71,5,5,0,0,0-2.17-1,1.72,1.72,0,0,0-2.09,1.48,25,25,0,0,0-.17,3.67c.11,4.64.29,9.28.39,13.93a7.13,7.13,0,0,1-.33,2.39,2.82,2.82,0,0,1-3,1.67,2.16,2.16,0,0,1-2-2.2c-.29-4.36-.48-8.73-.71-13.09-.1-1.77-.06-3.57-.33-5.31A48.05,48.05,0,0,0,1041.85,77Z"/><path d="M1111.91,203.26c-.36,1-.42,1.73-.82,2.12-3.31,3.16-6.87,5.89-11.71,6.2a47.71,47.71,0,0,1-4.89.43c-3.7-.18-5.47-1.84-6-5.5a15.74,15.74,0,0,1,.82-8.48c.69-1.63,1.5-3.22,2.31-4.8,1.84-3.57,5.07-5.23,8.75-6.21a6.28,6.28,0,0,1,4.77.6c3.64,1.94,4.66,4.1,2.27,8a13.55,13.55,0,0,1-8.3,6.29c-1.19.31-2.42.48-3.59.84a2.31,2.31,0,0,0-.76,4.16,5.7,5.7,0,0,0,6.14,1.07c2.25-1,4.44-2.12,6.61-3.27C1108.71,204.13,1109.74,203.17,1111.91,203.26ZM1096,197a7.56,7.56,0,0,0,6.88-3.49,2.24,2.24,0,0,0,0-1.86c-.16-.35-.9-.6-1.39-.62a4.46,4.46,0,0,0-1.94.42C1097.45,192.47,1096.42,194.23,1096,197Z"/><path d="M1062.49,79.26c1.44-3,4.39-3.14,6.17-5.05A97.94,97.94,0,0,0,1070.55,61a6.42,6.42,0,0,1,1.87-4.41c.76-.69,1.66-1.22,2.58-.69a3.16,3.16,0,0,1,1.36,1.86,14,14,0,0,1,.17,3.66c-.11,2-.38,4.09-.55,6.13-.06.79,0,1.58,0,2.53a25,25,0,0,1,2.84.72,1.68,1.68,0,0,1,.68,2.71,15.75,15.75,0,0,1-2.82,2.33,5.15,5.15,0,0,0-2.57,4.39c-.12,5.72-1.26,11.41-.67,17.17a2.81,2.81,0,0,1-1.19,2.85c-1.74,1.22-3.1.84-3.77-1.19a19.3,19.3,0,0,1-1-7.27c.14-2.6.32-5.19.42-7.78,0-1.2.36-2.47-.61-3.81Z"/><path d="M1032,101.33l-1.92-3.83a20.67,20.67,0,0,0-2.24.46,11.94,11.94,0,0,0-1.45.77c-3.4,1.59-6,.11-6.2-3.72a61.21,61.21,0,0,1,.18-7.78c.19-2.73.52-5.45.93-8.15a6.68,6.68,0,0,1,1.05-2.58,2.27,2.27,0,0,1,2.49-1.06c1.08.26,1.39,1.21,1.63,2.15a3.21,3.21,0,0,1,0,.82c-.2,3.13-.31,6.27-.64,9.39-.29,2.82-.39,2.81.28,5.11,1.18.31,1.8-.57,2.31-1.3a12.2,12.2,0,0,0,2.65-6.34c.19-3.06,1.36-5.84,2.49-8.62.51-1.28,1.16-1.67,2.12-1.49,1.5.27,2.48,1.08,2.49,2.29a17.86,17.86,0,0,1-.36,3.65c-.44,2.14-1.13,4.23-1.51,6.37-.57,3.18-1.62,6.41.61,9.48a2.16,2.16,0,0,1-.45,2.65A4.64,4.64,0,0,1,1032,101.33Z"/><path d="M1211.47,144.16c0,6.22-2.88,10.23-8.5,11.92a29.23,29.23,0,0,1-3.18.85,3.71,3.71,0,0,1-4.43-2.13,12,12,0,0,1-1.4-7.16,39,39,0,0,1,4-13.33,10.2,10.2,0,0,1,3.56-3.9c2.12-1.43,3.91-1.2,5.32.86a6.25,6.25,0,0,1,1.16,3,6,6,0,0,0,1.54,3.69A8.88,8.88,0,0,1,1211.47,144.16Zm-10.77,7.77c3-1.42,5-3.17,5.23-6.44.23-4-.69-6.2-3.24-7.78a16.45,16.45,0,0,0-2.92,7.85C1199.45,147.55,1199.14,149.6,1200.7,151.93Z"/><path d="M1309.19,150.66c-.38.69-.49,1.14-.77,1.35a23,23,0,0,1-12.86,4.74,11.62,11.62,0,0,1-3.62-.47,5.49,5.49,0,0,1-4-4.29,27.58,27.58,0,0,0-.59-3.21,16.51,16.51,0,0,0-1.73-2.82,9.06,9.06,0,0,1,1.86-1.72c2.3-1.06,4-2.85,5.78-4.5a19.72,19.72,0,0,1,10-5.33c1.27-.21,2.43-.25,3.33.91a3.26,3.26,0,0,1,.27,3.84,15,15,0,0,1-2.09,3,24.33,24.33,0,0,1-8.33,5.81,12.34,12.34,0,0,0-2.19,1.07,1.76,1.76,0,0,0,.24,2.8,4.77,4.77,0,0,0,3.55.57c2.27-.51,4.51-1.1,6.77-1.63a24.2,24.2,0,0,1,2.8-.52A6,6,0,0,1,1309.19,150.66Z"/><path d="M1091.13,79.27h3.8c1.37-.94,2.09-2.45,3.1-3.72a19.83,19.83,0,0,1,3.34-3.56c3.39-2.59,7.36-1.33,8.85,2.66.19.51.38,1,.62,1.52a3,3,0,0,1-.54,3.43c-2.09,2.57-4.4,4.89-7.75,5.77-.27.07-.54.12-.8.2-2.09.68-2.55,1.25-2.55,3.12,0,2.06.69,3.24,2.63,3.57a21.86,21.86,0,0,0,4.85,0c1.87-.12,3.63-1.11,6-.91-.48.67-.66,1.18-1,1.38a27.06,27.06,0,0,1-9.63,3.33,13.75,13.75,0,0,1-2.86.18,5.4,5.4,0,0,1-5.2-3.91,4.71,4.71,0,0,1-.27-.77,45.34,45.34,0,0,0-.57-6.09C1092.73,83.51,1090.87,82,1091.13,79.27ZM1101.69,81a7.13,7.13,0,0,0,4.3-3.48,1.51,1.51,0,0,0-.37-2.12,1.32,1.32,0,0,0-1.82.27,39.42,39.42,0,0,0-2.45,4.11C1101.22,80,1101.53,80.49,1101.69,81Z"/><path d="M882.05,128.49c.82-.32,1.44-.61,2.08-.82a5.8,5.8,0,0,1,6,1.51,10.8,10.8,0,0,1,3.75,7.93c0,1.22,0,2.45,0,3.68-.07,2.17-.16,4.34-.24,6.51a2.5,2.5,0,0,1-2.32,2.4,2,2,0,0,1-2.22-1.93c-.32-3-.45-6-.78-9a15.11,15.11,0,0,0-.93-3.93,1.79,1.79,0,0,0-3-.41,5.92,5.92,0,0,0-1.62,4.09c-.12,2-.12,4.09-.19,6.14a20.77,20.77,0,0,1-.16,2.85,2.89,2.89,0,0,1-2.93,2.35,2.52,2.52,0,0,1-2.49-2.27,27.18,27.18,0,0,1-.23-3.26q-.29-6.74-.56-13.49a10.1,10.1,0,0,1,0-1.23,2.66,2.66,0,0,1,3.49-2.4A16.08,16.08,0,0,1,882.05,128.49Z"/><path d="M1222.24,199.92c.37-2.56.75-4.27.85-6,.12-2.08-1.25-3-3.17-2.4a6.58,6.58,0,0,0-4.38,6.3,8,8,0,0,0,2.33,5.54c2,2.05,4.08,4.05,6.08,6.12a17.89,17.89,0,0,1,2,2.55,1.65,1.65,0,0,1-.52,2.18c-3.4,2.46-9.19,1.37-11.26-2.21a4.88,4.88,0,0,1-.58-2.73,5.82,5.82,0,0,0-1.43-4.53c-4.54-5.54-2.69-16.51,8.37-17.9a8.59,8.59,0,0,1,5.8,1.63c1.5.94,2.4,4.8,1.38,6.38A13.35,13.35,0,0,1,1222.24,199.92Z"/><path d="M1076.11,142.56a14.58,14.58,0,0,1-2,2.05c-3.2,2.1-6.43,4.14-9.69,6.16a7.48,7.48,0,0,1-5.18.8A6.11,6.11,0,0,1,1054,147c-.52-1.66-1.19-3.27-2-5.41.52-1.07,2.14-2.06,2.52-3.91a21.42,21.42,0,0,1,1.89-4.53,11.28,11.28,0,0,1,5.78-6.1c.38-.16.75-.34,1.14-.46a4.55,4.55,0,0,1,6,4.34,3.61,3.61,0,0,1-.72,1.87,31.2,31.2,0,0,1-6.2,7.07,11.78,11.78,0,0,0-2.07,2,3.13,3.13,0,0,0-.22,3.49,2.71,2.71,0,0,0,2.79,1.36c3.51-.22,6.58-1.71,9.58-3.39C1073.37,142.82,1074.19,142,1076.11,142.56Z"/><path d="M869.57,93.87a16.71,16.71,0,0,1-2,1.32c-2.16,1-3.69.46-4.57-1.8a19.66,19.66,0,0,1-1.23-4.75,50.31,50.31,0,0,1,0-14.29c.45-2.68.63-5.4.9-7.85-1.53-2.06-3.94-.86-5.4-2.15a1.26,1.26,0,0,1,.59-1.74c.8-.51,1.67-.92,2.51-1.37l4.69-2.46a7.35,7.35,0,0,1,1.45-.74,18.87,18.87,0,0,0,5.86-2.85,6.16,6.16,0,0,1,2.71-.75,1.61,1.61,0,0,1,1.64,2.2c-1.1,2.56-2.44,5-5.27,6a4.84,4.84,0,0,0-3.49,4.1c-.37,2-1,4-1.24,6-.4,4-.62,7.91-.83,11.86a16.72,16.72,0,0,0,.26,3.67C866.7,91.44,866.74,91.43,869.57,93.87Z"/><path d="M1037.51,145.3c.59-1.74,1-3.16,1.56-4.55,1.39-3.57,2.79-7.13,4.24-10.67a6.73,6.73,0,0,1,1.35-2,2,2,0,0,1,2.29-.41c.82.34,1.49,1,1.35,1.86a18.85,18.85,0,0,1-1.13,4.74,73.71,73.71,0,0,0-4.06,10.75c-.31,1.19-.83,2.34-1,3.54a19.54,19.54,0,0,0,0,3.25c-2.57,1.66-2.56,1.64-4.55.19a6.72,6.72,0,0,0-2.06-1.28c-3.78-.94-4.73-3.87-5-7.15a39.73,39.73,0,0,1,.34-5.74c.14-1.91.22-3.83.49-5.72a6.49,6.49,0,0,1,1-2.65,2.17,2.17,0,0,1,3.92.46,10,10,0,0,1,.52,3.61c-.11,2.87-.41,5.74-.66,8.6C1036,143.22,1035.83,144.3,1037.51,145.3Z"/><path d="M872.72,81a24,24,0,0,1,3.53-12.14,12.56,12.56,0,0,1,1.67-2.29,2.2,2.2,0,0,1,1.39-.74,14.8,14.8,0,0,1,7.08,1.51,3,3,0,0,1,1.18,1.12c1.94,3.29,3.66,6.73,3.75,10.63.08,3.62-2.38,6-4.82,8.14a22.72,22.72,0,0,1-3.79,2.4c-3.42,2-6.65,1.19-8.85-2.1A8.31,8.31,0,0,1,872.72,81Zm13.53-3.18c0-.82-.07-1.64-.17-2.45a7.49,7.49,0,0,0-.41-2,13.25,13.25,0,0,0-1.51-2.86,2.23,2.23,0,0,0-3.56-.17,6,6,0,0,0-1,1.29c-1.71,3-2,6.48-2.37,9.85a4,4,0,0,0,.29,1.6c.81,2.63,3.4,3.41,5.46,1.52S886.46,80.69,886.25,77.8Z"/><path d="M961.94,87.41c-.49.86-.66,1.62-1.1,1.86A24.29,24.29,0,0,1,951.46,92c-3.82.35-6-3-5.71-6.44.24-3,.71-6.17,3.52-8.4,2.12-1.67,3.79-3.9,5.69-5.85a7.52,7.52,0,0,1,1.6-1.27c1.88-1.1,3.77-1.59,5.69,0a11.8,11.8,0,0,0,1.7,1,5,5,0,0,1-1,5.45c-2.11,2.32-4.26,4.68-7.72,5a2.83,2.83,0,0,0-2.65,1.62c-1.75,4-.59,5,2.88,4.86,1.36-.07,2.7-.36,4-.49C960.17,87.35,960.83,87.41,961.94,87.41Z"/><path d="M1128.9,74.66a8.46,8.46,0,0,0-5.16.9c-2.09,1.2-2.51,3.4-.88,5.15a18.83,18.83,0,0,0,2.86,2.3c1.75,1.29,3.63,2.44,5.29,3.84s1.61,3,.06,4.2c-2.84,2.13-5.88,4.06-9.61,4.11a9.09,9.09,0,0,1-3.52-.81,2.24,2.24,0,0,1-1-1.6c-.09-.8.69-1.1,1.38-1.17,1-.1,1.92,0,2.86-.17a10.15,10.15,0,0,0,2.38-.54,1.35,1.35,0,0,0,.46-2.32c-.74-.59-1.58-1.06-2.37-1.59a13.06,13.06,0,0,1-4.73-5c-1.32-2.72-1.19-5.32.82-7.62a12.81,12.81,0,0,1,12.43-4.61,5.63,5.63,0,0,1,1.87.76,2.15,2.15,0,0,1,.85,2.52,2.13,2.13,0,0,1-2,1.78A17.29,17.29,0,0,1,1128.9,74.66Z"/><path d="M1188.13,196.1c1.63-2.56,3.66-.9,5.67-.54a16.78,16.78,0,0,0,1.3-2,9,9,0,0,1,3.53-3.89A6.35,6.35,0,0,1,1208,193c.2.59-.3,1.41-.58,2.54-1-.69-1.6-1.15-2.25-1.56-2.46-1.54-4.49-.79-5.34,2a10.1,10.1,0,0,0-.52,2.81c0,4.49-.59,9,.13,13.48.26,1.66-.21,2.46-1.46,3-1.69.67-3.09.3-3.93-1.08a8.43,8.43,0,0,1-.89-1.84c-1.1-3.79-2.94-7.34-3.45-11.33A28.58,28.58,0,0,0,1188.13,196.1Z"/><path d="M1140.57,94.15a16.4,16.4,0,0,0,2.43,0,1.9,1.9,0,0,0,1.4-3c-1-1.63-2.15-3.16-3.24-4.73a6.81,6.81,0,0,1-1-6.59,4.88,4.88,0,0,1,.73-1.46c3.44-4,7.64-6.58,13.1-6.59a4.62,4.62,0,0,1,2,.46c1.91.94,2,2.93.25,4.22a5.86,5.86,0,0,1-3.88,1,7.57,7.57,0,0,0-4.31,1.07A3.47,3.47,0,0,0,1146.4,83a17.71,17.71,0,0,0,1.54,2.88c.43.69,1,1.27,1.49,2,3,4.42.87,9.55-4.37,10.66-.4.08-.82.09-1.21.2-2.65.73-4.49-.53-6-2.49a1.76,1.76,0,0,1-.2-1.49,2,2,0,0,1,1.28-.8,5.91,5.91,0,0,1,1.62.06Z"/><path d="M1269.79,96.47c-.69-1.2-1.26-2.26-1.9-3.29-3.14-5.11-2.26-10.17,2.48-13.78,3.34-2.55,7-4.38,11.35-3.94a4.7,4.7,0,0,1,4.38,4.6,2,2,0,0,1-1.75,2.32,2.11,2.11,0,0,1-.42-.18c-.86-.62-1-2.13-2.28-2.16a15.18,15.18,0,0,0-3.61.39,11.45,11.45,0,0,0-2.65,1.08c-3.11,1.58-4.25,4.33-2.78,7.53a37.83,37.83,0,0,0,3.53,5.51c.62.89,1.45,1.64,2.07,2.53a1.88,1.88,0,0,1-.37,2.59,7.41,7.41,0,0,1-1.68,1.16c-2.43,1.08-7.3,0-9.13-2.11a1.45,1.45,0,0,1,.23-1.37A12.67,12.67,0,0,1,1269.79,96.47Z"/><path d="M1080.25,89.7A45.7,45.7,0,0,1,1082,75.38a51.18,51.18,0,0,0,1.94-11.72,4.22,4.22,0,0,1,1.66-3.57c1.26-.94,2.91-.67,3.4.78a12.28,12.28,0,0,1,.62,4,43.59,43.59,0,0,1-1.91,11.73,55.16,55.16,0,0,0-2,15,13.07,13.07,0,0,1-.22,3.26,3.55,3.55,0,0,1-1.45,1.81,2,2,0,0,1-3-1,18.42,18.42,0,0,1-.65-2.78,3.73,3.73,0,0,1,0-.82Z"/><path d="M1118.76,193.16c1.6-.37,3-.71,4.49-1,2-.44,4-1,6-1.27,1.82-.27,3.54,0,4.71,1.9A5.93,5.93,0,0,1,1130,196c-1.55.53-3.15.91-4.69,1.45a4.57,4.57,0,0,0-3.14,3c-.48,1.56-1,3.12-1.49,4.67a5.55,5.55,0,0,1-.86,1.82,2.94,2.94,0,0,1-5-1,19.15,19.15,0,0,1-.89-3.15c-.6-3.22-1.17-6.45-1.65-9.69a6.45,6.45,0,0,1,.16-2.8,2.4,2.4,0,0,1,4.22-.85A24.21,24.21,0,0,1,1118.76,193.16Z"/><path d="M856.59,139.49c.44-5.16.86-10.33,1.32-15.49a6.07,6.07,0,0,1,2-3.93,2.36,2.36,0,0,1,2.59-.73,2.13,2.13,0,0,1,1.41,2.26c-.12,2.6-.15,5.21-.48,7.77-.92,7.09-.61,14.18-.25,21.28,0,.68.16,1.36.14,2a2.43,2.43,0,0,1-2.3,2.43,2.2,2.2,0,0,1-2.63-1.44,30,30,0,0,1-1.29-6c-.22-2.71-.05-5.46-.05-8.19Z"/><path d="M872,141.41l.42,6.54a12.81,12.81,0,0,1,.14,1.63,2.11,2.11,0,0,1-1.41,1.86,2,2,0,0,1-2.62-.45,9.56,9.56,0,0,1-1.7-3.21,26.69,26.69,0,0,1-.68-5.28c-.1-2.6-.09-5.21,0-7.8a10.75,10.75,0,0,1,.82-3.54,2.31,2.31,0,0,1,2.42-1.21,2,2,0,0,1,2,1.69c.38,2.15.67,4.32.86,6.49a21.16,21.16,0,0,1-.18,3.27Z"/><path d="M1018.72,135.35a43.88,43.88,0,0,1,2.5-10.72,3.86,3.86,0,0,1,.63-1,2.31,2.31,0,0,1,4,.52,5.58,5.58,0,0,1,.06,4.39c-.61,1.66-1.27,3.31-1.9,5-.73,1.9-1.38,3.83-2.22,5.68a2.18,2.18,0,0,1-1.59.9c-.33,0-1-.6-1.05-1A36.43,36.43,0,0,1,1018.72,135.35Z"/><path d="M1240.6,212.72c-.08,1.45-2,2.9-3.56,2.72a3,3,0,0,1,.32-5.79A3.34,3.34,0,0,1,1240.6,212.72Z"/><path d="M871.1,124.84a2.92,2.92,0,0,1-2.91-2.74,2.3,2.3,0,0,1,2-2.53,2.89,2.89,0,0,1,3.14,2.45A2.62,2.62,0,0,1,871.1,124.84Z"/><path d="M889.78,195.63c1.52,2.55.43,4.69-.89,6.73a3.47,3.47,0,0,1-4.19,1.6,6.2,6.2,0,0,1,1.36-4.62C887,197.92,887.71,196.23,889.78,195.63Z" style="fill:#fff"/><path d="M882.36,208.35c0-1.2.53-1.94,1.57-2.16a1.26,1.26,0,0,1,1,.37,1.13,1.13,0,0,1,0,1.05,8.25,8.25,0,0,1-1.89,1.3C883,209,882.58,208.52,882.36,208.35Z" style="fill:#fff"/><path d="M1108.13,152.33a7.36,7.36,0,0,1-6.51-.63,1.93,1.93,0,0,1-.85-2.47c.76-2.3,3-2.91,4.77-1.28C1106.78,149.11,1107.18,149.76,1108.13,152.33Z" style="fill:#fff"/><path d="M1131.12,136.41c-3.08,2.27-3.58,2.49-6.48,2.88-.1-.34-.41-.83-.28-1a9.42,9.42,0,0,1,2.24-2.73C1128,134.63,1129.63,134.7,1131.12,136.41Z" style="fill:#fff"/><path d="M1144.3,140.36c.71-2.34,1.77-3.43,3.54-3.71.29,0,.71.3,1,.57s0,.56-.08.75C1147.79,139.26,1146.43,139.81,1144.3,140.36Z" style="fill:#fff"/><path d="M1041.47,192.5c3.12,2,3.37,4.89,3,7.73a10.67,10.67,0,0,1-4.58,7.47,2.37,2.37,0,0,1-3.91-1.26,8.31,8.31,0,0,1-.34-2.81C1035.71,199.74,1037.87,195.6,1041.47,192.5Z" style="fill:#fff"/><path d="M990,196c-.32,4.58-3.65,9.58-7.6,11.07-1.79.68-3.06-.18-2.87-2.08a17.65,17.65,0,0,1,.84-4.41c1-2.68,2.17-5.29,3.35-7.9a7.88,7.88,0,0,1,1.41-2,2,2,0,0,1,3.41.3A36.67,36.67,0,0,1,990,196Z" style="fill:#fff"/><path d="M1003.08,141.82a6.27,6.27,0,0,1,1.53-5.42,1.34,1.34,0,0,1,1.09-.33,1.38,1.38,0,0,1,.83.79,2.66,2.66,0,0,1,.1,1.57A5.31,5.31,0,0,1,1003.08,141.82Z" style="fill:#fff"/><path d="M1171.33,208.81a5.15,5.15,0,0,1,.93-4.15c1.62-2.62,2.57-5.76,5.75-7.57.28.57.69,1,.68,1.43-.21,4.79-2.68,8.14-6.78,10.41C1171.82,209,1171.65,208.88,1171.33,208.81Z" style="fill:#fff"/><path d="M1235.28,81.21a3.58,3.58,0,0,1-.18,1.05,9.12,9.12,0,0,1-6.58,4.86,2,2,0,0,1-1.48-.4,1.25,1.25,0,0,1,0-1.82,37.28,37.28,0,0,1,3.8-4.13,3.2,3.2,0,0,1,3.45-.49C1234.75,80.46,1235,81,1235.28,81.21Z" style="fill:#fff"/><path d="M1251.7,85.71a5.78,5.78,0,0,1,4.08-4.89,1,1,0,0,1,1.21,1.43C1256,84.35,1254,85.18,1251.7,85.71Z" style="fill:#fff"/><path d="M1013.88,84.89c-.08,4.11-2.16,7-5,9.51-1.19,1-2.63.54-3.35-.89a6.22,6.22,0,0,1-.39-4.77c1-3.1,1.84-6.26,3.68-9a12.82,12.82,0,0,1,1.23-1.6,1.31,1.31,0,0,1,2.09.28,20,20,0,0,1,1.31,3.39A23.82,23.82,0,0,1,1013.88,84.89Z" style="fill:#fff"/><path d="M856.75,211.78c2.8-3.25,4.72-6.39,7.36-9a8,8,0,0,1,2-1.32,1.14,1.14,0,0,1,1.49,1,5.53,5.53,0,0,1-.49,2.35,15.93,15.93,0,0,1-7.49,6.74A11.32,11.32,0,0,1,856.75,211.78Z" style="fill:#fff"/><path d="M1096,197c.39-2.76,1.42-4.52,3.53-5.55a4.46,4.46,0,0,1,1.94-.42c.49,0,1.23.27,1.39.62a2.24,2.24,0,0,1,0,1.86A7.56,7.56,0,0,1,1096,197Z" style="fill:#fff"/><path d="M1200.7,151.93c-1.56-2.33-1.25-4.38-.93-6.37a16.45,16.45,0,0,1,2.92-7.85c2.55,1.58,3.47,3.78,3.24,7.78C1205.75,148.76,1203.67,150.51,1200.7,151.93Z" style="fill:#fff"/><path d="M1101.69,81c-.16-.53-.47-1-.34-1.22a39.42,39.42,0,0,1,2.45-4.11,1.32,1.32,0,0,1,1.82-.27,1.51,1.51,0,0,1,.37,2.12A7.13,7.13,0,0,1,1101.69,81Z" style="fill:#fff"/><path d="M886.25,77.8c.21,2.89-1.32,5-3.26,6.78s-4.65,1.11-5.46-1.52a4,4,0,0,1-.29-1.6c.41-3.37.66-6.8,2.37-9.85a6,6,0,0,1,1-1.29,2.23,2.23,0,0,1,3.56.17,13.25,13.25,0,0,1,1.51,2.86,7.49,7.49,0,0,1,.41,2C886.18,76.16,886.2,77,886.25,77.8Z" style="fill:#fff"/></g></svg>
