<svg xmlns="http://www.w3.org/2000/svg" viewBox="0 0 1366 768"><title>separate</title><g id="Layer_10" data-name="Layer 10"><path d="M513.22,335h.06C512.88,335,513,335,513.22,335Z"/><path d="M528.58,372c-.67-4.11-1.42-8.21-2.32-12.28A110.86,110.86,0,0,0,523,347.86a31.69,31.69,0,0,0-4.42-9.23,10.16,10.16,0,0,0-3.43-3.09,5.07,5.07,0,0,0-1.09-.4,7.28,7.28,0,0,0-.87-.11,5.94,5.94,0,0,0-2.33.2c-2.51.76-1.33,4.53,1.16,3.95a2.64,2.64,0,0,0-.94,1.93c-.44,5.85-1.58,12.66-2,19,0,.21,0,.43,0,.64a5.35,5.35,0,0,0-1.06.62c-1.44,1.1-.77,3.6.83,4.13,0,1.61,0,3.22.1,4.82.22,3,.67,6.1,2.27,8.69a2.68,2.68,0,0,0,4.54-2.84.46.46,0,0,0-.05-.1c0-.09-.07-.17-.1-.26-.11-.29-.23-.57-.33-.86a16.67,16.67,0,0,1-.57-1.91,20.23,20.23,0,0,1-.57-3.77c-.13-1.53-.17-3.07-.17-4.6l.64-.11.38,0,.77,0a20.88,20.88,0,0,1,3.16.2c.22,0,.45.05.67.09l.42.06.12,0c.62.13,1.24.27,1.88.36.07.43.14.86.22,1.29q.45,2.7.83,5.42c.44,3.11.64,6.3,1.26,9.38a2.71,2.71,0,0,0,3.1,1.85,2.76,2.76,0,0,0,2.28-2.8A54.14,54.14,0,0,0,528.58,372Zm-12.74-12.35c-.59,0-1.18,0-1.77,0,0-.15,0-.31,0-.46.35-5.54,1.13-11,1.55-16.53l.18.31c.06.13.12.26.19.38l.16.34c.17.39.34.79.5,1.18.64,1.58,1.2,3.19,1.71,4.81,1.09,3.53,1.94,7.14,2.68,10.76A19.09,19.09,0,0,0,515.84,359.67Z"/><path d="M551.66,373.09a67.52,67.52,0,0,0-2.58-10.28c-1.26-3.87-2.74-8.19-5.6-11.21a7.27,7.27,0,0,0-10.09-.76,8.4,8.4,0,0,0-1.64,1.88,2.13,2.13,0,0,0-4,1.29c.48,3.13,1,6.25,1.51,9.38a38.69,38.69,0,0,0,.21,4.3c.09.88.2,1.76.37,2.62.08.37.15.74.25,1.1l.12.41.16.43.21.55a2.45,2.45,0,0,0,3.06,1.14,2.51,2.51,0,0,0,1.56-2.87c-.25-1.38-.51-2.75-.77-4.13v-.14c0-.39,0-.77-.07-1.16,0-.85,0-1.7,0-2.55s.09-1.65.19-2.47c0-.3.08-.61.13-.91,0-.12.06-.32.07-.37,0-.24.1-.48.16-.72a18,18,0,0,1,.66-2,2.83,2.83,0,0,1,.17-.35l.12-.24c.14-.25.31-.47.47-.7-.12.19.25-.3.39-.43l.19-.16.19-.12a2.06,2.06,0,0,0,.26-.12h0a4.31,4.31,0,0,0,.49-.11h0a3.62,3.62,0,0,0,.57,0h0c.26.14.75.44.16,0,.19.14.39.26.59.39l.05.05c.17.17.34.34.5.52l.43.55c.15.22.3.45.44.68a21.67,21.67,0,0,1,1.26,2.44c.17.37.33.75.49,1.13s.19.46.28.69l.15.39c.32.85.61,1.72.88,2.59,1.1,3.46,1.84,7,2.73,10.51a2.73,2.73,0,1,0,5.31-1.24Z"/><path d="M530.33,372.25l-.06-.17C530.42,372.49,530.44,372.55,530.33,372.25Z"/><path d="M576.53,379.68c-.91-3.08-2.15-6-3-9.14a98.8,98.8,0,0,1-2-9.79q-.33-2.17-.6-4.35a100.94,100.94,0,0,0-1.21-18c-.5-3.45-1.09-6.9-1.88-10.3-.67-2.91-5.69-2.2-5.27.83,1.21,8.88,1.64,17.85,2.63,26.75a2.12,2.12,0,0,0-1.76-.24c-8.07,3.05-10.42,14.95-4.73,21.16a2.55,2.55,0,0,0,2.55.62,11.57,11.57,0,0,0,6.59-5.9c.87,3.59,1.87,7.43,3.87,10.56C573.34,384.33,577.39,382.61,576.53,379.68Zm-12.7-12.29,0,.09c-.06.16-.13.32-.2.48-.16.35-.33.69-.52,1s-.38.64-.57.95l-.09.12-.21.27c-.23.25-.46.51-.71.75-.06.07-.14.13-.21.2a9.95,9.95,0,0,1,2.56-11.08c.46.41.93.81,1.41,1.21-.07.47-.15,1-.27,1.6A27.68,27.68,0,0,1,563.83,367.39Z"/><path d="M620.35,356.78a8.6,8.6,0,0,0-5.75-4,10.76,10.76,0,0,0-8.34,2.46l-.23.22a2.05,2.05,0,0,0-.07-.6,2.31,2.31,0,0,0-2.73-1.63,36.46,36.46,0,0,0-7,1.54,25.34,25.34,0,0,0-2.4.94c-1.17-6.09-1.9-12.26-3.14-18.33a2.43,2.43,0,0,0-3-1.55,2.46,2.46,0,0,0-1.55,3c1.28,6.3,2,13.24,3.19,19.83a2.54,2.54,0,0,0,.16,3.28,3.09,3.09,0,0,0,.56.41,63.38,63.38,0,0,0,2.19,8c1.09,3.11,2.45,6.85,5,9,2.31,2,5.15-.73,3.87-3.27-.69-1.37-1.59-2.63-2.32-4a33.88,33.88,0,0,1-1.73-4,68.3,68.3,0,0,1-2.17-7.41l.33-.21c.47-.27.95-.51,1.43-.74l.75-.32.1,0,.28-.1a36.91,36.91,0,0,1,6.54-1.67,1.89,1.89,0,0,0,.82-.39,2.35,2.35,0,0,0,.38,1.49,2.32,2.32,0,0,0,1.56,1.05c-1.86,6.59-3.36,14.6,3.68,17.63a6,6,0,0,0,7-1.07c1.58-1.6,2.36-3.84,3.16-5.89C622.62,366.08,623,360.89,620.35,356.78Zm-4,11a1,1,0,0,0,0,.12s0,.1-.07.18c-.1.25-.19.49-.28.74s-.31.78-.47,1.17a21.64,21.64,0,0,1-1.16,2.43c0-.09-.34.42-.41.52v0h0l-.16.09a2,2,0,0,1-.32.06h0a1.94,1.94,0,0,0-.63-.16l-.47-.21c-.27-.13-.53-.28-.79-.42l-.16-.07,0,0a2.5,2.5,0,0,0-.34-.31l-.24-.36a1,1,0,0,1-.12-.23,4.45,4.45,0,0,1-.19-.51,4.26,4.26,0,0,1-.15-.54,2.19,2.19,0,0,1-.06-.33c0-.27-.07-.55-.09-.82,0-.43,0-.86,0-1.28l0-.66c0-.12,0-.24,0-.36l0-.17a56.56,56.56,0,0,1,1.75-8.37l.07,0,.22-.07h0a11.27,11.27,0,0,1,1.16-.06c-.15,0,.63.13.81.17h0l0,0a3.31,3.31,0,0,0,.33.15l.22.14a1.81,1.81,0,0,1,.25.19c.12.12.26.26.39.37l.06.06a1.47,1.47,0,0,1,.1.13c.18.25.36.52.52.79,0,.09.17.38.17.36s.08.18.11.28a10.06,10.06,0,0,1,.37,1.18c0,.07.06.34.08.41s0,.25,0,.37A12,12,0,0,1,617,364c0,.23,0,.45,0,.68v.13s0,0,0,.09A18,18,0,0,1,616.37,367.73Z"/><path d="M612.27,358.14h0l-.24.07S612.07,358.21,612.27,358.14Z"/><path d="M613.73,373h0Z"/><path d="M658.92,351.05a2.41,2.41,0,0,0-2.83-1.72c-1.69.19-3.38.37-5.06.59-1.27-6.38-2.53-12.77-3.62-19.19a2.42,2.42,0,0,0-3-1.61,2.47,2.47,0,0,0-1.6,3c1,6.22,2.18,12.41,3.3,18.61-3.3.68-6.82,1.66-9.44,3.87-2.14,1.81.48,5.49,2.9,4a23.68,23.68,0,0,1,7.41-3c.54,3,1.08,6.09,1.57,9.15.27,1.71.52,3.42.79,5.12.32,2.07.43,4.17,1.44,6a2.39,2.39,0,0,0,4.32-.67c.43-2-.08-4-.4-6s-.64-3.71-1-5.56c-.56-3-1.16-6.05-1.75-9.07,1.74-.28,3.49-.52,5.24-.76A2.37,2.37,0,0,0,658.92,351.05Z"/><path d="M684.22,373.14c-1.7-5.83-1.77-12.88-5.88-17.71a9.47,9.47,0,0,0-9-3.1,6.34,6.34,0,0,0-3.68,2.6c-1-4.8-1.9-9.61-2.89-14.4-.62-3-5.15-1.95-4.58,1l5.28,27.62c.55,2.91,5.06,2.51,5.17-.44.09-2.41,0-4.82.26-7.22l.12-.88c0-.11,0-.16,0-.17s0-.1.07-.22a13.67,13.67,0,0,1,.51-1.65.41.41,0,0,0,0-.12.52.52,0,0,0,.08-.11c.1-.14.19-.28.28-.42l.19-.22,0,0,.18-.1h0a.49.49,0,0,0,.17-.05.64.64,0,0,1,.15,0h.09c.13,0,.54,0,.63,0l.17,0c.24.06.47.13.7.21s.62.24.69.25l.58.36.2.13s0,0,.09.13.39.44.57.67c0,.06.28.4.32.48.16.27.31.55.45.83s.24.5.34.76c0,.08.27.66.29.71A33.41,33.41,0,0,1,677,366.2c.66,2.9,1,6,2.26,8.74S685.06,376.06,684.22,373.14Z"/><path d="M689.59,368.34c0,.1.06.07,0-.09,0,0,0,0,0,.06Z"/><path d="M707,367.38c-2,.68-4,1.32-6,1.83-1,.25-2,.46-3.07.62-.49.08-1,.14-1.46.2l-.26,0-.75,0a16.74,16.74,0,0,1-2.74-.09c-.17,0-.37-.07-.55-.08l-.1,0c-.42-.11-.82-.23-1.22-.37l-.07,0c-.12-.08-.27-.14-.38-.21s-.23-.19-.35-.26L690,369a1.24,1.24,0,0,1-.14-.18c0,.09,0,.09-.11-.11a.27.27,0,0,0-.07-.08l.06,0,0,0c0-.08-.08-.18-.12-.27l0,0a.53.53,0,0,0-.08-.15s0,.06.07.09a.61.61,0,0,1-.07-.18c0-.17,0-.35-.09-.52s0-.08,0-.12c0-.48.05-.95.1-1.43v0a2.61,2.61,0,0,1,.06-.27c.06-.27.13-.54.21-.8s.14-.44.21-.65c3.38-.59,6.49-2.28,7.94-5.62a5.88,5.88,0,0,0,.05-4.89,3.83,3.83,0,0,0-4.55-1.91c-2.29.67-3.94,2.79-5.17,4.7a34.39,34.39,0,0,0-2,3.46l-.7-.05c-2.62-.22-3,3.45-.88,4.29a17.29,17.29,0,0,0-.35,1.71,7.92,7.92,0,0,0,1.82,6.58,10,10,0,0,0,6.12,2.77,25.53,25.53,0,0,0,8.08-.48,35.4,35.4,0,0,0,8.39-2.69C711.32,370.93,709.8,366.42,707,367.38Z"/><path d="M689.85,368.79a.69.69,0,0,0-.12-.14v0Z"/><path d="M728.16,351.88c0-.18-.08-.17,0,0Z"/><path d="M733.6,354a11.24,11.24,0,0,0-.55-2.29,5.52,5.52,0,0,0-.74-1.5,3.2,3.2,0,0,0-.77-.74c-.13-.1-.14-.1-.11-.07a2.12,2.12,0,0,0-2.94,3,2.4,2.4,0,0,1-.33-.51.44.44,0,0,0,0,.1c0,.1.19.6.22.67s.12.4.17.61.11.61.16.92c0,.11,0,.28,0,.34,0,.23,0,.46,0,.69a57.56,57.56,0,0,1-.16,6.3c-.14,2.29-.33,4.57-.53,6.85-.17,1.9-.71,4.24,0,6.09v.19c0,3.27,5.06,3.38,5.1.1v-.17a9,9,0,0,0,.46-3.25c0-1.1.09-2.19.15-3.28.11-2.44.25-4.88.24-7.31A47.9,47.9,0,0,0,733.6,354Z"/><path d="M727.52,340.5c-3.22,0-3.1,5,.12,5S730.74,340.5,727.52,340.5Z"/><path d="M754.18,350.5c-.82-1.56-2.29-4.2-4.12-4.61s-4.31,1-5.73,1.89a14.37,14.37,0,0,0-4.34,4.58,2.22,2.22,0,0,0-3.55,1.71c-.06,3.23.2,6.44.23,9.65-.09,1.22-.13,2.44-.1,3.66.07,3.33,5.29,3.08,5.18-.26a24.73,24.73,0,0,1,1.62-10,11.2,11.2,0,0,1,2.68-4.08,7.58,7.58,0,0,1,2.55-1.58,14.86,14.86,0,0,1,1.73,3.21,30.61,30.61,0,0,1,1.59,5.89,117.37,117.37,0,0,1,1,12.43c.2,3.51,5.47,3.22,5.45-.28C758.28,365.32,757.7,357.15,754.18,350.5Z"/><path d="M773.8,354.54c-1.33.15-2.68.25-4,.34A66.86,66.86,0,0,1,768.39,339a22.61,22.61,0,0,1,1.49-7.09,18.57,18.57,0,0,1,2.9,4.22c1.31,2.31,4.62.14,3.45-2.17-1.51-3-3.18-5.81-6.14-7.54a2.37,2.37,0,0,0-3.14.93c-4.21,5.87-4.2,14.17-3.53,21.06.23,2.34.55,4.67.92,7a24.18,24.18,0,0,0-4,.94,2.57,2.57,0,1,0,1.56,4.9c1-.3,2.12-.54,3.19-.76l.12,0h0c.38,2.1.78,4.2,1.18,6.29.5,2.57.93,6.51,3.85,7.45,2.52.81,4.07-2.44,2.74-4.24h0c-.13-.48-.31-.95-.44-1.43-.31-1.18-.56-2.39-.81-3.58-.35-1.71-.66-3.42-1-5.12,1.1-.11,2.19-.22,3.28-.37a2.48,2.48,0,0,0-.19-4.95Z"/><path d="M785.81,367.57c-.09-.66-.11-.84-.07-.55s0,.11,0-.15l-.09-.7c-.12-1.06-.23-2.12-.33-3.17-.22-2.19-.45-4.38-.83-6.55a2.1,2.1,0,0,0-2.33-1.51,2.07,2.07,0,0,0-1.83,2.08c.27,2.06.39,4.14.5,6.22a53.74,53.74,0,0,0,.56,6.59,2.36,2.36,0,0,0,4.63-.63C786,368.65,785.88,368.11,785.81,367.57Z"/><path d="M783.73,344.27c-3.07,0-3.25,4.77-.17,4.77S786.81,344.27,783.73,344.27Z"/><path d="M802.34,348.86c-.08,0,0,0,.26,0l-.11,0Z"/><path d="M802.9,349.05a1.41,1.41,0,0,0,.22.21l-.22-.21Z"/><path d="M812,360.73c-.47-4.23-1.18-8.7-3.17-12.52-1.82-3.49-5.69-6.07-9.56-3.84-2.46,1.43-3.75,4.14-4.52,7,0-.1,0-.2,0-.3-.36-2.15-4.11-1.79-3.88.43.6,6,1.8,11.83,2.55,17.77.36,2.87,5.15,2.32,5.06-.56a73,73,0,0,1,.29-9.47c0-.54.11-1.08.18-1.61,0-.27.07-.54.11-.81l.07-.48c.17-1,.38-2,.64-3a21.53,21.53,0,0,1,.83-2.5.21.21,0,0,0,0-.07l.06-.1.29-.55c.09-.15.46-.63.51-.72a3.66,3.66,0,0,0,.43-.38c.26-.11.44-.15,0-.07l.44-.11h.3a1.17,1.17,0,0,0,.27.16h0l-.07-.07.07.07c.12,0,.27.23.22.21l.06.06c.11.12.22.26.34.38h0c.19.33.41.64.59,1s.36.74.52,1.12l0,.08a.47.47,0,0,0,0,.09l.15.42c.34,1,.61,2,.85,3a54.94,54.94,0,0,1,1,5.85s0,.37,0,.48c0,.28.06.56.08.84,0,.49.09,1,.13,1.48.07,1,.13,2,.16,3,.06,1.5.07,3,0,4.51,0,3.47,5.09,3.56,5.36.14A58.45,58.45,0,0,0,812,360.73Z"/><path d="M817.94,360.53c-.68-3.37-1.41-6.74-1.88-10.15-.31-2.22-4.18-1.72-4,.54.33,3.36,1,6.68,1.39,10A68.13,68.13,0,0,1,814,371a2.58,2.58,0,0,0,5.16,0A41.83,41.83,0,0,0,817.94,360.53Z"/><path d="M814.85,334.46c-3.15,0-3.41,4.9-.25,4.9S818,334.46,814.85,334.46Z"/><path d="M835.83,349.12a2.35,2.35,0,0,0-2.8-1.63l-.39.06c-1-6-2.33-12-3-18-.3-2.63-4.4-2.59-4.17.11.55,6.25,1.57,12.44,2.45,18.65a16.12,16.12,0,0,0-5.13,1.28,2.26,2.26,0,0,0-1.06,2.53,2.32,2.32,0,0,0,2.15,1.67,11.69,11.69,0,0,0,2.88-.39l1.78-.36c.2,1.71.37,3.42.48,5.13s.17,3.19.18,4.78-.33,3.66.29,5.15c.75,1.84,3.42,2.46,4.48.46.82-1.55.64-3.58.6-5.29,0-1.52-.17-3-.32-4.55-.21-2.22-.51-4.43-.84-6.63l.83-.16A2.32,2.32,0,0,0,835.83,349.12Z"/><path d="M858.53,369.17a2.74,2.74,0,0,0-3.62-1.12l-1,.41-.17.07-.24.08c-.62.21-1.23.41-1.86.57a13.74,13.74,0,0,1-1.39.29l-.48,0-.5,0c-.38,0-.75-.06-1.13-.08h0c-.2-.06-.41-.1-.61-.17l-.31-.13-.08-.05-.43-.28,0,0a4.68,4.68,0,0,0-.56-.62c-.09-.17-.2-.33-.28-.5s-.38-1-.3-.65c-.08-.28-.18-.55-.24-.84a9.37,9.37,0,0,1-.21-1.08c0-.17-.05-.34-.07-.52a.25.25,0,0,1,0-.08v-.08c0-.83,0-1.65,0-2.49a26.37,26.37,0,0,1,.29-2.66c0-.15.05-.3.07-.46l.06-.29c.09-.44.19-.88.29-1.31a1.21,1.21,0,0,0,0-.18,10.41,10.41,0,0,0,3.33-1c2.7-1.32,5.22-4.16,4.55-7.37-.51-2.43-3.43-4.8-6-4.15a6.51,6.51,0,0,0-3.48,3.1,23.94,23.94,0,0,0-2.06,4.15c-.17-.11-.34-.23-.55-.39a2.33,2.33,0,0,0-3.19.69,2.36,2.36,0,0,0,.69,3.19,8.54,8.54,0,0,0,1.69,1c-.22,1-.41,2-.57,2.93-.62,3.8-.7,8.38,1.52,11.71,3.64,5.47,10.55,4.1,15.7,1.85A2.7,2.7,0,0,0,858.53,369.17Zm-9.75-19.53.05,0,0,0,0,.06v.05a.13.13,0,0,1,0,.06,1.21,1.21,0,0,0,0,.18,1.05,1.05,0,0,0,0,.13.87.87,0,0,0-.16.2l-.16.24,0,0,0,0c-.23.23-.46.44-.7.65l0,0,.18-.35A13.72,13.72,0,0,1,848.78,349.64Z"/><path d="M543.6,437.51c.53.72.09.05,0-.15s-.2-.47-.31-.69l-.15-.42-.3-1c-.47-1.55-.83-3.12-1.2-4.69-.81-3.41-1.59-7-3.28-10.08-1.56-2.85-4.47-5.18-7.88-4.09a6.07,6.07,0,0,0-3.42,2.85,13.52,13.52,0,0,0-6.41-5.71,2.59,2.59,0,0,0-2.61.61,22.19,22.19,0,0,0-2.46,3.67c-.29-1.36-.58-2.72-.9-4.07-.68-2.83-5.07-1.76-4.39,1.07,1,4.08,1.74,8.21,2.41,12.35-.45,3.5-.31,7.37,1.67,10.32,1.6,2.39,5.46,1.16,4.82-1.87-.49-2.3-.94-4.61-1.4-6.93a20.06,20.06,0,0,1,.31-2.16,25.29,25.29,0,0,1,1.52-5,17.14,17.14,0,0,1,.95-1.85,14.58,14.58,0,0,1,1.17,1.31,20.69,20.69,0,0,1,1.39,2.16,27.73,27.73,0,0,1,1.34,2.67c.26.58.49,1.2.72,1.85a27.38,27.38,0,0,0,.93,8.4,2.76,2.76,0,0,0,5.28.15c.92-3,.29-6.39-.78-9.47,0-.6.07-1.19.14-1.78,0-.13,0-.26,0-.38a1.46,1.46,0,0,1,.05-.27c.08-.39.16-.77.27-1.15s.2-.62.32-.93a2.38,2.38,0,0,1,.17-.31,3.28,3.28,0,0,0,.2-.31l.14-.13.09-.07h.08l.21-.05-.2.05h0c-.23.06,0,0,.19,0,0,.09.68.6.19.07.16.17.33.33.49.51l.14.14a.76.76,0,0,0,.08.15c.33.59.65,1.18.93,1.81a3.05,3.05,0,0,1,.13.32l.05.12c.13.35.25.69.36,1.05.25.77.47,1.56.68,2.35.4,1.53.77,3.07,1.13,4.62.66,2.75,1.18,6.39,3.35,8.42a2.59,2.59,0,0,0,3.76-3.55Z"/><path d="M532.12,421.47h0Z"/><path d="M561,419.21a9.51,9.51,0,0,0-5.44-4.66,8,8,0,0,0-8.08,2.37,2.37,2.37,0,0,0-.4,2.77,2.44,2.44,0,0,0,1.2,1,48.19,48.19,0,0,0-2.1,9.71,12.35,12.35,0,0,0,1.19,6.45,9.56,9.56,0,0,0,5.84,4.5,6.62,6.62,0,0,0,7.28-2.13,14.41,14.41,0,0,0,2.49-6.93A20.37,20.37,0,0,0,561,419.21ZM558,430c0,.43-.09.85-.15,1.27,0,.12-.07.47-.07.48,0,.26-.09.52-.14.78-.09.43-.18.84-.29,1.26l-.21.71c0,.07-.21.55-.23.63a8.46,8.46,0,0,1-.44.77,2.68,2.68,0,0,1-.23.3c-.14.14-.58.36-.07.09a3,3,0,0,1-.26.15h0a.2.2,0,0,1-.08,0l-.14,0-.09,0h-.05a5.67,5.67,0,0,0-.65,0,7.35,7.35,0,0,1-1.31-.4l-.38-.2c-.19-.1-.37-.23-.56-.34l-.07,0a4.27,4.27,0,0,1-.38-.36c-.09-.09-.17-.19-.25-.28s-.27-.39-.32-.47-.18-.35-.27-.52l0-.07a.45.45,0,0,1,0-.08c-.09-.33-.2-.64-.27-1s-.08-.4-.12-.61c0,0,0-.06,0-.09V432c0-.5-.06-1-.05-1.51s0-1,.09-1.56c0-.15,0-.3.05-.44s.07-.53.08-.62c.16-1,.37-2,.61-3,.41-1.69.92-3.37,1.29-5.07a.41.41,0,0,0,0-.11l.09,0,.05,0h0a5.47,5.47,0,0,0,.57,0h.07l-.06,0,.08,0a.77.77,0,0,1,.26.07l.17,0,.1,0,.7.43a.94.94,0,0,1,.14.12c.13.13.27.26.39.4s.18.21.27.31l.14.21c.21.35.43.69.61,1.05.08.15.4.9.4.86a17.29,17.29,0,0,1,.69,2.33q.15.64.24,1.29c0,.11.09.84,0,.15l.06.64A18.21,18.21,0,0,1,558,430Z"/><path d="M554,419.7l-.26-.07h0Z"/><path d="M555.66,436.54h0c.15,0,.2-.06.2-.07h0S555.48,436.57,555.66,436.54Z"/><path d="M578.22,411.31c-2.47-.65-5.27,1.14-6.85,2.9a13.72,13.72,0,0,0-2.41,4,2.22,2.22,0,0,0-1.75-.73,2.35,2.35,0,0,0-2.21,2.43,74.87,74.87,0,0,0,2,13.9,2.49,2.49,0,0,0,2.82,1.67,2.54,2.54,0,0,0,2.06-2.56c0-1.73,0-3.47.16-5.2a1.47,1.47,0,0,1,0-.25c0-.29.06-.58.1-.86.06-.51.13-1,.22-1.52a26.12,26.12,0,0,1,.63-2.89c.11-.38.23-.76.35-1.13l.21-.55c.08-.19.16-.38.25-.56a11.23,11.23,0,0,1,.65-1.24s.17-.25.25-.38L575,418l.37-.42.37-.33c.28-.2.57-.38.86-.58l0,0h0c.24-.07.47-.17.71-.24a8.62,8.62,0,0,0,1.68-.66C581,414.69,580.1,411.8,578.22,411.31Z"/><polygon points="592.11 416.99 592.11 416.99 592.11 416.99 592.11 416.99"/><polygon points="592.1 416.99 592.1 416.99 592.11 416.99 592.1 416.99"/><path d="M592.07,417.09l0-.08v0H592A.22.22,0,0,0,592.07,417.09Z"/><path d="M604.54,436.11a2.66,2.66,0,0,0-3.22-1.76l-.8.17-.18,0c-.51.07-1,.14-1.51.18s-.91.07-1.37.07a4.06,4.06,0,0,1-1.39-.05c.14,0,.54.08.09,0l-.3-.05-.58-.11a11.88,11.88,0,0,1-1.3-.35l-.35-.1-.06,0-.26-.11a12.47,12.47,0,0,1-1.14-.61c-.19-.11-.36-.23-.54-.35l-.09-.06h0c-.33-.27-.65-.55-.95-.85-.13-.12-.26-.26-.38-.39s-.09-.11-.14-.17c-.23-.32-.47-.64-.68-1-.09-.16-.18-.32-.26-.48l-.15-.29c-.14-.36-.28-.72-.39-1.09s-.18-.78-.27-1.17a1,1,0,0,1,0-.17q0-.4-.06-.81c0-.46,0-.92,0-1.37,0-.1,0-.27,0-.35,0-.25.07-.5.12-.74.12-.66.29-1.3.47-1.94a1.77,1.77,0,0,0,2.2.79c3-1.21,6.18-3.68,5.36-7.29a4.3,4.3,0,0,0-2.28-2.83,5.22,5.22,0,0,0-4.62.16,9.22,9.22,0,0,0-3.6,3.62,20.06,20.06,0,0,0-2.5,6.91,14.18,14.18,0,0,0,4,13,15.3,15.3,0,0,0,15.33,2.8A2.64,2.64,0,0,0,604.54,436.11ZM590.6,418.23l.19-.23c.1-.12.21-.24.32-.35l.28-.26c.17-.12.35-.23.53-.34L592,417h0v0l0,0h0v0h0l0,0v0h0c0,.09,0,.11,0,.1l-.06.15a3.37,3.37,0,0,0-.19.32h0q-.32.35-.66.66l0,0,0,0c-.17.1-.33.23-.5.34s-.24.12-.36.19c.08-.13.16-.27.25-.4Z"/><path d="M592.1,417h0Z"/><path d="M592.1,416.89h0Z"/><path d="M592.09,416.87h0l0,0Z"/><path d="M592.13,417Z"/><path d="M592.1,416.82v0h0Z"/><path d="M592.09,416.82h0v0a.08.08,0,0,0,0,0Z"/><path d="M631.82,421.52a2.36,2.36,0,0,0,2.44-2.26,2.42,2.42,0,0,0-2.26-2.44,24.42,24.42,0,0,0-4.19-.08c-.37-4.27-.65-8.56-1.31-12.74-.34-2.19-4.16-1.65-3.89.57.53,4.26.67,8.55.9,12.83-.58.15-1.16.33-1.73.53a8.62,8.62,0,0,0-3.61,2,2.29,2.29,0,0,0,2.08,3.91,21,21,0,0,0,3.18-1.26h0l.33-.12.07,0c0,.1,0,.21,0,.31.54,6,1.29,12.7,4.65,17.84a2.53,2.53,0,0,0,4.34-2.6c-2.76-5.17-3.91-10.77-4.58-16.48l.4,0A22,22,0,0,1,631.82,421.52Z"/><path d="M644.36,417.51l-.16,0h-.11A.4.4,0,0,0,644.36,417.51Z"/><path d="M644.81,417.74l0-.05h0l-.16-.09A.46.46,0,0,0,644.81,417.74Z"/><path d="M650.79,417.41a8.64,8.64,0,0,0-3.85-4.58,6.46,6.46,0,0,0-2-.6,2.44,2.44,0,0,0-1.54-1.3,2.26,2.26,0,0,0-2.65,1.65c.15-.4-.07.16-.12.28s-.16.39-.24.59l0,.08a2.55,2.55,0,0,0-1,2.37c-.33.75-.66,1.5-1,2.26a30.22,30.22,0,0,0-2.24,7,11.7,11.7,0,0,0,1,7.46c1.31,2.45,4.06,4.69,6.91,4.8,4.59.17,7.48-5.29,8-9.24A21.08,21.08,0,0,0,650.79,417.41Zm-3.91,9.11c0,.08,0,.16,0,.24s0,.11,0,.16,0,.09,0,.13v0c-.05.33-.09.66-.15,1s-.1.51-.16.76-.07.28-.11.42l-.09.27c-.09.26-.05.17.11-.26,0,.58-.82,1.59-1.13,2,.23-.32-.32.36-.29.33-.11.13-.23.25-.35.37a.69.69,0,0,1-.1.12l-.11.06a2.07,2.07,0,0,1-.25.15l-.09,0h-.18l-.25-.07a4.42,4.42,0,0,1-.61-.32,6.15,6.15,0,0,1-1.83-1.91l-.08-.12,0-.12c-.08-.21-.16-.42-.23-.64s-.11-.41-.16-.63v-.07a12.24,12.24,0,0,1,0-2.52,32.5,32.5,0,0,1,2.62-8.28l.13,0,.31-.1h.28s0,0,0,0l.14,0h.19l0,0h-.06l.1,0h0l.11.06a0,0,0,0,1,0,0s.09.05.18.13.15.09,0,.05c.17.16.36.36.39.39-.59-.53,0,0,.11.19a10,10,0,0,1,.55,1c-.39-.74.06.18.14.38s.21.61.3.92.19.7.27,1.06c0,.12,0,.24.07.36a2.23,2.23,0,0,0,0,.23A24.57,24.57,0,0,1,646.88,426.52Z"/><path d="M646.84,427v-.05c0-.05,0-.11,0-.16S646.86,426.58,646.84,427Z"/><path d="M698.22,433.21h.06l0,0,.09-.09,0,0C698.35,433,698.27,433.13,698.22,433.21Z"/><path d="M704.08,421.21a11.82,11.82,0,0,0-3.85-6.46,1.89,1.89,0,0,0-3.17-1.26,6,6,0,0,0-.61,0,2.71,2.71,0,0,0-2.62,2.73,3.32,3.32,0,0,0,.06.44c-2.61,3-4.59,6.73-4.78,10.68a10.19,10.19,0,0,0,1.5,5.59c-.68.23-1.37.47-2.06.67a14.14,14.14,0,0,1-1.46.36l-.67.11-.52,0c-.45,0-.89,0-1.33-.06h-.14l-.48-.11a9.74,9.74,0,0,1-1.19-.39h0l-.07,0-.63-.37c-.2-.13-.38-.26-.57-.4l-.05-.05c-.3-.31-.6-.6-.88-.93l-.1-.12,0,0c-.13-.18-.25-.38-.37-.57a11.85,11.85,0,0,1-.76-1.51c.05.12.14.41-.06-.15-.08-.24-.16-.48-.23-.73-.13-.46-.24-.93-.33-1.4a7.33,7.33,0,0,1-.21-1.88c0-.44.1-.88.15-1.32-.11.94,0,0,0-.24s.14-.65.22-1c.32-1.39.7-2.78,1.15-4.14a40.91,40.91,0,0,1,1.53-4c.06-.13.27-.58.32-.67.15-.31.3-.61.47-.9a14.35,14.35,0,0,1,1.08-1.7l.19-.27h0l0,0,.32-.29,0,0c.07.12.23.34.25.38a10.9,10.9,0,0,1,.6,1.18c1,2.22,4.84.77,4-1.56-.57-1.64-1.33-3.39-2.9-4.33a4.31,4.31,0,0,0-4.46.12c-2.91,1.75-4.48,5.47-5.74,8.45a36.83,36.83,0,0,0-2.77,9.57,14.93,14.93,0,0,0,4.45,12.16c4.43,4,11.24,3.92,16,.56a3.15,3.15,0,0,0,.48-.41,7.78,7.78,0,0,0,2.95,1.53c4.25,1.05,6.78-2.54,7.54-6.19A24.54,24.54,0,0,0,704.08,421.21Zm-4.7,8.58-.06.45c-.05.29-.11.58-.17.87s-.13.55-.21.82-.09.25-.13.38v0l-.3.59a.76.76,0,0,1-.08.11h0l0,0,0,.07h-.14c-.07,0-.39-.14-.41-.13l-.21-.1a6.28,6.28,0,0,1-1.77-1.54l-.14-.15a.79.79,0,0,0-.11-.14l-.3-.42a11.32,11.32,0,0,1-.64-1.05c-.1-.18-.2-.36-.29-.54,0,0,0,0,0,0a7.81,7.81,0,0,1-.34-1.26c-.25-1.77.56-4.17,1.53-6a22.22,22.22,0,0,1,1.62-2.6,2.89,2.89,0,0,0,.35.35l.19.28c.17.26.31.53.46.8l.15.32-.07-.14c0,.06,0,.12.07.15.12.33.24.64.34,1a17.24,17.24,0,0,1,.51,2c0,.16.13.83.12.73,0,.32.09.65.12,1A26.26,26.26,0,0,1,699.38,429.79Z"/><path d="M698.23,420.8Z"/><path d="M737.45,428a48.91,48.91,0,0,0-2.92-11c-1.3-3-3.82-5.8-7.42-4.84a5.59,5.59,0,0,0-3.48,2.88,15,15,0,0,0-1.09-1.72,7.45,7.45,0,0,0-8.49-2.6c-3.25,1.09-5,3.61-5.89,6.62a2.35,2.35,0,0,0-1,2.32c.09.84.17,1.68.26,2.52a34.85,34.85,0,0,0,1.17,10.05c.81,3.06,5.52,2,4.82-1.09a37.79,37.79,0,0,1-.89-8.8,12.1,12.1,0,0,1,.72-4.3,3.53,3.53,0,0,1,1.85-2.23l.19-.08a2.42,2.42,0,0,1,.36-.1c.22-.06.44-.1.66-.14.06,0,.39,0,.53,0h.2l.2.1.18.07h0l.38.26c.06.07.28.27.36.35l.24.3.05,0,0,0a12.51,12.51,0,0,1,.79,1.49c0,.09.18.46.22.55.11.32.22.64.31,1a35.07,35.07,0,0,1,.92,4.06c.47,2.69.64,5.43,1.2,8.11.61,2.9,5.43,2.63,5.33-.47-.08-2.67-.26-5.32-.15-8,0-.73.09-1.45.16-2.17,0-.36.09-.72.15-1.07,0-.05.14-.69.18-.83.08-.32.17-.63.28-.94,0-.12.24-.52.26-.59a4.64,4.64,0,0,0,.25-.42v0l.05-.05h0c-.1.13-.05.08,0,0h0c.11.14.25.27.36.4s.13.21.19.32a14.68,14.68,0,0,1,.89,1.93l0,.1c0,.12.08.25.13.38.13.4.26.8.38,1.21.23.78.43,1.57.62,2.36.41,1.74.75,3.5,1,5.26.53,3.12.61,6.44,1.7,9.41.91,2.45,4.62,1.25,4.75-1.05C738.79,434.45,738,431.09,737.45,428Z"/><polygon points="728.49 417.21 728.48 417.2 728.48 417.21 728.49 417.21 728.49 417.21"/><path d="M761.61,432.67a2.59,2.59,0,0,0-3.16-1.36c-1.31.62-2.64,1.23-4,1.72-.57.19-1.13.36-1.71.51l-.22,0c-.29,0-.58.07-.87.09s-.45,0-.68,0h-.28a11.2,11.2,0,0,1-1.13-.21l-.15,0,.14.06-.15-.06c-.15-.05-.19-.08-.12-.06a2.12,2.12,0,0,1-.31-.14c-.17-.08-.32-.18-.49-.27h0l-.06-.06c-.3-.24-.55-.52-.84-.77v0c-.14-.2-.28-.38-.41-.58s-.65-1.36-.32-.51c-.17-.42-.36-.83-.51-1.26s-.24-.8-.34-1.2l-.06-.28-.09-.58a17.73,17.73,0,0,1-.14-2.91c0-.25,0-.51,0-.76v0s0-.06,0-.11c0-.35.1-.69.16-1a7.17,7.17,0,0,0,7.62.3,10.27,10.27,0,0,0,4.46-6.29c.62-2.39.31-5.26-1.7-6.92-2.35-1.94-5.72-1.3-8.21,0-4.2,2.21-6.53,7.12-7.36,11.6s-.54,10.07,2.45,13.84c4.47,5.64,12.27,4.34,17.56.59A2.64,2.64,0,0,0,761.61,432.67ZM748,416.94l.1-.16h0c.29-.36.56-.72.87-1.06a5.66,5.66,0,0,1,.42-.43l.14-.13a10.45,10.45,0,0,1,1-.68c.16-.1.35-.17.5-.28-.6.41-.14.08.13,0l.54-.18.31-.08h.1c.23,0,.47,0,.7,0h0l.12,0,.05,0h0a.41.41,0,0,1,.08.14s0,0,0,.07l0,0a.58.58,0,0,0,0,.11c0,.05,0,.1,0,.15s0,.36,0,.55c0,0,0,0,0-.09s0,.09,0,.13v.12c0,.09,0,.16,0,.16v0c0,.23-.1.46-.16.68l-.09.3h0c-.21.47-.45.9-.68,1.35h0l-.18.25c-.17.21-.35.4-.53.59l-.1.1-.07,0-.59.38-.24.09-.31.09-.46,0c.13,0-.41-.07-.59-.1h0l-.41-.18c-.15-.08-.86-.54-.56-.32a3,3,0,0,0-.77-.41c.12-.24.23-.49.37-.73S747.89,417.12,748,416.94Z"/><path d="M753.07,414.15a2,2,0,0,1-.09-.25h0C753,414.06,753,414.14,753.07,414.15Z"/><path d="M753.1,415.28a2.7,2.7,0,0,0,0-.28v0C753.08,415.19,753.08,415.28,753.1,415.28Z"/><path d="M749.41,433.45l-.13-.06.12.06Z"/><path d="M770.33,428.8c-3.29,0-3.49,5.12-.19,5.12S773.64,428.8,770.33,428.8Z"/><path d="M1060.33,133.73c-3.37-6.56-10.19-8.09-17-7-2.26.36-2.65,2.62-1.77,4.18a86.13,86.13,0,0,0-17.18,1.26c-11,1.73-22,3.67-33.12,4.78-24.25,2.43-48.53,3.63-72.68,7.11-48.31,6.95-96.79,12.8-145.42,17-48.95,4.21-98,6.58-147.13,6.64-48.77.06-97.5-1.58-146.24-2.84-55-1.41-110-2.31-165,.27a3,3,0,0,0-2.86,2c-4,9.73-4.19,20.75-3.66,31.11.63,12.22,2.49,24.34,4.24,36.44,4.15,28.85,4.14,58.22,3.44,87.31-.79,32.74-3.59,65.42-5.7,98.1-2.13,33.06-4.1,66.13-5.57,99.23-.72,16.31-1.41,32.63-1.37,49,0,15.51,1.18,31.23.21,46.72-.52,8.32-2.2,22.44,8.12,25.7,4.5,1.43,9.56.94,14.18.54,5.19-.45,10.2-.84,15.42-.82,16.16.06,32.32.45,48.48.21,16.56-.25,33.1-1.27,49.64-1.81,33-1.07,66.06-1.51,99.1-1.84,65.77-.66,131.54-2.09,197.31-2.23s131.42.23,197.06-2.83c14-.66,28.06-2.13,42.07-2.35,8.49-.14,17,.26,25.48.14,8.94-.13,18.23-.41,26.92-2.72,6.71-1.79,12.94-5.07,14.57-12.33,2.13-9.47-1.2-20-3.88-29-3-10.17-6.18-19.83-7.48-30.4-3.92-31.8-3.58-63.94-3.54-95.93,0-32.53,1.08-65.08,4.28-97.47,1.6-16.21,3.58-32.44,6.7-48.43,3-15.52,6.87-30.87,10-46.37a397.33,397.33,0,0,0,6-46.51c1.2-14.78,2-29.78,4.57-44.4,1.27-7,2.94-13.93,3.77-21C1063.11,148.16,1063.61,140.12,1060.33,133.73Zm-5.23,30.17c-1.64,8.71-3.28,17.28-4.26,26.12-1.71,15.29-2.51,30.67-4.07,46-3.13,30.64-12.29,60.1-17,90.47-4.8,31.2-7.09,62.77-8.06,94.3-1,31.09-1.13,62.35-.07,93.43.52,15.07,1.52,30.15,3.48,45.1,1.31,10,4.72,19.36,7.52,29a107.79,107.79,0,0,1,3.48,15.14c.53,3.77,1,8.5-.83,12-2.82,5.59-12.58,6.46-17.93,7.14-17.11,2.16-34.44.24-51.61,1.36-63.83,4.18-127.84,4.52-191.79,4.6-63.77.09-127.5,1.21-191.27,1.86-32.05.32-64.09.53-96.14,1.1s-63.89,2.44-95.84,2.94c-15.67.25-31.34-.11-47-.2a149.42,149.42,0,0,0-15.69.6c-4.45.45-10.16,1.48-14.5,0-4.59-1.61-4.41-8.48-4.32-12.46.14-5.92.62-11.77.59-17.7-.09-15.75-.52-31.49-.33-47.24.39-32,2.45-64.12,4.31-96.1s4-64.13,6.16-96.19a889.91,889.91,0,0,0,1.62-94.81,343.5,343.5,0,0,0-3.2-36c-1.72-11.75-3.63-23.52-4.31-35.39-.53-9.39-.56-19.29,2.61-28.26,97.11-4.41,194.24,2,291.36,2.59s193.74-7.51,289.87-20.68c13.11-1.8,26.19-3.94,39.35-5.42,13.77-1.56,27.61-2.42,41.42-3.56,12.8-1,25.58-2.35,38.23-4.62,11.56-2.08,24-4.85,35.43-.92a2.33,2.33,0,0,0,2.94-1.15C1058.92,144.07,1056.35,157.22,1055.1,163.9Z"/></g></svg>